<?xml version="1.0" encoding="utf-8"?>
<!-- Generator: Adobe Illustrator 16.0.0, SVG Export Plug-In . SVG Version: 6.00 Build 0)  -->
<!DOCTYPE svg PUBLIC "-//W3C//DTD SVG 1.1//EN" "http://www.w3.org/Graphics/SVG/1.1/DTD/svg11.dtd">
<svg version="1.1" id="Layer_1" xmlns="http://www.w3.org/2000/svg" xmlns:xlink="http://www.w3.org/1999/xlink" x="0px" y="0px"
	 width="338px" height="223px" viewBox="-419.5 -142 338 223" enable-background="new -419.5 -142 338 223" xml:space="preserve">
<g>
	<path fill="#FFFFFF" d="M-81.5,73c0,4.418-3.582,8-8,8h-322c-4.418,0-8-3.582-8-8v-207c0-4.418,3.582-8,8-8h322
		c4.418,0,8,3.582,8,8V73z"/>
</g>
<path fill="#FC9D9D" d="M-390.001-16.165c-0.63,0-1.264-0.209-1.791-0.639c-1.213-0.989-1.394-2.775-0.404-3.988
	c14.589-17.884,67.422-41.464,147.09-28.605c72.132,11.642,108.735-15.011,137.544-45.548c1.074-1.138,2.869-1.191,4.007-0.117
	s1.191,2.869,0.117,4.007c-24.979,26.478-55.605,50.142-108.646,50.143c-10.405,0-21.668-0.91-33.926-2.889
	c-73.203-11.815-126.984,8.438-141.794,26.592C-388.364-16.521-389.18-16.165-390.001-16.165z"/>
<g>
	<g>
		<path fill="#E0E0E0" d="M-387.406-93.066c-0.406-0.406-0.609-0.94-0.609-1.602v-15.874c0-0.661,0.18-1.171,0.538-1.531
			c0.359-0.358,0.869-0.539,1.531-0.539h9.751c0.718,0,1.247,0.142,1.588,0.425c0.34,0.284,0.51,0.728,0.51,1.333
			c0,0.586-0.17,1.021-0.51,1.304c-0.341,0.284-0.87,0.425-1.588,0.425h-7.455v4.592h6.889c0.718,0,1.247,0.142,1.587,0.425
			c0.34,0.284,0.51,0.728,0.51,1.333c0,0.586-0.17,1.021-0.51,1.304c-0.34,0.284-0.869,0.425-1.587,0.425h-6.889v6.378
			c0,0.68-0.194,1.219-0.581,1.616c-0.388,0.397-0.912,0.595-1.573,0.595C-386.467-92.457-387-92.659-387.406-93.066z"/>
		<path fill="#E0E0E0" d="M-369.619-93.292c-1.115-0.595-1.975-1.436-2.579-2.523c-0.605-1.086-0.907-2.367-0.907-3.841
			s0.302-2.754,0.907-3.841c0.604-1.086,1.464-1.922,2.579-2.508c1.115-0.585,2.409-0.879,3.884-0.879
			c1.474,0,2.769,0.293,3.884,0.879c1.114,0.586,1.974,1.422,2.579,2.508c0.604,1.087,0.907,2.367,0.907,3.841
			s-0.303,2.754-0.907,3.841c-0.605,1.087-1.465,1.928-2.579,2.523c-1.115,0.595-2.41,0.893-3.884,0.893
			C-367.21-92.4-368.504-92.697-369.619-93.292z M-362.617-99.656c0-1.342-0.27-2.343-0.808-3.005
			c-0.539-0.661-1.31-0.992-2.311-0.992c-2.079,0-3.118,1.333-3.118,3.997s1.039,3.997,3.118,3.997
			C-363.657-95.66-362.617-96.992-362.617-99.656z"/>
		<path fill="#E0E0E0" d="M-355.147-92.967c-0.407-0.34-0.609-0.84-0.609-1.502v-16.271c0-0.661,0.202-1.162,0.609-1.502
			c0.406-0.34,0.921-0.51,1.545-0.51c0.604,0,1.109,0.17,1.517,0.51c0.405,0.34,0.609,0.841,0.609,1.502v16.271
			c0,0.662-0.204,1.162-0.609,1.502c-0.407,0.34-0.912,0.51-1.517,0.51C-354.227-92.457-354.741-92.626-355.147-92.967z"/>
		<path fill="#E0E0E0" d="M-347.579-92.967c-0.407-0.34-0.609-0.84-0.609-1.502v-16.271c0-0.661,0.202-1.162,0.609-1.502
			c0.406-0.34,0.921-0.51,1.545-0.51c0.604,0,1.109,0.17,1.517,0.51c0.405,0.34,0.609,0.841,0.609,1.502v16.271
			c0,0.662-0.204,1.162-0.609,1.502c-0.407,0.34-0.912,0.51-1.517,0.51C-346.658-92.457-347.173-92.626-347.579-92.967z"/>
		<path fill="#E0E0E0" d="M-337.814-93.292c-1.115-0.595-1.975-1.436-2.579-2.523c-0.605-1.086-0.907-2.367-0.907-3.841
			s0.302-2.754,0.907-3.841c0.604-1.086,1.464-1.922,2.579-2.508c1.115-0.585,2.409-0.879,3.884-0.879
			c1.474,0,2.769,0.293,3.884,0.879c1.114,0.586,1.974,1.422,2.579,2.508c0.604,1.087,0.907,2.367,0.907,3.841
			s-0.303,2.754-0.907,3.841c-0.605,1.087-1.465,1.928-2.579,2.523c-1.115,0.595-2.41,0.893-3.884,0.893
			C-335.405-92.4-336.699-92.697-337.814-93.292z M-330.812-99.656c0-1.342-0.27-2.343-0.808-3.005
			c-0.539-0.661-1.31-0.992-2.311-0.992c-2.079,0-3.118,1.333-3.118,3.997s1.039,3.997,3.118,3.997
			C-331.853-95.66-330.812-96.992-330.812-99.656z"/>
		<path fill="#E0E0E0" d="M-304.819-106.488c0.302-0.208,0.623-0.312,0.964-0.312c0.528,0,1.001,0.18,1.417,0.539
			c0.416,0.359,0.624,0.804,0.624,1.333c0,0.227-0.057,0.482-0.17,0.765l-4.649,10.432c-0.17,0.416-0.444,0.732-0.822,0.95
			c-0.378,0.217-0.774,0.326-1.19,0.326c-0.435,0-0.836-0.109-1.204-0.326c-0.369-0.217-0.638-0.534-0.809-0.95l-3.032-7.058
			l-2.92,7.058c-0.17,0.416-0.436,0.732-0.794,0.95c-0.359,0.217-0.766,0.326-1.219,0.326c-0.436,0-0.841-0.109-1.219-0.326
			c-0.379-0.217-0.652-0.534-0.822-0.95l-4.62-10.432c-0.114-0.264-0.171-0.52-0.171-0.765c0-0.529,0.223-0.973,0.667-1.333
			c0.443-0.358,0.949-0.539,1.516-0.539c0.378,0,0.724,0.104,1.035,0.312s0.553,0.51,0.723,0.907l3.033,7.625l3.09-7.568
			c0.17-0.397,0.42-0.704,0.751-0.921c0.33-0.217,0.694-0.326,1.092-0.326c0.396,0,0.765,0.104,1.105,0.312
			c0.34,0.208,0.595,0.52,0.765,0.936l3.146,7.568l3.005-7.625C-305.358-105.978-305.122-106.28-304.819-106.488z"/>
		<path fill="#E0E0E0" d="M-287.968-96.312c0.236,0.303,0.354,0.69,0.354,1.162c0,0.322-0.095,0.619-0.283,0.893
			c-0.189,0.274-0.453,0.506-0.794,0.694c-0.643,0.34-1.389,0.619-2.239,0.836c-0.851,0.217-1.635,0.326-2.353,0.326
			c-1.512,0-2.83-0.292-3.954-0.878c-1.125-0.585-1.989-1.422-2.594-2.509c-0.605-1.086-0.907-2.367-0.907-3.841
			c0-1.417,0.293-2.674,0.879-3.77c0.585-1.096,1.398-1.951,2.438-2.565c1.039-0.614,2.221-0.921,3.543-0.921
			c1.267,0,2.377,0.279,3.331,0.836c0.954,0.558,1.696,1.351,2.226,2.381c0.528,1.03,0.793,2.235,0.793,3.614
			c0,0.416-0.099,0.732-0.297,0.95c-0.199,0.217-0.478,0.326-0.837,0.326h-7.937c0.132,1.115,0.472,1.923,1.021,2.424
			c0.548,0.501,1.332,0.751,2.353,0.751c0.548,0,1.039-0.066,1.474-0.198c0.435-0.132,0.917-0.312,1.446-0.539
			c0.265-0.113,0.52-0.212,0.765-0.298c0.246-0.085,0.463-0.127,0.652-0.127C-288.511-96.765-288.204-96.614-287.968-96.312z
			 M-295.72-103.157c-0.492,0.52-0.785,1.271-0.879,2.253h5.471c-0.057-1.001-0.308-1.757-0.751-2.268
			c-0.444-0.51-1.073-0.765-1.886-0.765S-295.229-103.677-295.72-103.157z"/>
		<path fill="#E0E0E0" d="M-275.297-106.445c0.331,0.293,0.496,0.732,0.496,1.318c0,0.624-0.151,1.087-0.453,1.389
			c-0.303,0.303-0.842,0.492-1.616,0.567l-0.851,0.085c-1.039,0.113-1.79,0.454-2.253,1.021c-0.464,0.567-0.694,1.295-0.694,2.183
			v5.415c0,0.662-0.204,1.162-0.609,1.502c-0.407,0.34-0.912,0.51-1.517,0.51c-0.624,0-1.139-0.17-1.545-0.51
			c-0.407-0.34-0.609-0.84-0.609-1.502v-10.403c0-0.624,0.207-1.105,0.623-1.446s0.917-0.51,1.503-0.51
			c0.566,0,1.039,0.166,1.417,0.496c0.378,0.331,0.566,0.79,0.566,1.375v0.765c0.341-0.812,0.855-1.436,1.545-1.871
			c0.69-0.435,1.441-0.681,2.254-0.737l0.396-0.028C-276.076-106.866-275.628-106.738-275.297-106.445z"/>
		<path fill="#E0E0E0" d="M-271.455-92.683c-0.851-0.189-1.598-0.491-2.239-0.907c-0.284-0.17-0.501-0.397-0.652-0.68
			c-0.151-0.284-0.227-0.604-0.227-0.964c0-0.435,0.122-0.798,0.368-1.091c0.245-0.293,0.548-0.439,0.907-0.439
			c0.245,0,0.491,0.042,0.737,0.127c0.245,0.085,0.5,0.185,0.765,0.298c0.529,0.246,1.049,0.439,1.56,0.581
			c0.51,0.142,1.143,0.212,1.899,0.212c0.661,0,1.176-0.104,1.545-0.312c0.368-0.208,0.553-0.491,0.553-0.851
			c0-0.264-0.081-0.477-0.241-0.638c-0.161-0.16-0.459-0.307-0.893-0.439c-0.436-0.132-1.125-0.292-2.069-0.482
			c-1.683-0.321-2.892-0.803-3.629-1.445s-1.105-1.54-1.105-2.693c0-0.851,0.26-1.616,0.779-2.296s1.233-1.214,2.141-1.602
			c0.907-0.387,1.928-0.581,3.062-0.581c0.812,0,1.605,0.104,2.381,0.312c0.774,0.208,1.464,0.501,2.069,0.878
			c0.586,0.359,0.879,0.889,0.879,1.587c0,0.454-0.123,0.832-0.369,1.134c-0.245,0.303-0.548,0.454-0.906,0.454
			c-0.436,0-0.955-0.17-1.56-0.51c-0.473-0.245-0.902-0.43-1.29-0.553c-0.387-0.123-0.846-0.184-1.374-0.184
			c-0.586,0-1.049,0.109-1.39,0.326c-0.34,0.217-0.51,0.515-0.51,0.893c0,0.397,0.198,0.7,0.595,0.907
			c0.397,0.208,1.162,0.416,2.297,0.624c1.266,0.246,2.258,0.543,2.976,0.893c0.719,0.35,1.238,0.789,1.56,1.318
			c0.321,0.529,0.481,1.201,0.481,2.013c0,1.342-0.553,2.41-1.658,3.203c-1.105,0.794-2.584,1.19-4.436,1.19
			C-269.604-92.4-270.605-92.495-271.455-92.683z"/>
	</g>
</g>
<path fill="#B7EDB7" d="M-353.896,52.168c-0.726,0-1.451-0.276-2.004-0.83L-369,38.239l-13.098,13.099
	c-1.106,1.106-2.901,1.107-4.009,0c-1.107-1.107-1.107-2.902,0-4.009l15.103-15.104c1.063-1.063,2.945-1.063,4.009,0l15.104,15.104
	c1.107,1.107,1.107,2.902,0,4.009C-352.446,51.892-353.171,52.168-353.896,52.168z"/>
<g>
	<g>
		<path fill="#E0E0E0" d="M-325.167,35.714c1.417,1.72,2.126,4.176,2.126,7.37c0,2.136-0.331,4.001-0.992,5.598
			c-0.661,1.597-1.611,2.82-2.849,3.671c-1.238,0.851-2.679,1.275-4.323,1.275c-1.077,0-2.164-0.18-3.26-0.539
			c-1.096-0.358-2.031-0.859-2.806-1.502c-0.266-0.208-0.459-0.43-0.581-0.667c-0.124-0.236-0.185-0.524-0.185-0.864
			c0-0.491,0.137-0.912,0.411-1.262c0.273-0.349,0.609-0.524,1.006-0.524c0.246,0,0.458,0.033,0.638,0.1s0.421,0.184,0.724,0.354
			c0.755,0.454,1.431,0.808,2.026,1.063c0.596,0.255,1.205,0.383,1.828,0.383c1.172,0,2.103-0.539,2.792-1.616
			s1.082-2.589,1.177-4.536c-0.435,0.719-1.049,1.29-1.843,1.715c-0.794,0.425-1.682,0.638-2.664,0.638
			c-1.172,0-2.216-0.274-3.133-0.822c-0.917-0.548-1.635-1.313-2.154-2.296c-0.52-0.982-0.779-2.098-0.779-3.345
			c0-1.304,0.293-2.471,0.879-3.501c0.585-1.03,1.398-1.833,2.438-2.41c1.039-0.576,2.211-0.864,3.515-0.864
			C-328.588,33.134-326.584,33.994-325.167,35.714z M-328.767,42.063c0.548-0.586,0.821-1.351,0.821-2.296
			c0-0.945-0.273-1.715-0.821-2.31c-0.549-0.595-1.267-0.893-2.154-0.893c-0.889,0-1.602,0.293-2.141,0.879
			c-0.538,0.586-0.808,1.36-0.808,2.324c0,0.945,0.27,1.71,0.808,2.296c0.539,0.586,1.252,0.878,2.141,0.878
			C-330.033,42.942-329.315,42.649-328.767,42.063z"/>
		<path fill="#E0E0E0" d="M-319.03,50.993c-1.275-1.758-1.913-4.299-1.913-7.625c0-3.307,0.638-5.839,1.913-7.597
			c1.276-1.758,3.123-2.636,5.542-2.636s4.267,0.878,5.542,2.636c1.275,1.757,1.913,4.29,1.913,7.597
			c0,3.326-0.638,5.868-1.913,7.625c-1.275,1.757-3.123,2.636-5.542,2.636S-317.754,52.75-319.03,50.993z M-311.093,48.611
			c0.5-1.096,0.751-2.844,0.751-5.244c0-2.418-0.251-4.167-0.751-5.244c-0.501-1.077-1.3-1.616-2.396-1.616s-1.895,0.543-2.396,1.63
			c-0.501,1.087-0.751,2.831-0.751,5.23c0,2.4,0.25,4.148,0.751,5.244c0.501,1.096,1.3,1.644,2.396,1.644
			S-311.594,49.708-311.093,48.611z"/>
		<path fill="#E0E0E0" d="M-302.589,43.722c-0.917-1.049-1.375-2.575-1.375-4.578c0-1.946,0.463-3.444,1.389-4.493
			s2.192-1.573,3.799-1.573c1.625,0,2.896,0.524,3.812,1.573c0.916,1.049,1.375,2.556,1.375,4.521c0,2.003-0.459,3.525-1.375,4.564
			c-0.917,1.04-2.188,1.559-3.812,1.559C-300.402,45.295-301.673,44.771-302.589,43.722z M-297.501,41.836
			c0.265-0.529,0.396-1.417,0.396-2.665c0-1.19-0.137-2.055-0.41-2.594c-0.274-0.539-0.695-0.808-1.262-0.808
			c-0.567,0-0.983,0.265-1.247,0.793c-0.266,0.529-0.397,1.399-0.397,2.608c0,1.229,0.132,2.112,0.397,2.65
			c0.264,0.539,0.68,0.808,1.247,0.808C-298.191,42.63-297.766,42.366-297.501,41.836z M-296.707,53.912
			c-0.397,0-0.742-0.146-1.035-0.439c-0.293-0.292-0.439-0.656-0.439-1.091c0-0.359,0.114-0.737,0.341-1.134l10.034-17.32
			c0.397-0.718,0.926-1.077,1.588-1.077c0.415,0,0.77,0.146,1.062,0.439c0.293,0.293,0.439,0.657,0.439,1.091
			c0,0.359-0.113,0.737-0.34,1.134l-10.035,17.32C-295.526,53.553-296.065,53.912-296.707,53.912z M-287.962,51.999
			c-0.917-1.049-1.375-2.574-1.375-4.578c0-1.965,0.458-3.468,1.375-4.507c0.916-1.039,2.187-1.559,3.812-1.559
			c1.605,0,2.872,0.524,3.798,1.573s1.39,2.556,1.39,4.521c0,1.984-0.459,3.5-1.375,4.549c-0.917,1.049-2.188,1.573-3.812,1.573
			C-285.775,53.572-287.046,53.047-287.962,51.999z M-282.874,50.114c0.265-0.529,0.396-1.417,0.396-2.665
			c0-1.209-0.137-2.083-0.411-2.622c-0.273-0.539-0.694-0.808-1.261-0.808c-0.567,0-0.988,0.27-1.262,0.808
			c-0.274,0.539-0.411,1.413-0.411,2.622c0,1.247,0.132,2.136,0.396,2.665c0.265,0.529,0.69,0.793,1.276,0.793
			C-283.564,50.907-283.139,50.643-282.874,50.114z"/>
	</g>
</g>
<path fill="#B7EDB7" d="M-201.896,52.168c-0.726,0-1.451-0.276-2.004-0.83L-217,38.239l-13.098,13.099
	c-1.106,1.106-2.901,1.107-4.009,0c-1.107-1.107-1.107-2.902,0-4.009l15.103-15.104c1.063-1.063,2.945-1.063,4.009,0l15.104,15.104
	c1.107,1.107,1.107,2.902,0,4.009C-200.446,51.892-201.171,52.168-201.896,52.168z"/>
<g>
	<g>
		<path fill="#E0E0E0" d="M-170.588,51.588c0,1.19-0.689,1.786-2.068,1.786h-9.695c-1.398,0-2.098-0.595-2.098-1.786
			c0-1.172,0.699-1.758,2.098-1.758h2.637V38.236l-2.494,1.502c-0.284,0.17-0.567,0.255-0.851,0.255
			c-0.473,0-0.875-0.199-1.205-0.595c-0.331-0.397-0.496-0.841-0.496-1.333c0-0.661,0.293-1.162,0.879-1.502l4.479-2.693
			c0.661-0.397,1.322-0.595,1.984-0.595c0.624,0,1.134,0.194,1.53,0.581c0.397,0.388,0.596,0.912,0.596,1.573v14.4h2.637
			C-171.277,49.83-170.588,50.416-170.588,51.588z"/>
		<path fill="#E0E0E0" d="M-167.03,50.993c-1.275-1.758-1.913-4.299-1.913-7.625c0-3.307,0.638-5.839,1.913-7.597
			c1.276-1.758,3.123-2.636,5.542-2.636s4.267,0.878,5.542,2.636c1.275,1.757,1.913,4.29,1.913,7.597
			c0,3.326-0.638,5.868-1.913,7.625c-1.275,1.757-3.123,2.636-5.542,2.636S-165.754,52.75-167.03,50.993z M-159.093,48.611
			c0.5-1.096,0.751-2.844,0.751-5.244c0-2.418-0.251-4.167-0.751-5.244c-0.501-1.077-1.3-1.616-2.396-1.616s-1.895,0.543-2.396,1.63
			c-0.501,1.087-0.751,2.831-0.751,5.23c0,2.4,0.25,4.148,0.751,5.244c0.501,1.096,1.3,1.644,2.396,1.644
			S-159.594,49.708-159.093,48.611z"/>
		<path fill="#E0E0E0" d="M-151.028,52.849c-0.454-0.463-0.681-1.044-0.681-1.743s0.227-1.28,0.681-1.744
			c0.453-0.462,1.029-0.694,1.729-0.694s1.276,0.232,1.729,0.694c0.454,0.463,0.681,1.044,0.681,1.744s-0.227,1.28-0.681,1.743
			c-0.453,0.463-1.03,0.694-1.729,0.694S-150.575,53.312-151.028,52.849z"/>
		<path fill="#E0E0E0" d="M-129.571,51.588c0,1.19-0.699,1.786-2.098,1.786h-10.545c-0.586,0-1.054-0.174-1.403-0.524
			c-0.35-0.35-0.524-0.789-0.524-1.318c0-0.681,0.274-1.304,0.822-1.871l6.236-6.604c1.398-1.474,2.098-2.835,2.098-4.082
			c0-0.775-0.218-1.365-0.652-1.772c-0.435-0.406-1.067-0.609-1.898-0.609c-0.719,0-1.38,0.123-1.984,0.369
			c-0.605,0.246-1.304,0.605-2.098,1.077c-0.321,0.189-0.567,0.322-0.737,0.397c-0.17,0.076-0.368,0.113-0.595,0.113
			c-0.397,0-0.737-0.184-1.021-0.553c-0.284-0.369-0.426-0.798-0.426-1.29c0-0.359,0.062-0.657,0.185-0.893
			c0.122-0.236,0.326-0.449,0.609-0.638c0.851-0.624,1.828-1.12,2.934-1.488s2.216-0.553,3.331-0.553
			c1.342,0,2.518,0.227,3.529,0.68c1.011,0.454,1.79,1.101,2.338,1.942s0.822,1.81,0.822,2.905c0,1.153-0.241,2.221-0.723,3.203
			c-0.482,0.983-1.29,2.079-2.424,3.288l-4.45,4.677h6.576C-130.271,49.83-129.571,50.416-129.571,51.588z"/>
		<path fill="#E0E0E0" d="M-113.158,51.474c0,0.529-0.194,1.002-0.581,1.417c-0.388,0.416-0.837,0.624-1.347,0.624
			c-0.492,0-0.945-0.198-1.361-0.595l-6.207-5.754v4.337c0,0.662-0.204,1.163-0.609,1.502c-0.407,0.34-0.912,0.51-1.517,0.51
			c-0.624,0-1.139-0.17-1.545-0.51c-0.407-0.34-0.609-0.84-0.609-1.502V35.26c0-0.661,0.202-1.162,0.609-1.502
			c0.406-0.34,0.921-0.51,1.545-0.51c0.604,0,1.109,0.17,1.517,0.51c0.405,0.34,0.609,0.841,0.609,1.502v10.148l5.669-5.584
			c0.415-0.415,0.879-0.624,1.389-0.624c0.529,0,0.992,0.194,1.39,0.581c0.396,0.388,0.595,0.846,0.595,1.375
			c0,0.492-0.218,0.955-0.651,1.389l-3.771,3.6l4.224,3.912C-113.376,50.473-113.158,50.945-113.158,51.474z"/>
	</g>
</g>
<line fill="none" stroke="#F2F2F2" stroke-miterlimit="10" x1="-102.5" y1="5.5" x2="-396.5" y2="5.5"/>
</svg>
