<?xml version="1.0" encoding="utf-8"?>
<!-- Generator: Adobe Illustrator 16.0.0, SVG Export Plug-In . SVG Version: 6.00 Build 0)  -->
<!DOCTYPE svg PUBLIC "-//W3C//DTD SVG 1.1//EN" "http://www.w3.org/Graphics/SVG/1.1/DTD/svg11.dtd">
<svg version="1.1" id="Layer_1" xmlns="http://www.w3.org/2000/svg" xmlns:xlink="http://www.w3.org/1999/xlink" x="0px" y="0px"
	 width="337px" height="493px" viewBox="0 0 337 493" enable-background="new 0 0 337 493" xml:space="preserve">
<g>
	<path fill="#FFFFFF" d="M337,485.362c0,4.218-3.582,7.638-8,7.638H8c-4.418,0-8-3.42-8-7.638V8.011C0,3.793,3.582,0,8,0h321
		c4.418,0,8,3.793,8,8.011V485.362z"/>
</g>
<circle fill="#FAD4C1" cx="60.334" cy="67.706" r="33.333"/>
<path fill="#F2F2F2" d="M119,220.223c0,1.534-1.243,2.777-2.777,2.777H29.777c-1.534,0-2.777-1.244-2.777-2.777v-86.445
	c0-1.534,1.243-2.777,2.777-2.777h86.445c1.534,0,2.777,1.244,2.777,2.777V220.223z"/>
<path display="none" fill="#F2F2F2" d="M217,220.223c0,1.534-1.243,2.777-2.777,2.777h-86.445c-1.534,0-2.777-1.244-2.777-2.777
	v-86.445c0-1.534,1.243-2.777,2.777-2.777h86.445c1.534,0,2.777,1.244,2.777,2.777V220.223z"/>
<path display="none" fill="#F2F2F2" d="M314,220.223c0,1.534-1.243,2.777-2.777,2.777h-86.445c-1.534,0-2.777-1.244-2.777-2.777
	v-86.445c0-1.534,1.243-2.777,2.777-2.777h86.445c1.534,0,2.777,1.244,2.777,2.777V220.223z"/>
<path display="none" fill="#F2F2F2" d="M119,318.223c0,1.534-1.243,2.777-2.777,2.777H29.777c-1.534,0-2.777-1.243-2.777-2.777
	v-86.445c0-1.534,1.243-2.777,2.777-2.777h86.445c1.534,0,2.777,1.244,2.777,2.777V318.223z"/>
<path display="none" fill="#F2F2F2" d="M217,318.223c0,1.534-1.243,2.777-2.777,2.777h-86.445c-1.534,0-2.777-1.243-2.777-2.777
	v-86.445c0-1.534,1.243-2.777,2.777-2.777h86.445c1.534,0,2.777,1.244,2.777,2.777V318.223z"/>
<path display="none" fill="#F2F2F2" d="M314,318.223c0,1.534-1.243,2.777-2.777,2.777h-86.445c-1.534,0-2.777-1.243-2.777-2.777
	v-86.445c0-1.534,1.243-2.777,2.777-2.777h86.445c1.534,0,2.777,1.244,2.777,2.777V318.223z"/>
<path display="none" fill="#F2F2F2" d="M119,415.223c0,1.534-1.243,2.777-2.777,2.777H29.777c-1.534,0-2.777-1.243-2.777-2.777
	v-86.445c0-1.534,1.243-2.777,2.777-2.777h86.445c1.534,0,2.777,1.243,2.777,2.777V415.223z"/>
<path display="none" fill="#F2F2F2" d="M217,415.223c0,1.534-1.243,2.777-2.777,2.777h-86.445c-1.534,0-2.777-1.243-2.777-2.777
	v-86.445c0-1.534,1.243-2.777,2.777-2.777h86.445c1.534,0,2.777,1.243,2.777,2.777V415.223z"/>
<path display="none" fill="#F2F2F2" d="M314,415.223c0,1.534-1.243,2.777-2.777,2.777h-86.445c-1.534,0-2.777-1.243-2.777-2.777
	v-86.445c0-1.534,1.243-2.777,2.777-2.777h86.445c1.534,0,2.777,1.243,2.777,2.777V415.223z"/>
<path fill="#F2F2F2" d="M293,56c0,2.209-1.791,4-4,4H113c-2.209,0-4-1.791-4-4v-7c0-2.209,1.791-4,4-4h176c2.209,0,4,1.791,4,4V56z"
	/>
<path fill="#F2F2F2" d="M233,82c0,2.209-1.791,4-4,4H113c-2.209,0-4-1.791-4-4v-7c0-2.209,1.791-4,4-4h116c2.209,0,4,1.791,4,4V82z"
	/>
<path fill="#F2F2F2" d="M314,317c0,2.209-1.791,4-4,4H30c-2.209,0-4-1.791-4-4V135c0-2.209,1.791-4,4-4h280c2.209,0,4,1.791,4,4V317
	z"/>
<path fill="#F25586" d="M42.708,346.195c-4.518-7.748-17.21-5.483-17.21,4.222c0,6.685,7.988,13.52,17.21,22.67
	c9.219-9.15,17.205-15.985,17.205-22.67C59.913,340.676,47.188,338.507,42.708,346.195z"/>
<circle fill="#F2F2F2" cx="88.409" cy="357.916" r="15.603"/>
<circle fill="#F2F2F2" cx="130.334" cy="357.916" r="15.603"/>
<circle fill="#F2F2F2" cx="290.463" cy="357.14" r="15.603"/>
<path fill="#E2E2E2" d="M107,408c0,1.656-1.344,3-3,3H28c-1.656,0-3-1.344-3-3v-9c0-1.656,1.344-3,3-3h76c1.656,0,3,1.344,3,3V408z"
	/>
<path fill="#F2F2F2" d="M168,430c0,1.656-1.344,3-3,3H28c-1.656,0-3-1.344-3-3v-9c0-1.656,1.344-3,3-3h137c1.656,0,3,1.344,3,3V430z
	"/>
<path fill="#F2F2F2" d="M235,430c0,1.656-1.344,3-3,3h-54c-1.656,0-3-1.344-3-3v-9c0-1.656,1.344-3,3-3h54c1.656,0,3,1.344,3,3V430z
	"/>
<path fill="#F2F2F2" d="M258,408c0,1.656-1.344,3-3,3H118c-1.656,0-3-1.344-3-3v-9c0-1.656,1.344-3,3-3h137c1.656,0,3,1.344,3,3V408
	z"/>
<path fill="#C5E2F9" d="M236,452.88c0,1.171-0.949,2.12-2.12,2.12h-83.76c-1.171,0-2.12-0.949-2.12-2.12v-10.76
	c0-1.171,0.949-2.12,2.12-2.12h83.76c1.171,0,2.12,0.949,2.12,2.12V452.88z"/>
<path fill="#C5E2F9" d="M75,452c0,1.656-1.343,3-3,3H28c-1.657,0-3-1.344-3-3v-9c0-1.656,1.343-3,3-3h44c1.657,0,3,1.344,3,3V452z"
	/>
<path fill="#C5E2F9" d="M142,452c0,1.656-1.344,3-3,3H85c-1.656,0-3-1.344-3-3v-9c0-1.656,1.344-3,3-3h54c1.656,0,3,1.344,3,3V452z"
	/>
</svg>
