<?xml version="1.0" encoding="utf-8"?>
<!-- Generator: Adobe Illustrator 16.0.0, SVG Export Plug-In . SVG Version: 6.00 Build 0)  -->
<!DOCTYPE svg PUBLIC "-//W3C//DTD SVG 1.1//EN" "http://www.w3.org/Graphics/SVG/1.1/DTD/svg11.dtd">
<svg version="1.1" id="Layer_1" xmlns="http://www.w3.org/2000/svg" xmlns:xlink="http://www.w3.org/1999/xlink" x="0px" y="0px"
	 width="274px" height="366px" viewBox="0 0 274 366" enable-background="new 0 0 274 366" xml:space="preserve">
<g>
	<path fill="#FFFFFF" d="M274,359c0,3.866-3.134,7-7,7H7c-3.866,0-7-3.134-7-7V7c0-3.866,3.134-7,7-7h260c3.866,0,7,3.134,7,7V359z"
		/>
</g>
<circle fill="#F9EEC2" cx="50.668" cy="56.04" r="23.667"/>
<circle fill="#C9C3F4" cx="50.335" cy="129.039" r="23.667"/>
<circle fill="#EAC2F9" cx="50.668" cy="202.039" r="23.667"/>
<circle fill="#F9C2D6" cx="50.335" cy="275.039" r="23.667"/>
<path fill="#F2F2F2" d="M179,71.88c0,1.171-0.949,2.12-2.12,2.12H93.12C91.949,74,91,73.051,91,71.88V61.12
	c0-1.171,0.949-2.12,2.12-2.12h83.76c1.171,0,2.12,0.949,2.12,2.12V71.88z"/>
<rect x="173" y="111" fill="#FFFFFF" width="19" height="15"/>
<rect x="179" y="59" fill="#FFFFFF" width="19" height="15"/>
<rect x="129" y="185" fill="#FFFFFF" width="19" height="15"/>
<rect x="187" y="257" fill="#FFFFFF" width="19" height="15"/>
<path fill="#F25586" d="M138.501,188.838c-1.488-2.553-5.67-1.807-5.67,1.391c0,2.202,2.632,4.454,5.67,7.469
	c3.037-3.015,5.668-5.267,5.668-7.469C144.169,187.02,139.977,186.305,138.501,188.838z"/>
<path fill="#F25586" d="M196.501,260.838c-1.488-2.553-5.67-1.807-5.67,1.391c0,2.202,2.632,4.454,5.67,7.469
	c3.037-3.015,5.668-5.267,5.668-7.469C202.169,259.02,197.977,258.305,196.501,260.838z"/>
<path fill="#F25586" d="M182.913,114.838c-1.488-2.553-5.67-1.808-5.67,1.391c0,2.202,2.632,4.453,5.67,7.469
	c3.037-3.016,5.668-5.267,5.668-7.469C188.581,113.02,184.389,112.305,182.913,114.838z"/>
<path fill="#F25586" d="M189.001,62.838c-1.488-2.553-5.67-1.808-5.67,1.391c0,2.202,2.632,4.453,5.67,7.469
	c3.037-3.016,5.668-5.267,5.668-7.469C194.669,61.02,190.477,60.305,189.001,62.838z"/>
<path fill="#E2E2E2" d="M142,51c0,1.657-1.344,3-3,3H94c-1.656,0-3-1.343-3-3v-9c0-1.657,1.344-3,3-3h45c1.656,0,3,1.343,3,3V51z"/>
<path fill="#F2F2F2" d="M230,51c0,1.657-1.344,3-3,3h-78c-1.656,0-3-1.343-3-3v-9c0-1.657,1.344-3,3-3h78c1.656,0,3,1.343,3,3V51z"
	/>
<path fill="#E2E2E2" d="M173,123c0,1.656-1.344,3-3,3H94c-1.656,0-3-1.344-3-3v-9c0-1.656,1.344-3,3-3h76c1.656,0,3,1.344,3,3V123z"
	/>
<path fill="#F2F2F2" d="M242,123c0,1.656-1.344,3-3,3h-44c-1.656,0-3-1.344-3-3v-9c0-1.656,1.344-3,3-3h44c1.656,0,3,1.344,3,3V123z
	"/>
<path fill="#F2F2F2" d="M234,145c0,1.656-1.344,3-3,3H94c-1.656,0-3-1.344-3-3v-9c0-1.656,1.344-3,3-3h137c1.656,0,3,1.344,3,3V145z
	"/>
<path fill="#E2E2E2" d="M129,197c0,1.656-1.344,3-3,3H94c-1.656,0-3-1.344-3-3v-9c0-1.656,1.344-3,3-3h32c1.656,0,3,1.344,3,3V197z"
	/>
<path fill="#F2F2F2" d="M242,197c0,1.656-1.344,3-3,3h-88c-1.656,0-3-1.344-3-3v-9c0-1.656,1.344-3,3-3h88c1.656,0,3,1.344,3,3V197z
	"/>
<path fill="#F2F2F2" d="M151,217c0,1.656-1.344,3-3,3H94c-1.656,0-3-1.344-3-3v-9c0-1.656,1.344-3,3-3h54c1.656,0,3,1.344,3,3V217z"
	/>
<path fill="#E2E2E2" d="M187,269c0,1.656-1.344,3-3,3H94c-1.656,0-3-1.344-3-3v-9c0-1.656,1.344-3,3-3h90c1.656,0,3,1.344,3,3V269z"
	/>
<path fill="#F2F2F2" d="M234,291c0,1.656-1.344,3-3,3H94c-1.656,0-3-1.344-3-3v-9c0-1.656,1.344-3,3-3h137c1.656,0,3,1.344,3,3V291z
	"/>
<circle fill="#E2E2E2" cx="128.833" cy="331.167" r="4.167"/>
<circle fill="#E2E2E2" cx="144.833" cy="331.167" r="4.167"/>
<circle fill="#E2E2E2" cx="160.833" cy="331.167" r="4.167"/>
</svg>
