<?xml version="1.0" encoding="UTF-8"?>
<svg width="299px" height="173px" viewBox="0 0 299 173" version="1.1" xmlns="http://www.w3.org/2000/svg" xmlns:xlink="http://www.w3.org/1999/xlink">
    <!-- Generator: Sketch 49.3 (51167) - http://www.bohemiancoding.com/sketch -->
    <title>10 k followers copy@2x</title>
    <desc>Created with Sketch.</desc>
    <defs>
        <linearGradient x1="97.2200046%" y1="2.68528005%" x2="8.47827327%" y2="95.8941684%" id="linearGradient-1">
            <stop stop-color="#FF5571" offset="0%"></stop>
            <stop stop-color="#FF92A4" offset="100%"></stop>
        </linearGradient>
        <rect id="path-2" x="0" y="0" width="199" height="73" rx="10"></rect>
        <filter x="-47.7%" y="-75.3%" width="195.5%" height="360.3%" filterUnits="objectBoundingBox" id="filter-3">
            <feOffset dx="0" dy="40" in="SourceAlpha" result="shadowOffsetOuter1"></feOffset>
            <feGaussianBlur stdDeviation="25" in="shadowOffsetOuter1" result="shadowBlurOuter1"></feGaussianBlur>
            <feColorMatrix values="0 0 0 0 0   0 0 0 0 0   0 0 0 0 0  0 0 0 0.1 0" type="matrix" in="shadowBlurOuter1"></feColorMatrix>
        </filter>
    </defs>
    <g id="Page-1" stroke="none" stroke-width="1" fill="none" fill-rule="evenodd">
        <g id="BUY-INSTAGRAM-LIKES-Copy" transform="translate(-39.000000, -133.000000)">
            <g id="Group-3" transform="translate(89.000000, 62.000000)">
                <g id="10-k-followers-copy" transform="translate(0.000000, 81.000000)">
                    <g id="Rectangle-6-Copy">
                        <use fill="black" fill-opacity="1" filter="url(#filter-3)" xlink:href="#path-2"></use>
                        <use fill="url(#linearGradient-1)" fill-rule="evenodd" xlink:href="#path-2"></use>
                    </g>
                    <text id="10k-Followers" opacity="0.258944746" font-family="Ubuntu-Bold, Ubuntu" font-size="14" font-weight="bold" fill="#FFFFFF">
                        <tspan x="71" y="43">10k Followers</tspan>
                    </text>
                    <path d="M41.5234722,38.1961061 C41.5474938,38.1779117 41.5707529,38.1587596 41.5947745,38.1401821 C41.6311883,38.1754219 41.6670301,38.2108532 41.7093539,38.2411134 C41.7238431,38.2516471 41.654066,38.2340272 41.5234722,38.1961061 M32.2905846,38.2334526 C32.3277609,38.2070228 32.3586459,38.1752304 32.3912467,38.1447786 C32.4082144,38.1579935 32.4249914,38.1719745 32.4421497,38.1848064 C32.334243,38.2236851 32.2780018,38.241688 32.2905846,38.2334526 M52.9978073,46.1367402 L52.9978073,46.1129917 C52.9978073,46.0495984 52.9899907,45.9860135 52.9899907,45.9151509 C52.9430913,44.3469805 52.8420479,40.6803193 49.4609072,39.508405 C49.4374575,39.5003612 49.4063819,39.4927003 49.3829322,39.4846565 C46.3247491,38.6919529 43.7159231,37.0297459 43.07058,36.5963348 C45.5490028,33.1154486 45.1028867,27.8302471 45.0514118,27.2993521 C44.8565696,23.0780474 42.8934681,21.0590376 41.2729608,20.1165649 C40.0655876,19.4117692 38.655365,19.0319839 37.0817572,19 L36.9492569,19 C36.084478,19 34.3861864,19.1424913 32.7578626,20.0851555 C31.1219129,21.0270536 29.1275451,23.0464465 28.932703,27.2993521 C28.881228,27.8304386 28.4351119,33.1177468 30.9152506,36.5986331 C30.2496987,37.0460251 27.6668009,38.6894631 24.6168156,39.4764211 C24.58574,39.4846565 24.562481,39.4927003 24.5390313,39.5003612 C21.1578906,40.6803193 21.0566566,44.3469805 21.0099478,45.9069155 C21.0099478,45.9779697 21.0099478,46.041363 21.0021313,46.1047563 L21.0021313,46.1286963 C20.9943147,46.5404656 20.9864981,48.6548526 21.3992508,49.715685 C21.4774165,49.9217611 21.6175427,50.0962363 21.8043777,50.2149791 C22.038112,50.3731751 27.6395382,54 37.0115988,54 C46.3836593,54 51.9850856,50.3651312 52.2188199,50.2149791 C52.3980289,50.0962363 52.5459717,49.9217611 52.6239467,49.715685 C53.0134404,48.6625134 53.0056238,46.5481264 52.9978073,46.1367402" id="Fill-1" fill="#FFFFFF" opacity="0.258944746"></path>
                </g>
            </g>
        </g>
    </g>
</svg>