<?xml version="1.0" encoding="UTF-8"?>
<svg width="308px" height="308px" viewBox="0 0 308 308" version="1.1" xmlns="http://www.w3.org/2000/svg" xmlns:xlink="http://www.w3.org/1999/xlink">
    <!-- Generator: Sketch 49.3 (51167) - http://www.bohemiancoding.com/sketch -->
    <title>Instagram Followers@2x</title>
    <desc>Created with Sketch.</desc>
    <defs>
        <circle id="path-1" cx="154" cy="154" r="154"></circle>
    </defs>
    <g id="Page-1" stroke="none" stroke-width="1" fill="none" fill-rule="evenodd">
        <g id="BUY-INSTAGRAM-LIKES-Copy" transform="translate(-151.000000, -62.000000)">
            <g id="Group-3" transform="translate(89.000000, 62.000000)">
                <g id="Instagram-Followers" transform="translate(62.000000, 0.000000)">
                    <mask id="mask-2" fill="white">
                        <use xlink:href="#path-1"></use>
                    </mask>
                    <use id="Oval-2" fill="#B4F8FF" opacity="0.492470562" xlink:href="#path-1"></use>
                    <g id="Group" mask="url(#mask-2)">
                        <g transform="translate(68.000000, 37.000000)">
                            <g id="Group-Copy-3">
                                <ellipse id="Oval" fill="#ABAFFF" fill-rule="nonzero" cx="18.1482377" cy="18.2433125" rx="18.1482377" ry="18.2433125"></ellipse>
                                <path d="M20.9461915,19.4712227 C20.9599377,19.4608042 20.9732475,19.4498373 20.9869937,19.4391995 C21.0078312,19.4593785 21.0283414,19.4796671 21.0525609,19.4969947 C21.0608523,19.5030265 21.0209228,19.492937 20.9461915,19.4712227 M15.6627432,19.492608 C15.6840171,19.4774738 15.7016908,19.4592688 15.7203463,19.4418316 C15.7300559,19.4493987 15.7396564,19.4574045 15.7494751,19.4647522 C15.6877264,19.4870149 15.6555428,19.4973237 15.6627432,19.492608 M27.5122908,24.018181 L27.5122908,24.0045821 C27.5122908,23.9682819 27.5078178,23.931872 27.5078178,23.8912948 C27.48098,22.9933305 27.4231587,20.8937305 25.4883272,20.22267 C25.4749083,20.2180639 25.4571255,20.2136772 25.4437066,20.2090711 C23.693685,19.755154 22.2008046,18.8033426 21.831512,18.5551632 C23.2497702,16.5619414 22.9944837,13.5355344 22.9650276,13.2315338 C22.8535307,10.8143343 21.730161,9.65821081 20.8028383,9.11853299 C20.1119284,8.71495356 19.3049395,8.49748128 18.4044546,8.47916667 L18.3286323,8.47916667 C17.8337693,8.47916667 16.8619351,8.5607599 15.9301394,9.10054738 C14.9939799,9.6398962 13.8527184,10.796239 13.7412215,13.2315338 C13.7117654,13.535644 13.4564789,16.5632574 14.875719,18.5564792 C14.4948621,18.8126644 13.0168188,19.7537283 11.2714884,20.2043554 C11.2537056,20.2090711 11.2403958,20.2136772 11.2269769,20.2180639 C9.29214539,20.8937305 9.234215,22.9933305 9.20748628,23.886579 C9.20748628,23.927266 9.20748628,23.9635662 9.20301332,23.9998664 L9.20301332,24.0135749 C9.19854035,24.2493618 9.19406738,25.4601001 9.43026192,26.067553 C9.47499161,26.1855561 9.55517775,26.2854639 9.6620926,26.3534583 C9.79584526,26.4440443 13.001218,28.5208333 18.364307,28.5208333 C23.7273959,28.5208333 26.9327686,26.4394382 27.0665213,26.3534583 C27.1690723,26.2854639 27.2537314,26.1855561 27.298352,26.067553 C27.5212367,25.4644868 27.5167638,24.2537486 27.5122908,24.018181" id="Fill-1" fill="#FFFFFF"></path>
                                <rect id="Rectangle-5" fill="#FFFFFF" x="47.5426009" y="5.39583333" width="123.457399" height="9.25" rx="4.625"></rect>
                                <rect id="Rectangle-5-Copy" fill="#FFFFFF" x="47.5426009" y="20.8125" width="78.9820628" height="7.70833333" rx="3.85416667"></rect>
                            </g>
                            <g id="Group-Copy-4" transform="translate(0.000000, 67.000000)">
                                <ellipse id="Oval" fill="#ABAFFF" fill-rule="nonzero" cx="18.1482377" cy="18.2433125" rx="18.1482377" ry="18.2433125"></ellipse>
                                <path d="M20.9461915,19.4712227 C20.9599377,19.4608042 20.9732475,19.4498373 20.9869937,19.4391995 C21.0078312,19.4593785 21.0283414,19.4796671 21.0525609,19.4969947 C21.0608523,19.5030265 21.0209228,19.492937 20.9461915,19.4712227 M15.6627432,19.492608 C15.6840171,19.4774738 15.7016908,19.4592688 15.7203463,19.4418316 C15.7300559,19.4493987 15.7396564,19.4574045 15.7494751,19.4647522 C15.6877264,19.4870149 15.6555428,19.4973237 15.6627432,19.492608 M27.5122908,24.018181 L27.5122908,24.0045821 C27.5122908,23.9682819 27.5078178,23.931872 27.5078178,23.8912948 C27.48098,22.9933305 27.4231587,20.8937305 25.4883272,20.22267 C25.4749083,20.2180639 25.4571255,20.2136772 25.4437066,20.2090711 C23.693685,19.755154 22.2008046,18.8033426 21.831512,18.5551632 C23.2497702,16.5619414 22.9944837,13.5355344 22.9650276,13.2315338 C22.8535307,10.8143343 21.730161,9.65821081 20.8028383,9.11853299 C20.1119284,8.71495356 19.3049395,8.49748128 18.4044546,8.47916667 L18.3286323,8.47916667 C17.8337693,8.47916667 16.8619351,8.5607599 15.9301394,9.10054738 C14.9939799,9.6398962 13.8527184,10.796239 13.7412215,13.2315338 C13.7117654,13.535644 13.4564789,16.5632574 14.875719,18.5564792 C14.4948621,18.8126644 13.0168188,19.7537283 11.2714884,20.2043554 C11.2537056,20.2090711 11.2403958,20.2136772 11.2269769,20.2180639 C9.29214539,20.8937305 9.234215,22.9933305 9.20748628,23.886579 C9.20748628,23.927266 9.20748628,23.9635662 9.20301332,23.9998664 L9.20301332,24.0135749 C9.19854035,24.2493618 9.19406738,25.4601001 9.43026192,26.067553 C9.47499161,26.1855561 9.55517775,26.2854639 9.6620926,26.3534583 C9.79584526,26.4440443 13.001218,28.5208333 18.364307,28.5208333 C23.7273959,28.5208333 26.9327686,26.4394382 27.0665213,26.3534583 C27.1690723,26.2854639 27.2537314,26.1855561 27.298352,26.067553 C27.5212367,25.4644868 27.5167638,24.2537486 27.5122908,24.018181" id="Fill-1" fill="#FFFFFF"></path>
                                <rect id="Rectangle-5" fill="#FFFFFF" x="47.5426009" y="5.39583333" width="123.457399" height="9.25" rx="4.625"></rect>
                                <rect id="Rectangle-5-Copy" fill="#FFFFFF" x="47.5426009" y="20.8125" width="78.9820628" height="7.70833333" rx="3.85416667"></rect>
                            </g>
                            <g id="Group-Copy-5" transform="translate(0.000000, 135.000000)">
                                <ellipse id="Oval" fill="#ABAFFF" fill-rule="nonzero" cx="18.1482377" cy="18.2433125" rx="18.1482377" ry="18.2433125"></ellipse>
                                <path d="M20.9461915,19.4712227 C20.9599377,19.4608042 20.9732475,19.4498373 20.9869937,19.4391995 C21.0078312,19.4593785 21.0283414,19.4796671 21.0525609,19.4969947 C21.0608523,19.5030265 21.0209228,19.492937 20.9461915,19.4712227 M15.6627432,19.492608 C15.6840171,19.4774738 15.7016908,19.4592688 15.7203463,19.4418316 C15.7300559,19.4493987 15.7396564,19.4574045 15.7494751,19.4647522 C15.6877264,19.4870149 15.6555428,19.4973237 15.6627432,19.492608 M27.5122908,24.018181 L27.5122908,24.0045821 C27.5122908,23.9682819 27.5078178,23.931872 27.5078178,23.8912948 C27.48098,22.9933305 27.4231587,20.8937305 25.4883272,20.22267 C25.4749083,20.2180639 25.4571255,20.2136772 25.4437066,20.2090711 C23.693685,19.755154 22.2008046,18.8033426 21.831512,18.5551632 C23.2497702,16.5619414 22.9944837,13.5355344 22.9650276,13.2315338 C22.8535307,10.8143343 21.730161,9.65821081 20.8028383,9.11853299 C20.1119284,8.71495356 19.3049395,8.49748128 18.4044546,8.47916667 L18.3286323,8.47916667 C17.8337693,8.47916667 16.8619351,8.5607599 15.9301394,9.10054738 C14.9939799,9.6398962 13.8527184,10.796239 13.7412215,13.2315338 C13.7117654,13.535644 13.4564789,16.5632574 14.875719,18.5564792 C14.4948621,18.8126644 13.0168188,19.7537283 11.2714884,20.2043554 C11.2537056,20.2090711 11.2403958,20.2136772 11.2269769,20.2180639 C9.29214539,20.8937305 9.234215,22.9933305 9.20748628,23.886579 C9.20748628,23.927266 9.20748628,23.9635662 9.20301332,23.9998664 L9.20301332,24.0135749 C9.19854035,24.2493618 9.19406738,25.4601001 9.43026192,26.067553 C9.47499161,26.1855561 9.55517775,26.2854639 9.6620926,26.3534583 C9.79584526,26.4440443 13.001218,28.5208333 18.364307,28.5208333 C23.7273959,28.5208333 26.9327686,26.4394382 27.0665213,26.3534583 C27.1690723,26.2854639 27.2537314,26.1855561 27.298352,26.067553 C27.5212367,25.4644868 27.5167638,24.2537486 27.5122908,24.018181" id="Fill-1" fill="#FFFFFF"></path>
                                <rect id="Rectangle-5" fill="#FFFFFF" x="47.5426009" y="5.39583333" width="123.457399" height="9.25" rx="4.625"></rect>
                                <rect id="Rectangle-5-Copy" fill="#FFFFFF" x="47.5426009" y="20.8125" width="78.9820628" height="7.70833333" rx="3.85416667"></rect>
                            </g>
                            <g id="Group-Copy-6" transform="translate(0.000000, 202.000000)">
                                <ellipse id="Oval" fill="#ABAFFF" fill-rule="nonzero" cx="18.1482377" cy="18.2433125" rx="18.1482377" ry="18.2433125"></ellipse>
                                <path d="M20.9461915,19.4712227 C20.9599377,19.4608042 20.9732475,19.4498373 20.9869937,19.4391995 C21.0078312,19.4593785 21.0283414,19.4796671 21.0525609,19.4969947 C21.0608523,19.5030265 21.0209228,19.492937 20.9461915,19.4712227 M15.6627432,19.492608 C15.6840171,19.4774738 15.7016908,19.4592688 15.7203463,19.4418316 C15.7300559,19.4493987 15.7396564,19.4574045 15.7494751,19.4647522 C15.6877264,19.4870149 15.6555428,19.4973237 15.6627432,19.492608 M27.5122908,24.018181 L27.5122908,24.0045821 C27.5122908,23.9682819 27.5078178,23.931872 27.5078178,23.8912948 C27.48098,22.9933305 27.4231587,20.8937305 25.4883272,20.22267 C25.4749083,20.2180639 25.4571255,20.2136772 25.4437066,20.2090711 C23.693685,19.755154 22.2008046,18.8033426 21.831512,18.5551632 C23.2497702,16.5619414 22.9944837,13.5355344 22.9650276,13.2315338 C22.8535307,10.8143343 21.730161,9.65821081 20.8028383,9.11853299 C20.1119284,8.71495356 19.3049395,8.49748128 18.4044546,8.47916667 L18.3286323,8.47916667 C17.8337693,8.47916667 16.8619351,8.5607599 15.9301394,9.10054738 C14.9939799,9.6398962 13.8527184,10.796239 13.7412215,13.2315338 C13.7117654,13.535644 13.4564789,16.5632574 14.875719,18.5564792 C14.4948621,18.8126644 13.0168188,19.7537283 11.2714884,20.2043554 C11.2537056,20.2090711 11.2403958,20.2136772 11.2269769,20.2180639 C9.29214539,20.8937305 9.234215,22.9933305 9.20748628,23.886579 C9.20748628,23.927266 9.20748628,23.9635662 9.20301332,23.9998664 L9.20301332,24.0135749 C9.19854035,24.2493618 9.19406738,25.4601001 9.43026192,26.067553 C9.47499161,26.1855561 9.55517775,26.2854639 9.6620926,26.3534583 C9.79584526,26.4440443 13.001218,28.5208333 18.364307,28.5208333 C23.7273959,28.5208333 26.9327686,26.4394382 27.0665213,26.3534583 C27.1690723,26.2854639 27.2537314,26.1855561 27.298352,26.067553 C27.5212367,25.4644868 27.5167638,24.2537486 27.5122908,24.018181" id="Fill-1" fill="#FFFFFF"></path>
                                <rect id="Rectangle-5" fill="#FFFFFF" x="47.5426009" y="5.39583333" width="123.457399" height="9.25" rx="4.625"></rect>
                                <rect id="Rectangle-5-Copy" fill="#FFFFFF" x="47.5426009" y="20.8125" width="78.9820628" height="7.70833333" rx="3.85416667"></rect>
                            </g>
                        </g>
                    </g>
                </g>
            </g>
        </g>
    </g>
</svg>