<?xml version="1.0" encoding="utf-8"?>
<!-- Generator: Adobe Illustrator 16.0.0, SVG Export Plug-In . SVG Version: 6.00 Build 0)  -->
<!DOCTYPE svg PUBLIC "-//W3C//DTD SVG 1.1//EN" "http://www.w3.org/Graphics/SVG/1.1/DTD/svg11.dtd">
<svg version="1.1" id="Layer_1" xmlns="http://www.w3.org/2000/svg" xmlns:xlink="http://www.w3.org/1999/xlink" x="0px" y="0px"
	 width="861px" height="588px" viewBox="0 0 861 588" enable-background="new 0 0 861 588" xml:space="preserve">
<g>
	<path fill="#FFFFFF" d="M861,579c0,4.971-4.029,9-9,9H9c-4.971,0-9-4.029-9-9V9c0-4.971,4.029-9,9-9h843c4.971,0,9,4.029,9,9V579z"
		/>
</g>
<path fill="#F2F2F2" d="M852,64c0,4.971-4.029,9-9,9H23c-4.971,0-9-4.029-9-9V22c0-4.971,4.029-9,9-9h820c4.971,0,9,4.029,9,9V64z"
	/>
<rect x="53" y="112" fill="#F2F2F2" width="442" height="427"/>
<rect x="29" y="27" fill="#6BEDE9" width="523" height="34"/>
<g>
	<path fill="#636363" d="M46.953,44.953v6.276c0,0.476-0.141,0.851-0.421,1.123c-0.281,0.271-0.668,0.408-1.161,0.408
		s-0.884-0.136-1.173-0.408c-0.29-0.272-0.434-0.646-0.434-1.123v-6.276c0-0.901-0.183-1.561-0.549-1.978
		c-0.366-0.417-0.94-0.625-1.722-0.625c-0.918,0-1.654,0.29-2.207,0.868s-0.829,1.352-0.829,2.321v5.689
		c0,0.476-0.145,0.851-0.434,1.123c-0.29,0.271-0.681,0.408-1.173,0.408c-0.494,0-0.88-0.136-1.161-0.408
		c-0.281-0.272-0.421-0.646-0.421-1.123V35.972c0-0.442,0.149-0.799,0.446-1.071s0.685-0.408,1.161-0.408
		c0.476,0,0.858,0.127,1.148,0.383c0.289,0.255,0.434,0.604,0.434,1.046v5.944c0.425-0.664,0.991-1.169,1.697-1.518
		c0.706-0.349,1.509-0.523,2.411-0.523C45.49,39.825,46.953,41.534,46.953,44.953z"/>
	<path fill="#636363" d="M57.949,51.535c0,0.408-0.166,0.719-0.498,0.931s-0.804,0.302-1.416,0.268l-0.689-0.051
		c-2.857-0.204-4.286-1.735-4.286-4.592v-5.562h-1.276c-0.459,0-0.812-0.102-1.059-0.306c-0.247-0.204-0.37-0.501-0.37-0.893
		c0-0.391,0.124-0.688,0.37-0.893c0.246-0.204,0.6-0.306,1.059-0.306h1.276v-2.347c0-0.459,0.144-0.825,0.434-1.097
		c0.289-0.272,0.68-0.408,1.173-0.408c0.476,0,0.859,0.136,1.148,0.408c0.289,0.272,0.434,0.638,0.434,1.097v2.347h2.168
		c0.459,0,0.812,0.102,1.059,0.306s0.37,0.501,0.37,0.893c0,0.392-0.124,0.689-0.37,0.893s-0.6,0.306-1.059,0.306H54.25v5.791
		c0,1.259,0.578,1.931,1.734,2.016l0.689,0.051C57.523,50.438,57.949,50.82,57.949,51.535z"/>
	<path fill="#636363" d="M67.184,51.535c0,0.408-0.166,0.719-0.498,0.931s-0.804,0.302-1.416,0.268l-0.689-0.051
		c-2.857-0.204-4.286-1.735-4.286-4.592v-5.562H59.02c-0.459,0-0.812-0.102-1.059-0.306c-0.247-0.204-0.37-0.501-0.37-0.893
		c0-0.391,0.124-0.688,0.37-0.893c0.246-0.204,0.6-0.306,1.059-0.306h1.276v-2.347c0-0.459,0.144-0.825,0.434-1.097
		c0.289-0.272,0.68-0.408,1.173-0.408c0.476,0,0.859,0.136,1.148,0.408c0.289,0.272,0.434,0.638,0.434,1.097v2.347h2.168
		c0.459,0,0.812,0.102,1.059,0.306s0.37,0.501,0.37,0.893c0,0.392-0.124,0.689-0.37,0.893s-0.6,0.306-1.059,0.306h-2.168v5.791
		c0,1.259,0.578,1.931,1.734,2.016l0.689,0.051C66.759,50.438,67.184,50.82,67.184,51.535z"/>
	<path fill="#636363" d="M78.88,40.641c0.842,0.544,1.496,1.313,1.964,2.309c0.468,0.995,0.702,2.139,0.702,3.431
		c0,1.293-0.234,2.424-0.702,3.393c-0.468,0.97-1.119,1.718-1.952,2.245c-0.833,0.527-1.794,0.791-2.883,0.791
		c-0.885,0-1.675-0.188-2.373-0.561c-0.698-0.374-1.233-0.893-1.607-1.557v5.205c0,0.442-0.145,0.791-0.434,1.046
		c-0.29,0.255-0.672,0.383-1.148,0.383c-0.477,0-0.864-0.136-1.161-0.408c-0.297-0.272-0.446-0.629-0.446-1.071V41.381
		c0-0.459,0.14-0.825,0.421-1.097c0.281-0.272,0.659-0.408,1.135-0.408s0.859,0.136,1.148,0.408
		c0.289,0.272,0.434,0.638,0.434,1.097v0.638c0.374-0.697,0.914-1.237,1.62-1.62c0.706-0.382,1.509-0.574,2.411-0.574
		C77.082,39.825,78.039,40.097,78.88,40.641z M77.516,49.302c0.561-0.689,0.842-1.662,0.842-2.921c0-1.292-0.281-2.296-0.842-3.01
		c-0.562-0.714-1.344-1.071-2.347-1.071c-1.021,0-1.808,0.349-2.36,1.046c-0.553,0.698-0.829,1.692-0.829,2.985
		c0,1.275,0.276,2.262,0.829,2.959c0.552,0.697,1.339,1.046,2.36,1.046C76.172,50.335,76.954,49.991,77.516,49.302z"/>
	<path fill="#636363" d="M84.199,51.713c-0.544-0.323-0.816-0.782-0.816-1.377c0-0.34,0.093-0.616,0.281-0.829
		c0.187-0.212,0.417-0.319,0.689-0.319c0.289,0,0.689,0.136,1.199,0.408c0.544,0.255,1.042,0.451,1.492,0.586
		c0.451,0.137,1.024,0.204,1.722,0.204c0.714,0,1.271-0.119,1.671-0.357c0.399-0.238,0.6-0.57,0.6-0.995
		c0-0.289-0.081-0.519-0.242-0.688c-0.162-0.17-0.451-0.328-0.868-0.472c-0.417-0.145-1.05-0.31-1.9-0.498
		c-1.514-0.306-2.599-0.74-3.253-1.301c-0.655-0.561-0.982-1.335-0.982-2.321c0-0.748,0.221-1.424,0.664-2.028
		c0.442-0.604,1.05-1.071,1.824-1.403c0.773-0.332,1.654-0.497,2.64-0.497c0.714,0,1.403,0.089,2.066,0.268
		c0.664,0.179,1.259,0.438,1.786,0.778c0.544,0.34,0.816,0.791,0.816,1.352c0,0.34-0.094,0.625-0.281,0.854
		c-0.188,0.23-0.417,0.345-0.689,0.345c-0.187,0-0.37-0.039-0.548-0.115c-0.179-0.077-0.404-0.191-0.676-0.345
		c-0.493-0.255-0.918-0.446-1.275-0.574c-0.357-0.128-0.8-0.191-1.327-0.191c-0.629,0-1.127,0.127-1.492,0.382
		c-0.366,0.255-0.549,0.604-0.549,1.046c0,0.425,0.187,0.749,0.562,0.969c0.374,0.221,1.097,0.442,2.168,0.664
		c1.139,0.238,2.032,0.51,2.679,0.816c0.646,0.306,1.11,0.689,1.39,1.148c0.281,0.459,0.421,1.046,0.421,1.76
		c0,1.157-0.48,2.083-1.441,2.781s-2.241,1.046-3.839,1.046C86.835,52.81,85.339,52.444,84.199,51.713z"/>
	<path fill="#636363" d="M96.7,43.128c-0.357-0.366-0.536-0.82-0.536-1.365s0.179-0.995,0.536-1.353
		c0.357-0.357,0.808-0.536,1.352-0.536c0.545,0,0.995,0.179,1.353,0.536c0.357,0.357,0.536,0.808,0.536,1.353
		s-0.179,0.999-0.536,1.365s-0.808,0.548-1.353,0.548C97.508,43.677,97.058,43.494,96.7,43.128z M96.7,52.21
		c-0.357-0.365-0.536-0.82-0.536-1.365c0-0.544,0.179-0.999,0.536-1.365s0.808-0.549,1.352-0.549c0.545,0,0.995,0.183,1.353,0.549
		s0.536,0.821,0.536,1.365c0,0.544-0.179,1-0.536,1.365c-0.357,0.366-0.808,0.548-1.353,0.548
		C97.508,52.759,97.058,52.577,96.7,52.21z"/>
	<path fill="#636363" d="M104.328,54.188c-0.222,0.153-0.469,0.23-0.74,0.23c-0.341,0-0.643-0.115-0.905-0.345
		c-0.264-0.229-0.396-0.523-0.396-0.88c0-0.153,0.025-0.306,0.076-0.459l5.919-18.547c0.102-0.323,0.264-0.562,0.484-0.714
		c0.221-0.153,0.468-0.229,0.74-0.229c0.34,0,0.642,0.115,0.905,0.344s0.396,0.523,0.396,0.88c0,0.153-0.025,0.306-0.076,0.459
		l-5.919,18.547C104.71,53.796,104.549,54.035,104.328,54.188z"/>
	<path fill="#636363" d="M111.114,54.188c-0.222,0.153-0.469,0.23-0.74,0.23c-0.341,0-0.643-0.115-0.905-0.345
		c-0.264-0.229-0.396-0.523-0.396-0.88c0-0.153,0.025-0.306,0.076-0.459l5.919-18.547c0.102-0.323,0.264-0.562,0.484-0.714
		c0.221-0.153,0.468-0.229,0.74-0.229c0.34,0,0.642,0.115,0.905,0.344s0.396,0.523,0.396,0.88c0,0.153-0.025,0.306-0.076,0.459
		l-5.919,18.547C111.496,53.796,111.335,54.035,111.114,54.188z"/>
	<path fill="#636363" d="M135.617,40.131c0.229-0.153,0.48-0.23,0.752-0.23c0.392,0,0.744,0.132,1.059,0.396
		c0.315,0.264,0.473,0.591,0.473,0.982c0,0.221-0.043,0.417-0.128,0.587l-4.209,9.873c-0.137,0.323-0.345,0.57-0.625,0.74
		c-0.281,0.17-0.592,0.255-0.932,0.255c-0.323,0-0.625-0.085-0.905-0.255c-0.281-0.17-0.489-0.417-0.625-0.74l-3.036-7.296
		l-2.934,7.296c-0.137,0.323-0.345,0.57-0.625,0.74c-0.281,0.17-0.592,0.255-0.932,0.255c-0.323,0-0.63-0.085-0.918-0.255
		c-0.29-0.17-0.502-0.417-0.639-0.74l-4.184-9.873c-0.085-0.221-0.128-0.408-0.128-0.562c0-0.391,0.17-0.727,0.511-1.008
		c0.34-0.28,0.714-0.421,1.122-0.421c0.289,0,0.553,0.077,0.791,0.229c0.238,0.153,0.417,0.383,0.536,0.689l3.011,7.781l3.087-7.705
		c0.136-0.323,0.331-0.565,0.586-0.727c0.256-0.162,0.536-0.243,0.842-0.243c0.307,0,0.587,0.081,0.843,0.243
		c0.255,0.162,0.45,0.404,0.586,0.727l3.113,7.73l2.984-7.781C135.213,40.513,135.388,40.284,135.617,40.131z"/>
	<path fill="#636363" d="M157.455,40.131c0.229-0.153,0.48-0.23,0.752-0.23c0.392,0,0.744,0.132,1.059,0.396
		c0.315,0.264,0.473,0.591,0.473,0.982c0,0.221-0.043,0.417-0.128,0.587l-4.209,9.873c-0.137,0.323-0.345,0.57-0.625,0.74
		c-0.281,0.17-0.592,0.255-0.932,0.255c-0.323,0-0.625-0.085-0.905-0.255c-0.281-0.17-0.489-0.417-0.625-0.74l-3.036-7.296
		l-2.934,7.296c-0.137,0.323-0.345,0.57-0.625,0.74c-0.281,0.17-0.592,0.255-0.932,0.255c-0.323,0-0.63-0.085-0.918-0.255
		c-0.29-0.17-0.502-0.417-0.639-0.74l-4.184-9.873c-0.085-0.221-0.128-0.408-0.128-0.562c0-0.391,0.17-0.727,0.511-1.008
		c0.34-0.28,0.714-0.421,1.122-0.421c0.289,0,0.553,0.077,0.791,0.229c0.238,0.153,0.417,0.383,0.536,0.689l3.011,7.781l3.087-7.705
		c0.136-0.323,0.331-0.565,0.586-0.727c0.256-0.162,0.536-0.243,0.842-0.243c0.307,0,0.587,0.081,0.843,0.243
		c0.255,0.162,0.45,0.404,0.586,0.727l3.113,7.73l2.984-7.781C157.051,40.513,157.226,40.284,157.455,40.131z"/>
	<path fill="#636363" d="M179.293,40.131c0.229-0.153,0.48-0.23,0.752-0.23c0.392,0,0.744,0.132,1.059,0.396
		c0.315,0.264,0.473,0.591,0.473,0.982c0,0.221-0.043,0.417-0.128,0.587l-4.209,9.873c-0.137,0.323-0.345,0.57-0.625,0.74
		c-0.281,0.17-0.592,0.255-0.932,0.255c-0.323,0-0.625-0.085-0.905-0.255c-0.281-0.17-0.489-0.417-0.625-0.74l-3.036-7.296
		l-2.934,7.296c-0.137,0.323-0.345,0.57-0.625,0.74c-0.281,0.17-0.592,0.255-0.932,0.255c-0.323,0-0.63-0.085-0.918-0.255
		c-0.29-0.17-0.502-0.417-0.639-0.74l-4.184-9.873c-0.085-0.221-0.128-0.408-0.128-0.562c0-0.391,0.17-0.727,0.511-1.008
		c0.34-0.28,0.714-0.421,1.122-0.421c0.289,0,0.553,0.077,0.791,0.229c0.238,0.153,0.417,0.383,0.536,0.689l3.011,7.781l3.087-7.705
		c0.136-0.323,0.331-0.565,0.586-0.727c0.256-0.162,0.536-0.243,0.842-0.243c0.307,0,0.587,0.081,0.843,0.243
		c0.255,0.162,0.45,0.404,0.586,0.727l3.113,7.73l2.984-7.781C178.889,40.513,179.063,40.284,179.293,40.131z"/>
	<path fill="#636363" d="M182.929,52.21c-0.357-0.365-0.536-0.82-0.536-1.365c0-0.544,0.179-0.999,0.536-1.365
		s0.808-0.549,1.352-0.549c0.545,0,0.995,0.183,1.353,0.549s0.536,0.821,0.536,1.365c0,0.544-0.179,1-0.536,1.365
		c-0.357,0.366-0.808,0.548-1.353,0.548C183.736,52.759,183.286,52.577,182.929,52.21z"/>
	<path fill="#636363" d="M189.306,37.133c-0.341-0.314-0.51-0.727-0.51-1.237s0.169-0.918,0.51-1.224
		c0.34-0.306,0.799-0.459,1.378-0.459c0.561,0,1.016,0.153,1.364,0.459s0.523,0.714,0.523,1.224s-0.17,0.923-0.511,1.237
		c-0.34,0.315-0.799,0.472-1.377,0.472C190.104,37.605,189.646,37.448,189.306,37.133z M189.548,52.364
		c-0.298-0.264-0.446-0.642-0.446-1.135v-9.848c0-0.493,0.148-0.868,0.446-1.123c0.298-0.255,0.677-0.383,1.136-0.383
		s0.842,0.127,1.147,0.383c0.307,0.255,0.46,0.629,0.46,1.123v9.848c0,0.493-0.153,0.872-0.46,1.135
		c-0.306,0.263-0.688,0.395-1.147,0.395S189.846,52.627,189.548,52.364z"/>
	<path fill="#636363" d="M206.169,41.1c0.73,0.851,1.097,2.135,1.097,3.853v6.276c0,0.476-0.141,0.851-0.421,1.123
		c-0.281,0.271-0.668,0.408-1.161,0.408s-0.885-0.136-1.174-0.408c-0.289-0.272-0.434-0.646-0.434-1.123v-6.098
		c0-0.969-0.183-1.675-0.548-2.117c-0.366-0.442-0.94-0.664-1.723-0.664c-0.918,0-1.654,0.29-2.206,0.868
		c-0.554,0.578-0.829,1.352-0.829,2.321v5.689c0,0.476-0.146,0.851-0.435,1.123c-0.289,0.271-0.68,0.408-1.173,0.408
		c-0.494,0-0.881-0.136-1.161-0.408c-0.28-0.272-0.421-0.646-0.421-1.123v-9.873c0-0.442,0.145-0.799,0.434-1.072
		c0.289-0.272,0.681-0.408,1.174-0.408c0.442,0,0.804,0.132,1.084,0.396c0.281,0.264,0.421,0.608,0.421,1.033v0.689
		c0.425-0.697,0.995-1.233,1.71-1.607c0.714-0.374,1.521-0.561,2.423-0.561C204.323,39.825,205.438,40.25,206.169,41.1z"/>
	<path fill="#636363" d="M210.531,51.713c-0.544-0.323-0.816-0.782-0.816-1.377c0-0.34,0.094-0.616,0.281-0.829
		c0.187-0.212,0.416-0.319,0.688-0.319c0.289,0,0.688,0.136,1.199,0.408c0.544,0.255,1.041,0.451,1.492,0.586
		c0.45,0.137,1.024,0.204,1.722,0.204c0.715,0,1.271-0.119,1.672-0.357c0.399-0.238,0.599-0.57,0.599-0.995
		c0-0.289-0.08-0.519-0.242-0.688c-0.161-0.17-0.45-0.328-0.867-0.472s-1.051-0.31-1.9-0.498c-1.514-0.306-2.599-0.74-3.253-1.301
		c-0.655-0.561-0.982-1.335-0.982-2.321c0-0.748,0.221-1.424,0.663-2.028c0.442-0.604,1.051-1.071,1.824-1.403
		c0.774-0.332,1.654-0.497,2.641-0.497c0.715,0,1.403,0.089,2.066,0.268c0.663,0.179,1.259,0.438,1.786,0.778
		c0.544,0.34,0.816,0.791,0.816,1.352c0,0.34-0.094,0.625-0.281,0.854c-0.187,0.23-0.416,0.345-0.688,0.345
		c-0.188,0-0.37-0.039-0.549-0.115c-0.178-0.077-0.403-0.191-0.676-0.345c-0.493-0.255-0.918-0.446-1.275-0.574
		c-0.357-0.128-0.8-0.191-1.326-0.191c-0.63,0-1.127,0.127-1.493,0.382c-0.365,0.255-0.548,0.604-0.548,1.046
		c0,0.425,0.187,0.749,0.561,0.969c0.374,0.221,1.098,0.442,2.169,0.664c1.139,0.238,2.032,0.51,2.679,0.816
		s1.109,0.689,1.391,1.148c0.28,0.459,0.421,1.046,0.421,1.76c0,1.157-0.481,2.083-1.441,2.781c-0.961,0.697-2.241,1.046-3.84,1.046
		C213.168,52.81,211.671,52.444,210.531,51.713z"/>
	<path fill="#636363" d="M230.507,51.535c0,0.408-0.166,0.719-0.498,0.931c-0.331,0.212-0.804,0.302-1.416,0.268l-0.688-0.051
		c-2.857-0.204-4.286-1.735-4.286-4.592v-5.562h-1.275c-0.459,0-0.812-0.102-1.059-0.306s-0.37-0.501-0.37-0.893
		c0-0.391,0.124-0.688,0.37-0.893s0.6-0.306,1.059-0.306h1.275v-2.347c0-0.459,0.145-0.825,0.434-1.097
		c0.289-0.272,0.681-0.408,1.174-0.408c0.476,0,0.858,0.136,1.148,0.408c0.289,0.272,0.434,0.638,0.434,1.097v2.347h2.168
		c0.46,0,0.812,0.102,1.059,0.306c0.247,0.204,0.37,0.501,0.37,0.893c0,0.392-0.123,0.689-0.37,0.893
		c-0.246,0.204-0.599,0.306-1.059,0.306h-2.168v5.791c0,1.259,0.578,1.931,1.734,2.016l0.689,0.051
		C230.081,50.438,230.507,50.82,230.507,51.535z"/>
	<path fill="#636363" d="M241.438,41.113c0.842,0.859,1.263,2.165,1.263,3.916v6.225c0,0.459-0.136,0.821-0.408,1.084
		c-0.271,0.264-0.646,0.396-1.122,0.396c-0.442,0-0.804-0.136-1.084-0.408c-0.281-0.271-0.421-0.629-0.421-1.071v-0.562
		c-0.29,0.664-0.745,1.183-1.365,1.557c-0.621,0.374-1.34,0.561-2.156,0.561c-0.833,0-1.59-0.17-2.271-0.51
		c-0.68-0.34-1.216-0.808-1.606-1.403c-0.392-0.595-0.587-1.258-0.587-1.99c0-0.918,0.233-1.641,0.701-2.168
		c0.468-0.527,1.229-0.91,2.283-1.148s2.509-0.357,4.362-0.357h0.639v-0.586c0-0.833-0.179-1.441-0.536-1.824
		s-0.936-0.574-1.734-0.574c-0.494,0-0.995,0.073-1.506,0.217c-0.51,0.145-1.114,0.354-1.812,0.625
		c-0.442,0.222-0.765,0.332-0.969,0.332c-0.307,0-0.558-0.11-0.753-0.332c-0.195-0.221-0.293-0.51-0.293-0.867
		c0-0.289,0.071-0.54,0.217-0.752c0.144-0.212,0.387-0.412,0.727-0.6c0.596-0.323,1.306-0.578,2.131-0.766
		c0.824-0.187,1.637-0.28,2.436-0.28C239.309,39.825,240.597,40.254,241.438,41.113z M238.862,49.659
		c0.535-0.569,0.804-1.305,0.804-2.207v-0.536h-0.46c-1.14,0-2.023,0.051-2.653,0.153c-0.629,0.102-1.08,0.281-1.352,0.536
		c-0.272,0.255-0.408,0.604-0.408,1.046c0,0.544,0.191,0.991,0.574,1.339s0.854,0.523,1.416,0.523
		C237.633,50.514,238.326,50.229,238.862,49.659z"/>
	<path fill="#636363" d="M257.651,40.284c0.289,0.272,0.434,0.638,0.434,1.097v10.077c0,1.956-0.544,3.435-1.633,4.439
		c-1.089,1.003-2.695,1.505-4.821,1.505c-1.854,0-3.402-0.349-4.644-1.046c-0.629-0.374-0.943-0.825-0.943-1.352
		c0-0.374,0.089-0.672,0.268-0.893c0.179-0.221,0.412-0.332,0.701-0.332c0.153,0,0.34,0.039,0.562,0.115
		c0.221,0.076,0.45,0.166,0.688,0.268c0.612,0.255,1.161,0.451,1.646,0.587c0.485,0.136,1.042,0.204,1.671,0.204
		c2.229,0,3.343-1.089,3.343-3.266v-1.633c-0.375,0.698-0.919,1.237-1.633,1.62c-0.715,0.383-1.531,0.574-2.449,0.574
		c-1.089,0-2.054-0.259-2.896-0.778c-0.842-0.519-1.501-1.246-1.978-2.181c-0.477-0.935-0.714-2.016-0.714-3.24
		s0.233-2.309,0.701-3.252c0.468-0.944,1.127-1.675,1.978-2.194c0.85-0.519,1.819-0.778,2.908-0.778
		c0.918,0,1.734,0.191,2.449,0.574c0.714,0.383,1.258,0.923,1.633,1.62v-0.663c0-0.442,0.145-0.799,0.434-1.072
		c0.289-0.272,0.672-0.408,1.147-0.408C256.979,39.875,257.362,40.012,257.651,40.284z M254.067,48.779
		c0.569-0.664,0.854-1.573,0.854-2.73c0-1.173-0.285-2.092-0.854-2.755c-0.57-0.663-1.365-0.995-2.386-0.995
		c-1.004,0-1.795,0.332-2.373,0.995c-0.578,0.664-0.867,1.582-0.867,2.755c0,1.157,0.289,2.066,0.867,2.73
		c0.578,0.663,1.369,0.995,2.373,0.995C252.702,49.774,253.497,49.442,254.067,48.779z"/>
	<path fill="#636363" d="M269.386,40.156c0.255,0.221,0.383,0.553,0.383,0.995c0,0.459-0.111,0.799-0.332,1.02
		c-0.221,0.222-0.621,0.366-1.199,0.434l-0.765,0.076c-1.004,0.102-1.739,0.443-2.207,1.021c-0.468,0.579-0.701,1.301-0.701,2.168
		v5.358c0,0.493-0.153,0.872-0.46,1.135c-0.306,0.263-0.688,0.395-1.147,0.395s-0.838-0.132-1.136-0.395
		c-0.298-0.264-0.446-0.642-0.446-1.135v-9.873c0-0.476,0.148-0.842,0.446-1.097c0.298-0.255,0.668-0.383,1.11-0.383
		c0.441,0,0.799,0.124,1.071,0.37c0.271,0.247,0.408,0.6,0.408,1.059v1.021c0.322-0.748,0.804-1.327,1.441-1.735
		s1.348-0.638,2.13-0.689l0.357-0.025C268.782,39.842,269.131,39.936,269.386,40.156z"/>
	<path fill="#636363" d="M280.369,41.113c0.842,0.859,1.263,2.165,1.263,3.916v6.225c0,0.459-0.136,0.821-0.408,1.084
		c-0.271,0.264-0.646,0.396-1.122,0.396c-0.442,0-0.804-0.136-1.084-0.408c-0.281-0.271-0.421-0.629-0.421-1.071v-0.562
		c-0.29,0.664-0.745,1.183-1.365,1.557c-0.621,0.374-1.34,0.561-2.156,0.561c-0.833,0-1.59-0.17-2.271-0.51
		c-0.68-0.34-1.216-0.808-1.606-1.403c-0.392-0.595-0.587-1.258-0.587-1.99c0-0.918,0.233-1.641,0.701-2.168
		c0.468-0.527,1.229-0.91,2.283-1.148s2.509-0.357,4.362-0.357h0.639v-0.586c0-0.833-0.179-1.441-0.536-1.824
		s-0.936-0.574-1.734-0.574c-0.494,0-0.995,0.073-1.506,0.217c-0.51,0.145-1.114,0.354-1.812,0.625
		c-0.442,0.222-0.765,0.332-0.969,0.332c-0.307,0-0.558-0.11-0.753-0.332c-0.195-0.221-0.293-0.51-0.293-0.867
		c0-0.289,0.071-0.54,0.217-0.752c0.144-0.212,0.387-0.412,0.727-0.6c0.596-0.323,1.306-0.578,2.131-0.766
		c0.824-0.187,1.637-0.28,2.436-0.28C278.239,39.825,279.527,40.254,280.369,41.113z M277.793,49.659
		c0.535-0.569,0.804-1.305,0.804-2.207v-0.536h-0.46c-1.14,0-2.023,0.051-2.653,0.153c-0.629,0.102-1.08,0.281-1.352,0.536
		c-0.272,0.255-0.408,0.604-0.408,1.046c0,0.544,0.191,0.991,0.574,1.339s0.854,0.523,1.416,0.523
		C276.563,50.514,277.257,50.229,277.793,49.659z"/>
	<path fill="#636363" d="M302.819,41.036c0.723,0.808,1.085,2.114,1.085,3.917v6.276c0,0.493-0.149,0.872-0.447,1.135
		c-0.297,0.263-0.685,0.395-1.16,0.395c-0.459,0-0.838-0.132-1.136-0.395c-0.298-0.264-0.446-0.642-0.446-1.135v-6.276
		c0-0.936-0.166-1.603-0.497-2.003c-0.332-0.399-0.838-0.6-1.519-0.6c-0.833,0-1.496,0.285-1.989,0.855
		c-0.494,0.57-0.74,1.348-0.74,2.334v5.689c0,0.493-0.149,0.872-0.446,1.135c-0.298,0.263-0.676,0.395-1.136,0.395
		c-0.459,0-0.842-0.132-1.147-0.395c-0.307-0.264-0.459-0.642-0.459-1.135v-6.276c0-0.936-0.166-1.603-0.498-2.003
		c-0.331-0.399-0.838-0.6-1.518-0.6c-0.834,0-1.493,0.285-1.978,0.855s-0.727,1.348-0.727,2.334v5.689
		c0,0.493-0.153,0.872-0.46,1.135c-0.306,0.263-0.688,0.395-1.147,0.395s-0.838-0.132-1.136-0.395
		c-0.298-0.264-0.446-0.642-0.446-1.135v-9.873c0-0.476,0.153-0.842,0.459-1.097c0.307-0.255,0.689-0.383,1.148-0.383
		c0.442,0,0.804,0.124,1.084,0.37c0.281,0.247,0.421,0.6,0.421,1.059v0.612c0.392-0.68,0.914-1.199,1.569-1.556
		c0.654-0.357,1.407-0.536,2.258-0.536c1.87,0,3.121,0.782,3.75,2.347c0.374-0.714,0.927-1.284,1.658-1.709
		c0.731-0.425,1.557-0.638,2.475-0.638C301.055,39.825,302.097,40.229,302.819,41.036z"/>
	<path fill="#636363" d="M307.296,52.21c-0.357-0.365-0.536-0.82-0.536-1.365c0-0.544,0.179-0.999,0.536-1.365
		s0.808-0.549,1.352-0.549c0.545,0,0.995,0.183,1.353,0.549s0.536,0.821,0.536,1.365c0,0.544-0.179,1-0.536,1.365
		c-0.357,0.366-0.808,0.548-1.353,0.548C308.104,52.759,307.653,52.577,307.296,52.21z"/>
	<path fill="#636363" d="M315.396,52.019c-0.944-0.527-1.671-1.275-2.182-2.245c-0.51-0.969-0.765-2.1-0.765-3.393
		c0-1.292,0.268-2.436,0.804-3.431c0.535-0.995,1.288-1.764,2.258-2.309c0.969-0.544,2.083-0.816,3.342-0.816
		c0.663,0,1.33,0.094,2.003,0.28c0.671,0.188,1.263,0.443,1.772,0.766c0.544,0.357,0.816,0.808,0.816,1.352
		c0,0.375-0.089,0.676-0.268,0.906s-0.413,0.344-0.702,0.344c-0.187,0-0.382-0.042-0.586-0.127
		c-0.204-0.085-0.408-0.187-0.612-0.306c-0.375-0.221-0.731-0.396-1.072-0.523c-0.34-0.127-0.731-0.191-1.173-0.191
		c-1.055,0-1.867,0.344-2.437,1.033c-0.57,0.689-0.854,1.68-0.854,2.972c0,1.275,0.284,2.258,0.854,2.947
		c0.569,0.688,1.382,1.033,2.437,1.033c0.425,0,0.804-0.064,1.135-0.191c0.332-0.127,0.702-0.302,1.11-0.523
		c0.255-0.153,0.476-0.268,0.663-0.345c0.187-0.076,0.374-0.115,0.562-0.115c0.271,0,0.501,0.119,0.688,0.357
		c0.187,0.238,0.28,0.536,0.28,0.893c0,0.29-0.063,0.541-0.191,0.753c-0.127,0.213-0.336,0.404-0.625,0.574
		c-0.527,0.341-1.14,0.608-1.837,0.804s-1.411,0.293-2.143,0.293C317.433,52.81,316.341,52.546,315.396,52.019z"/>
	<path fill="#636363" d="M327.922,52.019c-0.961-0.527-1.705-1.284-2.231-2.271c-0.527-0.986-0.791-2.134-0.791-3.444
		s0.264-2.453,0.791-3.432c0.526-0.978,1.271-1.73,2.231-2.258c0.961-0.527,2.08-0.791,3.355-0.791s2.394,0.264,3.354,0.791
		c0.961,0.527,1.7,1.28,2.22,2.258c0.519,0.979,0.778,2.122,0.778,3.432s-0.26,2.458-0.778,3.444
		c-0.52,0.987-1.259,1.744-2.22,2.271c-0.961,0.527-2.079,0.791-3.354,0.791S328.883,52.546,327.922,52.019z M333.624,49.315
		c0.544-0.68,0.816-1.684,0.816-3.01c0-1.31-0.272-2.309-0.816-2.998c-0.544-0.689-1.326-1.034-2.347-1.034s-1.808,0.345-2.36,1.034
		c-0.553,0.688-0.829,1.688-0.829,2.998c0,1.327,0.272,2.33,0.816,3.01c0.544,0.681,1.327,1.021,2.348,1.021
		C332.289,50.335,333.08,49.996,333.624,49.315z"/>
	<path fill="#636363" d="M358.204,41.036c0.723,0.808,1.085,2.114,1.085,3.917v6.276c0,0.493-0.149,0.872-0.447,1.135
		c-0.297,0.263-0.685,0.395-1.16,0.395c-0.459,0-0.838-0.132-1.136-0.395c-0.298-0.264-0.446-0.642-0.446-1.135v-6.276
		c0-0.936-0.166-1.603-0.497-2.003c-0.332-0.399-0.838-0.6-1.519-0.6c-0.833,0-1.496,0.285-1.989,0.855
		c-0.494,0.57-0.74,1.348-0.74,2.334v5.689c0,0.493-0.149,0.872-0.446,1.135c-0.298,0.263-0.676,0.395-1.136,0.395
		c-0.459,0-0.842-0.132-1.147-0.395c-0.307-0.264-0.459-0.642-0.459-1.135v-6.276c0-0.936-0.166-1.603-0.498-2.003
		c-0.331-0.399-0.838-0.6-1.518-0.6c-0.834,0-1.493,0.285-1.978,0.855s-0.727,1.348-0.727,2.334v5.689
		c0,0.493-0.153,0.872-0.46,1.135c-0.306,0.263-0.688,0.395-1.147,0.395s-0.838-0.132-1.136-0.395
		c-0.298-0.264-0.446-0.642-0.446-1.135v-9.873c0-0.476,0.153-0.842,0.459-1.097c0.307-0.255,0.689-0.383,1.148-0.383
		c0.442,0,0.804,0.124,1.084,0.37c0.281,0.247,0.421,0.6,0.421,1.059v0.612c0.392-0.68,0.914-1.199,1.569-1.556
		c0.654-0.357,1.407-0.536,2.258-0.536c1.87,0,3.121,0.782,3.75,2.347c0.374-0.714,0.927-1.284,1.658-1.709
		c0.731-0.425,1.557-0.638,2.475-0.638C356.439,39.825,357.481,40.229,358.204,41.036z"/>
	<path fill="#636363" d="M362.631,54.188c-0.222,0.153-0.469,0.23-0.74,0.23c-0.341,0-0.643-0.115-0.905-0.345
		c-0.264-0.229-0.396-0.523-0.396-0.88c0-0.153,0.025-0.306,0.076-0.459l5.919-18.547c0.102-0.323,0.264-0.562,0.484-0.714
		c0.221-0.153,0.468-0.229,0.74-0.229c0.34,0,0.642,0.115,0.905,0.344s0.396,0.523,0.396,0.88c0,0.153-0.025,0.306-0.076,0.459
		l-5.919,18.547C363.013,53.796,362.852,54.035,362.631,54.188z"/>
	<path fill="#636363" d="M379.021,40.641c0.842,0.544,1.496,1.313,1.964,2.309s0.702,2.139,0.702,3.431
		c0,1.293-0.234,2.424-0.702,3.393c-0.468,0.97-1.118,1.718-1.951,2.245c-0.834,0.527-1.795,0.791-2.883,0.791
		c-0.885,0-1.676-0.188-2.373-0.561c-0.697-0.374-1.233-0.893-1.606-1.557v5.205c0,0.442-0.146,0.791-0.435,1.046
		c-0.289,0.255-0.672,0.383-1.147,0.383c-0.477,0-0.863-0.136-1.161-0.408c-0.298-0.272-0.446-0.629-0.446-1.071V41.381
		c0-0.459,0.141-0.825,0.421-1.097c0.28-0.272,0.659-0.408,1.136-0.408c0.476,0,0.858,0.136,1.147,0.408
		c0.289,0.272,0.434,0.638,0.434,1.097v0.638c0.374-0.697,0.914-1.237,1.62-1.62c0.706-0.382,1.51-0.574,2.411-0.574
		C377.223,39.825,378.18,40.097,379.021,40.641z M377.656,49.302c0.562-0.689,0.842-1.662,0.842-2.921
		c0-1.292-0.28-2.296-0.842-3.01c-0.561-0.714-1.344-1.071-2.347-1.071c-1.021,0-1.808,0.349-2.36,1.046
		c-0.553,0.698-0.829,1.692-0.829,2.985c0,1.275,0.276,2.262,0.829,2.959s1.34,1.046,2.36,1.046
		C376.312,50.335,377.096,49.991,377.656,49.302z"/>
	<path fill="#636363" d="M384.418,54.188c-0.222,0.153-0.469,0.23-0.74,0.23c-0.341,0-0.643-0.115-0.905-0.345
		c-0.264-0.229-0.396-0.523-0.396-0.88c0-0.153,0.025-0.306,0.076-0.459l5.919-18.547c0.102-0.323,0.264-0.562,0.484-0.714
		c0.221-0.153,0.468-0.229,0.74-0.229c0.34,0,0.642,0.115,0.905,0.344s0.396,0.523,0.396,0.88c0,0.153-0.025,0.306-0.076,0.459
		l-5.919,18.547C384.8,53.796,384.639,54.035,384.418,54.188z"/>
	<path fill="#636363" d="M406.063,44.901c0.569,0.765,0.854,1.701,0.854,2.806c0,1.531-0.548,2.73-1.646,3.597
		c-1.097,0.868-2.606,1.301-4.528,1.301h-6.582c-0.493,0-0.88-0.136-1.161-0.408c-0.28-0.272-0.421-0.654-0.421-1.148V36.176
		c0-0.493,0.141-0.875,0.421-1.148c0.281-0.272,0.668-0.408,1.161-0.408h6.327c1.871,0,3.338,0.413,4.4,1.237
		c1.063,0.825,1.595,1.977,1.595,3.457c0,0.953-0.251,1.777-0.753,2.475s-1.194,1.208-2.079,1.531
		C404.689,43.609,405.493,44.136,406.063,44.901z M395.795,42.197h4.158c2.262,0,3.394-0.842,3.394-2.526
		c0-0.85-0.281-1.479-0.842-1.888c-0.562-0.408-1.412-0.612-2.552-0.612h-4.158V42.197z M402.989,49.417
		c0.544-0.425,0.816-1.088,0.816-1.99s-0.276-1.573-0.829-2.016c-0.553-0.442-1.416-0.663-2.59-0.663h-4.592v5.306h4.592
		C401.577,50.055,402.444,49.842,402.989,49.417z"/>
	<path fill="#636363" d="M420.3,49.519c0.178,0.221,0.268,0.519,0.268,0.893c0,0.527-0.315,0.969-0.944,1.327
		c-0.578,0.323-1.233,0.583-1.964,0.778c-0.731,0.195-1.429,0.293-2.093,0.293c-2.007,0-3.597-0.578-4.771-1.735
		c-1.173-1.156-1.76-2.738-1.76-4.745c0-1.275,0.255-2.407,0.765-3.393c0.511-0.986,1.229-1.751,2.156-2.296
		c0.927-0.544,1.978-0.816,3.15-0.816c1.123,0,2.101,0.247,2.935,0.74c0.833,0.494,1.479,1.19,1.938,2.092
		c0.459,0.902,0.688,1.964,0.688,3.189c0,0.731-0.323,1.097-0.969,1.097h-7.526c0.102,1.173,0.434,2.037,0.995,2.589
		c0.562,0.553,1.378,0.829,2.449,0.829c0.544,0,1.024-0.068,1.441-0.204c0.416-0.136,0.889-0.323,1.416-0.561
		c0.51-0.272,0.884-0.408,1.122-0.408C419.887,49.188,420.121,49.298,420.3,49.519z M413.105,42.886
		c-0.52,0.545-0.83,1.327-0.932,2.347h5.766c-0.034-1.037-0.289-1.824-0.766-2.36c-0.476-0.536-1.14-0.804-1.989-0.804
		C414.316,42.069,413.624,42.342,413.105,42.886z"/>
	<path fill="#636363" d="M421.945,54.251c-0.222-0.179-0.332-0.413-0.332-0.702c0-0.272,0.115-0.498,0.345-0.676
		c0.229-0.179,0.522-0.268,0.88-0.268h10.307c0.357,0,0.65,0.089,0.88,0.268c0.229,0.178,0.345,0.404,0.345,0.676
		c0,0.289-0.11,0.523-0.332,0.702c-0.221,0.179-0.519,0.268-0.893,0.268h-10.307C422.464,54.52,422.166,54.43,421.945,54.251z"/>
	<path fill="#636363" d="M437.609,50.922c-1.275-1.276-1.913-3.138-1.913-5.587v-9.209c0-0.493,0.145-0.889,0.434-1.187
		c0.289-0.297,0.68-0.446,1.174-0.446c0.493,0,0.884,0.149,1.173,0.446c0.289,0.298,0.435,0.693,0.435,1.187v9.388
		c0,1.548,0.365,2.717,1.097,3.508s1.803,1.187,3.215,1.187c1.394,0,2.457-0.399,3.188-1.199c0.731-0.799,1.097-1.964,1.097-3.495
		v-9.388c0-0.493,0.145-0.889,0.434-1.187c0.289-0.297,0.681-0.446,1.174-0.446s0.885,0.149,1.174,0.446
		c0.289,0.298,0.434,0.693,0.434,1.187v9.209c0,2.433-0.638,4.291-1.913,5.574c-1.275,1.285-3.139,1.926-5.587,1.926
		C440.756,52.835,438.885,52.198,437.609,50.922z"/>
	<path fill="#636363" d="M464.128,41.827c0.859,0.485,1.526,1.161,2.003,2.028c0.476,0.867,0.714,1.862,0.714,2.985
		c0,1.173-0.268,2.211-0.803,3.112c-0.536,0.902-1.293,1.604-2.271,2.105c-0.979,0.501-2.105,0.752-3.381,0.752
		c-1.055,0-2.088-0.175-3.1-0.523c-1.012-0.349-1.875-0.82-2.59-1.416c-0.391-0.34-0.586-0.74-0.586-1.199
		c0-0.374,0.105-0.692,0.318-0.957c0.213-0.263,0.463-0.396,0.753-0.396c0.17,0,0.331,0.03,0.484,0.089
		c0.153,0.06,0.332,0.158,0.536,0.293c0.68,0.477,1.343,0.842,1.989,1.097c0.646,0.255,1.335,0.382,2.066,0.382
		c1.123,0,1.981-0.28,2.577-0.842c0.595-0.561,0.893-1.36,0.893-2.398c0-1.003-0.302-1.799-0.905-2.385
		c-0.604-0.587-1.433-0.88-2.487-0.88c-0.663,0-1.255,0.094-1.773,0.281c-0.519,0.188-1.05,0.502-1.595,0.944
		c-0.323,0.221-0.654,0.332-0.994,0.332c-0.341,0-0.63-0.102-0.868-0.306s-0.356-0.476-0.356-0.816v-7.959
		c0-0.476,0.136-0.85,0.408-1.123c0.271-0.272,0.654-0.408,1.147-0.408h8.496c1.021,0,1.53,0.425,1.53,1.275
		c0,0.851-0.51,1.276-1.53,1.276h-6.838v4.847c0.868-0.612,1.931-0.918,3.189-0.918C462.278,41.1,463.27,41.342,464.128,41.827z"/>
	<path fill="#636363" d="M481.399,44.953c0.569,0.765,0.854,1.701,0.854,2.806c0,1.582-0.596,2.819-1.786,3.712
		s-2.84,1.339-4.949,1.339c-2.108,0-3.759-0.446-4.949-1.339s-1.786-2.13-1.786-3.712c0-1.105,0.289-2.045,0.868-2.819
		c0.578-0.773,1.395-1.296,2.449-1.569c-0.902-0.34-1.607-0.871-2.118-1.594c-0.51-0.723-0.765-1.569-0.765-2.539
		c0-1.497,0.561-2.679,1.684-3.546c1.122-0.867,2.661-1.301,4.617-1.301s3.495,0.434,4.618,1.301
		c1.122,0.868,1.684,2.05,1.684,3.546c0,0.986-0.255,1.846-0.766,2.577c-0.51,0.731-1.208,1.25-2.092,1.556
		C480.018,43.66,480.829,44.187,481.399,44.953z M479.167,47.503c0-1.819-1.216-2.729-3.648-2.729s-3.648,0.91-3.648,2.729
		c0,1.82,1.216,2.73,3.648,2.73S479.167,49.324,479.167,47.503z M472.33,39.569c0,0.868,0.268,1.527,0.804,1.977
		c0.535,0.451,1.33,0.676,2.385,0.676s1.85-0.225,2.386-0.676c0.535-0.45,0.804-1.109,0.804-1.977c0-1.735-1.063-2.602-3.189-2.602
		S472.33,37.834,472.33,39.569z"/>
	<path fill="#636363" d="M492.587,51.535c0,0.408-0.166,0.719-0.498,0.931c-0.331,0.212-0.804,0.302-1.416,0.268l-0.688-0.051
		c-2.857-0.204-4.286-1.735-4.286-4.592v-5.562h-1.275c-0.459,0-0.812-0.102-1.059-0.306s-0.37-0.501-0.37-0.893
		c0-0.391,0.124-0.688,0.37-0.893s0.6-0.306,1.059-0.306h1.275v-2.347c0-0.459,0.145-0.825,0.434-1.097
		c0.289-0.272,0.681-0.408,1.174-0.408c0.476,0,0.858,0.136,1.148,0.408c0.289,0.272,0.434,0.638,0.434,1.097v2.347h2.168
		c0.46,0,0.812,0.102,1.059,0.306c0.247,0.204,0.37,0.501,0.37,0.893c0,0.392-0.123,0.689-0.37,0.893
		c-0.246,0.204-0.599,0.306-1.059,0.306h-2.168v5.791c0,1.259,0.578,1.931,1.734,2.016l0.689,0.051
		C492.161,50.438,492.587,50.82,492.587,51.535z"/>
	<path fill="#636363" d="M494.69,52.364c-0.298-0.264-0.446-0.642-0.446-1.135V35.998c0-0.493,0.148-0.867,0.446-1.122
		c0.298-0.255,0.677-0.383,1.136-0.383s0.842,0.127,1.147,0.383c0.307,0.255,0.46,0.629,0.46,1.122v15.231
		c0,0.493-0.153,0.872-0.46,1.135c-0.306,0.263-0.688,0.395-1.147,0.395S494.988,52.627,494.69,52.364z"/>
	<path fill="#636363" d="M508.734,40.156c0.255,0.221,0.383,0.553,0.383,0.995c0,0.459-0.111,0.799-0.332,1.02
		c-0.221,0.222-0.621,0.366-1.199,0.434l-0.765,0.076c-1.004,0.102-1.739,0.443-2.207,1.021c-0.468,0.579-0.701,1.301-0.701,2.168
		v5.358c0,0.493-0.153,0.872-0.46,1.135c-0.306,0.263-0.688,0.395-1.147,0.395s-0.838-0.132-1.136-0.395
		c-0.298-0.264-0.446-0.642-0.446-1.135v-9.873c0-0.476,0.148-0.842,0.446-1.097c0.298-0.255,0.668-0.383,1.11-0.383
		c0.441,0,0.799,0.124,1.071,0.37c0.271,0.247,0.408,0.6,0.408,1.059v1.021c0.322-0.748,0.804-1.327,1.441-1.735
		s1.348-0.638,2.13-0.689l0.357-0.025C508.131,39.842,508.479,39.936,508.734,40.156z"/>
	<path fill="#636363" d="M521.388,51.407c0,0.375-0.119,0.668-0.357,0.88c-0.238,0.213-0.595,0.319-1.071,0.319h-8.521
		c-0.426,0-0.774-0.136-1.046-0.408c-0.272-0.272-0.408-0.595-0.408-0.969c0-0.391,0.152-0.766,0.459-1.123L517,42.529h-5.689
		c-0.477,0-0.833-0.102-1.071-0.306s-0.357-0.501-0.357-0.893c0-0.391,0.119-0.688,0.357-0.893s0.595-0.306,1.071-0.306h8.24
		c0.442,0,0.795,0.132,1.059,0.395c0.264,0.264,0.396,0.591,0.396,0.982c0,0.408-0.145,0.783-0.434,1.123l-6.582,7.577h5.97
		C520.911,50.208,521.388,50.607,521.388,51.407z"/>
	<path fill="#636363" d="M534.706,40.284c0.289,0.272,0.434,0.638,0.434,1.097v9.898c0,0.442-0.149,0.8-0.446,1.072
		c-0.298,0.271-0.686,0.408-1.161,0.408c-0.459,0-0.825-0.127-1.097-0.382c-0.272-0.255-0.408-0.604-0.408-1.046v-0.638
		c-0.392,0.681-0.919,1.204-1.582,1.569c-0.663,0.365-1.412,0.548-2.245,0.548c-3.062,0-4.592-1.718-4.592-5.153v-6.276
		c0-0.459,0.144-0.825,0.434-1.097c0.289-0.272,0.672-0.408,1.147-0.408c0.493,0,0.885,0.136,1.174,0.408
		c0.289,0.272,0.434,0.638,0.434,1.097v6.301c0,0.885,0.179,1.54,0.536,1.964c0.357,0.425,0.918,0.638,1.684,0.638
		c0.884,0,1.595-0.293,2.13-0.88c0.536-0.587,0.804-1.365,0.804-2.334v-5.689c0-0.459,0.145-0.825,0.434-1.097
		c0.289-0.272,0.672-0.408,1.148-0.408C534.025,39.875,534.416,40.012,534.706,40.284z"/>
	<path fill="#636363" d="M538.558,54.188c-0.222,0.153-0.469,0.23-0.74,0.23c-0.341,0-0.643-0.115-0.905-0.345
		c-0.264-0.229-0.396-0.523-0.396-0.88c0-0.153,0.025-0.306,0.076-0.459l5.919-18.547c0.102-0.323,0.264-0.562,0.484-0.714
		c0.221-0.153,0.468-0.229,0.74-0.229c0.34,0,0.642,0.115,0.905,0.344s0.396,0.523,0.396,0.88c0,0.153-0.025,0.306-0.076,0.459
		l-5.919,18.547C538.939,53.796,538.778,54.035,538.558,54.188z"/>
</g>
<circle fill="#D5BBF2" cx="542.485" cy="156.636" r="23.667"/>
<path fill="#C5E1FA" d="M737.347,161.136c0,1.655-1.345,3-3,3h-58.528c-1.656,0-3-1.345-3-3v-9c0-1.655,1.344-3,3-3h58.528
	c1.655,0,3,1.345,3,3V161.136z"/>
<path fill="#E2E2E2" d="M664.666,161.136c0,1.656-1.344,3-3,3h-78.962c-1.656,0-3-1.344-3-3v-9c0-1.656,1.344-3,3-3h78.962
	c1.656,0,3,1.344,3,3V161.136z"/>
<path fill="#F2F2F2" d="M639.5,207.312c0,1.656-1.345,3-3,3H521.818c-1.656,0-3-1.344-3-3v-9c0-1.656,1.344-3,3-3H636.5
	c1.655,0,3,1.344,3,3V207.312z"/>
<path fill="#F2F2F2" d="M730.833,207.312c0,1.656-1.345,3-3,3h-79.037c-1.656,0-3-1.344-3-3v-9c0-1.656,1.344-3,3-3h79.037
	c1.655,0,3,1.344,3,3V207.312z"/>
<path fill="#F2F2F2" d="M603.855,230c0,1.656-1.345,3-3,3h-79.037c-1.656,0-3-1.344-3-3v-9c0-1.656,1.344-3,3-3h79.037
	c1.655,0,3,1.344,3,3V230z"/>
<path fill="#F2F2F2" d="M664.666,230c0,1.656-1.345,3-3,3h-47.182c-1.656,0-3-1.344-3-3v-9c0-1.656,1.344-3,3-3h47.182
	c1.655,0,3,1.344,3,3V230z"/>
<path fill="#C5E1FA" d="M589.921,252.636c0,1.655-1.345,3-3,3h-65.103c-1.656,0-3-1.345-3-3v-9c0-1.655,1.344-3,3-3h65.103
	c1.655,0,3,1.345,3,3V252.636z"/>
<path fill="#C5E1FA" d="M641.074,252.636c0,1.655-1.345,3-3,3h-38.579c-1.656,0-3-1.345-3-3v-9c0-1.655,1.344-3,3-3h38.579
	c1.655,0,3,1.345,3,3V252.636z"/>
<circle fill="#BBEFD1" cx="542.486" cy="321.443" r="23.667"/>
<path fill="#E2E2E2" d="M718.666,315.766c0,1.656-1.344,3-3,3H582.705c-1.656,0-3-1.344-3-3v-9c0-1.656,1.344-3,3-3h132.961
	c1.656,0,3,1.344,3,3V315.766z"/>
<path fill="#F2F2F2" d="M642.099,336.121c0,1.655-1.344,3-3,3h-56.394c-1.656,0-3-1.345-3-3v-9c0-1.655,1.344-3,3-3h56.394
	c1.656,0,3,1.345,3,3V336.121z"/>
<circle fill="#EFEFBB" cx="542.486" cy="393.216" r="23.667"/>
<path fill="#F2F2F2" d="M741.869,387.902c0,1.655-1.345,3-3,3h-58.528c-1.656,0-3-1.345-3-3v-9c0-1.655,1.344-3,3-3h58.528
	c1.655,0,3,1.345,3,3V387.902z"/>
<path fill="#E2E2E2" d="M671.297,387.538c0,1.656-1.344,3-3,3h-85.592c-1.656,0-3-1.344-3-3v-9c0-1.656,1.344-3,3-3h85.592
	c1.656,0,3,1.344,3,3V387.538z"/>
<path fill="#F2F2F2" d="M728.17,407.895c0,1.656-1.344,3-3,3h-73.711c-1.656,0-3-1.344-3-3v-9c0-1.656,1.344-3,3-3h73.711
	c1.656,0,3,1.344,3,3V407.895z"/>
<path fill="#F2F2F2" d="M642.099,407.894c0,1.655-1.344,3-3,3h-56.394c-1.656,0-3-1.345-3-3v-9c0-1.655,1.344-3,3-3h56.394
	c1.656,0,3,1.345,3,3V407.894z"/>
<circle fill="#EFCABB" cx="542.486" cy="476.128" r="23.667"/>
<path fill="#F2F2F2" d="M738.847,470.814c0,1.655-1.345,3-3,3h-91.311c-1.656,0-3-1.345-3-3v-9c0-1.655,1.344-3,3-3h91.311
	c1.655,0,3,1.345,3,3V470.814z"/>
<path fill="#E2E2E2" d="M635.492,470.45c0,1.656-1.344,3-3,3h-49.787c-1.656,0-3-1.344-3-3v-9c0-1.656,1.344-3,3-3h49.787
	c1.656,0,3,1.344,3,3V470.45z"/>
<path fill="#F2F2F2" d="M746.405,490.807c0,1.656-1.344,3-3,3h-73.711c-1.656,0-3-1.344-3-3v-9c0-1.656,1.344-3,3-3h73.711
	c1.656,0,3,1.344,3,3V490.807z"/>
<path fill="#F2F2F2" d="M660.334,490.806c0,1.655-1.344,3-3,3h-74.629c-1.656,0-3-1.345-3-3v-9c0-1.655,1.344-3,3-3h74.629
	c1.656,0,3,1.345,3,3V490.806z"/>
<path fill="#C5E1FA" d="M692.508,336.121c0,1.655-1.345,3-3,3h-38.579c-1.656,0-3-1.345-3-3v-9c0-1.655,1.344-3,3-3h38.579
	c1.655,0,3,1.345,3,3V336.121z"/>
<path fill="#F2F2F2" d="M666.166,428.883c0,1.656-1.344,3-3,3H582.93c-1.656,0-3-1.344-3-3v-9c0-1.656,1.344-3,3-3h80.236
	c1.656,0,3,1.344,3,3V428.883z"/>
<circle fill="#E2E2E2" cx="82.603" cy="512.397" r="12.603"/>
</svg>
