<?xml version="1.0" encoding="utf-8"?>
<!-- Generator: Adobe Illustrator 16.0.0, SVG Export Plug-In . SVG Version: 6.00 Build 0)  -->
<!DOCTYPE svg PUBLIC "-//W3C//DTD SVG 1.1//EN" "http://www.w3.org/Graphics/SVG/1.1/DTD/svg11.dtd">
<svg version="1.1" id="Layer_1" xmlns="http://www.w3.org/2000/svg" xmlns:xlink="http://www.w3.org/1999/xlink" x="0px" y="0px"
	 width="838px" height="376.097px" viewBox="0 0 838 376.097" enable-background="new 0 0 838 376.097" xml:space="preserve">
<path fill="#F2F2F2" d="M838,219.724c0,4.971-4.029,9-9,9H9c-4.971,0-9-4.029-9-9v-42c0-4.971,4.029-9,9-9h820c4.971,0,9,4.029,9,9
	V219.724z"/>
<g>
	<path fill="#636363" d="M32.953,200.677v6.275c0,0.477-0.141,0.851-0.421,1.123c-0.281,0.271-0.668,0.406-1.161,0.406
		c-0.493,0-0.884-0.136-1.173-0.406c-0.29-0.272-0.434-0.646-0.434-1.123v-6.275c0-0.902-0.183-1.561-0.549-1.979
		c-0.366-0.416-0.94-0.625-1.722-0.625c-0.918,0-1.654,0.291-2.207,0.868c-0.553,0.578-0.829,1.353-0.829,2.321v5.689
		c0,0.477-0.145,0.851-0.434,1.123c-0.29,0.271-0.681,0.406-1.173,0.406c-0.494,0-0.88-0.136-1.161-0.406
		c-0.281-0.272-0.421-0.646-0.421-1.123v-15.257c0-0.442,0.149-0.799,0.446-1.071c0.297-0.271,0.685-0.407,1.161-0.407
		s0.858,0.127,1.148,0.383c0.289,0.255,0.434,0.604,0.434,1.046v5.943c0.425-0.663,0.991-1.168,1.697-1.518
		c0.706-0.349,1.509-0.522,2.411-0.522C31.49,195.548,32.953,197.257,32.953,200.677z"/>
	<path fill="#636363" d="M43.949,207.259c0,0.408-0.166,0.719-0.498,0.931s-0.804,0.302-1.416,0.269l-0.689-0.051
		c-2.857-0.205-4.286-1.736-4.286-4.594v-5.561h-1.276c-0.459,0-0.812-0.103-1.059-0.307c-0.247-0.203-0.37-0.501-0.37-0.893
		c0-0.391,0.124-0.688,0.37-0.893s0.6-0.307,1.059-0.307h1.276v-2.347c0-0.459,0.144-0.825,0.434-1.097
		c0.289-0.272,0.68-0.408,1.173-0.408c0.476,0,0.859,0.136,1.148,0.408c0.289,0.271,0.434,0.638,0.434,1.097v2.347h2.168
		c0.459,0,0.812,0.102,1.059,0.307c0.247,0.203,0.37,0.5,0.37,0.893c0,0.392-0.124,0.689-0.37,0.893
		c-0.246,0.204-0.6,0.307-1.059,0.307H40.25v5.791c0,1.259,0.578,1.931,1.734,2.017l0.689,0.051
		C43.523,206.161,43.949,206.544,43.949,207.259z"/>
	<path fill="#636363" d="M53.184,207.259c0,0.408-0.166,0.719-0.498,0.931s-0.804,0.302-1.416,0.269l-0.689-0.051
		c-2.857-0.205-4.286-1.736-4.286-4.594v-5.561H45.02c-0.459,0-0.812-0.103-1.059-0.307c-0.247-0.203-0.37-0.501-0.37-0.893
		c0-0.391,0.124-0.688,0.37-0.893s0.6-0.307,1.059-0.307h1.276v-2.347c0-0.459,0.144-0.825,0.434-1.097
		c0.289-0.272,0.68-0.408,1.173-0.408c0.476,0,0.859,0.136,1.148,0.408c0.289,0.271,0.434,0.638,0.434,1.097v2.347h2.168
		c0.459,0,0.812,0.102,1.059,0.307c0.247,0.203,0.37,0.5,0.37,0.893c0,0.392-0.124,0.689-0.37,0.893
		c-0.246,0.204-0.6,0.307-1.059,0.307h-2.168v5.791c0,1.259,0.578,1.931,1.734,2.017l0.689,0.051
		C52.759,206.161,53.184,206.544,53.184,207.259z"/>
	<path fill="#636363" d="M64.88,196.364c0.842,0.545,1.496,1.313,1.964,2.31c0.468,0.995,0.702,2.139,0.702,3.431
		c0,1.293-0.234,2.424-0.702,3.393c-0.468,0.972-1.119,1.72-1.952,2.246c-0.833,0.527-1.794,0.791-2.883,0.791
		c-0.885,0-1.675-0.188-2.373-0.562c-0.698-0.374-1.233-0.894-1.607-1.558v5.205c0,0.441-0.145,0.791-0.434,1.047
		c-0.29,0.254-0.672,0.383-1.148,0.383c-0.477,0-0.864-0.137-1.161-0.408c-0.297-0.273-0.446-0.63-0.446-1.072v-14.465
		c0-0.459,0.14-0.825,0.421-1.097c0.281-0.272,0.659-0.408,1.135-0.408s0.859,0.136,1.148,0.408
		c0.289,0.271,0.434,0.638,0.434,1.097v0.639c0.374-0.697,0.914-1.238,1.62-1.621c0.706-0.381,1.509-0.574,2.411-0.574
		C63.082,195.548,64.039,195.819,64.88,196.364z M63.516,205.025c0.561-0.688,0.842-1.661,0.842-2.922
		c0-1.292-0.281-2.296-0.842-3.01c-0.562-0.714-1.344-1.071-2.347-1.071c-1.021,0-1.808,0.35-2.36,1.046
		c-0.553,0.698-0.829,1.692-0.829,2.985c0,1.275,0.276,2.262,0.829,2.959c0.552,0.697,1.339,1.047,2.36,1.047
		C62.172,206.06,62.954,205.714,63.516,205.025z"/>
	<path fill="#636363" d="M70.199,207.436c-0.544-0.321-0.816-0.78-0.816-1.377c0-0.34,0.093-0.617,0.281-0.83
		c0.187-0.212,0.417-0.317,0.689-0.317c0.289,0,0.689,0.137,1.199,0.407c0.544,0.255,1.042,0.451,1.492,0.587
		c0.451,0.137,1.024,0.204,1.722,0.204c0.714,0,1.271-0.118,1.671-0.356c0.399-0.238,0.6-0.57,0.6-0.995
		c0-0.289-0.081-0.519-0.242-0.688c-0.162-0.17-0.451-0.328-0.868-0.473s-1.05-0.311-1.9-0.497
		c-1.514-0.306-2.599-0.739-3.253-1.302c-0.655-0.562-0.982-1.334-0.982-2.321c0-0.748,0.221-1.424,0.664-2.028
		c0.442-0.604,1.05-1.07,1.824-1.402c0.773-0.332,1.654-0.497,2.64-0.497c0.714,0,1.403,0.089,2.066,0.268
		c0.664,0.179,1.259,0.438,1.786,0.778c0.544,0.34,0.816,0.791,0.816,1.352c0,0.34-0.094,0.625-0.281,0.854
		c-0.188,0.229-0.417,0.345-0.689,0.345c-0.187,0-0.37-0.039-0.548-0.115c-0.179-0.076-0.404-0.19-0.676-0.345
		c-0.493-0.255-0.918-0.446-1.275-0.573c-0.357-0.129-0.8-0.191-1.327-0.191c-0.629,0-1.127,0.127-1.492,0.382
		c-0.366,0.255-0.549,0.604-0.549,1.046c0,0.425,0.187,0.749,0.562,0.97c0.374,0.222,1.097,0.441,2.168,0.663
		c1.139,0.238,2.032,0.51,2.679,0.815c0.646,0.307,1.11,0.688,1.39,1.147c0.281,0.459,0.421,1.047,0.421,1.762
		c0,1.156-0.48,2.082-1.441,2.779c-0.961,0.697-2.241,1.047-3.839,1.047C72.835,208.534,71.339,208.167,70.199,207.436z"/>
	<path fill="#636363" d="M82.7,198.852c-0.357-0.366-0.536-0.819-0.536-1.365c0-0.545,0.179-0.995,0.536-1.353
		c0.357-0.357,0.808-0.536,1.352-0.536c0.545,0,0.995,0.179,1.353,0.536c0.357,0.357,0.536,0.808,0.536,1.353
		c0,0.546-0.179,0.999-0.536,1.365c-0.357,0.366-0.808,0.548-1.353,0.548C83.508,199.399,83.058,199.218,82.7,198.852z
		 M82.7,207.935c-0.357-0.365-0.536-0.82-0.536-1.365c0-0.544,0.179-0.999,0.536-1.365c0.357-0.365,0.808-0.549,1.352-0.549
		c0.545,0,0.995,0.184,1.353,0.549c0.357,0.366,0.536,0.821,0.536,1.365c0,0.545-0.179,1-0.536,1.365
		c-0.357,0.365-0.808,0.548-1.353,0.548C83.508,208.481,83.058,208.3,82.7,207.935z"/>
	<path fill="#636363" d="M90.328,209.911c-0.222,0.152-0.469,0.229-0.74,0.229c-0.341,0-0.643-0.115-0.905-0.347
		c-0.264-0.229-0.396-0.521-0.396-0.879c0-0.153,0.025-0.307,0.076-0.459l5.919-18.547c0.102-0.324,0.264-0.562,0.484-0.715
		c0.221-0.152,0.468-0.229,0.74-0.229c0.34,0,0.642,0.115,0.905,0.344c0.263,0.229,0.396,0.523,0.396,0.88
		c0,0.153-0.025,0.306-0.076,0.459l-5.919,18.546C90.71,209.52,90.549,209.759,90.328,209.911z"/>
	<path fill="#636363" d="M97.114,209.911c-0.222,0.152-0.469,0.229-0.74,0.229c-0.341,0-0.643-0.115-0.905-0.347
		c-0.264-0.229-0.396-0.521-0.396-0.879c0-0.153,0.025-0.307,0.076-0.459l5.919-18.547c0.102-0.324,0.264-0.562,0.484-0.715
		c0.221-0.152,0.468-0.229,0.74-0.229c0.34,0,0.642,0.115,0.905,0.344c0.263,0.229,0.396,0.523,0.396,0.88
		c0,0.153-0.025,0.306-0.076,0.459l-5.919,18.546C97.496,209.52,97.335,209.759,97.114,209.911z"/>
	<path fill="#636363" d="M121.617,195.854c0.229-0.153,0.48-0.229,0.752-0.229c0.392,0,0.744,0.131,1.059,0.396
		c0.315,0.265,0.473,0.591,0.473,0.981c0,0.222-0.043,0.418-0.128,0.588l-4.209,9.873c-0.137,0.324-0.345,0.57-0.625,0.74
		c-0.281,0.17-0.592,0.254-0.932,0.254c-0.323,0-0.625-0.084-0.905-0.254c-0.281-0.17-0.489-0.416-0.625-0.74l-3.036-7.297
		l-2.934,7.297c-0.137,0.324-0.345,0.57-0.625,0.74c-0.281,0.17-0.592,0.254-0.932,0.254c-0.323,0-0.63-0.084-0.918-0.254
		c-0.29-0.17-0.502-0.416-0.639-0.74l-4.184-9.873c-0.085-0.221-0.128-0.408-0.128-0.562c0-0.391,0.17-0.727,0.511-1.008
		c0.34-0.279,0.714-0.421,1.122-0.421c0.289,0,0.553,0.077,0.791,0.229c0.238,0.152,0.417,0.383,0.536,0.688l3.011,7.78l3.087-7.704
		c0.136-0.323,0.331-0.565,0.586-0.728c0.256-0.162,0.536-0.242,0.842-0.242c0.307,0,0.587,0.08,0.843,0.242
		c0.255,0.162,0.45,0.404,0.586,0.728l3.113,7.729l2.984-7.781C121.213,196.236,121.388,196.007,121.617,195.854z"/>
	<path fill="#636363" d="M143.455,195.854c0.229-0.153,0.48-0.229,0.752-0.229c0.392,0,0.744,0.131,1.059,0.396
		s0.473,0.591,0.473,0.981c0,0.222-0.043,0.418-0.128,0.588l-4.209,9.873c-0.137,0.324-0.345,0.57-0.625,0.74
		c-0.281,0.17-0.592,0.254-0.932,0.254c-0.323,0-0.625-0.084-0.905-0.254c-0.281-0.17-0.489-0.416-0.625-0.74l-3.036-7.297
		l-2.934,7.297c-0.137,0.324-0.345,0.57-0.625,0.74c-0.281,0.17-0.592,0.254-0.932,0.254c-0.323,0-0.63-0.084-0.918-0.254
		c-0.29-0.17-0.502-0.416-0.639-0.74l-4.184-9.873c-0.085-0.221-0.128-0.408-0.128-0.562c0-0.391,0.17-0.727,0.511-1.008
		c0.34-0.279,0.714-0.421,1.122-0.421c0.289,0,0.553,0.077,0.791,0.229c0.238,0.152,0.417,0.383,0.536,0.688l3.011,7.78l3.087-7.704
		c0.136-0.323,0.331-0.565,0.586-0.728c0.256-0.162,0.536-0.242,0.842-0.242c0.307,0,0.587,0.08,0.843,0.242
		c0.255,0.162,0.45,0.404,0.586,0.728l3.113,7.729l2.984-7.781C143.051,196.236,143.226,196.007,143.455,195.854z"/>
	<path fill="#636363" d="M165.293,195.854c0.229-0.153,0.48-0.229,0.752-0.229c0.392,0,0.744,0.131,1.059,0.396
		s0.473,0.591,0.473,0.981c0,0.222-0.043,0.418-0.128,0.588l-4.209,9.873c-0.137,0.324-0.345,0.57-0.625,0.74
		c-0.281,0.17-0.592,0.254-0.932,0.254c-0.323,0-0.625-0.084-0.905-0.254c-0.281-0.17-0.489-0.416-0.625-0.74l-3.036-7.297
		l-2.934,7.297c-0.137,0.324-0.345,0.57-0.625,0.74c-0.281,0.17-0.592,0.254-0.932,0.254c-0.323,0-0.63-0.084-0.918-0.254
		c-0.29-0.17-0.502-0.416-0.639-0.74l-4.184-9.873c-0.085-0.221-0.128-0.408-0.128-0.562c0-0.391,0.17-0.727,0.511-1.008
		c0.34-0.279,0.714-0.421,1.122-0.421c0.289,0,0.553,0.077,0.791,0.229c0.238,0.152,0.417,0.383,0.536,0.688l3.011,7.78l3.087-7.704
		c0.136-0.323,0.331-0.565,0.586-0.728c0.256-0.162,0.536-0.242,0.842-0.242c0.307,0,0.587,0.08,0.843,0.242
		c0.255,0.162,0.45,0.404,0.586,0.728l3.113,7.729l2.984-7.781C164.889,196.236,165.063,196.007,165.293,195.854z"/>
	<path fill="#636363" d="M168.929,207.935c-0.357-0.365-0.536-0.82-0.536-1.365c0-0.544,0.179-0.999,0.536-1.365
		c0.357-0.365,0.808-0.549,1.352-0.549c0.545,0,0.995,0.184,1.353,0.549c0.357,0.366,0.536,0.821,0.536,1.365
		c0,0.545-0.179,1-0.536,1.365c-0.357,0.365-0.808,0.548-1.353,0.548C169.736,208.481,169.286,208.3,168.929,207.935z"/>
	<path fill="#636363" d="M175.306,192.855c-0.341-0.313-0.51-0.728-0.51-1.237s0.169-0.918,0.51-1.224
		c0.34-0.306,0.799-0.459,1.378-0.459c0.561,0,1.016,0.153,1.364,0.459c0.348,0.306,0.523,0.714,0.523,1.224
		s-0.17,0.924-0.511,1.237c-0.34,0.315-0.799,0.472-1.377,0.472C176.104,193.329,175.646,193.171,175.306,192.855z M175.548,208.087
		c-0.298-0.264-0.446-0.643-0.446-1.135v-9.849c0-0.493,0.148-0.868,0.446-1.123c0.298-0.255,0.677-0.383,1.136-0.383
		s0.842,0.127,1.147,0.383c0.307,0.255,0.46,0.629,0.46,1.123v9.849c0,0.492-0.153,0.871-0.46,1.135
		c-0.306,0.264-0.688,0.396-1.147,0.396S175.846,208.351,175.548,208.087z"/>
	<path fill="#636363" d="M192.169,196.823c0.73,0.852,1.097,2.135,1.097,3.854v6.275c0,0.477-0.141,0.851-0.421,1.123
		c-0.281,0.271-0.668,0.406-1.161,0.406c-0.493,0-0.885-0.136-1.174-0.406c-0.289-0.272-0.434-0.646-0.434-1.123v-6.099
		c0-0.969-0.183-1.675-0.548-2.117c-0.366-0.442-0.94-0.663-1.723-0.663c-0.918,0-1.654,0.289-2.206,0.867
		c-0.554,0.578-0.829,1.354-0.829,2.321v5.688c0,0.478-0.146,0.852-0.435,1.123s-0.68,0.407-1.173,0.407
		c-0.494,0-0.881-0.136-1.161-0.407c-0.28-0.271-0.421-0.646-0.421-1.123v-9.873c0-0.441,0.145-0.799,0.434-1.072
		c0.289-0.271,0.681-0.407,1.174-0.407c0.442,0,0.804,0.132,1.084,0.396c0.281,0.264,0.421,0.608,0.421,1.033v0.689
		c0.425-0.697,0.995-1.233,1.71-1.607c0.714-0.374,1.521-0.561,2.423-0.561C190.323,195.548,191.438,195.974,192.169,196.823z"/>
	<path fill="#636363" d="M196.531,207.436c-0.544-0.321-0.816-0.78-0.816-1.377c0-0.34,0.094-0.617,0.281-0.83
		c0.187-0.212,0.416-0.317,0.688-0.317c0.289,0,0.688,0.137,1.199,0.407c0.544,0.255,1.041,0.451,1.492,0.587
		c0.45,0.137,1.024,0.204,1.722,0.204c0.715,0,1.271-0.118,1.672-0.356c0.399-0.238,0.599-0.57,0.599-0.995
		c0-0.289-0.08-0.519-0.242-0.688c-0.161-0.17-0.45-0.328-0.867-0.473s-1.051-0.311-1.9-0.497c-1.514-0.306-2.599-0.739-3.253-1.302
		c-0.655-0.562-0.982-1.334-0.982-2.321c0-0.748,0.221-1.424,0.663-2.028c0.442-0.604,1.051-1.07,1.824-1.402
		c0.774-0.332,1.654-0.497,2.641-0.497c0.715,0,1.403,0.089,2.066,0.268c0.663,0.179,1.259,0.438,1.786,0.778
		c0.544,0.34,0.816,0.791,0.816,1.352c0,0.34-0.094,0.625-0.281,0.854s-0.416,0.345-0.688,0.345c-0.188,0-0.37-0.039-0.549-0.115
		c-0.178-0.076-0.403-0.19-0.676-0.345c-0.493-0.255-0.918-0.446-1.275-0.573c-0.357-0.129-0.8-0.191-1.326-0.191
		c-0.63,0-1.127,0.127-1.493,0.382c-0.365,0.255-0.548,0.604-0.548,1.046c0,0.425,0.187,0.749,0.561,0.97
		c0.374,0.222,1.098,0.441,2.169,0.663c1.139,0.238,2.032,0.51,2.679,0.815c0.646,0.307,1.109,0.688,1.391,1.147
		c0.28,0.459,0.421,1.047,0.421,1.762c0,1.156-0.481,2.082-1.441,2.779c-0.961,0.697-2.241,1.047-3.84,1.047
		C199.168,208.534,197.671,208.167,196.531,207.436z"/>
	<path fill="#636363" d="M216.507,207.259c0,0.408-0.166,0.719-0.498,0.931c-0.331,0.212-0.804,0.302-1.416,0.269l-0.688-0.051
		c-2.857-0.205-4.286-1.736-4.286-4.594v-5.561h-1.275c-0.459,0-0.812-0.103-1.059-0.307c-0.247-0.203-0.37-0.501-0.37-0.893
		c0-0.391,0.124-0.688,0.37-0.893s0.6-0.307,1.059-0.307h1.275v-2.347c0-0.459,0.145-0.825,0.434-1.097
		c0.289-0.272,0.681-0.408,1.174-0.408c0.476,0,0.858,0.136,1.148,0.408c0.289,0.271,0.434,0.638,0.434,1.097v2.347h2.168
		c0.46,0,0.812,0.102,1.059,0.307c0.247,0.203,0.37,0.5,0.37,0.893c0,0.392-0.123,0.689-0.37,0.893
		c-0.246,0.204-0.599,0.307-1.059,0.307h-2.168v5.791c0,1.259,0.578,1.931,1.734,2.017l0.689,0.051
		C216.081,206.161,216.507,206.544,216.507,207.259z"/>
	<path fill="#636363" d="M227.438,196.835c0.842,0.859,1.263,2.166,1.263,3.918v6.225c0,0.459-0.136,0.82-0.408,1.084
		c-0.271,0.264-0.646,0.396-1.122,0.396c-0.442,0-0.804-0.137-1.084-0.408c-0.281-0.271-0.421-0.629-0.421-1.071v-0.562
		c-0.29,0.662-0.745,1.183-1.365,1.557c-0.621,0.374-1.34,0.562-2.156,0.562c-0.833,0-1.59-0.172-2.271-0.512
		c-0.68-0.34-1.216-0.808-1.606-1.402c-0.392-0.596-0.587-1.258-0.587-1.99c0-0.918,0.233-1.641,0.701-2.168
		c0.468-0.527,1.229-0.91,2.283-1.148c1.054-0.238,2.509-0.357,4.362-0.357h0.639v-0.586c0-0.832-0.179-1.44-0.536-1.823
		c-0.357-0.384-0.936-0.574-1.734-0.574c-0.494,0-0.995,0.073-1.506,0.217c-0.51,0.146-1.114,0.354-1.812,0.625
		c-0.442,0.222-0.765,0.332-0.969,0.332c-0.307,0-0.558-0.11-0.753-0.332c-0.195-0.221-0.293-0.51-0.293-0.866
		c0-0.289,0.071-0.541,0.217-0.752c0.144-0.213,0.387-0.412,0.727-0.601c0.596-0.323,1.306-0.578,2.131-0.767
		c0.824-0.187,1.637-0.279,2.436-0.279C225.309,195.548,226.597,195.978,227.438,196.835z M224.862,205.383
		c0.535-0.569,0.804-1.306,0.804-2.206v-0.536h-0.46c-1.14,0-2.023,0.051-2.653,0.153c-0.629,0.102-1.08,0.279-1.352,0.535
		s-0.408,0.604-0.408,1.047c0,0.543,0.191,0.99,0.574,1.339c0.383,0.349,0.854,0.521,1.416,0.521
		C223.633,206.236,224.326,205.952,224.862,205.383z"/>
	<path fill="#636363" d="M243.651,196.007c0.289,0.271,0.434,0.638,0.434,1.097v10.077c0,1.956-0.544,3.436-1.633,4.438
		c-1.089,1.004-2.695,1.506-4.821,1.506c-1.854,0-3.402-0.35-4.644-1.047c-0.629-0.373-0.943-0.824-0.943-1.352
		c0-0.374,0.089-0.672,0.268-0.893c0.179-0.222,0.412-0.332,0.701-0.332c0.153,0,0.34,0.039,0.562,0.115
		c0.221,0.075,0.45,0.166,0.688,0.268c0.612,0.256,1.161,0.451,1.646,0.587c0.485,0.136,1.042,0.204,1.671,0.204
		c2.229,0,3.343-1.09,3.343-3.266v-1.634c-0.375,0.697-0.919,1.237-1.633,1.62c-0.715,0.383-1.531,0.574-2.449,0.574
		c-1.089,0-2.054-0.26-2.896-0.778c-0.842-0.519-1.501-1.246-1.978-2.182c-0.477-0.935-0.714-2.017-0.714-3.24
		s0.233-2.308,0.701-3.252c0.468-0.944,1.127-1.675,1.978-2.194c0.85-0.519,1.819-0.777,2.908-0.777c0.918,0,1.734,0.19,2.449,0.574
		c0.714,0.383,1.258,0.922,1.633,1.619v-0.662c0-0.442,0.145-0.8,0.434-1.072s0.672-0.408,1.147-0.408
		C242.979,195.599,243.362,195.734,243.651,196.007z M240.067,204.503c0.569-0.664,0.854-1.573,0.854-2.73
		c0-1.173-0.285-2.091-0.854-2.755c-0.57-0.663-1.365-0.995-2.386-0.995c-1.004,0-1.795,0.332-2.373,0.995
		c-0.578,0.664-0.867,1.582-0.867,2.755c0,1.157,0.289,2.066,0.867,2.73c0.578,0.662,1.369,0.994,2.373,0.994
		C238.702,205.497,239.497,205.165,240.067,204.503z"/>
	<path fill="#636363" d="M255.386,195.88c0.255,0.221,0.383,0.553,0.383,0.994c0,0.459-0.111,0.8-0.332,1.021
		c-0.221,0.222-0.621,0.366-1.199,0.435l-0.765,0.076c-1.004,0.102-1.739,0.442-2.207,1.021c-0.468,0.579-0.701,1.302-0.701,2.169
		v5.357c0,0.492-0.153,0.871-0.46,1.135c-0.306,0.264-0.688,0.396-1.147,0.396s-0.838-0.132-1.136-0.396
		c-0.298-0.264-0.446-0.643-0.446-1.135v-9.873c0-0.477,0.148-0.843,0.446-1.098c0.298-0.255,0.668-0.383,1.11-0.383
		c0.441,0,0.799,0.124,1.071,0.37c0.271,0.247,0.408,0.6,0.408,1.059v1.021c0.322-0.748,0.804-1.327,1.441-1.735
		c0.637-0.408,1.348-0.638,2.13-0.689l0.357-0.024C254.782,195.564,255.131,195.659,255.386,195.88z"/>
	<path fill="#636363" d="M266.369,196.835c0.842,0.859,1.263,2.166,1.263,3.918v6.225c0,0.459-0.136,0.82-0.408,1.084
		c-0.271,0.264-0.646,0.396-1.122,0.396c-0.442,0-0.804-0.137-1.084-0.408c-0.281-0.271-0.421-0.629-0.421-1.071v-0.562
		c-0.29,0.662-0.745,1.183-1.365,1.557c-0.621,0.374-1.34,0.562-2.156,0.562c-0.833,0-1.59-0.172-2.271-0.512
		c-0.68-0.34-1.216-0.808-1.606-1.402c-0.392-0.596-0.587-1.258-0.587-1.99c0-0.918,0.233-1.641,0.701-2.168s1.229-0.91,2.283-1.148
		c1.054-0.238,2.509-0.357,4.362-0.357h0.639v-0.586c0-0.832-0.179-1.44-0.536-1.823c-0.357-0.384-0.936-0.574-1.734-0.574
		c-0.494,0-0.995,0.073-1.506,0.217c-0.51,0.146-1.114,0.354-1.812,0.625c-0.442,0.222-0.765,0.332-0.969,0.332
		c-0.307,0-0.558-0.11-0.753-0.332c-0.195-0.221-0.293-0.51-0.293-0.866c0-0.289,0.071-0.541,0.217-0.752
		c0.144-0.213,0.387-0.412,0.727-0.601c0.596-0.323,1.306-0.578,2.131-0.767c0.824-0.187,1.637-0.279,2.436-0.279
		C264.239,195.548,265.527,195.978,266.369,196.835z M263.793,205.383c0.535-0.569,0.804-1.306,0.804-2.206v-0.536h-0.46
		c-1.14,0-2.023,0.051-2.653,0.153c-0.629,0.102-1.08,0.279-1.352,0.535s-0.408,0.604-0.408,1.047c0,0.543,0.191,0.99,0.574,1.339
		c0.383,0.349,0.854,0.521,1.416,0.521C262.563,206.236,263.257,205.952,263.793,205.383z"/>
	<path fill="#636363" d="M288.819,196.76c0.723,0.808,1.085,2.114,1.085,3.917v6.275c0,0.492-0.149,0.871-0.447,1.135
		c-0.297,0.264-0.685,0.396-1.16,0.396c-0.459,0-0.838-0.132-1.136-0.396s-0.446-0.643-0.446-1.135v-6.275
		c0-0.936-0.166-1.604-0.497-2.003c-0.332-0.399-0.838-0.601-1.519-0.601c-0.833,0-1.496,0.285-1.989,0.855
		c-0.494,0.57-0.74,1.348-0.74,2.334v5.689c0,0.492-0.149,0.871-0.446,1.135c-0.298,0.264-0.676,0.396-1.136,0.396
		c-0.459,0-0.842-0.132-1.147-0.396c-0.307-0.264-0.459-0.643-0.459-1.135v-6.275c0-0.936-0.166-1.604-0.498-2.004
		c-0.331-0.398-0.838-0.6-1.518-0.6c-0.834,0-1.493,0.285-1.978,0.855c-0.485,0.57-0.727,1.348-0.727,2.334v5.689
		c0,0.492-0.153,0.871-0.46,1.135c-0.306,0.264-0.688,0.396-1.147,0.396s-0.838-0.132-1.136-0.396
		c-0.298-0.264-0.446-0.643-0.446-1.135v-9.873c0-0.477,0.153-0.843,0.459-1.098c0.307-0.255,0.689-0.383,1.148-0.383
		c0.442,0,0.804,0.124,1.084,0.37c0.281,0.247,0.421,0.6,0.421,1.059v0.612c0.392-0.68,0.914-1.199,1.569-1.557
		c0.654-0.356,1.407-0.535,2.258-0.535c1.87,0,3.121,0.781,3.75,2.347c0.374-0.714,0.927-1.284,1.658-1.709
		c0.731-0.425,1.557-0.638,2.475-0.638C287.055,195.548,288.097,195.952,288.819,196.76z"/>
	<path fill="#636363" d="M293.296,207.935c-0.357-0.365-0.536-0.82-0.536-1.365c0-0.544,0.179-0.999,0.536-1.365
		c0.357-0.365,0.808-0.549,1.352-0.549c0.545,0,0.995,0.184,1.353,0.549c0.357,0.366,0.536,0.821,0.536,1.365
		c0,0.545-0.179,1-0.536,1.365s-0.808,0.548-1.353,0.548C294.104,208.481,293.653,208.3,293.296,207.935z"/>
	<path fill="#636363" d="M301.396,207.743c-0.944-0.527-1.671-1.275-2.182-2.246c-0.51-0.97-0.765-2.101-0.765-3.394
		c0-1.292,0.268-2.437,0.804-3.431c0.535-0.995,1.288-1.764,2.258-2.309c0.969-0.545,2.083-0.816,3.342-0.816
		c0.663,0,1.33,0.094,2.003,0.279c0.671,0.188,1.263,0.443,1.772,0.767c0.544,0.356,0.816,0.808,0.816,1.352
		c0,0.375-0.089,0.677-0.268,0.906c-0.179,0.229-0.413,0.344-0.702,0.344c-0.187,0-0.382-0.042-0.586-0.127
		c-0.204-0.085-0.408-0.187-0.612-0.306c-0.375-0.221-0.731-0.396-1.072-0.523c-0.34-0.127-0.731-0.19-1.173-0.19
		c-1.055,0-1.867,0.344-2.437,1.032c-0.57,0.689-0.854,1.68-0.854,2.973c0,1.275,0.284,2.258,0.854,2.947
		c0.569,0.688,1.382,1.033,2.437,1.033c0.425,0,0.804-0.064,1.135-0.191c0.332-0.128,0.702-0.303,1.11-0.523
		c0.255-0.152,0.476-0.268,0.663-0.345c0.187-0.076,0.374-0.114,0.562-0.114c0.271,0,0.501,0.119,0.688,0.357s0.28,0.535,0.28,0.893
		c0,0.289-0.063,0.54-0.191,0.752c-0.127,0.213-0.336,0.404-0.625,0.574c-0.527,0.342-1.14,0.607-1.837,0.805
		c-0.697,0.195-1.411,0.293-2.143,0.293C303.433,208.534,302.341,208.27,301.396,207.743z"/>
	<path fill="#636363" d="M313.922,207.743c-0.961-0.527-1.705-1.285-2.231-2.271c-0.527-0.986-0.791-2.135-0.791-3.443
		s0.264-2.453,0.791-3.432c0.526-0.979,1.271-1.73,2.231-2.258c0.961-0.527,2.08-0.791,3.355-0.791c1.275,0,2.394,0.264,3.354,0.791
		c0.961,0.527,1.7,1.279,2.22,2.258c0.519,0.979,0.778,2.122,0.778,3.432c0,1.311-0.26,2.457-0.778,3.443
		c-0.52,0.986-1.259,1.744-2.22,2.271c-0.961,0.526-2.079,0.791-3.354,0.791S314.883,208.27,313.922,207.743z M319.624,205.038
		c0.544-0.681,0.816-1.685,0.816-3.011c0-1.31-0.272-2.309-0.816-2.997c-0.544-0.689-1.326-1.035-2.347-1.035
		s-1.808,0.346-2.36,1.035c-0.553,0.688-0.829,1.688-0.829,2.997c0,1.326,0.272,2.33,0.816,3.011
		c0.544,0.682,1.327,1.021,2.348,1.021C318.289,206.06,319.08,205.72,319.624,205.038z"/>
	<path fill="#636363" d="M344.204,196.76c0.723,0.808,1.085,2.114,1.085,3.917v6.275c0,0.492-0.149,0.871-0.447,1.135
		c-0.297,0.264-0.685,0.396-1.16,0.396c-0.459,0-0.838-0.132-1.136-0.396s-0.446-0.643-0.446-1.135v-6.275
		c0-0.936-0.166-1.604-0.497-2.003c-0.332-0.399-0.838-0.601-1.519-0.601c-0.833,0-1.496,0.285-1.989,0.855
		c-0.494,0.57-0.74,1.348-0.74,2.334v5.689c0,0.492-0.149,0.871-0.446,1.135c-0.298,0.264-0.676,0.396-1.136,0.396
		c-0.459,0-0.842-0.132-1.147-0.396c-0.307-0.264-0.459-0.643-0.459-1.135v-6.275c0-0.936-0.166-1.604-0.498-2.004
		c-0.331-0.398-0.838-0.6-1.518-0.6c-0.834,0-1.493,0.285-1.978,0.855c-0.485,0.57-0.727,1.348-0.727,2.334v5.689
		c0,0.492-0.153,0.871-0.46,1.135c-0.306,0.264-0.688,0.396-1.147,0.396s-0.838-0.132-1.136-0.396s-0.446-0.643-0.446-1.135v-9.873
		c0-0.477,0.153-0.843,0.459-1.098c0.307-0.255,0.689-0.383,1.148-0.383c0.442,0,0.804,0.124,1.084,0.37
		c0.281,0.247,0.421,0.6,0.421,1.059v0.612c0.392-0.68,0.914-1.199,1.569-1.557c0.654-0.356,1.407-0.535,2.258-0.535
		c1.87,0,3.121,0.781,3.75,2.347c0.374-0.714,0.927-1.284,1.658-1.709s1.557-0.638,2.475-0.638
		C342.439,195.548,343.481,195.952,344.204,196.76z"/>
	<path fill="#636363" d="M348.631,209.911c-0.222,0.152-0.469,0.229-0.74,0.229c-0.341,0-0.643-0.115-0.905-0.347
		c-0.264-0.229-0.396-0.521-0.396-0.879c0-0.153,0.025-0.307,0.076-0.459l5.919-18.547c0.102-0.324,0.264-0.562,0.484-0.715
		c0.221-0.152,0.468-0.229,0.74-0.229c0.34,0,0.642,0.115,0.905,0.344c0.263,0.229,0.396,0.523,0.396,0.88
		c0,0.153-0.025,0.306-0.076,0.459l-5.919,18.546C349.013,209.52,348.852,209.759,348.631,209.911z"/>
	<path fill="#636363" d="M365.021,196.364c0.842,0.545,1.496,1.313,1.964,2.31c0.468,0.995,0.702,2.139,0.702,3.431
		c0,1.293-0.234,2.424-0.702,3.393c-0.468,0.972-1.118,1.72-1.951,2.246c-0.834,0.527-1.795,0.791-2.883,0.791
		c-0.885,0-1.676-0.188-2.373-0.562c-0.697-0.374-1.233-0.894-1.606-1.558v5.205c0,0.441-0.146,0.791-0.435,1.047
		c-0.289,0.254-0.672,0.383-1.147,0.383c-0.477,0-0.863-0.137-1.161-0.408c-0.298-0.273-0.446-0.63-0.446-1.072v-14.465
		c0-0.459,0.141-0.825,0.421-1.097c0.28-0.272,0.659-0.408,1.136-0.408c0.476,0,0.858,0.136,1.147,0.408
		c0.289,0.271,0.434,0.638,0.434,1.097v0.639c0.374-0.697,0.914-1.238,1.62-1.621c0.706-0.381,1.51-0.574,2.411-0.574
		C363.223,195.548,364.18,195.819,365.021,196.364z M363.656,205.025c0.562-0.688,0.842-1.661,0.842-2.922
		c0-1.292-0.28-2.296-0.842-3.01c-0.561-0.714-1.344-1.071-2.347-1.071c-1.021,0-1.808,0.35-2.36,1.046
		c-0.553,0.698-0.829,1.692-0.829,2.985c0,1.275,0.276,2.262,0.829,2.959c0.553,0.697,1.34,1.047,2.36,1.047
		C362.312,206.06,363.096,205.714,363.656,205.025z"/>
	<path fill="#636363" d="M370.418,209.911c-0.222,0.152-0.469,0.229-0.74,0.229c-0.341,0-0.643-0.115-0.905-0.347
		c-0.264-0.229-0.396-0.521-0.396-0.879c0-0.153,0.025-0.307,0.076-0.459l5.919-18.547c0.102-0.324,0.264-0.562,0.484-0.715
		c0.221-0.152,0.468-0.229,0.74-0.229c0.34,0,0.642,0.115,0.905,0.344s0.396,0.523,0.396,0.88c0,0.153-0.025,0.306-0.076,0.459
		l-5.919,18.546C370.8,209.52,370.639,209.759,370.418,209.911z"/>
	<path fill="#636363" d="M392.063,200.624c0.569,0.766,0.854,1.701,0.854,2.807c0,1.531-0.548,2.73-1.646,3.598
		c-1.097,0.867-2.606,1.301-4.528,1.301h-6.582c-0.493,0-0.88-0.135-1.161-0.408c-0.28-0.271-0.421-0.653-0.421-1.146V191.9
		c0-0.493,0.141-0.875,0.421-1.147c0.281-0.272,0.668-0.408,1.161-0.408h6.327c1.871,0,3.338,0.413,4.4,1.236
		c1.063,0.826,1.595,1.978,1.595,3.457c0,0.953-0.251,1.777-0.753,2.476s-1.194,1.208-2.079,1.53
		C390.689,199.331,391.493,199.859,392.063,200.624z M381.795,197.921h4.158c2.262,0,3.394-0.842,3.394-2.526
		c0-0.851-0.281-1.479-0.842-1.888c-0.562-0.408-1.412-0.612-2.552-0.612h-4.158V197.921z M388.989,205.141
		c0.544-0.425,0.816-1.089,0.816-1.989c0-0.902-0.276-1.574-0.829-2.016c-0.553-0.442-1.416-0.664-2.59-0.664h-4.592v5.307h4.592
		C387.577,205.777,388.444,205.564,388.989,205.141z"/>
	<path fill="#636363" d="M406.3,205.243c0.178,0.221,0.269,0.519,0.269,0.893c0,0.527-0.315,0.969-0.944,1.326
		c-0.578,0.324-1.233,0.582-1.964,0.777c-0.731,0.195-1.429,0.295-2.093,0.295c-2.008,0-3.598-0.578-4.771-1.735
		c-1.173-1.156-1.76-2.738-1.76-4.745c0-1.275,0.255-2.407,0.765-3.393c0.512-0.986,1.229-1.752,2.156-2.297
		c0.927-0.544,1.978-0.815,3.15-0.815c1.123,0,2.101,0.247,2.935,0.739c0.833,0.494,1.479,1.19,1.938,2.092
		c0.459,0.902,0.688,1.966,0.688,3.189c0,0.73-0.323,1.098-0.969,1.098h-7.526c0.103,1.173,0.435,2.037,0.995,2.588
		c0.562,0.554,1.378,0.83,2.449,0.83c0.544,0,1.023-0.067,1.44-0.205c0.416-0.135,0.89-0.321,1.416-0.561
		c0.511-0.271,0.885-0.408,1.122-0.408C405.887,204.911,406.121,205.021,406.3,205.243z M399.105,198.608
		c-0.521,0.545-0.83,1.327-0.933,2.348h5.767c-0.034-1.037-0.289-1.823-0.767-2.359c-0.476-0.536-1.14-0.805-1.989-0.805
		C400.316,197.792,399.624,198.064,399.105,198.608z"/>
	<path fill="#636363" d="M407.945,209.976c-0.223-0.18-0.332-0.413-0.332-0.702c0-0.272,0.114-0.497,0.345-0.676
		c0.229-0.179,0.522-0.269,0.88-0.269h10.307c0.357,0,0.65,0.09,0.881,0.269c0.229,0.179,0.345,0.403,0.345,0.676
		c0,0.289-0.11,0.522-0.332,0.702c-0.221,0.178-0.519,0.268-0.894,0.268h-10.307C408.464,210.243,408.166,210.152,407.945,209.976z"
		/>
	<path fill="#636363" d="M423.609,206.645c-1.275-1.274-1.913-3.138-1.913-5.587v-9.209c0-0.493,0.145-0.889,0.434-1.188
		c0.289-0.297,0.68-0.445,1.174-0.445c0.493,0,0.884,0.148,1.173,0.445c0.289,0.299,0.436,0.693,0.436,1.188v9.388
		c0,1.548,0.365,2.718,1.097,3.509c0.732,0.791,1.804,1.187,3.215,1.187c1.395,0,2.457-0.399,3.188-1.199
		c0.73-0.8,1.097-1.964,1.097-3.495v-9.388c0-0.493,0.146-0.89,0.435-1.187s0.681-0.446,1.174-0.446s0.885,0.149,1.174,0.446
		s0.434,0.692,0.434,1.187v9.209c0,2.433-0.638,4.29-1.912,5.574c-1.275,1.284-3.14,1.927-5.588,1.927
		C426.756,208.56,424.885,207.921,423.609,206.645z"/>
	<path fill="#636363" d="M450.128,197.551c0.859,0.485,1.526,1.161,2.003,2.028c0.477,0.866,0.714,1.861,0.714,2.983
		c0,1.174-0.268,2.211-0.803,3.113c-0.536,0.901-1.293,1.604-2.271,2.104c-0.979,0.5-2.105,0.752-3.382,0.752
		c-1.055,0-2.088-0.176-3.1-0.522c-1.012-0.349-1.875-0.82-2.59-1.416c-0.392-0.341-0.586-0.74-0.586-1.199
		c0-0.373,0.104-0.692,0.317-0.957c0.213-0.263,0.463-0.396,0.753-0.396c0.171,0,0.331,0.029,0.484,0.09
		c0.153,0.06,0.332,0.156,0.536,0.294c0.68,0.477,1.343,0.842,1.989,1.097c0.646,0.255,1.335,0.383,2.065,0.383
		c1.123,0,1.981-0.279,2.577-0.843c0.595-0.562,0.894-1.358,0.894-2.397c0-1.002-0.303-1.799-0.905-2.385
		c-0.604-0.587-1.434-0.881-2.487-0.881c-0.663,0-1.255,0.094-1.773,0.281c-0.518,0.188-1.05,0.501-1.595,0.943
		c-0.323,0.223-0.653,0.332-0.994,0.332s-0.63-0.103-0.867-0.307c-0.238-0.203-0.356-0.476-0.356-0.816v-7.959
		c0-0.476,0.136-0.85,0.408-1.123c0.271-0.271,0.654-0.407,1.146-0.407h8.496c1.021,0,1.53,0.425,1.53,1.274
		c0,0.852-0.51,1.276-1.53,1.276h-6.838v4.847c0.868-0.611,1.932-0.918,3.189-0.918C448.278,196.823,449.27,197.065,450.128,197.551
		z"/>
	<path fill="#636363" d="M467.399,200.677c0.568,0.765,0.854,1.699,0.854,2.806c0,1.581-0.596,2.819-1.786,3.712
		c-1.189,0.893-2.84,1.34-4.949,1.34c-2.107,0-3.759-0.447-4.948-1.34c-1.19-0.893-1.786-2.131-1.786-3.712
		c0-1.104,0.289-2.045,0.868-2.819c0.577-0.772,1.395-1.295,2.448-1.568c-0.901-0.34-1.606-0.871-2.117-1.594
		c-0.511-0.724-0.766-1.569-0.766-2.539c0-1.497,0.562-2.68,1.685-3.547c1.122-0.866,2.66-1.301,4.616-1.301
		s3.495,0.435,4.618,1.301c1.122,0.869,1.685,2.051,1.685,3.547c0,0.986-0.256,1.846-0.767,2.576
		c-0.51,0.731-1.208,1.25-2.092,1.557C466.018,199.384,466.829,199.911,467.399,200.677z M465.167,203.227
		c0-1.819-1.216-2.729-3.648-2.729c-2.432,0-3.647,0.91-3.647,2.729s1.216,2.729,3.647,2.729
		C463.951,205.956,465.167,205.048,465.167,203.227z M458.33,195.292c0,0.869,0.268,1.527,0.804,1.978
		c0.535,0.451,1.33,0.676,2.385,0.676c1.056,0,1.851-0.225,2.387-0.676c0.534-0.45,0.804-1.108,0.804-1.978
		c0-1.734-1.062-2.602-3.189-2.602C459.394,192.69,458.33,193.558,458.33,195.292z"/>
	<path fill="#636363" d="M478.587,207.259c0,0.408-0.166,0.719-0.498,0.931c-0.331,0.212-0.804,0.302-1.416,0.269l-0.688-0.051
		c-2.857-0.205-4.286-1.736-4.286-4.594v-5.561h-1.275c-0.459,0-0.812-0.103-1.059-0.307c-0.247-0.203-0.37-0.501-0.37-0.893
		c0-0.391,0.124-0.688,0.37-0.893s0.6-0.307,1.059-0.307h1.275v-2.347c0-0.459,0.145-0.825,0.434-1.097
		c0.289-0.272,0.682-0.408,1.174-0.408c0.477,0,0.858,0.136,1.148,0.408c0.289,0.271,0.434,0.638,0.434,1.097v2.347h2.168
		c0.46,0,0.812,0.102,1.06,0.307c0.247,0.203,0.37,0.5,0.37,0.893c0,0.392-0.123,0.689-0.37,0.893
		c-0.246,0.204-0.6,0.307-1.06,0.307h-2.168v5.791c0,1.259,0.578,1.931,1.734,2.017l0.689,0.051
		C478.161,206.161,478.587,206.544,478.587,207.259z"/>
	<path fill="#636363" d="M480.69,208.087c-0.299-0.264-0.446-0.643-0.446-1.135v-15.231c0-0.493,0.147-0.867,0.446-1.122
		c0.298-0.255,0.677-0.383,1.136-0.383s0.842,0.127,1.146,0.383c0.308,0.255,0.46,0.629,0.46,1.122v15.231
		c0,0.492-0.152,0.871-0.46,1.135c-0.306,0.264-0.688,0.396-1.146,0.396S480.988,208.351,480.69,208.087z"/>
	<path fill="#636363" d="M494.734,195.88c0.255,0.221,0.383,0.553,0.383,0.994c0,0.459-0.111,0.8-0.332,1.021
		c-0.221,0.222-0.621,0.366-1.199,0.435l-0.765,0.076c-1.004,0.102-1.739,0.442-2.207,1.021c-0.468,0.579-0.701,1.302-0.701,2.169
		v5.357c0,0.492-0.153,0.871-0.46,1.135s-0.688,0.396-1.147,0.396s-0.838-0.132-1.136-0.396s-0.446-0.643-0.446-1.135v-9.873
		c0-0.477,0.148-0.843,0.446-1.098s0.668-0.383,1.11-0.383c0.44,0,0.799,0.124,1.07,0.37c0.271,0.247,0.408,0.6,0.408,1.059v1.021
		c0.322-0.748,0.804-1.327,1.441-1.735c0.637-0.408,1.348-0.638,2.13-0.689l0.357-0.024
		C494.131,195.564,494.479,195.659,494.734,195.88z"/>
	<path fill="#636363" d="M507.388,207.13c0,0.375-0.118,0.668-0.356,0.881s-0.596,0.318-1.071,0.318h-8.521
		c-0.427,0-0.774-0.136-1.047-0.408c-0.271-0.271-0.407-0.596-0.407-0.969c0-0.392,0.151-0.767,0.459-1.123l6.557-7.578h-5.688
		c-0.478,0-0.834-0.102-1.071-0.306c-0.238-0.204-0.357-0.501-0.357-0.893s0.119-0.688,0.357-0.894
		c0.237-0.205,0.595-0.306,1.071-0.306h8.239c0.442,0,0.795,0.132,1.06,0.396c0.264,0.264,0.396,0.59,0.396,0.981
		c0,0.408-0.145,0.783-0.434,1.123l-6.582,7.577h5.97C506.911,205.932,507.388,206.331,507.388,207.13z"/>
	<path fill="#636363" d="M520.706,196.007c0.289,0.271,0.434,0.638,0.434,1.097v9.897c0,0.442-0.148,0.801-0.445,1.072
		c-0.298,0.271-0.687,0.407-1.161,0.407c-0.459,0-0.825-0.128-1.098-0.382c-0.271-0.256-0.407-0.604-0.407-1.047v-0.639
		c-0.393,0.682-0.919,1.205-1.582,1.569c-0.663,0.365-1.412,0.55-2.245,0.55c-3.062,0-4.592-1.72-4.592-5.154v-6.275
		c0-0.459,0.144-0.825,0.434-1.098c0.289-0.271,0.672-0.407,1.147-0.407c0.492,0,0.885,0.136,1.174,0.407
		c0.289,0.272,0.434,0.639,0.434,1.098v6.301c0,0.885,0.179,1.54,0.536,1.965c0.357,0.426,0.918,0.639,1.684,0.639
		c0.885,0,1.596-0.293,2.131-0.881c0.535-0.586,0.804-1.364,0.804-2.334v-5.688c0-0.459,0.145-0.825,0.434-1.097
		c0.289-0.272,0.673-0.408,1.148-0.408C520.025,195.599,520.416,195.734,520.706,196.007z"/>
	<path fill="#636363" d="M524.558,209.911c-0.222,0.152-0.469,0.229-0.739,0.229c-0.342,0-0.644-0.115-0.905-0.347
		c-0.264-0.229-0.396-0.521-0.396-0.879c0-0.153,0.025-0.307,0.076-0.459l5.919-18.547c0.103-0.324,0.265-0.562,0.484-0.715
		c0.221-0.152,0.468-0.229,0.74-0.229c0.34,0,0.642,0.115,0.904,0.344c0.264,0.229,0.396,0.523,0.396,0.88
		c0,0.153-0.025,0.306-0.076,0.459l-5.919,18.546C524.939,209.52,524.778,209.759,524.558,209.911z"/>
</g>
<g>
	
		<image overflow="visible" opacity="0.25" width="318" height="110" xlink:href="B71E688C607E9CF1.png"  transform="matrix(1 0 0 1 241.5 256.8252)">
	</image>
	<g>
		<path fill="#22D5DA" d="M538.486,330.492c0,4.418-3.582,8-8,8H271.218c-4.418,0-8-3.582-8-8v-51.333c0-4.418,3.582-8,8-8h259.268
			c4.418,0,8,3.582,8,8V330.492z"/>
	</g>
</g>
<text transform="matrix(1 0 0 1 318.9116 316.5371)" fill="#FFFFFF" font-family="'Nunito-Bold'" font-size="36.1613">Download</text>
<path fill="#F2F2F2" d="M402.783,95.315c0,2.231-1.808,4.038-4.038,4.038H274.737c-2.23,0-4.038-1.807-4.038-4.038V84.463
	c0-2.23,1.808-4.038,4.038-4.038h124.008c2.23,0,4.038,1.808,4.038,4.038V95.315z"/>
<path fill="#F2F2F2" d="M517.254,120.315c0,2.23-1.809,4.037-4.039,4.037H357.174c-2.23,0-4.038-1.807-4.038-4.037v-10.853
	c0-2.23,1.808-4.038,4.038-4.038h156.041c2.23,0,4.039,1.808,4.039,4.038V120.315z"/>
<path fill="#F2F2F2" d="M345.675,120.315c0,2.23-1.808,4.037-4.038,4.037h-43.886c-2.23,0-4.038-1.807-4.038-4.037v-10.853
	c0-2.23,1.808-4.038,4.038-4.038h43.886c2.23,0,4.038,1.808,4.038,4.038V120.315z"/>
<path fill="#F2F2F2" d="M458.363,95.315c0,2.23-1.807,4.037-4.037,4.037h-41.589c-2.23,0-4.038-1.807-4.038-4.037V84.463
	c0-2.23,1.808-4.038,4.038-4.038h41.589c2.23,0,4.037,1.808,4.037,4.038V95.315z"/>
<path fill="#F2F2F2" d="M531.006,95.315c0,2.23-1.807,4.037-4.037,4.037h-58.076c-2.23,0-4.039-1.807-4.039-4.037V84.463
	c0-2.23,1.809-4.038,4.039-4.038h58.076c2.23,0,4.037,1.808,4.037,4.038V95.315z"/>
<polygon fill="#6BEDE9" points="633.326,64.939 168.622,64.939 175.901,49.993 640.605,49.993 "/>
<text transform="matrix(1 0 0 1 184.9844 57.4658)" fill="#636363" font-family="'Nunito-Bold'" font-size="33.5239">Download Instagram Videos</text>
</svg>
