<?xml version="1.0" encoding="utf-8"?>
<!-- Generator: Adobe Illustrator 16.0.0, SVG Export Plug-In . SVG Version: 6.00 Build 0)  -->
<!DOCTYPE svg PUBLIC "-//W3C//DTD SVG 1.1//EN" "http://www.w3.org/Graphics/SVG/1.1/DTD/svg11.dtd">
<svg version="1.1" id="Layer_1" xmlns="http://www.w3.org/2000/svg" xmlns:xlink="http://www.w3.org/1999/xlink" x="0px" y="0px"
	 width="838px" height="263.52px" viewBox="0 0 838 263.52" enable-background="new 0 0 838 263.52" xml:space="preserve">
<path fill="#F2F2F2" d="M838,221.25c0,4.971-4.029,9-9,9H9c-4.971,0-9-4.029-9-9v-42c0-4.971,4.029-9,9-9h820c4.971,0,9,4.029,9,9
	V221.25z"/>
<rect x="14.554" y="184.348" fill="#6BEDE9" width="523" height="34"/>
<g>
	<path fill="#636363" d="M32.953,202.203v6.275c0,0.477-0.141,0.852-0.421,1.123c-0.281,0.271-0.668,0.406-1.161,0.406
		c-0.493,0-0.884-0.135-1.173-0.406c-0.29-0.271-0.434-0.646-0.434-1.123v-6.275c0-0.902-0.183-1.561-0.549-1.979
		c-0.366-0.416-0.94-0.625-1.722-0.625c-0.918,0-1.654,0.291-2.207,0.869c-0.553,0.578-0.829,1.352-0.829,2.32v5.689
		c0,0.477-0.145,0.852-0.434,1.123c-0.29,0.271-0.681,0.406-1.173,0.406c-0.494,0-0.88-0.135-1.161-0.406
		c-0.281-0.271-0.421-0.646-0.421-1.123v-15.256c0-0.443,0.149-0.799,0.446-1.072c0.297-0.271,0.685-0.406,1.161-0.406
		s0.858,0.127,1.148,0.383c0.289,0.254,0.434,0.604,0.434,1.045v5.943c0.425-0.662,0.991-1.168,1.697-1.518
		c0.706-0.348,1.509-0.521,2.411-0.521C31.49,197.074,32.953,198.783,32.953,202.203z"/>
	<path fill="#636363" d="M43.949,208.785c0,0.408-0.166,0.719-0.498,0.932c-0.332,0.211-0.804,0.301-1.416,0.268l-0.689-0.051
		c-2.857-0.205-4.286-1.736-4.286-4.594v-5.561h-1.276c-0.459,0-0.812-0.102-1.059-0.307c-0.247-0.203-0.37-0.5-0.37-0.893
		c0-0.391,0.124-0.688,0.37-0.893s0.6-0.307,1.059-0.307h1.276v-2.346c0-0.459,0.144-0.826,0.434-1.098
		c0.289-0.271,0.68-0.408,1.173-0.408c0.476,0,0.859,0.137,1.148,0.408s0.434,0.639,0.434,1.098v2.346h2.168
		c0.459,0,0.812,0.102,1.059,0.307c0.247,0.203,0.37,0.5,0.37,0.893s-0.124,0.689-0.37,0.893c-0.246,0.205-0.6,0.307-1.059,0.307
		H40.25v5.791c0,1.26,0.578,1.932,1.734,2.018l0.689,0.051C43.523,207.688,43.949,208.07,43.949,208.785z"/>
	<path fill="#636363" d="M53.184,208.785c0,0.408-0.166,0.719-0.498,0.932c-0.332,0.211-0.804,0.301-1.416,0.268l-0.689-0.051
		c-2.857-0.205-4.286-1.736-4.286-4.594v-5.561H45.02c-0.459,0-0.812-0.102-1.059-0.307c-0.247-0.203-0.37-0.5-0.37-0.893
		c0-0.391,0.124-0.688,0.37-0.893s0.6-0.307,1.059-0.307h1.276v-2.346c0-0.459,0.144-0.826,0.434-1.098
		c0.289-0.271,0.68-0.408,1.173-0.408c0.476,0,0.859,0.137,1.148,0.408c0.289,0.271,0.434,0.639,0.434,1.098v2.346h2.168
		c0.459,0,0.812,0.102,1.059,0.307c0.247,0.203,0.37,0.5,0.37,0.893s-0.124,0.689-0.37,0.893c-0.246,0.205-0.6,0.307-1.059,0.307
		h-2.168v5.791c0,1.26,0.578,1.932,1.734,2.018l0.689,0.051C52.759,207.688,53.184,208.07,53.184,208.785z"/>
	<path fill="#636363" d="M64.88,197.891c0.842,0.545,1.496,1.314,1.964,2.311c0.468,0.994,0.702,2.139,0.702,3.43
		c0,1.293-0.234,2.424-0.702,3.393c-0.468,0.973-1.119,1.721-1.952,2.246c-0.833,0.527-1.794,0.791-2.883,0.791
		c-0.885,0-1.675-0.188-2.373-0.561c-0.698-0.375-1.233-0.895-1.607-1.559v5.205c0,0.441-0.145,0.791-0.434,1.047
		c-0.29,0.254-0.672,0.383-1.148,0.383c-0.477,0-0.864-0.137-1.161-0.408c-0.297-0.273-0.446-0.629-0.446-1.072v-14.465
		c0-0.459,0.14-0.824,0.421-1.096c0.281-0.273,0.659-0.408,1.135-0.408s0.859,0.135,1.148,0.408
		c0.289,0.271,0.434,0.637,0.434,1.096v0.639c0.374-0.697,0.914-1.238,1.62-1.621c0.706-0.381,1.509-0.574,2.411-0.574
		C63.082,197.074,64.039,197.346,64.88,197.891z M63.516,206.553c0.561-0.689,0.842-1.662,0.842-2.922
		c0-1.293-0.281-2.297-0.842-3.01c-0.562-0.715-1.344-1.072-2.347-1.072c-1.021,0-1.808,0.35-2.36,1.047
		c-0.553,0.697-0.829,1.691-0.829,2.984c0,1.275,0.276,2.262,0.829,2.959c0.552,0.697,1.339,1.047,2.36,1.047
		C62.172,207.586,62.954,207.24,63.516,206.553z"/>
	<path fill="#636363" d="M70.199,208.963c-0.544-0.322-0.816-0.781-0.816-1.377c0-0.34,0.093-0.617,0.281-0.83
		c0.187-0.213,0.417-0.318,0.689-0.318c0.289,0,0.689,0.137,1.199,0.408c0.544,0.254,1.042,0.451,1.492,0.586
		c0.451,0.137,1.024,0.205,1.722,0.205c0.714,0,1.271-0.119,1.671-0.357c0.399-0.238,0.6-0.57,0.6-0.994
		c0-0.289-0.081-0.52-0.242-0.689c-0.162-0.17-0.451-0.328-0.868-0.473s-1.05-0.311-1.9-0.496c-1.514-0.307-2.599-0.74-3.253-1.303
		c-0.655-0.561-0.982-1.334-0.982-2.32c0-0.748,0.221-1.424,0.664-2.029c0.442-0.604,1.05-1.07,1.824-1.402
		c0.773-0.332,1.654-0.496,2.64-0.496c0.714,0,1.403,0.088,2.066,0.268c0.664,0.178,1.259,0.438,1.786,0.777
		c0.544,0.34,0.816,0.791,0.816,1.352c0,0.34-0.094,0.625-0.281,0.855c-0.188,0.229-0.417,0.344-0.689,0.344
		c-0.187,0-0.37-0.039-0.548-0.115c-0.179-0.076-0.404-0.189-0.676-0.344c-0.493-0.256-0.918-0.447-1.275-0.574
		c-0.357-0.129-0.8-0.191-1.327-0.191c-0.629,0-1.127,0.127-1.492,0.383c-0.366,0.254-0.549,0.604-0.549,1.045
		c0,0.426,0.187,0.75,0.562,0.971c0.374,0.221,1.097,0.441,2.168,0.662c1.139,0.238,2.032,0.51,2.679,0.816
		c0.646,0.307,1.11,0.688,1.39,1.146c0.281,0.459,0.421,1.047,0.421,1.762c0,1.156-0.48,2.082-1.441,2.779
		c-0.961,0.697-2.241,1.047-3.839,1.047C72.835,210.061,71.339,209.693,70.199,208.963z"/>
	<path fill="#636363" d="M82.7,200.379c-0.357-0.367-0.536-0.82-0.536-1.365s0.179-0.996,0.536-1.354
		c0.357-0.357,0.808-0.535,1.352-0.535c0.545,0,0.995,0.178,1.353,0.535c0.357,0.357,0.536,0.809,0.536,1.354
		s-0.179,0.998-0.536,1.365c-0.357,0.365-0.808,0.547-1.353,0.547C83.508,200.926,83.058,200.744,82.7,200.379z M82.7,209.461
		c-0.357-0.365-0.536-0.82-0.536-1.365c0-0.543,0.179-0.998,0.536-1.365c0.357-0.365,0.808-0.549,1.352-0.549
		c0.545,0,0.995,0.184,1.353,0.549c0.357,0.367,0.536,0.822,0.536,1.365c0,0.545-0.179,1-0.536,1.365
		c-0.357,0.365-0.808,0.549-1.353,0.549C83.508,210.008,83.058,209.826,82.7,209.461z"/>
	<path fill="#636363" d="M90.328,211.438c-0.222,0.152-0.469,0.23-0.74,0.23c-0.341,0-0.643-0.115-0.905-0.348
		c-0.264-0.229-0.396-0.521-0.396-0.879c0-0.152,0.025-0.307,0.076-0.459l5.919-18.547c0.102-0.324,0.264-0.562,0.484-0.715
		c0.221-0.152,0.468-0.229,0.74-0.229c0.34,0,0.642,0.115,0.905,0.344c0.263,0.229,0.396,0.523,0.396,0.881
		c0,0.152-0.025,0.305-0.076,0.459l-5.919,18.545C90.71,211.047,90.549,211.285,90.328,211.438z"/>
	<path fill="#636363" d="M97.114,211.438c-0.222,0.152-0.469,0.23-0.74,0.23c-0.341,0-0.643-0.115-0.905-0.348
		c-0.264-0.229-0.396-0.521-0.396-0.879c0-0.152,0.025-0.307,0.076-0.459l5.919-18.547c0.102-0.324,0.264-0.562,0.484-0.715
		c0.221-0.152,0.468-0.229,0.74-0.229c0.34,0,0.642,0.115,0.905,0.344c0.263,0.229,0.396,0.523,0.396,0.881
		c0,0.152-0.025,0.305-0.076,0.459l-5.919,18.545C97.496,211.047,97.335,211.285,97.114,211.438z"/>
	<path fill="#636363" d="M121.617,197.381c0.229-0.154,0.48-0.23,0.752-0.23c0.392,0,0.744,0.131,1.059,0.396
		c0.315,0.264,0.473,0.59,0.473,0.98c0,0.223-0.043,0.418-0.128,0.588l-4.209,9.873c-0.137,0.324-0.345,0.57-0.625,0.74
		c-0.281,0.17-0.592,0.254-0.932,0.254c-0.323,0-0.625-0.084-0.905-0.254c-0.281-0.17-0.489-0.416-0.625-0.74l-3.036-7.297
		l-2.934,7.297c-0.137,0.324-0.345,0.57-0.625,0.74c-0.281,0.17-0.592,0.254-0.932,0.254c-0.323,0-0.63-0.084-0.918-0.254
		c-0.29-0.17-0.502-0.416-0.639-0.74l-4.184-9.873c-0.085-0.221-0.128-0.408-0.128-0.562c0-0.391,0.17-0.727,0.511-1.008
		c0.34-0.279,0.714-0.42,1.122-0.42c0.289,0,0.553,0.076,0.791,0.229c0.238,0.152,0.417,0.383,0.536,0.689l3.011,7.779l3.087-7.703
		c0.136-0.324,0.331-0.566,0.586-0.729c0.256-0.162,0.536-0.242,0.842-0.242c0.307,0,0.587,0.08,0.843,0.242
		c0.255,0.162,0.45,0.404,0.586,0.729l3.113,7.729l2.984-7.781C121.213,197.764,121.388,197.533,121.617,197.381z"/>
	<path fill="#636363" d="M143.455,197.381c0.229-0.154,0.48-0.23,0.752-0.23c0.392,0,0.744,0.131,1.059,0.396
		c0.315,0.264,0.473,0.59,0.473,0.98c0,0.223-0.043,0.418-0.128,0.588l-4.209,9.873c-0.137,0.324-0.345,0.57-0.625,0.74
		c-0.281,0.17-0.592,0.254-0.932,0.254c-0.323,0-0.625-0.084-0.905-0.254c-0.281-0.17-0.489-0.416-0.625-0.74l-3.036-7.297
		l-2.934,7.297c-0.137,0.324-0.345,0.57-0.625,0.74c-0.281,0.17-0.592,0.254-0.932,0.254c-0.323,0-0.63-0.084-0.918-0.254
		c-0.29-0.17-0.502-0.416-0.639-0.74l-4.184-9.873c-0.085-0.221-0.128-0.408-0.128-0.562c0-0.391,0.17-0.727,0.511-1.008
		c0.34-0.279,0.714-0.42,1.122-0.42c0.289,0,0.553,0.076,0.791,0.229c0.238,0.152,0.417,0.383,0.536,0.689l3.011,7.779l3.087-7.703
		c0.136-0.324,0.331-0.566,0.586-0.729c0.256-0.162,0.536-0.242,0.842-0.242c0.307,0,0.587,0.08,0.843,0.242
		c0.255,0.162,0.45,0.404,0.586,0.729l3.113,7.729l2.984-7.781C143.051,197.764,143.226,197.533,143.455,197.381z"/>
	<path fill="#636363" d="M165.293,197.381c0.229-0.154,0.48-0.23,0.752-0.23c0.392,0,0.744,0.131,1.059,0.396
		c0.315,0.264,0.473,0.59,0.473,0.98c0,0.223-0.043,0.418-0.128,0.588l-4.209,9.873c-0.137,0.324-0.345,0.57-0.625,0.74
		c-0.281,0.17-0.592,0.254-0.932,0.254c-0.323,0-0.625-0.084-0.905-0.254c-0.281-0.17-0.489-0.416-0.625-0.74l-3.036-7.297
		l-2.934,7.297c-0.137,0.324-0.345,0.57-0.625,0.74c-0.281,0.17-0.592,0.254-0.932,0.254c-0.323,0-0.63-0.084-0.918-0.254
		c-0.29-0.17-0.502-0.416-0.639-0.74l-4.184-9.873c-0.085-0.221-0.128-0.408-0.128-0.562c0-0.391,0.17-0.727,0.511-1.008
		c0.34-0.279,0.714-0.42,1.122-0.42c0.289,0,0.553,0.076,0.791,0.229c0.238,0.152,0.417,0.383,0.536,0.689l3.011,7.779l3.087-7.703
		c0.136-0.324,0.331-0.566,0.586-0.729c0.256-0.162,0.536-0.242,0.842-0.242c0.307,0,0.587,0.08,0.843,0.242
		c0.255,0.162,0.45,0.404,0.586,0.729l3.113,7.729l2.984-7.781C164.889,197.764,165.063,197.533,165.293,197.381z"/>
	<path fill="#636363" d="M168.929,209.461c-0.357-0.365-0.536-0.82-0.536-1.365c0-0.543,0.179-0.998,0.536-1.365
		c0.357-0.365,0.808-0.549,1.352-0.549c0.545,0,0.995,0.184,1.353,0.549c0.357,0.367,0.536,0.822,0.536,1.365
		c0,0.545-0.179,1-0.536,1.365c-0.357,0.365-0.808,0.549-1.353,0.549C169.736,210.008,169.286,209.826,168.929,209.461z"/>
	<path fill="#636363" d="M175.306,194.383c-0.341-0.314-0.51-0.729-0.51-1.238s0.169-0.918,0.51-1.223
		c0.34-0.307,0.799-0.459,1.378-0.459c0.561,0,1.016,0.152,1.364,0.459c0.348,0.305,0.523,0.713,0.523,1.223
		s-0.17,0.924-0.511,1.238c-0.34,0.314-0.799,0.471-1.377,0.471C176.104,194.855,175.646,194.697,175.306,194.383z M175.548,209.613
		c-0.298-0.264-0.446-0.643-0.446-1.135v-9.848c0-0.494,0.148-0.869,0.446-1.123c0.298-0.256,0.677-0.383,1.136-0.383
		s0.842,0.127,1.147,0.383c0.307,0.254,0.46,0.629,0.46,1.123v9.848c0,0.492-0.153,0.871-0.46,1.135
		c-0.306,0.264-0.688,0.396-1.147,0.396S175.846,209.877,175.548,209.613z"/>
	<path fill="#636363" d="M192.169,198.35c0.73,0.852,1.097,2.135,1.097,3.854v6.275c0,0.477-0.141,0.852-0.421,1.123
		c-0.281,0.271-0.668,0.406-1.161,0.406c-0.493,0-0.885-0.135-1.174-0.406c-0.289-0.271-0.434-0.646-0.434-1.123v-6.098
		c0-0.969-0.183-1.676-0.548-2.117c-0.366-0.443-0.94-0.664-1.723-0.664c-0.918,0-1.654,0.289-2.206,0.867
		c-0.554,0.578-0.829,1.354-0.829,2.322v5.688c0,0.479-0.146,0.852-0.435,1.123s-0.68,0.408-1.173,0.408
		c-0.494,0-0.881-0.137-1.161-0.408c-0.28-0.271-0.421-0.645-0.421-1.123v-9.873c0-0.441,0.145-0.799,0.434-1.072
		c0.289-0.271,0.681-0.406,1.174-0.406c0.442,0,0.804,0.131,1.084,0.395c0.281,0.264,0.421,0.609,0.421,1.033v0.689
		c0.425-0.697,0.995-1.232,1.71-1.607c0.714-0.373,1.521-0.561,2.423-0.561C190.323,197.074,191.438,197.5,192.169,198.35z"/>
	<path fill="#636363" d="M196.531,208.963c-0.544-0.322-0.816-0.781-0.816-1.377c0-0.34,0.094-0.617,0.281-0.83
		s0.416-0.318,0.688-0.318c0.289,0,0.688,0.137,1.199,0.408c0.544,0.254,1.041,0.451,1.492,0.586
		c0.45,0.137,1.024,0.205,1.722,0.205c0.715,0,1.271-0.119,1.672-0.357c0.399-0.238,0.599-0.57,0.599-0.994
		c0-0.289-0.08-0.52-0.242-0.689c-0.161-0.17-0.45-0.328-0.867-0.473s-1.051-0.311-1.9-0.496c-1.514-0.307-2.599-0.74-3.253-1.303
		c-0.655-0.561-0.982-1.334-0.982-2.32c0-0.748,0.221-1.424,0.663-2.029c0.442-0.604,1.051-1.07,1.824-1.402
		c0.774-0.332,1.654-0.496,2.641-0.496c0.715,0,1.403,0.088,2.066,0.268c0.663,0.178,1.259,0.438,1.786,0.777
		c0.544,0.34,0.816,0.791,0.816,1.352c0,0.34-0.094,0.625-0.281,0.855c-0.187,0.229-0.416,0.344-0.688,0.344
		c-0.188,0-0.37-0.039-0.549-0.115c-0.178-0.076-0.403-0.189-0.676-0.344c-0.493-0.256-0.918-0.447-1.275-0.574
		c-0.357-0.129-0.8-0.191-1.326-0.191c-0.63,0-1.127,0.127-1.493,0.383c-0.365,0.254-0.548,0.604-0.548,1.045
		c0,0.426,0.187,0.75,0.561,0.971s1.098,0.441,2.169,0.662c1.139,0.238,2.032,0.51,2.679,0.816c0.646,0.307,1.109,0.688,1.391,1.146
		c0.28,0.459,0.421,1.047,0.421,1.762c0,1.156-0.481,2.082-1.441,2.779c-0.961,0.697-2.241,1.047-3.84,1.047
		C199.168,210.061,197.671,209.693,196.531,208.963z"/>
	<path fill="#636363" d="M216.507,208.785c0,0.408-0.166,0.719-0.498,0.932c-0.331,0.211-0.804,0.301-1.416,0.268l-0.688-0.051
		c-2.857-0.205-4.286-1.736-4.286-4.594v-5.561h-1.275c-0.459,0-0.812-0.102-1.059-0.307c-0.247-0.203-0.37-0.5-0.37-0.893
		c0-0.391,0.124-0.688,0.37-0.893s0.6-0.307,1.059-0.307h1.275v-2.346c0-0.459,0.145-0.826,0.434-1.098
		c0.289-0.271,0.681-0.408,1.174-0.408c0.476,0,0.858,0.137,1.148,0.408c0.289,0.271,0.434,0.639,0.434,1.098v2.346h2.168
		c0.46,0,0.812,0.102,1.059,0.307c0.247,0.203,0.37,0.5,0.37,0.893s-0.123,0.689-0.37,0.893c-0.246,0.205-0.599,0.307-1.059,0.307
		h-2.168v5.791c0,1.26,0.578,1.932,1.734,2.018l0.689,0.051C216.081,207.688,216.507,208.07,216.507,208.785z"/>
	<path fill="#636363" d="M227.438,198.361c0.842,0.859,1.263,2.166,1.263,3.918v6.225c0,0.459-0.136,0.82-0.408,1.084
		c-0.271,0.264-0.646,0.396-1.122,0.396c-0.442,0-0.804-0.137-1.084-0.408c-0.281-0.271-0.421-0.629-0.421-1.07v-0.562
		c-0.29,0.662-0.745,1.184-1.365,1.557c-0.621,0.375-1.34,0.562-2.156,0.562c-0.833,0-1.59-0.172-2.271-0.512
		c-0.68-0.34-1.216-0.807-1.606-1.402c-0.392-0.596-0.587-1.258-0.587-1.99c0-0.918,0.233-1.641,0.701-2.168
		c0.468-0.527,1.229-0.91,2.283-1.148c1.054-0.238,2.509-0.357,4.362-0.357h0.639v-0.586c0-0.832-0.179-1.439-0.536-1.822
		c-0.357-0.385-0.936-0.574-1.734-0.574c-0.494,0-0.995,0.072-1.506,0.217c-0.51,0.145-1.114,0.354-1.812,0.625
		c-0.442,0.221-0.765,0.332-0.969,0.332c-0.307,0-0.558-0.111-0.753-0.332s-0.293-0.51-0.293-0.867c0-0.289,0.071-0.541,0.217-0.752
		c0.144-0.213,0.387-0.412,0.727-0.6c0.596-0.324,1.306-0.578,2.131-0.768c0.824-0.186,1.637-0.279,2.436-0.279
		C225.309,197.074,226.597,197.504,227.438,198.361z M224.862,206.91c0.535-0.57,0.804-1.307,0.804-2.207v-0.535h-0.46
		c-1.14,0-2.023,0.051-2.653,0.152c-0.629,0.102-1.08,0.279-1.352,0.535s-0.408,0.604-0.408,1.047c0,0.543,0.191,0.99,0.574,1.34
		c0.383,0.348,0.854,0.521,1.416,0.521C223.633,207.764,224.326,207.479,224.862,206.91z"/>
	<path fill="#636363" d="M243.651,197.533c0.289,0.271,0.434,0.639,0.434,1.098v10.076c0,1.957-0.544,3.436-1.633,4.438
		c-1.089,1.004-2.695,1.506-4.821,1.506c-1.854,0-3.402-0.35-4.644-1.047c-0.629-0.373-0.943-0.824-0.943-1.352
		c0-0.373,0.089-0.672,0.268-0.893s0.412-0.332,0.701-0.332c0.153,0,0.34,0.039,0.562,0.115c0.221,0.076,0.45,0.166,0.688,0.268
		c0.612,0.256,1.161,0.451,1.646,0.588c0.485,0.135,1.042,0.203,1.671,0.203c2.229,0,3.343-1.09,3.343-3.266v-1.633
		c-0.375,0.697-0.919,1.236-1.633,1.619c-0.715,0.383-1.531,0.574-2.449,0.574c-1.089,0-2.054-0.26-2.896-0.777
		c-0.842-0.52-1.501-1.246-1.978-2.182c-0.477-0.936-0.714-2.018-0.714-3.24c0-1.225,0.233-2.309,0.701-3.252
		c0.468-0.945,1.127-1.676,1.978-2.195c0.85-0.518,1.819-0.777,2.908-0.777c0.918,0,1.734,0.191,2.449,0.574
		c0.714,0.383,1.258,0.922,1.633,1.619v-0.662c0-0.441,0.145-0.799,0.434-1.072c0.289-0.271,0.672-0.408,1.147-0.408
		C242.979,197.125,243.362,197.262,243.651,197.533z M240.067,206.029c0.569-0.664,0.854-1.572,0.854-2.73
		c0-1.172-0.285-2.09-0.854-2.754c-0.57-0.664-1.365-0.996-2.386-0.996c-1.004,0-1.795,0.332-2.373,0.996
		c-0.578,0.664-0.867,1.582-0.867,2.754c0,1.158,0.289,2.066,0.867,2.73c0.578,0.662,1.369,0.994,2.373,0.994
		C238.702,207.023,239.497,206.691,240.067,206.029z"/>
	<path fill="#636363" d="M255.386,197.406c0.255,0.221,0.383,0.553,0.383,0.994c0,0.459-0.111,0.801-0.332,1.021
		s-0.621,0.365-1.199,0.434l-0.765,0.076c-1.004,0.102-1.739,0.443-2.207,1.021c-0.468,0.578-0.701,1.301-0.701,2.168v5.357
		c0,0.492-0.153,0.871-0.46,1.135c-0.306,0.264-0.688,0.396-1.147,0.396s-0.838-0.133-1.136-0.396
		c-0.298-0.264-0.446-0.643-0.446-1.135v-9.873c0-0.477,0.148-0.842,0.446-1.098c0.298-0.254,0.668-0.383,1.11-0.383
		c0.441,0,0.799,0.125,1.071,0.371c0.271,0.246,0.408,0.6,0.408,1.059v1.021c0.322-0.748,0.804-1.328,1.441-1.736
		c0.637-0.408,1.348-0.637,2.13-0.689l0.357-0.023C254.782,197.092,255.131,197.186,255.386,197.406z"/>
	<path fill="#636363" d="M266.369,198.361c0.842,0.859,1.263,2.166,1.263,3.918v6.225c0,0.459-0.136,0.82-0.408,1.084
		c-0.271,0.264-0.646,0.396-1.122,0.396c-0.442,0-0.804-0.137-1.084-0.408c-0.281-0.271-0.421-0.629-0.421-1.07v-0.562
		c-0.29,0.662-0.745,1.184-1.365,1.557c-0.621,0.375-1.34,0.562-2.156,0.562c-0.833,0-1.59-0.172-2.271-0.512
		c-0.68-0.34-1.216-0.807-1.606-1.402c-0.392-0.596-0.587-1.258-0.587-1.99c0-0.918,0.233-1.641,0.701-2.168s1.229-0.91,2.283-1.148
		c1.054-0.238,2.509-0.357,4.362-0.357h0.639v-0.586c0-0.832-0.179-1.439-0.536-1.822c-0.357-0.385-0.936-0.574-1.734-0.574
		c-0.494,0-0.995,0.072-1.506,0.217c-0.51,0.145-1.114,0.354-1.812,0.625c-0.442,0.221-0.765,0.332-0.969,0.332
		c-0.307,0-0.558-0.111-0.753-0.332c-0.195-0.221-0.293-0.51-0.293-0.867c0-0.289,0.071-0.541,0.217-0.752
		c0.144-0.213,0.387-0.412,0.727-0.6c0.596-0.324,1.306-0.578,2.131-0.768c0.824-0.186,1.637-0.279,2.436-0.279
		C264.239,197.074,265.527,197.504,266.369,198.361z M263.793,206.91c0.535-0.57,0.804-1.307,0.804-2.207v-0.535h-0.46
		c-1.14,0-2.023,0.051-2.653,0.152c-0.629,0.102-1.08,0.279-1.352,0.535s-0.408,0.604-0.408,1.047c0,0.543,0.191,0.99,0.574,1.34
		c0.383,0.348,0.854,0.521,1.416,0.521C262.563,207.764,263.257,207.479,263.793,206.91z"/>
	<path fill="#636363" d="M288.819,198.287c0.723,0.807,1.085,2.113,1.085,3.916v6.275c0,0.492-0.149,0.871-0.447,1.135
		c-0.297,0.264-0.685,0.396-1.16,0.396c-0.459,0-0.838-0.133-1.136-0.396s-0.446-0.643-0.446-1.135v-6.275
		c0-0.936-0.166-1.604-0.497-2.002c-0.332-0.4-0.838-0.602-1.519-0.602c-0.833,0-1.496,0.285-1.989,0.855
		c-0.494,0.57-0.74,1.348-0.74,2.334v5.689c0,0.492-0.149,0.871-0.446,1.135c-0.298,0.264-0.676,0.396-1.136,0.396
		c-0.459,0-0.842-0.133-1.147-0.396c-0.307-0.264-0.459-0.643-0.459-1.135v-6.275c0-0.936-0.166-1.604-0.498-2.004
		c-0.331-0.398-0.838-0.6-1.518-0.6c-0.834,0-1.493,0.285-1.978,0.855c-0.485,0.57-0.727,1.348-0.727,2.334v5.689
		c0,0.492-0.153,0.871-0.46,1.135c-0.306,0.264-0.688,0.396-1.147,0.396s-0.838-0.133-1.136-0.396
		c-0.298-0.264-0.446-0.643-0.446-1.135v-9.873c0-0.477,0.153-0.842,0.459-1.098c0.307-0.254,0.689-0.383,1.148-0.383
		c0.442,0,0.804,0.125,1.084,0.371c0.281,0.246,0.421,0.6,0.421,1.059v0.611c0.392-0.68,0.914-1.199,1.569-1.557
		c0.654-0.355,1.407-0.535,2.258-0.535c1.87,0,3.121,0.781,3.75,2.348c0.374-0.715,0.927-1.285,1.658-1.709
		c0.731-0.426,1.557-0.639,2.475-0.639C287.055,197.074,288.097,197.479,288.819,198.287z"/>
	<path fill="#636363" d="M293.296,209.461c-0.357-0.365-0.536-0.82-0.536-1.365c0-0.543,0.179-0.998,0.536-1.365
		c0.357-0.365,0.808-0.549,1.352-0.549c0.545,0,0.995,0.184,1.353,0.549c0.357,0.367,0.536,0.822,0.536,1.365
		c0,0.545-0.179,1-0.536,1.365s-0.808,0.549-1.353,0.549C294.104,210.008,293.653,209.826,293.296,209.461z"/>
	<path fill="#636363" d="M301.396,209.27c-0.944-0.527-1.671-1.275-2.182-2.246c-0.51-0.969-0.765-2.1-0.765-3.393
		s0.268-2.438,0.804-3.432c0.535-0.994,1.288-1.764,2.258-2.309c0.969-0.545,2.083-0.816,3.342-0.816
		c0.663,0,1.33,0.094,2.003,0.279c0.671,0.189,1.263,0.443,1.772,0.768c0.544,0.355,0.816,0.807,0.816,1.352
		c0,0.375-0.089,0.676-0.268,0.906c-0.179,0.229-0.413,0.344-0.702,0.344c-0.187,0-0.382-0.043-0.586-0.127
		c-0.204-0.086-0.408-0.188-0.612-0.307c-0.375-0.221-0.731-0.396-1.072-0.523c-0.34-0.127-0.731-0.189-1.173-0.189
		c-1.055,0-1.867,0.344-2.437,1.031c-0.57,0.689-0.854,1.68-0.854,2.973c0,1.275,0.284,2.258,0.854,2.947
		c0.569,0.688,1.382,1.033,2.437,1.033c0.425,0,0.804-0.064,1.135-0.191c0.332-0.127,0.702-0.303,1.11-0.523
		c0.255-0.152,0.476-0.268,0.663-0.344s0.374-0.115,0.562-0.115c0.271,0,0.501,0.119,0.688,0.357s0.28,0.535,0.28,0.893
		c0,0.289-0.063,0.541-0.191,0.752c-0.127,0.213-0.336,0.404-0.625,0.574c-0.527,0.342-1.14,0.607-1.837,0.805
		c-0.697,0.195-1.411,0.293-2.143,0.293C303.433,210.061,302.341,209.797,301.396,209.27z"/>
	<path fill="#636363" d="M313.922,209.27c-0.961-0.527-1.705-1.285-2.231-2.271c-0.527-0.986-0.791-2.135-0.791-3.443
		s0.264-2.453,0.791-3.432c0.526-0.979,1.271-1.73,2.231-2.258c0.961-0.527,2.08-0.791,3.355-0.791c1.275,0,2.394,0.264,3.354,0.791
		c0.961,0.527,1.7,1.279,2.22,2.258c0.519,0.979,0.778,2.123,0.778,3.432c0,1.311-0.26,2.457-0.778,3.443
		c-0.52,0.986-1.259,1.744-2.22,2.271s-2.079,0.791-3.354,0.791S314.883,209.797,313.922,209.27z M319.624,206.564
		c0.544-0.68,0.816-1.684,0.816-3.01c0-1.311-0.272-2.309-0.816-2.998s-1.326-1.035-2.347-1.035s-1.808,0.346-2.36,1.035
		c-0.553,0.688-0.829,1.688-0.829,2.998c0,1.326,0.272,2.33,0.816,3.01c0.544,0.682,1.327,1.021,2.348,1.021
		C318.289,207.586,319.08,207.246,319.624,206.564z"/>
	<path fill="#636363" d="M344.204,198.287c0.723,0.807,1.085,2.113,1.085,3.916v6.275c0,0.492-0.149,0.871-0.447,1.135
		c-0.297,0.264-0.685,0.396-1.16,0.396c-0.459,0-0.838-0.133-1.136-0.396s-0.446-0.643-0.446-1.135v-6.275
		c0-0.936-0.166-1.604-0.497-2.002c-0.332-0.4-0.838-0.602-1.519-0.602c-0.833,0-1.496,0.285-1.989,0.855
		c-0.494,0.57-0.74,1.348-0.74,2.334v5.689c0,0.492-0.149,0.871-0.446,1.135c-0.298,0.264-0.676,0.396-1.136,0.396
		c-0.459,0-0.842-0.133-1.147-0.396c-0.307-0.264-0.459-0.643-0.459-1.135v-6.275c0-0.936-0.166-1.604-0.498-2.004
		c-0.331-0.398-0.838-0.6-1.518-0.6c-0.834,0-1.493,0.285-1.978,0.855c-0.485,0.57-0.727,1.348-0.727,2.334v5.689
		c0,0.492-0.153,0.871-0.46,1.135c-0.306,0.264-0.688,0.396-1.147,0.396s-0.838-0.133-1.136-0.396s-0.446-0.643-0.446-1.135v-9.873
		c0-0.477,0.153-0.842,0.459-1.098c0.307-0.254,0.689-0.383,1.148-0.383c0.442,0,0.804,0.125,1.084,0.371
		c0.281,0.246,0.421,0.6,0.421,1.059v0.611c0.392-0.68,0.914-1.199,1.569-1.557c0.654-0.355,1.407-0.535,2.258-0.535
		c1.87,0,3.121,0.781,3.75,2.348c0.374-0.715,0.927-1.285,1.658-1.709c0.731-0.426,1.557-0.639,2.475-0.639
		C342.439,197.074,343.481,197.479,344.204,198.287z"/>
	<path fill="#636363" d="M348.631,211.438c-0.222,0.152-0.469,0.23-0.74,0.23c-0.341,0-0.643-0.115-0.905-0.348
		c-0.264-0.229-0.396-0.521-0.396-0.879c0-0.152,0.025-0.307,0.076-0.459l5.919-18.547c0.102-0.324,0.264-0.562,0.484-0.715
		c0.221-0.152,0.468-0.229,0.74-0.229c0.34,0,0.642,0.115,0.905,0.344c0.263,0.229,0.396,0.523,0.396,0.881
		c0,0.152-0.025,0.305-0.076,0.459l-5.919,18.545C349.013,211.047,348.852,211.285,348.631,211.438z"/>
	<path fill="#636363" d="M365.021,197.891c0.842,0.545,1.496,1.314,1.964,2.311c0.468,0.994,0.702,2.139,0.702,3.43
		c0,1.293-0.234,2.424-0.702,3.393c-0.468,0.973-1.118,1.721-1.951,2.246c-0.834,0.527-1.795,0.791-2.883,0.791
		c-0.885,0-1.676-0.188-2.373-0.561c-0.697-0.375-1.233-0.895-1.606-1.559v5.205c0,0.441-0.146,0.791-0.435,1.047
		c-0.289,0.254-0.672,0.383-1.147,0.383c-0.477,0-0.863-0.137-1.161-0.408c-0.298-0.273-0.446-0.629-0.446-1.072v-14.465
		c0-0.459,0.141-0.824,0.421-1.096c0.28-0.273,0.659-0.408,1.136-0.408c0.476,0,0.858,0.135,1.147,0.408
		c0.289,0.271,0.434,0.637,0.434,1.096v0.639c0.374-0.697,0.914-1.238,1.62-1.621c0.706-0.381,1.51-0.574,2.411-0.574
		C363.223,197.074,364.18,197.346,365.021,197.891z M363.656,206.553c0.562-0.689,0.842-1.662,0.842-2.922
		c0-1.293-0.28-2.297-0.842-3.01c-0.561-0.715-1.344-1.072-2.347-1.072c-1.021,0-1.808,0.35-2.36,1.047
		c-0.553,0.697-0.829,1.691-0.829,2.984c0,1.275,0.276,2.262,0.829,2.959c0.553,0.697,1.34,1.047,2.36,1.047
		C362.312,207.586,363.096,207.24,363.656,206.553z"/>
	<path fill="#636363" d="M370.418,211.438c-0.222,0.152-0.469,0.23-0.74,0.23c-0.341,0-0.643-0.115-0.905-0.348
		c-0.264-0.229-0.396-0.521-0.396-0.879c0-0.152,0.025-0.307,0.076-0.459l5.919-18.547c0.102-0.324,0.264-0.562,0.484-0.715
		c0.221-0.152,0.468-0.229,0.74-0.229c0.34,0,0.642,0.115,0.905,0.344s0.396,0.523,0.396,0.881c0,0.152-0.025,0.305-0.076,0.459
		l-5.919,18.545C370.8,211.047,370.639,211.285,370.418,211.438z"/>
	<path fill="#636363" d="M392.063,202.15c0.569,0.766,0.854,1.701,0.854,2.807c0,1.531-0.548,2.73-1.646,3.598
		c-1.097,0.867-2.606,1.301-4.528,1.301h-6.582c-0.493,0-0.88-0.135-1.161-0.408c-0.28-0.27-0.421-0.652-0.421-1.146v-14.873
		c0-0.494,0.141-0.875,0.421-1.148c0.281-0.271,0.668-0.408,1.161-0.408h6.327c1.871,0,3.338,0.414,4.4,1.236
		c1.063,0.826,1.595,1.979,1.595,3.457c0,0.953-0.251,1.777-0.753,2.477c-0.502,0.697-1.194,1.207-2.079,1.529
		C390.689,200.857,391.493,201.387,392.063,202.15z M381.795,199.447h4.158c2.262,0,3.394-0.842,3.394-2.525
		c0-0.852-0.281-1.48-0.842-1.889c-0.562-0.408-1.412-0.611-2.552-0.611h-4.158V199.447z M388.989,206.668
		c0.544-0.426,0.816-1.09,0.816-1.99c0-0.902-0.276-1.574-0.829-2.016c-0.553-0.441-1.416-0.664-2.59-0.664h-4.592v5.307h4.592
		C387.577,207.305,388.444,207.092,388.989,206.668z"/>
	<path fill="#636363" d="M406.3,206.77c0.178,0.221,0.269,0.52,0.269,0.893c0,0.527-0.315,0.969-0.944,1.326
		c-0.578,0.324-1.233,0.582-1.964,0.777c-0.731,0.195-1.429,0.295-2.093,0.295c-2.008,0-3.598-0.578-4.771-1.734
		c-1.173-1.156-1.76-2.738-1.76-4.746c0-1.275,0.255-2.406,0.765-3.393c0.512-0.986,1.229-1.752,2.156-2.297
		c0.927-0.543,1.978-0.814,3.15-0.814c1.123,0,2.101,0.246,2.935,0.738c0.833,0.494,1.479,1.191,1.938,2.092
		c0.459,0.902,0.688,1.967,0.688,3.189c0,0.73-0.323,1.098-0.969,1.098h-7.526c0.103,1.174,0.435,2.037,0.995,2.588
		c0.562,0.555,1.378,0.83,2.449,0.83c0.544,0,1.023-0.066,1.44-0.205c0.416-0.135,0.89-0.32,1.416-0.561
		c0.511-0.27,0.885-0.408,1.122-0.408C405.887,206.438,406.121,206.549,406.3,206.77z M399.105,200.135
		c-0.521,0.545-0.83,1.328-0.933,2.348h5.767c-0.034-1.037-0.289-1.822-0.767-2.359c-0.476-0.535-1.14-0.805-1.989-0.805
		C400.316,199.318,399.624,199.592,399.105,200.135z"/>
	<path fill="#636363" d="M407.945,211.502c-0.223-0.18-0.332-0.412-0.332-0.701c0-0.273,0.114-0.498,0.345-0.676
		c0.229-0.18,0.522-0.27,0.88-0.27h10.307c0.357,0,0.65,0.09,0.881,0.27c0.229,0.178,0.345,0.402,0.345,0.676
		c0,0.289-0.11,0.521-0.332,0.701c-0.221,0.178-0.519,0.268-0.894,0.268h-10.307C408.464,211.77,408.166,211.68,407.945,211.502z"/>
	<path fill="#636363" d="M423.609,208.172c-1.275-1.275-1.913-3.139-1.913-5.588v-9.209c0-0.492,0.145-0.889,0.434-1.188
		c0.289-0.297,0.68-0.445,1.174-0.445c0.493,0,0.884,0.148,1.173,0.445c0.289,0.299,0.436,0.693,0.436,1.188v9.389
		c0,1.547,0.365,2.717,1.097,3.508c0.732,0.791,1.804,1.188,3.215,1.188c1.395,0,2.457-0.4,3.188-1.199
		c0.73-0.801,1.097-1.965,1.097-3.496v-9.387c0-0.494,0.146-0.891,0.435-1.188s0.681-0.445,1.174-0.445s0.885,0.148,1.174,0.445
		s0.434,0.693,0.434,1.188v9.209c0,2.432-0.638,4.289-1.912,5.574c-1.275,1.283-3.14,1.926-5.588,1.926
		C426.756,210.086,424.885,209.447,423.609,208.172z"/>
	<path fill="#636363" d="M450.128,199.078c0.859,0.484,1.526,1.16,2.003,2.027s0.714,1.861,0.714,2.984
		c0,1.174-0.268,2.211-0.803,3.113c-0.536,0.9-1.293,1.604-2.271,2.104c-0.979,0.5-2.105,0.752-3.382,0.752
		c-1.055,0-2.088-0.176-3.1-0.521c-1.012-0.35-1.875-0.82-2.59-1.416c-0.392-0.342-0.586-0.74-0.586-1.199
		c0-0.373,0.104-0.693,0.317-0.957s0.463-0.396,0.753-0.396c0.171,0,0.331,0.029,0.484,0.09s0.332,0.156,0.536,0.295
		c0.68,0.477,1.343,0.842,1.989,1.096c0.646,0.256,1.335,0.383,2.065,0.383c1.123,0,1.981-0.279,2.577-0.842
		c0.595-0.562,0.894-1.359,0.894-2.398c0-1.002-0.303-1.799-0.905-2.385c-0.604-0.586-1.434-0.881-2.487-0.881
		c-0.663,0-1.255,0.094-1.773,0.281c-0.518,0.188-1.05,0.502-1.595,0.943c-0.323,0.223-0.653,0.332-0.994,0.332
		s-0.63-0.102-0.867-0.307c-0.238-0.203-0.356-0.475-0.356-0.816V193.4c0-0.475,0.136-0.85,0.408-1.123
		c0.271-0.271,0.654-0.406,1.146-0.406h8.496c1.021,0,1.53,0.424,1.53,1.273c0,0.852-0.51,1.277-1.53,1.277h-6.838v4.846
		c0.868-0.611,1.932-0.918,3.189-0.918C448.278,198.35,449.27,198.592,450.128,199.078z"/>
	<path fill="#636363" d="M467.399,202.203c0.568,0.766,0.854,1.699,0.854,2.807c0,1.58-0.596,2.818-1.786,3.711
		c-1.189,0.893-2.84,1.34-4.949,1.34c-2.107,0-3.759-0.447-4.948-1.34c-1.19-0.893-1.786-2.131-1.786-3.711
		c0-1.105,0.289-2.045,0.868-2.82c0.577-0.771,1.395-1.295,2.448-1.568c-0.901-0.34-1.606-0.871-2.117-1.594
		s-0.766-1.568-0.766-2.539c0-1.496,0.562-2.68,1.685-3.547c1.122-0.865,2.66-1.301,4.616-1.301s3.495,0.436,4.618,1.301
		c1.122,0.869,1.685,2.051,1.685,3.547c0,0.986-0.256,1.846-0.767,2.576c-0.51,0.732-1.208,1.25-2.092,1.557
		C466.018,200.91,466.829,201.438,467.399,202.203z M465.167,204.754c0-1.82-1.216-2.73-3.648-2.73c-2.432,0-3.647,0.91-3.647,2.73
		c0,1.818,1.216,2.729,3.647,2.729C463.951,207.482,465.167,206.574,465.167,204.754z M458.33,196.818
		c0,0.869,0.268,1.527,0.804,1.979c0.535,0.451,1.33,0.676,2.385,0.676c1.056,0,1.851-0.225,2.387-0.676
		c0.534-0.451,0.804-1.109,0.804-1.979c0-1.734-1.062-2.602-3.189-2.602C459.394,194.217,458.33,195.084,458.33,196.818z"/>
	<path fill="#636363" d="M478.587,208.785c0,0.408-0.166,0.719-0.498,0.932c-0.331,0.211-0.804,0.301-1.416,0.268l-0.688-0.051
		c-2.857-0.205-4.286-1.736-4.286-4.594v-5.561h-1.275c-0.459,0-0.812-0.102-1.059-0.307c-0.247-0.203-0.37-0.5-0.37-0.893
		c0-0.391,0.124-0.688,0.37-0.893s0.6-0.307,1.059-0.307h1.275v-2.346c0-0.459,0.145-0.826,0.434-1.098s0.682-0.408,1.174-0.408
		c0.477,0,0.858,0.137,1.148,0.408c0.289,0.271,0.434,0.639,0.434,1.098v2.346h2.168c0.46,0,0.812,0.102,1.06,0.307
		c0.247,0.203,0.37,0.5,0.37,0.893s-0.123,0.689-0.37,0.893c-0.246,0.205-0.6,0.307-1.06,0.307h-2.168v5.791
		c0,1.26,0.578,1.932,1.734,2.018l0.689,0.051C478.161,207.688,478.587,208.07,478.587,208.785z"/>
	<path fill="#636363" d="M480.69,209.613c-0.299-0.264-0.446-0.643-0.446-1.135v-15.23c0-0.494,0.147-0.867,0.446-1.123
		c0.298-0.254,0.677-0.383,1.136-0.383s0.842,0.127,1.146,0.383c0.308,0.256,0.46,0.629,0.46,1.123v15.23
		c0,0.492-0.152,0.871-0.46,1.135c-0.306,0.264-0.688,0.396-1.146,0.396S480.988,209.877,480.69,209.613z"/>
	<path fill="#636363" d="M494.734,197.406c0.255,0.221,0.383,0.553,0.383,0.994c0,0.459-0.111,0.801-0.332,1.021
		s-0.621,0.365-1.199,0.434l-0.765,0.076c-1.004,0.102-1.739,0.443-2.207,1.021s-0.701,1.301-0.701,2.168v5.357
		c0,0.492-0.153,0.871-0.46,1.135s-0.688,0.396-1.147,0.396s-0.838-0.133-1.136-0.396s-0.446-0.643-0.446-1.135v-9.873
		c0-0.477,0.148-0.842,0.446-1.098c0.298-0.254,0.668-0.383,1.11-0.383c0.44,0,0.799,0.125,1.07,0.371s0.408,0.6,0.408,1.059v1.021
		c0.322-0.748,0.804-1.328,1.441-1.736c0.637-0.408,1.348-0.637,2.13-0.689l0.357-0.023
		C494.131,197.092,494.479,197.186,494.734,197.406z"/>
	<path fill="#636363" d="M507.388,208.656c0,0.375-0.118,0.668-0.356,0.881s-0.596,0.318-1.071,0.318h-8.521
		c-0.427,0-0.774-0.135-1.047-0.408c-0.271-0.271-0.407-0.596-0.407-0.969c0-0.391,0.151-0.766,0.459-1.123l6.557-7.578h-5.688
		c-0.478,0-0.834-0.102-1.071-0.305c-0.238-0.205-0.357-0.502-0.357-0.893c0-0.393,0.119-0.689,0.357-0.895
		c0.237-0.205,0.595-0.305,1.071-0.305h8.239c0.442,0,0.795,0.131,1.06,0.395c0.264,0.264,0.396,0.59,0.396,0.982
		c0,0.408-0.145,0.783-0.434,1.123l-6.582,7.576h5.97C506.911,207.459,507.388,207.857,507.388,208.656z"/>
	<path fill="#636363" d="M520.706,197.533c0.289,0.271,0.434,0.639,0.434,1.098v9.896c0,0.443-0.148,0.801-0.445,1.072
		c-0.298,0.271-0.687,0.408-1.161,0.408c-0.459,0-0.825-0.129-1.098-0.383c-0.271-0.256-0.407-0.604-0.407-1.047v-0.639
		c-0.393,0.682-0.919,1.205-1.582,1.57s-1.412,0.549-2.245,0.549c-3.062,0-4.592-1.719-4.592-5.154v-6.275
		c0-0.459,0.144-0.824,0.434-1.098c0.289-0.271,0.672-0.406,1.147-0.406c0.492,0,0.885,0.135,1.174,0.406
		c0.289,0.273,0.434,0.639,0.434,1.098v6.301c0,0.885,0.179,1.541,0.536,1.965c0.357,0.426,0.918,0.639,1.684,0.639
		c0.885,0,1.596-0.293,2.131-0.881c0.535-0.586,0.804-1.363,0.804-2.334v-5.688c0-0.459,0.145-0.826,0.434-1.098
		s0.673-0.408,1.148-0.408C520.025,197.125,520.416,197.262,520.706,197.533z"/>
	<path fill="#636363" d="M524.558,211.438c-0.222,0.152-0.469,0.23-0.739,0.23c-0.342,0-0.644-0.115-0.905-0.348
		c-0.264-0.229-0.396-0.521-0.396-0.879c0-0.152,0.025-0.307,0.076-0.459l5.919-18.547c0.103-0.324,0.265-0.562,0.484-0.715
		c0.221-0.152,0.468-0.229,0.74-0.229c0.34,0,0.642,0.115,0.904,0.344c0.264,0.229,0.396,0.523,0.396,0.881
		c0,0.152-0.025,0.305-0.076,0.459l-5.919,18.545C524.939,211.047,524.778,211.285,524.558,211.438z"/>
</g>
<path fill="#F2F2F2" d="M402.783,96.842c0,2.231-1.808,4.038-4.038,4.038H274.737c-2.23,0-4.038-1.807-4.038-4.038V85.99
	c0-2.23,1.808-4.038,4.038-4.038h124.008c2.23,0,4.038,1.808,4.038,4.038V96.842z"/>
<path fill="#F2F2F2" d="M517.254,121.842c0,2.23-1.809,4.037-4.039,4.037H357.174c-2.23,0-4.038-1.807-4.038-4.037V110.99
	c0-2.23,1.808-4.039,4.038-4.039h156.041c2.23,0,4.039,1.809,4.039,4.039V121.842z"/>
<path fill="#F2F2F2" d="M345.675,119.842c0,2.23-1.808,4.037-4.038,4.037h-43.886c-2.23,0-4.038-1.807-4.038-4.037V108.99
	c0-2.23,1.808-4.039,4.038-4.039h43.886c2.23,0,4.038,1.809,4.038,4.039V119.842z"/>
<path fill="#F2F2F2" d="M458.363,96.842c0,2.23-1.807,4.037-4.037,4.037h-41.589c-2.23,0-4.038-1.807-4.038-4.037V85.99
	c0-2.23,1.808-4.038,4.038-4.038h41.589c2.23,0,4.037,1.808,4.037,4.038V96.842z"/>
<path fill="#F2F2F2" d="M531.006,96.842c0,2.23-1.807,4.037-4.037,4.037h-58.076c-2.23,0-4.039-1.807-4.039-4.037V85.99
	c0-2.23,1.809-4.038,4.039-4.038h58.076c2.23,0,4.037,1.808,4.037,4.038V96.842z"/>
<polygon fill="#6BEDE9" points="633.326,66.466 168.622,66.466 175.901,51.52 640.605,51.52 "/>
<text transform="matrix(1 0 0 1 184.9844 58.9927)" fill="#636363" font-family="'Nunito-Bold'" font-size="33.5239">Download Instagram Videos</text>
</svg>
