<?xml version="1.0" encoding="UTF-8"?>
<svg width="299px" height="173px" viewBox="0 0 299 173" version="1.1" xmlns="http://www.w3.org/2000/svg" xmlns:xlink="http://www.w3.org/1999/xlink">
    <!-- Generator: Sketch 49.3 (51167) - http://www.bohemiancoding.com/sketch -->
    <title>Unmatched @2x</title>
    <desc>Created with Sketch.</desc>
    <defs>
        <linearGradient x1="97.2200046%" y1="2.68528005%" x2="8.47827327%" y2="95.8941684%" id="linearGradient-1">
            <stop stop-color="#FF5571" offset="0%"></stop>
            <stop stop-color="#FF92A4" offset="100%"></stop>
        </linearGradient>
        <rect id="path-2" x="0" y="0" width="199" height="73" rx="10"></rect>
        <filter x="-47.7%" y="-75.3%" width="195.5%" height="360.3%" filterUnits="objectBoundingBox" id="filter-3">
            <feOffset dx="0" dy="40" in="SourceAlpha" result="shadowOffsetOuter1"></feOffset>
            <feGaussianBlur stdDeviation="25" in="shadowOffsetOuter1" result="shadowBlurOuter1"></feGaussianBlur>
            <feColorMatrix values="0 0 0 0 0   0 0 0 0 0   0 0 0 0 0  0 0 0 0.1 0" type="matrix" in="shadowBlurOuter1"></feColorMatrix>
        </filter>
    </defs>
    <g id="Page-1" stroke="none" stroke-width="1" fill="none" fill-rule="evenodd">
        <g id="Buy-Instagram-Views-Assets" transform="translate(-721.000000, -243.000000)">
            <g id="Instant-Delivery" transform="translate(564.000000, 62.000000)">
                <g id="Unmatched-" transform="translate(207.000000, 191.000000)">
                    <g id="Rectangle-6-Copy">
                        <use fill="black" fill-opacity="1" filter="url(#filter-3)" xlink:href="#path-2"></use>
                        <use fill="url(#linearGradient-1)" fill-rule="evenodd" xlink:href="#path-2"></use>
                    </g>
                    <text id="View-Guarnteed" opacity="0.258944746" font-family="Ubuntu-Bold, Ubuntu" font-size="14" font-weight="bold" fill="#FFFFFF">
                        <tspan x="69" y="43">View Guarnteed</tspan>
                    </text>
                    <path d="M39.9998172,23 C31.5932986,23 23.9696138,27.5592375 18.3441915,34.9650568 C17.8852695,35.5715573 17.8852695,36.4192973 18.3441915,37.0262439 C23.9696138,44.4403164 31.5932986,49 39.9998172,49 C48.4067858,49 56.0301331,44.4403164 61.6555554,37.0349432 C62.1148149,36.4279966 62.1148149,35.5807027 61.6555554,34.9737561 C56.0301331,27.5592375 48.4067858,23 39.9998172,23 Z M40.6027499,45.1544434 C35.0226685,45.5025287 30.4142101,40.9428451 30.7653489,35.4020316 C31.053258,30.8336486 34.7884259,27.130962 39.3968844,26.8455566 C44.9774158,26.4974713 49.5854243,31.0567087 49.2347354,36.5979684 C48.9376006,41.1572059 45.2024327,44.8598925 40.6027499,45.1544434 Z M40.324179,40.9250003 C37.3176158,41.1122593 34.8336543,38.6585979 35.0314442,35.6787377 C35.1843432,33.2163769 37.2007195,31.2266806 39.684681,31.0658542 C42.6912442,30.8785952 45.1752057,33.3322566 44.9774158,36.3121169 C44.8152912,38.7837346 42.7993648,40.7733194 40.324179,40.9250003 Z" id="Fill-1" fill="#FFFFFF" opacity="0.258944746"></path>
                </g>
            </g>
        </g>
    </g>
</svg>