<?xml version="1.0" encoding="UTF-8"?>
<svg width="299px" height="173px" viewBox="0 0 299 173" version="1.1" xmlns="http://www.w3.org/2000/svg" xmlns:xlink="http://www.w3.org/1999/xlink">
    <!-- Generator: Sketch 49.3 (51167) - http://www.bohemiancoding.com/sketch -->
    <title>Instant Delivery@2x</title>
    <desc>Created with Sketch.</desc>
    <defs>
        <linearGradient x1="97.2200046%" y1="2.68528005%" x2="8.47827327%" y2="95.8941684%" id="linearGradient-1">
            <stop stop-color="#7DACFF" offset="0%"></stop>
            <stop stop-color="#92C6FF" offset="100%"></stop>
        </linearGradient>
        <rect id="path-2" x="0" y="0" width="199" height="73" rx="10"></rect>
        <filter x="-47.7%" y="-75.3%" width="195.5%" height="360.3%" filterUnits="objectBoundingBox" id="filter-3">
            <feOffset dx="0" dy="40" in="SourceAlpha" result="shadowOffsetOuter1"></feOffset>
            <feGaussianBlur stdDeviation="25" in="shadowOffsetOuter1" result="shadowBlurOuter1"></feGaussianBlur>
            <feColorMatrix values="0 0 0 0 0   0 0 0 0 0   0 0 0 0 0  0 0 0 0.1 0" type="matrix" in="shadowBlurOuter1"></feColorMatrix>
        </filter>
        <path d="M56.8840278,33.4559001 C55.45372,31.8721376 53.4696816,31 51.2966872,31 C48.2409662,31 46.3066825,32.7807056 45.2218624,34.2748987 C44.940385,34.6624849 44.7008357,35.0511669 44.5001398,35.4168401 C44.2988848,35.0511669 44.059615,34.6624849 43.7781376,34.2748987 C42.6933175,32.7807056 40.7587543,31 37.7030333,31 C35.5303184,31 33.5460004,31.8721376 32.1156927,33.4559001 C30.7513518,34.9668018 30,36.9901939 30,39.1532815 C30,41.5078339 30.941985,43.6977649 32.9648768,46.0451956 C34.7725376,48.1433658 37.3734783,50.3059056 40.385035,52.8100142 C41.5073109,53.7432344 42.6676016,54.7082283 43.9033629,55.7630656 L43.9402597,55.7948395 C44.1004251,55.9315219 44.3002824,56 44.5001398,56 C44.6997176,56 44.8992954,55.9315219 45.0597403,55.7948395 L45.0963576,55.7630656 C46.3321189,54.7082283 47.4926891,53.7435083 48.614965,52.8097403 C51.6265217,50.3059056 54.2271829,48.1433658 56.0351232,46.0451956 C58.058015,43.6977649 59,41.5078339 59,39.1532815 C59,36.9901939 58.2483687,34.9668018 56.8840278,33.4559001" id="path-4"></path>
        <filter x="-327.6%" y="-220.0%" width="755.2%" height="860.0%" filterUnits="objectBoundingBox" id="filter-5">
            <feOffset dx="0" dy="40" in="SourceAlpha" result="shadowOffsetOuter1"></feOffset>
            <feGaussianBlur stdDeviation="25" in="shadowOffsetOuter1" result="shadowBlurOuter1"></feGaussianBlur>
            <feComposite in="shadowBlurOuter1" in2="SourceAlpha" operator="out" result="shadowBlurOuter1"></feComposite>
            <feColorMatrix values="0 0 0 0 0   0 0 0 0 0   0 0 0 0 0  0 0 0 0.15 0" type="matrix" in="shadowBlurOuter1"></feColorMatrix>
        </filter>
    </defs>
    <g id="Page-1" stroke="none" stroke-width="1" fill="none" fill-rule="evenodd">
        <g id="Automatic-Likes-Copy_2" transform="translate(-1199.000000, -258.000000)">
            <g id="Instant-Detection" transform="translate(1096.000000, 62.000000)">
                <g id="Instant-Delivery" transform="translate(153.000000, 206.000000)">
                    <g id="Rectangle-6-Copy">
                        <use fill="black" fill-opacity="1" filter="url(#filter-3)" xlink:href="#path-2"></use>
                        <use fill="url(#linearGradient-1)" fill-rule="evenodd" xlink:href="#path-2"></use>
                    </g>
                    <text id="Instant-Detection" opacity="0.859997736" font-family="Ubuntu-Bold, Ubuntu" font-size="14" font-weight="bold" fill="#FFFFFF">
                        <tspan x="65" y="43">Instant Detection</tspan>
                    </text>
                    <path d="M34.3166797,32.3568849 C34.3369479,32.3423293 34.3565727,32.3270077 34.376841,32.3121457 C34.4075651,32.3403375 34.4378066,32.3686826 34.4735174,32.3928908 C34.4857427,32.4013177 34.4268682,32.3872217 34.3166797,32.3568849 M26.5264308,32.3867621 C26.5577983,32.3656182 26.5838575,32.3401843 26.6113644,32.3158229 C26.6256809,32.3263948 26.6398365,32.3375796 26.6543138,32.3478451 C26.5632675,32.3789481 26.5158141,32.3933504 26.5264308,32.3867621 M43.9981499,38.7093922 L43.9981499,38.6903933 C43.9981499,38.6396787 43.9915546,38.5888108 43.9915546,38.5321207 C43.9519833,37.2775844 43.8667279,34.3442555 41.0138905,33.406724 C40.9941048,33.4002889 40.9678848,33.3941603 40.9480991,33.3877252 C38.3677571,32.7535623 36.1665602,31.4237967 35.6220519,31.0770679 C37.7132211,28.2923589 37.3368106,24.0641977 37.2933787,23.6394817 C37.1289806,20.2624379 35.4726137,18.6472301 34.1053107,17.8932519 C33.0865896,17.3294154 31.8967143,17.0255871 30.5689826,17 L30.4571855,17 C29.7275283,17 28.2945948,17.113993 26.9206966,17.8681244 C25.540364,18.6216429 23.8576162,20.2371572 23.6932181,23.6394817 C23.6497862,24.0643509 23.2733757,28.2941975 25.3659927,31.0789065 C24.8044333,31.4368201 22.6251132,32.7515705 20.0516882,33.3811369 C20.0254681,33.3877252 20.0058433,33.3941603 19.9860576,33.4002889 C17.1332202,34.3442555 17.047804,37.2775844 17.0083935,38.5255324 C17.0083935,38.5823757 17.0083935,38.6330904 17.0017982,38.683805 L17.0017982,38.7029571 C16.995203,39.0323724 16.9886078,40.7238821 17.3368679,41.572548 C17.4028202,41.7374089 17.5210517,41.8769891 17.6786936,41.9719833 C17.875907,42.0985401 22.6021104,45 30.5097865,45 C38.4174626,45 43.1436659,42.092105 43.3408793,41.9719833 C43.4920869,41.8769891 43.6169136,41.7374089 43.682705,41.572548 C44.0113403,40.7300107 44.0047451,39.0385011 43.9981499,38.7093922" id="Fill-1" fill="#FFFFFF" opacity="0.342957428"></path>
                    <g id="Fill-1" opacity="0.342957428">
                        <use fill="black" fill-opacity="1" filter="url(#filter-5)" xlink:href="#path-4"></use>
                        <use fill="#FFFFFF" fill-rule="evenodd" xlink:href="#path-4"></use>
                        <path stroke="#FFFFFF" stroke-width="1" d="M56.5129445,33.7910078 C55.1778979,32.3127331 53.3289022,31.5 51.2966872,31.5 C48.8641563,31.5 47.000118,32.6766403 45.6264307,34.5687089 C45.3745935,34.9154814 45.1451345,35.2808467 44.9384623,35.6574089 L44.5007492,36.4549339 L44.0620999,35.6579233 C43.85341,35.278741 43.6244227,34.9141268 43.3735294,34.568654 C41.999967,32.6767575 40.135613,31.5 37.7030333,31.5 C35.6709871,31.5 33.8217437,32.3128142 32.4867861,33.7909966 C31.2068697,35.2084048 30.5,37.1119611 30.5,39.1532815 C30.5,41.3780542 31.394112,43.4564964 33.3436805,45.7188404 C34.839643,47.4552193 36.415466,48.8590509 40.7047207,52.4255652 C42.3949189,53.8310368 43.1966786,54.5024596 44.2296343,55.3841897 L44.2648302,55.4145054 C44.3299018,55.4700365 44.4130934,55.5 44.5001398,55.5 C44.5868715,55.5 44.6699715,55.4700474 44.7320458,55.4171937 L44.7717408,55.3827711 C45.7922657,54.511658 46.5052329,53.9146647 48.2953097,52.425266 C52.5804994,48.8625215 54.1598054,47.4555909 55.656358,45.7187957 C57.605888,43.4564964 58.5,41.3780542 58.5,39.1532815 C58.5,37.1121562 57.7929755,35.2085488 56.5129445,33.7910078 Z M56.5129445,33.7910078 C56.5129411,33.7910041 56.5129378,33.7910003 56.5129344,33.7909966 L56.5129546,33.791019 C56.5129513,33.7910153 56.5129479,33.7910116 56.5129445,33.7910078 Z"></path>
                    </g>
                </g>
            </g>
        </g>
    </g>
</svg>