<?xml version="1.0" encoding="UTF-8"?>
<svg width="375px" height="198px" viewBox="0 0 375 198" version="1.1" xmlns="http://www.w3.org/2000/svg" xmlns:xlink="http://www.w3.org/1999/xlink">
    <!-- Generator: Sketch 49.3 (51167) - http://www.bohemiancoding.com/sketch -->
    <title>View@2x</title>
    <desc>Created with Sketch.</desc>
    <defs>
        <rect id="path-1" x="0" y="0" width="279" height="102" rx="10"></rect>
        <filter x="-33.0%" y="-51.0%" width="165.9%" height="280.4%" filterUnits="objectBoundingBox" id="filter-2">
            <feOffset dx="0" dy="40" in="SourceAlpha" result="shadowOffsetOuter1"></feOffset>
            <feGaussianBlur stdDeviation="24" in="shadowOffsetOuter1" result="shadowBlurOuter1"></feGaussianBlur>
            <feColorMatrix values="0 0 0 0 0   0 0 0 0 0   0 0 0 0 0  0 0 0 0.1 0" type="matrix" in="shadowBlurOuter1"></feColorMatrix>
        </filter>
        <path d="M49.9997421,32.4218552 C38.1406517,32.4218552 27.3859064,38.9100009 19.4501134,49.4490514 C18.8027114,50.3121482 18.8027114,51.5185475 19.4501134,52.3822792 C27.3859064,62.9330747 38.1406517,69.4218552 49.9997421,69.4218552 C61.8594673,69.4218552 72.6137365,62.9330747 80.5495295,52.394659 C81.1974077,51.5309273 81.1974077,50.3251629 80.5495295,49.4614312 C72.6137365,38.9100009 61.8594673,32.4218552 49.9997421,32.4218552 Z M50.8503004,63.9493324 C42.9784699,64.4446846 36.4773095,57.9559041 36.9726617,50.0709001 C37.3788156,43.5697398 42.6480235,38.300532 49.1491838,37.8943781 C57.0216492,37.3990259 63.5221746,43.8871715 63.0274573,51.7728103 C62.6082887,58.2609559 57.3390809,63.5301638 50.8503004,63.9493324 Z M50.4573199,57.9305095 C46.215956,58.1969934 42.7118272,54.7052445 42.9908497,50.4646742 C43.2065446,46.9605454 46.0510502,44.1290545 49.555179,43.9001862 C53.7965429,43.6337023 57.3006716,47.1254512 57.0216492,51.3660215 C56.7929396,54.8833237 53.9490688,57.7146559 50.4573199,57.9305095 Z" id="path-3"></path>
        <filter x="-153.1%" y="-148.6%" width="406.1%" height="613.5%" filterUnits="objectBoundingBox" id="filter-4">
            <feOffset dx="0" dy="40" in="SourceAlpha" result="shadowOffsetOuter1"></feOffset>
            <feGaussianBlur stdDeviation="25" in="shadowOffsetOuter1" result="shadowBlurOuter1"></feGaussianBlur>
            <feColorMatrix values="0 0 0 0 0   0 0 0 0 0   0 0 0 0 0  0 0 0 0.15 0" type="matrix" in="shadowBlurOuter1"></feColorMatrix>
        </filter>
    </defs>
    <g id="Page-1" stroke="none" stroke-width="1" fill="none" fill-rule="evenodd">
        <g id="Instagram-Views" transform="translate(-620.000000, -477.000000)">
            <g id="View" transform="translate(668.000000, 485.000000)">
                <g id="Rectangle-6-Copy">
                    <use fill="black" fill-opacity="1" filter="url(#filter-2)" xlink:href="#path-1"></use>
                    <use fill="#FFFFFF" fill-rule="evenodd" xlink:href="#path-1"></use>
                </g>
                <g id="Fill-1" opacity="0.429857337">
                    <use fill="black" fill-opacity="1" filter="url(#filter-4)" xlink:href="#path-3"></use>
                    <use fill="#535BFF" fill-rule="evenodd" xlink:href="#path-3"></use>
                </g>
                <text id="15,300,0-View" opacity="0.49756567" font-family="Ubuntu-Bold, Ubuntu" font-size="20" font-weight="bold" fill="#797979">
                    <tspan x="102" y="59">15,300,0 View</tspan>
                </text>
            </g>
        </g>
    </g>
</svg>