<?xml version="1.0" encoding="UTF-8"?>
<svg width="308px" height="308px" viewBox="0 0 308 308" version="1.1" xmlns="http://www.w3.org/2000/svg" xmlns:xlink="http://www.w3.org/1999/xlink">
    <!-- Generator: Sketch 49.3 (51167) - http://www.bohemiancoding.com/sketch -->
    <title>Instant Delivery BG@2x</title>
    <desc>Created with Sketch.</desc>
    <defs>
        <circle id="path-1" cx="154" cy="154" r="154"></circle>
    </defs>
    <g id="Page-1" stroke="none" stroke-width="1" fill="none" fill-rule="evenodd">
        <g id="BUY-INSTAGRAM-LIKES-Copy" transform="translate(-1116.000000, -62.000000)">
            <g id="Group-2-Copy" transform="translate(1103.000000, 62.000000)">
                <g id="Instant-Delivery-BG" transform="translate(13.000000, 0.000000)">
                    <mask id="mask-2" fill="white">
                        <use xlink:href="#path-1"></use>
                    </mask>
                    <use id="Oval-2" fill="#F3B6F1" opacity="0.33910779" xlink:href="#path-1"></use>
                    <g id="Group-Copy-3" mask="url(#mask-2)" fill="#FFFFFF">
                        <g transform="translate(59.000000, 76.000000)">
                            <circle id="Oval" fill-rule="nonzero" opacity="0.451539855" cx="23.667" cy="23.667" r="23.667"></circle>
                            <path d="M22.5791359,16.8638388 C19.8028124,12.100429 12,13.4923223 12,19.4591789 C12,23.5676899 16.9108088,27.7694913 22.5791359,33.3949048 C28.2455972,27.7694913 33.1545401,23.5676899 33.1545401,19.4591789 C33.1545401,13.4717985 25.3330697,12.1377452 22.5791359,16.8638388 Z" id="Shape" fill-rule="nonzero"></path>
                            <rect id="Rectangle-5" fill-rule="evenodd" opacity="0.451539855" x="62" y="7" width="151" height="12" rx="6"></rect>
                            <rect id="Rectangle-5-Copy" fill-rule="evenodd" opacity="0.451539855" x="62" y="27" width="80" height="10" rx="5"></rect>
                        </g>
                    </g>
                    <g id="Group-Copy-7" mask="url(#mask-2)" fill="#FFFFFF">
                        <g transform="translate(59.000000, 141.000000)">
                            <circle id="Oval" fill-rule="nonzero" opacity="0.451539855" cx="23.667" cy="23.667" r="23.667"></circle>
                            <path d="M27.088394,25.1858967 C27.1048838,25.1733988 27.12085,25.1602432 27.1373397,25.1474822 C27.162336,25.1716886 27.1869397,25.1960265 27.2159931,25.2168125 C27.2259392,25.2240481 27.1780405,25.2119449 27.088394,25.1858967 M20.7504529,25.2115502 C20.7759727,25.1933954 20.7971738,25.1715571 20.8195527,25.1506396 C20.8312002,25.159717 20.8427168,25.1693206 20.8544952,25.1781349 C20.7804223,25.2048408 20.7418154,25.2172071 20.7504529,25.2115502 M34.964983,30.6403561 L34.964983,30.6240431 C34.964983,30.5804979 34.9596173,30.5368212 34.9596173,30.4881453 C34.927423,29.4109616 34.8580615,26.8923146 32.5370682,26.0873211 C32.5209711,26.0817957 32.4996392,26.0765334 32.4835421,26.0710081 C30.3842438,25.5264962 28.593408,24.3847183 28.1504104,24.0870062 C29.8517306,21.6959689 29.545493,18.0655388 29.5101579,17.7008645 C29.3764079,14.8012302 28.0288315,13.4143627 26.9164298,12.7669737 C26.0876252,12.2828462 25.119574,12.0219699 24.0393665,12 L23.9484114,12 C23.3547815,12 22.1889846,12.097878 21.0712172,12.7453985 C19.948215,13.3923928 18.5791758,14.7795234 18.4454258,17.7008645 C18.4100907,18.0656703 18.1038531,21.6975475 19.8063511,24.0885849 C19.3494812,24.3959006 17.5764438,25.524786 15.482773,26.0653511 C15.4614411,26.0710081 15.4454749,26.0765334 15.4293778,26.0817957 C13.1083844,26.8923146 13.038892,29.4109616 13.0068287,30.4824884 C13.0068287,30.5312958 13.0068287,30.574841 13.001463,30.6183862 L13.001463,30.6348307 C12.9960973,30.9176769 12.9907316,32.3700595 13.2740668,33.0987503 C13.3277239,33.240305 13.4239139,33.3601528 13.5521673,33.4417178 C13.7126148,33.5503834 17.5577293,36.0416667 23.9912061,36.0416667 C30.4246829,36.0416667 34.2697974,33.544858 34.4302449,33.4417178 C34.5532635,33.3601528 34.6548192,33.240305 34.7083454,33.0987503 C34.9757144,32.3753217 34.9703487,30.9229392 34.964983,30.6403561" id="Fill-1" fill-rule="evenodd"></path>
                            <rect id="Rectangle-5" fill-rule="evenodd" opacity="0.451539855" x="62" y="7" width="151" height="12" rx="6"></rect>
                            <rect id="Rectangle-5-Copy" fill-rule="evenodd" opacity="0.451539855" x="62" y="27" width="80" height="10" rx="5"></rect>
                        </g>
                    </g>
                    <g id="Group-Copy-8" mask="url(#mask-2)" fill="#FFFFFF">
                        <g transform="translate(59.000000, 206.000000)">
                            <circle id="Oval" fill-rule="nonzero" opacity="0.451539855" cx="23.667" cy="23.667" r="23.667"></circle>
                            <path d="M22.5791359,16.8638388 C19.8028124,12.100429 12,13.4923223 12,19.4591789 C12,23.5676899 16.9108088,27.7694913 22.5791359,33.3949048 C28.2455972,27.7694913 33.1545401,23.5676899 33.1545401,19.4591789 C33.1545401,13.4717985 25.3330697,12.1377452 22.5791359,16.8638388 Z" id="Shape" fill-rule="nonzero"></path>
                            <rect id="Rectangle-5" fill-rule="evenodd" opacity="0.451539855" x="62" y="7" width="151" height="12" rx="6"></rect>
                            <rect id="Rectangle-5-Copy" fill-rule="evenodd" opacity="0.451539855" x="62" y="27" width="80" height="10" rx="5"></rect>
                        </g>
                    </g>
                </g>
            </g>
        </g>
    </g>
</svg>