<?xml version="1.0" encoding="utf-8"?>
<!-- Generator: Adobe Illustrator 16.0.0, SVG Export Plug-In . SVG Version: 6.00 Build 0)  -->
<!DOCTYPE svg PUBLIC "-//W3C//DTD SVG 1.1//EN" "http://www.w3.org/Graphics/SVG/1.1/DTD/svg11.dtd">
<svg version="1.1" id="Layer_1" xmlns="http://www.w3.org/2000/svg" xmlns:xlink="http://www.w3.org/1999/xlink" x="0px" y="0px"
	 width="40.999px" height="41px" viewBox="0 0 40.999 41" enable-background="new 0 0 40.999 41" xml:space="preserve">
<g>
	<path fill="#FFFFFF" d="M25.799,16.412c-0.356-0.29-0.88-0.236-1.17,0.121l-5.069,6.231l-3.302-2.753
		c-0.354-0.295-0.878-0.247-1.172,0.106c-0.295,0.352-0.247,0.877,0.106,1.171l3.949,3.293c0.171,0.143,0.392,0.211,0.613,0.188
		c0.221-0.021,0.425-0.13,0.566-0.303l5.6-6.885C26.209,17.226,26.156,16.702,25.799,16.412"/>
	<path fill="none" stroke="#FFFFFF" stroke-miterlimit="10" d="M25.799,16.412c-0.356-0.29-0.88-0.236-1.17,0.121l-5.069,6.231
		l-3.302-2.753c-0.354-0.295-0.878-0.247-1.172,0.106c-0.295,0.352-0.247,0.877,0.106,1.171l3.949,3.293
		c0.171,0.143,0.392,0.211,0.613,0.188c0.221-0.021,0.425-0.13,0.566-0.303l5.6-6.885C26.209,17.226,26.156,16.702,25.799,16.412z"
		/>
	<path fill="#FFFFFF" d="M20.499,5.803c-8.118,0-14.696,6.58-14.696,14.697c0,8.116,6.579,14.697,14.696,14.697
		c8.119,0,14.697-6.581,14.697-14.697C35.196,12.383,28.618,5.803,20.499,5.803 M20.499,33.533c-7.186,0-13.033-5.847-13.033-13.033
		c0-7.187,5.847-13.033,13.033-13.033c7.188,0,13.033,5.846,13.033,13.033C33.532,27.687,27.687,33.533,20.499,33.533"/>
	<path fill="none" stroke="#FFFFFF" stroke-miterlimit="10" d="M20.499,5.803c-8.118,0-14.696,6.58-14.696,14.697
		c0,8.116,6.579,14.697,14.696,14.697c8.119,0,14.697-6.581,14.697-14.697C35.196,12.383,28.618,5.803,20.499,5.803z M20.499,33.533
		c-7.186,0-13.033-5.847-13.033-13.033c0-7.187,5.847-13.033,13.033-13.033c7.188,0,13.033,5.846,13.033,13.033
		C33.532,27.687,27.687,33.533,20.499,33.533z"/>
	<path fill="#FFFFFF" d="M40.401,26.135l-0.938-3.791c-0.129-0.511-0.205-1.28-0.204-2.034c-0.001-0.705,0.065-1.41,0.18-1.889
		l0.891-3.801v-0.002c0.061-0.258,0.088-0.519,0.089-0.78c-0.003-0.679-0.184-1.347-0.498-1.943
		c-0.316-0.594-0.771-1.123-1.363-1.483l-3.344-2.017c-0.438-0.262-1.013-0.729-1.53-1.243c-0.521-0.512-0.994-1.08-1.262-1.514
		l-2.058-3.319c-0.363-0.582-0.89-1.026-1.479-1.334C28.294,0.677,27.633,0.5,26.961,0.5c-0.276,0-0.554,0.031-0.826,0.099
		l-3.79,0.938c-0.513,0.127-1.282,0.205-2.035,0.203c-0.705,0.002-1.41-0.066-1.888-0.179L14.62,0.67
		c-0.259-0.06-0.521-0.088-0.781-0.088c-0.68,0.001-1.349,0.183-1.943,0.498c-0.595,0.316-1.123,0.77-1.483,1.364L8.396,5.787
		c-0.263,0.437-0.729,1.012-1.243,1.53c-0.511,0.521-1.08,0.994-1.514,1.261L2.32,10.636c-0.583,0.363-1.027,0.89-1.336,1.48
		C0.676,12.707,0.501,13.368,0.5,14.04c0,0.275,0.031,0.553,0.098,0.826l0.939,3.79c0.127,0.512,0.204,1.281,0.202,2.035
		c0.002,0.704-0.065,1.41-0.179,1.889l-0.891,3.801l0.001-0.004c-0.062,0.263-0.089,0.525-0.09,0.785
		c0.002,0.681,0.184,1.348,0.499,1.943c0.316,0.594,0.77,1.123,1.363,1.483l3.345,2.017c0.437,0.263,1.012,0.729,1.53,1.242
		c0.52,0.512,0.993,1.081,1.26,1.515l2.058,3.318c0.363,0.583,0.89,1.026,1.479,1.335c0.591,0.307,1.252,0.483,1.925,0.484
		c0.275,0,0.552-0.03,0.825-0.099l3.791-0.938c0.511-0.128,1.281-0.205,2.035-0.203c0.705-0.001,1.41,0.065,1.889,0.179l3.802,0.892
		c0.258,0.061,0.52,0.088,0.78,0.088c0.681-0.001,1.349-0.184,1.944-0.498c0.593-0.316,1.123-0.771,1.483-1.363l2.017-3.344
		c0.262-0.438,0.729-1.012,1.242-1.53c0.511-0.52,1.08-0.994,1.514-1.261l3.319-2.059c0.583-0.362,1.025-0.89,1.334-1.479
		c0.307-0.591,0.482-1.252,0.483-1.924C40.498,26.686,40.401,26.135,40.401,26.135 M38.539,28.114
		c-0.188,0.364-0.458,0.664-0.735,0.835l-3.318,2.059c-0.604,0.376-1.234,0.914-1.822,1.507c-0.585,0.594-1.114,1.232-1.482,1.839
		l-2.018,3.343c-0.169,0.284-0.471,0.561-0.839,0.755c-0.365,0.194-0.791,0.305-1.164,0.303c-0.143,0-0.278-0.016-0.4-0.043
		l-3.803-0.893c-0.669-0.154-1.463-0.221-2.269-0.223c-0.862,0.002-1.721,0.078-2.435,0.253l-3.79,0.938
		c-0.13,0.031-0.274,0.049-0.426,0.049c-0.372,0.002-0.792-0.105-1.155-0.296c-0.364-0.189-0.664-0.458-0.834-0.736l-2.059-3.318
		c-0.375-0.603-0.913-1.234-1.505-1.821c-0.594-0.585-1.233-1.115-1.84-1.484L3.3,29.163c-0.284-0.168-0.56-0.472-0.753-0.839
		c-0.197-0.365-0.306-0.79-0.304-1.163c-0.001-0.146,0.014-0.278,0.043-0.398V26.76l0.892-3.802c0.156-0.669,0.222-1.463,0.223-2.27
		c-0.001-0.862-0.078-1.721-0.252-2.433L2.21,14.465c-0.032-0.131-0.049-0.274-0.048-0.427c-0.002-0.371,0.104-0.791,0.295-1.154
		c0.189-0.365,0.458-0.664,0.737-0.835l3.318-2.058c0.604-0.376,1.236-0.914,1.822-1.507C8.919,7.89,9.45,7.251,9.817,6.645
		l2.017-3.344c0.17-0.283,0.471-0.56,0.839-0.753c0.365-0.196,0.79-0.305,1.164-0.304c0.143,0,0.277,0.015,0.401,0.044L18.04,3.18
		c0.669,0.155,1.463,0.221,2.269,0.223c0.862-0.002,1.721-0.079,2.435-0.253l3.791-0.938c0.13-0.033,0.273-0.05,0.426-0.05
		c0.371-0.001,0.792,0.105,1.154,0.296c0.364,0.189,0.665,0.459,0.835,0.737l2.059,3.318c0.376,0.603,0.913,1.235,1.506,1.822
		c0.594,0.585,1.232,1.115,1.84,1.483l3.344,2.017c0.283,0.169,0.56,0.471,0.752,0.839c0.196,0.365,0.307,0.791,0.305,1.163
		c0.001,0.143-0.016,0.279-0.044,0.404v-0.002l-0.892,3.802c-0.155,0.668-0.223,1.463-0.224,2.269
		c0.002,0.861,0.078,1.72,0.253,2.436l0.938,3.789h-0.001c0.033,0.129,0.05,0.272,0.05,0.426
		C38.837,27.331,38.73,27.752,38.539,28.114"/>
	<path fill="none" stroke="#FFFFFF" stroke-miterlimit="10" d="M40.401,26.135l-0.938-3.791c-0.129-0.511-0.205-1.28-0.204-2.034
		c-0.001-0.705,0.065-1.41,0.18-1.889l0.891-3.801v-0.002c0.061-0.258,0.088-0.519,0.089-0.78c-0.003-0.679-0.184-1.347-0.498-1.943
		c-0.316-0.594-0.771-1.123-1.363-1.483l-3.344-2.017c-0.438-0.262-1.013-0.729-1.53-1.243c-0.521-0.512-0.994-1.08-1.262-1.514
		l-2.058-3.319c-0.363-0.582-0.89-1.026-1.479-1.334C28.294,0.677,27.633,0.5,26.961,0.5c-0.276,0-0.554,0.031-0.826,0.099
		l-3.79,0.938c-0.513,0.127-1.282,0.205-2.035,0.203c-0.705,0.002-1.41-0.066-1.888-0.179L14.62,0.67
		c-0.259-0.06-0.521-0.088-0.781-0.088c-0.68,0.001-1.349,0.183-1.943,0.498c-0.595,0.316-1.123,0.77-1.483,1.364L8.396,5.787
		c-0.263,0.437-0.729,1.012-1.243,1.53c-0.511,0.521-1.08,0.994-1.514,1.261L2.32,10.636c-0.583,0.363-1.027,0.89-1.336,1.48
		C0.676,12.707,0.501,13.368,0.5,14.04c0,0.275,0.031,0.553,0.098,0.826l0.939,3.79c0.127,0.512,0.204,1.281,0.202,2.035
		c0.002,0.704-0.065,1.41-0.179,1.889l-0.891,3.801l0.001-0.004c-0.062,0.263-0.089,0.525-0.09,0.785
		c0.002,0.681,0.184,1.348,0.499,1.943c0.316,0.594,0.77,1.123,1.363,1.483l3.345,2.017c0.437,0.263,1.012,0.729,1.53,1.242
		c0.52,0.512,0.993,1.081,1.26,1.515l2.058,3.318c0.363,0.583,0.89,1.026,1.479,1.335c0.591,0.307,1.252,0.483,1.925,0.484
		c0.275,0,0.552-0.03,0.825-0.099l3.791-0.938c0.511-0.128,1.281-0.205,2.035-0.203c0.705-0.001,1.41,0.065,1.889,0.179l3.802,0.892
		c0.258,0.061,0.52,0.088,0.78,0.088c0.681-0.001,1.349-0.184,1.944-0.498c0.593-0.316,1.123-0.771,1.483-1.363l2.017-3.344
		c0.262-0.438,0.729-1.012,1.242-1.53c0.511-0.52,1.08-0.994,1.514-1.261l3.319-2.059c0.583-0.362,1.025-0.89,1.334-1.479
		c0.307-0.591,0.482-1.252,0.483-1.924C40.498,26.686,40.401,26.135,40.401,26.135z M38.539,28.114
		c-0.188,0.364-0.458,0.664-0.735,0.835l-3.318,2.059c-0.604,0.376-1.234,0.914-1.822,1.507c-0.585,0.594-1.114,1.232-1.482,1.839
		l-2.018,3.343c-0.169,0.284-0.471,0.561-0.839,0.755c-0.365,0.194-0.791,0.305-1.164,0.303c-0.143,0-0.278-0.016-0.4-0.043
		l-3.803-0.893c-0.669-0.154-1.463-0.221-2.269-0.223c-0.862,0.002-1.721,0.078-2.435,0.253l-3.79,0.938
		c-0.13,0.031-0.274,0.049-0.426,0.049c-0.372,0.002-0.792-0.105-1.155-0.296c-0.364-0.189-0.664-0.458-0.834-0.736l-2.059-3.318
		c-0.375-0.603-0.913-1.234-1.505-1.821c-0.594-0.585-1.233-1.115-1.84-1.484L3.3,29.163c-0.284-0.168-0.56-0.472-0.753-0.839
		c-0.197-0.365-0.306-0.79-0.304-1.163c-0.001-0.146,0.014-0.278,0.043-0.398V26.76l0.892-3.802c0.156-0.669,0.222-1.463,0.223-2.27
		c-0.001-0.862-0.078-1.721-0.252-2.433L2.21,14.465c-0.032-0.131-0.049-0.274-0.048-0.427c-0.002-0.371,0.104-0.791,0.295-1.154
		c0.189-0.365,0.458-0.664,0.737-0.835l3.318-2.058c0.604-0.376,1.236-0.914,1.822-1.507C8.919,7.89,9.45,7.251,9.817,6.645
		l2.017-3.344c0.17-0.283,0.471-0.56,0.839-0.753c0.365-0.196,0.79-0.305,1.164-0.304c0.143,0,0.277,0.015,0.401,0.044L18.04,3.18
		c0.669,0.155,1.463,0.221,2.269,0.223c0.862-0.002,1.721-0.079,2.435-0.253l3.791-0.938c0.13-0.033,0.273-0.05,0.426-0.05
		c0.371-0.001,0.792,0.105,1.154,0.296c0.364,0.189,0.665,0.459,0.835,0.737l2.059,3.318c0.376,0.603,0.913,1.235,1.506,1.822
		c0.594,0.585,1.232,1.115,1.84,1.483l3.344,2.017c0.283,0.169,0.56,0.471,0.752,0.839c0.196,0.365,0.307,0.791,0.305,1.163
		c0.001,0.143-0.016,0.279-0.044,0.404v-0.002l-0.892,3.802c-0.155,0.668-0.223,1.463-0.224,2.269
		c0.002,0.861,0.078,1.72,0.253,2.436l0.938,3.789h-0.001c0.033,0.129,0.05,0.272,0.05,0.426
		C38.837,27.331,38.73,27.752,38.539,28.114z"/>
</g>
</svg>
