<?xml version="1.0" encoding="UTF-8"?>
<svg width="87px" height="64px" viewBox="0 0 87 64" version="1.1" xmlns="http://www.w3.org/2000/svg" xmlns:xlink="http://www.w3.org/1999/xlink">
    <!-- Generator: Sketch 49.3 (51167) - http://www.bohemiancoding.com/sketch -->
    <title>Instant Delivery</title>
    <desc>Created with Sketch.</desc>
    <defs>
        <polygon id="path-1" points="0.0127317073 0.124064725 86.9155463 0.124064725 86.9155463 63.7510421 0.0127317073 63.7510421"></polygon>
    </defs>
    <g id="Page-1" stroke="none" stroke-width="1" fill="none" fill-rule="evenodd">
        <g id="Buy-Instagram-Views-Assets" transform="translate(-732.000000, -594.000000)">
            <g id="Instant-Delivery" transform="translate(732.000000, 594.000000)">
                <g id="Group-4">
                    <mask id="mask-2" fill="white">
                        <use xlink:href="#path-1"></use>
                    </mask>
                    <g id="Clip-2"></g>
                    <path d="M25.3498902,26.6353916 C25.8131122,26.6353916 26.2765463,26.463068 26.6304878,26.1175922 C27.337522,25.4274693 27.337522,24.3086084 26.6304878,23.6184854 L21.7283561,18.8344337 L21.7283561,8.96144984 C21.7283561,7.98488026 20.9186195,7.19368285 19.9181195,7.19368285 C18.9167707,7.19368285 18.1070341,7.98488026 18.1070341,8.96144984 L18.1070341,19.5657735 C18.1070341,20.0351068 18.2984341,20.4841424 18.637522,20.8159482 L24.0701415,26.1175922 C24.4240829,26.463068 24.8864561,26.6353916 25.3498902,26.6353916 Z" id="Fill-1" fill="#FFFFFF" mask="url(#mask-2)"></path>
                    <path d="M86.3850585,32.4558706 L71.8984976,18.3166343 C71.5594098,17.9850356 71.0993707,17.798835 70.6187488,17.798835 L57.9432732,17.798835 L57.9432732,12.4963625 C57.9432732,11.5197929 57.1335366,10.7283883 56.1321878,10.7283883 L37.637261,10.7283883 C34.3325341,4.44375405 27.6384146,0.124064725 19.9181195,0.124064725 C8.93702195,0.124064725 0,8.84587702 0,19.5657735 C0,28.4460324 6.13965366,35.9371392 14.4857122,38.2535663 L14.4857122,49.6120129 C14.4857122,53.510835 17.7356927,56.6816311 21.7283561,56.6816311 L21.9116927,56.6816311 C22.7530463,60.7107314 26.4091683,63.7510421 30.7822976,63.7510421 C35.155639,63.7510421 38.811761,60.7107314 39.6531146,56.6816311 L61.7479317,56.6816311 C62.5892854,60.7107314 66.2454073,63.7510421 70.6187488,63.7510421 C74.991878,63.7510421 78.6482122,60.7107314 79.4893537,56.6816311 L85.1042488,56.6816311 C86.1047488,56.6816311 86.9155463,55.891055 86.9155463,54.9144854 L86.9155463,33.7050097 C86.9155463,33.2356764 86.7239341,32.7866408 86.3850585,32.4558706 Z M3.62132195,19.5657735 C3.62132195,10.7940453 10.9314439,3.65897735 19.9181195,3.65897735 C28.9041585,3.65897735 36.2149171,10.7948738 36.2149171,19.5657735 C36.2149171,28.3368803 28.9041585,35.4727767 19.9181195,35.4727767 C10.9314439,35.4727767 3.62132195,28.3377087 3.62132195,19.5657735 Z M30.7822976,60.2163366 C27.786739,60.2163366 25.3498902,57.8386019 25.3498902,54.9144854 C25.3498902,51.9905761 27.786739,49.6120129 30.7822976,49.6120129 C33.7780683,49.6120129 36.2149171,51.9905761 36.2149171,54.9144854 C36.2149171,57.8386019 33.7780683,60.2163366 30.7822976,60.2163366 Z M54.3219512,53.1467184 L39.6531146,53.1467184 C38.811761,49.1184466 35.155639,46.0771003 30.7822976,46.0771003 C26.4091683,46.0771003 22.7530463,49.1184466 21.9116927,53.1467184 L21.7283561,53.1467184 C19.7307512,53.1467184 18.1070341,51.5610097 18.1070341,49.6120129 L18.1070341,38.9177994 C18.7045756,38.9712362 19.3072098,39.0076893 19.9181195,39.0076893 C30.8992171,39.0076893 39.836239,30.285877 39.836239,19.5657735 C39.836239,17.7261359 39.5552927,15.9517411 39.0638488,14.2641294 L54.3219512,14.2641294 L54.3219512,53.1467184 Z M70.6187488,60.2163366 C67.6231902,60.2163366 65.1861293,57.8386019 65.1861293,54.9144854 C65.1861293,51.9905761 67.6231902,49.6120129 70.6187488,49.6120129 C73.6143073,49.6120129 76.0503073,51.9905761 76.0503073,54.9144854 C76.0503073,57.8386019 73.6143073,60.2163366 70.6187488,60.2163366 Z M83.2940122,53.1467184 L79.4893537,53.1467184 C78.6482122,49.1184466 74.991878,46.0771003 70.6187488,46.0771003 C66.2454073,46.0771003 62.5892854,49.1184466 61.7479317,53.1467184 L57.9432732,53.1467184 L57.9432732,21.3337476 L69.8694878,21.3337476 L83.2940122,34.437178 L83.2940122,53.1467184 Z" id="Fill-3" fill="#FFFFFF" mask="url(#mask-2)"></path>
                </g>
                <path d="M65.5999156,26.7495386 C65.5999156,25.7825858 64.7949655,25 63.8003797,25 C62.8049501,25 62,25.7825858 62,26.7495386 L62,37.249436 C62,38.2172092 62.8049501,39 63.8003797,39 L78.2004641,39 C79.194839,39 80,38.2172092 80,37.249436 C80,36.2826883 79.194839,35.4998975 78.2004641,35.4998975 L65.5999156,35.4998975 L65.5999156,26.7495386 Z" id="Fill-5" fill="#FFFFFF"></path>
            </g>
        </g>
    </g>
</svg>