<?xml version="1.0" encoding="utf-8"?>
<!-- Generator: Adobe Illustrator 16.0.0, SVG Export Plug-In . SVG Version: 6.00 Build 0)  -->
<!DOCTYPE svg PUBLIC "-//W3C//DTD SVG 1.1//EN" "http://www.w3.org/Graphics/SVG/1.1/DTD/svg11.dtd">
<svg version="1.1" id="Layer_1" xmlns="http://www.w3.org/2000/svg" xmlns:xlink="http://www.w3.org/1999/xlink" x="0px" y="0px"
	 width="24px" height="24px" viewBox="0 0 24 24" enable-background="new 0 0 24 24" xml:space="preserve">
<g>
	<path fill="#FFFFFF" d="M15.91,13.34l2.636-4.026l-0.454-0.406l-3.673,3.099c-0.675-0.138-1.401,0.068-1.894,0.618
		c-0.736,0.823-0.667,2.088,0.157,2.824c0.823,0.735,2.089,0.665,2.823-0.159C16,14.74,16.123,13.995,15.91,13.34 M12,2.694V0h4
		v2.694C14.561,2.451,13.408,2.456,12,2.694 M20.852,4.758l1.406-1.407l1.414,1.414l-1.32,1.321
		C21.889,5.602,21.387,5.159,20.852,4.758 M2,9h8v2H2V9z M0,13h8v2H0V13z M3,17h7v2H3V17z M24,14c0,5.523-4.477,10-10,10
		c-2.79,0-5.3-1.155-7.111-3h3.28c1.138,0.631,2.438,1,3.831,1c4.411,0,8-3.589,8-8s-3.589-8-8-8c-1.393,0-2.693,0.369-3.831,1
		h-3.28C8.7,5.155,11.21,4,14,4C19.523,4,24,8.477,24,14"/>
</g>
</svg>
