<?xml version="1.0" encoding="UTF-8"?>
<svg width="79px" height="73px" viewBox="0 0 79 73" version="1.1" xmlns="http://www.w3.org/2000/svg" xmlns:xlink="http://www.w3.org/1999/xlink">
    <!-- Generator: Sketch 49.3 (51167) - http://www.bohemiancoding.com/sketch -->
    <title>Persistent Support</title>
    <desc>Created with Sketch.</desc>
    <defs>
        <polygon id="path-1" points="0 0 79 0 79 73 0 73"></polygon>
    </defs>
    <g id="Page-1" stroke="none" stroke-width="1" fill="none" fill-rule="evenodd">
        <g id="Buy-Instagram-Views-Assets" transform="translate(-576.000000, -587.000000)">
            <g id="Persistent-Support" transform="translate(576.000000, 587.000000)">
                <mask id="mask-2" fill="white">
                    <use xlink:href="#path-1"></use>
                </mask>
                <g id="Clip-2"></g>
                <path d="M50.7963816,50.6078153 L50.7963816,49.2815502 C51.1851264,48.9787644 51.5582187,48.6469165 51.9177609,48.3011008 C54.7905947,45.2500378 56.5995198,41.4079918 57.0903569,37.3140749 C59.6730338,36.9346914 62.0001296,35.6005413 63.5796392,33.5941345 C65.7481065,30.6390438 65.9424789,26.3849477 64.132853,21.0501495 C64.0267892,20.7430832 63.8160633,20.4781456 63.5350176,20.3003941 L62.7129064,19.7671396 C62.8341555,14.9534304 61.1083994,10.2663325 57.8678466,6.60271394 C53.8460662,2.23439733 47.6717047,0.0281608858 39.4921766,0 C31.3292357,0 25.1389879,2.23439733 21.1174411,6.5457163 C17.8768884,10.2082085 16.1511323,14.8962075 16.2723814,19.7090155 L15.4502701,20.2431712 C15.1692244,20.4209227 14.9582649,20.6849592 14.8524348,20.9929266 C13.0428088,26.3567869 13.2371812,30.5809197 15.405415,33.5369116 C16.9788504,35.5566103 19.3059462,36.9065305 21.8949308,37.2998818 C22.3876369,41.4001068 24.2019353,45.2475596 27.0829458,48.3011008 C27.4387501,48.6462406 27.8130105,48.9735828 28.2045588,49.2815502 L28.2045588,50.6078153 C22.4771136,51.6752255 -0.384073822,56.8514216 0.00490464715,71.5577121 C0.00490464715,72.3541019 0.674695201,73 1.50054438,73 L77.5001623,73 C78.3253107,73 78.9951012,72.3541019 78.9951012,71.5577121 C79.3838461,56.8514216 56.5226586,51.6752255 50.7963816,50.6078153 Z M20.9968929,34.0843592 C19.7266971,33.6734356 18.6195686,32.8928158 17.8275944,31.8499619 L17.902353,31.8639297 C16.4074142,29.7590724 16.2723814,26.5723866 17.6030849,22.3624468 L18.6945608,21.6557212 C19.1543264,21.3599193 19.407104,20.8451383 19.3524367,20.3154883 C19.1015281,16.0059717 20.5541816,11.7651675 23.4197732,8.4491669 C26.7981621,4.75738741 32.2261055,2.91206088 39.4921766,2.88299885 C46.7589486,2.85483796 52.1861911,4.75738741 55.6257887,8.4491669 C58.4902122,11.7651675 59.9440338,16.0059717 59.6921907,20.3154883 C59.6382243,20.8451383 59.8910019,21.3599193 60.3500666,21.6557212 L61.4415425,22.3624468 C62.7720124,26.5584188 62.6827693,29.7590724 61.1422744,31.8639297 C60.3456278,32.9076848 59.233126,33.6883045 57.9582578,34.0992282 C59.761576,32.1200811 60.6430269,29.5135095 60.3949217,26.8900414 C60.1145769,25.3112295 59.2613941,23.8804312 57.9874604,22.8524462 C57.3450035,8.43407267 46.8640779,6.81921483 42.348657,6.81921483 C41.3922138,6.81673667 40.4376396,6.8843228 39.4921766,7.02174792 C38.5476481,6.8843228 37.5921395,6.81673667 36.6366308,6.81921483 C32.1513469,6.81921483 21.6849058,8.40501063 20.9968929,22.8524462 C19.7157169,23.8725461 18.8513203,25.2981628 18.5602289,26.8751724 C18.3111893,29.4993164 19.1926402,32.1070145 20.9968929,34.0843592 Z M55.0125344,22.2610676 C48.7384168,22.611389 42.5037811,21.1021908 37.1449894,17.9357808 C36.5389773,17.5257583 35.7112592,17.6048341 35.2012652,18.1232197 C32.2106866,21.2236206 26.7535406,21.944314 24.1225042,22.1026908 C24.9291965,11.9093513 31.3292357,9.68914703 36.711623,9.68914703 C37.5685438,9.68283899 38.4235955,9.7506504 39.2686016,9.89055368 C39.4657775,9.92930306 39.6692611,9.92930306 39.866437,9.89055368 C40.7105086,9.7506504 41.5664949,9.68283899 42.4234156,9.68914703 C47.7611814,9.68914703 54.1901895,11.9665742 54.9375421,22.2470998 L55.0125344,22.2610676 Z M24.6453474,34.3589842 L24.7056215,34.372952 C24.708425,34.0174489 24.5750275,33.6734356 24.3313611,33.4066957 C22.2827412,31.1432363 21.3410162,29.0814089 21.5956627,27.3802661 C21.7169119,26.4324833 22.2023757,25.5631004 22.9562697,24.943561 C24.9291965,24.943561 31.9268374,24.582651 36.4121213,20.8487429 C41.464169,23.6490614 47.1825029,25.139786 53.0092369,25.1740296 C54.0105352,25.1740296 55.0270189,25.1740296 56.0892922,25.0156528 C56.8221603,25.6185211 57.3003819,26.459743 57.4344802,27.3802661 C57.6891268,29.0523468 56.7471681,31.1432363 54.6985482,33.4066957 C54.4548818,33.6734356 54.321718,34.0174489 54.3242878,34.372952 L54.3242878,35.1227074 L45.6228511,39.6214652 C43.8963941,38.0444556 41.1705078,38.1165475 39.5351628,39.7816443 C37.9005188,41.4474171 37.9745766,44.0753909 39.701968,45.6524005 C41.4286586,47.228509 44.154545,47.157093 45.7889554,45.4913203 C46.5472882,44.7194867 46.9689736,43.6978098 46.9680391,42.63468 C46.9752814,42.5053652 46.9752814,42.3751493 46.9680391,42.2456092 L53.8315817,38.6982387 C53.2419231,41.5415871 51.8567859,44.1747425 49.8245194,46.3113653 C47.1733917,48.7719508 43.5859122,50.0664504 39.9110586,49.8868966 L39.1637059,49.8868966 C35.4967954,50.0630711 31.9167917,48.7746543 29.2658976,46.3255584 C24.5404517,41.7837707 24.6453474,34.431076 24.6453474,34.3589842 Z M43.978395,42.63468 C43.978395,43.3432079 43.3824286,43.91769 42.6469906,43.91769 C41.9122535,43.91769 41.3165207,43.3432079 41.3165207,42.63468 C41.3165207,41.9261521 41.9122535,41.3516701 42.6469906,41.3516701 C43.3824286,41.3516701 43.978395,41.9261521 43.978395,42.63468 Z M37.9974714,70.0300403 L3.04010481,70.0300403 C4.22175833,59.2011659 22.4771136,54.6742472 28.1889062,53.5065842 L28.1889062,56.0867973 C28.1889062,59.3595428 32.3155823,61.854372 37.9974714,62.2725048 L37.9974714,70.0300403 Z M31.1794848,56.0867973 L31.1794848,51.112909 C33.6645082,52.2242501 36.3794144,52.7762035 39.1188508,52.7277668 L39.866437,52.7277668 C42.6058734,52.7762035 45.3207795,52.2242501 47.8058029,51.112909 L47.8058029,56.0867973 C47.8058029,57.4569933 44.5615123,59.4318599 39.4921766,59.4318599 C34.4237755,59.4318599 31.1794848,57.4569933 31.1794848,56.0867973 Z M40.9878164,70.0730702 L40.9878164,62.2583117 C46.6697055,61.883434 50.7963816,59.374637 50.7963816,56.0726042 L50.7963816,53.5496141 C56.5527957,54.7024081 74.7186742,59.230228 75.9451829,70.0730702 L40.9878164,70.0730702 Z" id="Fill-1" fill="#FFFFFF" mask="url(#mask-2)"></path>
            </g>
        </g>
    </g>
</svg>