<?xml version="1.0" encoding="utf-8"?>
<!-- Generator: Adobe Illustrator 16.0.0, SVG Export Plug-In . SVG Version: 6.00 Build 0)  -->
<!DOCTYPE svg PUBLIC "-//W3C//DTD SVG 1.1//EN" "http://www.w3.org/Graphics/SVG/1.1/DTD/svg11.dtd">
<svg version="1.1" id="Layer_1" xmlns="http://www.w3.org/2000/svg" xmlns:xlink="http://www.w3.org/1999/xlink" x="0px" y="0px"
	 width="40px" height="39.988px" viewBox="0 0 40 39.988" enable-background="new 0 0 40 39.988" xml:space="preserve">
<g>
	<path fill="#FFFFFF" d="M20.002,0C14.881,0,9.76,1.949,5.846,5.862c-7.795,7.795-7.795,20.469,0,28.28
		c7.811,7.794,20.501,7.794,28.296,0c7.812-7.812,7.812-20.485,0-28.28C30.245,1.949,25.123,0,20.002,0 M20.002,1.804
		c3.785,0,7.585,1.191,10.774,3.559l-5.234,5.25c-1.707-0.999-3.623-1.514-5.54-1.514c-1.916,0-3.833,0.515-5.54,1.514l-5.25-5.25
		C12.417,2.995,16.201,1.804,20.002,1.804 M5.347,9.228l5.266,5.234c-2.013,3.398-2.013,7.682,0,11.081l-5.266,5.25
		C0.628,24.382,0.628,15.621,5.347,9.228 M34.641,9.228c4.72,6.393,4.72,15.154,0,21.564l-5.25-5.25
		c1.997-3.398,1.997-7.683,0-11.081L34.641,9.228z M20.002,10.903c2.319,0,4.654,0.885,6.426,2.673c3.56,3.543,3.56,9.292,0,12.852
		c-3.559,3.559-9.309,3.559-12.868,0c-3.559-3.56-3.559-9.309,0-12.852C15.348,11.788,17.667,10.903,20.002,10.903z M14.446,29.407
		h0.016c3.398,2.014,7.666,2.014,11.08,0h0.016l5.219,5.234c-6.394,4.735-15.17,4.735-21.564,0L14.446,29.407z"/>
</g>
</svg>
