<?xml version="1.0" encoding="UTF-8"?>
<svg width="73px" height="73px" viewBox="0 0 73 73" version="1.1" xmlns="http://www.w3.org/2000/svg" xmlns:xlink="http://www.w3.org/1999/xlink">
    <!-- Generator: Sketch 49.3 (51167) - http://www.bohemiancoding.com/sketch -->
    <title>Quality</title>
    <desc>Created with Sketch.</desc>
    <defs>
        <polygon id="path-1" points="0.0118699187 0 72.8079051 0 72.8079051 73 0.0118699187 73"></polygon>
    </defs>
    <g id="Page-1" stroke="none" stroke-width="1" fill="none" fill-rule="evenodd">
        <g id="Buy-Instagram-Views-Assets" transform="translate(-352.000000, -582.000000)">
            <g id="Quality" transform="translate(352.000000, 582.000000)">
                <g id="Group-3">
                    <mask id="mask-2" fill="white">
                        <use xlink:href="#path-1"></use>
                    </mask>
                    <g id="Clip-2"></g>
                    <path d="M68.8738184,41.4925652 C69.4184499,43.469913 69.9326152,45.3377609 69.4435745,46.7834783 C68.9197154,48.3355217 67.3103523,49.5860435 65.6074146,50.9095652 C64.3015257,51.9252174 62.9499377,52.9757826 61.9623604,54.277087 C60.9605393,55.6037826 60.327477,57.1812174 59.715187,58.7094565 C58.9349377,60.6582391 58.1974201,62.4975217 56.841084,63.4465217 C55.4894959,64.3923478 53.4367913,64.5018478 51.2622222,64.6176957 C49.5640325,64.7081522 47.8057019,64.8017826 46.181897,65.3096087 C44.6293117,65.7968043 43.1922602,66.6934348 41.804271,67.563087 C39.9444526,68.727913 38.1894851,69.826087 36.4026667,69.826087 C34.6156504,69.826087 32.8622656,68.727913 31.002645,67.563087 C29.6162385,66.6950217 28.1807696,65.7968043 26.6266016,65.3096087 C25.0027967,64.8033696 23.2444661,64.7081522 21.5460786,64.6176957 C19.3717073,64.5018478 17.3172222,64.3907609 15.9672168,63.4465217 C14.6124634,62.4975217 13.8733631,60.6582391 13.0931138,58.7110435 C12.480626,57.1828043 11.845981,55.6037826 10.8425772,54.277087 C9.85658266,52.9757826 8.50499458,51.9252174 7.19772087,50.9079783 C5.49636585,49.5844565 3.88858537,48.3355217 3.36452846,46.7834783 C2.8754878,45.3377609 3.38985095,43.4683261 3.9327019,41.4909783 C4.37584553,39.8738696 4.83481572,38.2043913 4.83481572,36.498413 C4.83481572,34.7924348 4.37584553,33.1245435 3.9327019,31.5074348 C3.38826829,29.530087 2.8754878,27.6622391 3.36452846,26.2165217 C3.88858537,24.6644783 5.4947832,23.4155435 7.19613821,22.0920217 C8.50341192,21.0747826 9.85658266,20.0226304 10.8409946,18.7197391 C11.8475637,17.3930435 12.480626,15.8124348 13.0946965,14.2841957 C13.8733631,12.337 14.6108808,10.4993043 15.9640515,9.55347826 C17.3156396,8.60606522 19.3717073,8.49656522 21.5476612,8.38071739 C23.2442683,8.28867391 25.0025989,8.19504348 26.6248211,7.68721739 C28.1805718,7.2016087 29.6178211,6.30180435 31.007393,5.43215217 C32.8638482,4.27208696 34.6174309,3.17391304 36.4026667,3.17391304 C38.1877046,3.17391304 39.9430678,4.27208696 41.8011057,5.43532609 C43.1904797,6.30656522 44.6261463,7.20478261 46.181897,7.6903913 C47.8041192,8.19663043 49.5608672,8.29026087 51.2590569,8.38230435 C53.4352087,8.49815217 55.4894959,8.61082609 56.841084,9.55665217 C58.1958374,10.5056522 58.933355,12.3433478 59.7120217,14.2873696 C60.3260921,15.8171957 60.9575718,17.3962174 61.9641409,18.722913 C62.9501355,20.0242174 64.3017236,21.0747826 65.6074146,22.0904348 C67.3103523,23.4155435 68.9199133,24.6660652 69.4437724,26.2212826 C69.932813,27.6638261 69.4168672,29.5316739 68.8740163,31.5090217 C68.42929,33.1261304 67.9703198,34.7956087 67.9703198,36.501587 C67.9703198,38.2075652 68.4277073,39.8770435 68.8738184,41.4925652 Z M72.4413225,25.2024565 C71.6120108,22.7426739 69.5448645,21.135087 67.546168,19.5830435 C66.3480976,18.6515 65.2164986,17.7723261 64.4821463,16.8042826 C63.7351328,15.8171957 63.2065257,14.5000217 62.6494309,13.105087 C61.72971,10.8135217 60.7803144,8.4426087 58.6530271,6.95404348 C56.5609539,5.48769565 53.949374,5.34645652 51.4284011,5.21156522 C49.8552412,5.12745652 48.3673469,5.04652174 47.1217967,4.65771739 C45.9569621,4.29430435 44.7509783,3.5405 43.4753577,2.74226087 C41.4228509,1.45682609 39.0947642,0 36.4026667,0 C33.7105691,0 31.3824824,1.45682609 29.3297778,2.74384783 C28.0541572,3.54208696 26.8513388,4.29747826 25.6849214,4.65930435 C24.4377886,5.0481087 22.9500921,5.12904348 21.3769322,5.21315217 C18.853981,5.34963043 16.2457642,5.48928261 14.1519106,6.95563043 C12.0248211,8.44419565 11.0752276,10.8135217 10.1557046,13.105087 C9.59544444,14.5000217 9.0668374,15.8187826 8.31982385,16.8058696 C7.58547154,17.777087 6.45407046,18.6562609 5.25580217,19.5893913 C3.25849051,21.1430217 1.19490515,22.7474348 0.365593496,25.2040435 C-0.433845528,27.5701957 0.234233062,30.001413 0.87995664,32.3548696 C1.28669919,33.8323261 1.66950407,35.2272609 1.66950407,36.501587 C1.66950407,37.775913 1.28669919,39.1724348 0.87995664,40.6498913 C0.234233062,43.0017609 -0.433845528,45.4345652 0.365593496,47.8023043 C1.19490515,50.258913 3.26007317,51.8665 5.25758266,53.4185435 C6.45565312,54.3485 7.5870542,55.2292609 8.31982385,56.1973043 C9.06842005,57.1843913 9.5970271,58.5015652 10.1557046,59.898087 C11.0752276,62.1896522 12.0264038,64.5605652 14.1550759,66.0523043 C16.2457642,67.5154783 18.8555637,67.6551304 21.3769322,67.7900217 C22.9500921,67.8741304 24.4377886,67.9550652 25.6833388,68.3438696 C26.8481734,68.7072826 28.0525745,69.461087 29.3266125,70.2577391 C31.3808997,71.541587 33.7089864,73 36.4026667,73 C39.0963469,73 41.4260163,71.541587 43.4818862,70.2561522 C44.7559241,69.4595 45.9585447,68.7056957 47.1251599,68.3422826 C48.37071,67.9534783 49.8584065,67.8725435 51.4315664,67.7884348 C53.9543198,67.6535435 56.5625366,67.5138913 58.6532249,66.0507174 C60.7850623,64.5589783 61.7346558,62.1848913 62.6541789,59.8917391 C63.2128564,58.4983913 63.7398808,57.1812174 64.483729,56.1973043 C65.2180813,55.2292609 66.3496802,54.3485 67.5477507,53.4185435 C69.546645,51.864913 71.6120108,50.258913 72.4429051,47.8007174 C73.2421463,45.4329783 72.5726829,43.0017609 71.9253767,40.6483043 C71.5186341,39.1708478 71.1356314,37.7743261 71.1356314,36.5 C71.1356314,35.2256739 71.5186341,33.8291522 71.9253767,32.3516957 C72.5726829,29.9998261 73.2405637,27.5670217 72.4413225,25.2024565 Z" id="Fill-1" fill="#FFFFFF" mask="url(#mask-2)"></path>
                </g>
                <path d="M36.5000979,56.8666667 C25.270278,56.8666667 16.1333203,47.7298667 16.1333203,36.5 C16.1333203,25.2701333 25.270278,16.1333333 36.5000979,16.1333333 C42.2918446,16.1333333 47.5135229,18.5757667 51.2267032,22.4705 L36.2964321,43.4810667 L28.2077658,35.3923667 C27.5952017,34.7798 26.6050725,34.7798 25.9925084,35.3923667 C25.3799443,36.0049333 25.3799443,36.9950667 25.9925084,37.6076333 L35.3924692,47.0076333 C35.6870013,47.3037333 36.0864996,47.4666667 36.5000979,47.4666667 C36.5423977,47.4666667 36.5878309,47.4651 36.6316974,47.4604 C37.090533,47.4228 37.5105937,47.1831 37.7767301,46.8071 L53.2819655,24.9865667 C55.5381519,28.2640333 56.8666797,32.2277 56.8666797,36.5 C56.8666797,47.7298667 47.7299178,56.8666667 36.5000979,56.8666667 Z M36.5000979,13 C23.5422519,13 13,23.5421 13,36.5 C13,49.4579 23.5422519,60 36.5000979,60 C49.4579439,60 60,49.4579 60,36.5 C60,23.5421 49.4579439,13 36.5000979,13 Z" id="Fill-4" fill="#FFFFFF"></path>
            </g>
        </g>
    </g>
</svg>