<?xml version="1.0" encoding="utf-8"?>
<!-- Generator: Adobe Illustrator 16.0.0, SVG Export Plug-In . SVG Version: 6.00 Build 0)  -->
<!DOCTYPE svg PUBLIC "-//W3C//DTD SVG 1.1//EN" "http://www.w3.org/Graphics/SVG/1.1/DTD/svg11.dtd">
<svg version="1.1" id="Layer_1" xmlns="http://www.w3.org/2000/svg" xmlns:xlink="http://www.w3.org/1999/xlink" x="0px" y="0px"
	 width="198.346px" height="193.173px" viewBox="0 0 198.346 193.173" enable-background="new 0 0 198.346 193.173"
	 xml:space="preserve">
<g>
	<path fill="#22D5DA" d="M99.173,120.737c33.289,0,60.377-27.08,60.377-60.377C159.55,27.08,132.462,0,99.173,0
		C65.876,0,38.787,27.08,38.787,60.36C38.787,93.658,65.876,120.737,99.173,120.737 M99.173,12.264
		c26.523,0,48.096,21.582,48.096,48.096c0,26.532-21.572,48.114-48.096,48.114c-26.523,0-48.105-21.582-48.105-48.114
		C51.068,33.846,72.65,12.264,99.173,12.264"/>
	<path fill="#22D5DA" d="M139.391,128.085H58.947C26.446,128.085,0,154.531,0,187.041c0,3.392,2.749,6.132,6.14,6.132
		c3.392,0,6.141-2.74,6.141-6.132c0-25.744,20.93-46.691,46.666-46.691h80.443c25.734,0,46.674,20.947,46.674,46.691
		c0,3.392,2.75,6.132,6.141,6.132s6.141-2.74,6.141-6.132C198.346,154.531,171.9,128.085,139.391,128.085"/>
	<path fill="#22D5DA" d="M69.31,57.517c2.826,0,5.37-1.953,5.995-4.847C78.114,39.635,90.36,34.822,91.68,34.342
		c2.86-0.513,5.018-3.014,5.018-6.029c0-3.391-2.749-6.132-6.14-6.132c-3.606,0-22.884,7.605-27.26,27.919
		c-0.711,3.306,1.396,6.578,4.71,7.28C68.445,57.482,68.882,57.517,69.31,57.517"/>
</g>
</svg>
