<?xml version="1.0" encoding="UTF-8"?>
<svg width="81px" height="65px" viewBox="0 0 81 65" version="1.1" xmlns="http://www.w3.org/2000/svg" xmlns:xlink="http://www.w3.org/1999/xlink">
    <!-- Generator: Sketch 49.3 (51167) - http://www.bohemiancoding.com/sketch -->
    <title>003-photo@2x</title>
    <desc>Created with Sketch.</desc>
    <defs></defs>
    <g id="Page-1" stroke="none" stroke-width="1" fill="none" fill-rule="evenodd">
        <g id="Steps" transform="translate(-305.000000, -146.000000)" fill="#44D6A9">
            <path d="M323,205 L378,205 C379.104569,205 380,204.104569 380,203 L380,164 C380,162.895431 379.104569,162 378,162 L323,162 C321.895431,162 321,162.895431 321,164 L321,203 C321,204.104569 321.895431,205 323,205 Z M320,211 L381,211 C383.761424,211 386,208.761424 386,206 L386,161 C386,158.238576 383.761424,156 381,156 L320,156 C317.238576,156 315,158.238576 315,161 L315,206 C315,208.761424 317.238576,211 320,211 Z M327,200 L375,200 L365.79958,172 L350.499685,192.000137 L340.299895,182.000481 L327,200 Z M331.999691,167 C329.23665,167 327,169.236259 327,171.999897 C327,174.763535 329.23665,177 331.999691,177 C334.763557,177 337,174.763535 337,171.999897 C337,169.236259 334.764381,167 331.999691,167 Z M305,152 L305,198 C305,199.656854 306.343146,201 308,201 L308,201 C309.656854,201 311,199.656854 311,198 L311,154 C311,152.895431 311.895431,152 313,152 L373,152 C374.656854,152 376,150.656854 376,149 L376,149 C376,147.343146 374.656854,146 373,146 L311,146 C307.686292,146 305,148.686292 305,152 Z" id="003-photo"></path>
        </g>
    </g>
</svg>