<?xml version="1.0" encoding="utf-8"?>
<!-- Generator: Adobe Illustrator 16.0.0, SVG Export Plug-In . SVG Version: 6.00 Build 0)  -->
<!DOCTYPE svg PUBLIC "-//W3C//DTD SVG 1.1//EN" "http://www.w3.org/Graphics/SVG/1.1/DTD/svg11.dtd">
<svg version="1.1" id="Layer_1" xmlns="http://www.w3.org/2000/svg" xmlns:xlink="http://www.w3.org/1999/xlink" x="0px" y="0px"
	 width="61.4px" height="61.4px" viewBox="0 0 61.4 61.4" enable-background="new 0 0 61.4 61.4" xml:space="preserve">
<g>
	<path fill="#22D5DA" d="M41.44,55.335c-3.648,1.51-7.162,2.244-10.74,2.244h-0.634l-0.006,0.063
		c-0.831,0.209-1.392,0.922-1.392,1.847c0,1.054,0.857,1.911,1.91,1.911c4.151,0,8.387-0.856,12.234-2.471
		c0.441-0.176,0.79-0.519,0.981-0.966c0.195-0.453,0.209-0.977,0.042-1.446C43.62,55.486,42.5,54.911,41.44,55.335z"/>
	<path fill="#22D5DA" d="M3.82,30.7c0-1.107-0.804-1.91-1.911-1.91C0.856,28.79,0,29.646,0,30.7c0,4.255,0.9,8.496,2.614,12.29
		c0.359,0.717,0.969,1.112,1.715,1.112c0.171,0,0.542,0,0.851-0.218c0.87-0.417,1.268-1.484,0.884-2.444
		C4.554,37.789,3.82,34.276,3.82,30.7z"/>
	<path fill="#22D5DA" d="M58.178,39.485c-0.998-0.397-2.159,0.143-2.479,1.109c-1.494,3.61-3.519,6.708-6.018,9.207
		c-0.366,0.366-0.568,0.844-0.568,1.343c0,0.498,0.202,0.976,0.569,1.343c0.346,0.344,0.872,0.566,1.341,0.566
		c0.527,0,0.954-0.18,1.332-0.558c2.896-2.78,5.229-6.32,6.938-10.523l0.038-0.126C59.505,40.972,59.165,39.88,58.178,39.485z"/>
	<path fill="#22D5DA" d="M20.927,55.699c-3.613-1.496-6.71-3.521-9.208-6.018c-0.732-0.732-1.952-0.732-2.684,0
		c-0.367,0.366-0.568,0.843-0.568,1.342c0,0.498,0.202,0.975,0.568,1.341c2.969,2.969,6.506,5.3,10.513,6.928l0.127,0.052h0.048
		c0.113,0.046,0.308,0.121,0.573,0.121c0.869,0,1.58-0.504,1.779-1.31C22.263,57.036,21.798,56.047,20.927,55.699z"/>
	<path fill="#22D5DA" d="M19.208,6.239c0.171,0,0.543,0,0.852-0.219c3.333-1.48,6.814-2.2,10.641-2.2c1.106,0,1.91-0.803,1.91-1.91
		C32.61,0.856,31.753,0,30.7,0c-4.254,0-8.495,0.9-12.236,2.591c-0.474,0.189-0.835,0.565-1.017,1.057
		c-0.169,0.46-0.162,0.966-0.007,1.334C17.628,5.734,18.338,6.239,19.208,6.239z"/>
	<path fill="#22D5DA" d="M40.473,5.702c3.613,1.496,6.711,3.52,9.207,6.016c0.345,0.346,0.872,0.569,1.343,0.569
		c0.47,0,0.996-0.223,1.342-0.568c0.366-0.366,0.568-0.843,0.568-1.341c0-0.499-0.202-0.976-0.568-1.342
		c-2.971-2.97-6.509-5.301-10.517-6.929c-0.923-0.368-2.106,0.171-2.482,1.115C38.984,4.173,39.495,5.31,40.473,5.702z"/>
	<path fill="#22D5DA" d="M58.81,18.464c-0.377-0.944-1.559-1.483-2.482-1.115c-0.475,0.189-0.835,0.565-1.017,1.058
		c-0.17,0.46-0.162,0.966,0.033,1.451c1.484,3.313,2.237,6.92,2.237,10.722V30.7c0,1.106,0.803,1.91,1.909,1.91
		s1.91-0.804,1.91-1.91C61.4,26.386,60.524,22.26,58.81,18.464z"/>
	<path fill="#22D5DA" d="M3.223,21.914l0.125,0.05h0.045c0.113,0.046,0.309,0.121,0.573,0.121c0.847,0,1.543-0.479,1.752-1.199
		c1.492-3.593,3.511-6.677,6-9.167c0.366-0.367,0.568-0.843,0.568-1.342c0-0.5-0.202-0.976-0.568-1.342
		c-0.733-0.733-1.952-0.732-2.684,0c-2.969,2.969-5.299,6.507-6.929,10.517c-0.192,0.479-0.165,0.994,0.077,1.45
		C2.398,21.409,2.768,21.732,3.223,21.914z"/>
	<path fill="#22D5DA" d="M30.7,16.089c-8.057,0-14.611,6.555-14.611,14.611c0,8.057,6.555,14.611,14.611,14.611
		S45.312,38.756,45.312,30.7C45.312,22.644,38.757,16.089,30.7,16.089z M30.7,41.492c-5.951,0-10.792-4.841-10.792-10.792
		c0-5.951,4.841-10.792,10.792-10.792c5.951,0,10.792,4.841,10.792,10.792C41.492,36.651,36.651,41.492,30.7,41.492z"/>
</g>
</svg>
