<?xml version="1.0" encoding="utf-8"?>
<!-- Generator: Adobe Illustrator 16.0.0, SVG Export Plug-In . SVG Version: 6.00 Build 0)  -->
<!DOCTYPE svg PUBLIC "-//W3C//DTD SVG 1.1//EN" "http://www.w3.org/Graphics/SVG/1.1/DTD/svg11.dtd">
<svg version="1.1" id="Layer_1" xmlns="http://www.w3.org/2000/svg" xmlns:xlink="http://www.w3.org/1999/xlink" x="0px" y="0px"
	 width="82.187px" height="61.4px" viewBox="0 0 82.187 61.4" enable-background="new 0 0 82.187 61.4" xml:space="preserve">
<g>
	<path fill="#22D5DA" d="M75.133,0H7.054C3.165,0,0,3.165,0,7.054v47.292c0,3.89,3.165,7.055,7.054,7.055h68.079
		c3.89,0,7.055-3.165,7.055-7.055V7.054C82.188,3.165,79.022,0,75.133,0z M75.133,58.184H7.054c-2.117,0-3.839-1.722-3.839-3.838
		V7.045c0-2.117,1.722-3.839,3.839-3.839l68.079,0.009c2.116,0,3.838,1.722,3.838,3.839v47.292
		C78.971,56.462,77.249,58.184,75.133,58.184z"/>
	<path fill="#22D5DA" d="M53.217,11.791c-4.481,0-8.729,1.567-12.127,4.419c-3.285-2.752-7.512-4.417-12.125-4.419
		c-10.421,0-18.903,8.478-18.908,18.898c-0.005,10.427,8.473,18.914,18.899,18.919h0.001c4.61-0.005,8.838-1.674,12.125-4.431
		c3.394,2.859,7.64,4.431,12.125,4.431h0.022c4.982-0.003,9.685-1.928,13.24-5.42c7.438-7.307,7.545-19.302,0.238-26.74
		C63.123,13.801,58.332,11.791,53.217,11.791z M44.659,30.699c-0.005,8.644-7.041,15.68-15.693,15.685
		c-8.648,0-15.688-7.036-15.693-15.685c-0.005-8.477,6.748-15.41,15.158-15.693l0.525,0C37.606,15.011,44.65,22.052,44.659,30.699z
		 M47.875,30.7c0-4.657-1.701-8.919-4.506-12.219c2.783-2.253,6.23-3.479,9.855-3.479c4.144,0,8.052,1.6,11.005,4.505
		c2.989,2.939,4.654,6.867,4.688,11.059s-1.566,8.146-4.506,11.134c-2.974,3.023-6.947,4.688-11.188,4.688
		c-3.627,0-7.074-1.228-9.86-3.483C46.165,39.608,47.868,35.35,47.875,30.7z M53.207,48.908L53.207,48.908L53.207,48.908
		L53.207,48.908z"/>
</g>
</svg>
