<?xml version="1.0" encoding="utf-8"?>
<!-- Generator: Adobe Illustrator 16.0.0, SVG Export Plug-In . SVG Version: 6.00 Build 0)  -->
<!DOCTYPE svg PUBLIC "-//W3C//DTD SVG 1.1//EN" "http://www.w3.org/Graphics/SVG/1.1/DTD/svg11.dtd">
<svg version="1.1" id="Layer_1" xmlns="http://www.w3.org/2000/svg" xmlns:xlink="http://www.w3.org/1999/xlink" x="0px" y="0px"
	 width="60px" height="60px" viewBox="0 0 60 60" enable-background="new 0 0 60 60" xml:space="preserve">
<g>
	<path fill="#22D5DA" d="M52.302,60H7.7C3.454,60,0,56.545,0,52.301V7.7C0,3.455,3.454,0,7.7,0h44.602
		c4.244,0,7.697,3.455,7.697,7.7v44.601C59.999,56.546,56.546,60,52.302,60 M7.7,3.08c-2.548,0-4.62,2.072-4.62,4.62v44.601
		c0,2.546,2.072,4.619,4.62,4.619h44.602c2.545,0,4.619-2.072,4.619-4.619V7.7c0-2.548-2.074-4.62-4.619-4.62H7.7z"/>
	<path fill="#22D5DA" d="M52.301,60H23.64c-0.623,0-1.185-0.376-1.423-0.95c-0.238-0.577-0.107-1.238,0.333-1.679l22.836-22.833
		c1.454-1.455,3.388-2.257,5.445-2.257c2.056,0,3.989,0.801,5.444,2.255l3.273,3.274C59.838,38.099,60,38.489,60,38.898v13.402
		C60,56.546,56.546,60,52.301,60 M27.358,56.92h24.944c2.545,0,4.619-2.072,4.619-4.619V39.536l-2.823-2.822
		c-1.743-1.744-4.788-1.743-6.532,0.002L27.358,56.92z"/>
	<path fill="#22D5DA" d="M52.301,60H7.7C3.454,60,0,56.545,0,52.301v-5.619c0-0.409,0.163-0.8,0.452-1.088l20.297-20.296
		c1.454-1.455,3.388-2.256,5.444-2.256c2.056,0,3.99,0.8,5.444,2.254l23.956,23.957c2.352,2.354,2.911,5.939,1.391,8.928
		c-0.124,0.242-0.311,0.448-0.541,0.597C55.191,59.576,53.76,60,52.301,60 M3.08,47.319v4.982c0,2.546,2.072,4.618,4.62,4.618
		h44.601c0.73,0,1.454-0.181,2.113-0.524c0.686-1.708,0.308-3.657-1-4.965L29.458,27.474c-1.744-1.744-4.787-1.743-6.531,0.001
		L3.08,47.319z"/>
	<path fill="#22D5DA" d="M43.131,26.123c-5.095,0-9.238-4.145-9.238-9.24c0-5.095,4.145-9.239,9.238-9.239
		c5.096,0,9.24,4.144,9.24,9.239C52.371,21.978,48.227,26.123,43.131,26.123 M43.131,10.723c-3.396,0-6.159,2.762-6.159,6.159
		s2.763,6.16,6.159,6.16c3.397,0,6.161-2.763,6.161-6.16S46.528,10.723,43.131,10.723"/>
</g>
</svg>
