<?xml version="1.0" encoding="UTF-8"?>
<svg width="84px" height="55px" viewBox="0 0 84 55" version="1.1" xmlns="http://www.w3.org/2000/svg" xmlns:xlink="http://www.w3.org/1999/xlink">
    <!-- Generator: Sketch 49.3 (51167) - http://www.bohemiancoding.com/sketch -->
    <title>Credit crad@2x</title>
    <desc>Created with Sketch.</desc>
    <defs></defs>
    <g id="Page-1" stroke="none" stroke-width="1" fill="none" fill-rule="evenodd">
        <g id="Steps" transform="translate(-487.000000, -152.000000)" fill="#44D6A9">
            <g id="Credit-crad" transform="translate(487.000000, 151.000000)">
                <path d="M18.278,37.476 L29.078,37.476 C30.918,37.476 32.36,36.039 32.36,34.199 C32.36,32.359 30.918,31 29.078,31 L18.278,31 C16.438,31 15,32.437 15,34.277 C15,36.117 16.52,37.476 18.278,37.476 Z" id="Path"></path>
                <path d="M79.8424841,0.999 C81.6833353,0.999 83.121,2.519 83.121,4.28 L83.121,52.441 C83.121,54.28 81.6833353,55.722 79.8424841,55.722 L3.4815538,55.722 C1.64170312,55.722 0.199036081,54.28 0.199036081,52.441 L0.199036081,22.12 C0.121,21.878 0.121,21.64 0.121,21.402 C0.121,21.159 0.121,20.921 0.199036081,20.679 L0.199036081,4.28 C0.199036081,2.441 1.64170312,0.999 3.4815538,0.999 L79.8424841,0.999 Z M5.71386719,49.999 L77.762,49.999 L77.762,23.999 L5.71386719,23.999 L5.71386719,49.999 Z M5.71386719,18.198 L77.5138044,18.198 L77.5138044,6.999 L5.71386719,6.999 L5.71386719,18.198 Z" id="Combined-Shape"></path>
            </g>
        </g>
    </g>
</svg>