<?xml version="1.0" encoding="UTF-8"?>
<svg width="71px" height="61px" viewBox="0 0 71 61" version="1.1" xmlns="http://www.w3.org/2000/svg" xmlns:xlink="http://www.w3.org/1999/xlink">
    <!-- Generator: Sketch 49.3 (51167) - http://www.bohemiancoding.com/sketch -->
    <title>Select@2x</title>
    <desc>Created with Sketch.</desc>
    <defs></defs>
    <g id="Page-1" stroke="none" stroke-width="1" fill="none" fill-rule="evenodd">
        <g id="Steps" transform="translate(-100.000000, -146.000000)" fill="#44D6A9">
            <path d="M169.953416,151.028261 C171.348464,152.39869 171.348464,154.62191 169.955797,155.990584 L135.383125,189.972324 C134.713573,190.630341 133.804768,191 132.858469,191 C131.912169,191 131.003364,190.630341 130.333812,189.972324 L113.046286,172.982624 C111.651238,171.61161 111.651238,169.39073 113.046286,168.019716 C114.438954,166.649286 116.701145,166.649286 118.095598,168.019716 L132.858469,182.528254 L164.904104,151.028261 C166.299152,149.657246 168.558368,149.657246 169.953416,151.028261 Z M159.829789,177.777072 C159.829789,173.245405 166,173.154498 166,177.777072 L166,203.469214 C166,205.418208 164.39447,207 162.414894,207 L103.585106,207 C101.606127,207 100,205.418208 100,203.469214 L100,149.530786 C100,147.581204 101.606127,146 103.585106,146 L148.074472,146 C152.79753,146 153.354586,152.061571 148.074472,152.061571 L106.170211,152.061571 L106.170211,200.938429 L159.829789,200.938429 L159.829789,177.777072 Z" id="Select"></path>
        </g>
    </g>
</svg>