<?xml version="1.0" encoding="UTF-8"?>
<svg width="379px" height="202px" viewBox="0 0 379 202" version="1.1" xmlns="http://www.w3.org/2000/svg" xmlns:xlink="http://www.w3.org/1999/xlink">
    <!-- Generator: Sketch 49.3 (51167) - http://www.bohemiancoding.com/sketch -->
    <title>10k Followers@2x</title>
    <desc>Created with Sketch.</desc>
    <defs>
        <linearGradient x1="97.2200046%" y1="2.68528005%" x2="8.47827327%" y2="95.8941684%" id="linearGradient-1">
            <stop stop-color="#FF5571" offset="0%"></stop>
            <stop stop-color="#FF92A4" offset="100%"></stop>
        </linearGradient>
        <rect id="path-2" x="0" y="0" width="279" height="102" rx="10"></rect>
        <filter x="-34.1%" y="-53.9%" width="168.1%" height="286.3%" filterUnits="objectBoundingBox" id="filter-3">
            <feOffset dx="0" dy="40" in="SourceAlpha" result="shadowOffsetOuter1"></feOffset>
            <feGaussianBlur stdDeviation="25" in="shadowOffsetOuter1" result="shadowBlurOuter1"></feGaussianBlur>
            <feColorMatrix values="0 0 0 0 0   0 0 0 0 0   0 0 0 0 0  0 0 0 0.1 0" type="matrix" in="shadowBlurOuter1"></feColorMatrix>
        </filter>
        <path d="M79,58.065511 C79.030027,58.0441975 79.0591009,58.0217622 79.0891279,58 C79.1346451,58.0412809 79.1794473,58.0827861 79.2323521,58.1182339 C79.2504637,58.1305732 79.1632423,58.1099328 79,58.065511 M67.0021733,58.1038753 C67.0486438,58.0729146 67.08725,58.0356721 67.128001,58 C67.1492105,58.0154803 67.1701818,58.0318581 67.1916297,58.0468897 C67.0567463,58.0924333 66.9864449,58.1135224 67.0021733,58.1038753 M92.9972591,67.7887528 L92.9972591,67.7609331 C92.9972591,67.6866724 92.9874884,67.6121873 92.9874884,67.5291768 C92.9288641,65.6921772 92.8025599,61.3969455 88.5761341,60.0241316 C88.5468219,60.0147088 88.5079774,60.0057347 88.4786653,59.9963119 C84.6559364,59.0677162 81.3949039,57.1205595 80.588225,56.6128494 C83.6862535,52.5352398 83.1286084,46.3440038 83.0642647,45.7220982 C82.820712,40.7771412 80.3668351,38.4120155 78.341201,37.307976 C76.8319845,36.4823582 75.0692063,36.0374669 73.1021965,36 L72.9365711,36 C71.8555975,36 69.732733,36.1669184 67.6973283,37.2711822 C65.6523911,38.3745486 63.1594314,40.740123 62.9158787,45.7220982 C62.8515351,46.3442281 62.2938899,52.537932 65.3940632,56.6155416 C64.5621234,57.1396294 61.3335011,59.0647996 57.5210195,59.9866647 C57.482175,59.9963119 57.4531012,60.0057347 57.4237891,60.0147088 C53.1973632,61.3969455 53.0708207,65.6921772 53.0124348,67.5195296 C53.0124348,67.6027645 53.0124348,67.6770252 53.0026641,67.7512859 L53.0026641,67.77933 C52.9928934,68.2616882 52.9831227,70.7385416 53.4990636,71.981231 C53.5967706,72.2226344 53.7719284,72.4270197 54.0054721,72.5661184 C54.29764,72.7514337 61.2994228,77 73.0144985,77 C84.7295742,77 91.7313569,72.7420109 92.0235249,72.5661184 C92.2475362,72.4270197 92.4324646,72.2226344 92.5299334,71.981231 C93.0168005,70.7475157 93.0070298,68.2706623 92.9972591,67.7887528" id="path-4"></path>
    </defs>
    <g id="Page-1" stroke="none" stroke-width="1" fill="none" fill-rule="evenodd">
        <g id="BUY-INSTAGRAM-FOLLOWERS" transform="translate(-265.000000, -523.000000)">
            <g id="10k-Followers" transform="translate(315.000000, 533.000000)">
                <g id="Rectangle-6">
                    <use fill="black" fill-opacity="1" filter="url(#filter-3)" xlink:href="#path-2"></use>
                    <use fill="url(#linearGradient-1)" fill-rule="evenodd" xlink:href="#path-2"></use>
                </g>
                <path d="M60,47.065511 C60.030027,47.0441975 60.0591009,47.0217622 60.0891279,47 C60.1346451,47.0412809 60.1794473,47.0827861 60.2323521,47.1182339 C60.2504637,47.1305732 60.1632423,47.1099328 60,47.065511 M48.0021733,47.1038753 C48.0486438,47.0729146 48.08725,47.0356721 48.128001,47 C48.1492105,47.0154803 48.1701818,47.0318581 48.1916297,47.0468897 C48.0567463,47.0924333 47.9864449,47.1135224 48.0021733,47.1038753 M73.9972591,56.7887528 L73.9972591,56.7609331 C73.9972591,56.6866724 73.9874884,56.6121873 73.9874884,56.5291768 C73.9288641,54.6921772 73.8025599,50.3969455 69.5761341,49.0241316 C69.5468219,49.0147088 69.5079774,49.0057347 69.4786653,48.9963119 C65.6559364,48.0677162 62.3949039,46.1205595 61.588225,45.6128494 C64.6862535,41.5352398 64.1286084,35.3440038 64.0642647,34.7220982 C63.820712,29.7771412 61.3668351,27.4120155 59.341201,26.307976 C57.8319845,25.4823582 56.0692063,25.0374669 54.1021965,25 L53.9365711,25 C52.8555975,25 50.732733,25.1669184 48.6973283,26.2711822 C46.6523911,27.3745486 44.1594314,29.740123 43.9158787,34.7220982 C43.8515351,35.3442281 43.2938899,41.537932 46.3940632,45.6155416 C45.5621234,46.1396294 42.3335011,48.0647996 38.5210195,48.9866647 C38.482175,48.9963119 38.4531012,49.0057347 38.4237891,49.0147088 C34.1973632,50.3969455 34.0708207,54.6921772 34.0124348,56.5195296 C34.0124348,56.6027645 34.0124348,56.6770252 34.0026641,56.7512859 L34.0026641,56.77933 C33.9928934,57.2616882 33.9831227,59.7385416 34.4990636,60.981231 C34.5967706,61.2226344 34.7719284,61.4270197 35.0054721,61.5661184 C35.29764,61.7514337 42.2994228,66 54.0144985,66 C65.7295742,66 72.7313569,61.7420109 73.0235249,61.5661184 C73.2475362,61.4270197 73.4324646,61.2226344 73.5299334,60.981231 C74.0168005,59.7475157 74.0070298,57.2706623 73.9972591,56.7887528" id="Fill-1" fill="#FFB6C2"></path>
                <g id="Fill-1-Copy-8">
                    <use fill="#FFB6C2" fill-rule="evenodd" xlink:href="#path-4"></use>
                    <path stroke="#FF8A9D" stroke-width="1" d="M78.7105905,57.657783 C78.7260848,57.6466336 78.7260848,57.6466336 78.7460975,57.6317782 C78.7514664,57.6277818 78.7514664,57.6277818 78.7571313,57.6235644 C78.7750235,57.6102589 78.7750235,57.6102589 78.7957095,57.5951474 L79.1243647,57.3569533 L79.4250258,57.6296318 C79.4275894,57.6319574 79.4275894,57.6319574 79.4300973,57.6342341 C79.4332433,57.6370908 79.4332433,57.6370908 79.436301,57.6398674 C79.4796601,57.6792364 79.4965064,57.6933655 79.5138743,57.7050205 C79.5591336,57.7337844 79.5591336,57.7337844 79.6607931,57.8588359 C79.7747232,58.2353929 79.7747232,58.2353929 79.4738389,58.5601996 C79.2108071,58.632491 79.2108071,58.632491 79.1723324,58.6184899 C79.1110495,58.6093594 79.1110495,58.6093594 79.0723106,58.6004816 C79.0251105,58.589646 78.9582198,58.5723237 78.8687131,58.5479669 L77.8478474,58.2701668 L78.7105905,57.657783 Z M66.7305786,57.6835381 C66.736825,57.6785201 66.7477923,57.6690368 66.7689409,57.6501488 C66.769799,57.6493824 66.769799,57.6493824 66.7706689,57.6486055 C66.7834669,57.6371758 66.7834669,57.6371758 66.7986705,57.6237801 L67.0996624,57.3603017 L67.4227737,57.5961324 C67.4371432,57.6067024 67.4371432,57.6067024 67.448936,57.6155303 C67.4511449,57.6171854 67.4511449,57.6171854 67.4532542,57.6187664 C67.4700233,57.6313037 67.4700233,57.6313037 67.4785928,57.6374362 L68.2877372,58.2045203 L67.3515835,58.5206141 C67.2801379,58.5447378 67.2237387,58.5630769 67.1843453,58.5749173 C67.153565,58.5841444 67.153565,58.5841444 67.1067554,58.5952243 C67.0843554,58.6096692 67.0843554,58.6096692 66.8232155,58.5736681 C66.4266797,58.1185964 66.4266797,58.1185964 66.6225791,57.7776337 C66.6986948,57.7055686 66.70772,57.6970237 66.7305786,57.6835381 Z M57.5759108,60.4910195 C55.7005546,61.1053835 54.5782474,62.3563911 53.9999131,64.1226009 C53.6598088,65.1612658 53.5596474,66.0498626 53.5124348,67.5195296 C53.5124348,67.6619665 53.5104191,67.7250971 53.5026641,67.7512859 L53.5025615,67.789456 C53.4931449,68.2543355 53.5049463,68.9075422 53.5524,69.5588215 C53.6219942,70.5139691 53.7575175,71.2997752 53.9625396,71.793641 C54.01968,71.934817 54.1224437,72.0538203 54.2732823,72.143889 C55.1396396,72.6933992 56.9480013,73.5649008 59.3847086,74.3782774 C63.3644523,75.706722 67.9288114,76.5 73.0144985,76.5 C78.1908248,76.5 82.8221068,75.6773355 86.8451899,74.3069617 C88.1996041,73.8456106 89.3912705,73.3522517 90.4147608,72.8564764 C91.0478308,72.5498194 91.4443028,72.3312079 91.7597652,72.1413469 C91.9028726,72.0524851 92.0124629,71.92737 92.0648396,71.7976887 C92.2573362,71.3099045 92.3854507,70.5244065 92.4510079,69.5688423 C92.4957314,68.9169527 92.5066902,68.2589831 92.4973618,67.7988882 L92.4972591,67.7887528 L92.4972591,67.7609331 C92.4972591,67.7446222 92.496665,67.7324799 92.4933886,67.6801766 C92.4892516,67.6158453 92.4874884,67.577699 92.4877428,67.5451252 C92.4403582,66.0603211 92.3412592,65.1751571 92.0047148,64.1397591 C91.4279144,62.3651993 90.304178,61.1111444 88.4231139,60.5001409 C88.4195879,60.4990728 88.4195879,60.4990728 88.3971022,60.4929458 C88.3684705,60.4852751 88.3684705,60.4852751 88.3606404,60.4821823 C86.6191105,60.0591397 84.8753491,59.4050232 83.1867874,58.597858 C82.0386738,58.0490376 81.0579316,57.499263 80.3218931,57.0360128 L79.8597616,56.7451552 L80.190099,56.3103668 C81.4929303,54.5955868 82.2305302,52.351089 82.515258,49.815783 C82.619064,48.8914616 82.655486,47.9832961 82.6402667,47.1215598 C82.63028,46.5560987 82.6007131,46.1001821 82.56487,45.7466947 C82.365266,41.6940473 80.6687606,39.1460183 78.1012356,37.7466292 C76.6590298,36.9576696 74.9736314,36.5357371 73.1021965,36.5 L72.9365711,36.5 C71.297815,36.5 69.5312371,36.8450801 67.9347528,37.7112158 C65.331317,39.1159257 63.6146438,41.6684876 63.4132258,45.7735362 C63.3794299,46.1003044 63.3498715,46.5563853 63.3399107,47.1220491 C63.3247308,47.9840983 63.3612265,48.8925684 63.4651485,49.8171683 C63.7501937,52.3532316 64.4883698,54.5981657 65.7920884,56.3129264 L66.1225445,56.7475701 L65.6605696,57.0385952 C64.9169018,57.5070753 63.9368378,58.0563438 62.7905355,58.6032124 C61.112546,59.4037341 59.376921,60.0523137 57.6415351,60.4719234 C57.624519,60.4761494 57.6139754,60.4792455 57.575984,60.4910084 Z"></path>
                </g>
                <text opacity="0.49756567" font-family="Ubuntu-Bold, Ubuntu" font-size="20" font-weight="bold" fill="#FFFFFF">
                    <tspan x="108" y="57">10k Followers</tspan>
                </text>
            </g>
        </g>
    </g>
</svg>