<?xml version="1.0" encoding="UTF-8"?>
<svg width="299px" height="173px" viewBox="0 0 299 173" version="1.1" xmlns="http://www.w3.org/2000/svg" xmlns:xlink="http://www.w3.org/1999/xlink">
    <!-- Generator: Sketch 49.3 (51167) - http://www.bohemiancoding.com/sketch -->
    <title>Low Price@2x</title>
    <desc>Created with Sketch.</desc>
    <defs>
        <linearGradient x1="97.2200046%" y1="2.68528005%" x2="8.47827327%" y2="95.8941684%" id="linearGradient-1">
            <stop stop-color="#FF5571" offset="0%"></stop>
            <stop stop-color="#FF92A4" offset="100%"></stop>
        </linearGradient>
        <rect id="path-2" x="0" y="0" width="199" height="73" rx="10"></rect>
        <filter x="-47.7%" y="-75.3%" width="195.5%" height="360.3%" filterUnits="objectBoundingBox" id="filter-3">
            <feOffset dx="0" dy="40" in="SourceAlpha" result="shadowOffsetOuter1"></feOffset>
            <feGaussianBlur stdDeviation="25" in="shadowOffsetOuter1" result="shadowBlurOuter1"></feGaussianBlur>
            <feColorMatrix values="0 0 0 0 0   0 0 0 0 0   0 0 0 0 0  0 0 0 0.1 0" type="matrix" in="shadowBlurOuter1"></feColorMatrix>
        </filter>
    </defs>
    <g id="Page-1" stroke="none" stroke-width="1" fill="none" fill-rule="evenodd">
        <g id="Automatic-Likes-Copy_2" transform="translate(-426.000000, -971.000000)">
            <g id="Delay-Likes" transform="translate(297.000000, 930.000000)">
                <g id="Low-Price" transform="translate(179.000000, 51.000000)">
                    <g id="Rectangle-6">
                        <use fill="black" fill-opacity="1" filter="url(#filter-3)" xlink:href="#path-2"></use>
                        <use fill="url(#linearGradient-1)" fill-rule="evenodd" xlink:href="#path-2"></use>
                    </g>
                    <text id="Adjust-Like" opacity="0.403702446" font-family="Ubuntu-Bold, Ubuntu" font-size="14" font-weight="bold" fill="#FFFFFF">
                        <tspan x="69" y="43">Adjust Like</tspan>
                    </text>
                    <path d="M50.4462404,24.0453161 C48.7200069,22.0814506 46.3254778,21 43.7028983,21 C40.0149592,21 37.6804788,23.2080749 36.3712132,25.0608743 C36.0314991,25.5414813 35.7423879,26.0234469 35.5001687,26.4768818 C35.2572748,26.0234469 34.9685009,25.5414813 34.6287868,25.0608743 C33.3195212,23.2080749 30.9847035,21 27.2967643,21 C24.6745222,21 22.2796557,22.0814506 20.5534222,24.0453161 C18.9068039,25.9188342 18,28.4278405 18,31.110069 C18,34.029714 19.1368784,36.7452284 21.5782995,39.6560425 C23.7599591,42.2577736 26.8990255,44.9393229 30.533663,48.0444177 C31.8881339,49.2016106 33.2884847,50.3982031 34.7799208,51.7062014 L34.8244513,51.745601 C35.0177544,51.9150871 35.2589615,52 35.5001687,52 C35.7410385,52 35.9819083,51.9150871 36.1755487,51.745601 L36.2197419,51.7062014 C37.7111779,50.3982031 39.1118661,49.2019503 40.466337,48.044078 C44.1009745,44.9393229 47.2397035,42.2577736 49.4217005,39.6560425 C51.8631216,36.7452284 53,34.029714 53,31.110069 C53,28.4278405 52.0928587,25.9188342 50.4462404,24.0453161" id="Fill-1" fill="#FFFFFF" opacity="0.338937953"></path>
                </g>
            </g>
        </g>
    </g>
</svg>