<?xml version="1.0" encoding="UTF-8"?>
<svg width="308px" height="308px" viewBox="0 0 308 308" version="1.1" xmlns="http://www.w3.org/2000/svg" xmlns:xlink="http://www.w3.org/1999/xlink">
    <!-- Generator: Sketch 49.3 (51167) - http://www.bohemiancoding.com/sketch -->
    <title>Instant Delivery BG@2x</title>
    <desc>Created with Sketch.</desc>
    <defs>
        <circle id="path-1" cx="154" cy="154" r="154"></circle>
        <linearGradient x1="97.2200046%" y1="2.68528005%" x2="8.47827327%" y2="95.8941684%" id="linearGradient-3">
            <stop stop-color="#7DACFF" offset="0%"></stop>
            <stop stop-color="#92C6FF" offset="100%"></stop>
        </linearGradient>
        <path d="M178.377802,181.749342 L178.377802,179.187652 C179.130688,178.602819 179.853259,177.961852 180.549588,177.293907 C186.11343,171.400758 189.616792,163.97982 190.5674,156.072391 C195.569293,155.339609 200.0762,152.762689 203.135251,148.887301 C207.33494,143.179523 207.711383,134.962707 204.206665,124.658508 C204.00125,124.065407 203.593135,123.553679 203.048832,123.21035 L201.456641,122.180365 C201.691466,112.882653 198.349179,103.829492 192.073171,96.7531872 C184.284154,88.3157537 172.326213,84.0543929 156.484848,84 C140.675608,84 128.686901,88.3157537 120.898335,96.6430959 C114.622328,103.717225 111.280041,112.772127 111.514865,122.068098 L109.922675,123.099824 C109.378371,123.443152 108.969804,123.95314 108.764842,124.547982 C105.260123,134.908314 105.636566,143.067256 109.835804,148.776774 C112.88309,152.677836 117.389997,155.285217 122.404107,156.044977 C123.358335,163.96459 126.872103,171.395971 132.451781,177.293907 C133.14087,177.960547 133.865704,178.592811 134.624019,179.187652 L134.624019,181.749342 C123.531625,183.811052 79.2561608,193.80891 80.0094989,222.214211 C80.0094989,223.752443 81.3066882,225 82.9061176,225 L230.095251,225 C231.693323,225 232.990512,223.752443 232.990512,222.214211 C233.743398,193.80891 189.467934,183.811052 178.377802,181.749342 Z M120.301858,149.971421 C117.85525,149.181602 115.722736,147.681205 114.197262,145.676779 L114.341259,145.703626 C111.461758,141.657968 111.201662,135.532973 113.764819,127.441224 L115.867183,126.082856 C116.752768,125.514308 117.23966,124.524869 117.134362,123.506851 C116.65107,115.223709 119.449123,107.072637 124.968729,100.699091 C131.476069,93.603276 141.931192,90.0564511 155.926856,90.0005922 C169.923869,89.9464654 180.377642,93.603276 187.00288,100.699091 C192.520236,107.072637 195.320539,115.223709 194.835447,123.506851 C194.731499,124.524869 195.218391,125.514308 196.102626,126.082856 L198.20499,127.441224 C200.767697,135.506126 200.5958,141.657968 197.62855,145.703626 C196.094076,147.709784 193.951212,149.210181 191.495604,150 C194.969095,146.195964 196.666916,141.185982 196.189024,136.143524 C195.649033,133.108956 194.005661,130.358878 191.551853,128.383031 C190.314374,100.670079 170.126365,97.5662282 161.428912,97.5662282 C159.586644,97.561465 157.747975,97.6913695 155.926856,97.9555086 C154.107536,97.6913695 152.267068,97.561465 150.426599,97.5662282 C141.787195,97.5662282 121.627086,100.61422 120.301858,128.383031 C117.8341,130.343723 116.169128,133.083841 115.608438,136.114945 C115.128746,141.158702 116.826567,146.170849 120.301858,149.971421 Z M187,126.905557 C174.813315,127.571673 162.703319,124.702019 152.29454,118.68127 C151.117438,117.901636 149.5097,118.051994 148.5191,119.037675 C142.710277,124.932911 132.110457,126.303268 127,126.604412 C128.566898,107.222358 140.99817,103.000766 151.452781,103.000766 C153.117241,102.988772 154.778072,103.117711 156.41939,103.383729 C156.802379,103.457409 157.197621,103.457409 157.58061,103.383729 C159.220113,103.117711 160.882759,102.988772 162.547219,103.000766 C172.915158,103.000766 185.402698,107.331164 186.854337,126.878998 L187,126.905557 Z M128.022525,150.039691 L128.139985,150.066612 C128.145448,149.381414 127.885489,148.718362 127.410642,148.204246 C123.418379,143.841646 121.583186,139.867672 122.07943,136.588883 C122.315715,134.762123 123.261767,133.086471 124.730923,131.892368 C128.575678,131.892368 142.212381,131.196749 150.953111,124 C160.798325,129.397345 171.94197,132.270573 183.296859,132.336574 C185.248147,132.336574 187.229027,132.336574 189.299139,132.031318 C190.727321,133.193289 191.659259,134.814663 191.920584,136.588883 C192.416829,139.811658 190.58118,143.841646 186.588917,148.204246 C186.11407,148.718362 185.854566,149.381414 185.859574,150.066612 L185.859574,151.511694 L168.902587,160.182617 C165.538141,157.143082 160.226051,157.282033 157.03916,160.491347 C153.853636,163.701963 153.997957,168.76713 157.364223,171.806664 C160.729124,174.844462 166.041215,174.706814 169.226284,171.496198 C170.70409,170.008563 171.525853,168.039379 171.524032,165.990298 C171.538145,165.741057 171.538145,165.490078 171.524032,165.240402 L184.89941,158.403186 C183.750308,163.883467 181.051012,168.958621 177.090618,173.076756 C171.924214,177.819298 164.933087,180.314321 157.77169,179.968248 L156.315281,179.968248 C149.169363,180.307808 142.192805,177.824508 137.026856,173.104111 C127.818109,164.350253 128.022525,150.178641 128.022525,150.039691 Z M165,166.5 C165,167.880597 163.880551,169 162.499122,169 C161.11901,169 160,167.880597 160,166.5 C160,165.119403 161.11901,164 162.499122,164 C163.880551,164 165,165.119403 165,166.5 Z M154,219 L86,219 C88.2985839,198.02836 123.809387,189.261344 134.920118,187 L134.920118,191.996946 C134.920118,198.335079 142.947438,203.166667 154,203.97644 L154,219 Z M140,192.566376 L140,183 C144.782824,185.137464 150.008094,186.199047 155.280576,186.105887 L156.719424,186.105887 C161.991906,186.199047 167.217176,185.137464 172,183 L172,192.566376 C172,195.201701 165.755845,199 155.999101,199 C146.244155,199 140,195.201701 140,192.566376 Z M159,219 L159,203.86562 C170.052562,203.139616 178.079882,198.280977 178.079882,191.886126 L178.079882,187 C189.277412,189.232548 224.614163,198.001309 227,219 L159,219 Z" id="path-4"></path>
        <filter x="-62.1%" y="-39.0%" width="224.2%" height="234.8%" filterUnits="objectBoundingBox" id="filter-5">
            <feOffset dx="0" dy="40" in="SourceAlpha" result="shadowOffsetOuter1"></feOffset>
            <feGaussianBlur stdDeviation="25" in="shadowOffsetOuter1" result="shadowBlurOuter1"></feGaussianBlur>
            <feColorMatrix values="0 0 0 0 0   0 0 0 0 0   0 0 0 0 0  0 0 0 0.1 0" type="matrix" in="shadowBlurOuter1"></feColorMatrix>
        </filter>
    </defs>
    <g id="Page-1" stroke="none" stroke-width="1" fill="none" fill-rule="evenodd">
        <g id="Automatic-Likes-Copy_2" transform="translate(-1116.000000, -475.000000)">
            <g id="Top-notch-Support" transform="translate(1071.000000, 475.000000)">
                <g id="Instant-Delivery-BG" transform="translate(45.000000, 0.000000)">
                    <mask id="mask-2" fill="white">
                        <use xlink:href="#path-1"></use>
                    </mask>
                    <use id="Oval-2" fill="#FFE9A1" opacity="0.468297101" xlink:href="#path-1"></use>
                    <g id="Fill-1" mask="url(#mask-2)">
                        <use fill="black" fill-opacity="1" filter="url(#filter-5)" xlink:href="#path-4"></use>
                        <use fill="url(#linearGradient-3)" fill-rule="evenodd" xlink:href="#path-4"></use>
                    </g>
                </g>
            </g>
        </g>
    </g>
</svg>