<?xml version="1.0" encoding="UTF-8"?>
<svg width="299px" height="173px" viewBox="0 0 299 173" version="1.1" xmlns="http://www.w3.org/2000/svg" xmlns:xlink="http://www.w3.org/1999/xlink">
    <!-- Generator: Sketch 49.3 (51167) - http://www.bohemiancoding.com/sketch -->
    <title>10 k followers copy@2x</title>
    <desc>Created with Sketch.</desc>
    <defs>
        <linearGradient x1="97.2200046%" y1="2.68528005%" x2="8.47827327%" y2="95.8941684%" id="linearGradient-1">
            <stop stop-color="#55FFBB" offset="0%"></stop>
            <stop stop-color="#47E0AC" offset="100%"></stop>
        </linearGradient>
        <rect id="path-2" x="0" y="0" width="199" height="73" rx="10"></rect>
        <filter x="-47.7%" y="-75.3%" width="195.5%" height="360.3%" filterUnits="objectBoundingBox" id="filter-3">
            <feOffset dx="0" dy="40" in="SourceAlpha" result="shadowOffsetOuter1"></feOffset>
            <feGaussianBlur stdDeviation="25" in="shadowOffsetOuter1" result="shadowBlurOuter1"></feGaussianBlur>
            <feColorMatrix values="0 0 0 0 0   0 0 0 0 0   0 0 0 0 0  0 0 0 0.1 0" type="matrix" in="shadowBlurOuter1"></feColorMatrix>
        </filter>
    </defs>
    <g id="Page-1" stroke="none" stroke-width="1" fill="none" fill-rule="evenodd">
        <g id="Automatic-Likes-Copy_2" transform="translate(-1021.000000, -506.000000)">
            <g id="Top-notch-Support" transform="translate(1071.000000, 475.000000)">
                <g id="10-k-followers-copy" transform="translate(0.000000, 41.000000)">
                    <g id="Rectangle-6-Copy">
                        <use fill="black" fill-opacity="1" filter="url(#filter-3)" xlink:href="#path-2"></use>
                        <use fill="url(#linearGradient-1)" fill-rule="evenodd" xlink:href="#path-2"></use>
                    </g>
                    <path d="M39.1477182,42.8775055 L39.1477182,42.2779611 C39.3248677,42.1410853 39.4948845,41.9910718 39.6587265,41.8347442 C40.9678659,40.4554965 41.7921862,38.7186812 42.0158588,36.8680065 C43.1927749,36.6965043 44.2532236,36.0933954 44.9730001,35.1863896 C45.9611625,33.8505266 46.0497372,31.9274421 45.2250976,29.515821 C45.1767647,29.3770102 45.0807377,29.2572439 44.9526662,29.1768905 L44.5780333,28.9358302 C44.633286,26.7597699 43.8468655,24.6409448 42.3701579,22.9847885 C40.5374479,21.01007 37.7238148,20.0127303 33.9964349,20 C30.2766137,20 27.4557413,21.01007 25.6231377,22.9590224 C24.1464301,24.6146696 23.3600096,26.733902 23.4152624,28.9095549 L23.0406294,29.1510226 C22.912558,29.231376 22.8164245,29.350735 22.7681981,29.4899531 C21.9435584,31.9147119 22.0321332,33.8242514 23.0201891,35.1605217 C23.7371977,36.0735362 24.7976464,36.6837741 25.9774368,36.8615904 C26.2019611,38.7151168 27.02873,40.4543763 28.3415955,41.8347442 C28.5037342,41.9907663 28.6742833,42.1387429 28.8527103,42.2779611 L28.8527103,42.8775055 C26.2427353,43.3600335 15.824979,45.6999577 16.002235,52.3480068 C16.002235,52.7080187 16.307456,53 16.6837924,53 L51.3165297,53 C51.6925466,53 51.9977676,52.7080187 51.9977676,52.3480068 C52.1749172,45.6999577 41.7571609,43.3600335 39.1477182,42.8775055 Z M25.9811253,34.9933316 C25.3972755,34.8090404 24.8883802,34.4589479 24.5243465,33.9912485 L24.5587096,33.9975128 C23.8715559,33.0535259 23.8094876,31.6243603 24.42115,29.7362856 L24.9228506,29.4193331 C25.1341834,29.2866718 25.2503735,29.0558027 25.2252455,28.8182651 C25.1099145,26.8855321 25.7776316,24.9836153 27.0948104,23.4964545 C28.6476984,21.8407644 31.1426709,21.0131719 34.4825451,21.0001382 C37.8227414,20.9875086 40.3173918,21.8407644 41.8984145,23.4964545 C43.2150564,24.9836153 43.8833104,26.8855321 43.7675499,28.8182651 C43.7427441,29.0558027 43.8589342,29.2866718 44.0699448,29.4193331 L44.5716454,29.7362856 C45.1832004,31.6180961 45.1421795,33.0535259 44.4340858,33.9975128 C44.0679045,34.4656163 43.5565393,34.8157089 42.9705418,35 C43.7994431,34.1123917 44.204605,32.9433958 44.0905626,31.7668222 C43.9617012,31.0587563 43.5695328,30.4170715 42.9839649,29.9560406 C42.6886574,23.4896851 37.8710645,22.7654532 35.7955359,22.7654532 C35.3559036,22.7643418 34.9171303,22.7946529 34.4825451,22.8562853 C34.0483894,22.7946529 33.6091866,22.7643418 33.1699838,22.7654532 C31.1083079,22.7654532 26.2973728,23.4766513 25.9811253,29.9560406 C25.3922284,30.4135353 24.9949056,31.0528962 24.8611045,31.7601538 C24.7466325,32.9370305 25.1517944,34.1065315 25.9811253,34.9933316 Z M41,29.9763893 C38.1564403,30.1429183 35.3307745,29.4255047 32.9020594,27.9203176 C32.6274022,27.725409 32.2522632,27.7629985 32.0211234,28.0094187 C30.6657314,29.4832276 28.19244,29.825817 27,29.9011031 C27.3656096,25.0555895 30.2662396,24.0001915 32.7056488,24.0001915 C33.094023,23.9971929 33.4815501,24.0294278 33.8645243,24.0959323 C33.9538885,24.1143522 34.0461115,24.1143522 34.1354757,24.0959323 C34.5180264,24.0294278 34.905977,23.9971929 35.2943512,24.0001915 C37.713537,24.0001915 40.6272963,25.082791 40.966012,29.9697495 L41,29.9763893 Z M27.3765772,35.0449282 L27.4034251,35.0511778 C27.4046739,34.892114 27.3452546,34.7381911 27.2367182,34.6188429 C26.324201,33.6060964 25.9047282,32.6835667 26.0181555,31.9224192 C26.0721635,31.4983499 26.2884038,31.1093593 26.624211,30.8321569 C27.5030122,30.8321569 30.6199729,30.6706738 32.6178539,29 C34.8681886,30.252955 37.4153073,30.9199544 40.0107107,30.9352762 C40.4567192,30.9352762 40.9094918,30.9352762 41.3826604,30.8644131 C41.709102,31.1341563 41.9221164,31.5105468 41.9818478,31.9224192 C42.0952751,32.6705634 41.6756982,33.6060964 40.763181,34.6188429 C40.6546446,34.7381911 40.5953294,34.892114 40.5964741,35.0511778 L40.5964741,35.3866432 L36.7205913,37.399536 C35.9515752,36.6939298 34.737383,36.7261861 34.008951,37.4712055 C33.2808311,38.2165272 33.3138187,39.3923695 34.083251,40.0979757 C34.8523712,40.8031787 36.0665634,40.7712248 36.7945792,40.025903 C37.1323635,39.6805592 37.3201949,39.2234272 37.3197787,38.7477478 C37.3230046,38.6898881 37.3230046,38.6316252 37.3197787,38.5736647 L40.377008,36.986454 C40.1143562,38.258662 39.4973742,39.4368227 38.5921413,40.3928183 C37.4112489,41.4937655 35.8132771,42.0729674 34.1763863,41.9926291 L33.8434928,41.9926291 C32.2101401,42.0714554 30.6154983,41.4949751 29.4347099,40.3991687 C27.3298535,38.3670229 27.3765772,35.0771845 27.3765772,35.0449282 Z M36,39.5 C36,39.7761194 35.7761102,40 35.4998245,40 C35.223802,40 35,39.7761194 35,39.5 C35,39.2238806 35.223802,39 35.4998245,39 C35.7761102,39 36,39.2238806 36,39.5 Z M33,51 L17,51 C17.5408433,46.4124536 25.8963263,44.494669 28.510616,44 L28.510616,45.0930819 C28.510616,46.4795484 30.3993972,47.5364583 33,47.7135962 L33,51 Z M30,45.391594 L30,43 C31.1957059,43.534366 32.5020234,43.7997617 33.8201439,43.7764719 L34.1798561,43.7764719 C35.4979766,43.7997617 36.8042941,43.534366 38,43 L38,45.391594 C38,46.0504252 36.4389613,47 33.9997752,47 C31.5610387,47 30,46.0504252 30,45.391594 Z M35,51 L35,47.6893543 C37.6006028,47.530541 39.489384,46.4677138 39.489384,45.06884 L39.489384,44 C42.124097,44.4883699 50.4386265,46.4065363 51,51 L35,51 Z" id="Fill-1" fill="#FFFFFF" opacity="0.533288043"></path>
                    <text id="Persistent-Support" opacity="0.71410779" font-family="Ubuntu-Bold, Ubuntu" font-size="14" font-weight="bold" fill="#FFFFFF">
                        <tspan x="55" y="42">Persistent Support</tspan>
                    </text>
                </g>
            </g>
        </g>
    </g>
</svg>