<?xml version="1.0" encoding="utf-8"?>
<!-- Generator: Adobe Illustrator 16.0.0, SVG Export Plug-In . SVG Version: 6.00 Build 0)  -->
<!DOCTYPE svg PUBLIC "-//W3C//DTD SVG 1.1//EN" "http://www.w3.org/Graphics/SVG/1.1/DTD/svg11.dtd">
<svg version="1.1" id="Layer_1" xmlns="http://www.w3.org/2000/svg" xmlns:xlink="http://www.w3.org/1999/xlink" x="0px" y="0px"
	 width="533.384px" height="533.686px" viewBox="0 0 533.384 533.686" enable-background="new 0 0 533.384 533.686"
	 xml:space="preserve">
<g>
	<path fill="#FFFFFF" d="M533.384,518.438c0,8.422-6.826,15.248-15.248,15.248H15.248C6.828,533.686,0,526.86,0,518.438V15.248
		C0,6.828,6.828,0,15.248,0h502.888c8.422,0,15.248,6.828,15.248,15.248V518.438z"/>
</g>
<circle fill="#C2F9F6" cx="106.175" cy="105.866" r="48.789"/>
<path fill="#F2F2F2" d="M390.322,88.732c0,3.233-2.621,5.855-5.854,5.855H183.262c-3.233,0-5.854-2.622-5.854-5.855V78.486
	c0-3.233,2.621-5.854,5.854-5.854h201.205c3.233,0,5.854,2.621,5.854,5.854V88.732z"/>
<path fill="#F2F2F2" d="M413.068,126.788c0,3.233-2.622,5.854-5.855,5.854h-223.95c-3.233,0-5.854-2.622-5.854-5.854v-10.246
	c0-3.233,2.621-5.854,5.854-5.854h223.95c3.233,0,5.855,2.622,5.855,5.854V126.788z"/>
<path fill="#F2F2F2" d="M477.462,470.754c0,3.233-2.622,5.854-5.855,5.854H61.777c-3.233,0-5.855-2.621-5.855-5.854V204.363
	c0-3.233,2.622-5.855,5.855-5.855h409.83c3.233,0,5.855,2.622,5.855,5.855V470.754z"/>
<circle fill="#DDDDDD" cx="323.304" cy="449.996" r="7"/>
<circle fill="#DDDDDD" cx="294.804" cy="449.996" r="7"/>
<circle fill="#DDDDDD" cx="266.304" cy="449.996" r="7"/>
<circle fill="#DDDDDD" cx="237.804" cy="449.996" r="7"/>
<circle fill="#DDDDDD" cx="209.304" cy="449.996" r="7"/>
<path fill="#DDDDDD" d="M266.313,296.612c-16.642-28.538-63.391-20.197-63.391,15.55c0,24.622,29.422,49.801,63.391,83.502
	c33.956-33.701,63.372-58.88,63.372-83.502C329.685,276.282,282.814,268.292,266.313,296.612z"/>
</svg>
