<?xml version="1.0" encoding="utf-8"?>
<!-- Generator: Adobe Illustrator 16.0.0, SVG Export Plug-In . SVG Version: 6.00 Build 0)  -->
<!DOCTYPE svg PUBLIC "-//W3C//DTD SVG 1.1//EN" "http://www.w3.org/Graphics/SVG/1.1/DTD/svg11.dtd">
<svg version="1.1" id="Layer_1" xmlns="http://www.w3.org/2000/svg" xmlns:xlink="http://www.w3.org/1999/xlink" x="0px" y="0px"
	 width="533.383px" height="439.512px" viewBox="0 0 533.383 439.512" enable-background="new 0 0 533.383 439.512"
	 xml:space="preserve">
<g>
	<path fill="#FFFFFF" d="M533.383,424.264c0,8.424-6.826,15.248-15.248,15.248H15.248C6.827,439.512,0,432.688,0,424.264V15.248
		C0,6.828,6.827,0,15.248,0h502.887c8.422,0,15.248,6.828,15.248,15.248V424.264L533.383,424.264z"/>
</g>
<path fill="#F2F2F2" d="M478.633,370.087H66.585c-0.783,0-1.417-0.634-1.417-1.417s0.635-1.417,1.417-1.417h412.048
	c0.783,0,1.417,0.634,1.417,1.417S479.416,370.087,478.633,370.087z"/>
<path fill="#F2F2F2" d="M278.461,178.784c0,3.233-2.623,5.854-5.855,5.854H158.898c-3.231,0-5.854-2.623-5.854-5.854v-10.246
	c0-3.232,2.621-5.854,5.854-5.854h113.708c3.232,0,5.855,2.623,5.855,5.854V178.784z"/>
<path fill="#F2F2F2" d="M141.357,178.784c0,3.233-2.623,5.854-5.854,5.854H66.438c-3.231,0-5.854-2.623-5.854-5.854v-10.246
	c0-3.231,2.621-5.854,5.854-5.854h69.064c3.232,0,5.855,2.623,5.855,5.854V178.784L141.357,178.784z"/>
<path fill="#F2F2F2" d="M245.503,145.852c0,3.233-2.623,5.854-5.854,5.854H66.438c-3.231,0-5.854-2.623-5.854-5.854v-10.246
	c0-3.232,2.621-5.854,5.854-5.854h173.209c3.232,0,5.855,2.623,5.855,5.854L245.503,145.852L245.503,145.852z"/>
<g>
	<path fill="#E0E0E0" d="M91.226,63.533c0.578-0.357,1.225-0.536,1.939-0.536c1.021,0,1.939,0.34,2.755,1.021
		c0.816,0.681,1.225,1.514,1.225,2.5c0,0.51-0.12,1.021-0.357,1.531L83.011,97.132c-0.375,0.783-0.936,1.387-1.684,1.812
		c-0.749,0.425-1.565,0.638-2.449,0.638c-0.885,0-1.702-0.213-2.449-0.638c-0.749-0.425-1.31-1.028-1.684-1.812L60.968,68.048
		c-0.238-0.476-0.357-0.969-0.357-1.479c0-1.021,0.425-1.871,1.275-2.551c0.85-0.68,1.803-1.021,2.857-1.021
		c0.714,0,1.369,0.179,1.964,0.536c0.595,0.357,1.046,0.893,1.352,1.607L78.98,89.019L89.899,65.14
		C90.205,64.426,90.646,63.89,91.226,63.533z"/>
	<path fill="#E0E0E0" d="M101.073,68.584c-0.783-0.697-1.173-1.641-1.173-2.832c0-1.19,0.391-2.125,1.173-2.806
		c0.782-0.68,1.854-1.021,3.215-1.021c1.326,0,2.389,0.349,3.189,1.046c0.799,0.697,1.199,1.625,1.199,2.781
		c0,1.191-0.391,2.135-1.173,2.832c-0.783,0.698-1.854,1.046-3.214,1.046C102.926,69.63,101.855,69.282,101.073,68.584z
		 M101.506,98.663c-0.731-0.612-1.097-1.513-1.097-2.704V77.335c0-1.19,0.374-2.092,1.123-2.705
		c0.748-0.612,1.666-0.918,2.755-0.918c1.088,0,1.998,0.306,2.729,0.918c0.731,0.612,1.097,1.514,1.097,2.705v18.624
		c0,1.191-0.366,2.092-1.097,2.704c-0.732,0.612-1.642,0.918-2.729,0.918C103.165,99.581,102.238,99.275,101.506,98.663z"/>
	<path fill="#E0E0E0" d="M135.794,92.642c0.425,0.545,0.638,1.242,0.638,2.092c0,0.579-0.17,1.114-0.51,1.607
		c-0.341,0.494-0.816,0.911-1.429,1.25c-1.157,0.612-2.5,1.114-4.031,1.505c-1.53,0.391-2.942,0.587-4.234,0.587
		c-2.722,0-5.095-0.527-7.118-1.582c-2.024-1.054-3.58-2.56-4.669-4.516c-1.089-1.956-1.633-4.261-1.633-6.914
		c0-2.551,0.527-4.813,1.582-6.786c1.054-1.972,2.517-3.512,4.388-4.618c1.871-1.105,3.997-1.658,6.378-1.658
		c2.279,0,4.277,0.502,5.996,1.505c1.717,1.004,3.053,2.433,4.005,4.286c0.952,1.854,1.429,4.023,1.429,6.505
		c0,0.749-0.179,1.319-0.536,1.709c-0.356,0.391-0.859,0.586-1.505,0.586h-14.286c0.237,2.008,0.85,3.462,1.837,4.363
		c0.985,0.901,2.397,1.352,4.234,1.352c0.986,0,1.87-0.119,2.653-0.357c0.782-0.237,1.649-0.561,2.603-0.969
		c0.476-0.204,0.935-0.383,1.377-0.536c0.442-0.153,0.834-0.229,1.174-0.229C134.816,91.826,135.368,92.098,135.794,92.642z
		 M121.839,80.32c-0.885,0.936-1.411,2.288-1.581,4.056h9.848c-0.103-1.803-0.554-3.164-1.353-4.082
		c-0.8-0.918-1.931-1.377-3.394-1.377S122.724,79.384,121.839,80.32z"/>
	<path fill="#E0E0E0" d="M175.669,74.324c0.544-0.374,1.123-0.561,1.735-0.561c0.952,0,1.803,0.324,2.551,0.969
		c0.748,0.646,1.123,1.446,1.123,2.398c0,0.408-0.103,0.867-0.307,1.377l-8.367,18.777c-0.307,0.749-0.8,1.318-1.48,1.709
		s-1.395,0.587-2.143,0.587c-0.783,0-1.505-0.196-2.169-0.587c-0.663-0.391-1.147-0.96-1.454-1.709l-5.459-12.705l-5.256,12.705
		c-0.306,0.749-0.783,1.318-1.429,1.709c-0.646,0.391-1.377,0.587-2.193,0.587c-0.783,0-1.515-0.196-2.194-0.587
		c-0.681-0.391-1.174-0.96-1.479-1.709l-8.317-18.777c-0.204-0.476-0.306-0.935-0.306-1.377c0-0.952,0.399-1.752,1.199-2.398
		c0.799-0.646,1.709-0.969,2.729-0.969c0.68,0,1.301,0.188,1.862,0.561c0.562,0.375,0.995,0.918,1.301,1.633l5.46,13.726
		l5.562-13.624c0.306-0.714,0.757-1.267,1.352-1.658c0.595-0.391,1.25-0.587,1.965-0.587c0.714,0,1.378,0.188,1.99,0.562
		c0.612,0.375,1.071,0.936,1.377,1.684l5.664,13.624l5.408-13.726C174.7,75.243,175.125,74.699,175.669,74.324z"/>
	<path fill="#E0E0E0" d="M188.578,99.173c-1.53-0.34-2.875-0.884-4.03-1.633c-0.511-0.306-0.902-0.714-1.174-1.225
		c-0.272-0.51-0.408-1.088-0.408-1.735c0-0.782,0.221-1.437,0.663-1.964c0.441-0.527,0.986-0.791,1.633-0.791
		c0.441,0,0.884,0.076,1.327,0.229c0.441,0.153,0.9,0.332,1.377,0.536c0.952,0.442,1.888,0.791,2.807,1.046
		c0.918,0.255,2.058,0.383,3.419,0.383c1.189,0,2.117-0.187,2.78-0.562c0.663-0.374,0.995-0.884,0.995-1.53
		c0-0.476-0.146-0.859-0.434-1.148c-0.29-0.289-0.825-0.552-1.607-0.791c-0.783-0.238-2.024-0.527-3.725-0.868
		c-3.028-0.578-5.204-1.445-6.531-2.602c-1.326-1.156-1.99-2.772-1.99-4.847c0-1.531,0.468-2.909,1.403-4.133
		c0.936-1.225,2.22-2.186,3.853-2.883c1.633-0.697,3.47-1.046,5.511-1.046c1.462,0,2.891,0.188,4.286,0.562
		c1.394,0.375,2.636,0.901,3.725,1.582c1.054,0.646,1.581,1.599,1.581,2.857c0,0.816-0.222,1.497-0.663,2.041
		c-0.442,0.544-0.986,0.816-1.633,0.816c-0.782,0-1.718-0.306-2.806-0.918c-0.851-0.442-1.625-0.773-2.322-0.995
		c-0.697-0.221-1.522-0.332-2.475-0.332c-1.055,0-1.888,0.196-2.5,0.587c-0.612,0.391-0.918,0.927-0.918,1.607
		c0,0.714,0.356,1.259,1.071,1.633c0.714,0.375,2.092,0.749,4.133,1.123c2.278,0.442,4.064,0.978,5.357,1.607
		c1.292,0.63,2.228,1.42,2.807,2.373c0.578,0.953,0.867,2.161,0.867,3.623c0,2.416-0.995,4.337-2.985,5.766
		c-1.989,1.429-4.651,2.143-7.984,2.143C191.912,99.683,190.109,99.513,188.578,99.173z"/>
</g>
<path fill="#FF97D5" d="M66.587,320.889c-1.646,0-3.212-0.961-3.906-2.568c-0.931-2.156,0.063-4.658,2.219-5.589
	c3.722-1.605,91.888-39.346,156.762-40.347c88.821-1.372,174.53-27.066,254.745-76.372c1.999-1.23,4.618-0.605,5.849,1.396
	c1.23,2,0.605,4.619-1.396,5.849c-81.534,50.116-168.697,76.234-259.067,77.628c-26.07,0.403-60.866,7.378-100.625,20.172
	c-30.146,9.7-52.674,19.385-52.898,19.481C67.721,320.777,67.149,320.889,66.587,320.889z"/>
<path fill="#F2F2F2" d="M357.943,145.851c0,3.234-2.623,5.855-5.854,5.855H262.94c-3.231,0-5.854-2.623-5.854-5.855v-10.246
	c0-3.23,2.621-5.854,5.854-5.854h89.147c3.232,0,5.855,2.623,5.855,5.854V145.851L357.943,145.851z"/>
</svg>
