<?xml version="1.0" encoding="utf-8"?>
<!-- Generator: Adobe Illustrator 16.0.0, SVG Export Plug-In . SVG Version: 6.00 Build 0)  -->
<!DOCTYPE svg PUBLIC "-//W3C//DTD SVG 1.1//EN" "http://www.w3.org/Graphics/SVG/1.1/DTD/svg11.dtd">
<svg version="1.1" id="Layer_1" xmlns="http://www.w3.org/2000/svg" xmlns:xlink="http://www.w3.org/1999/xlink" x="0px" y="0px"
	 width="811.326px" height="232.001px" viewBox="0 0 811.326 232.001" enable-background="new 0 0 811.326 232.001"
	 xml:space="preserve">
<g>
	<path fill="#FFFFFF" d="M811.326,209.001c0,12.703-10.297,23-22.999,23H22.999c-12.702,0-22.999-10.297-22.999-23V23
		C0,10.296,10.297,0,22.999,0h765.328c12.702,0,22.999,10.297,22.999,23V209.001z"/>
</g>
<path fill="#C3B3F4" d="M117.18,172.287c-2.349,0-4.692-0.893-6.489-2.674c-3.315-3.291-6.574-6.479-9.738-9.568
	c-23.543-23.02-42.14-41.195-42.134-61.756c0.005-22.457,18.009-34.572,34.943-34.572c8.84,0,17.043,3.027,23.455,8.42
	c6.404-5.357,14.603-8.363,23.438-8.363c9.001,0,17.476,3.139,23.867,8.838c7.127,6.355,11.05,15.486,11.046,25.711
	c-0.01,20.559-18.607,38.729-42.156,61.727c-3.167,3.094-6.427,6.277-9.744,9.568C121.872,171.396,119.526,172.287,117.18,172.287z
	 M93.764,82.14c-6.135,0-16.518,3.4-16.521,16.152c-0.003,12.805,16.954,29.381,36.59,48.576c1.107,1.082,2.225,2.174,3.354,3.279
	c1.128-1.104,2.246-2.195,3.354-3.279c19.641-19.186,36.604-35.748,36.607-48.555c0.002-5.039-1.643-9.061-4.885-11.953
	c-2.969-2.646-7.198-4.166-11.604-4.166c-3.135,0-10.921,0.848-15.491,8.688c-1.65,2.83-4.681,4.572-7.96,4.572l0,0
	c-3.276,0-6.308-1.742-7.958-4.574C104.646,82.99,96.889,82.14,93.764,82.14z"/>
<g enable-background="new    ">
	<path fill="#E0E0E0" d="M259.162,134.033c0,2.615-1.536,3.922-4.605,3.922h-23.152c-1.287,0-2.313-0.383-3.081-1.152
		c-0.768-0.768-1.151-1.73-1.151-2.893c0-1.494,0.601-2.863,1.805-4.109l13.692-14.5c3.07-3.236,4.605-6.224,4.605-8.962
		c0-1.7-0.478-2.997-1.431-3.89c-0.955-0.892-2.345-1.338-4.17-1.338c-1.577,0-3.029,0.271-4.356,0.81
		c-1.329,0.539-2.863,1.328-4.605,2.364c-0.706,0.415-1.245,0.706-1.618,0.871c-0.374,0.167-0.809,0.249-1.307,0.249
		c-0.871,0-1.618-0.404-2.24-1.213c-0.623-0.81-0.934-1.753-0.934-2.832c0-0.788,0.134-1.441,0.404-1.961
		c0.27-0.518,0.716-0.984,1.338-1.399c1.867-1.369,4.014-2.459,6.441-3.268c2.427-0.81,4.864-1.214,7.312-1.214
		c2.946,0,5.528,0.498,7.749,1.494c2.219,0.995,3.931,2.417,5.134,4.263c1.203,1.847,1.805,3.974,1.805,6.379
		c0,2.531-0.529,4.876-1.587,7.033c-1.058,2.157-2.832,4.564-5.321,7.219l-9.771,10.27h14.439
		C257.626,130.175,259.162,131.46,259.162,134.033z"/>
	<path fill="#E0E0E0" d="M289.907,111.349c2.116,1.182,3.754,2.831,4.917,4.947c1.161,2.116,1.743,4.565,1.743,7.344
		c0,2.904-0.685,5.477-2.054,7.717s-3.289,3.982-5.757,5.229c-2.469,1.244-5.321,1.867-8.558,1.867c-2.573,0-5.083-0.395-7.53-1.184
		c-2.449-0.787-4.565-1.887-6.348-3.299c-0.623-0.455-1.058-0.943-1.307-1.461c-0.249-0.52-0.374-1.152-0.374-1.898
		c0-1.078,0.301-2.002,0.903-2.77c0.601-0.768,1.338-1.152,2.209-1.152c0.498,0,0.954,0.074,1.369,0.219
		c0.415,0.145,0.954,0.404,1.618,0.777c1.659,0.996,3.174,1.773,4.543,2.334s2.863,0.84,4.481,0.84c2.53,0,4.45-0.58,5.757-1.742
		s1.96-2.883,1.96-5.166c0-2.156-0.675-3.857-2.023-5.104c-1.349-1.244-3.164-1.867-5.445-1.867c-1.411,0-2.698,0.177-3.859,0.529
		c-1.162,0.354-2.427,0.945-3.796,1.773c-0.871,0.498-1.743,0.748-2.614,0.748c-0.996,0-1.836-0.301-2.521-0.902
		s-1.027-1.4-1.027-2.397v-18.11c0-1.452,0.394-2.572,1.183-3.361c0.788-0.787,1.908-1.182,3.36-1.182h20.04
		c3.07,0,4.605,1.224,4.605,3.672c0,2.489-1.535,3.733-4.605,3.733h-15.123v9.771c1.991-1.12,4.335-1.681,7.033-1.681
		C285.384,109.574,287.791,110.166,289.907,111.349z"/>
	<path fill="#E0E0E0" d="M310.568,129.396c0.996,1.184,1.494,2.895,1.494,5.135c0,4.314-1.556,8.092-4.668,11.328
		c-0.622,0.621-1.287,0.934-1.991,0.934c-0.706,0-1.318-0.24-1.836-0.717c-0.52-0.477-0.778-1.049-0.778-1.711
		c0-0.623,0.228-1.162,0.685-1.619c1.369-1.41,2.282-2.986,2.739-4.729c-1.411-0.125-2.552-0.643-3.423-1.557
		c-0.871-0.912-1.307-2.074-1.307-3.484c0-1.535,0.487-2.811,1.462-3.828c0.974-1.016,2.188-1.525,3.641-1.525
		C308.244,127.623,309.572,128.214,310.568,129.396z"/>
	<path fill="#E0E0E0" d="M321.366,132.726c-2.801-3.859-4.201-9.438-4.201-16.742c0-7.26,1.4-12.82,4.201-16.679
		c2.8-3.858,6.855-5.788,12.167-5.788c5.311,0,9.366,1.93,12.167,5.788s4.201,9.419,4.201,16.679c0,7.304-1.4,12.882-4.201,16.742
		s-6.856,5.789-12.167,5.789C328.222,138.515,324.167,136.585,321.366,132.726z M338.792,127.498
		c1.099-2.404,1.649-6.242,1.649-11.513c0-5.311-0.55-9.148-1.649-11.514c-1.1-2.364-2.853-3.547-5.259-3.547
		c-2.407,0-4.16,1.193-5.259,3.578c-1.1,2.387-1.649,6.214-1.649,11.482c0,5.271,0.549,9.109,1.649,11.513
		c1.099,2.408,2.853,3.611,5.259,3.611C335.939,131.109,337.692,129.906,338.792,127.498z"/>
	<path fill="#E0E0E0" d="M358.707,132.726c-2.801-3.859-4.201-9.438-4.201-16.742c0-7.26,1.4-12.82,4.201-16.679
		c2.8-3.858,6.855-5.788,12.167-5.788c5.311,0,9.366,1.93,12.167,5.788s4.201,9.419,4.201,16.679c0,7.304-1.4,12.882-4.201,16.742
		s-6.856,5.789-12.167,5.789C365.562,138.515,361.507,136.585,358.707,132.726z M376.133,127.498
		c1.099-2.404,1.649-6.242,1.649-11.513c0-5.311-0.55-9.148-1.649-11.514c-1.1-2.364-2.853-3.547-5.259-3.547
		c-2.407,0-4.16,1.193-5.259,3.578c-1.1,2.387-1.649,6.214-1.649,11.482c0,5.271,0.549,9.109,1.649,11.513
		c1.099,2.408,2.853,3.611,5.259,3.611C373.28,131.109,375.033,129.906,376.133,127.498z"/>
	<path fill="#E0E0E0" d="M396.048,132.726c-2.801-3.859-4.201-9.438-4.201-16.742c0-7.26,1.4-12.82,4.201-16.679
		c2.8-3.858,6.855-5.788,12.167-5.788c5.311,0,9.367,1.93,12.168,5.788s4.201,9.419,4.201,16.679c0,7.304-1.4,12.882-4.201,16.742
		s-6.857,5.789-12.168,5.789C402.904,138.515,398.849,136.585,396.048,132.726z M413.475,127.498
		c1.099-2.404,1.648-6.242,1.648-11.513c0-5.311-0.55-9.148-1.648-11.514c-1.1-2.364-2.854-3.547-5.26-3.547
		s-4.16,1.193-5.259,3.578c-1.1,2.387-1.649,6.214-1.649,11.482c0,5.271,0.549,9.109,1.649,11.513
		c1.099,2.408,2.853,3.611,5.259,3.611S412.375,129.906,413.475,127.498z"/>
</g>
<g>
	<path fill="#B7EDB7" d="M583.276,121.275c0-2.447,1.473-3.672,4.419-3.672h12.198c2.945,0,4.419,1.225,4.419,3.672
		c0,2.449-1.474,3.672-4.419,3.672h-12.198C584.749,124.947,583.276,123.724,583.276,121.275z"/>
	<path fill="#B7EDB7" d="M641.715,95.198c0.705,0.746,1.059,1.701,1.059,2.862c0,1.204-0.333,2.387-0.996,3.548l-19.418,34.354
		c-0.457,0.871-1.048,1.516-1.773,1.93c-0.727,0.414-1.484,0.623-2.271,0.623c-1.204,0-2.282-0.428-3.236-1.277
		c-0.955-0.85-1.432-1.898-1.432-3.143c0-0.871,0.228-1.701,0.686-2.488l16.99-29.75h-17.24c-3.029,0-4.543-1.286-4.543-3.858
		c0-2.614,1.514-3.921,4.543-3.921h24.646C640.014,94.078,641.01,94.451,641.715,95.198z"/>
	<path fill="#B7EDB7" d="M680.053,134.033c0,2.615-1.536,3.922-4.605,3.922h-23.152c-1.287,0-2.313-0.383-3.08-1.152
		c-0.769-0.768-1.152-1.73-1.152-2.893c0-1.494,0.602-2.863,1.805-4.109l13.692-14.5c3.07-3.236,4.605-6.224,4.605-8.962
		c0-1.7-0.478-2.997-1.431-3.89c-0.955-0.892-2.346-1.338-4.17-1.338c-1.578,0-3.029,0.271-4.357,0.81s-2.862,1.328-4.605,2.364
		c-0.705,0.415-1.244,0.706-1.617,0.871c-0.374,0.167-0.81,0.249-1.308,0.249c-0.871,0-1.618-0.404-2.24-1.213
		c-0.622-0.81-0.934-1.753-0.934-2.832c0-0.788,0.134-1.441,0.404-1.961c0.27-0.518,0.716-0.984,1.339-1.399
		c1.866-1.369,4.014-2.459,6.441-3.268c2.427-0.81,4.863-1.214,7.312-1.214c2.945,0,5.527,0.498,7.748,1.494
		c2.219,0.995,3.931,2.417,5.135,4.263c1.203,1.847,1.805,3.974,1.805,6.379c0,2.531-0.529,4.876-1.588,7.033
		c-1.057,2.157-2.831,4.564-5.32,7.219l-9.771,10.27h14.439C678.517,130.175,680.053,131.46,680.053,134.033z"/>
	<path fill="#B7EDB7" d="M687.489,116.763c-2.013-2.303-3.019-5.652-3.019-10.051c0-4.273,1.017-7.562,3.05-9.864
		c2.032-2.303,4.812-3.454,8.34-3.454c3.567,0,6.357,1.151,8.37,3.454c2.012,2.303,3.02,5.611,3.02,9.926
		c0,4.398-1.008,7.739-3.02,10.021c-2.013,2.282-4.803,3.422-8.37,3.422C692.291,120.216,689.502,119.066,687.489,116.763z
		 M698.66,112.624c0.581-1.161,0.872-3.111,0.872-5.851c0-2.613-0.302-4.512-0.902-5.694c-0.603-1.183-1.524-1.773-2.77-1.773
		s-2.158,0.581-2.739,1.742c-0.581,1.162-0.871,3.071-0.871,5.726c0,2.698,0.29,4.637,0.871,5.819s1.494,1.773,2.739,1.773
		C697.146,114.366,698.079,113.786,698.66,112.624z M700.403,139.136c-0.871,0-1.629-0.322-2.271-0.965
		c-0.644-0.643-0.965-1.441-0.965-2.396c0-0.787,0.249-1.617,0.747-2.488l22.031-38.027c0.871-1.576,2.033-2.364,3.485-2.364
		c0.912,0,1.69,0.321,2.334,0.965c0.643,0.644,0.964,1.441,0.964,2.396c0,0.789-0.248,1.618-0.746,2.489l-22.031,38.026
		C702.996,138.347,701.813,139.136,700.403,139.136z M719.604,134.935c-2.014-2.303-3.019-5.652-3.019-10.051
		c0-4.314,1.005-7.613,3.019-9.895c2.012-2.281,4.802-3.423,8.371-3.423c3.525,0,6.306,1.151,8.339,3.454
		c2.032,2.303,3.05,5.612,3.05,9.926c0,4.357-1.007,7.686-3.019,9.988c-2.013,2.303-4.803,3.455-8.37,3.455
		C724.405,138.39,721.615,137.238,719.604,134.935z M730.774,130.796c0.581-1.16,0.872-3.111,0.872-5.85
		c0-2.654-0.303-4.574-0.902-5.756c-0.603-1.184-1.525-1.775-2.77-1.775c-1.246,0-2.17,0.592-2.77,1.775
		c-0.603,1.182-0.902,3.102-0.902,5.756c0,2.738,0.289,4.689,0.871,5.85c0.58,1.162,1.514,1.744,2.801,1.744
		C729.26,132.541,730.193,131.958,730.774,130.796z"/>
</g>
<path fill="#F2F2F2" d="M535.326,173.704c-0.783,0-1.417-0.634-1.417-1.417V63.716c0-0.783,0.634-1.417,1.417-1.417
	s1.417,0.635,1.417,1.417v108.57C536.743,173.07,536.109,173.704,535.326,173.704z"/>
</svg>
