<?xml version="1.0" encoding="utf-8"?>
<!-- Generator: Adobe Illustrator 16.0.0, SVG Export Plug-In . SVG Version: 6.00 Build 0)  -->
<!DOCTYPE svg PUBLIC "-//W3C//DTD SVG 1.1//EN" "http://www.w3.org/Graphics/SVG/1.1/DTD/svg11.dtd">
<svg version="1.1" id="Layer_1" xmlns="http://www.w3.org/2000/svg" xmlns:xlink="http://www.w3.org/1999/xlink" x="0px" y="0px"
	 width="754.9px" height="236.348px" viewBox="0 0 754.9 236.348" enable-background="new 0 0 754.9 236.348" xml:space="preserve">
<g>
	<g>
		<path fill="#FFFFFF" d="M637.021,0c-4.394,0-514.748,0-519.144,0C52.775,0,0,53.078,0,118.176
			c0,65.002,52.616,115.357,117.58,118.172h519.147c0.099,0,0.197-0.66,0.294-0.66c65.104,0,117.879-52.74,117.879-117.842
			C754.9,52.745,702.125,0,637.021,0z"/>
	</g>
</g>
<path fill="#EBC5F9" d="M99.392,167.273c-1.714,0-3.427-0.443-4.962-1.33c-3.068-1.772-4.959-5.047-4.959-8.591V78.994
	c0-3.575,1.923-6.873,5.035-8.634c3.111-1.762,6.929-1.712,9.994,0.128l66.56,39.965c3.013,1.81,4.844,5.078,4.813,8.593
	s-1.919,6.751-4.963,8.507l-66.56,38.394C102.815,166.831,101.104,167.273,99.392,167.273z M109.313,96.523v43.652l37.08-21.389
	L109.313,96.523z"/>
<g enable-background="new    ">
	<path fill="#E0E0E0" d="M255.172,164.986c0,2.273-1.335,3.41-4.004,3.41h-20.13c-1.119,0-2.012-0.334-2.679-1.002
		c-0.668-0.666-1.001-1.506-1.001-2.516c0-1.299,0.522-2.49,1.569-3.572l11.905-12.607c2.669-2.814,4.004-5.412,4.004-7.793
		c0-1.479-0.415-2.605-1.245-3.383c-0.83-0.775-2.039-1.162-3.625-1.162c-1.372,0-2.634,0.234-3.788,0.703
		c-1.155,0.469-2.489,1.154-4.004,2.057c-0.614,0.359-1.082,0.613-1.407,0.758s-0.704,0.215-1.136,0.215
		c-0.758,0-1.407-0.352-1.948-1.055s-0.812-1.523-0.812-2.463c0-0.684,0.117-1.252,0.352-1.703c0.234-0.451,0.622-0.857,1.164-1.219
		c1.623-1.189,3.49-2.137,5.601-2.84s4.229-1.057,6.358-1.057c2.561,0,4.807,0.434,6.737,1.299c1.929,0.867,3.417,2.104,4.464,3.707
		c1.046,1.605,1.569,3.455,1.569,5.547c0,2.201-0.46,4.24-1.38,6.115c-0.92,1.877-2.462,3.969-4.627,6.277l-8.496,8.928h12.554
		C253.837,161.631,255.172,162.75,255.172,164.986z"/>
	<path fill="#E0E0E0" d="M284.799,152.135c1.208,1.605,1.813,3.562,1.813,5.871c0,2.201-0.568,4.113-1.705,5.736
		c-1.137,1.623-2.77,2.877-4.897,3.762c-2.129,0.883-4.6,1.324-7.414,1.324c-2.346,0-4.591-0.342-6.737-1.027
		c-2.147-0.686-3.996-1.641-5.546-2.867c-0.542-0.396-0.93-0.83-1.164-1.299c-0.235-0.469-0.352-1.01-0.352-1.625
		c0-0.938,0.271-1.74,0.812-2.408c0.541-0.666,1.19-1,1.948-1c0.433,0,0.83,0.062,1.191,0.189c0.36,0.127,0.812,0.352,1.353,0.676
		c1.587,0.902,2.958,1.588,4.113,2.057c1.154,0.469,2.507,0.703,4.059,0.703c2.2,0,3.806-0.406,4.816-1.217
		c1.01-0.812,1.515-2.084,1.515-3.814c0-1.695-0.523-2.924-1.569-3.68c-1.047-0.758-2.725-1.137-5.033-1.137h-3.193
		c-0.938,0-1.677-0.326-2.219-0.975c-0.541-0.65-0.812-1.424-0.812-2.326c0-0.867,0.271-1.625,0.812-2.273
		c0.542-0.65,1.28-0.975,2.219-0.975h2.273c2.2,0,3.833-0.379,4.897-1.137c1.064-0.758,1.597-1.93,1.597-3.518
		c0-1.514-0.452-2.695-1.353-3.543c-0.902-0.848-2.165-1.271-3.788-1.271c-1.335,0-2.58,0.234-3.734,0.703
		c-1.155,0.469-2.489,1.154-4.004,2.057c-0.541,0.324-0.993,0.549-1.353,0.676c-0.361,0.127-0.758,0.189-1.19,0.189
		c-0.758,0-1.407-0.334-1.948-1.002c-0.541-0.666-0.812-1.469-0.812-2.408c0-0.648,0.117-1.197,0.352-1.65
		c0.234-0.449,0.622-0.873,1.164-1.271c1.515-1.225,3.328-2.182,5.438-2.867c2.11-0.686,4.266-1.029,6.466-1.029
		c2.561,0,4.816,0.426,6.764,1.273c1.948,0.848,3.445,2.047,4.492,3.598c1.046,1.551,1.569,3.355,1.569,5.412
		c0,2.055-0.533,3.852-1.597,5.383c-1.064,1.535-2.535,2.645-4.41,3.328C281.868,149.402,283.59,150.529,284.799,152.135z"/>
	<path fill="#E0E0E0" d="M314.372,145.262c1.84,1.029,3.265,2.463,4.275,4.303c1.01,1.84,1.515,3.969,1.515,6.385
		c0,2.525-0.595,4.762-1.786,6.711c-1.19,1.947-2.86,3.463-5.005,4.545c-2.147,1.082-4.627,1.623-7.441,1.623
		c-2.237,0-4.419-0.342-6.548-1.027c-2.129-0.686-3.969-1.641-5.52-2.867c-0.541-0.396-0.92-0.82-1.136-1.273
		c-0.217-0.449-0.325-1-0.325-1.65c0-0.938,0.261-1.74,0.785-2.408c0.522-0.666,1.163-1,1.921-1c0.433,0,0.83,0.062,1.19,0.189
		c0.36,0.127,0.83,0.352,1.407,0.676c1.442,0.867,2.76,1.543,3.95,2.029c1.19,0.488,2.489,0.73,3.896,0.73
		c2.2,0,3.869-0.504,5.006-1.516c1.136-1.008,1.705-2.506,1.705-4.49c0-1.875-0.587-3.355-1.759-4.438
		c-1.173-1.082-2.751-1.623-4.735-1.623c-1.227,0-2.346,0.154-3.355,0.459c-1.01,0.307-2.11,0.822-3.301,1.543
		c-0.757,0.434-1.515,0.648-2.273,0.648c-0.866,0-1.596-0.26-2.191-0.783s-0.893-1.219-0.893-2.084v-15.748
		c0-1.262,0.343-2.236,1.028-2.922c0.685-0.684,1.659-1.027,2.922-1.027h17.424c2.669,0,4.004,1.064,4.004,3.191
		c0,2.166-1.335,3.248-4.004,3.248H301.98v8.496c1.731-0.975,3.769-1.461,6.115-1.461
		C310.439,143.721,312.532,144.234,314.372,145.262z"/>
	<path fill="#E0E0E0" d="M332.337,160.955c0.866,1.029,1.298,2.516,1.298,4.465c0,3.752-1.353,7.035-4.058,9.848
		c-0.542,0.543-1.119,0.812-1.732,0.812c-0.614,0-1.146-0.207-1.596-0.623c-0.452-0.414-0.677-0.91-0.677-1.486
		c0-0.543,0.198-1.012,0.596-1.408c1.19-1.227,1.983-2.598,2.381-4.113c-1.227-0.107-2.219-0.559-2.977-1.352
		c-0.757-0.793-1.136-1.805-1.136-3.031c0-1.334,0.424-2.443,1.272-3.328c0.847-0.883,1.902-1.324,3.166-1.324
		C330.316,159.414,331.471,159.928,332.337,160.955z"/>
	<path fill="#E0E0E0" d="M366.699,164.986c0,2.273-1.335,3.41-4.004,3.41h-20.13c-1.119,0-2.012-0.334-2.679-1.002
		c-0.668-0.666-1.001-1.506-1.001-2.516c0-1.299,0.522-2.49,1.569-3.572l11.905-12.607c2.669-2.814,4.004-5.412,4.004-7.793
		c0-1.479-0.415-2.605-1.245-3.383c-0.83-0.775-2.039-1.162-3.625-1.162c-1.372,0-2.634,0.234-3.788,0.703
		c-1.155,0.469-2.489,1.154-4.004,2.057c-0.614,0.359-1.082,0.613-1.407,0.758s-0.704,0.215-1.136,0.215
		c-0.758,0-1.407-0.352-1.948-1.055s-0.812-1.523-0.812-2.463c0-0.684,0.117-1.252,0.352-1.703c0.234-0.451,0.622-0.857,1.164-1.219
		c1.623-1.189,3.49-2.137,5.601-2.84s4.229-1.057,6.358-1.057c2.561,0,4.807,0.434,6.737,1.299c1.929,0.867,3.417,2.104,4.464,3.707
		c1.046,1.605,1.569,3.455,1.569,5.547c0,2.201-0.46,4.24-1.38,6.115c-0.92,1.877-2.462,3.969-4.627,6.277l-8.496,8.928h12.554
		C365.364,161.631,366.699,162.75,366.699,164.986z"/>
	<path fill="#E0E0E0" d="M374.248,163.85c-2.435-3.354-3.652-8.205-3.652-14.557c0-6.312,1.217-11.146,3.652-14.502
		s5.96-5.033,10.58-5.033c4.617,0,8.144,1.678,10.579,5.033s3.652,8.189,3.652,14.502c0,6.352-1.217,11.203-3.652,14.557
		c-2.436,3.355-5.962,5.033-10.579,5.033C380.208,168.883,376.683,167.205,374.248,163.85z M389.4,159.305
		c0.956-2.092,1.435-5.43,1.435-10.012c0-4.617-0.479-7.953-1.435-10.01s-2.48-3.086-4.572-3.086c-2.093,0-3.617,1.039-4.573,3.113
		s-1.434,5.402-1.434,9.982c0,4.582,0.478,7.92,1.434,10.012c0.956,2.094,2.48,3.139,4.573,3.139
		C386.919,162.443,388.444,161.398,389.4,159.305z"/>
	<path fill="#E0E0E0" d="M428.794,152.135c1.208,1.605,1.812,3.562,1.812,5.871c0,2.201-0.568,4.113-1.704,5.736
		c-1.137,1.623-2.77,2.877-4.897,3.762c-2.129,0.883-4.6,1.324-7.414,1.324c-2.345,0-4.591-0.342-6.736-1.027
		c-2.147-0.686-3.996-1.641-5.547-2.867c-0.541-0.396-0.93-0.83-1.164-1.299s-0.352-1.01-0.352-1.625
		c0-0.938,0.271-1.74,0.812-2.408c0.542-0.666,1.19-1,1.948-1c0.434,0,0.83,0.062,1.19,0.189s0.812,0.352,1.354,0.676
		c1.587,0.902,2.957,1.588,4.112,2.057c1.154,0.469,2.507,0.703,4.059,0.703c2.2,0,3.806-0.406,4.816-1.217
		c1.009-0.812,1.515-2.084,1.515-3.814c0-1.695-0.523-2.924-1.569-3.68c-1.047-0.758-2.724-1.137-5.032-1.137h-3.192
		c-0.939,0-1.678-0.326-2.219-0.975c-0.542-0.65-0.812-1.424-0.812-2.326c0-0.867,0.271-1.625,0.812-2.273
		c0.541-0.65,1.279-0.975,2.219-0.975h2.272c2.2,0,3.833-0.379,4.897-1.137c1.063-0.758,1.596-1.93,1.596-3.518
		c0-1.514-0.451-2.695-1.353-3.543c-0.902-0.848-2.164-1.271-3.788-1.271c-1.335,0-2.579,0.234-3.733,0.703
		c-1.155,0.469-2.489,1.154-4.005,2.057c-0.541,0.324-0.992,0.549-1.353,0.676c-0.361,0.127-0.758,0.189-1.19,0.189
		c-0.758,0-1.407-0.334-1.948-1.002c-0.541-0.666-0.812-1.469-0.812-2.408c0-0.648,0.116-1.197,0.352-1.65
		c0.234-0.449,0.622-0.873,1.163-1.271c1.516-1.225,3.328-2.182,5.438-2.867s4.266-1.029,6.467-1.029
		c2.562,0,4.816,0.426,6.765,1.273s3.444,2.047,4.491,3.598c1.046,1.551,1.569,3.355,1.569,5.412c0,2.055-0.533,3.852-1.597,5.383
		c-1.064,1.535-2.535,2.645-4.41,3.328C425.863,149.402,427.585,150.529,428.794,152.135z"/>
	<path fill="#E0E0E0" d="M471.328,141.908c0.595-0.379,1.235-0.568,1.921-0.568c1.01,0,1.911,0.334,2.705,1
		c0.794,0.668,1.19,1.471,1.19,2.408c0,0.541-0.126,1.064-0.378,1.57l-9.741,19.967c-0.36,0.795-0.902,1.398-1.623,1.812
		c-0.722,0.414-1.497,0.623-2.327,0.623s-1.605-0.209-2.327-0.623s-1.28-1.018-1.677-1.812l-9.741-19.967
		c-0.216-0.506-0.324-0.992-0.324-1.461c0-0.975,0.424-1.805,1.271-2.49s1.794-1.027,2.841-1.027c0.758,0,1.442,0.189,2.057,0.568
		c0.613,0.377,1.1,0.945,1.461,1.703l6.656,14.557l6.602-14.557C470.253,142.854,470.732,142.285,471.328,141.908z"/>
	<path fill="#E0E0E0" d="M481.365,135.846c-0.83-0.738-1.244-1.74-1.244-3.002c0-1.264,0.414-2.254,1.244-2.977
		c0.83-0.721,1.966-1.082,3.409-1.082c1.407,0,2.534,0.369,3.383,1.109c0.847,0.74,1.271,1.723,1.271,2.949
		c0,1.262-0.415,2.264-1.245,3.002c-0.83,0.74-1.967,1.109-3.409,1.109C483.331,136.955,482.195,136.586,481.365,135.846z
		 M481.825,167.746c-0.776-0.648-1.163-1.604-1.163-2.867v-19.752c0-1.262,0.396-2.219,1.19-2.867
		c0.793-0.65,1.768-0.975,2.922-0.975s2.119,0.324,2.896,0.975c0.775,0.648,1.163,1.605,1.163,2.867v19.752
		c0,1.264-0.388,2.219-1.163,2.867c-0.776,0.65-1.741,0.975-2.896,0.975C483.583,168.721,482.6,168.396,481.825,167.746z"/>
	<path fill="#E0E0E0" d="M518.189,161.361c0.451,0.578,0.677,1.316,0.677,2.219c0,0.613-0.181,1.182-0.541,1.705
		c-0.361,0.523-0.866,0.965-1.516,1.324c-1.227,0.65-2.651,1.184-4.274,1.598c-1.624,0.414-3.121,0.621-4.491,0.621
		c-2.887,0-5.403-0.559-7.55-1.676c-2.146-1.119-3.797-2.715-4.951-4.791c-1.154-2.072-1.731-4.518-1.731-7.332
		c0-2.705,0.559-5.104,1.678-7.197c1.117-2.092,2.669-3.725,4.653-4.896s4.239-1.76,6.765-1.76c2.416,0,4.536,0.533,6.358,1.598
		c1.821,1.064,3.237,2.58,4.248,4.545c1.01,1.967,1.515,4.268,1.515,6.9c0,0.793-0.189,1.398-0.568,1.812
		c-0.378,0.414-0.911,0.621-1.596,0.621h-15.152c0.252,2.131,0.901,3.672,1.948,4.627c1.046,0.957,2.544,1.436,4.491,1.436
		c1.046,0,1.984-0.127,2.814-0.379c0.829-0.252,1.749-0.596,2.76-1.029c0.505-0.217,0.991-0.406,1.461-0.568
		c0.469-0.162,0.884-0.242,1.245-0.242C517.152,160.496,517.738,160.785,518.189,161.361z M503.389,148.293
		c-0.938,0.992-1.497,2.426-1.678,4.303h10.444c-0.108-1.912-0.587-3.355-1.435-4.33s-2.048-1.461-3.598-1.461
		C505.572,146.805,504.327,147.301,503.389,148.293z"/>
	<path fill="#E0E0E0" d="M560.479,141.934c0.576-0.396,1.19-0.594,1.84-0.594c1.009,0,1.911,0.342,2.705,1.027
		c0.793,0.686,1.19,1.533,1.19,2.543c0,0.434-0.108,0.92-0.324,1.461l-8.875,19.914c-0.324,0.795-0.848,1.398-1.569,1.812
		s-1.479,0.623-2.272,0.623c-0.83,0-1.597-0.209-2.3-0.623c-0.704-0.414-1.218-1.018-1.542-1.812l-5.791-13.475l-5.573,13.475
		c-0.325,0.795-0.83,1.398-1.516,1.812s-1.461,0.623-2.326,0.623c-0.831,0-1.606-0.209-2.327-0.623
		c-0.723-0.414-1.245-1.018-1.569-1.812l-8.82-19.914c-0.217-0.504-0.325-0.992-0.325-1.461c0-1.01,0.424-1.857,1.271-2.543
		s1.813-1.027,2.896-1.027c0.722,0,1.38,0.197,1.976,0.594c0.595,0.398,1.055,0.975,1.38,1.732l5.79,14.557l5.898-14.449
		c0.324-0.758,0.802-1.344,1.434-1.758c0.631-0.414,1.326-0.623,2.083-0.623c0.758,0,1.462,0.199,2.111,0.596
		c0.649,0.398,1.136,0.992,1.461,1.785l6.007,14.449l5.735-14.557C559.451,142.908,559.901,142.332,560.479,141.934z"/>
	<path fill="#E0E0E0" d="M574.17,168.287c-1.623-0.359-3.049-0.938-4.275-1.73c-0.541-0.326-0.956-0.758-1.244-1.299
		c-0.289-0.541-0.433-1.154-0.433-1.84c0-0.83,0.233-1.523,0.703-2.084c0.469-0.559,1.046-0.838,1.731-0.838
		c0.469,0,0.938,0.08,1.407,0.242c0.469,0.162,0.955,0.352,1.461,0.568c1.01,0.469,2.002,0.84,2.977,1.109
		c0.974,0.271,2.182,0.406,3.625,0.406c1.263,0,2.246-0.197,2.949-0.596c0.704-0.396,1.056-0.938,1.056-1.623
		c0-0.504-0.154-0.91-0.46-1.217c-0.307-0.307-0.875-0.586-1.705-0.84c-0.83-0.252-2.146-0.559-3.95-0.92
		c-3.211-0.613-5.52-1.533-6.927-2.76c-1.406-1.227-2.11-2.939-2.11-5.141c0-1.623,0.496-3.084,1.488-4.383s2.354-2.318,4.086-3.059
		c1.731-0.738,3.68-1.109,5.844-1.109c1.551,0,3.066,0.199,4.546,0.596c1.479,0.398,2.795,0.957,3.95,1.678
		c1.118,0.686,1.678,1.697,1.678,3.031c0,0.865-0.235,1.588-0.703,2.164c-0.47,0.578-1.047,0.865-1.732,0.865
		c-0.83,0-1.821-0.324-2.976-0.973c-0.902-0.469-1.724-0.82-2.463-1.057c-0.739-0.234-1.614-0.352-2.624-0.352
		c-1.119,0-2.002,0.209-2.651,0.623s-0.975,0.982-0.975,1.705c0,0.756,0.379,1.334,1.137,1.73c0.758,0.398,2.219,0.795,4.383,1.191
		c2.417,0.469,4.311,1.037,5.683,1.703c1.37,0.668,2.362,1.508,2.976,2.518s0.92,2.291,0.92,3.842c0,2.562-1.055,4.6-3.165,6.115
		s-4.934,2.271-8.469,2.271C577.706,168.828,575.793,168.648,574.17,168.287z"/>
</g>
<path fill="#E2E2E2" d="M405.122,102.714c0,4.66-3.783,8.441-8.44,8.441H232.984c-4.656,0-8.44-3.781-8.44-8.441V77.392
	c0-4.66,3.784-8.441,8.44-8.441h163.7c4.66,0,8.44,3.781,8.44,8.441v25.322H405.122z"/>
<path fill="#F2F2F2" d="M535.403,102.714c0,4.66-3.784,8.441-8.441,8.441h-94.509c-4.656,0-8.44-3.781-8.44-8.441V77.392
	c0-4.658,3.784-8.441,8.44-8.441h94.509c4.657,0,8.441,3.783,8.441,8.441V102.714z"/>
</svg>
