<?xml version="1.0" encoding="utf-8"?>
<!-- Generator: Adobe Illustrator 16.0.0, SVG Export Plug-In . SVG Version: 6.00 Build 0)  -->
<!DOCTYPE svg PUBLIC "-//W3C//DTD SVG 1.1//EN" "http://www.w3.org/Graphics/SVG/1.1/DTD/svg11.dtd">
<svg version="1.1" id="Layer_1" xmlns="http://www.w3.org/2000/svg" xmlns:xlink="http://www.w3.org/1999/xlink" x="0px" y="0px"
	 width="811.326px" height="232px" viewBox="0 0 811.326 232" enable-background="new 0 0 811.326 232" xml:space="preserve">
<g>
	<path fill="#FFFFFF" d="M811.326,209c0,12.703-10.297,23-22.999,23H22.999C10.297,232,0,221.704,0,209V22.999
		C0,10.297,10.297,0,22.999,0h765.328c12.702,0,22.999,10.297,22.999,22.998V209z"/>
</g>
<path fill="#ECEF81" d="M180.274,166c0,10.494-8.506,19-19,19H61.272c-10.492,0-18.998-8.506-18.998-19V66
	C42.274,55.506,50.78,47,61.272,47h100.002c10.494,0,19,8.506,19,18.999V166L180.274,166z"/>
<g enable-background="new    ">
	<path fill="#E0E0E0" d="M260.095,67.279c0.758,0.757,1.137,1.768,1.137,3.03v30.357c0,1.264-0.379,2.282-1.137,3.058
		c-0.757,0.776-1.768,1.163-3.03,1.163s-2.264-0.378-3.003-1.136c-0.74-0.758-1.109-1.786-1.109-3.085V88.546h-17.587v12.121
		c0,1.264-0.379,2.282-1.137,3.058c-0.758,0.776-1.75,1.163-2.977,1.163c-1.263,0-2.272-0.378-3.03-1.136
		c-0.757-0.758-1.136-1.786-1.136-3.085V70.31c0-1.263,0.379-2.273,1.136-3.03c0.758-0.758,1.768-1.137,3.03-1.137
		s2.264,0.379,3.004,1.137c0.739,0.757,1.109,1.768,1.109,3.03v11.526h17.587V70.31c0-1.263,0.369-2.273,1.109-3.03
		c0.739-0.758,1.74-1.137,3.003-1.137S259.338,66.521,260.095,67.279z"/>
	<path fill="#E0E0E0" d="M273.516,103.292c-2.13-1.137-3.771-2.741-4.925-4.816c-1.155-2.074-1.731-4.519-1.731-7.332
		c0-2.814,0.576-5.258,1.731-7.333c1.154-2.074,2.795-3.67,4.925-4.789c2.128-1.117,4.6-1.678,7.413-1.678
		c2.814,0,5.284,0.561,7.414,1.678c2.128,1.119,3.769,2.715,4.924,4.789c1.154,2.075,1.731,4.519,1.731,7.333
		c0,2.813-0.577,5.258-1.731,7.332c-1.155,2.075-2.796,3.68-4.924,4.816c-2.13,1.136-4.6,1.704-7.414,1.704
		C278.115,104.996,275.644,104.428,273.516,103.292z M286.881,91.144c0-2.562-0.514-4.474-1.542-5.736s-2.498-1.895-4.41-1.895
		c-3.969,0-5.952,2.544-5.952,7.631c0,5.086,1.983,7.63,5.952,7.63C284.896,98.773,286.881,96.229,286.881,91.144z"/>
	<path fill="#E0E0E0" d="M336.504,78.102c0.576-0.396,1.19-0.595,1.84-0.595c1.01,0,1.911,0.343,2.705,1.028
		s1.191,1.533,1.191,2.543c0,0.433-0.108,0.92-0.325,1.461l-8.875,19.914c-0.324,0.794-0.848,1.398-1.569,1.812
		s-1.479,0.622-2.272,0.622c-0.83,0-1.597-0.208-2.3-0.622s-1.218-1.019-1.542-1.812l-5.79-13.475l-5.574,13.475
		c-0.324,0.794-0.83,1.398-1.515,1.812c-0.687,0.414-1.462,0.622-2.327,0.622c-0.83,0-1.605-0.208-2.327-0.622
		s-1.244-1.019-1.569-1.812l-8.82-19.914c-0.217-0.505-0.325-0.992-0.325-1.461c0-1.01,0.424-1.857,1.272-2.543
		c0.847-0.686,1.812-1.028,2.895-1.028c0.722,0,1.38,0.198,1.976,0.595c0.595,0.397,1.055,0.975,1.38,1.731l5.79,14.557
		l5.898-14.448c0.324-0.758,0.803-1.344,1.434-1.759c0.631-0.414,1.326-0.622,2.084-0.622s1.461,0.199,2.11,0.596
		c0.649,0.397,1.137,0.992,1.461,1.785l6.007,14.448l5.736-14.557C335.476,79.076,335.926,78.499,336.504,78.102z"/>
	<path fill="#E0E0E0" d="M378.387,99.747c0.505,0.47,0.758,1.155,0.758,2.057c0,1.047-0.415,1.84-1.244,2.381
		c-0.83,0.541-2.021,0.758-3.571,0.649l-1.516-0.108c-6.313-0.505-9.47-3.806-9.47-9.902V84.108h-2.165
		c-1.19,0-2.093-0.262-2.705-0.784c-0.613-0.523-0.92-1.272-0.92-2.246c0-1.01,0.307-1.776,0.92-2.3
		c0.612-0.522,1.515-0.785,2.705-0.785h2.165v-4.221c0-1.19,0.369-2.128,1.109-2.813c0.738-0.686,1.74-1.028,3.003-1.028
		s2.254,0.343,2.977,1.028c0.721,0.686,1.082,1.623,1.082,2.813v4.221h3.788c2.453,0,3.68,1.028,3.68,3.085
		c0,0.974-0.307,1.723-0.92,2.246c-0.614,0.522-1.534,0.784-2.76,0.784h-3.788v11.31c0,1.083,0.252,1.903,0.758,2.463
		c0.505,0.56,1.244,0.875,2.219,0.946l1.515,0.108C377.089,99.009,377.882,99.279,378.387,99.747z"/>
	<path fill="#E0E0E0" d="M387.532,103.292c-2.129-1.137-3.771-2.741-4.925-4.816c-1.155-2.074-1.731-4.519-1.731-7.332
		c0-2.814,0.576-5.258,1.731-7.333c1.154-2.074,2.796-3.67,4.925-4.789c2.128-1.117,4.6-1.678,7.413-1.678
		c2.814,0,5.285,0.561,7.414,1.678c2.128,1.119,3.77,2.715,4.924,4.789c1.154,2.075,1.732,4.519,1.732,7.333
		c0,2.813-0.578,5.258-1.732,7.332c-1.154,2.075-2.796,3.68-4.924,4.816c-2.129,1.136-4.6,1.704-7.414,1.704
		C392.132,104.996,389.66,104.428,387.532,103.292z M400.898,91.144c0-2.562-0.515-4.474-1.543-5.736
		c-1.027-1.263-2.498-1.895-4.41-1.895c-3.969,0-5.952,2.544-5.952,7.631c0,5.086,1.983,7.63,5.952,7.63
		S400.898,96.229,400.898,91.144z"/>
</g>
<path fill="#F2F2F2" d="M487.337,155.598c0,6.332-5.136,11.465-11.466,11.465H229.368c-6.33,0-11.463-5.135-11.463-11.465v-20.066
	c0-6.33,5.133-11.461,11.463-11.461h246.503c6.33,0,11.466,5.135,11.466,11.461V155.598z"/>
<path fill="#F2F2F2" d="M658.274,98.59c0,6.333-5.136,11.466-11.466,11.466H436.684c-6.33,0-11.463-5.136-11.463-11.466V78.525
	c0-6.33,5.133-11.462,11.463-11.462h210.125c6.33,0,11.466,5.136,11.466,11.462V98.59z"/>
<g enable-background="new    ">
	<path fill="#E0E0E0" d="M510.715,150.456c-0.452-0.541-0.677-1.264-0.677-2.166c0-1.84,0.333-3.371,1.001-4.6
		c0.667-1.225,1.65-2.578,2.949-4.059c0.975-1.117,1.687-2.047,2.138-2.785c0.45-0.74,0.677-1.578,0.677-2.518
		c0-1.01-0.371-1.812-1.109-2.408c-0.74-0.596-1.741-0.893-3.004-0.893c-1.154,0-2.228,0.234-3.22,0.703
		c-0.992,0.471-2.318,1.191-3.978,2.166c-1.047,0.576-1.912,0.865-2.597,0.865c-0.758,0-1.399-0.334-1.922-1.002
		c-0.523-0.666-0.784-1.469-0.784-2.408c0-0.648,0.116-1.199,0.352-1.65c0.234-0.449,0.604-0.873,1.109-1.271
		c1.587-1.262,3.418-2.246,5.492-2.949s4.158-1.055,6.251-1.055c2.236,0,4.247,0.396,6.033,1.189
		c1.786,0.795,3.174,1.887,4.167,3.275c0.991,1.389,1.488,2.949,1.488,4.68c0,1.336-0.263,2.553-0.785,3.652
		c-0.523,1.102-1.146,2.057-1.866,2.869c-0.723,0.812-1.696,1.812-2.923,3.004c-1.371,1.262-2.399,2.318-3.084,3.164
		c-0.686,0.85-1.119,1.797-1.299,2.842c-0.145,0.686-0.442,1.217-0.893,1.596c-0.452,0.379-1.002,0.568-1.651,0.568
		C511.787,151.266,511.165,150.997,510.715,150.456z M509.389,162.063c-0.866-0.885-1.299-1.994-1.299-3.328
		s0.433-2.443,1.299-3.328s1.966-1.326,3.301-1.326c1.299,0,2.381,0.441,3.247,1.326s1.299,1.994,1.299,3.328
		s-0.433,2.443-1.299,3.328s-1.948,1.324-3.247,1.324C511.354,163.387,510.255,162.948,509.389,162.063z"/>
</g>
</svg>
