<?xml version="1.0" encoding="utf-8"?>
<!-- Generator: Adobe Illustrator 16.0.0, SVG Export Plug-In . SVG Version: 6.00 Build 0)  -->
<!DOCTYPE svg PUBLIC "-//W3C//DTD SVG 1.1//EN" "http://www.w3.org/Graphics/SVG/1.1/DTD/svg11.dtd">
<svg version="1.1" id="Layer_1" xmlns="http://www.w3.org/2000/svg" xmlns:xlink="http://www.w3.org/1999/xlink" x="0px" y="0px"
	 width="558.244px" height="232.383px" viewBox="0 0 558.244 232.383" enable-background="new 0 0 558.244 232.383"
	 xml:space="preserve">
<g>
	<g>
		<path fill="#FFFFFF" d="M442.344,0c-4.318,0-322.12,0-326.443,0C51.891,0,0,52.187,0,116.194
			c0,63.914,51.734,113.424,115.608,116.189h326.444c0.098,0,0.193-0.646,0.291-0.646c64.011,0,115.9-51.855,115.9-115.865
			C558.244,51.86,506.354,0,442.344,0z"/>
	</g>
</g>
<path fill="#F29CE2" d="M115.9,49.709c36.161,0,65.477,29.313,65.477,65.476c0,36.161-29.315,65.472-65.477,65.472
	c-36.157,0-65.472-29.312-65.472-65.472C50.429,79.023,79.743,49.709,115.9,49.709z"/>
<g>
	<path fill="#E0E0E0" d="M230.544,128.127c-0.754,0.924-1.13,2.218-1.13,3.893v1.067h4.392c2.845,0,4.269,1.19,4.269,3.573
		c0,2.344-1.424,3.514-4.269,3.514h-4.392v19.574c0,1.463-0.45,2.57-1.348,3.322c-0.896,0.754-2.016,1.13-3.354,1.13
		c-1.384,0-2.523-0.376-3.418-1.13c-0.9-0.752-1.352-1.859-1.352-3.322v-19.574h-2.504c-2.808,0-4.206-1.17-4.206-3.514
		c0-2.385,1.398-3.573,4.206-3.573h2.504c0-4.019,1.105-7.175,3.327-9.472c2.218-2.301,5.267-3.598,9.164-3.891l1.625-0.125
		l1.13-0.062c2.886,0,4.331,1.11,4.331,3.325c0,2.177-1.214,3.365-3.64,3.576l-1.632,0.125
		C232.53,126.686,231.297,127.209,230.544,128.127z"/>
	<path fill="#E0E0E0" d="M246.979,162.415c-2.47-1.322-4.372-3.181-5.706-5.585c-1.34-2.403-2.011-5.24-2.011-8.503
		c0-3.261,0.671-6.095,2.011-8.502c1.334-2.403,3.239-4.255,5.706-5.552c2.469-1.295,5.335-1.944,8.595-1.944
		c3.264,0,6.13,0.649,8.593,1.944c2.47,1.297,4.37,3.147,5.708,5.552c1.338,2.407,2.007,5.241,2.007,8.502
		c0,3.263-0.666,6.1-2.007,8.503c-1.338,2.404-3.241,4.263-5.708,5.585c-2.469,1.315-5.333,1.976-8.593,1.976
		C252.313,164.391,249.447,163.736,246.979,162.415z M262.474,148.33c0-2.969-0.593-5.188-1.787-6.65
		c-1.195-1.465-2.896-2.193-5.113-2.193c-4.602,0-6.898,2.949-6.898,8.845c0,5.899,2.297,8.845,6.898,8.845
		C260.173,157.174,262.474,154.229,262.474,148.33z"/>
	<path fill="#E0E0E0" d="M279.009,163.135c-0.902-0.752-1.348-1.861-1.348-3.322v-36.015c0-1.464,0.445-2.571,1.348-3.325
		c0.897-0.753,2.036-1.125,3.418-1.125c1.338,0,2.455,0.372,3.354,1.125c0.899,0.754,1.348,1.861,1.348,3.325v36.015
		c0,1.461-0.446,2.57-1.348,3.322c-0.899,0.754-2.017,1.131-3.354,1.131C281.045,164.266,279.906,163.889,279.009,163.135z"/>
	<path fill="#E0E0E0" d="M295.755,163.135c-0.898-0.752-1.348-1.861-1.348-3.322v-36.015c0-1.464,0.449-2.571,1.348-3.325
		c0.9-0.753,2.041-1.125,3.418-1.125c1.338,0,2.46,0.372,3.355,1.125c0.902,0.754,1.349,1.861,1.349,3.325v36.015
		c0,1.461-0.444,2.57-1.349,3.322c-0.896,0.754-2.016,1.131-3.355,1.131C297.796,164.266,296.655,163.889,295.755,163.135z"/>
	<path fill="#E0E0E0" d="M317.372,162.415c-2.472-1.322-4.371-3.181-5.709-5.585c-1.34-2.403-2.008-5.24-2.008-8.503
		c0-3.261,0.664-6.095,2.008-8.502c1.338-2.403,3.24-4.255,5.709-5.552c2.464-1.295,5.332-1.944,8.592-1.944
		c3.263,0,6.127,0.649,8.59,1.944c2.473,1.297,4.372,3.147,5.712,5.552c1.336,2.407,2.011,5.241,2.011,8.502
		c0,3.263-0.671,6.1-2.011,8.503c-1.34,2.404-3.241,4.263-5.712,5.585c-2.467,1.315-5.33,1.976-8.59,1.976
		C322.699,164.391,319.836,163.736,317.372,162.415z M332.863,148.33c0-2.969-0.596-5.188-1.788-6.65
		c-1.194-1.465-2.899-2.193-5.115-2.193c-4.601,0-6.899,2.949-6.899,8.845c0,5.899,2.3,8.845,6.899,8.845
		C330.562,157.174,332.863,154.229,332.863,148.33z"/>
	<path fill="#E0E0E0" d="M390.398,133.211c0.664-0.458,1.376-0.691,2.133-0.691c1.168,0,2.215,0.4,3.134,1.194
		c0.919,0.798,1.384,1.778,1.384,2.95c0,0.5-0.124,1.064-0.38,1.691l-10.29,23.088c-0.374,0.918-0.979,1.619-1.816,2.102
		c-0.839,0.479-1.713,0.723-2.633,0.723c-0.967,0-1.854-0.24-2.668-0.723c-0.815-0.48-1.414-1.184-1.79-2.102l-6.71-15.623
		l-6.461,15.623c-0.38,0.918-0.966,1.619-1.761,2.102c-0.794,0.479-1.694,0.723-2.696,0.723c-0.965,0-1.86-0.24-2.697-0.723
		c-0.841-0.48-1.442-1.184-1.821-2.102l-10.224-23.088c-0.255-0.584-0.379-1.151-0.379-1.691c0-1.172,0.492-2.152,1.478-2.95
		c0.979-0.794,2.102-1.194,3.354-1.194c0.837,0,1.601,0.233,2.291,0.691c0.688,0.46,1.223,1.131,1.598,2.009l6.714,16.875
		l6.841-16.751c0.374-0.878,0.929-1.56,1.661-2.041c0.731-0.475,1.537-0.721,2.416-0.721c0.877,0,1.692,0.229,2.449,0.691
		c0.752,0.461,1.317,1.149,1.69,2.071l6.964,16.749l6.65-16.873C389.202,134.342,389.727,133.671,390.398,133.211z"/>
	<path fill="#E0E0E0" d="M427.69,155.732c0.521,0.672,0.782,1.527,0.782,2.572c0,0.715-0.21,1.369-0.627,1.979
		c-0.419,0.604-1.005,1.115-1.757,1.533c-1.426,0.752-3.073,1.373-4.959,1.852c-1.884,0.48-3.617,0.723-5.203,0.723
		c-3.352,0-6.268-0.648-8.754-1.945c-2.487-1.297-4.403-3.147-5.737-5.551c-1.341-2.406-2.011-5.24-2.011-8.504
		c0-3.138,0.646-5.916,1.943-8.344c1.297-2.426,3.096-4.316,5.395-5.678c2.302-1.357,4.91-2.037,7.843-2.037
		c2.803,0,5.261,0.616,7.372,1.85c2.11,1.236,3.75,2.991,4.924,5.271c1.173,2.279,1.759,4.943,1.759,7.996
		c0,0.922-0.223,1.621-0.659,2.103c-0.44,0.481-1.057,0.726-1.851,0.726h-17.565c0.289,2.467,1.042,4.257,2.255,5.361
		c1.214,1.108,2.948,1.662,5.206,1.662c1.214,0,2.3-0.146,3.265-0.438c0.965-0.293,2.026-0.689,3.198-1.194
		c0.589-0.249,1.151-0.47,1.693-0.655c0.543-0.188,1.023-0.285,1.439-0.285C426.487,154.727,427.165,155.066,427.69,155.732z
		 M410.535,140.582c-1.092,1.15-1.74,2.812-1.945,4.986h12.109c-0.13-2.213-0.682-3.891-1.668-5.019
		c-0.986-1.129-2.375-1.69-4.171-1.69C413.062,138.859,411.618,139.432,410.535,140.582z"/>
	<path fill="#E0E0E0" d="M455.733,133.303c0.729,0.651,1.094,1.622,1.094,2.922c0,1.381-0.335,2.4-1.002,3.07
		c-0.67,0.671-1.861,1.092-3.577,1.26l-1.883,0.188c-2.3,0.249-3.963,1.003-4.986,2.256s-1.538,2.869-1.538,4.831v11.983
		c0,1.461-0.448,2.57-1.348,3.322c-0.899,0.754-2.02,1.131-3.359,1.131c-1.377,0-2.518-0.377-3.418-1.131
		c-0.897-0.752-1.348-1.861-1.348-3.322V136.79c0-1.385,0.46-2.447,1.382-3.202c0.917-0.754,2.026-1.129,3.323-1.129
		c1.255,0,2.301,0.37,3.142,1.1c0.831,0.731,1.251,1.746,1.251,3.041v1.694c0.752-1.799,1.895-3.177,3.42-4.142
		c1.523-0.961,3.187-1.506,4.986-1.633l0.879-0.062C454.005,132.374,455.005,132.659,455.733,133.303z"/>
	<path fill="#E0E0E0" d="M464.237,163.762c-1.887-0.416-3.538-1.087-4.96-2.007c-0.626-0.377-1.105-0.878-1.44-1.506
		c-0.334-0.626-0.504-1.334-0.504-2.131c0-0.966,0.274-1.765,0.813-2.416c0.547-0.647,1.215-0.976,2.012-0.976
		c0.541,0,1.091,0.096,1.632,0.284c0.544,0.187,1.106,0.406,1.695,0.655c1.17,0.546,2.319,0.977,3.448,1.286
		c1.129,0.313,2.528,0.471,4.203,0.471c1.465,0,2.605-0.228,3.418-0.687c0.815-0.463,1.225-1.086,1.225-1.887
		c0-0.584-0.179-1.054-0.532-1.41c-0.356-0.354-1.017-0.68-1.979-0.972s-2.487-0.649-4.578-1.065
		c-3.723-0.713-6.396-1.78-8.029-3.203c-1.632-1.422-2.447-3.407-2.447-5.958c0-1.884,0.577-3.573,1.727-5.081
		c1.149-1.504,2.729-2.688,4.737-3.545c2.011-0.856,4.266-1.285,6.775-1.285c1.793,0,3.554,0.229,5.268,0.691
		c1.713,0.463,3.241,1.106,4.582,1.944c1.292,0.794,1.946,1.968,1.946,3.513c0,1.004-0.277,1.844-0.82,2.511
		c-0.542,0.669-1.212,1.004-2.007,1.004c-0.968,0-2.114-0.374-3.45-1.129c-1.048-0.542-2.001-0.948-2.854-1.224
		c-0.858-0.271-1.873-0.406-3.042-0.406c-1.298,0-2.324,0.24-3.074,0.723c-0.751,0.482-1.129,1.139-1.129,1.975
		c0,0.877,0.437,1.551,1.316,2.012c0.881,0.462,2.575,0.92,5.081,1.379c2.804,0.544,4.998,1.203,6.592,1.976
		c1.588,0.772,2.733,1.745,3.448,2.915c0.71,1.176,1.068,2.655,1.068,4.456c0,2.972-1.222,5.332-3.669,7.086
		c-2.448,1.759-5.724,2.636-9.82,2.636C468.334,164.391,466.113,164.184,464.237,163.762z"/>
</g>
<path fill="#FFFFFF" d="M112.949,136.344c-1.029,0-2.018-0.408-2.745-1.139l-20.43-20.429c-1.517-1.516-1.517-3.976,0-5.492
	c1.516-1.516,3.977-1.516,5.492,0l17.683,17.683l28.926-28.926c1.516-1.516,3.977-1.516,5.492,0c1.517,1.518,1.517,3.977,0,5.493
	l-31.672,31.671C114.968,135.934,113.979,136.344,112.949,136.344z"/>
<g enable-background="new    ">
	<path fill="#E0E0E0" d="M248.458,100.817c0,2.614-1.536,3.921-4.605,3.921h-23.152c-1.287,0-2.313-0.383-3.081-1.151
		c-0.768-0.768-1.151-1.731-1.151-2.894c0-1.494,0.601-2.863,1.805-4.108l13.692-14.501c3.07-3.236,4.605-6.224,4.605-8.962
		c0-1.7-0.478-2.997-1.431-3.89c-0.955-0.892-2.345-1.338-4.17-1.338c-1.577,0-3.029,0.271-4.356,0.81
		c-1.329,0.539-2.863,1.328-4.605,2.364c-0.706,0.415-1.245,0.706-1.618,0.871c-0.374,0.167-0.809,0.249-1.307,0.249
		c-0.871,0-1.618-0.404-2.24-1.213c-0.623-0.81-0.934-1.753-0.934-2.832c0-0.788,0.134-1.441,0.404-1.961
		c0.27-0.518,0.716-0.984,1.338-1.399c1.867-1.369,4.014-2.459,6.441-3.268c2.427-0.81,4.864-1.214,7.312-1.214
		c2.946,0,5.528,0.498,7.749,1.494c2.219,0.995,3.931,2.417,5.134,4.263c1.203,1.847,1.805,3.974,1.805,6.379
		c0,2.531-0.529,4.876-1.587,7.033c-1.058,2.157-2.832,4.564-5.321,7.219l-9.771,10.27h14.439
		C246.922,96.959,248.458,98.245,248.458,100.817z"/>
	<path fill="#E0E0E0" d="M262.523,96.181c0.996,1.183,1.494,2.895,1.494,5.135c0,4.314-1.556,8.091-4.668,11.327
		c-0.622,0.622-1.287,0.934-1.991,0.934c-0.706,0-1.318-0.239-1.836-0.716c-0.52-0.478-0.778-1.049-0.778-1.712
		c0-0.622,0.228-1.162,0.685-1.618c1.369-1.411,2.282-2.987,2.739-4.729c-1.411-0.125-2.552-0.643-3.423-1.557
		c-0.871-0.912-1.307-2.074-1.307-3.484c0-1.535,0.487-2.811,1.462-3.828c0.974-1.016,2.188-1.524,3.641-1.524
		C260.199,94.407,261.527,94.998,262.523,96.181z"/>
	<path fill="#E0E0E0" d="M273.321,99.511c-2.801-3.859-4.201-9.438-4.201-16.742c0-7.26,1.4-12.82,4.201-16.679
		c2.8-3.858,6.855-5.788,12.167-5.788c5.311,0,9.366,1.93,12.167,5.788s4.201,9.419,4.201,16.679c0,7.304-1.4,12.883-4.201,16.742
		c-2.801,3.858-6.856,5.788-12.167,5.788C280.177,105.299,276.122,103.369,273.321,99.511z M290.747,94.282
		c1.1-2.405,1.649-6.243,1.649-11.514c0-5.311-0.55-9.148-1.649-11.514c-1.1-2.364-2.854-3.547-5.259-3.547
		c-2.407,0-4.16,1.193-5.259,3.578c-1.1,2.387-1.649,6.214-1.649,11.482c0,5.271,0.549,9.108,1.649,11.514
		c1.099,2.407,2.852,3.61,5.259,3.61C287.894,97.893,289.647,96.689,290.747,94.282z"/>
	<path fill="#E0E0E0" d="M336.054,86.036c1.391,1.847,2.086,4.098,2.086,6.753c0,2.531-0.654,4.729-1.961,6.597
		s-3.186,3.31-5.633,4.325c-2.448,1.018-5.289,1.525-8.525,1.525c-2.698,0-5.281-0.395-7.749-1.183
		c-2.469-0.788-4.596-1.888-6.379-3.299c-0.622-0.456-1.069-0.954-1.339-1.493s-0.404-1.161-0.404-1.867
		c0-1.078,0.312-2.001,0.934-2.77c0.623-0.768,1.369-1.151,2.24-1.151c0.498,0,0.955,0.073,1.369,0.218
		c0.415,0.146,0.934,0.404,1.557,0.778c1.825,1.037,3.401,1.826,4.73,2.364c1.326,0.54,2.883,0.81,4.667,0.81
		c2.53,0,4.377-0.467,5.539-1.4c1.161-0.934,1.743-2.396,1.743-4.388c0-1.95-0.603-3.36-1.806-4.232
		c-1.204-0.871-3.133-1.307-5.788-1.307h-3.672c-1.079,0-1.93-0.373-2.551-1.12c-0.623-0.747-0.934-1.639-0.934-2.676
		c0-0.996,0.311-1.867,0.934-2.614c0.621-0.747,1.472-1.12,2.551-1.12h2.614c2.53,0,4.408-0.436,5.632-1.308
		c1.224-0.871,1.836-2.219,1.836-4.045c0-1.742-0.519-3.102-1.555-4.076c-1.038-0.975-2.49-1.463-4.357-1.463
		c-1.535,0-2.967,0.271-4.294,0.81c-1.329,0.539-2.862,1.328-4.605,2.364c-0.622,0.374-1.142,0.634-1.556,0.778
		c-0.416,0.146-0.871,0.218-1.369,0.218c-0.871,0-1.619-0.383-2.24-1.151c-0.623-0.768-0.934-1.69-0.934-2.77
		c0-0.747,0.134-1.379,0.404-1.898c0.27-0.519,0.715-1.005,1.338-1.462c1.742-1.41,3.827-2.511,6.254-3.299
		c2.428-0.788,4.906-1.183,7.438-1.183c2.945,0,5.539,0.488,7.779,1.463c2.241,0.975,3.963,2.354,5.166,4.139
		s1.805,3.858,1.805,6.224c0,2.364-0.612,4.429-1.836,6.192c-1.225,1.764-2.915,3.04-5.072,3.827
		C332.683,82.894,334.663,84.19,336.054,86.036z"/>
	<path fill="#E0E0E0" d="M377.534,100.817c0,2.614-1.516,3.921-4.544,3.921h-21.284c-3.071,0-4.605-1.307-4.605-3.921
		c0-2.572,1.534-3.858,4.605-3.858h5.787V71.504l-5.477,3.299c-0.622,0.373-1.244,0.561-1.867,0.561
		c-1.037,0-1.919-0.437-2.645-1.308c-0.727-0.871-1.09-1.846-1.09-2.925c0-1.452,0.644-2.552,1.93-3.299l9.834-5.912
		c1.451-0.871,2.903-1.307,4.355-1.307c1.369,0,2.49,0.426,3.361,1.275c0.871,0.851,1.307,2.002,1.307,3.454v31.616h5.788
		C376.019,96.959,377.534,98.245,377.534,100.817z"/>
</g>
</svg>
