<?xml version="1.0" encoding="utf-8"?>
<!-- Generator: Adobe Illustrator 16.0.0, SVG Export Plug-In . SVG Version: 6.00 Build 0)  -->
<!DOCTYPE svg PUBLIC "-//W3C//DTD SVG 1.1//EN" "http://www.w3.org/Graphics/SVG/1.1/DTD/svg11.dtd">
<svg version="1.1" xmlns="http://www.w3.org/2000/svg" xmlns:xlink="http://www.w3.org/1999/xlink" x="0px" y="0px"
	 width="871.986px" height="871.986px" viewBox="0 0 871.986 871.986" enable-background="new 0 0 871.986 871.986"
	 xml:space="preserve">
<g id="Layer_1">
</g>
<g id="Layer_2">
	<g>
		<circle fill="#FFFFFF" cx="435.993" cy="435.993" r="435.993"/>
	</g>
	<path fill="#A9D7F7" d="M436.215,655.896c-59.204,0-114.863-23.056-156.726-64.918c-41.863-41.863-64.918-97.522-64.918-156.727
		c0-59.202,23.055-114.862,64.918-156.725c41.863-41.863,97.522-64.918,156.726-64.918c59.203,0,114.862,23.055,156.726,64.918
		c41.863,41.863,64.918,97.523,64.918,156.725c0,59.204-23.055,114.863-64.918,156.727
		C551.077,632.84,495.418,655.896,436.215,655.896z M436.215,269.969c-43.881,0-85.136,17.089-116.165,48.118
		c-31.029,31.029-48.118,72.284-48.118,116.165c0,43.883,17.088,85.137,48.118,116.167c31.029,31.027,72.284,48.116,116.165,48.116
		c43.881,0,85.137-17.089,116.165-48.116c31.029-31.03,48.117-72.284,48.117-116.167c0-43.881-17.088-85.136-48.117-116.165
		C521.352,287.058,480.096,269.969,436.215,269.969z"/>
	<rect x="407.256" y="178" fill="#A9D7F7" width="57" height="42"/>
	<path fill="#A9D7F7" d="M494.031,200H377.675c-15.766,0-28.547-12.734-28.547-28.5c0-15.767,12.781-28.5,28.547-28.5h116.356
		c15.766,0,28.547,12.733,28.547,28.5C522.578,187.266,509.797,200,494.031,200z"/>
	<path fill="#A9D7F7" d="M437.993,463.884c-8.688,0-17.273-3.935-22.912-11.403c-9.543-12.642-7.031-30.627,5.611-40.17
		l86.754-65.491c12.645-9.545,30.626-7.032,40.172,5.61c9.543,12.642,7.03,30.627-5.611,40.171l-86.755,65.491
		C450.079,461.996,444.012,463.884,437.993,463.884z"/>
</g>
</svg>
