<?xml version="1.0" encoding="utf-8"?>
<!-- Generator: Adobe Illustrator 16.0.0, SVG Export Plug-In . SVG Version: 6.00 Build 0)  -->
<!DOCTYPE svg PUBLIC "-//W3C//DTD SVG 1.1//EN" "http://www.w3.org/Graphics/SVG/1.1/DTD/svg11.dtd">
<svg version="1.1" id="Layer_1" xmlns="http://www.w3.org/2000/svg" xmlns:xlink="http://www.w3.org/1999/xlink" x="0px" y="0px"
	 width="811.326px" height="232.001px" viewBox="0 0 811.326 232.001" enable-background="new 0 0 811.326 232.001"
	 xml:space="preserve">
<g>
	<path fill="#FFFFFF" d="M811.326,209.001c0,12.703-10.297,23-22.999,23H22.999c-12.702,0-22.999-10.297-22.999-23V22.999
		C0,10.297,10.297,0,22.999,0h765.328c12.702,0,22.999,10.297,22.999,22.999V209.001z"/>
</g>
<path fill="#B2E4F9" d="M117.18,172.286c-2.349,0-4.692-0.892-6.489-2.674c-3.315-3.291-6.574-6.479-9.738-9.568
	c-23.543-23.019-42.14-41.195-42.134-61.756c0.005-22.457,18.009-34.572,34.943-34.572c8.84,0,17.043,3.027,23.455,8.42
	c6.404-5.356,14.603-8.363,23.438-8.363c9.001,0,17.476,3.139,23.867,8.839c7.127,6.354,11.05,15.485,11.046,25.71
	c-0.01,20.559-18.607,38.729-42.156,61.727c-3.167,3.094-6.427,6.277-9.744,9.568C121.872,171.396,119.526,172.286,117.18,172.286z
	 M93.764,82.14c-6.135,0-16.518,3.4-16.521,16.152c-0.003,12.805,16.954,29.381,36.59,48.576c1.107,1.082,2.225,2.174,3.354,3.28
	c1.128-1.104,2.246-2.196,3.354-3.28c19.641-19.185,36.604-35.748,36.607-48.554c0.002-5.039-1.643-9.062-4.885-11.953
	c-2.969-2.647-7.198-4.166-11.604-4.166c-3.135,0-10.921,0.847-15.491,8.687c-1.65,2.83-4.681,4.572-7.96,4.572l0,0
	c-3.276,0-6.308-1.742-7.958-4.574C104.646,82.989,96.889,82.14,93.764,82.14z"/>
<g enable-background="new    ">
	<path fill="#E0E0E0" d="M252.503,111.349c2.116,1.182,3.754,2.831,4.917,4.947c1.161,2.116,1.743,4.564,1.743,7.344
		c0,2.905-0.685,5.477-2.054,7.718c-1.369,2.24-3.289,3.982-5.757,5.228c-2.469,1.245-5.321,1.867-8.558,1.867
		c-2.573,0-5.083-0.395-7.53-1.183c-2.449-0.788-4.565-1.888-6.348-3.299c-0.623-0.456-1.058-0.943-1.307-1.462
		s-0.374-1.151-0.374-1.898c0-1.078,0.301-2.001,0.903-2.77c0.601-0.768,1.338-1.151,2.209-1.151c0.498,0,0.954,0.073,1.369,0.218
		c0.415,0.146,0.954,0.404,1.618,0.778c1.659,0.995,3.174,1.773,4.543,2.333c1.369,0.561,2.863,0.841,4.481,0.841
		c2.53,0,4.45-0.581,5.757-1.743c1.307-1.161,1.96-2.883,1.96-5.165c0-2.157-0.675-3.858-2.023-5.104
		c-1.349-1.245-3.164-1.867-5.445-1.867c-1.411,0-2.698,0.177-3.859,0.529c-1.162,0.353-2.427,0.944-3.796,1.773
		c-0.871,0.498-1.743,0.747-2.614,0.747c-0.996,0-1.836-0.301-2.521-0.902s-1.027-1.4-1.027-2.396v-18.11
		c0-1.452,0.394-2.572,1.183-3.361c0.788-0.787,1.908-1.182,3.36-1.182h20.04c3.07,0,4.605,1.224,4.605,3.672
		c0,2.489-1.535,3.733-4.605,3.733h-15.123v9.771c1.991-1.12,4.335-1.681,7.033-1.681
		C247.98,109.574,250.387,110.166,252.503,111.349z"/>
	<path fill="#E0E0E0" d="M267.781,132.727c-2.801-3.859-4.201-9.438-4.201-16.742c0-7.26,1.4-12.82,4.201-16.679
		c2.8-3.858,6.855-5.788,12.167-5.788c5.311,0,9.366,1.93,12.167,5.788s4.201,9.419,4.201,16.679c0,7.304-1.4,12.883-4.201,16.742
		c-2.801,3.858-6.856,5.788-12.167,5.788C274.637,138.515,270.582,136.585,267.781,132.727z M285.207,127.498
		c1.099-2.405,1.649-6.243,1.649-11.514c0-5.311-0.55-9.148-1.649-11.514c-1.1-2.364-2.853-3.547-5.259-3.547
		c-2.407,0-4.16,1.193-5.259,3.578c-1.1,2.387-1.649,6.214-1.649,11.482c0,5.271,0.549,9.108,1.649,11.514
		c1.099,2.407,2.853,3.61,5.259,3.61C282.354,131.108,284.107,129.905,285.207,127.498z"/>
	<path fill="#E0E0E0" d="M305.123,132.727c-2.801-3.859-4.201-9.438-4.201-16.742c0-7.26,1.4-12.82,4.201-16.679
		c2.8-3.858,6.855-5.788,12.167-5.788c5.311,0,9.366,1.93,12.167,5.788s4.201,9.419,4.201,16.679c0,7.304-1.4,12.883-4.201,16.742
		c-2.801,3.858-6.856,5.788-12.167,5.788C311.978,138.515,307.923,136.585,305.123,132.727z M322.548,127.498
		c1.099-2.405,1.649-6.243,1.649-11.514c0-5.311-0.55-9.148-1.649-11.514c-1.1-2.364-2.853-3.547-5.259-3.547
		c-2.407,0-4.16,1.193-5.259,3.578c-1.1,2.387-1.649,6.214-1.649,11.482c0,5.271,0.549,9.108,1.649,11.514
		c1.099,2.407,2.853,3.61,5.259,3.61C319.695,131.108,321.449,129.905,322.548,127.498z"/>
</g>
<g>
	<path fill="#B7EDB7" d="M583.276,121.274c0-2.447,1.473-3.672,4.419-3.672h12.198c2.945,0,4.419,1.225,4.419,3.672
		c0,2.449-1.474,3.672-4.419,3.672h-12.198C584.749,124.946,583.276,123.724,583.276,121.274z"/>
	<path fill="#B7EDB7" d="M636.052,111.349c2.116,1.182,3.755,2.831,4.917,4.947c1.16,2.116,1.742,4.564,1.742,7.344
		c0,2.905-0.685,5.477-2.054,7.718c-1.369,2.24-3.289,3.982-5.757,5.228c-2.469,1.245-5.321,1.867-8.558,1.867
		c-2.573,0-5.083-0.395-7.53-1.183c-2.449-0.788-4.564-1.888-6.348-3.299c-0.623-0.456-1.059-0.943-1.308-1.462
		s-0.374-1.151-0.374-1.898c0-1.078,0.301-2.001,0.903-2.77c0.601-0.768,1.338-1.151,2.209-1.151c0.498,0,0.954,0.073,1.369,0.218
		c0.415,0.146,0.954,0.404,1.618,0.778c1.659,0.995,3.174,1.773,4.543,2.333c1.369,0.561,2.863,0.841,4.481,0.841
		c2.53,0,4.45-0.581,5.757-1.743c1.307-1.161,1.961-2.883,1.961-5.165c0-2.157-0.676-3.858-2.023-5.104
		c-1.349-1.245-3.164-1.867-5.445-1.867c-1.411,0-2.697,0.177-3.859,0.529s-2.427,0.944-3.796,1.773
		c-0.871,0.498-1.743,0.747-2.614,0.747c-0.995,0-1.836-0.301-2.52-0.902c-0.686-0.602-1.027-1.4-1.027-2.396v-18.11
		c0-1.452,0.394-2.572,1.183-3.361c0.788-0.787,1.907-1.182,3.36-1.182h20.04c3.07,0,4.605,1.224,4.605,3.672
		c0,2.489-1.535,3.733-4.605,3.733H621.8v9.771c1.991-1.12,4.335-1.681,7.032-1.681S633.936,110.166,636.052,111.349z"/>
	<path fill="#B7EDB7" d="M651.33,132.727c-2.801-3.859-4.201-9.438-4.201-16.742c0-7.26,1.4-12.82,4.201-16.679
		s6.855-5.788,12.168-5.788c5.311,0,9.365,1.93,12.166,5.788s4.201,9.419,4.201,16.679c0,7.304-1.4,12.883-4.201,16.742
		c-2.801,3.858-6.855,5.788-12.166,5.788C658.186,138.515,654.131,136.585,651.33,132.727z M668.756,127.498
		c1.1-2.405,1.65-6.243,1.65-11.514c0-5.311-0.551-9.148-1.65-11.514c-1.1-2.364-2.853-3.547-5.258-3.547
		c-2.407,0-4.16,1.193-5.26,3.578c-1.1,2.387-1.648,6.214-1.648,11.482c0,5.271,0.549,9.108,1.648,11.514
		c1.1,2.407,2.853,3.61,5.26,3.61C665.903,131.108,667.656,129.905,668.756,127.498z"/>
	<path fill="#B7EDB7" d="M687.426,116.763c-2.012-2.303-3.018-5.652-3.018-10.051c0-4.273,1.016-7.562,3.049-9.864
		s4.812-3.454,8.34-3.454c3.568,0,6.357,1.151,8.371,3.454c2.012,2.303,3.019,5.611,3.019,9.926c0,4.398-1.007,7.739-3.019,10.021
		c-2.014,2.282-4.803,3.423-8.371,3.423S689.438,119.065,687.426,116.763z M698.598,112.624c0.58-1.161,0.871-3.111,0.871-5.851
		c0-2.613-0.301-4.512-0.902-5.694s-1.524-1.773-2.77-1.773c-1.244,0-2.158,0.581-2.738,1.742c-0.582,1.162-0.871,3.071-0.871,5.726
		c0,2.698,0.289,4.637,0.871,5.819c0.58,1.183,1.494,1.773,2.738,1.773C697.082,114.366,698.016,113.786,698.598,112.624z
		 M700.34,139.137c-0.871,0-1.629-0.322-2.271-0.965c-0.644-0.643-0.965-1.441-0.965-2.396c0-0.787,0.25-1.618,0.748-2.489
		l22.031-38.026c0.871-1.576,2.032-2.364,3.484-2.364c0.912,0,1.69,0.321,2.334,0.965c0.643,0.644,0.965,1.441,0.965,2.396
		c0,0.789-0.248,1.618-0.746,2.489l-22.032,38.026C702.934,138.348,701.75,139.137,700.34,139.137z M719.54,134.936
		c-2.013-2.303-3.019-5.652-3.019-10.051c0-4.314,1.006-7.613,3.019-9.896c2.013-2.281,4.802-3.423,8.371-3.423
		c3.526,0,6.306,1.151,8.339,3.454s3.051,5.611,3.051,9.926c0,4.357-1.008,7.687-3.02,9.989c-2.013,2.303-4.803,3.454-8.37,3.454
		C724.342,138.39,721.553,137.238,719.54,134.936z M730.711,130.797c0.581-1.161,0.872-3.111,0.872-5.851
		c0-2.654-0.302-4.574-0.902-5.756c-0.603-1.183-1.524-1.774-2.77-1.774s-2.169,0.592-2.77,1.774
		c-0.603,1.182-0.902,3.102-0.902,5.756c0,2.739,0.29,4.689,0.871,5.851c0.581,1.162,1.515,1.743,2.801,1.743
		C729.196,132.54,730.13,131.959,730.711,130.797z"/>
</g>
<path fill="#F2F2F2" d="M535.326,173.703c-0.783,0-1.417-0.634-1.417-1.417V63.716c0-0.783,0.634-1.417,1.417-1.417
	s1.417,0.634,1.417,1.417v108.57C536.743,173.069,536.109,173.703,535.326,173.703z"/>
<line fill="none" stroke="#FAFAFA" stroke-width="2.8346" stroke-linecap="round" stroke-linejoin="round" stroke-miterlimit="10" x1="145.326" y1="-118.077" x2="146.326" y2="-117.14"/>
</svg>
