<?xml version="1.0" encoding="utf-8"?>
<!-- Generator: Adobe Illustrator 16.0.0, SVG Export Plug-In . SVG Version: 6.00 Build 0)  -->
<!DOCTYPE svg PUBLIC "-//W3C//DTD SVG 1.1//EN" "http://www.w3.org/Graphics/SVG/1.1/DTD/svg11.dtd">
<svg version="1.1" id="Layer_1" xmlns="http://www.w3.org/2000/svg" xmlns:xlink="http://www.w3.org/1999/xlink" x="0px" y="0px"
	 width="227.246px" height="227.246px" viewBox="0 0 227.246 227.246" enable-background="new 0 0 227.246 227.246"
	 xml:space="preserve">
<g>
	<circle fill="#FFFFFF" cx="113.623" cy="113.623" r="113.623"/>
</g>
<g>
	<path fill="#C1C1F4" d="M113.623,172.186c-32.292,0-58.562-26.272-58.562-58.562c0-32.293,26.271-58.562,58.562-58.562
		c32.292,0,58.562,26.27,58.562,58.562C172.186,145.912,145.913,172.186,113.623,172.186z M113.623,70.414
		c-23.825,0-43.209,19.381-43.209,43.207c0,23.828,19.384,43.211,43.209,43.211c23.828,0,43.21-19.383,43.21-43.211
		C156.832,89.797,137.449,70.414,113.623,70.414z"/>
	<path fill="#C1C1F4" d="M131.919,143.836c-2.282,0-4.54-1.012-6.053-2.949l-18.29-23.397c-1.014-1.296-1.583-2.884-1.625-4.523
		l-0.582-21.988c-0.111-4.24,3.233-7.766,7.472-7.877c4.275-0.1,7.765,3.236,7.877,7.471l0.515,19.459l16.729,21.402
		c2.609,3.34,2.021,8.161-1.32,10.774C135.236,143.307,133.572,143.836,131.919,143.836z"/>
</g>
</svg>
