<?xml version="1.0" encoding="utf-8"?>
<!-- Generator: Adobe Illustrator 16.0.0, SVG Export Plug-In . SVG Version: 6.00 Build 0)  -->
<!DOCTYPE svg PUBLIC "-//W3C//DTD SVG 1.1//EN" "http://www.w3.org/Graphics/SVG/1.1/DTD/svg11.dtd">
<svg version="1.1" id="Layer_1" xmlns="http://www.w3.org/2000/svg" xmlns:xlink="http://www.w3.org/1999/xlink" x="0px" y="0px"
	 width="811.326px" height="232.001px" viewBox="0 0 811.326 232.001" enable-background="new 0 0 811.326 232.001"
	 xml:space="preserve">
<g>
	<path fill="#FFFFFF" d="M811.326,209c0,12.703-10.297,23-22.999,23H22.999C10.297,232,0,221.703,0,209V22.999
		C0,10.298,10.297,0.001,22.999,0.001h765.328c12.702,0,22.999,10.297,22.999,22.998V209z"/>
</g>
<path fill="#E48FF2" d="M180.274,166c0,10.494-8.506,19-19,19H61.272c-10.492,0-18.998-8.506-18.998-19V65.999
	c0-10.492,8.506-18.998,18.998-18.998h100.002c10.494,0,19,8.506,19,18.998V166L180.274,166z"/>
<g enable-background="new    ">
	<path fill="#E0E0E0" d="M274.913,65.648c0.667-0.451,1.416-0.677,2.246-0.677c1.046,0,1.939,0.325,2.679,0.975
		c0.739,0.649,1.109,1.533,1.109,2.651c0,0.541-0.108,1.137-0.325,1.785l-11.256,30.791c-0.325,0.866-0.893,1.543-1.705,2.029
		c-0.812,0.487-1.705,0.73-2.679,0.73s-1.858-0.243-2.651-0.73c-0.794-0.486-1.353-1.163-1.678-2.029l-8.063-22.781l-8.279,22.781
		c-0.325,0.866-0.884,1.543-1.678,2.029c-0.794,0.487-1.677,0.73-2.651,0.73c-0.938,0-1.813-0.243-2.625-0.73
		c-0.812-0.486-1.38-1.163-1.705-2.029l-11.256-30.791c-0.216-0.612-0.325-1.19-0.325-1.731c0-1.117,0.397-2.011,1.191-2.679
		c0.793-0.667,1.731-1.001,2.813-1.001c0.866,0,1.651,0.226,2.354,0.677c0.704,0.451,1.218,1.109,1.542,1.975l8.333,23.973
		l8.658-23.864c0.325-0.865,0.839-1.532,1.542-2.002c0.703-0.469,1.452-0.703,2.246-0.703c0.83,0,1.587,0.234,2.272,0.703
		c0.685,0.47,1.191,1.155,1.516,2.057l8.279,24.243l8.604-24.406C273.749,66.758,274.245,66.1,274.913,65.648z"/>
	<path fill="#E0E0E0" d="M311.899,87.483v12.5c0,1.19-0.371,2.129-1.109,2.814c-0.74,0.686-1.741,1.027-3.003,1.027
		c-1.263,0-2.255-0.342-2.976-1.027c-0.722-0.686-1.083-1.624-1.083-2.814V87.375c0-1.587-0.334-2.769-1.001-3.544
		c-0.668-0.775-1.705-1.164-3.112-1.164c-1.696,0-3.057,0.541-4.085,1.624c-1.028,1.082-1.542,2.525-1.542,4.329v11.363
		c0,1.19-0.361,2.129-1.082,2.814c-0.722,0.686-1.714,1.027-2.976,1.027c-1.263,0-2.265-0.342-3.003-1.027
		c-0.74-0.686-1.109-1.624-1.109-2.814V68.814c0-1.118,0.387-2.021,1.164-2.706c0.775-0.685,1.794-1.028,3.057-1.028
		c1.19,0,2.146,0.325,2.868,0.974c0.721,0.649,1.082,1.516,1.082,2.598v11.797c0.938-1.37,2.146-2.408,3.626-3.111
		c1.479-0.703,3.156-1.056,5.033-1.056C308.814,76.281,311.899,80.016,311.899,87.483z"/>
	<path fill="#E0E0E0" d="M337.521,77.039c0.595-0.36,1.235-0.541,1.921-0.541c1.046,0,1.966,0.334,2.76,1.001
		c0.793,0.668,1.19,1.471,1.19,2.408c0,0.506-0.127,1.011-0.379,1.516l-14.557,29.87c-0.361,0.758-0.848,1.326-1.461,1.705
		c-0.614,0.379-1.263,0.568-1.948,0.568c-1.01,0-1.894-0.325-2.651-0.975c-0.758-0.649-1.137-1.443-1.137-2.381
		c0-0.577,0.126-1.118,0.379-1.623l3.572-7.414l-9.632-19.751c-0.217-0.505-0.325-0.992-0.325-1.461
		c0-0.975,0.423-1.804,1.271-2.489c0.847-0.686,1.813-1.028,2.895-1.028c0.721,0,1.389,0.189,2.002,0.568
		c0.613,0.378,1.1,0.946,1.461,1.704l6.71,14.61l6.548-14.61C336.466,77.959,336.926,77.4,337.521,77.039z"/>
	<path fill="#E0E0E0" d="M387.738,66.108c0.775,0.686,1.163,1.588,1.163,2.706v31.169c0,1.155-0.37,2.084-1.109,2.787
		c-0.74,0.703-1.723,1.055-2.949,1.055s-2.21-0.352-2.949-1.055c-0.74-0.703-1.109-1.632-1.109-2.787v-0.433
		c-0.794,1.371-1.921,2.444-3.382,3.22c-1.461,0.775-3.112,1.163-4.952,1.163c-2.273,0-4.302-0.586-6.088-1.759
		c-1.786-1.172-3.175-2.813-4.167-4.924c-0.993-2.11-1.488-4.536-1.488-7.278c0-2.741,0.496-5.149,1.488-7.225
		c0.992-2.074,2.372-3.67,4.14-4.789c1.767-1.117,3.806-1.678,6.115-1.678c1.804,0,3.437,0.379,4.897,1.137s2.588,1.822,3.382,3.192
		V68.651c0-1.082,0.36-1.948,1.083-2.598c0.722-0.648,1.678-0.974,2.868-0.974C385.942,65.08,386.962,65.424,387.738,66.108z
		 M379.242,95.735c1.028-1.316,1.542-3.201,1.542-5.654s-0.514-4.329-1.542-5.628c-1.028-1.299-2.499-1.948-4.411-1.948
		c-1.913,0-3.391,0.641-4.437,1.921c-1.047,1.281-1.569,3.13-1.569,5.547c0,2.453,0.522,4.356,1.569,5.709
		c1.046,1.353,2.524,2.029,4.437,2.029C376.744,97.711,378.214,97.053,379.242,95.735z"/>
	<path fill="#E0E0E0" d="M400.536,102.229c-2.129-1.137-3.771-2.741-4.925-4.816c-1.154-2.074-1.731-4.519-1.731-7.332
		c0-2.814,0.577-5.258,1.731-7.333c1.154-2.074,2.796-3.67,4.925-4.789c2.128-1.117,4.6-1.678,7.413-1.678
		c2.814,0,5.285,0.561,7.414,1.678c2.128,1.119,3.77,2.715,4.924,4.789c1.154,2.075,1.732,4.519,1.732,7.333
		c0,2.813-0.578,5.258-1.732,7.332c-1.154,2.075-2.796,3.68-4.924,4.816c-2.129,1.136-4.6,1.704-7.414,1.704
		C405.136,103.934,402.664,103.365,400.536,102.229z M413.902,90.081c0-2.562-0.515-4.474-1.543-5.736
		c-1.027-1.263-2.498-1.895-4.41-1.895c-3.969,0-5.952,2.544-5.952,7.631c0,5.086,1.983,7.63,5.952,7.63
		S413.902,95.167,413.902,90.081z"/>
</g>
<path fill="#F2F2F2" d="M650.991,154.535c0,6.333-5.136,11.465-11.466,11.465h-97.749c-6.33,0-11.463-5.135-11.463-11.465V134.47
	c0-6.33,5.133-11.462,11.463-11.462h97.749c6.33,0,11.466,5.135,11.466,11.462V154.535z"/>
<path fill="#F2F2F2" d="M671.459,97.528c0,6.333-5.136,11.465-11.466,11.465H448.727c-6.33,0-11.463-5.135-11.463-11.465V77.463
	c0-6.33,5.133-11.462,11.463-11.462h211.267c6.33,0,11.466,5.135,11.466,11.462V97.528z"/>
<g enable-background="new    ">
	<path fill="#E0E0E0" d="M678.143,149.392c-0.452-0.541-0.677-1.262-0.677-2.164c0-1.84,0.333-3.373,1.001-4.6
		c0.667-1.227,1.65-2.578,2.949-4.059c0.975-1.117,1.687-2.047,2.138-2.787c0.45-0.738,0.677-1.578,0.677-2.516
		c0-1.01-0.371-1.812-1.109-2.408c-0.74-0.596-1.741-0.893-3.004-0.893c-1.154,0-2.228,0.234-3.22,0.703s-2.318,1.189-3.978,2.164
		c-1.047,0.578-1.912,0.865-2.597,0.865c-0.758,0-1.399-0.332-1.922-1c-0.523-0.668-0.784-1.471-0.784-2.408
		c0-0.65,0.116-1.199,0.352-1.65c0.234-0.451,0.604-0.875,1.109-1.271c1.587-1.264,3.418-2.246,5.492-2.949s4.158-1.057,6.251-1.057
		c2.236,0,4.247,0.398,6.033,1.191s3.174,1.885,4.167,3.273c0.991,1.389,1.488,2.949,1.488,4.682c0,1.334-0.263,2.553-0.785,3.652
		c-0.523,1.102-1.146,2.057-1.866,2.867c-0.723,0.812-1.696,1.814-2.923,3.004c-1.371,1.264-2.399,2.318-3.084,3.166
		c-0.686,0.848-1.119,1.795-1.299,2.842c-0.145,0.686-0.442,1.217-0.893,1.596c-0.452,0.379-1.002,0.568-1.651,0.568
		C679.215,150.204,678.593,149.933,678.143,149.392z M676.816,160.999c-0.866-0.883-1.299-1.992-1.299-3.328
		c0-1.334,0.433-2.443,1.299-3.328c0.866-0.883,1.966-1.324,3.301-1.324c1.299,0,2.381,0.441,3.247,1.324
		c0.866,0.885,1.299,1.994,1.299,3.328c0,1.336-0.433,2.445-1.299,3.328c-0.866,0.885-1.948,1.326-3.247,1.326
		C678.782,162.325,677.683,161.884,676.816,160.999z"/>
</g>
<path fill="#F2F2F2" d="M513.803,154.535c0,6.333-5.136,11.465-11.466,11.465H233.804c-6.33,0-11.463-5.135-11.463-11.465V134.47
	c0-6.33,5.133-11.462,11.463-11.462h268.533c6.33,0,11.466,5.135,11.466,11.462V154.535z"/>
</svg>
