<?xml version="1.0" encoding="utf-8"?>
<!-- Generator: Adobe Illustrator 16.0.0, SVG Export Plug-In . SVG Version: 6.00 Build 0)  -->
<!DOCTYPE svg PUBLIC "-//W3C//DTD SVG 1.1//EN" "http://www.w3.org/Graphics/SVG/1.1/DTD/svg11.dtd">
<svg version="1.1" id="Layer_1" xmlns="http://www.w3.org/2000/svg" xmlns:xlink="http://www.w3.org/1999/xlink" x="0px" y="0px"
	 width="558.244px" height="232.383px" viewBox="0 0 558.244 232.383" enable-background="new 0 0 558.244 232.383"
	 xml:space="preserve">
<g>
	<g>
		<path fill="#FFFFFF" d="M442.344,0c-4.319,0-322.12,0-326.443,0C51.891,0,0,52.187,0,116.194
			c0,63.914,51.734,113.423,115.608,116.189h326.444c0.097,0,0.193-0.646,0.291-0.646c64.01,0,115.9-51.855,115.9-115.866
			C558.244,51.86,506.354,0,442.344,0z"/>
	</g>
</g>
<path fill="#9E9CF2" d="M115.9,49.709c36.161,0,65.477,29.313,65.477,65.476c0,36.161-29.315,65.471-65.477,65.471
	c-36.157,0-65.472-29.311-65.472-65.471C50.429,79.023,79.743,49.709,115.9,49.709z"/>
<g>
	<path fill="#E0E0E0" d="M230.544,128.127c-0.754,0.924-1.13,2.218-1.13,3.892v1.068h4.392c2.845,0,4.269,1.191,4.269,3.572
		c0,2.344-1.424,3.514-4.269,3.514h-4.392v19.574c0,1.463-0.45,2.572-1.348,3.322c-0.896,0.754-2.016,1.131-3.354,1.131
		c-1.384,0-2.523-0.377-3.418-1.131c-0.9-0.75-1.352-1.859-1.352-3.322v-19.574h-2.504c-2.808,0-4.206-1.17-4.206-3.514
		c0-2.385,1.398-3.572,4.206-3.572h2.504c0-4.018,1.105-7.175,3.327-9.472c2.218-2.301,5.267-3.598,9.164-3.89l1.625-0.125
		l1.13-0.062c2.886,0,4.331,1.11,4.331,3.325c0,2.177-1.214,3.366-3.64,3.577l-1.632,0.124
		C232.53,126.685,231.297,127.209,230.544,128.127z"/>
	<path fill="#E0E0E0" d="M246.979,162.414c-2.47-1.322-4.372-3.18-5.706-5.584c-1.34-2.404-2.011-5.24-2.011-8.504
		c0-3.26,0.671-6.094,2.011-8.502c1.334-2.402,3.239-4.254,5.706-5.551c2.469-1.295,5.335-1.945,8.595-1.945
		c3.264,0,6.13,0.65,8.593,1.945c2.47,1.297,4.37,3.148,5.708,5.551c1.338,2.408,2.007,5.242,2.007,8.502
		c0,3.264-0.666,6.1-2.007,8.504c-1.338,2.404-3.241,4.262-5.708,5.584c-2.469,1.316-5.333,1.975-8.593,1.975
		C252.313,164.391,249.447,163.736,246.979,162.414z M262.474,148.33c0-2.969-0.593-5.188-1.787-6.652
		c-1.195-1.463-2.896-2.193-5.113-2.193c-4.602,0-6.898,2.951-6.898,8.846c0,5.898,2.297,8.844,6.898,8.844
		C260.173,157.174,262.474,154.229,262.474,148.33z"/>
	<path fill="#E0E0E0" d="M279.009,163.135c-0.902-0.752-1.348-1.861-1.348-3.322v-36.014c0-1.464,0.445-2.571,1.348-3.325
		c0.897-0.753,2.036-1.126,3.418-1.126c1.337,0,2.455,0.373,3.354,1.126c0.9,0.754,1.348,1.861,1.348,3.325v36.014
		c0,1.461-0.447,2.57-1.348,3.322c-0.899,0.754-2.016,1.131-3.354,1.131C281.045,164.266,279.906,163.889,279.009,163.135z"/>
	<path fill="#E0E0E0" d="M295.755,163.135c-0.898-0.752-1.348-1.861-1.348-3.322v-36.014c0-1.464,0.449-2.571,1.348-3.325
		c0.9-0.753,2.041-1.126,3.418-1.126c1.338,0,2.46,0.373,3.356,1.126c0.902,0.754,1.348,1.861,1.348,3.325v36.014
		c0,1.461-0.445,2.57-1.348,3.322c-0.896,0.754-2.016,1.131-3.356,1.131C297.796,164.266,296.655,163.889,295.755,163.135z"/>
	<path fill="#E0E0E0" d="M317.372,162.414c-2.472-1.322-4.371-3.18-5.709-5.584c-1.34-2.404-2.008-5.24-2.008-8.504
		c0-3.26,0.664-6.094,2.008-8.502c1.338-2.402,3.24-4.254,5.709-5.551c2.464-1.295,5.332-1.945,8.592-1.945
		c3.263,0,6.127,0.65,8.59,1.945c2.472,1.297,4.372,3.148,5.712,5.551c1.336,2.408,2.01,5.242,2.01,8.502
		c0,3.264-0.671,6.1-2.01,8.504c-1.34,2.404-3.242,4.262-5.712,5.584c-2.467,1.316-5.33,1.975-8.59,1.975
		C322.699,164.391,319.836,163.736,317.372,162.414z M332.863,148.33c0-2.969-0.595-5.188-1.788-6.652
		c-1.194-1.463-2.899-2.193-5.115-2.193c-4.601,0-6.899,2.951-6.899,8.846c0,5.898,2.299,8.844,6.899,8.844
		C330.562,157.174,332.863,154.229,332.863,148.33z"/>
	<path fill="#E0E0E0" d="M390.398,133.211c0.664-0.457,1.376-0.691,2.133-0.691c1.168,0,2.215,0.4,3.134,1.195
		c0.919,0.797,1.384,1.777,1.384,2.949c0,0.5-0.124,1.064-0.38,1.691l-10.29,23.088c-0.374,0.92-0.979,1.621-1.817,2.102
		c-0.838,0.479-1.712,0.723-2.632,0.723c-0.967,0-1.854-0.24-2.668-0.723c-0.816-0.48-1.414-1.182-1.79-2.102l-6.71-15.623
		l-6.461,15.623c-0.38,0.92-0.966,1.621-1.761,2.102c-0.794,0.479-1.694,0.723-2.696,0.723c-0.965,0-1.861-0.24-2.698-0.723
		c-0.84-0.48-1.442-1.182-1.821-2.102l-10.223-23.088c-0.255-0.584-0.379-1.15-0.379-1.691c0-1.172,0.492-2.152,1.477-2.949
		c0.98-0.795,2.102-1.195,3.354-1.195c0.837,0,1.6,0.234,2.291,0.691c0.687,0.461,1.222,1.131,1.597,2.01l6.714,16.875l6.841-16.752
		c0.374-0.877,0.929-1.559,1.661-2.041c0.732-0.475,1.537-0.721,2.416-0.721c0.877,0,1.693,0.23,2.449,0.691
		c0.752,0.463,1.318,1.15,1.691,2.072l6.964,16.75l6.65-16.873C389.202,134.342,389.727,133.672,390.398,133.211z"/>
	<path fill="#E0E0E0" d="M427.69,155.732c0.521,0.672,0.783,1.527,0.783,2.572c0,0.715-0.21,1.369-0.627,1.979
		c-0.419,0.604-1.005,1.115-1.757,1.533c-1.426,0.752-3.073,1.373-4.959,1.852c-1.884,0.48-3.617,0.721-5.203,0.721
		c-3.352,0-6.268-0.648-8.754-1.945c-2.487-1.297-4.403-3.146-5.737-5.551c-1.341-2.406-2.011-5.24-2.011-8.502
		c0-3.139,0.646-5.916,1.943-8.344c1.297-2.426,3.096-4.316,5.395-5.678c2.302-1.357,4.91-2.037,7.843-2.037
		c2.802,0,5.26,0.615,7.372,1.85c2.11,1.236,3.75,2.99,4.923,5.271c1.173,2.279,1.759,4.943,1.759,7.996
		c0,0.922-0.222,1.621-0.659,2.102c-0.44,0.482-1.057,0.725-1.851,0.725h-17.565c0.289,2.467,1.042,4.258,2.255,5.363
		c1.214,1.107,2.948,1.662,5.206,1.662c1.214,0,2.3-0.146,3.265-0.439c0.964-0.291,2.026-0.689,3.198-1.193
		c0.589-0.25,1.151-0.471,1.693-0.656c0.543-0.189,1.024-0.285,1.44-0.285C426.487,154.727,427.165,155.066,427.69,155.732z
		 M410.535,140.582c-1.092,1.15-1.74,2.812-1.945,4.986h12.109c-0.13-2.213-0.681-3.891-1.668-5.018
		c-0.986-1.129-2.375-1.691-4.171-1.691C413.063,138.859,411.618,139.432,410.535,140.582z"/>
	<path fill="#E0E0E0" d="M455.733,133.303c0.729,0.652,1.094,1.623,1.094,2.922c0,1.381-0.335,2.4-1.002,3.07
		c-0.67,0.672-1.861,1.092-3.577,1.26l-1.883,0.188c-2.3,0.248-3.963,1.002-4.986,2.256c-1.024,1.252-1.538,2.869-1.538,4.83v11.984
		c0,1.461-0.448,2.57-1.348,3.322c-0.899,0.754-2.019,1.131-3.359,1.131c-1.377,0-2.518-0.377-3.418-1.131
		c-0.898-0.752-1.348-1.861-1.348-3.322v-23.023c0-1.385,0.46-2.447,1.382-3.201c0.917-0.754,2.026-1.129,3.323-1.129
		c1.255,0,2.301,0.369,3.142,1.1c0.831,0.73,1.251,1.744,1.251,3.041v1.693c0.752-1.799,1.894-3.176,3.42-4.141
		c1.523-0.961,3.186-1.506,4.986-1.633l0.879-0.061C454.005,132.373,455.005,132.658,455.733,133.303z"/>
	<path fill="#E0E0E0" d="M464.237,163.762c-1.886-0.416-3.538-1.086-4.96-2.006c-0.626-0.377-1.105-0.879-1.44-1.506
		c-0.334-0.627-0.504-1.334-0.504-2.131c0-0.965,0.274-1.764,0.814-2.416c0.546-0.648,1.214-0.977,2.011-0.977
		c0.541,0,1.091,0.096,1.632,0.285c0.544,0.186,1.107,0.406,1.695,0.656c1.17,0.545,2.32,0.975,3.449,1.285
		c1.129,0.314,2.528,0.471,4.203,0.471c1.465,0,2.605-0.227,3.418-0.686c0.815-0.463,1.224-1.086,1.224-1.887
		c0-0.584-0.178-1.053-0.532-1.41c-0.356-0.354-1.016-0.68-1.979-0.971c-0.963-0.293-2.488-0.65-4.578-1.066
		c-3.723-0.713-6.397-1.781-8.03-3.203c-1.632-1.422-2.447-3.408-2.447-5.959c0-1.883,0.577-3.572,1.727-5.08
		c1.149-1.504,2.729-2.688,4.737-3.545c2.01-0.857,4.265-1.285,6.775-1.285c1.793,0,3.554,0.229,5.268,0.691
		c1.713,0.463,3.241,1.107,4.582,1.945c1.292,0.793,1.946,1.967,1.946,3.512c0,1.004-0.277,1.844-0.82,2.51
		c-0.542,0.67-1.212,1.004-2.007,1.004c-0.968,0-2.114-0.373-3.45-1.129c-1.048-0.541-2.001-0.947-2.855-1.223
		c-0.858-0.27-1.873-0.406-3.042-0.406c-1.298,0-2.324,0.24-3.074,0.723c-0.751,0.482-1.129,1.139-1.129,1.975
		c0,0.877,0.437,1.551,1.317,2.01c0.88,0.463,2.575,0.92,5.081,1.379c2.803,0.545,4.998,1.203,6.591,1.977
		c1.588,0.773,2.734,1.744,3.449,2.914c0.71,1.176,1.068,2.656,1.068,4.457c0,2.971-1.222,5.332-3.669,7.086
		c-2.448,1.758-5.724,2.635-9.82,2.635C468.334,164.391,466.113,164.184,464.237,163.762z"/>
</g>
<path fill="#FFFFFF" d="M112.949,136.344c-1.029,0-2.018-0.408-2.745-1.139l-20.43-20.428c-1.517-1.516-1.517-3.976,0-5.492
	c1.516-1.516,3.977-1.516,5.492,0l17.683,17.683l28.926-28.926c1.516-1.516,3.977-1.516,5.492,0c1.517,1.517,1.517,3.976,0,5.493
	l-31.672,31.67C114.968,135.934,113.979,136.344,112.949,136.344z"/>
<g>
	<path fill="#E0E0E0" d="M249.267,100.15c0,2.614-1.515,3.921-4.543,3.921h-21.285c-3.071,0-4.605-1.307-4.605-3.921
		c0-2.572,1.535-3.858,4.605-3.858h5.788V70.837l-5.477,3.298c-0.623,0.374-1.245,0.56-1.867,0.56c-1.038,0-1.919-0.436-2.645-1.307
		c-0.727-0.872-1.089-1.846-1.089-2.925c0-1.452,0.643-2.552,1.93-3.298l9.833-5.913c1.452-0.871,2.904-1.307,4.356-1.307
		c1.369,0,2.49,0.426,3.361,1.276c0.871,0.851,1.307,2.002,1.307,3.454v31.616h5.788C247.752,96.292,249.267,97.578,249.267,100.15z
		"/>
	<path fill="#E0E0E0" d="M282.469,85.369c1.391,1.847,2.086,4.098,2.086,6.753c0,2.531-0.654,4.73-1.961,6.597
		c-1.307,1.867-3.185,3.31-5.632,4.326c-2.449,1.017-5.29,1.525-8.526,1.525c-2.698,0-5.28-0.395-7.749-1.183
		c-2.469-0.788-4.596-1.888-6.379-3.298c-0.623-0.456-1.069-0.954-1.338-1.494c-0.27-0.539-0.404-1.161-0.404-1.867
		c0-1.079,0.311-2.001,0.934-2.77c0.622-0.767,1.369-1.151,2.24-1.151c0.498,0,0.954,0.073,1.369,0.218
		c0.415,0.146,0.934,0.404,1.556,0.778c1.825,1.038,3.401,1.826,4.73,2.365c1.327,0.54,2.883,0.809,4.667,0.809
		c2.53,0,4.377-0.467,5.539-1.4c1.161-0.934,1.743-2.396,1.743-4.388c0-1.95-0.602-3.361-1.805-4.232
		c-1.204-0.872-3.133-1.307-5.788-1.307h-3.672c-1.08,0-1.93-0.374-2.552-1.12c-0.623-0.747-0.934-1.639-0.934-2.676
		c0-0.996,0.311-1.867,0.934-2.614c0.622-0.747,1.472-1.121,2.552-1.121h2.614c2.53,0,4.408-0.436,5.632-1.307
		c1.223-0.872,1.836-2.219,1.836-4.045c0-1.743-0.519-3.101-1.556-4.077c-1.038-0.974-2.49-1.462-4.357-1.462
		c-1.535,0-2.967,0.271-4.294,0.809c-1.329,0.54-2.863,1.328-4.605,2.365c-0.623,0.374-1.142,0.633-1.556,0.778
		c-0.415,0.146-0.871,0.218-1.369,0.218c-0.871,0-1.618-0.383-2.24-1.151c-0.623-0.767-0.934-1.69-0.934-2.77
		c0-0.747,0.134-1.379,0.404-1.898c0.27-0.518,0.716-1.005,1.338-1.462c1.742-1.41,3.827-2.51,6.254-3.298
		c2.427-0.788,4.906-1.183,7.438-1.183c2.945,0,5.539,0.488,7.779,1.462c2.241,0.976,3.962,2.355,5.166,4.139
		c1.203,1.785,1.805,3.859,1.805,6.224c0,2.365-0.612,4.43-1.836,6.193c-1.225,1.764-2.915,3.04-5.072,3.827
		C279.098,82.227,281.078,83.523,282.469,85.369z"/>
	<path fill="#E0E0E0" d="M299.802,95.514c0.995,1.183,1.493,2.894,1.493,5.135c0,4.314-1.556,8.09-4.668,11.327
		c-0.621,0.623-1.286,0.934-1.99,0.934c-0.707,0-1.318-0.239-1.836-0.716c-0.52-0.477-0.779-1.048-0.779-1.711
		c0-0.622,0.229-1.162,0.686-1.618c1.369-1.411,2.281-2.987,2.738-4.73c-1.411-0.124-2.552-0.643-3.424-1.556
		c-0.871-0.912-1.307-2.074-1.307-3.485c0-1.534,0.487-2.81,1.463-3.828c0.975-1.016,2.188-1.524,3.641-1.524
		C297.478,93.74,298.806,94.332,299.802,95.514z"/>
	<path fill="#E0E0E0" d="M332.662,77.465c2.115,1.183,3.754,2.832,4.916,4.948c1.162,2.116,1.743,4.564,1.743,7.344
		c0,2.905-0.685,5.477-2.054,7.717c-1.369,2.241-3.289,3.983-5.757,5.228c-2.47,1.245-5.321,1.867-8.558,1.867
		c-2.572,0-5.083-0.395-7.53-1.183c-2.448-0.788-4.565-1.888-6.349-3.298c-0.622-0.456-1.058-0.943-1.307-1.463
		c-0.249-0.518-0.373-1.151-0.373-1.898c0-1.079,0.301-2.001,0.902-2.77c0.601-0.767,1.338-1.151,2.209-1.151
		c0.498,0,0.954,0.073,1.369,0.218c0.414,0.146,0.954,0.404,1.618,0.778c1.659,0.996,3.175,1.774,4.544,2.334s2.862,0.84,4.48,0.84
		c2.53,0,4.449-0.581,5.757-1.743c1.308-1.161,1.96-2.883,1.96-5.166c0-2.157-0.674-3.859-2.022-5.104s-3.164-1.867-5.445-1.867
		c-1.411,0-2.698,0.177-3.858,0.529c-1.162,0.353-2.428,0.944-3.797,1.773c-0.871,0.498-1.742,0.747-2.613,0.747
		c-0.996,0-1.836-0.301-2.521-0.902c-0.684-0.601-1.026-1.4-1.026-2.396v-18.11c0-1.452,0.394-2.572,1.183-3.361
		c0.787-0.788,1.908-1.183,3.36-1.183h20.04c3.07,0,4.605,1.225,4.605,3.672c0,2.49-1.535,3.734-4.605,3.734H318.41v9.771
		c1.991-1.12,4.335-1.68,7.033-1.68C328.139,75.692,330.546,76.283,332.662,77.465z"/>
	<path fill="#E0E0E0" d="M375.293,99.901c0,1.162-0.426,2.2-1.275,3.112c-0.852,0.913-1.836,1.369-2.957,1.369
		c-1.079,0-2.074-0.436-2.986-1.307l-13.631-12.634v9.522c0,1.453-0.445,2.552-1.338,3.298c-0.893,0.747-2.002,1.12-3.329,1.12
		c-1.37,0-2.501-0.373-3.392-1.12c-0.893-0.747-1.338-1.846-1.338-3.298V64.302c0-1.452,0.445-2.551,1.338-3.298
		c0.891-0.747,2.021-1.12,3.392-1.12c1.327,0,2.437,0.374,3.329,1.12c0.893,0.747,1.338,1.847,1.338,3.298v22.281l12.447-12.261
		c0.912-0.912,1.93-1.369,3.05-1.369c1.161,0,2.179,0.426,3.05,1.276c0.871,0.851,1.307,1.857,1.307,3.019
		c0,1.08-0.477,2.096-1.432,3.05l-8.277,7.904l9.273,8.588C374.815,97.703,375.293,98.74,375.293,99.901z"/>
</g>
</svg>
