<?xml version="1.0" encoding="utf-8"?>
<!-- Generator: Adobe Illustrator 16.0.0, SVG Export Plug-In . SVG Version: 6.00 Build 0)  -->
<!DOCTYPE svg PUBLIC "-//W3C//DTD SVG 1.1//EN" "http://www.w3.org/Graphics/SVG/1.1/DTD/svg11.dtd">
<svg version="1.1" id="Layer_1" xmlns="http://www.w3.org/2000/svg" xmlns:xlink="http://www.w3.org/1999/xlink" x="0px" y="0px"
	 width="227.246px" height="227.246px" viewBox="0 0 227.246 227.246" enable-background="new 0 0 227.246 227.246"
	 xml:space="preserve">
<g>
	<circle fill="#FFFFFF" cx="113.623" cy="113.623" r="113.623"/>
</g>
<path fill="#FCB4D9" d="M113.61,172.908c-2.349,0-4.693-0.891-6.49-2.674c-3.315-3.291-6.574-6.478-9.738-9.568
	c-23.543-23.018-42.14-41.195-42.134-61.756c0.005-22.456,18.009-34.572,34.944-34.572c8.839,0,17.043,3.027,23.455,8.42
	c6.404-5.356,14.602-8.363,23.438-8.363c9.001,0,17.476,3.139,23.867,8.839c7.127,6.354,11.05,15.485,11.046,25.71
	c-0.009,20.559-18.607,38.728-42.156,61.727c-3.167,3.093-6.427,6.277-9.744,9.568C118.302,172.018,115.956,172.908,113.61,172.908z
	 M90.192,82.762c-6.134,0-16.517,3.401-16.521,16.152c-0.003,12.805,16.954,29.381,36.59,48.576
	c1.107,1.082,2.225,2.174,3.354,3.281c1.128-1.105,2.247-2.197,3.354-3.281c19.64-19.184,36.603-35.748,36.607-48.553
	c0.002-5.039-1.642-9.062-4.884-11.953c-2.969-2.648-7.199-4.166-11.605-4.166c-3.135,0-10.921,0.846-15.49,8.686
	c-1.652,2.831-4.682,4.572-7.961,4.572l0,0c-3.277,0-6.308-1.741-7.958-4.573C101.077,83.612,93.317,82.762,90.192,82.762z"/>
</svg>
