<?xml version="1.0" encoding="utf-8"?>
<!-- Generator: Adobe Illustrator 16.0.0, SVG Export Plug-In . SVG Version: 6.00 Build 0)  -->
<!DOCTYPE svg PUBLIC "-//W3C//DTD SVG 1.1//EN" "http://www.w3.org/Graphics/SVG/1.1/DTD/svg11.dtd">
<svg version="1.1" id="Layer_1" xmlns="http://www.w3.org/2000/svg" xmlns:xlink="http://www.w3.org/1999/xlink" x="0px" y="0px"
	 width="231.062px" height="231.063px" viewBox="0 0 231.062 231.063" enable-background="new 0 0 231.062 231.063"
	 xml:space="preserve">
<g id="clock">
	<g>
		<g>
			<circle fill="#FFFFFF" cx="115.531" cy="115.532" r="115.532"/>
		</g>
	</g>
	<g>
		<path fill="#FC8888" d="M115.531,175.077c-32.835,0-59.544-26.715-59.544-59.546c0-32.835,26.712-59.546,59.544-59.546
			c32.835,0,59.546,26.71,59.546,59.546C175.077,148.362,148.362,175.077,115.531,175.077z M115.531,71.597
			c-24.226,0-43.935,19.707-43.935,43.932c0,24.229,19.709,43.936,43.935,43.936c24.229,0,43.936-19.707,43.936-43.936
			C159.467,91.306,139.758,71.597,115.531,71.597z"/>
		<path fill="#FC8888" d="M134.134,146.252c-2.32,0-4.616-1.029-6.154-2.998l-18.597-23.792c-1.03-1.316-1.609-2.931-1.652-4.599
			l-0.591-22.358c-0.113-4.311,3.287-7.896,7.597-8.009c4.347-0.101,7.894,3.29,8.009,7.596l0.523,19.786l17.008,21.761
			c2.654,3.396,2.055,8.3-1.342,10.957C137.509,145.713,135.815,146.252,134.134,146.252z"/>
	</g>
</g>
</svg>
