<?xml version="1.0" encoding="utf-8"?>
<!-- Generator: Adobe Illustrator 16.0.0, SVG Export Plug-In . SVG Version: 6.00 Build 0)  -->
<!DOCTYPE svg PUBLIC "-//W3C//DTD SVG 1.1//EN" "http://www.w3.org/Graphics/SVG/1.1/DTD/svg11.dtd">
<svg version="1.1" id="Layer_1" xmlns="http://www.w3.org/2000/svg" xmlns:xlink="http://www.w3.org/1999/xlink" x="0px" y="0px"
	 width="607px" height="232px" viewBox="0 0 607 232" enable-background="new 0 0 607 232" xml:space="preserve">
<g>
	<path fill="#FFFFFF" d="M607,209.001C607,221.703,596.703,232,584.001,232H22.999C10.297,232,0,221.703,0,209.001V22.999
		C0,10.297,10.297,0,22.999,0h561.002C596.703,0,607,10.297,607,22.999V209.001z"/>
</g>
<path fill="#E7BDF9" d="M184,165.001c0,10.493-8.506,18.999-18.999,18.999H64.999C54.506,184,46,175.494,46,165.001V64.999
	C46,54.506,54.506,46,64.999,46h100.002C175.494,46,184,54.506,184,64.999V165.001z"/>
<path fill="#FFFFFF" d="M115.002,101.974c-5.904-10.125-22.487-7.166-22.487,5.516c0,8.736,10.438,17.668,22.487,29.623
	c12.047-11.955,22.483-20.887,22.483-29.623C137.483,94.761,120.855,91.929,115.002,101.974z"/>
<g>
	<path fill="#E0E0E0" d="M250.336,132.192c0,2.614-1.536,3.921-4.605,3.921h-23.152c-1.287,0-2.313-0.383-3.081-1.151
		c-0.768-0.767-1.151-1.731-1.151-2.894c0-1.494,0.601-2.863,1.805-4.108l13.692-14.501c3.07-3.236,4.605-6.224,4.605-8.962
		c0-1.701-0.478-2.997-1.431-3.89c-0.955-0.892-2.345-1.338-4.17-1.338c-1.577,0-3.029,0.271-4.356,0.809
		c-1.329,0.54-2.863,1.328-4.605,2.365c-0.706,0.416-1.245,0.706-1.618,0.872c-0.374,0.166-0.809,0.249-1.307,0.249
		c-0.871,0-1.618-0.405-2.24-1.214c-0.623-0.809-0.934-1.752-0.934-2.832c0-0.788,0.134-1.441,0.404-1.96
		c0.27-0.519,0.716-0.985,1.338-1.4c1.867-1.369,4.014-2.458,6.441-3.268c2.427-0.809,4.864-1.213,7.312-1.213
		c2.946,0,5.528,0.498,7.749,1.494c2.219,0.996,3.931,2.417,5.134,4.263c1.203,1.847,1.805,3.973,1.805,6.379
		c0,2.531-0.529,4.875-1.587,7.033c-1.058,2.158-2.832,4.564-5.321,7.219l-9.771,10.269h14.439
		C248.8,128.334,250.336,129.62,250.336,132.192z"/>
	<path fill="#E0E0E0" d="M264.401,127.556c0.996,1.183,1.494,2.894,1.494,5.135c0,4.314-1.556,8.091-4.668,11.327
		c-0.622,0.622-1.287,0.934-1.991,0.934c-0.706,0-1.318-0.24-1.836-0.717c-0.52-0.477-0.778-1.047-0.778-1.711
		c0-0.622,0.228-1.162,0.685-1.618c1.369-1.411,2.282-2.987,2.739-4.729c-1.411-0.125-2.552-0.643-3.423-1.557
		c-0.871-0.912-1.307-2.074-1.307-3.484c0-1.535,0.487-2.811,1.462-3.828c0.975-1.016,2.188-1.524,3.641-1.524
		C262.077,125.782,263.405,126.374,264.401,127.556z"/>
	<path fill="#E0E0E0" d="M300.591,117.411c1.39,1.847,2.085,4.098,2.085,6.753c0,2.531-0.654,4.73-1.96,6.597
		c-1.307,1.867-3.185,3.31-5.632,4.325c-2.449,1.018-5.29,1.525-8.526,1.525c-2.698,0-5.28-0.395-7.749-1.183
		c-2.469-0.788-4.596-1.888-6.379-3.298c-0.623-0.457-1.069-0.955-1.338-1.494c-0.27-0.539-0.404-1.161-0.404-1.867
		c0-1.079,0.311-2.001,0.934-2.77c0.622-0.767,1.369-1.151,2.24-1.151c0.498,0,0.954,0.073,1.369,0.218
		c0.415,0.146,0.934,0.404,1.556,0.778c1.825,1.038,3.401,1.826,4.73,2.365c1.327,0.54,2.883,0.809,4.667,0.809
		c2.53,0,4.377-0.467,5.539-1.4c1.161-0.934,1.743-2.396,1.743-4.388c0-1.95-0.602-3.361-1.805-4.232
		c-1.204-0.872-3.133-1.307-5.788-1.307h-3.672c-1.08,0-1.93-0.374-2.552-1.12c-0.623-0.747-0.934-1.639-0.934-2.676
		c0-0.996,0.311-1.867,0.934-2.614c0.622-0.747,1.472-1.121,2.552-1.121h2.614c2.53,0,4.408-0.436,5.632-1.307
		c1.223-0.872,1.836-2.219,1.836-4.045c0-1.743-0.519-3.101-1.556-4.077c-1.038-0.974-2.49-1.462-4.357-1.462
		c-1.535,0-2.967,0.271-4.294,0.809c-1.329,0.54-2.863,1.328-4.605,2.365c-0.623,0.374-1.142,0.633-1.556,0.778
		c-0.415,0.146-0.871,0.218-1.369,0.218c-0.871,0-1.618-0.383-2.24-1.151c-0.623-0.767-0.934-1.69-0.934-2.77
		c0-0.747,0.134-1.379,0.404-1.898c0.27-0.518,0.716-1.005,1.338-1.462c1.742-1.41,3.827-2.51,6.254-3.298
		c2.427-0.788,4.906-1.183,7.438-1.183c2.945,0,5.539,0.488,7.779,1.462c2.241,0.976,3.962,2.355,5.166,4.139
		c1.203,1.785,1.805,3.859,1.805,6.224c0,2.365-0.613,4.43-1.836,6.193c-1.224,1.764-2.915,3.04-5.072,3.827
		C297.22,114.269,299.201,115.565,300.591,117.411z"/>
	<path fill="#E0E0E0" d="M341.262,132.192c0,2.614-1.535,3.921-4.605,3.921h-23.152c-1.286,0-2.312-0.383-3.08-1.151
		c-0.768-0.767-1.151-1.731-1.151-2.894c0-1.494,0.601-2.863,1.805-4.108l13.692-14.501c3.07-3.236,4.605-6.224,4.605-8.962
		c0-1.701-0.479-2.997-1.432-3.89c-0.955-0.892-2.345-1.338-4.17-1.338c-1.577,0-3.029,0.271-4.356,0.809
		c-1.329,0.54-2.862,1.328-4.605,2.365c-0.706,0.416-1.245,0.706-1.618,0.872c-0.373,0.166-0.809,0.249-1.307,0.249
		c-0.871,0-1.619-0.405-2.24-1.214c-0.623-0.809-0.934-1.752-0.934-2.832c0-0.788,0.134-1.441,0.404-1.96
		c0.27-0.519,0.715-0.985,1.338-1.4c1.867-1.369,4.014-2.458,6.441-3.268c2.428-0.809,4.863-1.213,7.312-1.213
		c2.945,0,5.528,0.498,7.748,1.494s3.932,2.417,5.135,4.263c1.203,1.847,1.805,3.973,1.805,6.379c0,2.531-0.529,4.875-1.587,7.033
		c-1.058,2.158-2.831,4.564-5.321,7.219l-9.771,10.269h14.439C339.727,128.334,341.262,129.62,341.262,132.192z"/>
	<path fill="#E0E0E0" d="M379.475,132.192c0,2.614-1.516,3.921-4.543,3.921h-21.285c-3.07,0-4.605-1.307-4.605-3.921
		c0-2.572,1.535-3.858,4.605-3.858h5.788v-25.455l-5.477,3.298c-0.622,0.374-1.245,0.56-1.867,0.56
		c-1.038,0-1.919-0.436-2.646-1.307c-0.727-0.872-1.089-1.846-1.089-2.925c0-1.452,0.644-2.552,1.93-3.298l9.833-5.913
		c1.451-0.871,2.904-1.307,4.356-1.307c1.369,0,2.489,0.426,3.36,1.276c0.871,0.851,1.308,2.002,1.308,3.454v31.616h5.788
		C377.959,128.334,379.475,129.62,379.475,132.192z"/>
	<path fill="#E0E0E0" d="M403.092,135.366c-0.893-0.747-1.338-1.845-1.338-3.298V96.344c0-1.452,0.445-2.551,1.338-3.298
		c0.892-0.747,2.022-1.12,3.393-1.12c1.326,0,2.436,0.374,3.329,1.12c0.892,0.747,1.338,1.847,1.338,3.298v35.724
		c0,1.453-0.446,2.551-1.338,3.298c-0.894,0.747-2.003,1.12-3.329,1.12C405.114,136.486,403.983,136.113,403.092,135.366z"/>
	<path fill="#E0E0E0" d="M419.18,98.678c-0.955-0.85-1.432-2.001-1.432-3.454c0-1.452,0.477-2.592,1.432-3.423
		c0.954-0.83,2.262-1.245,3.922-1.245c1.617,0,2.914,0.426,3.889,1.276c0.975,0.851,1.463,1.981,1.463,3.392
		c0,1.453-0.477,2.604-1.432,3.454c-0.955,0.851-2.262,1.276-3.92,1.276C421.441,99.954,420.134,99.529,419.18,98.678z
		 M419.709,135.366c-0.893-0.747-1.338-1.845-1.338-3.298v-22.717c0-1.452,0.456-2.551,1.369-3.298
		c0.912-0.747,2.033-1.12,3.361-1.12c1.326,0,2.436,0.374,3.328,1.12c0.893,0.747,1.34,1.847,1.34,3.298v22.717
		c0,1.453-0.447,2.551-1.34,3.298s-2.002,1.12-3.328,1.12C421.732,136.486,420.6,136.113,419.709,135.366z"/>
	<path fill="#E0E0E0" d="M465.234,131.943c0,1.162-0.426,2.199-1.275,3.111c-0.852,0.914-1.836,1.369-2.957,1.369
		c-1.078,0-2.074-0.436-2.986-1.307l-13.629-12.634v9.522c0,1.453-0.447,2.552-1.34,3.299c-0.893,0.746-2.002,1.119-3.328,1.119
		c-1.369,0-2.5-0.373-3.393-1.119c-0.893-0.747-1.338-1.846-1.338-3.299V96.344c0-1.452,0.445-2.551,1.338-3.298
		c0.893-0.747,2.023-1.12,3.393-1.12c1.326,0,2.436,0.374,3.328,1.12c0.893,0.747,1.34,1.847,1.34,3.298v22.281l12.445-12.261
		c0.912-0.912,1.93-1.369,3.051-1.369c1.16,0,2.178,0.426,3.049,1.276c0.871,0.851,1.307,1.857,1.307,3.019
		c0,1.08-0.477,2.096-1.432,3.05l-8.277,7.904l9.273,8.588C464.758,129.745,465.234,130.782,465.234,131.943z"/>
	<path fill="#E0E0E0" d="M495.949,128.022c0.518,0.665,0.777,1.515,0.777,2.552c0,0.706-0.207,1.359-0.623,1.961
		c-0.414,0.602-0.994,1.109-1.742,1.524c-1.41,0.747-3.049,1.359-4.916,1.836s-3.59,0.716-5.166,0.716
		c-3.32,0-6.213-0.643-8.682-1.93c-2.469-1.285-4.367-3.121-5.695-5.508c-1.328-2.385-1.99-5.197-1.99-8.433
		c0-3.112,0.643-5.871,1.928-8.278c1.287-2.406,3.07-4.283,5.354-5.632c2.281-1.348,4.875-2.022,7.779-2.022
		c2.779,0,5.217,0.613,7.312,1.836c2.096,1.224,3.723,2.967,4.885,5.228c1.162,2.262,1.744,4.907,1.744,7.935
		c0,0.913-0.219,1.608-0.654,2.085c-0.436,0.477-1.049,0.715-1.836,0.715h-17.426c0.289,2.449,1.037,4.223,2.24,5.321
		c1.203,1.1,2.926,1.649,5.166,1.649c1.203,0,2.281-0.145,3.236-0.436c0.953-0.29,2.012-0.685,3.174-1.183
		c0.58-0.249,1.141-0.467,1.68-0.654c0.539-0.187,1.018-0.28,1.432-0.28C494.756,127.027,495.43,127.359,495.949,128.022z
		 M478.928,112.993c-1.08,1.142-1.723,2.791-1.93,4.948h12.012c-0.125-2.199-0.676-3.859-1.65-4.979s-2.354-1.68-4.139-1.68
		C481.438,111.281,480.006,111.852,478.928,112.993z"/>
	<path fill="#E0E0E0" d="M507.555,135.988c-1.867-0.414-3.506-1.078-4.916-1.991c-0.623-0.373-1.1-0.871-1.432-1.493
		c-0.332-0.623-0.498-1.328-0.498-2.116c0-0.954,0.27-1.752,0.809-2.396c0.539-0.643,1.203-0.965,1.992-0.965
		c0.539,0,1.078,0.093,1.617,0.28c0.539,0.187,1.1,0.405,1.682,0.654c1.16,0.54,2.303,0.964,3.422,1.276
		c1.121,0.311,2.51,0.467,4.17,0.467c1.453,0,2.584-0.228,3.393-0.685c0.809-0.456,1.213-1.079,1.213-1.867
		c0-0.581-0.176-1.047-0.529-1.4c-0.352-0.352-1.006-0.674-1.959-0.965c-0.955-0.29-2.471-0.643-4.543-1.058
		c-3.693-0.705-6.35-1.763-7.967-3.174c-1.619-1.41-2.428-3.381-2.428-5.912c0-1.867,0.57-3.548,1.711-5.042
		s2.707-2.666,4.699-3.516c1.992-0.85,4.232-1.276,6.723-1.276c1.783,0,3.525,0.229,5.227,0.685c1.701,0.457,3.215,1.1,4.543,1.929
		c1.287,0.789,1.93,1.951,1.93,3.485c0,0.996-0.27,1.826-0.809,2.489c-0.539,0.665-1.203,0.996-1.992,0.996
		c-0.955,0-2.096-0.374-3.422-1.121c-1.039-0.539-1.982-0.943-2.832-1.213c-0.852-0.27-1.857-0.405-3.02-0.405
		c-1.285,0-2.303,0.239-3.049,0.716c-0.746,0.478-1.121,1.131-1.121,1.96c0,0.872,0.436,1.536,1.309,1.992
		c0.871,0.457,2.551,0.913,5.041,1.369c2.779,0.54,4.957,1.193,6.533,1.96c1.578,0.768,2.719,1.733,3.424,2.894
		c0.705,1.162,1.059,2.635,1.059,4.418c0,2.947-1.215,5.291-3.641,7.033c-2.428,1.743-5.676,2.614-9.74,2.614
		C511.621,136.611,509.422,136.402,507.555,135.988z"/>
</g>
</svg>
