<?xml version="1.0" encoding="utf-8"?>
<!-- Generator: Adobe Illustrator 16.0.0, SVG Export Plug-In . SVG Version: 6.00 Build 0)  -->
<!DOCTYPE svg PUBLIC "-//W3C//DTD SVG 1.1//EN" "http://www.w3.org/Graphics/SVG/1.1/DTD/svg11.dtd">
<svg version="1.1" id="Layer_1" xmlns="http://www.w3.org/2000/svg" xmlns:xlink="http://www.w3.org/1999/xlink" x="0px" y="0px"
	 width="811.326px" height="232.001px" viewBox="0 0 811.326 232.001" enable-background="new 0 0 811.326 232.001"
	 xml:space="preserve">
<g>
	<path fill="#FFFFFF" d="M811.326,209c0,12.703-10.297,23-22.999,23H22.999C10.297,232,0,221.703,0,209V22.999
		C0,10.297,10.297,0,22.999,0h765.328c12.702,0,22.999,10.297,22.999,22.998V209z"/>
</g>
<path fill="#8FF9E9" d="M180.274,166c0,10.494-8.506,19-19,19H61.272c-10.492,0-18.998-8.506-18.998-19V66
	C42.274,55.506,50.78,47,61.272,47h100.002c10.494,0,19,8.506,19,18.999V166L180.274,166z"/>
<g enable-background="new    ">
	<path fill="#E0E0E0" d="M274.913,65.648c0.667-0.451,1.416-0.677,2.246-0.677c1.046,0,1.939,0.325,2.679,0.975
		c0.739,0.649,1.109,1.533,1.109,2.651c0,0.541-0.108,1.137-0.325,1.785l-11.256,30.791c-0.325,0.866-0.893,1.543-1.705,2.029
		c-0.812,0.487-1.705,0.73-2.679,0.73s-1.858-0.243-2.651-0.73c-0.794-0.486-1.353-1.163-1.678-2.029l-8.063-22.781l-8.279,22.781
		c-0.325,0.866-0.884,1.543-1.678,2.029c-0.794,0.487-1.677,0.73-2.651,0.73c-0.938,0-1.813-0.243-2.625-0.73
		c-0.812-0.486-1.38-1.163-1.705-2.029l-11.256-30.791c-0.216-0.612-0.325-1.19-0.325-1.731c0-1.117,0.397-2.011,1.191-2.679
		c0.793-0.667,1.731-1.001,2.813-1.001c0.866,0,1.651,0.226,2.354,0.677c0.704,0.451,1.218,1.109,1.542,1.975l8.333,23.973
		l8.658-23.864c0.325-0.865,0.839-1.532,1.542-2.002c0.703-0.469,1.452-0.703,2.246-0.703c0.83,0,1.587,0.234,2.272,0.703
		c0.685,0.47,1.191,1.155,1.516,2.057l8.279,24.243l8.604-24.406C273.749,66.758,274.245,66.1,274.913,65.648z"/>
	<path fill="#E0E0E0" d="M311.899,87.483v12.5c0,1.19-0.371,2.129-1.109,2.814c-0.74,0.686-1.741,1.027-3.003,1.027
		c-1.263,0-2.255-0.342-2.976-1.027c-0.722-0.686-1.083-1.624-1.083-2.814V87.375c0-1.587-0.334-2.769-1.001-3.544
		c-0.668-0.775-1.705-1.164-3.112-1.164c-1.696,0-3.057,0.541-4.085,1.624c-1.028,1.082-1.542,2.525-1.542,4.329v11.363
		c0,1.19-0.361,2.129-1.082,2.814c-0.722,0.686-1.714,1.027-2.976,1.027c-1.263,0-2.265-0.342-3.003-1.027
		c-0.74-0.686-1.109-1.624-1.109-2.814V68.814c0-1.118,0.387-2.021,1.164-2.706c0.775-0.685,1.794-1.028,3.057-1.028
		c1.19,0,2.146,0.325,2.868,0.974c0.721,0.649,1.082,1.516,1.082,2.598v11.797c0.938-1.37,2.146-2.408,3.626-3.111
		c1.479-0.703,3.156-1.056,5.033-1.056C308.814,76.281,311.899,80.016,311.899,87.483z"/>
	<path fill="#E0E0E0" d="M338.63,79.123c1.875,1.894,2.814,4.789,2.814,8.685v12.23c0,1.19-0.343,2.119-1.028,2.786
		c-0.686,0.668-1.642,1.001-2.868,1.001c-1.155,0-2.083-0.352-2.787-1.055c-0.703-0.703-1.055-1.614-1.055-2.732v-0.379
		c-0.541,1.335-1.443,2.381-2.706,3.139c-1.263,0.757-2.742,1.136-4.438,1.136c-1.804,0-3.436-0.36-4.897-1.082
		c-1.461-0.721-2.616-1.731-3.463-3.03c-0.848-1.299-1.272-2.741-1.272-4.329c0-1.948,0.496-3.481,1.488-4.6
		c0.992-1.118,2.588-1.93,4.789-2.436c2.2-0.505,5.213-0.757,9.037-0.757h1.407v-0.975c0-1.515-0.334-2.615-1.001-3.301
		c-0.668-0.685-1.777-1.028-3.328-1.028c-1.551,0-3.788,0.541-6.71,1.623c-0.83,0.397-1.534,0.596-2.11,0.596
		c-0.794,0-1.426-0.279-1.894-0.839c-0.469-0.559-0.704-1.289-0.704-2.191c0-0.722,0.163-1.316,0.487-1.786
		c0.325-0.468,0.847-0.901,1.569-1.299c1.262-0.685,2.804-1.226,4.626-1.623c1.821-0.396,3.616-0.596,5.384-0.596
		C333.869,76.281,336.754,77.229,338.63,79.123z M332.191,96.71c0.974-1.063,1.461-2.444,1.461-4.14v-0.92h-0.92
		c-2.922,0-4.97,0.234-6.142,0.703c-1.173,0.47-1.759,1.317-1.759,2.543c0,1.011,0.333,1.832,1.001,2.463
		c0.667,0.631,1.506,0.946,2.516,0.946C329.936,98.306,331.217,97.774,332.191,96.71z"/>
	<path fill="#E0E0E0" d="M364.712,98.685c0.505,0.47,0.758,1.155,0.758,2.057c0,1.047-0.415,1.84-1.245,2.381
		c-0.83,0.541-2.021,0.758-3.571,0.649l-1.516-0.108c-6.313-0.505-9.47-3.806-9.47-9.902V83.046h-2.165
		c-1.19,0-2.093-0.262-2.706-0.784c-0.613-0.523-0.92-1.272-0.92-2.246c0-1.01,0.307-1.776,0.92-2.3
		c0.613-0.522,1.515-0.785,2.706-0.785h2.165V72.71c0-1.19,0.37-2.128,1.109-2.813c0.739-0.686,1.74-1.028,3.003-1.028
		c1.262,0,2.254,0.343,2.976,1.028c0.721,0.686,1.083,1.623,1.083,2.813v4.221h3.788c2.453,0,3.68,1.028,3.68,3.085
		c0,0.974-0.307,1.723-0.92,2.246c-0.614,0.522-1.534,0.784-2.76,0.784h-3.788v11.31c0,1.083,0.252,1.903,0.757,2.463
		c0.505,0.56,1.245,0.875,2.219,0.946l1.515,0.108C363.414,97.946,364.207,98.217,364.712,98.685z"/>
	<path fill="#E0E0E0" d="M384.301,70.951c-0.83-0.738-1.244-1.74-1.244-3.003s0.414-2.254,1.244-2.977
		c0.83-0.721,1.966-1.082,3.409-1.082c1.407,0,2.534,0.37,3.383,1.109c0.847,0.74,1.271,1.723,1.271,2.949
		c0,1.263-0.415,2.265-1.245,3.003c-0.83,0.74-1.967,1.109-3.409,1.109C386.267,72.061,385.131,71.691,384.301,70.951z
		 M384.761,102.852c-0.776-0.649-1.163-1.604-1.163-2.868V80.232c0-1.263,0.396-2.219,1.19-2.868
		c0.793-0.649,1.768-0.975,2.922-0.975s2.119,0.325,2.896,0.975c0.775,0.649,1.163,1.605,1.163,2.868v19.751
		c0,1.264-0.388,2.219-1.163,2.868c-0.776,0.649-1.741,0.974-2.896,0.974C386.52,103.825,385.536,103.501,384.761,102.852z"/>
	<path fill="#E0E0E0" d="M402.375,103.393c-1.623-0.36-3.049-0.938-4.275-1.731c-0.541-0.325-0.956-0.758-1.244-1.299
		c-0.289-0.541-0.433-1.154-0.433-1.84c0-0.829,0.233-1.523,0.703-2.083c0.469-0.56,1.046-0.839,1.731-0.839
		c0.469,0,0.938,0.081,1.407,0.243c0.469,0.162,0.955,0.352,1.461,0.568c1.01,0.469,2.002,0.839,2.977,1.109
		c0.974,0.271,2.182,0.405,3.625,0.405c1.263,0,2.246-0.197,2.949-0.595c0.704-0.396,1.056-0.938,1.056-1.623
		c0-0.505-0.154-0.911-0.46-1.218c-0.307-0.307-0.875-0.586-1.705-0.839c-0.83-0.252-2.146-0.559-3.95-0.92
		c-3.211-0.613-5.52-1.533-6.927-2.76c-1.406-1.227-2.11-2.94-2.11-5.141c0-1.624,0.496-3.085,1.488-4.384s2.354-2.317,4.086-3.058
		c1.731-0.738,3.68-1.109,5.844-1.109c1.551,0,3.066,0.199,4.546,0.596c1.479,0.397,2.795,0.956,3.95,1.678
		c1.118,0.686,1.678,1.696,1.678,3.03c0,0.865-0.235,1.588-0.703,2.164c-0.47,0.578-1.047,0.866-1.732,0.866
		c-0.83,0-1.821-0.324-2.976-0.974c-0.902-0.469-1.724-0.82-2.463-1.056c-0.739-0.234-1.614-0.352-2.624-0.352
		c-1.119,0-2.002,0.208-2.651,0.622c-0.649,0.415-0.975,0.983-0.975,1.705c0,0.757,0.379,1.335,1.137,1.731
		c0.758,0.397,2.219,0.794,4.383,1.19c2.417,0.469,4.311,1.037,5.683,1.704c1.37,0.668,2.362,1.507,2.976,2.517
		c0.613,1.011,0.92,2.291,0.92,3.842c0,2.562-1.055,4.6-3.165,6.115s-4.934,2.272-8.469,2.272
		C405.91,103.934,403.998,103.753,402.375,103.393z"/>
</g>
<path fill="#F2F2F2" d="M378.961,154.535c0,6.333-5.136,11.465-11.466,11.465H228.411c-6.33,0-11.463-5.135-11.463-11.465V134.47
	c0-6.33,5.133-11.462,11.463-11.462h139.084c6.33,0,11.466,5.135,11.466,11.462V154.535z"/>
<path fill="#F2F2F2" d="M718.922,97.528c0,6.333-5.136,11.466-11.466,11.466H445.727c-6.33,0-11.463-5.136-11.463-11.466V77.463
	c0-6.33,5.133-11.462,11.463-11.462h261.729c6.33,0,11.466,5.136,11.466,11.462V97.528z"/>
<g enable-background="new    ">
	<path fill="#E0E0E0" d="M645.117,149.393c-0.452-0.541-0.677-1.264-0.677-2.166c0-1.84,0.333-3.371,1.001-4.6
		c0.667-1.225,1.65-2.578,2.949-4.059c0.975-1.117,1.687-2.047,2.138-2.785c0.45-0.74,0.677-1.578,0.677-2.518
		c0-1.01-0.371-1.812-1.109-2.408c-0.74-0.596-1.741-0.893-3.004-0.893c-1.154,0-2.228,0.234-3.22,0.703
		c-0.992,0.471-2.318,1.191-3.978,2.166c-1.047,0.576-1.912,0.865-2.597,0.865c-0.758,0-1.399-0.334-1.922-1.002
		c-0.523-0.666-0.784-1.469-0.784-2.408c0-0.648,0.116-1.199,0.352-1.65c0.234-0.449,0.604-0.873,1.109-1.271
		c1.587-1.262,3.418-2.246,5.492-2.949s4.158-1.055,6.251-1.055c2.236,0,4.247,0.396,6.033,1.189
		c1.786,0.795,3.174,1.887,4.167,3.275c0.991,1.389,1.488,2.949,1.488,4.68c0,1.336-0.263,2.553-0.785,3.652
		c-0.523,1.102-1.146,2.057-1.866,2.869c-0.723,0.812-1.696,1.812-2.923,3.004c-1.371,1.262-2.399,2.318-3.084,3.164
		c-0.686,0.85-1.119,1.797-1.299,2.842c-0.145,0.686-0.442,1.217-0.893,1.596c-0.452,0.379-1.002,0.568-1.651,0.568
		C646.189,150.203,645.567,149.934,645.117,149.393z M643.791,161c-0.866-0.885-1.299-1.994-1.299-3.328s0.433-2.443,1.299-3.328
		s1.966-1.326,3.301-1.326c1.299,0,2.381,0.441,3.247,1.326s1.299,1.994,1.299,3.328s-0.433,2.443-1.299,3.328
		s-1.948,1.324-3.247,1.324C645.757,162.324,644.657,161.885,643.791,161z"/>
</g>
<path fill="#F2F2F2" d="M621.32,154.535c0,6.333-5.136,11.465-11.466,11.465H405.411c-6.33,0-11.463-5.135-11.463-11.465V134.47
	c0-6.33,5.133-11.462,11.463-11.462h204.443c6.33,0,11.466,5.135,11.466,11.462V154.535z"/>
</svg>
