<?xml version="1.0" encoding="utf-8"?>
<!-- Generator: Adobe Illustrator 16.0.0, SVG Export Plug-In . SVG Version: 6.00 Build 0)  -->
<!DOCTYPE svg PUBLIC "-//W3C//DTD SVG 1.1//EN" "http://www.w3.org/Graphics/SVG/1.1/DTD/svg11.dtd">
<svg version="1.1" id="Layer_1" xmlns="http://www.w3.org/2000/svg" xmlns:xlink="http://www.w3.org/1999/xlink" x="0px" y="0px"
	 width="533.384px" height="533.686px" viewBox="0 0 533.384 533.686" enable-background="new 0 0 533.384 533.686"
	 xml:space="preserve">
<g>
	<path fill="#FFFFFF" d="M533.384,518.438c0,8.422-6.826,15.248-15.248,15.248H15.248C6.827,533.686,0,526.86,0,518.438V15.248
		C0,6.828,6.827,0,15.248,0h502.888c8.422,0,15.248,6.828,15.248,15.248V518.438L533.384,518.438z"/>
</g>
<path fill="#E0E0E0" d="M436.819,262.777c0,3.232-2.621,5.854-5.854,5.854H173.357c-3.232,0-5.854-2.621-5.854-5.854V252.53
	c0-3.233,2.621-5.854,5.854-5.854h257.607c3.233,0,5.854,2.621,5.854,5.854V262.777z"/>
<path fill="#F2F2F2" d="M305.09,300.832c0,3.234-2.623,5.855-5.855,5.855H173.357c-3.232,0-5.854-2.623-5.854-5.855v-10.246
	c0-3.232,2.621-5.854,5.854-5.854h125.877c3.232,0,5.855,2.623,5.855,5.854V300.832z"/>
<path fill="#F4D8D0" d="M101.014,235.949c22.496,0,40.734,18.236,40.734,40.732s-18.238,40.732-40.734,40.732
	c-22.494,0-40.73-18.236-40.73-40.732S78.52,235.949,101.014,235.949z"/>
<g>
	<path fill="#E0E0E0" d="M69.28,97.465c-2.305-0.626-4.186-1.516-5.643-2.668c-0.508-0.373-0.872-0.771-1.093-1.195
		c-0.221-0.423-0.33-0.957-0.33-1.601c0-0.847,0.262-1.592,0.788-2.236c0.524-0.644,1.126-0.966,1.804-0.966
		c0.373,0,0.737,0.06,1.094,0.178c0.355,0.119,0.787,0.331,1.296,0.635c1.456,0.915,2.931,1.584,4.422,2.008
		c1.491,0.424,3.134,0.636,4.931,0.636c2.236,0,3.947-0.373,5.134-1.119c1.186-0.745,1.779-1.812,1.779-3.202
		c0-1.05-0.551-1.897-1.652-2.542c-1.102-0.643-3.059-1.253-5.87-1.83c-3.152-0.643-5.668-1.423-7.549-2.338
		s-3.253-2.05-4.117-3.406c-0.864-1.355-1.296-2.999-1.296-4.931c0-2.135,0.617-4.058,1.855-5.769
		c1.236-1.711,2.947-3.05,5.134-4.016c2.186-0.966,4.65-1.449,7.396-1.449c4.812,0,8.776,1.203,11.895,3.609
		c0.508,0.407,0.872,0.822,1.093,1.246c0.22,0.424,0.33,0.94,0.33,1.55c0,0.847-0.263,1.593-0.788,2.236
		c-0.525,0.644-1.127,0.966-1.804,0.966c-0.374,0-0.721-0.051-1.042-0.152c-0.323-0.102-0.771-0.322-1.348-0.661
		c-1.39-0.88-2.668-1.542-3.838-1.982c-1.169-0.44-2.651-0.661-4.447-0.661c-2.067,0-3.694,0.399-4.88,1.195
		c-1.187,0.796-1.779,1.889-1.779,3.278c0,0.813,0.229,1.483,0.687,2.008c0.458,0.526,1.22,0.991,2.287,1.398
		s2.584,0.831,4.55,1.271c4.608,1.017,7.921,2.322,9.938,3.914c2.016,1.593,3.024,3.779,3.024,6.557
		c0,2.169-0.603,4.084-1.805,5.744c-1.203,1.661-2.897,2.948-5.083,3.863s-4.72,1.373-7.6,1.373
		C74.075,98.405,71.584,98.091,69.28,97.465z"/>
	<path fill="#E0E0E0" d="M119.322,73.447c0.694,0.645,1.042,1.525,1.042,2.644v18.655c0,1.051-0.365,1.898-1.093,2.542
		c-0.729,0.644-1.67,0.966-2.821,0.966c-1.085,0-1.949-0.305-2.593-0.915s-0.966-1.423-0.966-2.44V94.39
		c-0.779,1.288-1.804,2.271-3.075,2.948c-1.271,0.677-2.702,1.017-4.295,1.017c-3.151,0-5.498-0.872-7.04-2.618
		c-1.542-1.745-2.312-4.379-2.312-7.904V76.091c0-1.119,0.347-1.999,1.042-2.644c0.694-0.643,1.635-0.966,2.821-0.966
		c1.186,0,2.117,0.323,2.795,0.966c0.678,0.645,1.017,1.525,1.017,2.644v11.894c0,1.492,0.313,2.592,0.94,3.304
		c0.627,0.711,1.584,1.067,2.872,1.067c1.491,0,2.702-0.508,3.635-1.525c0.932-1.017,1.397-2.355,1.397-4.016V76.091
		c0-1.119,0.339-1.999,1.017-2.644c0.678-0.643,1.609-0.966,2.796-0.966C117.687,72.481,118.627,72.804,119.322,73.447z"/>
	<path fill="#E0E0E0" d="M147.431,74.032c1.678,1.102,2.981,2.643,3.914,4.625c0.932,1.982,1.397,4.262,1.397,6.836
		c0,2.576-0.466,4.838-1.397,6.786c-0.933,1.949-2.229,3.448-3.889,4.499c-1.661,1.051-3.575,1.576-5.744,1.576
		c-1.694,0-3.228-0.348-4.6-1.042c-1.373-0.694-2.433-1.669-3.177-2.923v9.607c0,1.017-0.34,1.83-1.017,2.44
		c-0.679,0.61-1.576,0.915-2.694,0.915c-1.187,0-2.144-0.323-2.872-0.966c-0.729-0.644-1.093-1.492-1.093-2.542V76.091
		c0-1.084,0.347-1.957,1.042-2.618c0.694-0.661,1.618-0.991,2.771-0.991c1.151,0,2.066,0.331,2.744,0.991
		c0.678,0.661,1.017,1.534,1.017,2.618v0.406c0.745-1.287,1.812-2.295,3.203-3.024c1.389-0.728,2.948-1.093,4.676-1.093
		C143.847,72.38,145.753,72.931,147.431,74.032z M143.644,90.705c0.982-1.203,1.475-2.939,1.475-5.21
		c0-2.304-0.492-4.092-1.475-5.362c-0.983-1.271-2.372-1.906-4.168-1.906c-1.797,0-3.186,0.619-4.168,1.855
		c-0.983,1.237-1.475,3.007-1.475,5.312c0,2.271,0.491,4.024,1.475,5.261c0.982,1.237,2.371,1.855,4.168,1.855
		C141.271,92.509,142.66,91.908,143.644,90.705z"/>
	<path fill="#E0E0E0" d="M178.59,74.032c1.678,1.102,2.981,2.643,3.914,4.625c0.932,1.982,1.397,4.262,1.397,6.836
		c0,2.576-0.466,4.838-1.397,6.786c-0.933,1.949-2.229,3.448-3.889,4.499c-1.661,1.051-3.575,1.576-5.744,1.576
		c-1.694,0-3.228-0.348-4.6-1.042c-1.373-0.694-2.433-1.669-3.177-2.923v9.607c0,1.017-0.34,1.83-1.017,2.44
		c-0.679,0.61-1.576,0.915-2.694,0.915c-1.187,0-2.144-0.323-2.872-0.966c-0.729-0.644-1.093-1.492-1.093-2.542V76.091
		c0-1.084,0.347-1.957,1.042-2.618c0.694-0.661,1.618-0.991,2.771-0.991c1.151,0,2.066,0.331,2.744,0.991
		c0.678,0.661,1.017,1.534,1.017,2.618v0.406c0.745-1.287,1.812-2.295,3.203-3.024c1.389-0.728,2.948-1.093,4.676-1.093
		C175.006,72.38,176.912,72.931,178.59,74.032z M174.803,90.705c0.982-1.203,1.475-2.939,1.475-5.21
		c0-2.304-0.492-4.092-1.475-5.362c-0.983-1.271-2.372-1.906-4.168-1.906c-1.797,0-3.186,0.619-4.168,1.855
		c-0.983,1.237-1.475,3.007-1.475,5.312c0,2.271,0.491,4.024,1.475,5.261c0.982,1.237,2.371,1.855,4.168,1.855
		C172.431,92.509,173.819,91.908,174.803,90.705z"/>
	<path fill="#E0E0E0" d="M193.609,96.753c-2-1.067-3.542-2.575-4.626-4.524c-1.085-1.948-1.626-4.245-1.626-6.888
		s0.541-4.938,1.626-6.888c1.084-1.948,2.626-3.448,4.626-4.499c1.999-1.05,4.32-1.576,6.964-1.576c2.643,0,4.964,0.526,6.964,1.576
		c1.999,1.051,3.54,2.55,4.625,4.499c1.084,1.949,1.627,4.245,1.627,6.888s-0.543,4.939-1.627,6.888
		c-1.085,1.949-2.626,3.457-4.625,4.524c-2,1.067-4.321,1.601-6.964,1.601C197.93,98.354,195.608,97.821,193.609,96.753z
		 M206.164,85.342c0-2.406-0.482-4.202-1.448-5.388c-0.966-1.186-2.347-1.779-4.143-1.779c-3.729,0-5.592,2.389-5.592,7.167
		s1.863,7.167,5.592,7.167C204.301,92.509,206.164,90.12,206.164,85.342z"/>
	<path fill="#E0E0E0" d="M235.773,73.168c0.593,0.526,0.89,1.313,0.89,2.364c0,1.118-0.271,1.949-0.813,2.49
		c-0.542,0.542-1.508,0.882-2.897,1.017l-1.524,0.153c-1.864,0.203-3.211,0.813-4.041,1.83c-0.831,1.017-1.245,2.322-1.245,3.914
		v9.708c0,1.187-0.365,2.084-1.094,2.694s-1.635,0.915-2.719,0.915c-1.118,0-2.042-0.305-2.771-0.915
		c-0.729-0.61-1.093-1.507-1.093-2.694V75.989c0-1.118,0.372-1.982,1.118-2.592c0.745-0.61,1.644-0.915,2.694-0.915
		c1.017,0,1.863,0.297,2.541,0.89c0.678,0.593,1.017,1.416,1.017,2.465v1.373c0.61-1.457,1.533-2.575,2.771-3.355
		c1.236-0.779,2.584-1.22,4.041-1.321l0.712-0.051C234.376,72.414,235.181,72.643,235.773,73.168z"/>
	<path fill="#E0E0E0" d="M257.451,93.424c0.474,0.441,0.712,1.085,0.712,1.932c0,0.983-0.391,1.728-1.17,2.236
		s-1.897,0.712-3.354,0.61l-1.423-0.102c-5.931-0.474-8.896-3.575-8.896-9.302V78.734h-2.033c-1.118,0-1.966-0.246-2.542-0.737
		c-0.575-0.491-0.864-1.194-0.864-2.109c0-0.948,0.289-1.668,0.864-2.16c0.576-0.491,1.424-0.737,2.542-0.737h2.033v-3.964
		c0-1.119,0.347-1.999,1.042-2.644c0.694-0.643,1.635-0.966,2.821-0.966c1.186,0,2.117,0.323,2.795,0.966
		c0.678,0.645,1.018,1.525,1.018,2.644v3.964h3.558c2.304,0,3.456,0.966,3.456,2.897c0,0.915-0.288,1.619-0.863,2.109
		c-0.577,0.492-1.441,0.737-2.593,0.737h-3.558v10.624c0,1.017,0.236,1.788,0.711,2.313s1.169,0.822,2.084,0.889l1.424,0.102
		C256.231,92.729,256.977,92.984,257.451,93.424z"/>
</g>
<path fill="#E0E0E0" d="M406.686,396.212c0,3.232-2.621,5.854-5.854,5.854H285.357c-3.232,0-5.854-2.621-5.854-5.854v-10.246
	c0-3.234,2.621-5.855,5.854-5.855h115.474c3.233,0,5.854,2.621,5.854,5.855V396.212z"/>
<path fill="#F2F2F2" d="M388.427,433.517c0,3.234-2.623,5.855-5.855,5.855H268.862c-3.232,0-5.854-2.623-5.854-5.855v-10.246
	c0-3.232,2.621-5.854,5.854-5.854h113.709c3.232,0,5.855,2.623,5.855,5.854V433.517z"/>
<path fill="#F4BDEC" d="M101.014,369.384c22.496,0,40.734,18.236,40.734,40.732s-18.238,40.732-40.734,40.732
	c-22.494,0-40.73-18.236-40.73-40.732S78.52,369.384,101.014,369.384z"/>
<path fill="#C5E2F9" d="M395.524,300.832c0,3.234-2.623,5.855-5.855,5.855h-66.645c-3.232,0-5.854-2.623-5.854-5.855v-10.246
	c0-3.232,2.621-5.854,5.854-5.854h66.645c3.232,0,5.855,2.623,5.855,5.854V300.832z"/>
<path fill="#E0E0E0" d="M267.851,396.21c0,3.234-2.623,5.855-5.855,5.855h-88.638c-3.232,0-5.854-2.623-5.854-5.855v-10.246
	c0-3.232,2.621-5.854,5.854-5.854h88.638c3.232,0,5.855,2.623,5.855,5.854V396.21z"/>
<path fill="#F2F2F2" d="M452.018,433.517c0,3.234-2.623,5.855-5.855,5.855h-38.464c-3.232,0-5.854-2.623-5.854-5.855v-10.246
	c0-3.232,2.621-5.854,5.854-5.854h38.464c3.232,0,5.855,2.623,5.855,5.854V433.517z"/>
<path fill="#F2F2F2" d="M249.19,433.517c0,3.234-2.623,5.855-5.855,5.855h-69.978c-3.232,0-5.854-2.623-5.854-5.855v-10.246
	c0-3.232,2.621-5.854,5.854-5.854h69.978c3.232,0,5.855,2.623,5.855,5.854V433.517z"/>
<path fill="#F2F2F2" d="M157.026,146.405c0,3.234-2.623,5.855-5.855,5.855H66.137c-3.232,0-5.854-2.623-5.854-5.855v-10.246
	c0-3.232,2.621-5.854,5.854-5.854h85.034c3.232,0,5.855,2.623,5.855,5.854V146.405z"/>
<path fill="#F2F2F2" d="M320.099,146.404c0,3.234-2.623,5.855-5.855,5.855H173.357c-3.232,0-5.854-2.623-5.854-5.855v-10.246
	c0-3.232,2.621-5.854,5.854-5.854h140.886c3.232,0,5.855,2.623,5.855,5.854V146.404z"/>
<path fill="#F2F2F2" d="M197.005,180.071c0,3.234-2.623,5.855-5.855,5.855H66.137c-3.232,0-5.854-2.623-5.854-5.855v-10.246
	c0-3.232,2.621-5.854,5.854-5.854h125.013c3.232,0,5.855,2.623,5.855,5.854V180.071z"/>
</svg>
