<?xml version="1.0" encoding="utf-8"?>
<!-- Generator: Adobe Illustrator 16.0.0, SVG Export Plug-In . SVG Version: 6.00 Build 0)  -->
<!DOCTYPE svg PUBLIC "-//W3C//DTD SVG 1.1//EN" "http://www.w3.org/Graphics/SVG/1.1/DTD/svg11.dtd">
<svg version="1.1" id="Layer_1" xmlns="http://www.w3.org/2000/svg" xmlns:xlink="http://www.w3.org/1999/xlink" x="0px" y="0px"
	 width="565.134px" height="565.134px" viewBox="0 0 565.134 565.134" enable-background="new 0 0 565.134 565.134"
	 xml:space="preserve">
<g id="comment">
	<g>
		<g>
			<circle fill="#FFFFFF" cx="282.567" cy="282.567" r="282.567"/>
		</g>
	</g>
	<path fill="#EF9CE8" d="M184.643,431.417c-2.381,0-4.771-0.547-6.979-1.66c-5.225-2.635-8.52-7.988-8.52-13.84v-41.045
		c-18.532-0.551-34-16.346-34-34.984V198.887c0-18.747,15.7-33.999,34.999-33.999h226.001c19.064,0,34,14.934,34,33.999v141.001
		c0,19.299-15.252,35-34,35H266.25l-72.395,53.496C191.138,430.392,187.899,431.417,184.643,431.417z M170.144,195.888
		c-1.892,0-3.999,1.231-3.999,2.999v141.001c0,1.943,2.056,4,3.999,4h14.501c8.561,0,15.5,6.939,15.5,15.5v25.803l51.788-38.27
		c2.667-1.971,5.896-3.033,9.212-3.033h135c1.768,0,3-2.107,3-4V198.887c0-1.934-1.064-2.999-3-2.999H170.144z"/>
	<path fill="#EF9CE8" d="M345.145,261.889h-134c-8.561,0-15.5-6.939-15.5-15.5c0-8.562,6.939-15.5,15.5-15.5h134
		c8.561,0,15.5,6.938,15.5,15.5C360.645,254.949,353.706,261.889,345.145,261.889z"/>
	<path fill="#EF9CE8" d="M315.145,312.888h-104c-8.561,0-15.5-6.939-15.5-15.5c0-8.56,6.939-15.5,15.5-15.5h104
		c8.561,0,15.5,6.939,15.5,15.5C330.645,305.949,323.706,312.888,315.145,312.888z"/>
</g>
</svg>
