<?xml version="1.0" encoding="utf-8"?>
<!-- Generator: Adobe Illustrator 16.0.0, SVG Export Plug-In . SVG Version: 6.00 Build 0)  -->
<!DOCTYPE svg PUBLIC "-//W3C//DTD SVG 1.1//EN" "http://www.w3.org/Graphics/SVG/1.1/DTD/svg11.dtd">
<svg version="1.1" id="Layer_1" xmlns="http://www.w3.org/2000/svg" xmlns:xlink="http://www.w3.org/1999/xlink" x="0px" y="0px"
	 width="811.326px" height="232.001px" viewBox="0 0 811.326 232.001" enable-background="new 0 0 811.326 232.001"
	 xml:space="preserve">
<g>
	<path fill="#FFFFFF" d="M811.326,209.001c0,12.703-10.297,23-22.999,23H22.999c-12.702,0-22.999-10.297-22.999-23V22.999
		C0,10.297,10.297,0,22.999,0h765.328c12.702,0,22.999,10.297,22.999,22.999V209.001z"/>
</g>
<path fill="#B2CBF7" d="M117.18,172.286c-2.349,0-4.692-0.892-6.489-2.674c-3.315-3.291-6.574-6.479-9.738-9.568
	c-23.543-23.019-42.14-41.195-42.134-61.756c0.005-22.457,18.009-34.572,34.943-34.572c8.84,0,17.043,3.027,23.455,8.42
	c6.404-5.356,14.603-8.363,23.438-8.363c9.001,0,17.476,3.139,23.867,8.839c7.127,6.354,11.05,15.485,11.046,25.71
	c-0.01,20.559-18.607,38.729-42.156,61.727c-3.167,3.094-6.427,6.277-9.744,9.568C121.872,171.396,119.526,172.286,117.18,172.286z
	 M93.764,82.14c-6.135,0-16.518,3.4-16.521,16.152c-0.003,12.805,16.954,29.381,36.59,48.576c1.107,1.082,2.225,2.174,3.354,3.28
	c1.128-1.104,2.246-2.196,3.354-3.28c19.641-19.185,36.604-35.748,36.607-48.554c0.002-5.039-1.643-9.062-4.885-11.953
	c-2.969-2.647-7.198-4.166-11.604-4.166c-3.135,0-10.921,0.847-15.491,8.687c-1.65,2.83-4.681,4.572-7.96,4.572l0,0
	c-3.276,0-6.308-1.742-7.958-4.574C104.646,82.989,96.889,82.14,93.764,82.14z"/>
<g enable-background="new    ">
	<path fill="#E0E0E0" d="M252.503,111.349c2.116,1.182,3.754,2.831,4.917,4.947c1.161,2.116,1.743,4.564,1.743,7.344
		c0,2.905-0.685,5.477-2.054,7.718c-1.369,2.24-3.289,3.982-5.757,5.228c-2.469,1.245-5.321,1.867-8.558,1.867
		c-2.573,0-5.083-0.395-7.53-1.183c-2.449-0.788-4.565-1.888-6.348-3.299c-0.623-0.456-1.058-0.943-1.307-1.462
		s-0.374-1.151-0.374-1.898c0-1.078,0.301-2.001,0.903-2.77c0.601-0.768,1.338-1.151,2.209-1.151c0.498,0,0.954,0.073,1.369,0.218
		c0.415,0.146,0.954,0.404,1.618,0.778c1.659,0.995,3.174,1.773,4.543,2.333c1.369,0.561,2.863,0.841,4.481,0.841
		c2.53,0,4.45-0.581,5.757-1.743c1.307-1.161,1.96-2.883,1.96-5.165c0-2.157-0.675-3.858-2.023-5.104
		c-1.349-1.245-3.164-1.867-5.445-1.867c-1.411,0-2.698,0.177-3.859,0.529c-1.162,0.353-2.427,0.944-3.796,1.773
		c-0.871,0.498-1.743,0.747-2.614,0.747c-0.996,0-1.836-0.301-2.521-0.902s-1.027-1.4-1.027-2.396v-18.11
		c0-1.452,0.394-2.572,1.183-3.361c0.788-0.787,1.908-1.182,3.36-1.182h20.04c3.07,0,4.605,1.224,4.605,3.672
		c0,2.489-1.535,3.733-4.605,3.733h-15.123v9.771c1.991-1.12,4.335-1.681,7.033-1.681
		C247.98,109.574,250.387,110.166,252.503,111.349z"/>
	<path fill="#E0E0E0" d="M273.165,129.396c0.996,1.183,1.494,2.895,1.494,5.135c0,4.314-1.556,8.091-4.668,11.327
		c-0.622,0.622-1.287,0.934-1.991,0.934c-0.706,0-1.318-0.239-1.836-0.716c-0.52-0.478-0.778-1.049-0.778-1.712
		c0-0.622,0.228-1.162,0.685-1.618c1.369-1.411,2.282-2.987,2.739-4.729c-1.411-0.125-2.552-0.643-3.423-1.557
		c-0.871-0.912-1.307-2.074-1.307-3.484c0-1.535,0.487-2.811,1.462-3.828c0.974-1.016,2.188-1.524,3.641-1.524
		C270.84,127.623,272.168,128.214,273.165,129.396z"/>
	<path fill="#E0E0E0" d="M283.962,132.727c-2.801-3.859-4.201-9.438-4.201-16.742c0-7.26,1.4-12.82,4.201-16.679
		c2.8-3.858,6.855-5.788,12.167-5.788c5.311,0,9.366,1.93,12.167,5.788s4.201,9.419,4.201,16.679c0,7.304-1.4,12.883-4.201,16.742
		c-2.801,3.858-6.856,5.788-12.167,5.788C290.818,138.515,286.763,136.585,283.962,132.727z M301.388,127.498
		c1.099-2.405,1.649-6.243,1.649-11.514c0-5.311-0.55-9.148-1.649-11.514c-1.1-2.364-2.853-3.547-5.259-3.547
		c-2.407,0-4.16,1.193-5.259,3.578c-1.1,2.387-1.649,6.214-1.649,11.482c0,5.271,0.549,9.108,1.649,11.514
		c1.099,2.407,2.853,3.61,5.259,3.61C298.535,131.108,300.289,129.905,301.388,127.498z"/>
	<path fill="#E0E0E0" d="M321.304,132.727c-2.801-3.859-4.201-9.438-4.201-16.742c0-7.26,1.4-12.82,4.201-16.679
		c2.8-3.858,6.855-5.788,12.167-5.788c5.311,0,9.366,1.93,12.167,5.788s4.201,9.419,4.201,16.679c0,7.304-1.4,12.883-4.201,16.742
		c-2.801,3.858-6.856,5.788-12.167,5.788C328.159,138.515,324.104,136.585,321.304,132.727z M338.729,127.498
		c1.099-2.405,1.649-6.243,1.649-11.514c0-5.311-0.55-9.148-1.649-11.514c-1.1-2.364-2.853-3.547-5.259-3.547
		c-2.407,0-4.16,1.193-5.259,3.578c-1.1,2.387-1.649,6.214-1.649,11.482c0,5.271,0.549,9.108,1.649,11.514
		c1.099,2.407,2.853,3.61,5.259,3.61C335.876,131.108,337.63,129.905,338.729,127.498z"/>
	<path fill="#E0E0E0" d="M358.645,132.727c-2.801-3.859-4.201-9.438-4.201-16.742c0-7.26,1.4-12.82,4.201-16.679
		c2.8-3.858,6.855-5.788,12.167-5.788c5.311,0,9.366,1.93,12.167,5.788s4.201,9.419,4.201,16.679c0,7.304-1.4,12.883-4.201,16.742
		c-2.801,3.858-6.856,5.788-12.167,5.788C365.5,138.515,361.445,136.585,358.645,132.727z M376.07,127.498
		c1.099-2.405,1.649-6.243,1.649-11.514c0-5.311-0.55-9.148-1.649-11.514c-1.1-2.364-2.853-3.547-5.259-3.547
		c-2.407,0-4.16,1.193-5.259,3.578c-1.1,2.387-1.649,6.214-1.649,11.482c0,5.271,0.549,9.108,1.649,11.514
		c1.099,2.407,2.853,3.61,5.259,3.61C373.217,131.108,374.971,129.905,376.07,127.498z"/>
</g>
<g>
	<path fill="#B7EDB7" d="M583.276,121.274c0-2.447,1.473-3.672,4.419-3.672h12.198c2.945,0,4.419,1.225,4.419,3.672
		c0,2.449-1.474,3.672-4.419,3.672h-12.198C584.749,124.946,583.276,123.724,583.276,121.274z"/>
	<path fill="#B7EDB7" d="M636.207,111.255c2.012,1.204,3.588,2.884,4.73,5.041c1.141,2.158,1.711,4.605,1.711,7.344
		c0,2.863-0.644,5.426-1.93,7.687c-1.286,2.262-3.07,4.024-5.352,5.29c-2.282,1.266-4.854,1.898-7.717,1.898
		c-5.686,0-10.083-1.888-13.195-5.664c-3.111-3.774-4.667-9.169-4.667-16.182c0-4.688,0.726-8.784,2.179-12.291
		c1.451-3.506,3.536-6.192,6.254-8.06c2.717-1.867,5.882-2.801,9.491-2.801c2.365,0,4.751,0.395,7.157,1.183
		s4.459,1.889,6.162,3.299c0.58,0.457,1.005,0.943,1.275,1.462c0.27,0.52,0.404,1.151,0.404,1.898c0,1.079-0.301,2.002-0.902,2.77
		c-0.602,0.769-1.338,1.151-2.209,1.151c-0.54,0-1.007-0.072-1.4-0.218c-0.395-0.145-0.924-0.404-1.588-0.778
		c-1.66-0.995-3.143-1.773-4.449-2.334c-1.307-0.56-2.645-0.84-4.015-0.84c-2.573,0-4.616,1.183-6.13,3.548
		c-1.516,2.364-2.376,5.685-2.583,9.957c0.954-1.576,2.303-2.831,4.046-3.765c1.742-0.934,3.691-1.4,5.85-1.4
		C631.902,109.45,634.194,110.052,636.207,111.255z M631.789,129.055c1.182-1.286,1.773-2.987,1.773-5.104
		c0-2.074-0.592-3.755-1.773-5.041c-1.184-1.286-2.75-1.93-4.699-1.93c-1.951,0-3.527,0.644-4.73,1.93s-1.805,2.967-1.805,5.041
		c0,2.075,0.602,3.765,1.805,5.072c1.203,1.307,2.779,1.96,4.73,1.96C629.039,130.983,630.605,130.341,631.789,129.055z"/>
	<path fill="#B7EDB7" d="M673.393,111.349c2.116,1.182,3.755,2.831,4.917,4.947c1.161,2.116,1.743,4.564,1.743,7.344
		c0,2.905-0.686,5.477-2.055,7.718c-1.369,2.24-3.289,3.982-5.756,5.228c-2.47,1.245-5.322,1.867-8.559,1.867
		c-2.572,0-5.082-0.395-7.529-1.183c-2.449-0.788-4.565-1.888-6.349-3.299c-0.622-0.456-1.058-0.943-1.308-1.462
		c-0.248-0.519-0.373-1.151-0.373-1.898c0-1.078,0.301-2.001,0.902-2.77c0.602-0.768,1.338-1.151,2.209-1.151
		c0.498,0,0.955,0.073,1.369,0.218c0.415,0.146,0.955,0.404,1.619,0.778c1.658,0.995,3.174,1.773,4.543,2.333
		c1.369,0.561,2.863,0.841,4.48,0.841c2.531,0,4.45-0.581,5.758-1.743c1.307-1.161,1.96-2.883,1.96-5.165
		c0-2.157-0.675-3.858-2.022-5.104c-1.35-1.245-3.164-1.867-5.445-1.867c-1.412,0-2.698,0.177-3.859,0.529
		c-1.162,0.353-2.428,0.944-3.797,1.773c-0.871,0.498-1.742,0.747-2.613,0.747c-0.996,0-1.836-0.301-2.521-0.902
		s-1.026-1.4-1.026-2.396v-18.11c0-1.452,0.393-2.572,1.182-3.361c0.788-0.787,1.908-1.182,3.361-1.182h20.039
		c3.07,0,4.605,1.224,4.605,3.672c0,2.489-1.535,3.733-4.605,3.733h-15.123v9.771c1.992-1.12,4.336-1.681,7.033-1.681
		C668.87,109.574,671.277,110.166,673.393,111.349z"/>
	<path fill="#B7EDB7" d="M687.426,116.763c-2.012-2.303-3.018-5.652-3.018-10.051c0-4.273,1.016-7.562,3.049-9.864
		s4.812-3.454,8.34-3.454c3.568,0,6.357,1.151,8.371,3.454c2.012,2.303,3.019,5.611,3.019,9.926c0,4.398-1.007,7.739-3.019,10.021
		c-2.014,2.282-4.803,3.423-8.371,3.423S689.438,119.065,687.426,116.763z M698.598,112.624c0.58-1.161,0.871-3.111,0.871-5.851
		c0-2.613-0.301-4.512-0.902-5.694s-1.524-1.773-2.77-1.773c-1.244,0-2.158,0.581-2.738,1.742c-0.582,1.162-0.871,3.071-0.871,5.726
		c0,2.698,0.289,4.637,0.871,5.819c0.58,1.183,1.494,1.773,2.738,1.773C697.082,114.366,698.016,113.786,698.598,112.624z
		 M700.34,139.137c-0.871,0-1.629-0.322-2.271-0.965c-0.644-0.643-0.965-1.441-0.965-2.396c0-0.787,0.25-1.618,0.748-2.489
		l22.031-38.026c0.871-1.576,2.032-2.364,3.484-2.364c0.912,0,1.69,0.321,2.334,0.965c0.643,0.644,0.965,1.441,0.965,2.396
		c0,0.789-0.248,1.618-0.746,2.489l-22.032,38.026C702.934,138.348,701.75,139.137,700.34,139.137z M719.54,134.936
		c-2.013-2.303-3.019-5.652-3.019-10.051c0-4.314,1.006-7.613,3.019-9.896c2.013-2.281,4.802-3.423,8.371-3.423
		c3.526,0,6.306,1.151,8.339,3.454s3.051,5.611,3.051,9.926c0,4.357-1.008,7.687-3.02,9.989c-2.013,2.303-4.803,3.454-8.37,3.454
		C724.342,138.39,721.553,137.238,719.54,134.936z M730.711,130.797c0.581-1.161,0.872-3.111,0.872-5.851
		c0-2.654-0.302-4.574-0.902-5.756c-0.603-1.183-1.524-1.774-2.77-1.774s-2.169,0.592-2.77,1.774
		c-0.603,1.182-0.902,3.102-0.902,5.756c0,2.739,0.29,4.689,0.871,5.851c0.581,1.162,1.515,1.743,2.801,1.743
		C729.196,132.54,730.13,131.959,730.711,130.797z"/>
</g>
<path fill="#F2F2F2" d="M535.326,173.703c-0.783,0-1.417-0.634-1.417-1.417V63.716c0-0.783,0.634-1.417,1.417-1.417
	s1.417,0.635,1.417,1.417v108.57C536.743,173.069,536.109,173.703,535.326,173.703z"/>
</svg>
