<?xml version="1.0" encoding="utf-8"?>
<!-- Generator: Adobe Illustrator 16.0.0, SVG Export Plug-In . SVG Version: 6.00 Build 0)  -->
<!DOCTYPE svg PUBLIC "-//W3C//DTD SVG 1.1//EN" "http://www.w3.org/Graphics/SVG/1.1/DTD/svg11.dtd">
<svg version="1.1" id="Layer_1" xmlns="http://www.w3.org/2000/svg" xmlns:xlink="http://www.w3.org/1999/xlink" x="0px" y="0px"
	 width="754.9px" height="236.347px" viewBox="0 0 754.9 236.347" enable-background="new 0 0 754.9 236.347" xml:space="preserve">
<g>
	<g>
		<path fill="#FFFFFF" d="M637.021,0c-4.394,0-514.748,0-519.144,0C52.775,0,0,53.078,0,118.176
			c0,65.002,52.616,115.358,117.58,118.17h519.147c0.099,0,0.197-0.658,0.294-0.658c65.104,0,117.879-52.74,117.879-117.842
			C754.9,52.745,702.125,0,637.021,0z"/>
	</g>
</g>
<path fill="#A1F1F7" d="M117.877,50.558c36.778,0,66.593,29.813,66.593,66.591c0,36.778-29.815,66.59-66.593,66.59
	c-36.775,0-66.588-29.812-66.588-66.59C51.289,80.372,81.102,50.558,117.877,50.558z"/>
<path fill="#F2F2F2" d="M619.282,158.444c0,4.66-3.784,8.441-8.441,8.441H228.785c-4.656,0-8.44-3.781-8.44-8.441v-25.322
	c0-4.658,3.784-8.441,8.44-8.441H610.84c4.657,0,8.441,3.783,8.441,8.441V158.444z"/>
<path fill="#E2E2E2" d="M499.815,101.173c0,4.66-3.783,8.44-8.44,8.44h-262.59c-4.656,0-8.44-3.78-8.44-8.44V75.85
	c0-4.66,3.784-8.44,8.44-8.44h262.593c4.66,0,8.44,3.78,8.44,8.44v25.323H499.815z"/>
<path fill="#FFFFFF" d="M113.217,137.894c-1.029,0-2.019-0.41-2.745-1.139l-20.43-20.43c-1.518-1.516-1.518-3.976,0-5.492
	c1.516-1.516,3.977-1.516,5.492,0l17.683,17.684l28.926-28.926c1.517-1.516,3.978-1.516,5.492,0c1.517,1.517,1.517,3.976,0,5.492
	l-31.672,31.672C115.236,137.481,114.248,137.894,113.217,137.894z"/>
</svg>
