<?xml version="1.0" encoding="UTF-8"?>
<svg width="255px" height="129px" viewBox="0 0 255 129" version="1.1" xmlns="http://www.w3.org/2000/svg" xmlns:xlink="http://www.w3.org/1999/xlink">
    <!-- Generator: Sketch 49.3 (51167) - http://www.bohemiancoding.com/sketch -->
    <title>Instant Delivery Copy 2@2x</title>
    <desc>Created with Sketch.</desc>
    <defs>
        <rect id="path-1" x="0" y="0" width="199" height="73" rx="10"></rect>
        <filter x="-26.1%" y="-43.8%" width="152.3%" height="242.5%" filterUnits="objectBoundingBox" id="filter-2">
            <feOffset dx="0" dy="20" in="SourceAlpha" result="shadowOffsetOuter1"></feOffset>
            <feGaussianBlur stdDeviation="14" in="shadowOffsetOuter1" result="shadowBlurOuter1"></feGaussianBlur>
            <feColorMatrix values="0 0 0 0 0   0 0 0 0 0   0 0 0 0 0  0 0 0 0.08 0" type="matrix" in="shadowBlurOuter1"></feColorMatrix>
        </filter>
    </defs>
    <g id="Page-1" stroke="none" stroke-width="1" fill="none" fill-rule="evenodd">
        <g id="BUY-INSTAGRAM-FOLLOWERS-Body" transform="translate(-1075.000000, -264.000000)">
            <g id="Customer-Support-Copy" transform="translate(1103.000000, 62.000000)">
                <g id="Instant-Delivery-Copy-2" transform="translate(0.000000, 210.000000)">
                    <g id="Rectangle-6-Copy">
                        <use fill="black" fill-opacity="1" filter="url(#filter-2)" xlink:href="#path-1"></use>
                        <use fill="#FFFFFF" fill-rule="evenodd" xlink:href="#path-1"></use>
                    </g>
                    <text id="Customer-Support" font-family="Ubuntu-Bold, Ubuntu" font-size="14" font-weight="bold" fill="#B4C2C4">
                        <tspan x="57" y="43">Customer Support</tspan>
                    </text>
                    <path d="M34.3166797,38.3568849 C34.3369479,38.3423293 34.3565727,38.3270077 34.376841,38.3121457 C34.4075651,38.3403375 34.4378066,38.3686826 34.4735174,38.3928908 C34.4857427,38.4013177 34.4268682,38.3872217 34.3166797,38.3568849 M26.5264308,38.3867621 C26.5577983,38.3656182 26.5838575,38.3401843 26.6113644,38.3158229 C26.6256809,38.3263948 26.6398365,38.3375796 26.6543138,38.3478451 C26.5632675,38.3789481 26.5158141,38.3933504 26.5264308,38.3867621 M43.9981499,44.7093922 L43.9981499,44.6903933 C43.9981499,44.6396787 43.9915546,44.5888108 43.9915546,44.5321207 C43.9519833,43.2775844 43.8667279,40.3442555 41.0138905,39.406724 C40.9941048,39.4002889 40.9678848,39.3941603 40.9480991,39.3877252 C38.3677571,38.7535623 36.1665602,37.4237967 35.6220519,37.0770679 C37.7132211,34.2923589 37.3368106,30.0641977 37.2933787,29.6394817 C37.1289806,26.2624379 35.4726137,24.6472301 34.1053107,23.8932519 C33.0865896,23.3294154 31.8967143,23.0255871 30.5689826,23 L30.4571855,23 C29.7275283,23 28.2945948,23.113993 26.9206966,23.8681244 C25.540364,24.6216429 23.8576162,26.2371572 23.6932181,29.6394817 C23.6497862,30.0643509 23.2733757,34.2941975 25.3659927,37.0789065 C24.8044333,37.4368201 22.6251132,38.7515705 20.0516882,39.3811369 C20.0254681,39.3877252 20.0058433,39.3941603 19.9860576,39.4002889 C17.1332202,40.3442555 17.047804,43.2775844 17.0083935,44.5255324 C17.0083935,44.5823757 17.0083935,44.6330904 17.0017982,44.683805 L17.0017982,44.7029571 C16.995203,45.0323724 16.9886078,46.7238821 17.3368679,47.572548 C17.4028202,47.7374089 17.5210517,47.8769891 17.6786936,47.9719833 C17.875907,48.0985401 22.6021104,51 30.5097865,51 C38.4174626,51 43.1436659,48.092105 43.3408793,47.9719833 C43.4920869,47.8769891 43.6169136,47.7374089 43.682705,47.572548 C44.0113403,46.7300107 44.0047451,45.0385011 43.9981499,44.7093922" id="Fill-1" fill="#ABAFFF"></path>
                </g>
            </g>
        </g>
    </g>
</svg>