<?xml version="1.0" encoding="UTF-8"?>
<svg width="451px" height="570px" viewBox="0 0 451 570" version="1.1" xmlns="http://www.w3.org/2000/svg" xmlns:xlink="http://www.w3.org/1999/xlink">
    <!-- Generator: Sketch 49.3 (51167) - http://www.bohemiancoding.com/sketch -->
    <title>Instagram Followers@2x</title>
    <desc>Created with Sketch.</desc>
    <defs>
        <rect id="path-1" x="0" y="0" width="355" height="474" rx="10"></rect>
        <filter x="-25.9%" y="-11.0%" width="151.8%" height="138.8%" filterUnits="objectBoundingBox" id="filter-2">
            <feOffset dx="0" dy="40" in="SourceAlpha" result="shadowOffsetOuter1"></feOffset>
            <feGaussianBlur stdDeviation="24" in="shadowOffsetOuter1" result="shadowBlurOuter1"></feGaussianBlur>
            <feColorMatrix values="0 0 0 0 0   0 0 0 0 0   0 0 0 0 0  0 0 0 0.0661514946 0" type="matrix" in="shadowBlurOuter1"></feColorMatrix>
        </filter>
        <linearGradient x1="97.2200046%" y1="2.68528005%" x2="8.47827327%" y2="95.8941684%" id="linearGradient-3">
            <stop stop-color="#FF5571" offset="0%"></stop>
            <stop stop-color="#FF92A4" offset="100%"></stop>
        </linearGradient>
        <circle id="path-4" cx="23.667" cy="23.667" r="23.667"></circle>
        <filter x="-200.7%" y="-116.2%" width="501.4%" height="501.4%" filterUnits="objectBoundingBox" id="filter-5">
            <feOffset dx="0" dy="40" in="SourceAlpha" result="shadowOffsetOuter1"></feOffset>
            <feGaussianBlur stdDeviation="25" in="shadowOffsetOuter1" result="shadowBlurOuter1"></feGaussianBlur>
            <feColorMatrix values="0 0 0 0 0   0 0 0 0 0   0 0 0 0 0  0 0 0 0.15 0" type="matrix" in="shadowBlurOuter1"></feColorMatrix>
        </filter>
    </defs>
    <g id="Page-1" stroke="none" stroke-width="1" fill="none" fill-rule="evenodd">
        <g id="Real-Instagram-Likes" transform="translate(-404.000000, -160.000000)">
            <g id="Instagram-Followers" transform="translate(452.000000, 168.000000)">
                <g id="Rectangle-2">
                    <use fill="black" fill-opacity="1" filter="url(#filter-2)" xlink:href="#path-1"></use>
                    <use fill="#FFFFFF" fill-rule="evenodd" xlink:href="#path-1"></use>
                </g>
                <g id="Group" transform="translate(31.000000, 125.000000)">
                    <rect id="Rectangle-6" fill="#D5E5E7" opacity="0.380434783" x="0" y="0" width="90" height="90"></rect>
                    <rect id="Rectangle-6-Copy-2" fill="#D5E5E7" opacity="0.380434783" x="102" y="0" width="90" height="90"></rect>
                    <rect id="Rectangle-6-Copy-3" fill="#D5E5E7" opacity="0.380434783" x="204" y="0" width="90" height="90"></rect>
                    <rect id="Rectangle-6-Copy-6" fill="#D5E5E7" opacity="0.380434783" x="0" y="102" width="90" height="90"></rect>
                    <rect id="Rectangle-6-Copy-7" fill="#D5E5E7" opacity="0.380434783" x="0" y="204" width="90" height="90"></rect>
                    <rect id="Rectangle-6-Copy-5" fill="#D5E5E7" opacity="0.380434783" x="102" y="102" width="90" height="90"></rect>
                    <rect id="Rectangle-6-Copy-8" fill="#D5E5E7" opacity="0.380434783" x="102" y="204" width="90" height="90"></rect>
                    <rect id="Rectangle-6-Copy-4" fill="#D5E5E7" opacity="0.380434783" x="204" y="102" width="90" height="90"></rect>
                    <rect id="Rectangle-6-Copy-9" fill="#D5E5E7" opacity="0.380434783" x="204" y="204" width="90" height="90"></rect>
                    <circle id="Oval" fill="url(#linearGradient-3)" fill-rule="nonzero" opacity="0.454710145" cx="44.667" cy="44.667" r="23.667"></circle>
                    <path d="M44.5791359,37.8638388 C41.8028124,33.100429 34,34.4923223 34,40.4591789 C34,44.5676899 38.9108088,48.7694913 44.5791359,54.3949048 C50.2455972,48.7694913 55.1545401,44.5676899 55.1545401,40.4591789 C55.1545401,34.4717985 47.3330697,33.1377452 44.5791359,37.8638388 Z" id="Shape" fill="#FFFFFF" fill-rule="nonzero"></path>
                    <circle id="Oval-Copy" fill="url(#linearGradient-3)" fill-rule="nonzero" opacity="0.454710145" cx="147.667" cy="44.667" r="23.667"></circle>
                    <path d="M147.579136,37.8638388 C144.802812,33.100429 137,34.4923223 137,40.4591789 C137,44.5676899 141.910809,48.7694913 147.579136,54.3949048 C153.245597,48.7694913 158.15454,44.5676899 158.15454,40.4591789 C158.15454,34.4717985 150.33307,33.1377452 147.579136,37.8638388 Z" id="Shape-Copy" fill="#FFFFFF" fill-rule="nonzero"></path>
                    <circle id="Oval-Copy-2" fill="url(#linearGradient-3)" fill-rule="nonzero" opacity="0.454710145" cx="249.667" cy="44.667" r="23.667"></circle>
                    <path d="M249.579136,37.8638388 C246.802812,33.100429 239,34.4923223 239,40.4591789 C239,44.5676899 243.910809,48.7694913 249.579136,54.3949048 C255.245597,48.7694913 260.15454,44.5676899 260.15454,40.4591789 C260.15454,34.4717985 252.33307,33.1377452 249.579136,37.8638388 Z" id="Shape-Copy-2" fill="#FFFFFF" fill-rule="nonzero"></path>
                    <circle id="Oval-Copy-5" fill="url(#linearGradient-3)" fill-rule="nonzero" opacity="0.454710145" cx="44.667" cy="146.667" r="23.667"></circle>
                    <path d="M44.5791359,139.863839 C41.8028124,135.100429 34,136.492322 34,142.459179 C34,146.56769 38.9108088,150.769491 44.5791359,156.394905 C50.2455972,150.769491 55.1545401,146.56769 55.1545401,142.459179 C55.1545401,136.471798 47.3330697,135.137745 44.5791359,139.863839 Z" id="Shape-Copy-5" fill="#FFFFFF" fill-rule="nonzero"></path>
                    <circle id="Oval-Copy-4" fill="url(#linearGradient-3)" fill-rule="nonzero" opacity="0.454710145" cx="147.667" cy="146.667" r="23.667"></circle>
                    <path d="M147.579136,139.863839 C144.802812,135.100429 137,136.492322 137,142.459179 C137,146.56769 141.910809,150.769491 147.579136,156.394905 C153.245597,150.769491 158.15454,146.56769 158.15454,142.459179 C158.15454,136.471798 150.33307,135.137745 147.579136,139.863839 Z" id="Shape-Copy-4" fill="#FFFFFF" fill-rule="nonzero"></path>
                    <circle id="Oval-Copy-3" fill="url(#linearGradient-3)" fill-rule="nonzero" opacity="0.454710145" cx="249.667" cy="146.667" r="23.667"></circle>
                    <path d="M249.579136,139.863839 C246.802812,135.100429 239,136.492322 239,142.459179 C239,146.56769 243.910809,150.769491 249.579136,156.394905 C255.245597,150.769491 260.15454,146.56769 260.15454,142.459179 C260.15454,136.471798 252.33307,135.137745 249.579136,139.863839 Z" id="Shape-Copy-3" fill="#FFFFFF" fill-rule="nonzero"></path>
                    <circle id="Oval-Copy-8" fill="url(#linearGradient-3)" fill-rule="nonzero" opacity="0.454710145" cx="44.667" cy="248.667" r="23.667"></circle>
                    <path d="M44.5791359,241.863839 C41.8028124,237.100429 34,238.492322 34,244.459179 C34,248.56769 38.9108088,252.769491 44.5791359,258.394905 C50.2455972,252.769491 55.1545401,248.56769 55.1545401,244.459179 C55.1545401,238.471798 47.3330697,237.137745 44.5791359,241.863839 Z" id="Shape-Copy-8" fill="#FFFFFF" fill-rule="nonzero"></path>
                    <circle id="Oval-Copy-7" fill="url(#linearGradient-3)" fill-rule="nonzero" opacity="0.454710145" cx="147.667" cy="248.667" r="23.667"></circle>
                    <path d="M147.579136,241.863839 C144.802812,237.100429 137,238.492322 137,244.459179 C137,248.56769 141.910809,252.769491 147.579136,258.394905 C153.245597,252.769491 158.15454,248.56769 158.15454,244.459179 C158.15454,238.471798 150.33307,237.137745 147.579136,241.863839 Z" id="Shape-Copy-7" fill="#FFFFFF" fill-rule="nonzero"></path>
                    <circle id="Oval-Copy-6" fill="url(#linearGradient-3)" fill-rule="nonzero" opacity="0.454710145" cx="249.667" cy="248.667" r="23.667"></circle>
                    <path d="M249.579136,241.863839 C246.802812,237.100429 239,238.492322 239,244.459179 C239,248.56769 243.910809,252.769491 249.579136,258.394905 C255.245597,252.769491 260.15454,248.56769 260.15454,244.459179 C260.15454,238.471798 252.33307,237.137745 249.579136,241.863839 Z" id="Shape-Copy-6" fill="#FFFFFF" fill-rule="nonzero"></path>
                </g>
                <g id="Group-Copy-3" transform="translate(22.000000, 40.000000)">
                    <g id="Oval" fill-rule="nonzero">
                        <use fill="black" fill-opacity="1" filter="url(#filter-5)" xlink:href="#path-4"></use>
                        <use fill="#535BFF" fill-rule="evenodd" xlink:href="#path-4"></use>
                    </g>
                    <path d="M27.3157936,25.2599645 C27.33372,25.2464487 27.3510772,25.2322214 27.3690035,25.218421 C27.3961775,25.2445991 27.4229248,25.2709195 27.4545092,25.2933986 C27.4653219,25.3012235 27.4132502,25.2881345 27.3157936,25.2599645 M20.4256827,25.2877077 C20.4534258,25.2680741 20.4764739,25.2444568 20.5008025,25.2218355 C20.5134647,25.2316523 20.5259847,25.2420382 20.5387892,25.2515705 C20.458263,25.2804518 20.4162927,25.2938254 20.4256827,25.2877077 M35.8786014,31.1587213 L35.8786014,31.1410795 C35.8786014,31.0939873 35.8727683,31.0467529 35.8727683,30.9941121 C35.8377692,29.8291855 35.7623649,27.1053801 33.2391635,26.2348152 C33.221664,26.2288397 33.1984736,26.2231488 33.1809741,26.2171734 C30.8987822,25.6283078 28.9519264,24.3935255 28.4703343,24.071563 C30.3198758,21.4857618 29.9869583,17.5596121 29.9485447,17.165233 C29.8031423,14.0294066 28.3381632,12.5295708 27.1288477,11.8294482 C26.2278364,11.3058857 25.1754474,11.0237595 24.0011308,11 L23.9022515,11 C23.2569038,11 21.9895411,11.1058507 20.7743924,11.8061155 C19.5535527,12.5058113 18.065241,14.0059317 17.9198385,17.165233 C17.881425,17.5597544 17.5485075,21.4874691 19.3993294,24.0732703 C18.9026564,24.4056187 16.9751497,25.6264583 14.6990755,26.2110557 C14.6758851,26.2171734 14.6585279,26.2231488 14.6410284,26.2288397 C12.117827,27.1053801 12.0422804,29.8291855 12.0074236,30.9879944 C12.0074236,31.0407775 12.0074236,31.0878696 12.0015905,31.1349618 L12.0015905,31.1527459 C11.9957573,31.4586316 11.9899241,33.0293191 12.2979439,33.817366 C12.3562756,33.9704511 12.4608458,34.1000613 12.6002728,34.1882702 C12.7746988,34.3057872 16.9548047,37 23.9487746,37 C30.9427444,37 35.1228503,34.2998118 35.2972763,34.1882702 C35.4310124,34.1000613 35.5414158,33.9704511 35.5996052,33.817366 C35.8902678,33.03501 35.8844346,31.4643225 35.8786014,31.1587213" id="Fill-1" fill="#FFFFFF"></path>
                    <rect id="Rectangle-5" fill="#B4F8FF" x="62" y="7" width="161" height="12" rx="6"></rect>
                    <rect id="Rectangle-5-Copy" fill="#D5E5E7" x="62" y="27" width="103" height="10" rx="5"></rect>
                </g>
            </g>
        </g>
    </g>
</svg>