<?xml version="1.0" encoding="utf-8"?>
<!-- Generator: Adobe Illustrator 16.0.0, SVG Export Plug-In . SVG Version: 6.00 Build 0)  -->
<!DOCTYPE svg PUBLIC "-//W3C//DTD SVG 1.1//EN" "http://www.w3.org/Graphics/SVG/1.1/DTD/svg11.dtd">
<svg version="1.1" id="Layer_1" xmlns="http://www.w3.org/2000/svg" xmlns:xlink="http://www.w3.org/1999/xlink" x="0px" y="0px"
	 width="385px" height="273px" viewBox="0 0 385 273" enable-background="new 0 0 385 273" xml:space="preserve">
<g>
	<path fill="#FFFFFF" d="M385,265.007c0,4.414-3.579,7.993-7.994,7.993H7.994C3.579,273,0,269.421,0,265.007V7.993
		C0,3.579,3.579,0,7.994,0h369.012C381.421,0,385,3.579,385,7.993V265.007z"/>
</g>
<g>
	<g>
		<path fill="#E0E0E0" d="M36.234,183.668c-0.409-0.409-0.614-0.99-0.614-1.743v-18.048c0-0.754,0.205-1.335,0.614-1.744
			c0.409-0.408,0.99-0.613,1.743-0.613h11.429c1.593,0,2.389,0.646,2.389,1.938c0,1.313-0.796,1.97-2.389,1.97h-8.878v5.327h8.233
			c1.592,0,2.389,0.656,2.389,1.969c0,1.292-0.797,1.938-2.389,1.938h-8.233v5.715h8.878c1.593,0,2.389,0.656,2.389,1.969
			c0,1.292-0.796,1.938-2.389,1.938H37.977C37.224,184.281,36.643,184.077,36.234,183.668z"/>
		<path fill="#E0E0E0" d="M68.551,169.704c0.925,1.109,1.388,2.782,1.388,5.021v7.458c0,0.71-0.221,1.271-0.662,1.679
			c-0.441,0.409-1.039,0.613-1.792,0.613s-1.345-0.204-1.775-0.613c-0.431-0.408-0.646-0.969-0.646-1.679v-7.232
			c0-1.075-0.199-1.861-0.597-2.356c-0.398-0.495-1.017-0.742-1.856-0.742c-1.012,0-1.824,0.322-2.438,0.968
			c-0.614,0.646-0.92,1.507-0.92,2.583v6.78c0,0.71-0.215,1.271-0.646,1.679c-0.431,0.409-1.022,0.613-1.776,0.613
			s-1.351-0.204-1.792-0.613c-0.441-0.408-0.662-0.969-0.662-1.679v-11.849c0-0.667,0.231-1.205,0.694-1.614
			c0.462-0.409,1.06-0.613,1.792-0.613c0.667,0,1.211,0.199,1.63,0.597c0.42,0.398,0.63,0.91,0.63,1.534v0.452
			c0.56-0.861,1.286-1.518,2.179-1.97c0.893-0.452,1.899-0.678,3.019-0.678C66.216,168.042,67.625,168.596,68.551,169.704z"/>
		<path fill="#E0E0E0" d="M89.101,168.735c0.441,0.42,0.662,0.975,0.662,1.663v12.172c0,2.561-0.743,4.498-2.228,5.812
			c-1.485,1.312-3.659,1.969-6.521,1.969c-2.411,0-4.391-0.431-5.94-1.291c-0.388-0.216-0.689-0.479-0.904-0.791
			c-0.215-0.312-0.323-0.662-0.323-1.049c0-0.539,0.129-0.98,0.387-1.324c0.258-0.345,0.603-0.517,1.033-0.517
			c0.237,0,0.517,0.049,0.839,0.146c0.323,0.097,0.657,0.21,1.001,0.339c0.688,0.258,1.324,0.463,1.905,0.613
			c0.582,0.15,1.206,0.227,1.873,0.227c1.377,0,2.4-0.312,3.067-0.937c0.667-0.625,1.001-1.571,1.001-2.842v-1.743
			c-0.452,0.818-1.13,1.464-2.034,1.938s-1.916,0.71-3.035,0.71c-1.378,0-2.599-0.322-3.665-0.969
			c-1.065-0.646-1.9-1.565-2.502-2.76c-0.603-1.195-0.904-2.578-0.904-4.149c0-1.57,0.301-2.954,0.904-4.148
			c0.602-1.194,1.437-2.12,2.502-2.776s2.287-0.984,3.665-0.984c1.098,0,2.093,0.231,2.986,0.693
			c0.893,0.464,1.576,1.104,2.05,1.921v-0.322c0-0.688,0.22-1.232,0.662-1.631c0.441-0.397,1.028-0.597,1.76-0.597
			C88.073,168.106,88.659,168.316,89.101,168.735z M83.967,179.019c0.635-0.731,0.953-1.754,0.953-3.067
			c0-1.312-0.318-2.341-0.953-3.083c-0.635-0.742-1.523-1.114-2.664-1.114c-1.141,0-2.034,0.372-2.68,1.114
			s-0.969,1.771-0.969,3.083c0,1.313,0.323,2.336,0.969,3.067c0.646,0.732,1.539,1.098,2.68,1.098
			C82.444,180.116,83.332,179.751,83.967,179.019z"/>
		<path fill="#E0E0E0" d="M105.808,169.736c1.119,1.13,1.679,2.857,1.679,5.182v7.297c0,0.71-0.205,1.265-0.613,1.663
			c-0.409,0.398-0.979,0.597-1.711,0.597c-0.689,0-1.243-0.21-1.663-0.629c-0.42-0.42-0.63-0.963-0.63-1.631v-0.226
			c-0.323,0.796-0.861,1.42-1.614,1.872s-1.636,0.678-2.647,0.678c-1.077,0-2.05-0.215-2.922-0.646
			c-0.872-0.43-1.561-1.033-2.066-1.808c-0.506-0.775-0.758-1.636-0.758-2.583c0-1.162,0.295-2.077,0.888-2.744
			c0.592-0.667,1.544-1.151,2.857-1.453c1.312-0.301,3.11-0.452,5.392-0.452h0.839v-0.581c0-0.903-0.199-1.561-0.597-1.969
			c-0.398-0.409-1.061-0.614-1.986-0.614s-2.26,0.323-4.003,0.969c-0.495,0.237-0.915,0.355-1.259,0.355
			c-0.474,0-0.851-0.167-1.13-0.501c-0.28-0.333-0.419-0.769-0.419-1.308c0-0.43,0.097-0.785,0.291-1.065
			c0.194-0.279,0.505-0.537,0.936-0.774c0.753-0.408,1.673-0.731,2.761-0.969c1.086-0.236,2.157-0.354,3.212-0.354
			C102.967,168.042,104.689,168.606,105.808,169.736z M101.966,180.229c0.581-0.635,0.872-1.458,0.872-2.47v-0.549h-0.549
			c-1.744,0-2.965,0.14-3.665,0.42c-0.7,0.279-1.049,0.785-1.049,1.517c0,0.604,0.199,1.093,0.598,1.47
			c0.398,0.377,0.898,0.564,1.501,0.564C100.621,181.182,101.385,180.864,101.966,180.229z"/>
		<path fill="#E0E0E0" d="M126.648,168.735c0.441,0.42,0.662,0.975,0.662,1.663v12.172c0,2.561-0.743,4.498-2.228,5.812
			c-1.485,1.312-3.659,1.969-6.521,1.969c-2.411,0-4.391-0.431-5.94-1.291c-0.388-0.216-0.689-0.479-0.904-0.791
			c-0.215-0.312-0.323-0.662-0.323-1.049c0-0.539,0.129-0.98,0.387-1.324c0.258-0.345,0.603-0.517,1.033-0.517
			c0.237,0,0.517,0.049,0.839,0.146c0.323,0.097,0.657,0.21,1.001,0.339c0.688,0.258,1.324,0.463,1.905,0.613
			c0.582,0.15,1.206,0.227,1.873,0.227c1.377,0,2.4-0.312,3.067-0.937c0.667-0.625,1.001-1.571,1.001-2.842v-1.743
			c-0.452,0.818-1.13,1.464-2.034,1.938s-1.916,0.71-3.035,0.71c-1.378,0-2.599-0.322-3.665-0.969
			c-1.065-0.646-1.9-1.565-2.502-2.76c-0.603-1.195-0.904-2.578-0.904-4.149c0-1.57,0.301-2.954,0.904-4.148
			c0.602-1.194,1.437-2.12,2.502-2.776s2.287-0.984,3.665-0.984c1.098,0,2.093,0.231,2.986,0.693
			c0.893,0.464,1.576,1.104,2.05,1.921v-0.322c0-0.688,0.22-1.232,0.662-1.631c0.441-0.397,1.028-0.597,1.76-0.597
			C125.621,168.106,126.207,168.316,126.648,168.735z M121.515,179.019c0.635-0.731,0.953-1.754,0.953-3.067
			c0-1.312-0.318-2.341-0.953-3.083c-0.635-0.742-1.523-1.114-2.664-1.114c-1.141,0-2.034,0.372-2.68,1.114
			s-0.969,1.771-0.969,3.083c0,1.313,0.323,2.336,0.969,3.067c0.646,0.732,1.539,1.098,2.68,1.098
			C119.992,180.116,120.88,179.751,121.515,179.019z"/>
		<path fill="#E0E0E0" d="M144.825,180.084c0.269,0.345,0.403,0.786,0.403,1.324c0,0.366-0.108,0.705-0.323,1.017
			c-0.215,0.312-0.517,0.576-0.904,0.791c-0.732,0.388-1.582,0.705-2.551,0.952s-1.862,0.371-2.68,0.371
			c-1.722,0-3.224-0.333-4.504-1c-1.281-0.667-2.266-1.62-2.954-2.857c-0.689-1.237-1.033-2.696-1.033-4.375
			c0-1.614,0.333-3.046,1.001-4.294c0.667-1.248,1.593-2.223,2.776-2.922s2.529-1.049,4.036-1.049c1.442,0,2.707,0.317,3.794,0.952
			c1.086,0.635,1.932,1.539,2.534,2.712s0.904,2.546,0.904,4.116c0,0.474-0.113,0.835-0.339,1.082s-0.543,0.371-0.952,0.371h-9.04
			c0.15,1.271,0.538,2.19,1.162,2.761c0.624,0.57,1.518,0.855,2.68,0.855c0.624,0,1.184-0.075,1.679-0.227
			c0.495-0.15,1.043-0.354,1.646-0.613c0.301-0.129,0.592-0.242,0.872-0.339c0.279-0.097,0.527-0.146,0.743-0.146
			C144.206,179.567,144.556,179.74,144.825,180.084z M135.995,172.287c-0.56,0.592-0.894,1.448-1.001,2.566h6.231
			c-0.064-1.141-0.35-2.001-0.855-2.583c-0.506-0.581-1.222-0.871-2.147-0.871C137.297,171.399,136.554,171.695,135.995,172.287z"/>
		<path fill="#E0E0E0" d="M171.767,169.607c0.925,1.044,1.388,2.75,1.388,5.117v7.458c0,0.754-0.226,1.324-0.678,1.711
			c-0.452,0.388-1.033,0.581-1.744,0.581c-0.689,0-1.27-0.193-1.743-0.581c-0.474-0.387-0.71-0.957-0.71-1.711v-7.522
			c0-1.033-0.178-1.76-0.533-2.18c-0.355-0.419-0.899-0.629-1.63-0.629c-0.904,0-1.625,0.312-2.163,0.936
			c-0.538,0.625-0.807,1.497-0.807,2.615v6.78c0,0.754-0.226,1.324-0.678,1.711c-0.452,0.388-1.033,0.581-1.743,0.581
			c-0.689,0-1.271-0.193-1.744-0.581c-0.474-0.387-0.71-0.957-0.71-1.711v-7.522c0-1.033-0.178-1.76-0.533-2.18
			c-0.355-0.419-0.899-0.629-1.631-0.629c-0.904,0-1.625,0.312-2.163,0.936c-0.538,0.625-0.807,1.497-0.807,2.615v6.78
			c0,0.754-0.231,1.324-0.694,1.711c-0.463,0.388-1.039,0.581-1.728,0.581c-0.689,0-1.27-0.193-1.743-0.581
			c-0.474-0.387-0.71-0.957-0.71-1.711v-11.849c0-0.71,0.242-1.26,0.727-1.646c0.484-0.388,1.07-0.581,1.759-0.581
			c0.646,0,1.184,0.188,1.614,0.564c0.431,0.377,0.646,0.899,0.646,1.566v0.322c0.517-0.817,1.189-1.441,2.018-1.872
			s1.771-0.646,2.825-0.646c1.141,0,2.104,0.231,2.89,0.693c0.785,0.464,1.393,1.211,1.824,2.244c0.495-0.904,1.2-1.619,2.115-2.146
			c0.915-0.527,1.953-0.791,3.115-0.791C169.518,168.042,170.841,168.563,171.767,169.607z"/>
		<path fill="#E0E0E0" d="M190.605,180.084c0.269,0.345,0.403,0.786,0.403,1.324c0,0.366-0.108,0.705-0.323,1.017
			c-0.215,0.312-0.517,0.576-0.904,0.791c-0.732,0.388-1.582,0.705-2.551,0.952s-1.862,0.371-2.68,0.371
			c-1.722,0-3.224-0.333-4.504-1c-1.281-0.667-2.266-1.62-2.954-2.857c-0.689-1.237-1.033-2.696-1.033-4.375
			c0-1.614,0.333-3.046,1.001-4.294c0.667-1.248,1.593-2.223,2.776-2.922s2.529-1.049,4.036-1.049c1.442,0,2.707,0.317,3.794,0.952
			c1.086,0.635,1.932,1.539,2.534,2.712s0.904,2.546,0.904,4.116c0,0.474-0.113,0.835-0.339,1.082s-0.543,0.371-0.952,0.371h-9.04
			c0.15,1.271,0.538,2.19,1.162,2.761c0.624,0.57,1.518,0.855,2.68,0.855c0.624,0,1.184-0.075,1.679-0.227
			c0.495-0.15,1.043-0.354,1.646-0.613c0.301-0.129,0.592-0.242,0.872-0.339c0.279-0.097,0.527-0.146,0.743-0.146
			C189.986,179.567,190.336,179.74,190.605,180.084z M181.775,172.287c-0.56,0.592-0.894,1.448-1.001,2.566h6.231
			c-0.064-1.141-0.35-2.001-0.855-2.583c-0.506-0.581-1.222-0.871-2.147-0.871C183.077,171.399,182.334,171.695,181.775,172.287z"/>
		<path fill="#E0E0E0" d="M208.217,169.704c0.926,1.109,1.389,2.782,1.389,5.021v7.458c0,0.71-0.221,1.271-0.662,1.679
			c-0.441,0.409-1.039,0.613-1.792,0.613s-1.345-0.204-1.775-0.613c-0.431-0.408-0.646-0.969-0.646-1.679v-7.232
			c0-1.075-0.199-1.861-0.598-2.356s-1.018-0.742-1.856-0.742c-1.013,0-1.824,0.322-2.438,0.968
			c-0.614,0.646-0.921,1.507-0.921,2.583v6.78c0,0.71-0.215,1.271-0.645,1.679c-0.432,0.409-1.023,0.613-1.776,0.613
			s-1.351-0.204-1.792-0.613c-0.441-0.408-0.662-0.969-0.662-1.679v-11.849c0-0.667,0.231-1.205,0.695-1.614
			c0.462-0.409,1.059-0.613,1.791-0.613c0.667,0,1.211,0.199,1.631,0.597c0.42,0.398,0.629,0.91,0.629,1.534v0.452
			c0.561-0.861,1.286-1.518,2.18-1.97c0.893-0.452,1.899-0.678,3.019-0.678C205.881,168.042,207.291,168.596,208.217,169.704z"/>
		<path fill="#E0E0E0" d="M223.487,181.408c0.302,0.279,0.452,0.688,0.452,1.227c0,0.624-0.248,1.098-0.742,1.421
			c-0.496,0.322-1.206,0.451-2.131,0.387l-0.904-0.064c-3.768-0.301-5.65-2.271-5.65-5.908v-6.393h-1.291
			c-0.711,0-1.248-0.156-1.614-0.468c-0.366-0.312-0.549-0.759-0.549-1.34c0-0.603,0.183-1.061,0.549-1.372
			c0.366-0.312,0.903-0.469,1.614-0.469h1.291v-2.518c0-0.711,0.221-1.271,0.662-1.68c0.441-0.408,1.038-0.613,1.792-0.613
			c0.753,0,1.345,0.205,1.776,0.613c0.43,0.409,0.645,0.969,0.645,1.68v2.518h2.261c1.464,0,2.195,0.613,2.195,1.841
			c0,0.581-0.183,1.027-0.549,1.34c-0.366,0.312-0.915,0.468-1.646,0.468h-2.261v6.748c0,0.646,0.15,1.136,0.453,1.469
			c0.301,0.334,0.742,0.522,1.323,0.565l0.903,0.064C222.713,180.967,223.186,181.128,223.487,181.408z"/>
	</g>
</g>
<polyline fill="none" stroke="#B7EDB7" stroke-width="5.6693" stroke-linecap="round" stroke-linejoin="round" stroke-miterlimit="10" points="
	218.608,105.57 235.81,88.368 253.013,105.57 "/>
<g>
	<path fill="#E0E0E0" d="M95.527,229.021c0,1.356-0.797,2.034-2.389,2.034h-12.01c-0.667,0-1.2-0.199-1.598-0.598
		c-0.399-0.397-0.598-0.898-0.598-1.501c0-0.774,0.312-1.485,0.937-2.131l7.103-7.522c1.593-1.679,2.389-3.229,2.389-4.649
		c0-0.882-0.248-1.555-0.742-2.018c-0.496-0.463-1.216-0.694-2.163-0.694c-0.818,0-1.572,0.141-2.26,0.42
		c-0.689,0.28-1.485,0.689-2.389,1.227c-0.366,0.216-0.646,0.366-0.839,0.452s-0.42,0.129-0.678,0.129
		c-0.452,0-0.839-0.21-1.162-0.629c-0.323-0.42-0.484-0.909-0.484-1.47c0-0.408,0.07-0.747,0.21-1.017
		c0.14-0.269,0.371-0.511,0.694-0.727c0.968-0.71,2.082-1.275,3.341-1.695c1.259-0.419,2.523-0.629,3.793-0.629
		c1.528,0,2.868,0.258,4.02,0.774s2.039,1.254,2.664,2.212c0.624,0.958,0.937,2.062,0.937,3.31c0,1.312-0.274,2.529-0.823,3.647
		c-0.549,1.12-1.469,2.368-2.76,3.745l-5.069,5.327h7.491C94.73,227.02,95.527,227.688,95.527,229.021z"/>
	<path fill="#E0E0E0" d="M115.351,229.021c0,1.356-0.786,2.034-2.357,2.034h-11.042c-1.593,0-2.389-0.678-2.389-2.034
		c0-1.334,0.796-2.002,2.389-2.002h3.002v-13.204l-2.841,1.711c-0.323,0.193-0.646,0.29-0.968,0.29
		c-0.539,0-0.996-0.226-1.372-0.678c-0.377-0.452-0.565-0.957-0.565-1.518c0-0.753,0.333-1.323,1-1.711l5.101-3.067
		c0.753-0.452,1.506-0.678,2.26-0.678c0.71,0,1.292,0.221,1.743,0.662c0.452,0.441,0.678,1.038,0.678,1.792v16.4h3.002
		C114.565,227.02,115.351,227.688,115.351,229.021z"/>
	<path fill="#E0E0E0" d="M118.756,220.062c-1.044-1.194-1.566-2.933-1.566-5.214c0-2.217,0.527-3.923,1.582-5.118
		c1.055-1.194,2.497-1.791,4.327-1.791c1.851,0,3.298,0.597,4.342,1.791c1.043,1.195,1.566,2.912,1.566,5.15
		c0,2.281-0.522,4.015-1.566,5.197c-1.044,1.185-2.492,1.776-4.342,1.776C121.248,221.854,119.8,221.257,118.756,220.062z
		 M124.552,217.915c0.301-0.602,0.452-1.614,0.452-3.034c0-1.356-0.157-2.341-0.468-2.954c-0.312-0.614-0.791-0.921-1.437-0.921
		c-0.646,0-1.12,0.302-1.421,0.904c-0.302,0.603-0.452,1.593-0.452,2.971c0,1.399,0.15,2.405,0.452,3.019
		c0.301,0.613,0.775,0.92,1.421,0.92C123.766,218.819,124.25,218.519,124.552,217.915z M125.456,231.669
		c-0.452,0-0.845-0.167-1.178-0.5c-0.334-0.334-0.5-0.748-0.5-1.243c0-0.409,0.129-0.84,0.388-1.292l11.429-19.727
		c0.452-0.817,1.055-1.227,1.808-1.227c0.473,0,0.877,0.167,1.211,0.501c0.333,0.334,0.5,0.748,0.5,1.242
		c0,0.409-0.129,0.84-0.388,1.292l-11.429,19.727C126.801,231.26,126.187,231.669,125.456,231.669z M135.416,229.49
		c-1.044-1.195-1.566-2.933-1.566-5.215c0-2.238,0.521-3.949,1.566-5.133c1.043-1.184,2.491-1.776,4.342-1.776
		c1.829,0,3.271,0.598,4.326,1.792s1.582,2.911,1.582,5.149c0,2.261-0.522,3.987-1.566,5.183c-1.044,1.194-2.491,1.791-4.342,1.791
		C137.907,231.281,136.459,230.685,135.416,229.49z M141.211,227.343c0.301-0.603,0.452-1.614,0.452-3.035
		c0-1.377-0.156-2.373-0.468-2.986s-0.791-0.92-1.437-0.92s-1.125,0.307-1.437,0.92c-0.312,0.613-0.468,1.609-0.468,2.986
		c0,1.421,0.15,2.433,0.452,3.035c0.301,0.603,0.785,0.904,1.453,0.904C140.425,228.247,140.91,227.945,141.211,227.343z"/>
</g>
<line fill="none" stroke="#F2F2F2" stroke-miterlimit="10" x1="361" y1="135.5" x2="25" y2="135.5"/>
<path fill="#F25586" d="M51.646,210.402c-3.703-6.35-14.102-4.493-14.102,3.459c0,5.478,6.545,11.079,14.102,18.576
	c7.554-7.497,14.098-13.099,14.098-18.576C65.744,205.879,55.316,204.102,51.646,210.402z"/>
<g>
	<g>
		<path fill="#E0E0E0" d="M36.234,61.104c-0.409-0.409-0.614-0.99-0.614-1.743v-18.08c0-0.754,0.226-1.356,0.678-1.809
			s1.065-0.678,1.84-0.678s1.388,0.226,1.84,0.678s0.678,1.055,0.678,1.809v16.336h8.265c1.571,0,2.357,0.689,2.357,2.066
			c0,1.356-0.786,2.034-2.357,2.034H37.977C37.224,61.718,36.643,61.514,36.234,61.104z"/>
		<path fill="#E0E0E0" d="M53.829,42.298c-0.496-0.44-0.743-1.038-0.743-1.792c0-0.753,0.247-1.345,0.743-1.775
			c0.495-0.431,1.173-0.646,2.034-0.646c0.839,0,1.512,0.221,2.018,0.661c0.505,0.441,0.759,1.028,0.759,1.76
			c0,0.754-0.248,1.352-0.743,1.792c-0.496,0.441-1.173,0.662-2.034,0.662S54.324,42.739,53.829,42.298z M54.104,61.33
			c-0.463-0.387-0.694-0.957-0.694-1.711V47.835c0-0.753,0.237-1.324,0.71-1.711c0.473-0.388,1.054-0.581,1.743-0.581
			c0.688,0,1.264,0.193,1.728,0.581c0.462,0.387,0.694,0.958,0.694,1.711v11.784c0,0.754-0.231,1.324-0.694,1.711
			c-0.463,0.388-1.039,0.581-1.728,0.581C55.153,61.911,54.566,61.718,54.104,61.33z"/>
		<path fill="#E0E0E0" d="M77.721,59.555c0,0.603-0.221,1.141-0.662,1.614c-0.441,0.474-0.952,0.71-1.533,0.71
			c-0.56,0-1.077-0.226-1.55-0.678l-7.071-6.554v4.939c0,0.754-0.231,1.323-0.694,1.711c-0.463,0.388-1.039,0.581-1.728,0.581
			c-0.71,0-1.297-0.193-1.759-0.581c-0.463-0.388-0.694-0.957-0.694-1.711v-18.5c0-0.753,0.231-1.323,0.694-1.711
			c0.462-0.388,1.049-0.581,1.759-0.581c0.688,0,1.264,0.193,1.728,0.581c0.462,0.388,0.694,0.958,0.694,1.711v11.559l6.458-6.36
			c0.473-0.473,1-0.71,1.582-0.71c0.603,0,1.13,0.221,1.582,0.661c0.452,0.441,0.678,0.964,0.678,1.566
			c0,0.56-0.248,1.087-0.743,1.582l-4.294,4.101l4.811,4.455C77.473,58.414,77.721,58.952,77.721,59.555z"/>
		<path fill="#E0E0E0" d="M93.654,57.521c0.269,0.345,0.403,0.786,0.403,1.324c0,0.366-0.108,0.705-0.323,1.017
			c-0.215,0.312-0.517,0.576-0.904,0.791c-0.732,0.388-1.582,0.705-2.551,0.952s-1.862,0.371-2.68,0.371
			c-1.722,0-3.224-0.333-4.504-1c-1.281-0.667-2.266-1.62-2.954-2.857c-0.689-1.237-1.033-2.696-1.033-4.375
			c0-1.614,0.333-3.046,1.001-4.294c0.667-1.248,1.593-2.223,2.776-2.922s2.529-1.049,4.036-1.049c1.442,0,2.707,0.317,3.794,0.952
			c1.086,0.635,1.932,1.539,2.534,2.712s0.904,2.546,0.904,4.116c0,0.474-0.113,0.835-0.339,1.082s-0.543,0.371-0.952,0.371h-9.04
			c0.15,1.271,0.538,2.19,1.162,2.761c0.624,0.57,1.518,0.855,2.68,0.855c0.624,0,1.184-0.075,1.679-0.227
			c0.495-0.15,1.043-0.354,1.646-0.613c0.301-0.129,0.592-0.242,0.872-0.339c0.279-0.097,0.527-0.146,0.743-0.146
			C93.035,57.004,93.384,57.177,93.654,57.521z M84.824,49.724c-0.56,0.592-0.894,1.448-1.001,2.566h6.231
			c-0.064-1.141-0.35-2.001-0.855-2.583c-0.506-0.581-1.222-0.871-2.147-0.871C86.125,48.836,85.383,49.132,84.824,49.724z"/>
		<path fill="#E0E0E0" d="M99.675,61.653c-0.969-0.215-1.819-0.56-2.551-1.033c-0.323-0.193-0.57-0.452-0.743-0.775
			c-0.172-0.322-0.258-0.688-0.258-1.098c0-0.494,0.14-0.908,0.42-1.242c0.279-0.334,0.624-0.501,1.033-0.501
			c0.279,0,0.56,0.049,0.839,0.146c0.279,0.097,0.57,0.21,0.872,0.339c0.603,0.28,1.195,0.501,1.776,0.662s1.302,0.242,2.163,0.242
			c0.753,0,1.34-0.118,1.76-0.355c0.419-0.236,0.629-0.56,0.629-0.969c0-0.301-0.092-0.543-0.274-0.727
			c-0.183-0.183-0.522-0.35-1.017-0.5s-1.281-0.333-2.357-0.549c-1.916-0.366-3.293-0.915-4.132-1.646s-1.259-1.754-1.259-3.067
			c0-0.969,0.296-1.84,0.888-2.615c0.592-0.774,1.405-1.383,2.438-1.824c1.033-0.44,2.195-0.661,3.487-0.661
			c0.925,0,1.829,0.118,2.712,0.354c0.882,0.237,1.667,0.57,2.357,1.001c0.667,0.409,1,1.012,1,1.808
			c0,0.517-0.14,0.948-0.419,1.292c-0.28,0.345-0.625,0.517-1.033,0.517c-0.496,0-1.087-0.194-1.776-0.581
			c-0.538-0.279-1.028-0.489-1.469-0.63c-0.441-0.14-0.964-0.21-1.566-0.21c-0.667,0-1.195,0.124-1.582,0.371
			c-0.387,0.248-0.581,0.587-0.581,1.018c0,0.452,0.226,0.796,0.678,1.033c0.452,0.237,1.324,0.474,2.615,0.71
			c1.442,0.28,2.572,0.619,3.39,1.017c0.818,0.399,1.409,0.899,1.776,1.502c0.366,0.603,0.549,1.367,0.549,2.292
			c0,1.528-0.63,2.744-1.889,3.648c-1.259,0.904-2.944,1.355-5.053,1.355C101.784,61.976,100.643,61.868,99.675,61.653z"/>
	</g>
</g>
<g>
	<path fill="#E0E0E0" d="M92.882,106.445c0,1.356-0.797,2.034-2.389,2.034h-12.01c-0.667,0-1.2-0.199-1.598-0.598
		c-0.399-0.397-0.598-0.898-0.598-1.501c0-0.774,0.312-1.485,0.937-2.131l7.103-7.522c1.593-1.679,2.389-3.229,2.389-4.649
		c0-0.882-0.248-1.555-0.742-2.018c-0.496-0.463-1.216-0.694-2.163-0.694c-0.818,0-1.572,0.141-2.26,0.42
		c-0.689,0.28-1.485,0.689-2.389,1.227c-0.366,0.216-0.646,0.366-0.839,0.452s-0.42,0.129-0.678,0.129
		c-0.452,0-0.839-0.21-1.162-0.629c-0.323-0.42-0.484-0.909-0.484-1.47c0-0.408,0.07-0.747,0.21-1.017
		c0.14-0.269,0.371-0.511,0.694-0.727c0.968-0.71,2.082-1.275,3.341-1.695c1.259-0.419,2.523-0.629,3.793-0.629
		c1.528,0,2.868,0.258,4.02,0.774s2.039,1.254,2.664,2.212c0.624,0.958,0.937,2.062,0.937,3.31c0,1.312-0.274,2.529-0.823,3.647
		c-0.549,1.12-1.469,2.368-2.76,3.745l-5.069,5.327h7.491C92.085,104.443,92.882,105.111,92.882,106.445z"/>
	<path fill="#E0E0E0" d="M110.558,98.777c0.721,0.958,1.082,2.126,1.082,3.503c0,1.313-0.339,2.454-1.017,3.423
		c-0.678,0.969-1.652,1.717-2.922,2.244s-2.744,0.79-4.423,0.79c-1.399,0-2.739-0.204-4.02-0.613
		c-1.281-0.408-2.384-0.979-3.31-1.711c-0.323-0.236-0.554-0.495-0.694-0.774c-0.141-0.28-0.21-0.603-0.21-0.969
		c0-0.56,0.161-1.038,0.484-1.437c0.323-0.398,0.71-0.598,1.162-0.598c0.258,0,0.495,0.038,0.71,0.113
		c0.215,0.075,0.484,0.21,0.807,0.403c0.947,0.538,1.765,0.947,2.454,1.227c0.688,0.28,1.496,0.42,2.421,0.42
		c1.312,0,2.271-0.242,2.874-0.727c0.602-0.484,0.904-1.243,0.904-2.276c0-1.011-0.312-1.743-0.936-2.195
		c-0.625-0.452-1.625-0.678-3.003-0.678h-1.905c-0.56,0-1-0.193-1.324-0.581c-0.323-0.388-0.484-0.85-0.484-1.389
		c0-0.517,0.161-0.968,0.484-1.355c0.323-0.388,0.764-0.581,1.324-0.581h1.356c1.313,0,2.287-0.227,2.922-0.679
		c0.635-0.451,0.953-1.15,0.953-2.098c0-0.904-0.27-1.609-0.807-2.115c-0.538-0.506-1.292-0.759-2.26-0.759
		c-0.796,0-1.539,0.141-2.228,0.42c-0.689,0.28-1.485,0.689-2.389,1.227c-0.323,0.194-0.592,0.329-0.807,0.403
		c-0.215,0.076-0.452,0.113-0.71,0.113c-0.452,0-0.839-0.198-1.162-0.597S95.4,90.056,95.4,89.495c0-0.387,0.07-0.715,0.21-0.984
		c0.14-0.269,0.371-0.521,0.694-0.759c0.904-0.731,1.985-1.302,3.245-1.711c1.259-0.409,2.545-0.613,3.858-0.613
		c1.528,0,2.874,0.253,4.036,0.759c1.163,0.506,2.055,1.222,2.68,2.146c0.624,0.926,0.937,2.002,0.937,3.229
		c0,1.228-0.318,2.298-0.953,3.213s-1.512,1.577-2.631,1.985C108.809,97.147,109.837,97.82,110.558,98.777z"/>
	<path fill="#E0E0E0" d="M116.757,105.768c-1.453-2.002-2.18-4.896-2.18-8.685c0-3.767,0.727-6.651,2.18-8.653
		c1.453-2.001,3.556-3.002,6.312-3.002c2.755,0,4.859,1.001,6.312,3.002c1.453,2.002,2.179,4.887,2.179,8.653
		c0,3.788-0.727,6.683-2.179,8.685s-3.557,3.003-6.312,3.003C120.313,108.771,118.209,107.77,116.757,105.768z M125.797,103.056
		c0.57-1.248,0.855-3.239,0.855-5.973c0-2.755-0.286-4.746-0.855-5.974c-0.571-1.227-1.48-1.84-2.729-1.84
		c-1.249,0-2.158,0.619-2.728,1.856c-0.57,1.238-0.855,3.224-0.855,5.957s0.285,4.725,0.855,5.973s1.479,1.872,2.728,1.872
		C124.316,104.928,125.226,104.304,125.797,103.056z"/>
	<path fill="#E0E0E0" d="M150.317,106.316c0,0.603-0.221,1.141-0.662,1.614c-0.441,0.474-0.952,0.71-1.533,0.71
		c-0.56,0-1.077-0.226-1.55-0.678l-7.071-6.554v4.939c0,0.754-0.231,1.323-0.694,1.711c-0.463,0.388-1.039,0.581-1.728,0.581
		c-0.71,0-1.297-0.193-1.759-0.581c-0.463-0.388-0.694-0.957-0.694-1.711v-18.5c0-0.753,0.231-1.323,0.694-1.711
		c0.462-0.388,1.049-0.581,1.759-0.581c0.688,0,1.264,0.193,1.728,0.581c0.462,0.388,0.694,0.958,0.694,1.711v11.559l6.458-6.36
		c0.473-0.473,1-0.71,1.582-0.71c0.603,0,1.13,0.221,1.582,0.661c0.452,0.441,0.678,0.964,0.678,1.566
		c0,0.56-0.248,1.087-0.743,1.582l-4.294,4.101l4.811,4.455C150.07,105.176,150.317,105.714,150.317,106.316z"/>
</g>
<path fill="#F25586" d="M49,87.826c-3.703-6.35-14.102-4.493-14.102,3.459c0,5.478,6.545,11.079,14.102,18.576
	c7.554-7.497,14.098-13.099,14.098-18.576C63.098,83.303,52.671,81.525,49,87.826z"/>
<polyline fill="none" stroke="#B7EDB7" stroke-width="5.6693" stroke-linecap="round" stroke-linejoin="round" stroke-miterlimit="10" points="
	218.608,228.145 235.81,210.942 253.013,228.145 "/>
<g>
	<path fill="#E0E0E0" d="M285.341,229.021c0,1.356-0.786,2.034-2.357,2.034h-11.041c-1.594,0-2.39-0.678-2.39-2.034
		c0-1.334,0.796-2.002,2.39-2.002h3.002v-13.204l-2.841,1.711c-0.323,0.193-0.646,0.29-0.969,0.29c-0.538,0-0.996-0.226-1.372-0.678
		c-0.377-0.452-0.564-0.957-0.564-1.518c0-0.753,0.333-1.323,1-1.711l5.102-3.067c0.753-0.452,1.506-0.678,2.26-0.678
		c0.711,0,1.292,0.221,1.743,0.662c0.452,0.441,0.679,1.038,0.679,1.792v16.4h3.002C284.555,227.02,285.341,227.688,285.341,229.021
		z"/>
	<path fill="#E0E0E0" d="M300.838,217.254c1.098,0.613,1.947,1.469,2.55,2.566s0.904,2.368,0.904,3.81
		c0,1.507-0.355,2.841-1.065,4.004c-0.71,1.162-1.706,2.065-2.986,2.712c-1.281,0.646-2.761,0.968-4.439,0.968
		c-1.335,0-2.637-0.204-3.906-0.613c-1.271-0.408-2.368-0.979-3.293-1.711c-0.323-0.236-0.549-0.489-0.679-0.759
		c-0.129-0.269-0.193-0.597-0.193-0.984c0-0.56,0.156-1.038,0.468-1.437c0.312-0.398,0.694-0.598,1.146-0.598
		c0.258,0,0.495,0.038,0.71,0.113s0.495,0.21,0.84,0.403c0.86,0.517,1.646,0.92,2.356,1.211c0.711,0.29,1.485,0.436,2.325,0.436
		c1.312,0,2.309-0.301,2.986-0.904c0.678-0.602,1.017-1.495,1.017-2.68c0-1.118-0.35-2.001-1.049-2.647
		c-0.7-0.646-1.642-0.968-2.825-0.968c-0.732,0-1.399,0.092-2.002,0.274s-1.259,0.489-1.97,0.92
		c-0.451,0.258-0.903,0.388-1.355,0.388c-0.517,0-0.952-0.156-1.308-0.469c-0.355-0.312-0.533-0.727-0.533-1.243v-9.395
		c0-0.754,0.205-1.335,0.614-1.744c0.408-0.408,0.989-0.613,1.743-0.613h10.396c1.593,0,2.39,0.636,2.39,1.905
		c0,1.291-0.797,1.938-2.39,1.938h-7.845v5.068c1.033-0.581,2.249-0.872,3.648-0.872
		C298.491,216.333,299.739,216.64,300.838,217.254z"/>
	<path fill="#E0E0E0" d="M308.117,220.062c-1.044-1.194-1.565-2.933-1.565-5.214c0-2.217,0.527-3.923,1.582-5.118
		c1.055-1.194,2.496-1.791,4.326-1.791c1.851,0,3.298,0.597,4.343,1.791c1.043,1.195,1.565,2.912,1.565,5.15
		c0,2.281-0.522,4.015-1.565,5.197c-1.045,1.185-2.492,1.776-4.343,1.776C310.608,221.854,309.161,221.257,308.117,220.062z
		 M313.913,217.915c0.301-0.602,0.452-1.614,0.452-3.034c0-1.356-0.157-2.341-0.469-2.954c-0.312-0.614-0.791-0.921-1.437-0.921
		s-1.119,0.302-1.421,0.904s-0.451,1.593-0.451,2.971c0,1.399,0.149,2.405,0.451,3.019s0.775,0.92,1.421,0.92
		C313.127,218.819,313.611,218.519,313.913,217.915z M314.816,231.669c-0.451,0-0.845-0.167-1.178-0.5
		c-0.334-0.334-0.501-0.748-0.501-1.243c0-0.409,0.13-0.84,0.388-1.292l11.429-19.727c0.452-0.817,1.055-1.227,1.809-1.227
		c0.473,0,0.877,0.167,1.211,0.501c0.333,0.334,0.5,0.748,0.5,1.242c0,0.409-0.129,0.84-0.388,1.292l-11.429,19.727
		C316.162,231.26,315.548,231.669,314.816,231.669z M324.777,229.49c-1.045-1.195-1.566-2.933-1.566-5.215
		c0-2.238,0.521-3.949,1.566-5.133c1.043-1.184,2.49-1.776,4.342-1.776c1.829,0,3.271,0.598,4.326,1.792s1.582,2.911,1.582,5.149
		c0,2.261-0.521,3.987-1.565,5.183c-1.044,1.194-2.491,1.791-4.343,1.791S325.82,230.685,324.777,229.49z M330.572,227.343
		c0.301-0.603,0.452-1.614,0.452-3.035c0-1.377-0.156-2.373-0.469-2.986c-0.312-0.613-0.791-0.92-1.437-0.92
		s-1.125,0.307-1.437,0.92c-0.312,0.613-0.468,1.609-0.468,2.986c0,1.421,0.15,2.433,0.452,3.035
		c0.301,0.603,0.785,0.904,1.452,0.904S330.271,227.945,330.572,227.343z"/>
</g>
<g>
	<path fill="#E0E0E0" d="M285.341,106.445c0,1.356-0.786,2.034-2.357,2.034h-11.041c-1.594,0-2.39-0.678-2.39-2.034
		c0-1.334,0.796-2.002,2.39-2.002h3.002V91.239l-2.841,1.711c-0.323,0.193-0.646,0.29-0.969,0.29c-0.538,0-0.996-0.226-1.372-0.678
		c-0.377-0.452-0.564-0.957-0.564-1.518c0-0.753,0.333-1.323,1-1.711l5.102-3.067c0.753-0.452,1.506-0.678,2.26-0.678
		c0.711,0,1.292,0.221,1.743,0.662c0.452,0.441,0.679,1.038,0.679,1.792v16.4h3.002
		C284.555,104.443,285.341,105.111,285.341,106.445z"/>
	<path fill="#E0E0E0" d="M300.918,94.629c1.044,0.625,1.861,1.496,2.454,2.615c0.592,1.119,0.888,2.389,0.888,3.81
		c0,1.485-0.334,2.814-1.001,3.987c-0.667,1.174-1.593,2.088-2.776,2.744c-1.185,0.657-2.519,0.985-4.004,0.985
		c-2.949,0-5.229-0.979-6.844-2.938c-1.614-1.958-2.422-4.757-2.422-8.395c0-2.432,0.376-4.557,1.13-6.376
		c0.753-1.818,1.835-3.213,3.245-4.182c1.409-0.968,3.051-1.452,4.923-1.452c1.228,0,2.465,0.204,3.713,0.613
		s2.313,0.979,3.196,1.711c0.302,0.237,0.522,0.49,0.662,0.759c0.14,0.27,0.21,0.598,0.21,0.984c0,0.561-0.156,1.039-0.468,1.438
		c-0.312,0.398-0.694,0.597-1.146,0.597c-0.28,0-0.522-0.037-0.727-0.113c-0.205-0.074-0.479-0.209-0.823-0.403
		c-0.861-0.517-1.63-0.92-2.309-1.211c-0.678-0.29-1.372-0.436-2.082-0.436c-1.335,0-2.395,0.613-3.181,1.841
		c-0.785,1.227-1.232,2.948-1.34,5.165c0.495-0.817,1.195-1.469,2.099-1.953c0.904-0.484,1.916-0.727,3.035-0.727
		C298.685,93.692,299.874,94.005,300.918,94.629z M298.626,103.862c0.613-0.667,0.92-1.55,0.92-2.647
		c0-1.075-0.307-1.947-0.92-2.615c-0.613-0.666-1.426-1-2.438-1s-1.83,0.334-2.454,1c-0.624,0.668-0.937,1.54-0.937,2.615
		c0,1.077,0.312,1.954,0.937,2.632s1.442,1.017,2.454,1.017S298.013,104.53,298.626,103.862z"/>
	<path fill="#E0E0E0" d="M324.535,102.378c0,1.291-0.786,1.937-2.357,1.937h-1.194v1.841c0,0.818-0.226,1.442-0.678,1.872
		c-0.452,0.431-1.045,0.646-1.776,0.646s-1.323-0.215-1.775-0.646c-0.452-0.43-0.678-1.054-0.678-1.872v-1.841h-7.846
		c-0.667,0-1.194-0.198-1.582-0.597s-0.581-0.898-0.581-1.502c0-0.603,0.204-1.205,0.613-1.808l9.621-13.754
		c0.259-0.365,0.581-0.64,0.969-0.823c0.388-0.183,0.796-0.274,1.227-0.274c0.667,0,1.248,0.221,1.744,0.662
		c0.494,0.441,0.742,1.049,0.742,1.824v12.43h1.194C323.749,100.473,324.535,101.107,324.535,102.378z M311.137,100.473h4.939V93.37
		L311.137,100.473z"/>
	<path fill="#E0E0E0" d="M342.324,106.316c0,0.603-0.222,1.141-0.662,1.614c-0.441,0.474-0.952,0.71-1.533,0.71
		c-0.561,0-1.077-0.226-1.55-0.678l-7.071-6.554v4.939c0,0.754-0.231,1.323-0.693,1.711c-0.464,0.388-1.039,0.581-1.728,0.581
		c-0.71,0-1.297-0.193-1.76-0.581s-0.694-0.957-0.694-1.711v-18.5c0-0.753,0.231-1.323,0.694-1.711s1.05-0.581,1.76-0.581
		c0.688,0,1.264,0.193,1.728,0.581c0.462,0.388,0.693,0.958,0.693,1.711v11.559l6.458-6.36c0.473-0.473,1-0.71,1.581-0.71
		c0.603,0,1.131,0.221,1.582,0.661c0.452,0.441,0.679,0.964,0.679,1.566c0,0.56-0.248,1.087-0.743,1.582l-4.294,4.101l4.811,4.455
		C342.076,105.176,342.324,105.714,342.324,106.316z"/>
</g>
</svg>
