<?xml version="1.0" encoding="utf-8"?>
<!-- Generator: Adobe Illustrator 16.0.0, SVG Export Plug-In . SVG Version: 6.00 Build 0)  -->
<!DOCTYPE svg PUBLIC "-//W3C//DTD SVG 1.1//EN" "http://www.w3.org/Graphics/SVG/1.1/DTD/svg11.dtd">
<svg version="1.1" id="Layer_1" xmlns="http://www.w3.org/2000/svg" xmlns:xlink="http://www.w3.org/1999/xlink" x="0px" y="0px"
	 width="337px" height="479.659px" viewBox="0 0 337 479.659" enable-background="new 0 0 337 479.659" xml:space="preserve">
<g>
	<g>
		<path fill="#FFFFFF" d="M337,472.021c0,4.218-3.582,7.638-8,7.638H8c-4.418,0-8-3.42-8-7.638V8.011C0,3.793,3.582,0,8,0h321
			c4.418,0,8,3.793,8,8.011V472.021z"/>
	</g>
</g>
<path fill="#F2F2F2" d="M314,290.724c0,2.209-1.791,4-4,4H30c-2.209,0-4-1.791-4-4v-182c0-2.209,1.791-4,4-4h280
	c2.209,0,4,1.791,4,4V290.724z"/>
<path fill="#F2F2F2" d="M42.708,319.919c-4.519-7.748-17.21-5.483-17.21,4.222c0,6.685,7.988,13.521,17.21,22.67
	c9.219-9.149,17.205-15.985,17.205-22.67C59.913,314.399,47.188,312.23,42.708,319.919z"/>
<circle fill="#F2F2F2" cx="88.409" cy="331.64" r="15.604"/>
<circle fill="#F2F2F2" cx="130.334" cy="331.64" r="15.604"/>
<circle fill="#F2F2F2" cx="290.463" cy="330.864" r="15.603"/>
<path fill="#E2E2E2" d="M97,417.138c0,1.656-1.344,3-3,3H28c-1.656,0-3-1.344-3-3v-9c0-1.656,1.344-3,3-3h66c1.656,0,3,1.344,3,3
	V417.138z"/>
<path fill="#F2F2F2" d="M245.5,417.138c0,1.656-1.344,3-3,3h-137c-1.656,0-3-1.344-3-3v-9c0-1.656,1.344-3,3-3h137
	c1.656,0,3,1.344,3,3V417.138z"/>
<path fill="#F2F2F2" d="M85,439.138c0,1.656-1.344,3-3,3H28c-1.656,0-3-1.344-3-3v-9c0-1.656,1.344-3,3-3h54c1.656,0,3,1.344,3,3
	V439.138z"/>
<path fill="#F2F2F2" d="M150.833,439.138c0,1.656-1.344,3-3,3h-54c-1.656,0-3-1.344-3-3v-9c0-1.656,1.344-3,3-3h54
	c1.656,0,3,1.344,3,3V439.138z"/>
<circle fill="#E8D9FF" cx="50.062" cy="55.114" r="21.578"/>
<path fill="#F2F2F2" d="M161.5,57.952c0,1.962-1.591,3.553-3.553,3.553H97.053c-1.962,0-3.553-1.591-3.553-3.553v-5.895
	c0-1.962,1.591-3.553,3.553-3.553h60.895c1.962,0,3.553,1.591,3.553,3.553V57.952z"/>
<path fill="#F2F2F2" d="M211.5,57.952c0,1.962-1.591,3.553-3.553,3.553h-37.895c-1.962,0-3.553-1.591-3.553-3.553v-5.895
	c0-1.962,1.591-3.553,3.553-3.553h37.895c1.962,0,3.553,1.591,3.553,3.553V57.952z"/>
<g>
	<path fill="#C7A7F7" d="M40.447,382.263c0,0.907-0.552,1.361-1.655,1.361h-0.839v1.292c0,0.575-0.159,1.013-0.477,1.315
		s-0.733,0.453-1.247,0.453s-0.93-0.15-1.247-0.453s-0.477-0.74-0.477-1.315v-1.292h-5.511c-0.469,0-0.839-0.141-1.11-0.42
		c-0.272-0.279-0.408-0.631-0.408-1.055c0-0.423,0.144-0.847,0.431-1.27l6.758-9.66c0.182-0.258,0.408-0.45,0.68-0.579
		c0.272-0.128,0.56-0.192,0.862-0.192c0.469,0,0.877,0.154,1.225,0.465s0.521,0.736,0.521,1.281v8.73h0.839
		C39.896,380.925,40.447,381.371,40.447,382.263z M31.036,380.925h3.47v-4.988L31.036,380.925z"/>
	<path fill="#C7A7F7" d="M51.016,376.854c0.771,0.431,1.368,1.031,1.791,1.803s0.635,1.663,0.635,2.676
		c0,1.059-0.249,1.996-0.748,2.812s-1.198,1.451-2.098,1.904s-1.938,0.681-3.118,0.681c-0.938,0-1.852-0.144-2.744-0.431
		c-0.892-0.287-1.663-0.688-2.312-1.202c-0.228-0.167-0.386-0.344-0.477-0.533c-0.091-0.188-0.136-0.419-0.136-0.691
		c0-0.394,0.109-0.729,0.328-1.009c0.22-0.28,0.488-0.42,0.806-0.42c0.182,0,0.348,0.026,0.499,0.079
		c0.15,0.054,0.348,0.147,0.589,0.284c0.604,0.362,1.157,0.646,1.656,0.85c0.498,0.205,1.043,0.307,1.633,0.307
		c0.922,0,1.621-0.212,2.098-0.635c0.476-0.424,0.714-1.051,0.714-1.883c0-0.785-0.246-1.406-0.737-1.859s-1.152-0.68-1.984-0.68
		c-0.514,0-0.982,0.064-1.405,0.192c-0.424,0.128-0.885,0.344-1.384,0.646c-0.317,0.182-0.635,0.272-0.952,0.272
		c-0.363,0-0.669-0.109-0.919-0.329c-0.249-0.219-0.374-0.51-0.374-0.873v-6.599c0-0.528,0.144-0.937,0.431-1.225
		c0.287-0.287,0.695-0.431,1.225-0.431h7.303c1.118,0,1.678,0.445,1.678,1.338c0,0.907-0.56,1.36-1.678,1.36h-5.511v3.561
		c0.726-0.408,1.579-0.612,2.562-0.612C49.367,376.208,50.244,376.423,51.016,376.854z"/>
	<path fill="#C7A7F7" d="M66.412,379.734c0.499,0.673,0.748,1.493,0.748,2.46c0,1.422-0.544,2.533-1.633,3.334
		c-1.088,0.802-2.593,1.202-4.513,1.202s-3.424-0.4-4.513-1.202c-1.088-0.801-1.633-1.912-1.633-3.334
		c0-0.998,0.25-1.828,0.749-2.494c0.499-0.665,1.217-1.126,2.154-1.383c-0.786-0.303-1.398-0.771-1.837-1.406
		s-0.658-1.375-0.658-2.223c0-1.33,0.515-2.385,1.542-3.163c1.028-0.778,2.427-1.168,4.195-1.168c1.784,0,3.187,0.386,4.207,1.156
		s1.53,1.829,1.53,3.175c0,0.861-0.219,1.618-0.657,2.268c-0.438,0.65-1.043,1.104-1.814,1.361
		C65.202,378.589,65.913,379.062,66.412,379.734z M63.872,381.923c0-1.406-0.952-2.109-2.857-2.109
		c-1.904,0-2.856,0.703-2.856,2.109s0.952,2.109,2.856,2.109C62.92,384.032,63.872,383.329,63.872,381.923z M58.589,375.074
		c0,1.36,0.809,2.041,2.426,2.041c1.618,0,2.427-0.681,2.427-2.041c0-1.345-0.809-2.019-2.427-2.019
		C59.397,373.056,58.589,373.729,58.589,375.074z"/>
	<path fill="#C7A7F7" d="M72.149,383.431c0.363,0.432,0.545,1.055,0.545,1.871c0,1.572-0.567,2.947-1.701,4.127
		c-0.227,0.227-0.469,0.34-0.726,0.34c-0.258,0-0.48-0.087-0.669-0.26c-0.189-0.175-0.283-0.383-0.283-0.624
		c0-0.228,0.083-0.424,0.249-0.59c0.499-0.515,0.831-1.089,0.998-1.724c-0.515-0.045-0.93-0.234-1.247-0.566
		s-0.477-0.756-0.477-1.27c0-0.561,0.178-1.025,0.533-1.396c0.354-0.37,0.797-0.556,1.326-0.556
		C71.303,382.784,71.787,383,72.149,383.431z"/>
	<path fill="#C7A7F7" d="M85.336,379.734c0.506,0.673,0.76,1.493,0.76,2.46c0,0.923-0.238,1.725-0.715,2.404
		c-0.476,0.68-1.16,1.205-2.052,1.576c-0.893,0.371-1.928,0.556-3.106,0.556c-0.983,0-1.925-0.144-2.824-0.431
		s-1.674-0.688-2.324-1.202c-0.227-0.167-0.389-0.348-0.487-0.544c-0.099-0.197-0.147-0.424-0.147-0.681
		c0-0.394,0.113-0.729,0.34-1.009c0.228-0.28,0.499-0.42,0.816-0.42c0.182,0,0.348,0.026,0.499,0.079
		c0.151,0.054,0.341,0.147,0.567,0.284c0.665,0.377,1.239,0.665,1.724,0.861c0.483,0.197,1.05,0.295,1.7,0.295
		c0.922,0,1.595-0.17,2.019-0.51c0.423-0.341,0.635-0.873,0.635-1.6c0-0.711-0.219-1.225-0.657-1.542s-1.142-0.476-2.109-0.476
		h-1.338c-0.394,0-0.703-0.137-0.93-0.408c-0.227-0.272-0.34-0.598-0.34-0.976c0-0.362,0.113-0.681,0.34-0.952
		c0.227-0.272,0.536-0.408,0.93-0.408h0.952c0.922,0,1.606-0.159,2.053-0.477c0.445-0.317,0.669-0.809,0.669-1.475
		c0-0.635-0.189-1.129-0.567-1.484s-0.906-0.533-1.587-0.533c-0.56,0-1.081,0.099-1.564,0.295c-0.484,0.196-1.044,0.484-1.679,0.861
		c-0.227,0.137-0.416,0.23-0.566,0.283c-0.151,0.054-0.317,0.08-0.499,0.08c-0.317,0-0.59-0.14-0.816-0.42
		c-0.227-0.279-0.34-0.615-0.34-1.009c0-0.272,0.049-0.503,0.146-0.692c0.099-0.188,0.262-0.365,0.488-0.532
		c0.635-0.515,1.395-0.915,2.278-1.202c0.885-0.287,1.788-0.431,2.71-0.431c1.073,0,2.019,0.178,2.835,0.532
		c0.816,0.355,1.443,0.859,1.882,1.509s0.658,1.405,0.658,2.268s-0.224,1.614-0.669,2.257c-0.446,0.643-1.062,1.107-1.849,1.395
		C84.107,378.589,84.829,379.062,85.336,379.734z"/>
	<path fill="#C7A7F7" d="M89.69,384.644c-1.021-1.406-1.531-3.439-1.531-6.1c0-2.646,0.511-4.672,1.531-6.078
		c1.021-1.405,2.498-2.108,4.433-2.108c1.936,0,3.413,0.703,4.434,2.108c1.021,1.406,1.531,3.433,1.531,6.078
		c0,2.66-0.511,4.693-1.531,6.1s-2.498,2.109-4.434,2.109C92.188,386.753,90.711,386.05,89.69,384.644z M96.04,382.739
		c0.4-0.877,0.601-2.275,0.601-4.195c0-1.936-0.2-3.334-0.601-4.195c-0.401-0.861-1.04-1.293-1.917-1.293s-1.516,0.436-1.916,1.305
		s-0.601,2.264-0.601,4.184s0.2,3.318,0.601,4.195s1.039,1.314,1.916,1.314S95.639,383.616,96.04,382.739z"/>
	<path fill="#C7A7F7" d="M111.336,376.854c0.771,0.431,1.368,1.031,1.791,1.803s0.635,1.663,0.635,2.676
		c0,1.059-0.249,1.996-0.748,2.812s-1.198,1.451-2.098,1.904s-1.938,0.681-3.118,0.681c-0.938,0-1.852-0.144-2.744-0.431
		c-0.892-0.287-1.663-0.688-2.312-1.202c-0.228-0.167-0.386-0.344-0.477-0.533c-0.091-0.188-0.136-0.419-0.136-0.691
		c0-0.394,0.109-0.729,0.328-1.009c0.22-0.28,0.488-0.42,0.806-0.42c0.182,0,0.348,0.026,0.499,0.079
		c0.15,0.054,0.348,0.147,0.589,0.284c0.604,0.362,1.157,0.646,1.656,0.85c0.498,0.205,1.043,0.307,1.633,0.307
		c0.922,0,1.621-0.212,2.098-0.635c0.476-0.424,0.714-1.051,0.714-1.883c0-0.785-0.246-1.406-0.737-1.859s-1.152-0.68-1.984-0.68
		c-0.514,0-0.982,0.064-1.405,0.192c-0.424,0.128-0.885,0.344-1.384,0.646c-0.317,0.182-0.635,0.272-0.952,0.272
		c-0.363,0-0.669-0.109-0.919-0.329c-0.249-0.219-0.374-0.51-0.374-0.873v-6.599c0-0.528,0.144-0.937,0.431-1.225
		c0.287-0.287,0.695-0.431,1.225-0.431h7.303c1.118,0,1.678,0.445,1.678,1.338c0,0.907-0.56,1.36-1.678,1.36h-5.511v3.561
		c0.726-0.408,1.579-0.612,2.562-0.612C109.688,376.208,110.564,376.423,111.336,376.854z"/>
	<path fill="#C7A7F7" d="M130.372,375.448c0.25-0.158,0.518-0.238,0.806-0.238c0.423,0,0.801,0.141,1.134,0.42
		c0.332,0.279,0.499,0.616,0.499,1.009c0,0.228-0.054,0.446-0.159,0.657l-4.082,8.369c-0.151,0.332-0.378,0.586-0.68,0.76
		c-0.303,0.173-0.628,0.26-0.976,0.26s-0.673-0.087-0.975-0.26c-0.303-0.174-0.537-0.428-0.703-0.76l-4.082-8.369
		c-0.091-0.211-0.136-0.415-0.136-0.611c0-0.408,0.177-0.756,0.532-1.043s0.752-0.432,1.19-0.432c0.317,0,0.604,0.08,0.862,0.238
		c0.257,0.158,0.461,0.396,0.612,0.715l2.789,6.1l2.767-6.1C129.923,375.845,130.123,375.606,130.372,375.448z"/>
	<path fill="#C7A7F7" d="M134.579,372.909c-0.349-0.311-0.521-0.73-0.521-1.26c0-0.528,0.173-0.944,0.521-1.246
		c0.348-0.303,0.823-0.454,1.429-0.454c0.589,0,1.062,0.155,1.417,0.465s0.533,0.722,0.533,1.235c0,0.529-0.174,0.949-0.521,1.26
		c-0.349,0.31-0.824,0.465-1.429,0.465C135.402,373.374,134.927,373.219,134.579,372.909z M134.771,386.276
		c-0.325-0.271-0.487-0.672-0.487-1.201v-8.277c0-0.529,0.166-0.93,0.499-1.202c0.332-0.272,0.74-0.408,1.225-0.408
		c0.483,0,0.888,0.136,1.213,0.408s0.487,0.673,0.487,1.202v8.277c0,0.529-0.162,0.93-0.487,1.201
		c-0.325,0.272-0.729,0.408-1.213,0.408C135.509,386.685,135.097,386.549,134.771,386.276z"/>
	<path fill="#C7A7F7" d="M150.011,383.601c0.188,0.242,0.283,0.553,0.283,0.93c0,0.258-0.076,0.496-0.227,0.715
		c-0.151,0.219-0.363,0.404-0.635,0.555c-0.515,0.273-1.111,0.496-1.792,0.67s-1.308,0.261-1.882,0.261
		c-1.21,0-2.265-0.234-3.164-0.703s-1.591-1.138-2.074-2.007c-0.484-0.869-0.726-1.894-0.726-3.072c0-1.135,0.233-2.14,0.702-3.017
		s1.119-1.562,1.95-2.052c0.832-0.492,1.776-0.738,2.835-0.738c1.013,0,1.901,0.224,2.665,0.67c0.763,0.445,1.356,1.08,1.78,1.904
		c0.423,0.824,0.635,1.788,0.635,2.892c0,0.333-0.08,0.586-0.238,0.76c-0.159,0.174-0.382,0.261-0.669,0.261h-6.35
		c0.105,0.893,0.378,1.539,0.816,1.939s1.065,0.601,1.882,0.601c0.438,0,0.831-0.054,1.18-0.159
		c0.348-0.105,0.732-0.249,1.156-0.431c0.212-0.091,0.416-0.17,0.612-0.238c0.196-0.067,0.37-0.103,0.521-0.103
		C149.576,383.237,149.821,383.359,150.011,383.601z M143.809,378.124c-0.394,0.416-0.628,1.018-0.703,1.803h4.377
		c-0.046-0.801-0.246-1.406-0.602-1.814s-0.858-0.611-1.508-0.611C144.723,377.501,144.201,377.708,143.809,378.124z"/>
	<path fill="#C7A7F7" d="M167.733,375.46c0.241-0.166,0.498-0.25,0.771-0.25c0.423,0,0.801,0.145,1.134,0.432
		c0.332,0.287,0.499,0.643,0.499,1.065c0,0.181-0.045,0.386-0.136,0.612l-3.72,8.346c-0.136,0.332-0.355,0.586-0.657,0.76
		c-0.303,0.173-0.62,0.26-0.952,0.26c-0.349,0-0.669-0.087-0.964-0.26c-0.295-0.174-0.511-0.428-0.646-0.76l-2.427-5.647
		l-2.336,5.647c-0.136,0.332-0.348,0.586-0.635,0.76c-0.287,0.173-0.612,0.26-0.975,0.26c-0.349,0-0.673-0.087-0.976-0.26
		c-0.303-0.174-0.521-0.428-0.657-0.76l-3.696-8.346c-0.091-0.211-0.137-0.416-0.137-0.612c0-0.423,0.178-0.778,0.533-1.065
		s0.76-0.432,1.213-0.432c0.303,0,0.579,0.084,0.828,0.25s0.442,0.408,0.578,0.726l2.427,6.101l2.472-6.055
		c0.136-0.318,0.336-0.564,0.601-0.738c0.265-0.173,0.556-0.26,0.873-0.26s0.612,0.083,0.885,0.249
		c0.272,0.167,0.477,0.416,0.612,0.749l2.518,6.055l2.403-6.101C167.302,375.868,167.491,375.626,167.733,375.46z"/>
	<path fill="#C7A7F7" d="M173.471,386.503c-0.681-0.15-1.278-0.393-1.792-0.725c-0.227-0.137-0.4-0.318-0.521-0.545
		s-0.182-0.483-0.182-0.771c0-0.348,0.099-0.638,0.295-0.873c0.196-0.233,0.438-0.352,0.726-0.352c0.196,0,0.394,0.035,0.59,0.103
		c0.196,0.068,0.4,0.147,0.612,0.238c0.423,0.196,0.839,0.352,1.247,0.465s0.915,0.17,1.52,0.17c0.529,0,0.941-0.083,1.235-0.249
		c0.295-0.166,0.442-0.393,0.442-0.681c0-0.212-0.064-0.382-0.192-0.511c-0.129-0.127-0.367-0.245-0.715-0.352
		c-0.348-0.105-0.899-0.233-1.655-0.385c-1.346-0.257-2.312-0.643-2.902-1.156s-0.885-1.232-0.885-2.154
		c0-0.681,0.208-1.293,0.624-1.838c0.415-0.543,0.986-0.971,1.712-1.281c0.726-0.309,1.542-0.465,2.449-0.465
		c0.649,0,1.285,0.084,1.905,0.25c0.619,0.166,1.171,0.4,1.655,0.703c0.468,0.287,0.703,0.711,0.703,1.27
		c0,0.363-0.099,0.666-0.295,0.907c-0.197,0.242-0.438,0.362-0.726,0.362c-0.349,0-0.764-0.135-1.247-0.408
		c-0.379-0.195-0.723-0.343-1.032-0.441c-0.311-0.098-0.677-0.147-1.1-0.147c-0.469,0-0.84,0.087-1.111,0.261
		c-0.272,0.174-0.408,0.412-0.408,0.715c0,0.316,0.158,0.559,0.477,0.725c0.317,0.167,0.93,0.334,1.836,0.5
		c1.013,0.196,1.807,0.434,2.382,0.714c0.574,0.28,0.989,0.632,1.247,1.054c0.257,0.424,0.386,0.961,0.386,1.611
		c0,1.073-0.442,1.928-1.327,2.562c-0.884,0.635-2.067,0.952-3.549,0.952C174.952,386.73,174.15,386.654,173.471,386.503z"/>
</g>
<path fill="#F2F2F2" d="M211,439.138c0,1.656-1.344,3-3,3h-49.167c-1.656,0-3-1.344-3-3v-9c0-1.656,1.344-3,3-3H208
	c1.656,0,3,1.344,3,3V439.138z"/>
<circle fill="#E2E2E2" cx="49.908" cy="271.639" r="10.929"/>
</svg>
