<?xml version="1.0" encoding="UTF-8"?>
<svg width="188px" height="49px" viewBox="0 0 188 49" version="1.1" xmlns="http://www.w3.org/2000/svg" xmlns:xlink="http://www.w3.org/1999/xlink">
    <!-- Generator: Sketch 49.3 (51167) - http://www.bohemiancoding.com/sketch -->
    <title>Group 2</title>
    <desc>Created with Sketch.</desc>
    <defs></defs>
    <g id="Page-1" stroke="none" stroke-width="1" fill="none" fill-rule="evenodd">
        <g id="Logo" transform="translate(-59.000000, -36.000000)" fill="#FFFFFF">
            <g id="Group" transform="translate(59.000000, 35.000000)">
                <g id="Group-2">
                    <path d="M0.5,49 L0.5,14 L6.5,14 L6.5,49 L0.5,49 Z M13.25,24 L17.5,24 L18.25,25.5 L18.5,25.5 C19.900007,24.16666 21.8166545,23.5 24.25,23.5 C26.650012,23.5 28.5416598,24.0833275 29.925,25.25 C31.3083403,26.4166725 32,28.499985 32,31.5 L32,49 L26,49 L26,31.5 C26,29.899992 25.6250038,28.7500035 24.875,28.05 C24.1249962,27.3499965 23.1666725,27 22,27 C21.4333305,27 20.9000025,27.099999 20.4,27.3 C19.8999975,27.500001 19.516668,27.733332 19.25,28 L19.25,49 L13.25,49 L13.25,24 Z M40.25,49.2 C39.0833275,48.999999 38.0833375,48.766668 37.25,48.5 L37.25,46 L42.75,46 C44.683343,46 46.1249952,45.7250027 47.075,45.175 C48.0250047,44.6249972 48.5,43.7333395 48.5,42.5 C48.5,41.4666615 48.1166705,40.6666695 47.35,40.1 C46.5833295,39.5333305 45.366675,38.883337 43.7,38.15 C42.233326,37.549997 41.033338,36.9750027 40.1,36.425 C39.166662,35.8749972 38.3750032,35.1166715 37.725,34.15 C37.0749967,33.1833285 36.75,31.966674 36.75,30.5 C36.75,27.8666535 37.5416588,26.0416717 39.125,25.025 C40.7083412,24.0083282 43.16665,23.5 46.5,23.5 C47.6666725,23.5 48.8333275,23.599999 50,23.8 C51.1666725,24.000001 52.1666625,24.233332 53,24.5 L53,27 L47.5,27 C46.0666595,27 44.916671,27.2583308 44.05,27.775 C43.183329,28.2916692 42.75,29.0333285 42.75,30 C42.75,31.0333385 43.1333295,31.8333305 43.9,32.4 C44.6666705,32.9666695 45.883325,33.616663 47.55,34.35 C49.016674,34.950003 50.216662,35.5249973 51.15,36.075 C52.083338,36.6250028 52.8749968,37.3833285 53.525,38.35 C54.1750033,39.3166715 54.5,40.533326 54.5,42 C54.5,43.9666765 54.1166705,45.4916612 53.35,46.575 C52.5833295,47.6583387 51.4250077,48.4166645 49.875,48.85 C48.3249923,49.2833355 46.283346,49.5 43.75,49.5 C42.5833275,49.5 41.4166725,49.400001 40.25,49.2 Z M61.8,47.675 C60.4333265,46.4583273 59.75,44.2333495 59.75,41 L59.75,28.25 L57,28.25 L57,24.5 L59.75,24.5 L59.75,18.5 L65.75,18.5 L65.75,24.5 L72.5,24.5 L72.5,27.25 C71.6666625,27.516668 70.6666725,27.749999 69.5,27.95 C68.3333275,28.150001 67.1666725,28.25 66,28.25 L65.75,28.25 L65.75,41 C65.75,42.800009 66.0666635,44.0833295 66.7,44.85 C67.3333365,45.6166705 68.0999955,46 69,46 L73.5,46 L73.5,48.5 C72.8666635,48.766668 71.950006,48.999999 70.75,49.2 C69.549994,49.400001 68.4666715,49.5 67.5,49.5 C65.0666545,49.5 63.1666735,48.8916727 61.8,47.675 Z M77.825,47.75 C76.4416597,46.5833275 75.75,44.500015 75.75,41.5 C75.75,38.4666515 76.4666595,36.3750058 77.9,35.225 C79.3333405,34.0749943 81.3666535,33.5 84,33.5 C85.1666725,33.5 86.583325,33.666665 88.25,34 L88.25,32 C88.25,30.0999905 87.816671,28.7916702 86.95,28.075 C86.083329,27.3583297 84.7666755,27 83,27 L78,27 L78,24.5 C78.800004,24.233332 79.766661,24.000001 80.9,23.8 C82.033339,23.599999 83.066662,23.5 84,23.5 C86.400012,23.5 88.333326,23.733331 89.8,24.2 C91.266674,24.666669 92.3749962,25.5166605 93.125,26.75 C93.8750038,27.9833395 94.25,29.733322 94.25,32 L94.25,49 L90,49 L89.25,47.5 L89,47.5 C87.599993,48.83334 85.766678,49.5 83.5,49.5 C81.099988,49.5 79.2083402,48.9166725 77.825,47.75 Z M87.125,45.7 C87.6083358,45.499999 87.983332,45.266668 88.25,45 L88.25,37 L85.5,37 C84.4666615,37 83.583337,37.3499965 82.85,38.05 C82.116663,38.7500035 81.75,39.899992 81.75,41.5 C81.75,43.100008 82.116663,44.2499965 82.85,44.95 C83.583337,45.6500035 84.4666615,46 85.5,46 C86.100003,46 86.6416642,45.900001 87.125,45.7 Z M103.25,49 L98.25,24 L104.25,24 L107.3,41.5 L107.5,41.5 L111.5,29 L116,29 L120,41.5 L120.2,41.5 L123.25,24 L129.25,24 L124.25,49 L117.75,49 L113.85,36.75 L113.65,36.75 L109.75,49 L103.25,49 Z M133.5,14 L139.5,14 L139.5,25 C140.766673,23.999995 142.433323,23.5 144.5,23.5 C146.900012,23.5 148.79166,24.0833275 150.175,25.25 C151.55834,26.4166725 152.25,28.499985 152.25,31.5 L152.25,49 L146.25,49 L146.25,31.5 C146.25,29.899992 145.875004,28.7500035 145.125,28.05 C144.374996,27.3499965 143.416673,27 142.25,27 C141.683331,27 141.150003,27.099999 140.65,27.3 C140.149998,27.500001 139.766668,27.733332 139.5,28 L139.5,49 L133.5,49 L133.5,14 Z M159,21 L159,15 L165,15 L165,21 L159,21 Z M159,49 L159,24 L165,24 L165,49 L159,49 Z M169.5,49 L169.5,45.5 L180.5,27.75 L170,27.75 L170,24 L187.5,24 L187.5,27.5 L176.5,45.25 L187.25,45.25 L187.25,49 L169.5,49 Z" id="Instawhiz"></path>
                    <polygon id="energy" points="118.594 1.817 111.027 1.817 108 12.715 111.031 12.715 108.453 22 109.363 22 118.141 11.102 113.695 11.102"></polygon>
                </g>
            </g>
        </g>
    </g>
</svg>