<?xml version="1.0" encoding="UTF-8"?>
<svg width="295px" height="169px" viewBox="0 0 295 169" version="1.1" xmlns="http://www.w3.org/2000/svg" xmlns:xlink="http://www.w3.org/1999/xlink">
    <!-- Generator: Sketch 49.3 (51167) - http://www.bohemiancoding.com/sketch -->
    <title>Low Price Copy@2x</title>
    <desc>Created with Sketch.</desc>
    <defs>
        <rect id="path-1" x="0" y="0" width="199" height="73" rx="10"></rect>
        <filter x="-46.2%" y="-71.2%" width="192.5%" height="352.1%" filterUnits="objectBoundingBox" id="filter-2">
            <feOffset dx="0" dy="40" in="SourceAlpha" result="shadowOffsetOuter1"></feOffset>
            <feGaussianBlur stdDeviation="24" in="shadowOffsetOuter1" result="shadowBlurOuter1"></feGaussianBlur>
            <feColorMatrix values="0 0 0 0 0   0 0 0 0 0   0 0 0 0 0  0 0 0 0.1 0" type="matrix" in="shadowBlurOuter1"></feColorMatrix>
        </filter>
    </defs>
    <g id="Page-1" stroke="none" stroke-width="1" fill="none" fill-rule="evenodd">
        <g id="BUY-INSTAGRAM-LIKES-Copy" transform="translate(-816.000000, -687.000000)">
            <g id="Group-3-Copy-2" transform="translate(864.000000, 487.000000)">
                <g id="Low-Price-Copy" transform="translate(0.000000, 208.000000)">
                    <g id="Rectangle-6">
                        <use fill="black" fill-opacity="1" filter="url(#filter-2)" xlink:href="#path-1"></use>
                        <use fill="#FFFFFF" fill-rule="evenodd" xlink:href="#path-1"></use>
                    </g>
                    <text id="Support" font-family="Ubuntu-Bold, Ubuntu" font-size="14" font-weight="bold" fill="#B4C2C4">
                        <tspan x="69" y="43">Support</tspan>
                    </text>
                    <g id="Page-1" transform="translate(18.000000, 21.000000)" fill="#4DECB2">
                        <path d="M6.28565406,7.13819661 C6.28565406,6.69525211 6.6637054,6.34241952 7.13862848,6.34241952 L14.8761004,6.34241952 C15.3507089,6.34241952 15.7287603,6.69525211 15.7287603,7.13819661 C15.7287603,7.58114111 15.3507089,7.93397369 14.8761004,7.93397369 L7.13862848,7.93397369 C6.6637054,7.93397369 6.28565406,7.58114111 6.28565406,7.13819661 Z M19.9140592,12.6892812 L7.13296714,12.6892812 C6.66118925,12.6892812 6.28565406,12.338987 6.28565406,11.8982635 C6.28565406,11.4578574 6.66118925,11.1072459 7.13296714,11.1072459 L19.9140592,11.1072459 C20.385837,11.1072459 20.7610577,11.4578574 20.7610577,11.8982635 C20.8091791,12.338987 20.385837,12.6892812 19.9140592,12.6892812 Z M32.7637162,22.4055036 C32.7637162,22.8760528 32.5501581,23.1632053 32.0808964,23.1632053 L19.1856341,23.1632053 C18.7163724,23.1632053 18.3093853,22.8760528 18.3093853,22.4055036 C18.3093853,21.9346371 18.7163724,21.5767278 19.1856341,21.5767278 L32.0808964,21.5767278 C32.5460694,21.572603 32.7637162,21.9346371 32.7637162,22.4055036 Z M37.2701386,25.9836449 C37.2701386,26.877149 36.566246,27.5831314 35.6755293,27.5831314 L33.232978,27.5831314 C32.9505403,27.5831314 32.7159094,27.7227414 32.5290853,27.9143879 L30.5083034,30.778297 L28.4003998,27.9143879 C28.2613826,27.6789547 27.9603883,27.6053421 27.6776361,27.6053421 L15.411411,27.6053421 C14.5206943,27.6053421 13.838818,26.9126861 13.838818,26.0188647 L13.838818,18.7210684 L23.5888944,18.7210684 C24.2452947,18.7210684 24.8803077,18.7359813 25.392973,18.4044075 L32.0808964,18.4037729 C33.301543,18.4037729 33.2788977,16.8172955 32.0808964,16.8172955 L26.7340803,16.8172955 L26.7340803,12.0581805 L35.5406009,12.0581805 C36.431632,12.0581805 37.4277124,12.7508365 37.4277124,13.6443406 L37.4277124,26.0188647 L37.2701386,25.9836449 Z M11.2210798,17.1799642 C10.9386421,17.1799642 10.7040112,17.319257 10.5171872,17.5112207 L8.45268715,20.2396446 L6.38850164,17.5112207 C6.24948442,17.2757875 5.94408687,17.134591 5.66133465,17.134591 L3.14518592,17.134591 C2.25446927,17.134591 1.57259296,16.4416176 1.57259296,15.5481135 L1.57259296,3.17390677 C1.57259296,2.28008538 2.25446927,1.58711203 3.14518592,1.58711203 L23.5888944,1.58711203 C24.4799256,1.58711203 25.1614873,2.59769817 25.1614873,3.49088497 L25.1614873,15.5481135 C25.1614873,16.4416176 24.479611,17.134591 23.5888944,17.134591 L11.3226693,17.134591 L11.2210798,17.1799642 Z M35.5406009,10.4713857 L26.7340803,10.4713857 L26.7340803,3.17390677 C26.7340803,1.33898696 25.4407798,0 23.6112252,0 L3.33326804,0 C1.50371339,0 0,1.50778816 0,3.34270797 L0,15.5804777 C0,17.4153975 1.63014986,18.7210684 3.45970451,18.7210684 L5.34681606,18.7210684 L7.79219811,22.2658936 C7.93121533,22.5013269 8.21365302,22.5971501 8.49609072,22.5971501 C8.77884293,22.5971501 9.0134738,22.4578574 9.20029785,22.2658936 L11.6371879,18.7210684 L12.2662251,18.7210684 L12.2662251,26.0188647 C12.2662251,27.8537845 13.5818563,29.1918195 15.411411,29.1918195 L27.3631175,29.1918195 L29.799693,32.6690608 C29.9390247,32.9044941 30.2211479,33 30.5039001,33 C30.7863378,33 31.0209687,32.8607073 31.2077927,32.6690608 L33.6534893,29.1918195 L35.5406009,29.1918195 C37.37047,29.1918195 38.9999909,27.8182474 38.9999909,25.9836449 L38.9999909,13.7455579 C39.0043941,11.9065132 37.4179623,10.4713857 35.5406009,10.4713857 Z" id="Fill-1"></path>
                    </g>
                </g>
            </g>
        </g>
    </g>
</svg>