<?xml version="1.0" encoding="UTF-8"?>
<svg width="308px" height="308px" viewBox="0 0 308 308" version="1.1" xmlns="http://www.w3.org/2000/svg" xmlns:xlink="http://www.w3.org/1999/xlink">
    <!-- Generator: Sketch 49.3 (51167) - http://www.bohemiancoding.com/sketch -->
    <title>Instagram Followers Copy 2@2x</title>
    <desc>Created with Sketch.</desc>
    <defs>
        <circle id="path-1" cx="154" cy="154" r="154"></circle>
        <linearGradient x1="97.2200046%" y1="2.68528005%" x2="8.47827327%" y2="95.8941684%" id="linearGradient-3">
            <stop stop-color="#FF5571" offset="0%"></stop>
            <stop stop-color="#FF92A4" offset="100%"></stop>
        </linearGradient>
        <path d="M10.5013802,187.657444 C8.00706087,183.237018 1,184.529256 1,190.066201 C1,193.880159 5.41005376,197.779697 10.5013802,203 C15.5910504,197.779697 20,193.880159 20,190.066201 C20,184.508718 12.9747203,183.271249 10.5013802,187.657444 Z" id="path-4"></path>
        <filter x="-500.0%" y="-305.6%" width="1100.0%" height="1155.6%" filterUnits="objectBoundingBox" id="filter-5">
            <feOffset dx="0" dy="40" in="SourceAlpha" result="shadowOffsetOuter1"></feOffset>
            <feGaussianBlur stdDeviation="25" in="shadowOffsetOuter1" result="shadowBlurOuter1"></feGaussianBlur>
            <feColorMatrix values="0 0 0 0 0   0 0 0 0 0   0 0 0 0 0  0 0 0 0.15 0" type="matrix" in="shadowBlurOuter1"></feColorMatrix>
        </filter>
        <ellipse id="path-6" cx="14.7520762" cy="14.791875" rx="14.7520762" ry="14.791875"></ellipse>
        <filter x="-322.0%" y="-185.9%" width="744.0%" height="742.2%" filterUnits="objectBoundingBox" id="filter-7">
            <feOffset dx="0" dy="40" in="SourceAlpha" result="shadowOffsetOuter1"></feOffset>
            <feGaussianBlur stdDeviation="25" in="shadowOffsetOuter1" result="shadowBlurOuter1"></feGaussianBlur>
            <feColorMatrix values="0 0 0 0 0   0 0 0 0 0   0 0 0 0 0  0 0 0 0.15 0" type="matrix" in="shadowBlurOuter1"></feColorMatrix>
        </filter>
    </defs>
    <g id="Page-1" stroke="none" stroke-width="1" fill="none" fill-rule="evenodd">
        <g id="BUY-INSTAGRAM-LIKES-Copy" transform="translate(-909.000000, -487.000000)">
            <g id="Group-3-Copy-2" transform="translate(864.000000, 487.000000)">
                <g id="Instagram-Followers-Copy-2" transform="translate(45.000000, 0.000000)">
                    <mask id="mask-2" fill="white">
                        <use xlink:href="#path-1"></use>
                    </mask>
                    <use id="Oval-2" fill="#F4E495" opacity="0.492470562" xlink:href="#path-1"></use>
                    <g id="Group-4" opacity="0.660948822" mask="url(#mask-2)">
                        <g transform="translate(58.000000, 45.000000)">
                            <rect id="Rectangle-5" fill="#FFFFFF" fill-rule="evenodd" opacity="0.583956069" x="0" y="216" width="94" height="8" rx="4"></rect>
                            <rect id="Rectangle-5-Copy" fill="#FFFFFF" fill-rule="evenodd" opacity="0.583956069" x="0" y="231" width="131" height="6" rx="3"></rect>
                            <rect id="Rectangle-5-Copy-3" fill="#FFFFFF" fill-rule="evenodd" opacity="0.583956069" x="31" y="189" width="31" height="6" rx="3"></rect>
                            <rect id="Rectangle-5-Copy-2" fill="#FFFFFF" fill-rule="evenodd" opacity="0.583956069" x="0" y="241" width="50" height="6" rx="3"></rect>
                            <rect id="Rectangle-6" fill="#FFFFFF" fill-rule="evenodd" x="0" y="41" width="193" height="126"></rect>
                            <g id="Shape" fill="none" opacity="0.583956069" fill-rule="nonzero">
                                <use fill="black" fill-opacity="1" filter="url(#filter-5)" xlink:href="#path-4"></use>
                                <use fill="url(#linearGradient-3)" fill-rule="evenodd" xlink:href="#path-4"></use>
                            </g>
                            <g id="Group-Copy-3" stroke-width="1" fill="none" fill-rule="evenodd" opacity="0.583956069">
                                <g id="Oval" fill-rule="nonzero">
                                    <use fill="black" fill-opacity="1" filter="url(#filter-7)" xlink:href="#path-6"></use>
                                    <use fill="#FFFFFF" fill-rule="evenodd" xlink:href="#path-6"></use>
                                </g>
                                <path d="M17.0264364,15.790732 C17.0390364,15.7812259 17.0512364,15.7712194 17.0638364,15.7615131 C17.0829364,15.779925 17.1017364,15.798437 17.1239364,15.8142473 C17.1315364,15.8197508 17.0949364,15.8105449 17.0264364,15.790732 M12.7318068,15.8099772 C12.7513068,15.7961683 12.7675068,15.7795575 12.7846068,15.7636472 C12.7935068,15.7705517 12.8023068,15.7778564 12.8113068,15.7845607 C12.7547068,15.8048739 12.7252068,15.81428 12.7318068,15.8099772 M22.3637919,19.4742008 L22.3637919,19.4631747 C22.3637919,19.4337421 22.360156,19.4042206 22.360156,19.3713201 C22.3383405,18.643241 22.2913395,16.9408626 20.7185817,16.3967595 C20.707674,16.3930248 20.693219,16.389468 20.6823112,16.3857334 C19.2597791,16.0176924 18.0462681,15.2459534 17.7460828,15.0447269 C18.898936,13.4286011 18.6914224,10.9747576 18.6674786,10.7282706 C18.5768466,8.76837913 17.6636982,7.83098173 16.9099095,7.39340513 C16.3482927,7.06617856 15.6923192,6.88984968 14.9603461,6.875 L14.8987128,6.875 C14.4964557,6.875 13.7064852,6.94115667 12.9490607,7.3788222 C12.1880889,7.81613205 11.2603968,8.75370729 11.1697648,10.7282706 C11.145821,10.9748465 10.9383074,13.4296682 12.0919587,15.0457939 C11.7823733,15.2535117 10.5809229,16.0165364 9.16220403,16.3819098 C9.14774902,16.3857334 9.13692994,16.389468 9.12602217,16.3930248 C7.55326438,16.9408626 7.50617476,18.643241 7.48444791,19.3674965 C7.48444791,19.4004859 7.48444791,19.4299185 7.48081199,19.4593511 L7.48081199,19.4704662 C7.47717607,19.6616447 7.47354015,20.6433244 7.66553455,21.1358537 C7.70189376,21.2315319 7.76707431,21.3125383 7.8539817,21.3676689 C7.96270463,21.441117 10.5682415,23.125 14.9277115,23.125 C19.2871815,23.125 21.8927184,21.4373824 22.0014413,21.3676689 C22.0848015,21.3125383 22.1536179,21.2315319 22.1898885,21.1358537 C22.3710638,20.6468812 22.3674278,19.6652015 22.3637919,19.4742008" id="Fill-1" fill="#FFFFFF"></path>
                                <rect id="Rectangle-5" fill="#FFFFFF" x="38.6457399" y="4.375" width="100.35426" height="7.5" rx="3.75"></rect>
                                <rect id="Rectangle-5-Copy" fill="#FFFFFF" x="38.6457399" y="16.875" width="64.2017937" height="6.25" rx="3.125"></rect>
                            </g>
                        </g>
                    </g>
                </g>
            </g>
        </g>
    </g>
</svg>