<?xml version="1.0" encoding="UTF-8"?>
<svg width="255px" height="129px" viewBox="0 0 255 129" version="1.1" xmlns="http://www.w3.org/2000/svg" xmlns:xlink="http://www.w3.org/1999/xlink">
    <!-- Generator: Sketch 49.3 (51167) - http://www.bohemiancoding.com/sketch -->
    <title>10 k followers copy 3@2x</title>
    <desc>Created with Sketch.</desc>
    <defs>
        <rect id="path-1" x="0" y="0" width="199" height="73" rx="10"></rect>
        <filter x="-26.1%" y="-43.8%" width="152.3%" height="242.5%" filterUnits="objectBoundingBox" id="filter-2">
            <feOffset dx="0" dy="20" in="SourceAlpha" result="shadowOffsetOuter1"></feOffset>
            <feGaussianBlur stdDeviation="14" in="shadowOffsetOuter1" result="shadowBlurOuter1"></feGaussianBlur>
            <feColorMatrix values="0 0 0 0 0   0 0 0 0 0   0 0 0 0 0  0 0 0 0.08 0" type="matrix" in="shadowBlurOuter1"></feColorMatrix>
        </filter>
    </defs>
    <g id="Page-1" stroke="none" stroke-width="1" fill="none" fill-rule="evenodd">
        <g id="BUY-INSTAGRAM-LIKES-Copy" transform="translate(-1053.000000, -560.000000)">
            <g id="Group-3-Copy-2" transform="translate(864.000000, 487.000000)">
                <g id="10-k-followers-copy-3" transform="translate(217.000000, 81.000000)">
                    <g id="Rectangle-6-Copy">
                        <use fill="black" fill-opacity="1" filter="url(#filter-2)" xlink:href="#path-1"></use>
                        <use fill="#FFFFFF" fill-rule="evenodd" xlink:href="#path-1"></use>
                    </g>
                    <text id="Top-notch" font-family="Ubuntu-Bold, Ubuntu" font-size="14" font-weight="bold" fill="#B4C2C4">
                        <tspan x="81" y="43">Top-notch</tspan>
                    </text>
                    <path d="M37.3144531,55.7124474 C32.1329961,55.7124474 27.2617929,53.6946163 23.5979977,50.0309086 C19.9342025,46.3671133 17.9164589,41.4959101 17.9164589,36.3143656 C17.9164589,31.1330837 19.9342025,26.2617929 23.5979977,22.5979977 C27.2617929,18.9342025 32.1329961,16.9164589 37.3144531,16.9164589 C42.4958226,16.9164589 47.3670258,18.9342025 51.0309086,22.5979977 C54.6947038,26.2617929 56.7124474,31.1330837 56.7124474,36.3143656 C56.7124474,41.4958226 54.6947038,46.3670258 51.0309086,50.0309086 C47.3670258,53.6946163 42.4958226,55.7124474 37.3144531,55.7124474 Z M37.3144531,21.9366189 C33.4740451,21.9366189 29.8634613,23.4322259 27.1478436,26.1478436 C24.4322259,28.8634613 22.9366189,32.4740451 22.9366189,36.3144531 C22.9366189,40.1550361 24.4321384,43.7655325 27.1478436,46.4812377 C29.8634613,49.1966803 33.4740451,50.6922873 37.3144531,50.6922873 C41.1548611,50.6922873 44.7655325,49.1966803 47.4810627,46.4812377 C50.1966803,43.7655325 51.6921998,40.1550361 51.6921998,36.3144531 C51.6921998,32.4740451 50.1966803,28.8634613 47.4810627,26.1478436 C44.7655325,23.4322259 41.1548611,21.9366189 37.3144531,21.9366189 Z" id="Shape" fill="#FF6C84" fill-rule="nonzero"></path>
                    <path d="M30.2744645,44.3605664 C29.514102,44.3605664 28.762754,44.0161804 28.2692361,43.3625907 C27.4340451,42.2561794 27.6538921,40.6821556 28.7603035,39.8469646 L36.3529006,34.1152776 C37.4595745,33.2799116 39.0332482,33.4998461 39.8687017,34.6062575 C40.7038926,35.7126689 40.4839581,37.2866927 39.3776343,38.1219711 L31.7849497,43.8536581 C31.3322154,44.1953311 30.8012395,44.3605664 30.2744645,44.3605664 Z" id="Shape" fill="#FF6C84" fill-rule="nonzero"></path>
                </g>
            </g>
        </g>
    </g>
</svg>