<?xml version="1.0" encoding="UTF-8"?>
<svg width="451px" height="570px" viewBox="0 0 451 570" version="1.1" xmlns="http://www.w3.org/2000/svg" xmlns:xlink="http://www.w3.org/1999/xlink">
    <!-- Generator: Sketch 49.3 (51167) - http://www.bohemiancoding.com/sketch -->
    <title>Instagram Followers@2x</title>
    <desc>Created with Sketch.</desc>
    <defs>
        <rect id="path-1" x="0" y="0" width="355" height="474" rx="10"></rect>
        <filter x="-25.9%" y="-11.0%" width="151.8%" height="138.8%" filterUnits="objectBoundingBox" id="filter-2">
            <feOffset dx="0" dy="40" in="SourceAlpha" result="shadowOffsetOuter1"></feOffset>
            <feGaussianBlur stdDeviation="24" in="shadowOffsetOuter1" result="shadowBlurOuter1"></feGaussianBlur>
            <feColorMatrix values="0 0 0 0 0   0 0 0 0 0   0 0 0 0 0  0 0 0 0.0661514946 0" type="matrix" in="shadowBlurOuter1"></feColorMatrix>
        </filter>
        <rect id="path-3" x="231" y="6" width="81" height="36" rx="3"></rect>
        <rect id="path-4" x="231" y="6" width="81" height="36" rx="3"></rect>
        <rect id="path-5" x="231" y="6" width="81" height="36" rx="3"></rect>
        <rect id="path-6" x="231" y="6" width="81" height="36" rx="3"></rect>
        <rect id="path-7" x="231" y="6" width="81" height="36" rx="3"></rect>
    </defs>
    <g id="Page-1" stroke="none" stroke-width="1" fill="none" fill-rule="evenodd">
        <g id="Instagram-Followers" transform="translate(-404.000000, -160.000000)">
            <g transform="translate(452.000000, 168.000000)">
                <g id="Rectangle-2">
                    <use fill="black" fill-opacity="1" filter="url(#filter-2)" xlink:href="#path-1"></use>
                    <use fill="#FFFFFF" fill-rule="evenodd" xlink:href="#path-1"></use>
                </g>
                <g id="Group-Copy-3" transform="translate(22.000000, 40.000000)">
                    <circle id="Oval" fill="#ABAFFF" fill-rule="nonzero" cx="23.667" cy="23.667" r="23.667"></circle>
                    <path d="M27.3157936,25.2599645 C27.33372,25.2464487 27.3510772,25.2322214 27.3690035,25.218421 C27.3961775,25.2445991 27.4229248,25.2709195 27.4545092,25.2933986 C27.4653219,25.3012235 27.4132502,25.2881345 27.3157936,25.2599645 M20.4256827,25.2877077 C20.4534258,25.2680741 20.4764739,25.2444568 20.5008025,25.2218355 C20.5134647,25.2316523 20.5259847,25.2420382 20.5387892,25.2515705 C20.458263,25.2804518 20.4162927,25.2938254 20.4256827,25.2877077 M35.8786014,31.1587213 L35.8786014,31.1410795 C35.8786014,31.0939873 35.8727683,31.0467529 35.8727683,30.9941121 C35.8377692,29.8291855 35.7623649,27.1053801 33.2391635,26.2348152 C33.221664,26.2288397 33.1984736,26.2231488 33.1809741,26.2171734 C30.8987822,25.6283078 28.9519264,24.3935255 28.4703343,24.071563 C30.3198758,21.4857618 29.9869583,17.5596121 29.9485447,17.165233 C29.8031423,14.0294066 28.3381632,12.5295708 27.1288477,11.8294482 C26.2278364,11.3058857 25.1754474,11.0237595 24.0011308,11 L23.9022515,11 C23.2569038,11 21.9895411,11.1058507 20.7743924,11.8061155 C19.5535527,12.5058113 18.065241,14.0059317 17.9198385,17.165233 C17.881425,17.5597544 17.5485075,21.4874691 19.3993294,24.0732703 C18.9026564,24.4056187 16.9751497,25.6264583 14.6990755,26.2110557 C14.6758851,26.2171734 14.6585279,26.2231488 14.6410284,26.2288397 C12.117827,27.1053801 12.0422804,29.8291855 12.0074236,30.9879944 C12.0074236,31.0407775 12.0074236,31.0878696 12.0015905,31.1349618 L12.0015905,31.1527459 C11.9957573,31.4586316 11.9899241,33.0293191 12.2979439,33.817366 C12.3562756,33.9704511 12.4608458,34.1000613 12.6002728,34.1882702 C12.7746988,34.3057872 16.9548047,37 23.9487746,37 C30.9427444,37 35.1228503,34.2998118 35.2972763,34.1882702 C35.4310124,34.1000613 35.5414158,33.9704511 35.5996052,33.817366 C35.8902678,33.03501 35.8844346,31.4643225 35.8786014,31.1587213" id="Fill-1" fill="#FFFFFF"></path>
                    <rect id="Rectangle-5" fill="#B4F8FF" x="62" y="7" width="161" height="12" rx="6"></rect>
                    <g id="Rectangle">
                        <use fill="#FFFFFF" fill-rule="evenodd" xlink:href="#path-3"></use>
                        <rect stroke="#B4C6C8" stroke-width="1" x="231.5" y="6.5" width="80" height="35" rx="3"></rect>
                    </g>
                    <text id="Following" font-family="Ubuntu-Medium, Ubuntu Medium" font-size="13" font-weight="normal" fill="#B4C6C8">
                        <tspan x="242.4575" y="30">Following</tspan>
                    </text>
                    <rect id="Rectangle-5-Copy" fill="#D5E5E7" x="62" y="27" width="103" height="10" rx="5"></rect>
                </g>
                <g id="Group-Copy-4" transform="translate(22.000000, 128.000000)">
                    <circle id="Oval" fill="#ABAFFF" fill-rule="nonzero" cx="23.667" cy="23.667" r="23.667"></circle>
                    <path d="M27.3157936,25.2599645 C27.33372,25.2464487 27.3510772,25.2322214 27.3690035,25.218421 C27.3961775,25.2445991 27.4229248,25.2709195 27.4545092,25.2933986 C27.4653219,25.3012235 27.4132502,25.2881345 27.3157936,25.2599645 M20.4256827,25.2877077 C20.4534258,25.2680741 20.4764739,25.2444568 20.5008025,25.2218355 C20.5134647,25.2316523 20.5259847,25.2420382 20.5387892,25.2515705 C20.458263,25.2804518 20.4162927,25.2938254 20.4256827,25.2877077 M35.8786014,31.1587213 L35.8786014,31.1410795 C35.8786014,31.0939873 35.8727683,31.0467529 35.8727683,30.9941121 C35.8377692,29.8291855 35.7623649,27.1053801 33.2391635,26.2348152 C33.221664,26.2288397 33.1984736,26.2231488 33.1809741,26.2171734 C30.8987822,25.6283078 28.9519264,24.3935255 28.4703343,24.071563 C30.3198758,21.4857618 29.9869583,17.5596121 29.9485447,17.165233 C29.8031423,14.0294066 28.3381632,12.5295708 27.1288477,11.8294482 C26.2278364,11.3058857 25.1754474,11.0237595 24.0011308,11 L23.9022515,11 C23.2569038,11 21.9895411,11.1058507 20.7743924,11.8061155 C19.5535527,12.5058113 18.065241,14.0059317 17.9198385,17.165233 C17.881425,17.5597544 17.5485075,21.4874691 19.3993294,24.0732703 C18.9026564,24.4056187 16.9751497,25.6264583 14.6990755,26.2110557 C14.6758851,26.2171734 14.6585279,26.2231488 14.6410284,26.2288397 C12.117827,27.1053801 12.0422804,29.8291855 12.0074236,30.9879944 C12.0074236,31.0407775 12.0074236,31.0878696 12.0015905,31.1349618 L12.0015905,31.1527459 C11.9957573,31.4586316 11.9899241,33.0293191 12.2979439,33.817366 C12.3562756,33.9704511 12.4608458,34.1000613 12.6002728,34.1882702 C12.7746988,34.3057872 16.9548047,37 23.9487746,37 C30.9427444,37 35.1228503,34.2998118 35.2972763,34.1882702 C35.4310124,34.1000613 35.5414158,33.9704511 35.5996052,33.817366 C35.8902678,33.03501 35.8844346,31.4643225 35.8786014,31.1587213" id="Fill-1" fill="#FFFFFF"></path>
                    <rect id="Rectangle-5" fill="#B4F8FF" x="62" y="7" width="161" height="12" rx="6"></rect>
                    <g id="Rectangle">
                        <use fill="#FFFFFF" fill-rule="evenodd" xlink:href="#path-4"></use>
                        <rect stroke="#B4C6C8" stroke-width="1" x="231.5" y="6.5" width="80" height="35" rx="3"></rect>
                    </g>
                    <text id="Following" font-family="Ubuntu-Medium, Ubuntu Medium" font-size="13" font-weight="normal" fill="#B4C6C8">
                        <tspan x="242.4575" y="30">Following</tspan>
                    </text>
                    <rect id="Rectangle-5-Copy" fill="#D5E5E7" x="62" y="27" width="103" height="10" rx="5"></rect>
                </g>
                <g id="Group-Copy-5" transform="translate(22.000000, 216.000000)">
                    <circle id="Oval" fill="#ABAFFF" fill-rule="nonzero" cx="23.667" cy="23.667" r="23.667"></circle>
                    <path d="M27.3157936,25.2599645 C27.33372,25.2464487 27.3510772,25.2322214 27.3690035,25.218421 C27.3961775,25.2445991 27.4229248,25.2709195 27.4545092,25.2933986 C27.4653219,25.3012235 27.4132502,25.2881345 27.3157936,25.2599645 M20.4256827,25.2877077 C20.4534258,25.2680741 20.4764739,25.2444568 20.5008025,25.2218355 C20.5134647,25.2316523 20.5259847,25.2420382 20.5387892,25.2515705 C20.458263,25.2804518 20.4162927,25.2938254 20.4256827,25.2877077 M35.8786014,31.1587213 L35.8786014,31.1410795 C35.8786014,31.0939873 35.8727683,31.0467529 35.8727683,30.9941121 C35.8377692,29.8291855 35.7623649,27.1053801 33.2391635,26.2348152 C33.221664,26.2288397 33.1984736,26.2231488 33.1809741,26.2171734 C30.8987822,25.6283078 28.9519264,24.3935255 28.4703343,24.071563 C30.3198758,21.4857618 29.9869583,17.5596121 29.9485447,17.165233 C29.8031423,14.0294066 28.3381632,12.5295708 27.1288477,11.8294482 C26.2278364,11.3058857 25.1754474,11.0237595 24.0011308,11 L23.9022515,11 C23.2569038,11 21.9895411,11.1058507 20.7743924,11.8061155 C19.5535527,12.5058113 18.065241,14.0059317 17.9198385,17.165233 C17.881425,17.5597544 17.5485075,21.4874691 19.3993294,24.0732703 C18.9026564,24.4056187 16.9751497,25.6264583 14.6990755,26.2110557 C14.6758851,26.2171734 14.6585279,26.2231488 14.6410284,26.2288397 C12.117827,27.1053801 12.0422804,29.8291855 12.0074236,30.9879944 C12.0074236,31.0407775 12.0074236,31.0878696 12.0015905,31.1349618 L12.0015905,31.1527459 C11.9957573,31.4586316 11.9899241,33.0293191 12.2979439,33.817366 C12.3562756,33.9704511 12.4608458,34.1000613 12.6002728,34.1882702 C12.7746988,34.3057872 16.9548047,37 23.9487746,37 C30.9427444,37 35.1228503,34.2998118 35.2972763,34.1882702 C35.4310124,34.1000613 35.5414158,33.9704511 35.5996052,33.817366 C35.8902678,33.03501 35.8844346,31.4643225 35.8786014,31.1587213" id="Fill-1" fill="#FFFFFF"></path>
                    <rect id="Rectangle-5" fill="#B4F8FF" x="62" y="7" width="161" height="12" rx="6"></rect>
                    <g id="Rectangle">
                        <use fill="#FFFFFF" fill-rule="evenodd" xlink:href="#path-5"></use>
                        <rect stroke="#B4C6C8" stroke-width="1" x="231.5" y="6.5" width="80" height="35" rx="3"></rect>
                    </g>
                    <text id="Following" font-family="Ubuntu-Medium, Ubuntu Medium" font-size="13" font-weight="normal" fill="#B4C6C8">
                        <tspan x="242.4575" y="30">Following</tspan>
                    </text>
                    <rect id="Rectangle-5-Copy" fill="#D5E5E7" x="62" y="27" width="103" height="10" rx="5"></rect>
                </g>
                <g id="Group-Copy-6" transform="translate(22.000000, 304.000000)">
                    <circle id="Oval" fill="#ABAFFF" fill-rule="nonzero" cx="23.667" cy="23.667" r="23.667"></circle>
                    <path d="M27.3157936,25.2599645 C27.33372,25.2464487 27.3510772,25.2322214 27.3690035,25.218421 C27.3961775,25.2445991 27.4229248,25.2709195 27.4545092,25.2933986 C27.4653219,25.3012235 27.4132502,25.2881345 27.3157936,25.2599645 M20.4256827,25.2877077 C20.4534258,25.2680741 20.4764739,25.2444568 20.5008025,25.2218355 C20.5134647,25.2316523 20.5259847,25.2420382 20.5387892,25.2515705 C20.458263,25.2804518 20.4162927,25.2938254 20.4256827,25.2877077 M35.8786014,31.1587213 L35.8786014,31.1410795 C35.8786014,31.0939873 35.8727683,31.0467529 35.8727683,30.9941121 C35.8377692,29.8291855 35.7623649,27.1053801 33.2391635,26.2348152 C33.221664,26.2288397 33.1984736,26.2231488 33.1809741,26.2171734 C30.8987822,25.6283078 28.9519264,24.3935255 28.4703343,24.071563 C30.3198758,21.4857618 29.9869583,17.5596121 29.9485447,17.165233 C29.8031423,14.0294066 28.3381632,12.5295708 27.1288477,11.8294482 C26.2278364,11.3058857 25.1754474,11.0237595 24.0011308,11 L23.9022515,11 C23.2569038,11 21.9895411,11.1058507 20.7743924,11.8061155 C19.5535527,12.5058113 18.065241,14.0059317 17.9198385,17.165233 C17.881425,17.5597544 17.5485075,21.4874691 19.3993294,24.0732703 C18.9026564,24.4056187 16.9751497,25.6264583 14.6990755,26.2110557 C14.6758851,26.2171734 14.6585279,26.2231488 14.6410284,26.2288397 C12.117827,27.1053801 12.0422804,29.8291855 12.0074236,30.9879944 C12.0074236,31.0407775 12.0074236,31.0878696 12.0015905,31.1349618 L12.0015905,31.1527459 C11.9957573,31.4586316 11.9899241,33.0293191 12.2979439,33.817366 C12.3562756,33.9704511 12.4608458,34.1000613 12.6002728,34.1882702 C12.7746988,34.3057872 16.9548047,37 23.9487746,37 C30.9427444,37 35.1228503,34.2998118 35.2972763,34.1882702 C35.4310124,34.1000613 35.5414158,33.9704511 35.5996052,33.817366 C35.8902678,33.03501 35.8844346,31.4643225 35.8786014,31.1587213" id="Fill-1" fill="#FFFFFF"></path>
                    <rect id="Rectangle-5" fill="#B4F8FF" x="62" y="7" width="161" height="12" rx="6"></rect>
                    <g id="Rectangle">
                        <use fill="#FFFFFF" fill-rule="evenodd" xlink:href="#path-6"></use>
                        <rect stroke="#B4C6C8" stroke-width="1" x="231.5" y="6.5" width="80" height="35" rx="3"></rect>
                    </g>
                    <text id="Following" font-family="Ubuntu-Medium, Ubuntu Medium" font-size="13" font-weight="normal" fill="#B4C6C8">
                        <tspan x="242.4575" y="30">Following</tspan>
                    </text>
                    <rect id="Rectangle-5-Copy" fill="#D5E5E7" x="62" y="27" width="103" height="10" rx="5"></rect>
                </g>
                <g id="Group-Copy-7" transform="translate(22.000000, 392.000000)">
                    <circle id="Oval" fill="#ABAFFF" fill-rule="nonzero" cx="23.667" cy="23.667" r="23.667"></circle>
                    <path d="M27.3157936,25.2599645 C27.33372,25.2464487 27.3510772,25.2322214 27.3690035,25.218421 C27.3961775,25.2445991 27.4229248,25.2709195 27.4545092,25.2933986 C27.4653219,25.3012235 27.4132502,25.2881345 27.3157936,25.2599645 M20.4256827,25.2877077 C20.4534258,25.2680741 20.4764739,25.2444568 20.5008025,25.2218355 C20.5134647,25.2316523 20.5259847,25.2420382 20.5387892,25.2515705 C20.458263,25.2804518 20.4162927,25.2938254 20.4256827,25.2877077 M35.8786014,31.1587213 L35.8786014,31.1410795 C35.8786014,31.0939873 35.8727683,31.0467529 35.8727683,30.9941121 C35.8377692,29.8291855 35.7623649,27.1053801 33.2391635,26.2348152 C33.221664,26.2288397 33.1984736,26.2231488 33.1809741,26.2171734 C30.8987822,25.6283078 28.9519264,24.3935255 28.4703343,24.071563 C30.3198758,21.4857618 29.9869583,17.5596121 29.9485447,17.165233 C29.8031423,14.0294066 28.3381632,12.5295708 27.1288477,11.8294482 C26.2278364,11.3058857 25.1754474,11.0237595 24.0011308,11 L23.9022515,11 C23.2569038,11 21.9895411,11.1058507 20.7743924,11.8061155 C19.5535527,12.5058113 18.065241,14.0059317 17.9198385,17.165233 C17.881425,17.5597544 17.5485075,21.4874691 19.3993294,24.0732703 C18.9026564,24.4056187 16.9751497,25.6264583 14.6990755,26.2110557 C14.6758851,26.2171734 14.6585279,26.2231488 14.6410284,26.2288397 C12.117827,27.1053801 12.0422804,29.8291855 12.0074236,30.9879944 C12.0074236,31.0407775 12.0074236,31.0878696 12.0015905,31.1349618 L12.0015905,31.1527459 C11.9957573,31.4586316 11.9899241,33.0293191 12.2979439,33.817366 C12.3562756,33.9704511 12.4608458,34.1000613 12.6002728,34.1882702 C12.7746988,34.3057872 16.9548047,37 23.9487746,37 C30.9427444,37 35.1228503,34.2998118 35.2972763,34.1882702 C35.4310124,34.1000613 35.5414158,33.9704511 35.5996052,33.817366 C35.8902678,33.03501 35.8844346,31.4643225 35.8786014,31.1587213" id="Fill-1" fill="#FFFFFF"></path>
                    <rect id="Rectangle-5" fill="#B4F8FF" x="62" y="7" width="161" height="12" rx="6"></rect>
                    <g id="Rectangle">
                        <use fill="#FFFFFF" fill-rule="evenodd" xlink:href="#path-7"></use>
                        <rect stroke="#B4C6C8" stroke-width="1" x="231.5" y="6.5" width="80" height="35" rx="3"></rect>
                    </g>
                    <text id="Following" font-family="Ubuntu-Medium, Ubuntu Medium" font-size="13" font-weight="normal" fill="#B4C6C8">
                        <tspan x="242.4575" y="30">Following</tspan>
                    </text>
                    <rect id="Rectangle-5-Copy" fill="#D5E5E7" x="62" y="27" width="103" height="10" rx="5"></rect>
                </g>
            </g>
        </g>
    </g>
</svg>