<?xml version="1.0" encoding="utf-8"?>
<!-- Generator: Adobe Illustrator 16.0.0, SVG Export Plug-In . SVG Version: 6.00 Build 0)  -->
<!DOCTYPE svg PUBLIC "-//W3C//DTD SVG 1.1//EN" "http://www.w3.org/Graphics/SVG/1.1/DTD/svg11.dtd">
<svg version="1.1" id="Layer_1" xmlns="http://www.w3.org/2000/svg" xmlns:xlink="http://www.w3.org/1999/xlink" x="0px" y="0px"
	 width="201.789px" height="84px" viewBox="0 0 201.789 84" enable-background="new 0 0 201.789 84" xml:space="preserve">
<g>
	<path fill="#FFFFFF" d="M159.895,0c-1.562,0-116.438,0-118,0C18.757,0,0,18.864,0,42.001C0,65.104,18.7,83,41.789,84h118
		c0.035,0,0.07-0.234,0.105-0.234c23.138,0,41.895-18.745,41.895-41.882C201.789,18.746,183.032,0,159.895,0z"/>
</g>
<circle fill="#C4F7D6" cx="41.895" cy="41.636" r="23.667"/>
<g>
	<path fill="#E0E0E0" d="M90.433,36.328c0,0.953-0.552,1.429-1.655,1.429h-7.756c-1.119,0-1.678-0.476-1.678-1.429
		c0-0.937,0.559-1.406,1.678-1.406h2.109v-9.275l-1.996,1.202c-0.227,0.136-0.453,0.204-0.68,0.204
		c-0.378,0-0.699-0.159-0.964-0.476c-0.265-0.318-0.397-0.673-0.397-1.066c0-0.529,0.234-0.93,0.703-1.202l3.583-2.154
		c0.529-0.317,1.059-0.476,1.588-0.476c0.499,0,0.907,0.155,1.225,0.465c0.317,0.31,0.476,0.729,0.476,1.259v11.52h2.109
		C89.881,34.922,90.433,35.391,90.433,36.328z"/>
	<path fill="#E0E0E0" d="M104.039,36.328c0,0.953-0.552,1.429-1.655,1.429h-7.756c-1.119,0-1.678-0.476-1.678-1.429
		c0-0.937,0.559-1.406,1.678-1.406h2.109v-9.275l-1.996,1.202c-0.227,0.136-0.453,0.204-0.68,0.204
		c-0.378,0-0.699-0.159-0.964-0.476c-0.265-0.318-0.397-0.673-0.397-1.066c0-0.529,0.234-0.93,0.703-1.202l3.583-2.154
		c0.529-0.317,1.059-0.476,1.588-0.476c0.499,0,0.907,0.155,1.225,0.465c0.317,0.31,0.476,0.729,0.476,1.259v11.52h2.109
		C103.487,34.922,104.039,35.391,104.039,36.328z"/>
	<path fill="#E0E0E0" d="M116.851,36.237c0,0.424-0.154,0.802-0.465,1.134c-0.31,0.333-0.669,0.499-1.077,0.499
		c-0.393,0-0.756-0.159-1.088-0.476l-4.967-4.604v3.47c0,0.529-0.162,0.93-0.487,1.202c-0.325,0.272-0.729,0.408-1.213,0.408
		c-0.499,0-0.911-0.136-1.236-0.408c-0.325-0.272-0.487-0.672-0.487-1.202V23.266c0-0.529,0.162-0.93,0.487-1.202
		c0.325-0.272,0.737-0.408,1.236-0.408c0.483,0,0.888,0.136,1.213,0.408c0.325,0.272,0.487,0.673,0.487,1.202v8.119l4.536-4.468
		c0.332-0.332,0.702-0.499,1.11-0.499c0.424,0,0.794,0.155,1.111,0.465s0.477,0.677,0.477,1.1c0,0.394-0.174,0.764-0.521,1.111
		l-3.017,2.88l3.379,3.129C116.677,35.436,116.851,35.814,116.851,36.237z"/>
</g>
<g>
	<path fill="#E0E0E0" d="M83.335,46.315c-0.272,0.333-0.408,0.801-0.408,1.406v0.386h1.587c1.028,0,1.542,0.431,1.542,1.292
		c0,0.847-0.514,1.27-1.542,1.27h-1.587v7.075c0,0.529-0.163,0.93-0.487,1.202c-0.325,0.272-0.729,0.408-1.214,0.408
		c-0.499,0-0.911-0.136-1.235-0.408c-0.325-0.272-0.488-0.673-0.488-1.202v-7.075h-0.906c-1.014,0-1.52-0.423-1.52-1.27
		c0-0.862,0.506-1.292,1.52-1.292h0.906c0-1.452,0.4-2.593,1.202-3.424s1.905-1.3,3.312-1.406l0.589-0.045l0.408-0.022
		c1.043,0,1.565,0.401,1.565,1.202c0,0.787-0.439,1.217-1.315,1.293l-0.59,0.045C84.053,45.793,83.607,45.983,83.335,46.315z"/>
	<path fill="#E0E0E0" d="M89.276,58.709c-0.893-0.477-1.58-1.149-2.063-2.019c-0.484-0.869-0.726-1.894-0.726-3.073
		s0.241-2.203,0.726-3.073c0.483-0.869,1.171-1.538,2.063-2.007c0.892-0.468,1.928-0.703,3.106-0.703
		c1.18,0,2.215,0.235,3.106,0.703c0.893,0.469,1.58,1.138,2.064,2.007c0.483,0.87,0.726,1.894,0.726,3.073s-0.242,2.204-0.726,3.073
		c-0.484,0.87-1.172,1.542-2.064,2.019c-0.892,0.476-1.927,0.714-3.106,0.714C91.204,59.423,90.168,59.185,89.276,58.709z
		 M94.877,53.617c0-1.073-0.215-1.875-0.646-2.404c-0.432-0.529-1.048-0.793-1.849-0.793c-1.663,0-2.494,1.066-2.494,3.197
		c0,2.132,0.831,3.198,2.494,3.198S94.877,55.749,94.877,53.617z"/>
	<path fill="#E0E0E0" d="M100.853,58.969c-0.325-0.271-0.487-0.672-0.487-1.201V44.75c0-0.529,0.162-0.93,0.487-1.202
		c0.325-0.272,0.737-0.408,1.236-0.408c0.483,0,0.888,0.136,1.213,0.408c0.325,0.272,0.487,0.673,0.487,1.202v13.017
		c0,0.529-0.162,0.93-0.487,1.201c-0.325,0.272-0.729,0.408-1.213,0.408C101.59,59.377,101.178,59.241,100.853,58.969z"/>
	<path fill="#E0E0E0" d="M106.907,58.969c-0.325-0.271-0.487-0.672-0.487-1.201V44.75c0-0.529,0.162-0.93,0.487-1.202
		c0.325-0.272,0.737-0.408,1.236-0.408c0.483,0,0.888,0.136,1.213,0.408c0.325,0.272,0.487,0.673,0.487,1.202v13.017
		c0,0.529-0.162,0.93-0.487,1.201c-0.325,0.272-0.729,0.408-1.213,0.408C107.645,59.377,107.232,59.241,106.907,58.969z"/>
	<path fill="#E0E0E0" d="M114.72,58.709c-0.893-0.477-1.58-1.149-2.063-2.019c-0.484-0.869-0.726-1.894-0.726-3.073
		s0.241-2.203,0.726-3.073c0.483-0.869,1.171-1.538,2.063-2.007c0.892-0.468,1.928-0.703,3.106-0.703
		c1.18,0,2.215,0.235,3.106,0.703c0.893,0.469,1.58,1.138,2.064,2.007c0.483,0.87,0.726,1.894,0.726,3.073s-0.242,2.204-0.726,3.073
		c-0.484,0.87-1.172,1.542-2.064,2.019c-0.892,0.476-1.927,0.714-3.106,0.714C116.647,59.423,115.611,59.185,114.72,58.709z
		 M120.32,53.617c0-1.073-0.215-1.875-0.646-2.404c-0.432-0.529-1.048-0.793-1.849-0.793c-1.663,0-2.494,1.066-2.494,3.197
		c0,2.132,0.831,3.198,2.494,3.198S120.32,55.749,120.32,53.617z"/>
	<path fill="#E0E0E0" d="M141.117,48.152c0.241-0.166,0.498-0.249,0.771-0.249c0.423,0,0.801,0.144,1.134,0.431
		c0.332,0.288,0.499,0.643,0.499,1.066c0,0.181-0.045,0.385-0.136,0.612l-3.72,8.346c-0.136,0.332-0.355,0.586-0.657,0.76
		c-0.303,0.173-0.62,0.26-0.952,0.26c-0.349,0-0.669-0.087-0.964-0.26c-0.295-0.174-0.511-0.428-0.646-0.76l-2.427-5.647
		l-2.336,5.647c-0.136,0.332-0.348,0.586-0.635,0.76c-0.287,0.173-0.612,0.26-0.975,0.26c-0.349,0-0.673-0.087-0.976-0.26
		c-0.303-0.174-0.521-0.428-0.657-0.76l-3.696-8.346c-0.091-0.211-0.137-0.416-0.137-0.612c0-0.423,0.178-0.778,0.533-1.066
		c0.355-0.287,0.76-0.431,1.213-0.431c0.303,0,0.579,0.083,0.828,0.249c0.249,0.167,0.442,0.408,0.578,0.726l2.427,6.1l2.472-6.055
		c0.136-0.318,0.336-0.563,0.601-0.737c0.265-0.173,0.556-0.261,0.873-0.261s0.612,0.083,0.885,0.25
		c0.272,0.167,0.477,0.416,0.612,0.749l2.518,6.055l2.403-6.1C140.686,48.56,140.875,48.319,141.117,48.152z"/>
	<path fill="#E0E0E0" d="M154.598,56.293c0.188,0.242,0.283,0.552,0.283,0.93c0,0.258-0.076,0.496-0.227,0.715
		c-0.151,0.219-0.363,0.404-0.635,0.555c-0.515,0.273-1.111,0.496-1.792,0.67s-1.308,0.261-1.882,0.261
		c-1.21,0-2.265-0.234-3.164-0.703s-1.591-1.138-2.074-2.007c-0.484-0.869-0.726-1.894-0.726-3.073c0-1.134,0.233-2.139,0.702-3.016
		s1.119-1.561,1.95-2.052c0.832-0.491,1.776-0.737,2.835-0.737c1.013,0,1.901,0.223,2.665,0.669c0.763,0.446,1.356,1.081,1.78,1.905
		c0.423,0.824,0.635,1.788,0.635,2.891c0,0.333-0.08,0.586-0.238,0.76c-0.159,0.174-0.382,0.261-0.669,0.261h-6.35
		c0.105,0.892,0.378,1.539,0.816,1.939s1.065,0.601,1.882,0.601c0.438,0,0.831-0.053,1.18-0.159
		c0.348-0.105,0.732-0.249,1.156-0.431c0.212-0.091,0.416-0.17,0.612-0.238c0.196-0.068,0.37-0.102,0.521-0.102
		C154.163,55.93,154.408,56.052,154.598,56.293z M148.396,50.816c-0.394,0.416-0.628,1.017-0.703,1.803h4.377
		c-0.046-0.801-0.246-1.406-0.602-1.814s-0.858-0.612-1.508-0.612C149.31,50.193,148.788,50.401,148.396,50.816z"/>
	<path fill="#E0E0E0" d="M164.734,48.186c0.264,0.235,0.396,0.586,0.396,1.055c0,0.499-0.121,0.87-0.362,1.111
		c-0.242,0.242-0.673,0.394-1.293,0.454l-0.681,0.068c-0.831,0.09-1.433,0.363-1.803,0.816c-0.37,0.453-0.556,1.036-0.556,1.746
		v4.332c0,0.529-0.162,0.93-0.487,1.201c-0.325,0.272-0.729,0.408-1.213,0.408c-0.499,0-0.911-0.136-1.236-0.408
		c-0.325-0.271-0.487-0.672-0.487-1.201v-8.323c0-0.499,0.166-0.885,0.499-1.157c0.332-0.272,0.732-0.408,1.201-0.408
		c0.454,0,0.832,0.133,1.135,0.397c0.302,0.265,0.453,0.631,0.453,1.1v0.612c0.272-0.65,0.684-1.148,1.236-1.497
		c0.551-0.348,1.152-0.544,1.803-0.589l0.317-0.023C164.11,47.85,164.47,47.952,164.734,48.186z"/>
	<path fill="#E0E0E0" d="M167.808,59.195c-0.681-0.15-1.278-0.393-1.792-0.725c-0.227-0.137-0.4-0.318-0.521-0.545
		s-0.182-0.483-0.182-0.771c0-0.347,0.099-0.638,0.295-0.873c0.196-0.234,0.438-0.352,0.726-0.352c0.196,0,0.394,0.034,0.59,0.102
		c0.196,0.068,0.4,0.147,0.612,0.238c0.423,0.197,0.839,0.352,1.247,0.465s0.915,0.17,1.52,0.17c0.529,0,0.941-0.083,1.235-0.249
		c0.295-0.167,0.442-0.393,0.442-0.681c0-0.211-0.064-0.381-0.192-0.51c-0.129-0.128-0.367-0.246-0.715-0.352
		c-0.348-0.105-0.899-0.234-1.655-0.385c-1.346-0.257-2.312-0.643-2.902-1.157c-0.59-0.514-0.885-1.232-0.885-2.154
		c0-0.68,0.208-1.292,0.624-1.837c0.415-0.544,0.986-0.971,1.712-1.281c0.726-0.31,1.542-0.465,2.449-0.465
		c0.649,0,1.285,0.083,1.905,0.25c0.619,0.167,1.171,0.401,1.655,0.703c0.468,0.287,0.703,0.711,0.703,1.27
		c0,0.363-0.099,0.665-0.295,0.907c-0.197,0.242-0.438,0.363-0.726,0.363c-0.349,0-0.764-0.136-1.247-0.408
		c-0.379-0.196-0.723-0.343-1.032-0.442c-0.311-0.098-0.677-0.147-1.1-0.147c-0.469,0-0.84,0.087-1.111,0.261
		c-0.272,0.174-0.408,0.412-0.408,0.714c0,0.317,0.158,0.56,0.477,0.726c0.317,0.167,0.93,0.333,1.836,0.499
		c1.013,0.197,1.807,0.435,2.382,0.714c0.574,0.28,0.989,0.631,1.247,1.054c0.257,0.424,0.386,0.96,0.386,1.61
		c0,1.074-0.442,1.928-1.327,2.563c-0.884,0.635-2.067,0.952-3.549,0.952C169.289,59.423,168.487,59.347,167.808,59.195z"/>
</g>
</svg>
