<?xml version="1.0" encoding="utf-8"?>
<!-- Generator: Adobe Illustrator 16.0.0, SVG Export Plug-In . SVG Version: 6.00 Build 0)  -->
<!DOCTYPE svg PUBLIC "-//W3C//DTD SVG 1.1//EN" "http://www.w3.org/Graphics/SVG/1.1/DTD/svg11.dtd">
<svg version="1.1" id="Layer_1" xmlns="http://www.w3.org/2000/svg" xmlns:xlink="http://www.w3.org/1999/xlink" x="0px" y="0px"
	 width="201.789px" height="84px" viewBox="0 0 201.789 84" enable-background="new 0 0 201.789 84" xml:space="preserve">
<g>
	<path fill="#FFFFFF" d="M159.895,0c-1.562,0-116.438,0-118,0C18.757,0,0,18.864,0,42.001C0,65.104,18.7,83,41.789,84h118
		c0.035,0,0.07-0.234,0.105-0.234c23.138,0,41.895-18.745,41.895-41.882C201.789,18.746,183.032,0,159.895,0z"/>
</g>
<circle fill="#EFC2F2" cx="41.895" cy="41.636" r="23.667"/>
<g>
	<path fill="#E0E0E0" d="M88.369,23.613c1.134,1.376,1.701,3.341,1.701,5.896c0,1.708-0.265,3.202-0.794,4.479
		s-1.289,2.256-2.279,2.937s-2.143,1.021-3.458,1.021c-0.862,0-1.731-0.144-2.608-0.431c-0.877-0.287-1.625-0.688-2.244-1.202
		c-0.212-0.166-0.367-0.344-0.466-0.533c-0.098-0.189-0.146-0.419-0.146-0.692c0-0.393,0.109-0.729,0.328-1.009
		c0.219-0.279,0.487-0.419,0.806-0.419c0.196,0,0.366,0.027,0.51,0.08c0.144,0.053,0.336,0.147,0.578,0.283
		c0.604,0.363,1.146,0.646,1.622,0.851c0.476,0.204,0.963,0.306,1.462,0.306c0.938,0,1.682-0.431,2.234-1.292
		c0.552-0.862,0.865-2.071,0.94-3.628c-0.348,0.575-0.839,1.032-1.474,1.372c-0.635,0.34-1.346,0.51-2.132,0.51
		c-0.938,0-1.772-0.219-2.506-0.658s-1.308-1.051-1.724-1.837s-0.623-1.678-0.623-2.676c0-1.043,0.234-1.977,0.703-2.801
		c0.468-0.824,1.118-1.466,1.95-1.928c0.831-0.461,1.769-0.691,2.812-0.691C85.633,21.55,87.235,22.238,88.369,23.613z
		 M85.489,28.693c0.438-0.468,0.657-1.081,0.657-1.837c0-0.755-0.219-1.372-0.657-1.848c-0.438-0.476-1.013-0.714-1.724-0.714
		s-1.281,0.235-1.712,0.703c-0.431,0.469-0.646,1.088-0.646,1.859c0,0.756,0.216,1.369,0.646,1.837
		c0.431,0.469,1.001,0.703,1.712,0.703S85.051,29.162,85.489,28.693z"/>
	<path fill="#E0E0E0" d="M102.531,30.927c0.506,0.673,0.76,1.493,0.76,2.46c0,0.922-0.238,1.724-0.715,2.404
		c-0.476,0.68-1.16,1.206-2.052,1.576c-0.893,0.371-1.928,0.556-3.106,0.556c-0.983,0-1.925-0.144-2.824-0.431
		s-1.674-0.688-2.324-1.202c-0.227-0.167-0.389-0.348-0.487-0.544c-0.099-0.196-0.147-0.423-0.147-0.68
		c0-0.393,0.113-0.729,0.34-1.009c0.228-0.28,0.499-0.419,0.816-0.419c0.182,0,0.348,0.026,0.499,0.079
		c0.151,0.053,0.341,0.147,0.567,0.284c0.665,0.378,1.239,0.666,1.724,0.862c0.483,0.197,1.05,0.295,1.7,0.295
		c0.922,0,1.595-0.17,2.019-0.51c0.423-0.34,0.635-0.873,0.635-1.599c0-0.71-0.219-1.225-0.657-1.542s-1.142-0.476-2.109-0.476
		H95.83c-0.394,0-0.703-0.136-0.93-0.408s-0.34-0.597-0.34-0.975c0-0.363,0.113-0.68,0.34-0.953c0.227-0.272,0.536-0.408,0.93-0.408
		h0.952c0.922,0,1.606-0.159,2.053-0.476c0.445-0.317,0.669-0.809,0.669-1.474c0-0.635-0.189-1.13-0.567-1.485
		c-0.378-0.355-0.906-0.533-1.587-0.533c-0.56,0-1.081,0.099-1.564,0.295c-0.484,0.196-1.044,0.484-1.679,0.861
		c-0.227,0.136-0.416,0.231-0.566,0.284c-0.151,0.053-0.317,0.08-0.499,0.08c-0.317,0-0.59-0.14-0.816-0.42
		c-0.227-0.279-0.34-0.616-0.34-1.009c0-0.272,0.049-0.502,0.146-0.692c0.099-0.189,0.262-0.366,0.488-0.533
		c0.635-0.514,1.395-0.915,2.278-1.202c0.885-0.287,1.788-0.431,2.71-0.431c1.073,0,2.019,0.178,2.835,0.533
		c0.816,0.355,1.443,0.858,1.882,1.508s0.658,1.406,0.658,2.268s-0.224,1.614-0.669,2.256c-0.446,0.643-1.062,1.107-1.849,1.395
		C101.303,29.782,102.024,30.254,102.531,30.927z"/>
	<path fill="#E0E0E0" d="M106.885,35.836c-1.021-1.406-1.531-3.439-1.531-6.1c0-2.646,0.511-4.672,1.531-6.078
		s2.498-2.109,4.433-2.109c1.936,0,3.413,0.703,4.434,2.109s1.531,3.432,1.531,6.078c0,2.661-0.511,4.694-1.531,6.1
		c-1.021,1.406-2.498,2.109-4.434,2.109C109.383,37.945,107.905,37.242,106.885,35.836z M113.234,33.932
		c0.4-0.877,0.601-2.275,0.601-4.195c0-1.935-0.2-3.333-0.601-4.195c-0.401-0.862-1.04-1.292-1.917-1.292s-1.516,0.435-1.916,1.304
		c-0.4,0.87-0.601,2.264-0.601,4.184s0.2,3.318,0.601,4.195s1.039,1.315,1.916,1.315S112.833,34.809,113.234,33.932z"/>
	<path fill="#E0E0E0" d="M128.53,28.047c0.771,0.431,1.368,1.032,1.791,1.803s0.635,1.663,0.635,2.676
		c0,1.059-0.249,1.996-0.748,2.812s-1.198,1.451-2.098,1.905s-1.938,0.681-3.118,0.681c-0.938,0-1.852-0.144-2.744-0.431
		c-0.892-0.287-1.663-0.688-2.312-1.202c-0.228-0.167-0.386-0.344-0.477-0.533c-0.091-0.189-0.136-0.419-0.136-0.691
		c0-0.393,0.109-0.729,0.328-1.009c0.22-0.28,0.488-0.419,0.806-0.419c0.182,0,0.348,0.026,0.499,0.079
		c0.15,0.053,0.348,0.147,0.589,0.284c0.604,0.363,1.157,0.646,1.656,0.851c0.498,0.204,1.043,0.306,1.633,0.306
		c0.922,0,1.621-0.212,2.098-0.635c0.476-0.423,0.714-1.05,0.714-1.882c0-0.786-0.246-1.406-0.737-1.859s-1.152-0.68-1.984-0.68
		c-0.514,0-0.982,0.064-1.405,0.193c-0.424,0.128-0.885,0.344-1.384,0.646c-0.317,0.182-0.635,0.272-0.952,0.272
		c-0.363,0-0.669-0.109-0.919-0.329c-0.249-0.219-0.374-0.51-0.374-0.873v-6.599c0-0.529,0.144-0.937,0.431-1.225
		c0.287-0.287,0.695-0.431,1.225-0.431h7.303c1.118,0,1.678,0.446,1.678,1.338c0,0.907-0.56,1.36-1.678,1.36h-5.511v3.561
		c0.726-0.408,1.579-0.612,2.562-0.612C126.882,27.4,127.759,27.616,128.53,28.047z"/>
</g>
<g>
	<path fill="#E0E0E0" d="M83.335,46.3c-0.272,0.333-0.408,0.801-0.408,1.406v0.386h1.587c1.028,0,1.542,0.431,1.542,1.292
		c0,0.847-0.514,1.27-1.542,1.27h-1.587v7.075c0,0.529-0.163,0.93-0.487,1.202c-0.325,0.271-0.729,0.408-1.214,0.408
		c-0.499,0-0.911-0.137-1.235-0.408c-0.325-0.272-0.488-0.673-0.488-1.202v-7.075h-0.906c-1.014,0-1.52-0.423-1.52-1.27
		c0-0.862,0.506-1.292,1.52-1.292h0.906c0-1.452,0.4-2.593,1.202-3.424s1.905-1.3,3.312-1.406l0.589-0.045l0.408-0.022
		c1.043,0,1.565,0.401,1.565,1.202c0,0.787-0.439,1.217-1.315,1.293l-0.59,0.045C84.053,45.778,83.607,45.968,83.335,46.3z"/>
	<path fill="#E0E0E0" d="M89.276,58.693c-0.893-0.477-1.58-1.148-2.063-2.019c-0.484-0.869-0.726-1.894-0.726-3.073
		s0.241-2.203,0.726-3.073c0.483-0.869,1.171-1.538,2.063-2.007c0.892-0.468,1.928-0.703,3.106-0.703
		c1.18,0,2.215,0.235,3.106,0.703c0.893,0.469,1.58,1.138,2.064,2.007c0.483,0.87,0.726,1.894,0.726,3.073s-0.242,2.204-0.726,3.073
		c-0.484,0.87-1.172,1.542-2.064,2.019c-0.892,0.477-1.927,0.715-3.106,0.715C91.204,59.408,90.168,59.17,89.276,58.693z
		 M94.877,53.602c0-1.073-0.215-1.875-0.646-2.404c-0.432-0.529-1.048-0.793-1.849-0.793c-1.663,0-2.494,1.066-2.494,3.197
		c0,2.132,0.831,3.198,2.494,3.198S94.877,55.734,94.877,53.602z"/>
	<path fill="#E0E0E0" d="M100.853,58.954c-0.325-0.272-0.487-0.673-0.487-1.202V44.735c0-0.529,0.162-0.93,0.487-1.202
		c0.325-0.272,0.737-0.408,1.236-0.408c0.483,0,0.888,0.136,1.213,0.408c0.325,0.272,0.487,0.673,0.487,1.202v13.017
		c0,0.529-0.162,0.93-0.487,1.202s-0.729,0.408-1.213,0.408C101.59,59.362,101.178,59.227,100.853,58.954z"/>
	<path fill="#E0E0E0" d="M106.907,58.954c-0.325-0.272-0.487-0.673-0.487-1.202V44.735c0-0.529,0.162-0.93,0.487-1.202
		c0.325-0.272,0.737-0.408,1.236-0.408c0.483,0,0.888,0.136,1.213,0.408c0.325,0.272,0.487,0.673,0.487,1.202v13.017
		c0,0.529-0.162,0.93-0.487,1.202s-0.729,0.408-1.213,0.408C107.645,59.362,107.232,59.227,106.907,58.954z"/>
	<path fill="#E0E0E0" d="M114.72,58.693c-0.893-0.477-1.58-1.148-2.063-2.019c-0.484-0.869-0.726-1.894-0.726-3.073
		s0.241-2.203,0.726-3.073c0.483-0.869,1.171-1.538,2.063-2.007c0.892-0.468,1.928-0.703,3.106-0.703
		c1.18,0,2.215,0.235,3.106,0.703c0.893,0.469,1.58,1.138,2.064,2.007c0.483,0.87,0.726,1.894,0.726,3.073s-0.242,2.204-0.726,3.073
		c-0.484,0.87-1.172,1.542-2.064,2.019c-0.892,0.477-1.927,0.715-3.106,0.715C116.647,59.408,115.611,59.17,114.72,58.693z
		 M120.32,53.602c0-1.073-0.215-1.875-0.646-2.404c-0.432-0.529-1.048-0.793-1.849-0.793c-1.663,0-2.494,1.066-2.494,3.197
		c0,2.132,0.831,3.198,2.494,3.198S120.32,55.734,120.32,53.602z"/>
	<path fill="#E0E0E0" d="M141.117,48.137c0.241-0.166,0.498-0.249,0.771-0.249c0.423,0,0.801,0.144,1.134,0.431
		c0.332,0.288,0.499,0.643,0.499,1.066c0,0.181-0.045,0.385-0.136,0.612l-3.72,8.345c-0.136,0.332-0.355,0.586-0.657,0.76
		c-0.303,0.174-0.62,0.261-0.952,0.261c-0.349,0-0.669-0.087-0.964-0.261s-0.511-0.428-0.646-0.76l-2.427-5.647l-2.336,5.647
		c-0.136,0.332-0.348,0.586-0.635,0.76s-0.612,0.261-0.975,0.261c-0.349,0-0.673-0.087-0.976-0.261s-0.521-0.428-0.657-0.76
		l-3.696-8.345c-0.091-0.211-0.137-0.416-0.137-0.612c0-0.423,0.178-0.778,0.533-1.066c0.355-0.287,0.76-0.431,1.213-0.431
		c0.303,0,0.579,0.083,0.828,0.249c0.249,0.167,0.442,0.408,0.578,0.726l2.427,6.1l2.472-6.055c0.136-0.318,0.336-0.563,0.601-0.737
		c0.265-0.173,0.556-0.261,0.873-0.261s0.612,0.083,0.885,0.25c0.272,0.167,0.477,0.416,0.612,0.749l2.518,6.055l2.403-6.1
		C140.686,48.545,140.875,48.304,141.117,48.137z"/>
	<path fill="#E0E0E0" d="M154.598,56.278c0.188,0.242,0.283,0.552,0.283,0.93c0,0.257-0.076,0.495-0.227,0.714
		c-0.151,0.22-0.363,0.404-0.635,0.556c-0.515,0.272-1.111,0.495-1.792,0.669s-1.308,0.262-1.882,0.262
		c-1.21,0-2.265-0.234-3.164-0.703s-1.591-1.139-2.074-2.007c-0.484-0.869-0.726-1.894-0.726-3.073c0-1.134,0.233-2.139,0.702-3.016
		s1.119-1.561,1.95-2.052c0.832-0.491,1.776-0.737,2.835-0.737c1.013,0,1.901,0.223,2.665,0.669c0.763,0.446,1.356,1.081,1.78,1.905
		c0.423,0.824,0.635,1.788,0.635,2.891c0,0.333-0.08,0.586-0.238,0.76c-0.159,0.174-0.382,0.261-0.669,0.261h-6.35
		c0.105,0.892,0.378,1.539,0.816,1.939s1.065,0.601,1.882,0.601c0.438,0,0.831-0.053,1.18-0.159
		c0.348-0.105,0.732-0.249,1.156-0.431c0.212-0.091,0.416-0.17,0.612-0.238c0.196-0.068,0.37-0.102,0.521-0.102
		C154.163,55.915,154.408,56.037,154.598,56.278z M148.396,50.801c-0.394,0.416-0.628,1.017-0.703,1.803h4.377
		c-0.046-0.801-0.246-1.406-0.602-1.814s-0.858-0.612-1.508-0.612C149.31,50.178,148.788,50.386,148.396,50.801z"/>
	<path fill="#E0E0E0" d="M164.734,48.171c0.264,0.235,0.396,0.586,0.396,1.055c0,0.499-0.121,0.87-0.362,1.111
		c-0.242,0.242-0.673,0.394-1.293,0.454l-0.681,0.068c-0.831,0.09-1.433,0.363-1.803,0.816c-0.37,0.453-0.556,1.036-0.556,1.746
		v4.331c0,0.529-0.162,0.93-0.487,1.202s-0.729,0.408-1.213,0.408c-0.499,0-0.911-0.136-1.236-0.408s-0.487-0.673-0.487-1.202V49.43
		c0-0.499,0.166-0.885,0.499-1.157c0.332-0.272,0.732-0.408,1.201-0.408c0.454,0,0.832,0.133,1.135,0.397
		c0.302,0.265,0.453,0.631,0.453,1.1v0.612c0.272-0.65,0.684-1.148,1.236-1.497c0.551-0.348,1.152-0.544,1.803-0.589l0.317-0.023
		C164.11,47.834,164.47,47.937,164.734,48.171z"/>
	<path fill="#E0E0E0" d="M167.808,59.181c-0.681-0.151-1.278-0.394-1.792-0.726c-0.227-0.137-0.4-0.317-0.521-0.545
		c-0.121-0.227-0.182-0.482-0.182-0.771c0-0.348,0.099-0.638,0.295-0.873c0.196-0.234,0.438-0.352,0.726-0.352
		c0.196,0,0.394,0.034,0.59,0.102c0.196,0.068,0.4,0.147,0.612,0.238c0.423,0.197,0.839,0.352,1.247,0.465s0.915,0.17,1.52,0.17
		c0.529,0,0.941-0.083,1.235-0.249c0.295-0.167,0.442-0.393,0.442-0.681c0-0.211-0.064-0.381-0.192-0.51
		c-0.129-0.128-0.367-0.246-0.715-0.352c-0.348-0.105-0.899-0.234-1.655-0.385c-1.346-0.257-2.312-0.643-2.902-1.157
		c-0.59-0.514-0.885-1.232-0.885-2.154c0-0.68,0.208-1.292,0.624-1.837c0.415-0.544,0.986-0.971,1.712-1.281
		c0.726-0.31,1.542-0.465,2.449-0.465c0.649,0,1.285,0.083,1.905,0.25c0.619,0.167,1.171,0.401,1.655,0.703
		c0.468,0.287,0.703,0.711,0.703,1.27c0,0.363-0.099,0.665-0.295,0.907c-0.197,0.242-0.438,0.363-0.726,0.363
		c-0.349,0-0.764-0.136-1.247-0.408c-0.379-0.196-0.723-0.343-1.032-0.442c-0.311-0.098-0.677-0.147-1.1-0.147
		c-0.469,0-0.84,0.087-1.111,0.261c-0.272,0.174-0.408,0.412-0.408,0.714c0,0.317,0.158,0.56,0.477,0.726
		c0.317,0.167,0.93,0.333,1.836,0.499c1.013,0.197,1.807,0.435,2.382,0.714c0.574,0.28,0.989,0.631,1.247,1.054
		c0.257,0.424,0.386,0.96,0.386,1.61c0,1.074-0.442,1.928-1.327,2.562c-0.884,0.635-2.067,0.953-3.549,0.953
		C169.289,59.408,168.487,59.332,167.808,59.181z"/>
</g>
</svg>
