<?xml version="1.0" encoding="utf-8"?>
<!-- Generator: Adobe Illustrator 16.0.0, SVG Export Plug-In . SVG Version: 6.00 Build 0)  -->
<!DOCTYPE svg PUBLIC "-//W3C//DTD SVG 1.1//EN" "http://www.w3.org/Graphics/SVG/1.1/DTD/svg11.dtd">
<svg version="1.1" id="Layer_1" xmlns="http://www.w3.org/2000/svg" xmlns:xlink="http://www.w3.org/1999/xlink" x="0px" y="0px"
	 width="201.789px" height="84px" viewBox="0 0 201.789 84" enable-background="new 0 0 201.789 84" xml:space="preserve">
<g>
	<path fill="#FFFFFF" d="M159.895,0c-1.562,0-116.438,0-118,0C18.757,0,0,18.864,0,42.001C0,65.104,18.7,83,41.789,84h118
		c0.035,0,0.07-0.234,0.105-0.234c23.138,0,41.895-18.744,41.895-41.882S183.032,0,159.895,0z"/>
</g>
<circle fill="#F7E6C4" cx="41.895" cy="41.636" r="23.667"/>
<g enable-background="new    ">
	<path fill="#E0E0E0" d="M87.433,37.312c0,0.952-0.552,1.429-1.655,1.429h-7.755c-1.119,0-1.678-0.477-1.678-1.429
		c0-0.938,0.559-1.406,1.678-1.406h2.109v-9.274l-1.996,1.201c-0.227,0.137-0.454,0.204-0.68,0.204c-0.378,0-0.7-0.158-0.964-0.476
		c-0.265-0.317-0.397-0.673-0.397-1.066c0-0.528,0.234-0.93,0.703-1.201l3.583-2.154c0.529-0.317,1.058-0.477,1.587-0.477
		c0.499,0,0.907,0.155,1.225,0.465c0.317,0.311,0.476,0.729,0.476,1.259v11.52h2.109C86.881,35.906,87.433,36.375,87.433,37.312z"/>
	<path fill="#E0E0E0" d="M98.374,29.013c0.733,0.438,1.308,1.051,1.724,1.837c0.416,0.786,0.624,1.678,0.624,2.676
		c0,1.043-0.234,1.977-0.703,2.801c-0.469,0.824-1.119,1.467-1.951,1.928s-1.769,0.691-2.812,0.691
		c-2.072,0-3.674-0.688-4.808-2.063c-1.134-1.376-1.701-3.341-1.701-5.896c0-1.708,0.265-3.201,0.794-4.479
		c0.529-1.277,1.289-2.257,2.279-2.937c0.99-0.681,2.143-1.021,3.458-1.021c0.862,0,1.731,0.144,2.608,0.431
		c0.876,0.287,1.625,0.688,2.245,1.202c0.211,0.166,0.366,0.344,0.465,0.533c0.098,0.188,0.147,0.419,0.147,0.691
		c0,0.394-0.11,0.729-0.329,1.009c-0.219,0.28-0.487,0.42-0.805,0.42c-0.197,0-0.367-0.026-0.51-0.08
		c-0.144-0.053-0.337-0.146-0.579-0.283c-0.604-0.362-1.145-0.646-1.621-0.851c-0.477-0.204-0.964-0.306-1.463-0.306
		c-0.938,0-1.682,0.431-2.234,1.293c-0.552,0.861-0.865,2.071-0.941,3.628c0.348-0.574,0.839-1.032,1.474-1.372
		c0.635-0.34,1.345-0.51,2.131-0.51C96.806,28.355,97.641,28.574,98.374,29.013z M96.764,35.498
		c0.431-0.468,0.646-1.088,0.646-1.859c0-0.756-0.216-1.368-0.646-1.837c-0.431-0.468-1.002-0.703-1.712-0.703
		c-0.711,0-1.285,0.235-1.724,0.703c-0.439,0.469-0.658,1.081-0.658,1.837s0.219,1.372,0.658,1.849
		c0.438,0.476,1.013,0.714,1.724,0.714C95.762,36.201,96.333,35.967,96.764,35.498z"/>
	<path fill="#E0E0E0" d="M113.852,37.222c0,0.424-0.155,0.802-0.465,1.134c-0.311,0.333-0.669,0.499-1.077,0.499
		c-0.394,0-0.757-0.158-1.089-0.477l-4.966-4.603v3.469c0,0.529-0.163,0.93-0.487,1.202c-0.326,0.272-0.73,0.408-1.214,0.408
		c-0.499,0-0.911-0.136-1.235-0.408c-0.326-0.272-0.488-0.673-0.488-1.202V24.25c0-0.528,0.162-0.93,0.488-1.201
		c0.324-0.272,0.736-0.408,1.235-0.408c0.483,0,0.888,0.136,1.214,0.408c0.324,0.271,0.487,0.673,0.487,1.201v8.119l4.535-4.468
		c0.333-0.332,0.703-0.499,1.111-0.499c0.423,0,0.794,0.155,1.111,0.465c0.317,0.311,0.476,0.677,0.476,1.101
		c0,0.393-0.174,0.763-0.521,1.11l-3.016,2.881l3.379,3.129C113.678,36.421,113.852,36.799,113.852,37.222z"/>
</g>
<g enable-background="new    ">
	<path fill="#E0E0E0" d="M80.335,47.301c-0.272,0.332-0.408,0.802-0.408,1.406v0.385h1.587c1.028,0,1.542,0.431,1.542,1.293
		c0,0.847-0.514,1.27-1.542,1.27h-1.587v7.075c0,0.529-0.163,0.93-0.488,1.202s-0.729,0.408-1.213,0.408
		c-0.499,0-0.911-0.136-1.236-0.408s-0.487-0.673-0.487-1.202v-7.075h-0.907c-1.013,0-1.519-0.423-1.519-1.27
		c0-0.862,0.506-1.293,1.519-1.293h0.907c0-1.451,0.4-2.593,1.202-3.424s1.905-1.3,3.311-1.406l0.59-0.045l0.408-0.023
		c1.043,0,1.564,0.401,1.564,1.202c0,0.786-0.438,1.218-1.315,1.293l-0.589,0.045C81.053,46.779,80.607,46.968,80.335,47.301z"/>
	<path fill="#E0E0E0" d="M86.276,59.693c-0.893-0.476-1.58-1.148-2.064-2.018s-0.726-1.894-0.726-3.073
		c0-1.179,0.242-2.203,0.726-3.072s1.171-1.538,2.064-2.008c0.892-0.468,1.927-0.702,3.106-0.702s2.215,0.234,3.107,0.702
		c0.892,0.47,1.58,1.139,2.063,2.008s0.726,1.894,0.726,3.072c0,1.18-0.242,2.204-0.726,3.073s-1.172,1.542-2.063,2.018
		c-0.892,0.477-1.928,0.715-3.107,0.715S87.168,60.17,86.276,59.693z M91.877,54.603c0-1.073-0.215-1.874-0.646-2.403
		c-0.431-0.529-1.047-0.794-1.848-0.794c-1.663,0-2.495,1.065-2.495,3.197S87.72,57.8,89.383,57.8S91.877,56.734,91.877,54.603z"/>
	<path fill="#E0E0E0" d="M97.853,59.954c-0.325-0.271-0.487-0.672-0.487-1.201V45.735c0-0.528,0.162-0.93,0.487-1.201
		c0.325-0.272,0.737-0.408,1.236-0.408c0.484,0,0.888,0.136,1.213,0.408c0.325,0.271,0.488,0.673,0.488,1.201v13.018
		c0,0.529-0.163,0.93-0.488,1.201c-0.325,0.272-0.729,0.408-1.213,0.408C98.59,60.362,98.178,60.227,97.853,59.954z"/>
	<path fill="#E0E0E0" d="M103.908,59.954c-0.326-0.271-0.488-0.672-0.488-1.201V45.735c0-0.528,0.162-0.93,0.488-1.201
		c0.324-0.272,0.736-0.408,1.235-0.408c0.483,0,0.888,0.136,1.214,0.408c0.324,0.271,0.487,0.673,0.487,1.201v13.018
		c0,0.529-0.163,0.93-0.487,1.201c-0.326,0.272-0.73,0.408-1.214,0.408C104.645,60.362,104.232,60.227,103.908,59.954z"/>
	<path fill="#E0E0E0" d="M111.721,59.693c-0.893-0.476-1.58-1.148-2.064-2.018s-0.726-1.894-0.726-3.073
		c0-1.179,0.241-2.203,0.726-3.072s1.172-1.538,2.064-2.008c0.891-0.468,1.927-0.702,3.105-0.702c1.18,0,2.215,0.234,3.107,0.702
		c0.892,0.47,1.58,1.139,2.063,2.008s0.726,1.894,0.726,3.072c0,1.18-0.242,2.204-0.726,3.073s-1.172,1.542-2.063,2.018
		c-0.893,0.477-1.928,0.715-3.107,0.715C113.647,60.408,112.611,60.17,111.721,59.693z M117.321,54.603
		c0-1.073-0.216-1.874-0.646-2.403s-1.047-0.794-1.849-0.794c-1.662,0-2.494,1.065-2.494,3.197s0.832,3.197,2.494,3.197
		C116.49,57.8,117.321,56.734,117.321,54.603z"/>
	<path fill="#E0E0E0" d="M138.116,49.138c0.241-0.166,0.499-0.25,0.771-0.25c0.424,0,0.802,0.145,1.135,0.431
		c0.332,0.288,0.498,0.644,0.498,1.066c0,0.182-0.045,0.386-0.136,0.612l-3.719,8.345c-0.136,0.333-0.355,0.586-0.657,0.76
		c-0.303,0.174-0.621,0.261-0.953,0.261c-0.348,0-0.669-0.087-0.964-0.261c-0.294-0.174-0.511-0.427-0.646-0.76l-2.428-5.646
		l-2.335,5.646c-0.136,0.333-0.349,0.586-0.636,0.76s-0.611,0.261-0.975,0.261c-0.348,0-0.673-0.087-0.975-0.261
		c-0.303-0.174-0.521-0.427-0.658-0.76l-3.696-8.345c-0.091-0.212-0.136-0.416-0.136-0.612c0-0.423,0.178-0.778,0.533-1.066
		c0.354-0.286,0.76-0.431,1.213-0.431c0.303,0,0.578,0.084,0.828,0.25c0.249,0.166,0.441,0.408,0.578,0.726l2.426,6.1l2.473-6.055
		c0.136-0.317,0.336-0.562,0.601-0.736s0.556-0.262,0.873-0.262s0.612,0.084,0.884,0.25c0.272,0.166,0.477,0.416,0.613,0.748
		l2.517,6.055l2.403-6.1C137.686,49.546,137.874,49.304,138.116,49.138z"/>
	<path fill="#E0E0E0" d="M151.598,57.278c0.189,0.242,0.283,0.553,0.283,0.93c0,0.258-0.075,0.496-0.227,0.715
		c-0.15,0.219-0.362,0.404-0.635,0.556c-0.514,0.271-1.111,0.495-1.791,0.669c-0.681,0.174-1.309,0.261-1.883,0.261
		c-1.209,0-2.264-0.234-3.163-0.703s-1.591-1.138-2.075-2.007s-0.726-1.894-0.726-3.073c0-1.134,0.234-2.139,0.703-3.016
		c0.468-0.877,1.118-1.561,1.95-2.053c0.831-0.491,1.776-0.736,2.834-0.736c1.014,0,1.901,0.223,2.665,0.669
		c0.763,0.445,1.356,1.081,1.78,1.904c0.424,0.824,0.635,1.788,0.635,2.892c0,0.333-0.079,0.586-0.238,0.76
		c-0.158,0.174-0.381,0.261-0.668,0.261h-6.35c0.105,0.893,0.377,1.538,0.816,1.938c0.438,0.401,1.064,0.602,1.881,0.602
		c0.439,0,0.832-0.053,1.18-0.159c0.348-0.105,0.733-0.249,1.156-0.431c0.212-0.091,0.416-0.17,0.613-0.238
		c0.195-0.068,0.369-0.102,0.521-0.102C151.163,56.916,151.408,57.037,151.598,57.278z M145.396,51.802
		c-0.394,0.416-0.628,1.018-0.702,1.803h4.376c-0.046-0.801-0.245-1.405-0.601-1.813s-0.858-0.612-1.508-0.612
		C146.311,51.179,145.789,51.387,145.396,51.802z"/>
	<path fill="#E0E0E0" d="M161.734,49.172c0.264,0.234,0.396,0.586,0.396,1.054c0,0.499-0.121,0.87-0.363,1.111
		c-0.241,0.242-0.672,0.394-1.292,0.454l-0.681,0.067c-0.832,0.091-1.432,0.363-1.803,0.816c-0.371,0.454-0.555,1.036-0.555,1.746
		v4.332c0,0.529-0.164,0.93-0.488,1.201c-0.325,0.272-0.729,0.408-1.213,0.408c-0.499,0-0.911-0.136-1.236-0.408
		c-0.325-0.271-0.487-0.672-0.487-1.201V50.43c0-0.499,0.166-0.884,0.499-1.156c0.332-0.272,0.732-0.408,1.201-0.408
		c0.454,0,0.832,0.133,1.135,0.396c0.302,0.265,0.453,0.632,0.453,1.101v0.612c0.271-0.65,0.684-1.149,1.236-1.497
		c0.551-0.348,1.152-0.544,1.803-0.59l0.316-0.022C161.11,48.835,161.469,48.938,161.734,49.172z"/>
	<path fill="#E0E0E0" d="M164.807,60.182c-0.68-0.151-1.277-0.394-1.791-0.727c-0.227-0.136-0.4-0.317-0.521-0.544
		s-0.182-0.483-0.182-0.771c0-0.348,0.098-0.639,0.295-0.873c0.196-0.234,0.438-0.352,0.726-0.352c0.196,0,0.394,0.033,0.59,0.102
		s0.4,0.147,0.612,0.238c0.423,0.196,0.839,0.352,1.247,0.465s0.915,0.17,1.52,0.17c0.528,0,0.94-0.083,1.235-0.249
		s0.443-0.394,0.443-0.681c0-0.212-0.064-0.382-0.193-0.51c-0.129-0.129-0.367-0.246-0.715-0.352s-0.899-0.234-1.654-0.386
		c-1.347-0.257-2.314-0.643-2.903-1.156c-0.59-0.514-0.884-1.232-0.884-2.154c0-0.681,0.207-1.293,0.623-1.837
		c0.416-0.545,0.986-0.972,1.712-1.281s1.542-0.465,2.449-0.465c0.649,0,1.284,0.083,1.905,0.249c0.619,0.167,1.171,0.4,1.655,0.703
		c0.468,0.287,0.702,0.711,0.702,1.27c0,0.363-0.098,0.666-0.294,0.907c-0.196,0.242-0.438,0.363-0.726,0.363
		c-0.348,0-0.764-0.137-1.248-0.408c-0.377-0.196-0.722-0.344-1.031-0.442c-0.311-0.099-0.677-0.147-1.1-0.147
		c-0.469,0-0.84,0.087-1.111,0.261c-0.272,0.174-0.408,0.412-0.408,0.714c0,0.318,0.158,0.56,0.477,0.727
		c0.316,0.166,0.93,0.332,1.836,0.498c1.014,0.197,1.807,0.436,2.381,0.715c0.575,0.28,0.99,0.631,1.248,1.055
		c0.257,0.423,0.385,0.96,0.385,1.609c0,1.074-0.441,1.928-1.326,2.562c-0.885,0.636-2.067,0.953-3.549,0.953
		C166.289,60.408,165.487,60.332,164.807,60.182z"/>
</g>
</svg>
