<?xml version="1.0" encoding="utf-8"?>
<!-- Generator: Adobe Illustrator 16.0.0, SVG Export Plug-In . SVG Version: 6.00 Build 0)  -->
<!DOCTYPE svg PUBLIC "-//W3C//DTD SVG 1.1//EN" "http://www.w3.org/Graphics/SVG/1.1/DTD/svg11.dtd">
<svg version="1.1" id="Layer_1" xmlns="http://www.w3.org/2000/svg" xmlns:xlink="http://www.w3.org/1999/xlink" x="0px" y="0px"
	 width="325.566px" height="333.709px" viewBox="0 0 325.566 333.709" enable-background="new 0 0 325.566 333.709"
	 xml:space="preserve">
<g>
	<g>
		<path fill="#FFFFFF" d="M325.566,326.709c0,3.865-3.134,7-7,7H7c-3.866,0-7-3.135-7-7V7c0-3.866,3.134-7,7-7h311.566
			c3.866,0,7,3.134,7,7V326.709z"/>
	</g>
</g>
<circle fill="#C4F7D6" cx="50.668" cy="56.04" r="23.667"/>
<circle fill="#EFC2F2" cx="50.335" cy="129.039" r="23.667"/>
<circle fill="#C3EDF4" cx="50.668" cy="202.039" r="23.667"/>
<circle fill="#F7E6C4" cx="50.335" cy="275.039" r="23.667"/>
<path fill="#F2F2F2" d="M179,71.88c0,1.171-0.949,2.12-2.12,2.12H93.12C91.949,74,91,73.051,91,71.88V61.12
	c0-1.171,0.949-2.12,2.12-2.12h83.76c1.171,0,2.12,0.949,2.12,2.12V71.88z"/>
<path fill="#E2E2E2" d="M165.783,51c0,1.657-1.344,3-3,3H94c-1.656,0-3-1.343-3-3v-9c0-1.657,1.344-3,3-3h68.783
	c1.656,0,3,1.343,3,3V51z"/>
<path fill="#F2F2F2" d="M222.816,51c0,1.657-1.344,3-3,3h-47.033c-1.656,0-3-1.343-3-3v-9c0-1.657,1.344-3,3-3h47.033
	c1.656,0,3,1.343,3,3V51z"/>
<path fill="#E2E2E2" d="M140,123c0,1.656-1.344,3-3,3H94c-1.656,0-3-1.344-3-3v-9c0-1.656,1.344-3,3-3h43c1.656,0,3,1.344,3,3V123z"
	/>
<path fill="#F2F2F2" d="M242,123c0,1.656-1.344,3-3,3h-91.5c-1.656,0-3-1.344-3-3v-9c0-1.656,1.344-3,3-3H239c1.656,0,3,1.344,3,3
	V123z"/>
<path fill="#F2F2F2" d="M234,145c0,1.656-1.344,3-3,3H94c-1.656,0-3-1.344-3-3v-9c0-1.656,1.344-3,3-3h137c1.656,0,3,1.344,3,3V145z
	"/>
<path fill="#E2E2E2" d="M144.816,197c0,1.656-1.344,3-3,3H94c-1.656,0-3-1.344-3-3v-9c0-1.656,1.344-3,3-3h47.816
	c1.656,0,3,1.344,3,3V197z"/>
<path fill="#F2F2F2" d="M242,197c0,1.656-1.344,3-3,3h-88c-1.656,0-3-1.344-3-3v-9c0-1.656,1.344-3,3-3h88c1.656,0,3,1.344,3,3V197z
	"/>
<path fill="#F2F2F2" d="M164,217c0,1.656-1.344,3-3,3H94c-1.656,0-3-1.344-3-3v-9c0-1.656,1.344-3,3-3h67c1.656,0,3,1.344,3,3V217z"
	/>
<path fill="#E2E2E2" d="M187,269c0,1.656-1.344,3-3,3H94c-1.656,0-3-1.344-3-3v-9c0-1.656,1.344-3,3-3h90c1.656,0,3,1.344,3,3V269z"
	/>
<path fill="#F2F2F2" d="M198,291c0,1.656-1.344,3-3,3H94c-1.656,0-3-1.344-3-3v-9c0-1.656,1.344-3,3-3h101c1.656,0,3,1.344,3,3V291z
	"/>
<path fill="#F2F2F2" d="M299.74,143.101c0,0.916-0.742,1.658-1.658,1.658h-28.684c-0.916,0-1.658-0.742-1.658-1.658v-28.684
	c0-0.916,0.742-1.658,1.658-1.658h28.684c0.916,0,1.658,0.742,1.658,1.658V143.101z"/>
<path fill="#F2F2F2" d="M299.74,216.101c0,0.916-0.742,1.658-1.658,1.658h-28.684c-0.916,0-1.658-0.742-1.658-1.658v-28.684
	c0-0.916,0.742-1.658,1.658-1.658h28.684c0.916,0,1.658,0.742,1.658,1.658V216.101z"/>
<path fill="#F2F2F2" d="M300.74,70.101c0,0.916-0.742,1.658-1.658,1.658h-28.684c-0.916,0-1.658-0.742-1.658-1.658V41.417
	c0-0.916,0.742-1.658,1.658-1.658h28.684c0.916,0,1.658,0.742,1.658,1.658V70.101z"/>
<path fill="#F2F2F2" d="M298.74,289.101c0,0.916-0.742,1.658-1.658,1.658h-28.684c-0.916,0-1.658-0.742-1.658-1.658v-28.684
	c0-0.916,0.742-1.658,1.658-1.658h28.684c0.916,0,1.658,0.742,1.658,1.658V289.101z"/>
<path fill="#E2E2E2" d="M290.569,53.759h-3.829v-3.822c0-0.924-0.576-1.673-1.5-1.673s-1.5,0.749-1.5,1.673v3.822h-4.443
	c-1.064,0-1.816,0.587-1.816,1.51c0,0.924,0.605,1.49,1.529,1.49h4.73v4.736c0,0.924,0.576,1.673,1.5,1.673s1.5-0.749,1.5-1.673
	v-4.737h3.828l0,0c0.925,0,1.674-0.576,1.674-1.5S291.493,53.759,290.569,53.759z"/>
<path fill="#E2E2E2" d="M289.569,126.759h-3.829v-3.822c0-0.924-0.576-1.673-1.5-1.673s-1.5,0.749-1.5,1.673v3.822h-4.443
	c-1.064,0-1.816,0.587-1.816,1.51c0,0.924,0.605,1.49,1.529,1.49h4.73v4.736c0,0.924,0.576,1.674,1.5,1.674s1.5-0.75,1.5-1.674
	v-4.736h3.828l0,0c0.925,0,1.674-0.576,1.674-1.5S290.493,126.759,289.569,126.759z"/>
<path fill="#E2E2E2" d="M289.569,199.759h-3.829v-3.822c0-0.924-0.576-1.673-1.5-1.673s-1.5,0.749-1.5,1.673v3.822h-4.443
	c-1.064,0-1.816,0.587-1.816,1.51c0,0.925,0.605,1.49,1.529,1.49h4.73v4.736c0,0.924,0.576,1.674,1.5,1.674s1.5-0.75,1.5-1.674
	v-4.736h3.828l0,0c0.925,0,1.674-0.576,1.674-1.5S290.493,199.759,289.569,199.759z"/>
<path fill="#E2E2E2" d="M288.569,272.759h-3.829v-3.822c0-0.924-0.576-1.673-1.5-1.673s-1.5,0.749-1.5,1.673v3.822h-4.443
	c-1.064,0-1.816,0.587-1.816,1.51c0,0.925,0.605,1.49,1.529,1.49h4.73v4.736c0,0.924,0.576,1.674,1.5,1.674s1.5-0.75,1.5-1.674
	v-4.736h3.828l0,0c0.925,0,1.674-0.576,1.674-1.5S289.493,272.759,288.569,272.759z"/>
</svg>
