<?xml version="1.0" encoding="UTF-8"?>
<svg width="375px" height="198px" viewBox="0 0 375 198" version="1.1" xmlns="http://www.w3.org/2000/svg" xmlns:xlink="http://www.w3.org/1999/xlink">
    <!-- Generator: Sketch 49.3 (51167) - http://www.bohemiancoding.com/sketch -->
    <title>29 k views@2x</title>
    <desc>Created with Sketch.</desc>
    <defs>
        <rect id="path-1" x="0" y="0" width="279" height="102" rx="10"></rect>
        <filter x="-33.0%" y="-51.0%" width="165.9%" height="280.4%" filterUnits="objectBoundingBox" id="filter-2">
            <feOffset dx="0" dy="40" in="SourceAlpha" result="shadowOffsetOuter1"></feOffset>
            <feGaussianBlur stdDeviation="24" in="shadowOffsetOuter1" result="shadowBlurOuter1"></feGaussianBlur>
            <feColorMatrix values="0 0 0 0 0   0 0 0 0 0   0 0 0 0 0  0 0 0 0.15 0" type="matrix" in="shadowBlurOuter1"></feColorMatrix>
        </filter>
        <path d="M34,21 L78,21 C82.418278,21 86,24.581722 86,29 L86,73 C86,77.418278 82.418278,81 78,81 L34,81 C29.581722,81 26,77.418278 26,73 L26,29 C26,24.581722 29.581722,21 34,21 Z" id="path-3"></path>
        <filter x="-158.3%" y="-91.7%" width="416.7%" height="416.7%" filterUnits="objectBoundingBox" id="filter-4">
            <feOffset dx="0" dy="40" in="SourceAlpha" result="shadowOffsetOuter1"></feOffset>
            <feGaussianBlur stdDeviation="25" in="shadowOffsetOuter1" result="shadowBlurOuter1"></feGaussianBlur>
            <feComposite in="shadowBlurOuter1" in2="SourceAlpha" operator="out" result="shadowBlurOuter1"></feComposite>
            <feColorMatrix values="0 0 0 0 0   0 0 0 0 0   0 0 0 0 0  0 0 0 0.1 0" type="matrix" in="shadowBlurOuter1"></feColorMatrix>
        </filter>
    </defs>
    <g id="Page-1" stroke="none" stroke-width="1" fill="none" fill-rule="evenodd">
        <g id="BUY-INSTAGRAM-LIKES-Copy-2" transform="translate(-267.000000, -525.000000)">
            <g id="29-k-views" transform="translate(315.000000, 533.000000)">
                <g id="Rectangle-6">
                    <use fill="black" fill-opacity="1" filter="url(#filter-2)" xlink:href="#path-1"></use>
                    <use fill="#29E5C1" fill-rule="evenodd" xlink:href="#path-1"></use>
                </g>
                <g id="Rectangle-6">
                    <use fill="black" fill-opacity="1" filter="url(#filter-4)" xlink:href="#path-3"></use>
                    <use fill-opacity="0.300000012" fill="#FFFFFF" fill-rule="evenodd" xlink:href="#path-3"></use>
                </g>
                <path d="M47,44.0003914 L47,58.3451669 C47,59.4497364 47.8954305,60.3451669 49,60.3451669 C49.3296046,60.3451669 49.6541002,60.263706 49.944624,60.1080298 L63.3297766,52.935642 C64.3033789,52.4139406 64.6697169,51.2017574 64.1480155,50.2281552 C63.9618546,49.8807406 63.6771912,49.5960772 63.3297766,49.4099163 L49.944624,42.2375285 C48.9710217,41.7158271 47.7588385,42.0821651 47.2371371,43.0557674 C47.0814609,43.3462912 47,43.6707868 47,44.0003914 Z" id="Path-2" fill="#FFFFFF"></path>
                <text id="2,92,20-Views" opacity="0.49756567" font-family="Ubuntu-Bold, Ubuntu" font-size="20" font-weight="bold" fill="#FFFFFF">
                    <tspan x="115" y="57">2,92,20 Views</tspan>
                </text>
            </g>
        </g>
    </g>
</svg>