<?xml version="1.0" encoding="UTF-8"?>
<svg width="308px" height="308px" viewBox="0 0 308 308" version="1.1" xmlns="http://www.w3.org/2000/svg" xmlns:xlink="http://www.w3.org/1999/xlink">
    <!-- Generator: Sketch 49.3 (51167) - http://www.bohemiancoding.com/sketch -->
    <title>Unmatched price@2x</title>
    <desc>Created with Sketch.</desc>
    <defs>
        <circle id="path-1" cx="154" cy="154" r="154"></circle>
        <linearGradient x1="97.2200046%" y1="2.68528005%" x2="8.47827327%" y2="95.8941684%" id="linearGradient-3">
            <stop stop-color="#55FFBB" offset="0%"></stop>
            <stop stop-color="#47E0AC" offset="100%"></stop>
        </linearGradient>
        <path d="M43.9980854,46.1957573 C44.8020683,46.1957573 45.6064195,45.8968835 46.2207317,45.297699 C47.4478829,44.100767 47.4478829,42.1602427 46.2207317,40.9633107 L37.7124341,32.6659709 L37.7124341,15.5425146 C37.7124341,13.8487767 36.3070293,12.4765437 34.5705293,12.4765437 C32.8325561,12.4765437 31.4271512,13.8487767 31.4271512,15.5425146 L31.4271512,33.9343883 C31.4271512,34.7483883 31.7593512,35.5271845 32.3478829,36.1026602 L41.7769122,45.297699 C42.3912244,45.8968835 43.1937341,46.1957573 43.9980854,46.1957573 Z" id="path-4"></path>
        <filter x="-604.6%" y="-163.1%" width="1309.1%" height="663.5%" filterUnits="objectBoundingBox" id="filter-5">
            <feOffset dx="0" dy="40" in="SourceAlpha" result="shadowOffsetOuter1"></feOffset>
            <feGaussianBlur stdDeviation="25" in="shadowOffsetOuter1" result="shadowBlurOuter1"></feGaussianBlur>
            <feColorMatrix values="0 0 0 0 0   0 0 0 0 0   0 0 0 0 0  0 0 0 0.1 0" type="matrix" in="shadowBlurOuter1"></feColorMatrix>
        </filter>
        <path d="M149.932688,56.2906505 L124.789346,31.7679126 C124.200815,31.1927961 123.402356,30.8698544 122.568173,30.8698544 L100.56821,30.8698544 L100.56821,21.6733786 C100.56821,19.9796408 99.1628049,18.6070485 97.4248317,18.6070485 L65.3244415,18.6070485 C59.5886512,7.70713592 47.970122,0.215174757 34.5705293,0.215174757 C15.5113829,0.215174757 0,15.342068 0,33.9343883 C0,49.3360874 10.6561805,62.3284757 25.1418683,66.3460291 L25.1418683,86.045835 C25.1418683,92.8078544 30.782639,98.3072039 37.7124341,98.3072039 L38.030639,98.3072039 C39.4909195,105.295175 45.8366024,110.568214 53.4267463,110.568214 C61.0172585,110.568214 67.3629415,105.295175 68.823222,98.3072039 L107.171698,98.3072039 C108.631978,105.295175 114.977661,110.568214 122.568173,110.568214 C130.158317,110.568214 136.504368,105.295175 137.96428,98.3072039 L147.709673,98.3072039 C149.446173,98.3072039 150.85342,96.9360485 150.85342,95.2423107 L150.85342,58.4571262 C150.85342,57.6431262 150.520851,56.8643301 149.932688,56.2906505 Z M6.28528293,33.9343883 C6.28528293,18.7209223 18.9729659,6.34603883 34.5705293,6.34603883 C50.1669878,6.34603883 62.8557756,18.7223592 62.8557756,33.9343883 C62.8557756,49.1467767 50.1669878,61.5230971 34.5705293,61.5230971 C18.9729659,61.5230971 6.28528293,49.1482136 6.28528293,33.9343883 Z M53.4267463,104.437709 C48.2275585,104.437709 43.9980854,100.313825 43.9980854,95.2423107 C43.9980854,90.1711553 48.2275585,86.045835 53.4267463,86.045835 C58.6263024,86.045835 62.8557756,90.1711553 62.8557756,95.2423107 C62.8557756,100.313825 58.6263024,104.437709 53.4267463,104.437709 Z M94.2829268,92.1763398 L68.823222,92.1763398 C67.3629415,85.1898058 61.0172585,79.9149709 53.4267463,79.9149709 C45.8366024,79.9149709 39.4909195,85.1898058 38.030639,92.1763398 L37.7124341,92.1763398 C34.2453268,92.1763398 31.4271512,89.4261262 31.4271512,86.045835 L31.4271512,67.4980583 C32.4642634,67.5907379 33.5102146,67.6539612 34.5705293,67.6539612 C53.6296756,67.6539612 69.1410585,52.527068 69.1410585,33.9343883 C69.1410585,30.743767 68.653439,27.666301 67.8004732,24.7393495 L94.2829268,24.7393495 L94.2829268,92.1763398 Z M122.568173,104.437709 C117.368985,104.437709 113.139144,100.313825 113.139144,95.2423107 C113.139144,90.1711553 117.368985,86.045835 122.568173,86.045835 C127.767361,86.045835 131.995361,90.1711553 131.995361,95.2423107 C131.995361,100.313825 127.767361,104.437709 122.568173,104.437709 Z M144.567768,92.1763398 L137.96428,92.1763398 C136.504368,85.1898058 130.158317,79.9149709 122.568173,79.9149709 C114.977661,79.9149709 108.631978,85.1898058 107.171698,92.1763398 L100.56821,92.1763398 L100.56821,37.0007184 L121.267732,37.0007184 L144.567768,59.7269806 L144.567768,92.1763398 Z" id="path-6"></path>
        <filter x="-63.0%" y="-49.8%" width="226.0%" height="272.2%" filterUnits="objectBoundingBox" id="filter-7">
            <feOffset dx="0" dy="40" in="SourceAlpha" result="shadowOffsetOuter1"></feOffset>
            <feGaussianBlur stdDeviation="25" in="shadowOffsetOuter1" result="shadowBlurOuter1"></feGaussianBlur>
            <feColorMatrix values="0 0 0 0 0   0 0 0 0 0   0 0 0 0 0  0 0 0 0.1 0" type="matrix" in="shadowBlurOuter1"></feColorMatrix>
        </filter>
        <path d="M114.199855,45.999209 C114.199855,44.3415756 112.813552,43 111.100654,43 C109.386303,43 108,44.3415756 108,45.999209 L108,63.9990332 C108,65.6580728 109.386303,67 111.100654,67 L135.900799,67 C137.613334,67 139,65.6580728 139,63.9990332 C139,62.3417514 137.613334,60.9998242 135.900799,60.9998242 L114.199855,60.9998242 L114.199855,45.999209 Z" id="path-8"></path>
        <filter x="-306.5%" y="-229.2%" width="712.9%" height="891.7%" filterUnits="objectBoundingBox" id="filter-9">
            <feOffset dx="0" dy="40" in="SourceAlpha" result="shadowOffsetOuter1"></feOffset>
            <feGaussianBlur stdDeviation="25" in="shadowOffsetOuter1" result="shadowBlurOuter1"></feGaussianBlur>
            <feColorMatrix values="0 0 0 0 0   0 0 0 0 0   0 0 0 0 0  0 0 0 0.1 0" type="matrix" in="shadowBlurOuter1"></feColorMatrix>
        </filter>
    </defs>
    <g id="Page-1" stroke="none" stroke-width="1" fill="none" fill-rule="evenodd">
        <g id="BUY-INSTAGRAM-FOLLOWERS-Body" transform="translate(-603.000000, -62.000000)">
            <g id="Instant-Delivery-Copy" transform="translate(603.000000, 62.000000)">
                <g id="Unmatched-price">
                    <mask id="mask-2" fill="white">
                        <use xlink:href="#path-1"></use>
                    </mask>
                    <use id="Oval-2" fill="#F3B6F1" opacity="0.33910779" xlink:href="#path-1"></use>
                    <g id="Instant-Delivery-Copy-3" mask="url(#mask-2)">
                        <g transform="translate(77.000000, 107.000000)">
                            <g id="Group-4" stroke-width="1" fill-rule="evenodd">
                                <g id="Fill-1">
                                    <use fill="black" fill-opacity="1" filter="url(#filter-5)" xlink:href="#path-4"></use>
                                    <use fill="url(#linearGradient-3)" fill-rule="evenodd" xlink:href="#path-4"></use>
                                </g>
                                <g id="Fill-3">
                                    <use fill="black" fill-opacity="1" filter="url(#filter-7)" xlink:href="#path-6"></use>
                                    <use fill="url(#linearGradient-3)" fill-rule="evenodd" xlink:href="#path-6"></use>
                                </g>
                            </g>
                            <g id="Fill-5">
                                <use fill="black" fill-opacity="1" filter="url(#filter-9)" xlink:href="#path-8"></use>
                                <use fill="url(#linearGradient-3)" fill-rule="evenodd" xlink:href="#path-8"></use>
                            </g>
                        </g>
                    </g>
                </g>
            </g>
        </g>
    </g>
</svg>