<?xml version="1.0" encoding="UTF-8"?>
<svg width="299px" height="173px" viewBox="0 0 299 173" version="1.1" xmlns="http://www.w3.org/2000/svg" xmlns:xlink="http://www.w3.org/1999/xlink">
    <!-- Generator: Sketch 49.3 (51167) - http://www.bohemiancoding.com/sketch -->
    <title>View @2x</title>
    <desc>Created with Sketch.</desc>
    <defs>
        <linearGradient x1="97.2200046%" y1="2.68528005%" x2="8.47827327%" y2="95.8941684%" id="linearGradient-1">
            <stop stop-color="#FF5571" offset="0%"></stop>
            <stop stop-color="#FF92A4" offset="100%"></stop>
        </linearGradient>
        <rect id="path-2" x="0" y="0" width="199" height="73" rx="10"></rect>
        <filter x="-47.7%" y="-75.3%" width="195.5%" height="360.3%" filterUnits="objectBoundingBox" id="filter-3">
            <feOffset dx="0" dy="40" in="SourceAlpha" result="shadowOffsetOuter1"></feOffset>
            <feGaussianBlur stdDeviation="25" in="shadowOffsetOuter1" result="shadowBlurOuter1"></feGaussianBlur>
            <feColorMatrix values="0 0 0 0 0   0 0 0 0 0   0 0 0 0 0  0 0 0 0.1 0" type="matrix" in="shadowBlurOuter1"></feColorMatrix>
        </filter>
        <path d="M39.3979942,58.7959885 C34.2165373,58.7959885 29.3453341,56.7781574 25.6815388,53.1144497 C22.0177436,49.4506544 20,44.5794512 20,39.3979067 C20,34.2166248 22.0177436,29.3453341 25.6815388,25.6815388 C29.3453341,22.0177436 34.2165373,20 39.3979942,20 C44.5793637,20 49.4505669,22.0177436 53.1144497,25.6815388 C56.7782449,29.3453341 58.7959885,34.2166248 58.7959885,39.3979067 C58.7959885,44.5793637 56.7782449,49.4505669 53.1144497,53.1144497 C49.4505669,56.7781574 44.5793637,58.7959885 39.3979942,58.7959885 Z M39.3979942,25.02016 C35.5575863,25.02016 31.9470024,26.515767 29.2313847,29.2313847 C26.515767,31.9470024 25.02016,35.5575863 25.02016,39.3979942 C25.02016,43.2385773 26.5156795,46.8490736 29.2313847,49.5647788 C31.9470024,52.2802214 35.5575863,53.7758285 39.3979942,53.7758285 C43.2384022,53.7758285 46.8490736,52.2802214 49.5646038,49.5647788 C52.2802214,46.8490736 53.775741,43.2385773 53.775741,39.3979942 C53.775741,35.5575863 52.2802214,31.9470024 49.5646038,29.2313847 C46.8490736,26.515767 43.2384022,25.02016 39.3979942,25.02016 Z" id="path-4"></path>
        <filter x="-244.9%" y="-141.8%" width="589.7%" height="589.7%" filterUnits="objectBoundingBox" id="filter-5">
            <feOffset dx="0" dy="40" in="SourceAlpha" result="shadowOffsetOuter1"></feOffset>
            <feGaussianBlur stdDeviation="25" in="shadowOffsetOuter1" result="shadowBlurOuter1"></feGaussianBlur>
            <feColorMatrix values="0 0 0 0 0   0 0 0 0 0   0 0 0 0 0  0 0 0 0.1 0" type="matrix" in="shadowBlurOuter1"></feColorMatrix>
        </filter>
        <path d="M38.512071,42.7522384 C37.7517085,42.7522384 37.0003605,42.4078523 36.5068426,41.7542627 C35.6716517,40.6478513 35.8914986,39.0738275 36.99791,38.2386366 L44.5905071,32.5069496 C45.697181,31.6715836 47.2708547,31.8915181 48.1063082,32.9979295 C48.9414992,34.1043408 48.7215647,35.6783646 47.6152408,36.5136431 L40.0225562,42.2453301 C39.569822,42.5870031 39.038846,42.7522384 38.512071,42.7522384 Z" id="path-6"></path>
        <filter x="-753.2%" y="-511.5%" width="1606.4%" height="1867.1%" filterUnits="objectBoundingBox" id="filter-7">
            <feOffset dx="0" dy="40" in="SourceAlpha" result="shadowOffsetOuter1"></feOffset>
            <feGaussianBlur stdDeviation="25" in="shadowOffsetOuter1" result="shadowBlurOuter1"></feGaussianBlur>
            <feColorMatrix values="0 0 0 0 0   0 0 0 0 0   0 0 0 0 0  0 0 0 0.1 0" type="matrix" in="shadowBlurOuter1"></feColorMatrix>
        </filter>
    </defs>
    <g id="Page-1" stroke="none" stroke-width="1" fill="none" fill-rule="evenodd">
        <g id="BUY-INSTAGRAM-FOLLOWERS-Body" transform="translate(-553.000000, -273.000000)">
            <g id="Instant-Delivery-Copy" transform="translate(603.000000, 62.000000)">
                <g id="View-" transform="translate(0.000000, 221.000000)">
                    <g id="Rectangle-6-Copy">
                        <use fill="black" fill-opacity="1" filter="url(#filter-3)" xlink:href="#path-2"></use>
                        <use fill="url(#linearGradient-1)" fill-rule="evenodd" xlink:href="#path-2"></use>
                    </g>
                    <g id="Shape" fill-rule="nonzero">
                        <use fill="black" fill-opacity="1" filter="url(#filter-5)" xlink:href="#path-4"></use>
                        <use fill="#FFFFFF" fill-rule="evenodd" xlink:href="#path-4"></use>
                    </g>
                    <g id="Shape" fill-rule="nonzero">
                        <use fill="black" fill-opacity="1" filter="url(#filter-7)" xlink:href="#path-6"></use>
                        <use fill="#FFFFFF" fill-rule="evenodd" xlink:href="#path-6"></use>
                    </g>
                    <text id="View-Guarnteed" opacity="0.547384511" font-family="Ubuntu-Bold, Ubuntu" font-size="14" font-weight="bold" fill="#FFFFFF">
                        <tspan x="69" y="43">View Guarnteed</tspan>
                    </text>
                </g>
            </g>
        </g>
    </g>
</svg>