<?xml version="1.0" encoding="UTF-8"?>
<svg width="255px" height="129px" viewBox="0 0 255 129" version="1.1" xmlns="http://www.w3.org/2000/svg" xmlns:xlink="http://www.w3.org/1999/xlink">
    <!-- Generator: Sketch 49.3 (51167) - http://www.bohemiancoding.com/sketch -->
    <title>10 k followers copy 2@2x</title>
    <desc>Created with Sketch.</desc>
    <defs>
        <rect id="path-1" x="0" y="0" width="199" height="73" rx="10"></rect>
        <filter x="-26.1%" y="-43.8%" width="152.3%" height="242.5%" filterUnits="objectBoundingBox" id="filter-2">
            <feOffset dx="0" dy="20" in="SourceAlpha" result="shadowOffsetOuter1"></feOffset>
            <feGaussianBlur stdDeviation="14" in="shadowOffsetOuter1" result="shadowBlurOuter1"></feGaussianBlur>
            <feColorMatrix values="0 0 0 0 0   0 0 0 0 0   0 0 0 0 0  0 0 0 0.08 0" type="matrix" in="shadowBlurOuter1"></feColorMatrix>
        </filter>
    </defs>
    <g id="Page-1" stroke="none" stroke-width="1" fill="none" fill-rule="evenodd">
        <g id="BUY-INSTAGRAM-LIKES-Copy" transform="translate(-516.000000, -689.000000)">
            <g id="Group-3-Copy" transform="translate(260.000000, 487.000000)">
                <g id="10-k-followers-copy-2" transform="translate(284.000000, 210.000000)">
                    <g id="Rectangle-6-Copy">
                        <use fill="black" fill-opacity="1" filter="url(#filter-2)" xlink:href="#path-1"></use>
                        <use fill="#FFFFFF" fill-rule="evenodd" xlink:href="#path-1"></use>
                    </g>
                    <text id="Delay-Likes" font-family="Ubuntu-Bold, Ubuntu" font-size="14" font-weight="bold" fill="#B4C2C4">
                        <tspan x="81" y="43">Delay Likes</tspan>
                    </text>
                    <path d="M37.3144531,59.272551 C31.1820461,59.272551 25.4168335,56.8843884 21.0806239,52.5482824 C16.7444142,48.2120727 14.3563553,42.4468602 14.3563553,36.3143495 C14.3563553,30.1821497 16.7444142,24.4168335 21.0806239,20.0806239 C25.4168335,15.7444142 31.1820461,13.3563553 37.3144531,13.3563553 C43.4467566,13.3563553 49.2119691,15.7444142 53.5482824,20.0806239 C57.884492,24.4168335 60.272551,30.1821497 60.272551,36.3143495 C60.272551,42.4467566 57.884492,48.2119691 53.5482824,52.5482824 C49.2119691,56.8843884 43.4467566,59.272551 37.3144531,59.272551 Z M37.3144531,19.2978626 C32.7692171,19.2978626 28.4959847,21.0679576 25.2819711,24.2819711 C22.0679576,27.4959847 20.2978626,31.7692171 20.2978626,36.3144531 C20.2978626,40.8598963 22.067854,45.1330252 25.2819711,48.3471423 C28.4959847,51.5609487 32.7692171,53.3310437 37.3144531,53.3310437 C41.8596891,53.3310437 46.1330252,51.5609487 49.3469351,48.3471423 C52.5609487,45.1330252 54.3309401,40.8598963 54.3309401,36.3144531 C54.3309401,31.7692171 52.5609487,27.4959847 49.3469351,24.2819711 C46.1330252,21.0679576 41.8596891,19.2978626 37.3144531,19.2978626 Z" id="Shape" fill="#4EF0B4" fill-rule="nonzero"></path>
                    <path d="M27.7988896,47.0207948 C26.8989782,47.0207948 26.0097357,46.6132038 25.4256427,45.8396612 C24.4371696,44.5301907 24.697365,42.6672872 26.0068354,41.6788141 L34.9928979,34.8951936 C36.3026791,33.9065133 38.1651683,34.1668123 39.1539521,35.4762827 C40.1424252,36.7857532 39.8821263,38.6486567 38.5727594,39.6372334 L29.5865933,46.4208539 C29.050769,46.825234 28.4223434,47.0207948 27.7988896,47.0207948 Z" id="Shape" fill="#4EF0B4" fill-rule="nonzero"></path>
                </g>
            </g>
        </g>
    </g>
</svg>