<?xml version="1.0" encoding="UTF-8"?>
<svg width="299px" height="173px" viewBox="0 0 299 173" version="1.1" xmlns="http://www.w3.org/2000/svg" xmlns:xlink="http://www.w3.org/1999/xlink">
    <!-- Generator: Sketch 49.3 (51167) - http://www.bohemiancoding.com/sketch -->
    <title>Refill followers@2x</title>
    <desc>Created with Sketch.</desc>
    <defs>
        <linearGradient x1="97.2200046%" y1="2.68528005%" x2="8.47827327%" y2="95.8941684%" id="linearGradient-1">
            <stop stop-color="#55FFBB" offset="0%"></stop>
            <stop stop-color="#47E0AC" offset="100%"></stop>
        </linearGradient>
        <rect id="path-2" x="0" y="0" width="199" height="73" rx="10"></rect>
        <filter x="-47.7%" y="-75.3%" width="195.5%" height="360.3%" filterUnits="objectBoundingBox" id="filter-3">
            <feOffset dx="0" dy="40" in="SourceAlpha" result="shadowOffsetOuter1"></feOffset>
            <feGaussianBlur stdDeviation="25" in="shadowOffsetOuter1" result="shadowBlurOuter1"></feGaussianBlur>
            <feColorMatrix values="0 0 0 0 0   0 0 0 0 0   0 0 0 0 0  0 0 0 0.1 0" type="matrix" in="shadowBlurOuter1"></feColorMatrix>
        </filter>
    </defs>
    <g id="Page-1" stroke="none" stroke-width="1" fill="none" fill-rule="evenodd">
        <g id="BUY-INSTAGRAM-FOLLOWERS-Body" transform="translate(-220.000000, -67.000000)">
            <g id="Followers-Refill" transform="translate(105.000000, 62.000000)">
                <g id="Refill-followers" transform="translate(165.000000, 15.000000)">
                    <g id="Rectangle-6-Copy">
                        <use fill="black" fill-opacity="1" filter="url(#filter-3)" xlink:href="#path-2"></use>
                        <use fill="url(#linearGradient-1)" fill-rule="evenodd" xlink:href="#path-2"></use>
                    </g>
                    <path d="M48,37.0447392 C48.0202683,37.0301836 48.0398931,37.014862 48.0601613,37 C48.0908854,37.0281918 48.121127,37.0565369 48.1568377,37.0807451 C48.169063,37.089172 48.1101885,37.0750761 48,37.0447392 M41.001467,37.0709392 C41.0328345,37.0497953 41.0588937,37.0243614 41.0864006,37 C41.1007171,37.0105719 41.1148727,37.0217567 41.12935,37.0320222 C41.0383038,37.0631252 40.9908503,37.0775275 41.001467,37.0709392 M57.9981499,43.7093922 L57.9981499,43.6903933 C57.9981499,43.6396787 57.9915546,43.5888108 57.9915546,43.5321207 C57.9519833,42.2775844 57.8667279,39.3442555 55.0138905,38.406724 C54.9941048,38.4002889 54.9678848,38.3941603 54.9480991,38.3877252 C52.3677571,37.7535623 50.1665602,36.4237967 49.6220519,36.0770679 C51.7132211,33.2923589 51.3368106,29.0641977 51.2933787,28.6394817 C51.1289806,25.2624379 49.4726137,23.6472301 48.1053107,22.8932519 C47.0865896,22.3294154 45.8967143,22.0255871 44.5689826,22 L44.4571855,22 C43.7275283,22 42.2945948,22.113993 40.9206966,22.8681244 C39.540364,23.6216429 37.8576162,25.2371572 37.6932181,28.6394817 C37.6497862,29.0643509 37.2733757,33.2941975 39.3659927,36.0789065 C38.8044333,36.4368201 36.6251132,37.7515705 34.0516882,38.3811369 C34.0254681,38.3877252 34.0058433,38.3941603 33.9860576,38.4002889 C31.1332202,39.3442555 31.047804,42.2775844 31.0083935,43.5255324 C31.0083935,43.5823757 31.0083935,43.6330904 31.0017982,43.683805 L31.0017982,43.7029571 C30.995203,44.0323724 30.9886078,45.7238821 31.3368679,46.572548 C31.4028202,46.7374089 31.5210517,46.8769891 31.6786936,46.9719833 C31.875907,47.0985401 36.6021104,50 44.5097865,50 C52.4174626,50 57.1436659,47.092105 57.3408793,46.9719833 C57.4920869,46.8769891 57.6169136,46.7374089 57.682705,46.572548 C58.0113403,45.7300107 58.0047451,44.0385011 57.9981499,43.7093922" id="Fill-1" fill="#FFFFFF" opacity="0.459352355"></path>
                    <text id="Refill-Followers" opacity="0.578521286" font-family="Ubuntu-Bold, Ubuntu" font-size="14" font-weight="bold" fill="#FFFFFF">
                        <tspan x="68" y="43">Refill Followers</tspan>
                    </text>
                </g>
            </g>
        </g>
    </g>
</svg>