<?xml version="1.0" encoding="UTF-8"?>
<svg width="300px" height="173px" viewBox="0 0 300 173" version="1.1" xmlns="http://www.w3.org/2000/svg" xmlns:xlink="http://www.w3.org/1999/xlink">
    <!-- Generator: Sketch 49.3 (51167) - http://www.bohemiancoding.com/sketch -->
    <title>Following@2x</title>
    <desc>Created with Sketch.</desc>
    <defs>
        <linearGradient x1="97.2200046%" y1="2.68528005%" x2="8.47827327%" y2="95.8941684%" id="linearGradient-1">
            <stop stop-color="#7DACFF" offset="0%"></stop>
            <stop stop-color="#92C6FF" offset="100%"></stop>
        </linearGradient>
        <rect id="path-2" x="0" y="0" width="200" height="73" rx="10"></rect>
        <filter x="-47.5%" y="-75.3%" width="195.0%" height="360.3%" filterUnits="objectBoundingBox" id="filter-3">
            <feOffset dx="0" dy="40" in="SourceAlpha" result="shadowOffsetOuter1"></feOffset>
            <feGaussianBlur stdDeviation="25" in="shadowOffsetOuter1" result="shadowBlurOuter1"></feGaussianBlur>
            <feColorMatrix values="0 0 0 0 0   0 0 0 0 0   0 0 0 0 0  0 0 0 0.1 0" type="matrix" in="shadowBlurOuter1"></feColorMatrix>
        </filter>
        <path d="M59,44.065511 C59.030027,44.0441975 59.0591009,44.0217622 59.0891279,44 C59.1346451,44.0412809 59.1794473,44.0827861 59.2323521,44.1182339 C59.2504637,44.1305732 59.1632423,44.1099328 59,44.065511 M47.0021733,44.1038753 C47.0486438,44.0729146 47.08725,44.0356721 47.128001,44 C47.1492105,44.0154803 47.1701818,44.0318581 47.1916297,44.0468897 C47.0567463,44.0924333 46.9864449,44.1135224 47.0021733,44.1038753 M72.9972591,53.7887528 L72.9972591,53.7609331 C72.9972591,53.6866724 72.9874884,53.6121873 72.9874884,53.5291768 C72.9288641,51.6921772 72.8025599,47.3969455 68.5761341,46.0241316 C68.5468219,46.0147088 68.5079774,46.0057347 68.4786653,45.9963119 C64.6559364,45.0677162 61.3949039,43.1205595 60.588225,42.6128494 C63.6862535,38.5352398 63.1286084,32.3440038 63.0642647,31.7220982 C62.820712,26.7771412 60.3668351,24.4120155 58.341201,23.307976 C56.8319845,22.4823582 55.0692063,22.0374669 53.1021965,22 L52.9365711,22 C51.8555975,22 49.732733,22.1669184 47.6973283,23.2711822 C45.6523911,24.3745486 43.1594314,26.740123 42.9158787,31.7220982 C42.8515351,32.3442281 42.2938899,38.537932 45.3940632,42.6155416 C44.5621234,43.1396294 41.3335011,45.0647996 37.5210195,45.9866647 C37.482175,45.9963119 37.4531012,46.0057347 37.4237891,46.0147088 C33.1973632,47.3969455 33.0708207,51.6921772 33.0124348,53.5195296 C33.0124348,53.6027645 33.0124348,53.6770252 33.0026641,53.7512859 L33.0026641,53.77933 C32.9928934,54.2616882 32.9831227,56.7385416 33.4990636,57.981231 C33.5967706,58.2226344 33.7719284,58.4270197 34.0054721,58.5661184 C34.29764,58.7514337 41.2994228,63 53.0144985,63 C64.7295742,63 71.7313569,58.7420109 72.0235249,58.5661184 C72.2475362,58.4270197 72.4324646,58.2226344 72.5299334,57.981231 C73.0168005,56.7475157 73.0070298,54.2706623 72.9972591,53.7887528" id="path-4"></path>
    </defs>
    <g id="Page-1" stroke="none" stroke-width="1" fill="none" fill-rule="evenodd">
        <g id="BUY-INSTAGRAM-FOLLOWERS-Body" transform="translate(-55.000000, -247.000000)">
            <g id="Followers-Refill" transform="translate(105.000000, 62.000000)">
                <g id="Following" transform="translate(0.000000, 195.000000)">
                    <g id="Rectangle-6-Copy">
                        <use fill="black" fill-opacity="1" filter="url(#filter-3)" xlink:href="#path-2"></use>
                        <use fill="url(#linearGradient-1)" fill-rule="evenodd" xlink:href="#path-2"></use>
                    </g>
                    <path d="M40,33.065511 C40.030027,33.0441975 40.0591009,33.0217622 40.0891279,33 C40.1346451,33.0412809 40.1794473,33.0827861 40.2323521,33.1182339 C40.2504637,33.1305732 40.1632423,33.1099328 40,33.065511 M28.0021733,33.1038753 C28.0486438,33.0729146 28.08725,33.0356721 28.128001,33 C28.1492105,33.0154803 28.1701818,33.0318581 28.1916297,33.0468897 C28.0567463,33.0924333 27.9864449,33.1135224 28.0021733,33.1038753 M53.9972591,42.7887528 L53.9972591,42.7609331 C53.9972591,42.6866724 53.9874884,42.6121873 53.9874884,42.5291768 C53.9288641,40.6921772 53.8025599,36.3969455 49.5761341,35.0241316 C49.5468219,35.0147088 49.5079774,35.0057347 49.4786653,34.9963119 C45.6559364,34.0677162 42.3949039,32.1205595 41.588225,31.6128494 C44.6862535,27.5352398 44.1286084,21.3440038 44.0642647,20.7220982 C43.820712,15.7771412 41.3668351,13.4120155 39.341201,12.307976 C37.8319845,11.4823582 36.0692063,11.0374669 34.1021965,11 L33.9365711,11 C32.8555975,11 30.732733,11.1669184 28.6973283,12.2711822 C26.6523911,13.3745486 24.1594314,15.740123 23.9158787,20.7220982 C23.8515351,21.3442281 23.2938899,27.537932 26.3940632,31.6155416 C25.5621234,32.1396294 22.3335011,34.0647996 18.5210195,34.9866647 C18.482175,34.9963119 18.4531012,35.0057347 18.4237891,35.0147088 C14.1973632,36.3969455 14.0708207,40.6921772 14.0124348,42.5195296 C14.0124348,42.6027645 14.0124348,42.6770252 14.0026641,42.7512859 L14.0026641,42.77933 C13.9928934,43.2616882 13.9831227,45.7385416 14.4990636,46.981231 C14.5967706,47.2226344 14.7719284,47.4270197 15.0054721,47.5661184 C15.29764,47.7514337 22.2994228,52 34.0144985,52 C45.7295742,52 52.7313569,47.7420109 53.0235249,47.5661184 C53.2475362,47.4270197 53.4324646,47.2226344 53.5299334,46.981231 C54.0168005,45.7475157 54.0070298,43.2706623 53.9972591,42.7887528" id="Fill-1" fill="#D4E4F9" opacity="0.506397192"></path>
                    <g id="Fill-1-Copy-8">
                        <use fill="#D4E4F9" fill-rule="evenodd" xlink:href="#path-4"></use>
                        <path stroke="#8DBFFF" stroke-width="1" d="M58.7105905,43.657783 C58.7260848,43.6466336 58.7260848,43.6466336 58.7460975,43.6317782 C58.7514664,43.6277818 58.7514664,43.6277818 58.7571313,43.6235644 C58.7750235,43.6102589 58.7750235,43.6102589 58.7957095,43.5951474 L59.1243647,43.3569533 L59.4250258,43.6296318 C59.4275894,43.6319574 59.4275894,43.6319574 59.4300973,43.6342341 C59.4332433,43.6370908 59.4332433,43.6370908 59.436301,43.6398674 C59.4796601,43.6792364 59.4965064,43.6933655 59.5138743,43.7050205 C59.5591336,43.7337844 59.5591336,43.7337844 59.6607931,43.8588359 C59.7747232,44.2353929 59.7747232,44.2353929 59.4738389,44.5601996 C59.2108071,44.632491 59.2108071,44.632491 59.1723324,44.6184899 C59.1110495,44.6093594 59.1110495,44.6093594 59.0723106,44.6004816 C59.0251105,44.589646 58.9582198,44.5723237 58.8687131,44.5479669 L57.8478474,44.2701668 L58.7105905,43.657783 Z M46.7305786,43.6835381 C46.736825,43.6785201 46.7477923,43.6690368 46.7689409,43.6501488 C46.769799,43.6493824 46.769799,43.6493824 46.7706689,43.6486055 C46.7834669,43.6371758 46.7834669,43.6371758 46.7986705,43.6237801 L47.0996624,43.3603017 L47.4227737,43.5961324 C47.4371432,43.6067024 47.4371432,43.6067024 47.448936,43.6155303 C47.4511449,43.6171854 47.4511449,43.6171854 47.4532542,43.6187664 C47.4700233,43.6313037 47.4700233,43.6313037 47.4785928,43.6374362 L48.2877372,44.2045203 L47.3515835,44.5206141 C47.2801379,44.5447378 47.2237387,44.5630769 47.1843453,44.5749173 C47.153565,44.5841444 47.153565,44.5841444 47.1067554,44.5952243 C47.0843554,44.6096692 47.0843554,44.6096692 46.8232155,44.5736681 C46.4266797,44.1185964 46.4266797,44.1185964 46.6225791,43.7776337 C46.6986948,43.7055686 46.70772,43.6970237 46.7305786,43.6835381 Z M37.5759108,46.4910195 C35.7005546,47.1053835 34.5782474,48.3563911 33.9999131,50.1226009 C33.6598088,51.1612658 33.5596474,52.0498626 33.5124348,53.5195296 C33.5124348,53.6448886 33.5108735,53.7088187 33.5025803,53.7824777 L33.5025615,53.789456 C33.4931449,54.2543355 33.5049463,54.9075422 33.5524,55.5588215 C33.6219942,56.5139691 33.7575175,57.2997752 33.9625396,57.793641 C34.01968,57.934817 34.1224437,58.0538203 34.2732823,58.143889 C35.1396396,58.6933992 36.9480013,59.5649008 39.3847086,60.3782774 C43.3644523,61.706722 47.9288114,62.5 53.0144985,62.5 C58.1908248,62.5 62.8221068,61.6773355 66.8451899,60.3069617 C68.1996041,59.8456106 69.3912705,59.3522517 70.4147608,58.8564764 C71.0478308,58.5498194 71.4443028,58.3312079 71.7597652,58.1413469 C71.9028726,58.0524851 72.0124629,57.92737 72.0648396,57.7976887 C72.2573362,57.3099045 72.3854507,56.5244065 72.4510079,55.5688423 C72.4957314,54.9169527 72.5066902,54.2589831 72.4973618,53.7988882 L72.4972591,53.7887528 L72.4972591,53.7609331 C72.4972591,53.7446222 72.496665,53.7324799 72.4933886,53.6801766 C72.4892516,53.6158453 72.4874884,53.577699 72.4877428,53.5451252 C72.4403582,52.0603211 72.3412592,51.1751571 72.0047148,50.1397591 C71.4279144,48.3651993 70.304178,47.1111444 68.4231139,46.5001409 C68.4195879,46.4990728 68.4195879,46.4990728 68.3971022,46.4929458 C68.3684705,46.4852751 68.3684705,46.4852751 68.3606404,46.4821823 C66.6191105,46.0591397 64.8753491,45.4050232 63.1867874,44.597858 C62.0386738,44.0490376 61.0579316,43.499263 60.3218931,43.0360128 L59.8597616,42.7451552 L60.190099,42.3103668 C61.4929303,40.5955868 62.2305302,38.351089 62.515258,35.815783 C62.619064,34.8914616 62.655486,33.9832961 62.6402667,33.1215598 C62.63028,32.5560987 62.6007131,32.1001821 62.56487,31.7466947 C62.365266,27.6940473 60.6687606,25.1460183 58.1012356,23.7466292 C56.6590298,22.9576696 54.9736314,22.5357371 53.1021965,22.5 L52.9365711,22.5 C51.297815,22.5 49.5312371,22.8450801 47.9347528,23.7112158 C45.331317,25.1159257 43.6146438,27.6684876 43.4132258,31.7735362 C43.3794299,32.1003044 43.3498715,32.5563853 43.3399107,33.1220491 C43.3247308,33.9840983 43.3612265,34.8925684 43.4651485,35.8171683 C43.7501937,38.3532316 44.4883698,40.5981657 45.7920884,42.3129264 L46.1225445,42.7475701 L45.6605696,43.0385952 C44.9169018,43.5070753 43.9368378,44.0563438 42.7905355,44.6032124 C41.112546,45.4037341 39.376921,46.0523137 37.6415351,46.4719234 C37.624519,46.4761494 37.6139754,46.4792455 37.575984,46.4910084 Z"></path>
                    </g>
                    <text id="15,300-Following" opacity="0.547384511" font-family="Ubuntu-Bold, Ubuntu" font-size="14" font-weight="bold" fill="#FFFFFF">
                        <tspan x="73" y="41">15,300 Following</tspan>
                    </text>
                </g>
            </g>
        </g>
    </g>
</svg>