<?xml version="1.0" encoding="UTF-8"?>
<svg width="294px" height="173px" viewBox="0 0 294 173" version="1.1" xmlns="http://www.w3.org/2000/svg" xmlns:xlink="http://www.w3.org/1999/xlink">
    <!-- Generator: Sketch 49.3 (51167) - http://www.bohemiancoding.com/sketch -->
    <title>10 k followers copy@2x</title>
    <desc>Created with Sketch.</desc>
    <defs>
        <linearGradient x1="97.2200046%" y1="2.68528005%" x2="8.47827327%" y2="95.8941684%" id="linearGradient-1">
            <stop stop-color="#55FFBB" offset="0%"></stop>
            <stop stop-color="#47E0AC" offset="100%"></stop>
        </linearGradient>
        <rect id="path-2" x="0" y="0" width="199" height="73" rx="10"></rect>
        <filter x="-47.7%" y="-75.3%" width="195.5%" height="360.3%" filterUnits="objectBoundingBox" id="filter-3">
            <feOffset dx="0" dy="40" in="SourceAlpha" result="shadowOffsetOuter1"></feOffset>
            <feGaussianBlur stdDeviation="25" in="shadowOffsetOuter1" result="shadowBlurOuter1"></feGaussianBlur>
            <feColorMatrix values="0 0 0 0 0   0 0 0 0 0   0 0 0 0 0  0 0 0 0.1 0" type="matrix" in="shadowBlurOuter1"></feColorMatrix>
        </filter>
    </defs>
    <g id="Page-1" stroke="none" stroke-width="1" fill="none" fill-rule="evenodd">
        <g id="Buy-Instagram-Views-Assets" transform="translate(-1220.000000, -106.000000)">
            <g id="Customer-Support" transform="translate(1103.000000, 62.000000)">
                <g id="10-k-followers-copy" transform="translate(167.000000, 54.000000)">
                    <g id="Rectangle-6-Copy">
                        <use fill="black" fill-opacity="1" filter="url(#filter-3)" xlink:href="#path-2"></use>
                        <use fill="url(#linearGradient-1)" fill-rule="evenodd" xlink:href="#path-2"></use>
                    </g>
                    <path d="M42.1477182,42.8775055 L42.1477182,42.2779611 C42.3248677,42.1410853 42.4948845,41.9910718 42.6587265,41.8347442 C43.9678659,40.4554965 44.7921862,38.7186812 45.0158588,36.8680065 C46.1927749,36.6965043 47.2532236,36.0933954 47.9730001,35.1863896 C48.9611625,33.8505266 49.0497372,31.9274421 48.2250976,29.515821 C48.1767647,29.3770102 48.0807377,29.2572439 47.9526662,29.1768905 L47.5780333,28.9358302 C47.633286,26.7597699 46.8468655,24.6409448 45.3701579,22.9847885 C43.5374479,21.01007 40.7238148,20.0127303 36.9964349,20 C33.2766137,20 30.4557413,21.01007 28.6231377,22.9590224 C27.1464301,24.6146696 26.3600096,26.733902 26.4152624,28.9095549 L26.0406294,29.1510226 C25.912558,29.231376 25.8164245,29.350735 25.7681981,29.4899531 C24.9435584,31.9147119 25.0321332,33.8242514 26.0201891,35.1605217 C26.7371977,36.0735362 27.7976464,36.6837741 28.9774368,36.8615904 C29.2019611,38.7151168 30.02873,40.4543763 31.3415955,41.8347442 C31.5037342,41.9907663 31.6742833,42.1387429 31.8527103,42.2779611 L31.8527103,42.8775055 C29.2427353,43.3600335 18.824979,45.6999577 19.002235,52.3480068 C19.002235,52.7080187 19.307456,53 19.6837924,53 L54.3165297,53 C54.6925466,53 54.9977676,52.7080187 54.9977676,52.3480068 C55.1749172,45.6999577 44.7571609,43.3600335 42.1477182,42.8775055 Z M28.9811253,34.9933316 C28.3972755,34.8090404 27.8883802,34.4589479 27.5243465,33.9912485 L27.5587096,33.9975128 C26.8715559,33.0535259 26.8094876,31.6243603 27.42115,29.7362856 L27.9228506,29.4193331 C28.1341834,29.2866718 28.2503735,29.0558027 28.2252455,28.8182651 C28.1099145,26.8855321 28.7776316,24.9836153 30.0948104,23.4964545 C31.6476984,21.8407644 34.1426709,21.0131719 37.4825451,21.0001382 C40.8227414,20.9875086 43.3173918,21.8407644 44.8984145,23.4964545 C46.2150564,24.9836153 46.8833104,26.8855321 46.7675499,28.8182651 C46.7427441,29.0558027 46.8589342,29.2866718 47.0699448,29.4193331 L47.5716454,29.7362856 C48.1832004,31.6180961 48.1421795,33.0535259 47.4340858,33.9975128 C47.0679045,34.4656163 46.5565393,34.8157089 45.9705418,35 C46.7994431,34.1123917 47.204605,32.9433958 47.0905626,31.7668222 C46.9617012,31.0587563 46.5695328,30.4170715 45.9839649,29.9560406 C45.6886574,23.4896851 40.8710645,22.7654532 38.7955359,22.7654532 C38.3559036,22.7643418 37.9171303,22.7946529 37.4825451,22.8562853 C37.0483894,22.7946529 36.6091866,22.7643418 36.1699838,22.7654532 C34.1083079,22.7654532 29.2973728,23.4766513 28.9811253,29.9560406 C28.3922284,30.4135353 27.9949056,31.0528962 27.8611045,31.7601538 C27.7466325,32.9370305 28.1517944,34.1065315 28.9811253,34.9933316 Z M44,29.9763893 C41.1564403,30.1429183 38.3307745,29.4255047 35.9020594,27.9203176 C35.6274022,27.725409 35.2522632,27.7629985 35.0211234,28.0094187 C33.6657314,29.4832276 31.19244,29.825817 30,29.9011031 C30.3656096,25.0555895 33.2662396,24.0001915 35.7056488,24.0001915 C36.094023,23.9971929 36.4815501,24.0294278 36.8645243,24.0959323 C36.9538885,24.1143522 37.0461115,24.1143522 37.1354757,24.0959323 C37.5180264,24.0294278 37.905977,23.9971929 38.2943512,24.0001915 C40.713537,24.0001915 43.6272963,25.082791 43.966012,29.9697495 L44,29.9763893 Z M30.3765772,35.0449282 L30.4034251,35.0511778 C30.4046739,34.892114 30.3452546,34.7381911 30.2367182,34.6188429 C29.324201,33.6060964 28.9047282,32.6835667 29.0181555,31.9224192 C29.0721635,31.4983499 29.2884038,31.1093593 29.624211,30.8321569 C30.5030122,30.8321569 33.6199729,30.6706738 35.6178539,29 C37.8681886,30.252955 40.4153073,30.9199544 43.0107107,30.9352762 C43.4567192,30.9352762 43.9094918,30.9352762 44.3826604,30.8644131 C44.709102,31.1341563 44.9221164,31.5105468 44.9818478,31.9224192 C45.0952751,32.6705634 44.6756982,33.6060964 43.763181,34.6188429 C43.6546446,34.7381911 43.5953294,34.892114 43.5964741,35.0511778 L43.5964741,35.3866432 L39.7205913,37.399536 C38.9515752,36.6939298 37.737383,36.7261861 37.008951,37.4712055 C36.2808311,38.2165272 36.3138187,39.3923695 37.083251,40.0979757 C37.8523712,40.8031787 39.0665634,40.7712248 39.7945792,40.025903 C40.1323635,39.6805592 40.3201949,39.2234272 40.3197787,38.7477478 C40.3230046,38.6898881 40.3230046,38.6316252 40.3197787,38.5736647 L43.377008,36.986454 C43.1143562,38.258662 42.4973742,39.4368227 41.5921413,40.3928183 C40.4112489,41.4937655 38.8132771,42.0729674 37.1763863,41.9926291 L36.8434928,41.9926291 C35.2101401,42.0714554 33.6154983,41.4949751 32.4347099,40.3991687 C30.3298535,38.3670229 30.3765772,35.0771845 30.3765772,35.0449282 Z M39,39.5 C39,39.7761194 38.7761102,40 38.4998245,40 C38.223802,40 38,39.7761194 38,39.5 C38,39.2238806 38.223802,39 38.4998245,39 C38.7761102,39 39,39.2238806 39,39.5 Z M36,51 L20,51 C20.5408433,46.4124536 28.8963263,44.494669 31.510616,44 L31.510616,45.0930819 C31.510616,46.4795484 33.3993972,47.5364583 36,47.7135962 L36,51 Z M33,45.391594 L33,43 C34.1957059,43.534366 35.5020234,43.7997617 36.8201439,43.7764719 L37.1798561,43.7764719 C38.4979766,43.7997617 39.8042941,43.534366 41,43 L41,45.391594 C41,46.0504252 39.4389613,47 36.9997752,47 C34.5610387,47 33,46.0504252 33,45.391594 Z M38,51 L38,47.6893543 C40.6006028,47.530541 42.489384,46.4677138 42.489384,45.06884 L42.489384,44 C45.124097,44.4883699 53.4386265,46.4065363 54,51 L38,51 Z" id="Fill-1" fill="#FFFFFF" opacity="0.319463315"></path>
                    <text id="Persistent-Support" opacity="0.859997736" font-family="Ubuntu-Bold, Ubuntu" font-size="14" font-weight="bold" fill="#FFFFFF">
                        <tspan x="55" y="42">Persistent Support</tspan>
                    </text>
                </g>
            </g>
        </g>
    </g>
</svg>