<?xml version="1.0" encoding="utf-8"?>
<!-- Generator: Adobe Illustrator 16.0.0, SVG Export Plug-In . SVG Version: 6.00 Build 0)  -->
<!DOCTYPE svg PUBLIC "-//W3C//DTD SVG 1.1//EN" "http://www.w3.org/Graphics/SVG/1.1/DTD/svg11.dtd">
<svg version="1.1" id="Layer_1" xmlns="http://www.w3.org/2000/svg" xmlns:xlink="http://www.w3.org/1999/xlink" x="0px" y="0px"
	 width="1650px" height="630px" viewBox="0 0 1650 630" enable-background="new 0 0 1650 630" xml:space="preserve">
<path opacity="0.1" fill="none" stroke="#22D5DA" stroke-width="11.3386" stroke-linecap="round" stroke-linejoin="round" stroke-miterlimit="10" d="
	M1539.586,261.848c-3.067-15.471-25.463-18.982-31.027-2.851c-3.832,11.111,5.525,27.055,15.609,47.55
	c20.569-9.922,37.764-16.706,41.597-27.818C1571.35,262.536,1551.441,251.636,1539.586,261.848z"/>
<circle opacity="0.1" fill="none" stroke="#22D5DA" stroke-width="11.3386" stroke-linecap="round" stroke-linejoin="round" stroke-miterlimit="10" cx="863.403" cy="129.99" r="23.663"/>
<path opacity="0.1" fill="none" stroke="#22D5DA" stroke-width="11.3386" stroke-linecap="round" stroke-linejoin="round" stroke-miterlimit="10" d="
	M964.687,487.133c-13.811-7.616-30.921,7.255-22.162,21.901c6.032,10.088,24.255,13.195,46.429,18.682
	c5.656-22.127,11.539-39.649,5.508-49.738C985.67,463.277,964.51,471.487,964.687,487.133z"/>
<circle opacity="0.1" fill="none" stroke="#22D5DA" stroke-width="11.3386" stroke-linecap="round" stroke-linejoin="round" stroke-miterlimit="10" cx="580.739" cy="566.565" r="23.663"/>
<polyline opacity="0.1" fill="none" stroke="#22D5DA" stroke-width="11" stroke-linecap="round" stroke-linejoin="round" stroke-miterlimit="10" points="
	113.694,466.214 141.5,444.652 141.5,474.461 173.5,451.245 173.5,480 "/>
<polyline opacity="0.1" fill="none" stroke="#22D5DA" stroke-width="11.3386" stroke-linecap="round" stroke-linejoin="round" stroke-miterlimit="10" points="
	605.824,350.043 612.019,315.426 631.948,337.593 640.305,298.86 659.583,320.303 "/>
<path opacity="0.1" fill="none" stroke="#22D5DA" stroke-width="11.3386" stroke-linecap="round" stroke-linejoin="round" stroke-miterlimit="10" d="
	M558.088,67.594c-5.986-14.592-28.639-13.73-30.996,3.171c-1.624,11.642,10.626,25.486,24.464,43.66
	c18.277-13.694,33.845-23.659,35.469-35.301C589.391,62.16,567.758,55.292,558.088,67.594z"/>
<polygon opacity="0.1" fill="none" stroke="#22D5DA" stroke-width="11.3386" stroke-linecap="round" stroke-linejoin="round" stroke-miterlimit="10" points="
	100.399,95.98 127.748,105.32 110.625,155.46 101.537,136.946 83.193,145.951 "/>
<polygon opacity="0.1" fill="none" stroke="#22D5DA" stroke-width="11.3386" stroke-linecap="round" stroke-linejoin="round" stroke-miterlimit="10" points="
	1373.539,56.948 1390.382,33.464 1433.438,64.342 1413.087,67.693 1416.409,87.857 "/>
</svg>
