<?xml version="1.0" encoding="utf-8"?>
<!-- Generator: Adobe Illustrator 16.0.0, SVG Export Plug-In . SVG Version: 6.00 Build 0)  -->
<!DOCTYPE svg PUBLIC "-//W3C//DTD SVG 1.1//EN" "http://www.w3.org/Graphics/SVG/1.1/DTD/svg11.dtd">
<svg version="1.1" id="Layer_1" xmlns="http://www.w3.org/2000/svg" xmlns:xlink="http://www.w3.org/1999/xlink" x="0px" y="0px"
	 width="1650px" height="630px" viewBox="0 0 1650 630" enable-background="new 0 0 1650 630" xml:space="preserve">
<polygon opacity="0.1" fill="none" stroke="#C7A7F7" stroke-width="11" stroke-linecap="round" stroke-linejoin="round" stroke-miterlimit="10" points="
	840.341,119.243 836.781,172.526 892.939,149.518 "/>
<polygon opacity="0.1" fill="none" stroke="#C7A7F7" stroke-width="11" stroke-linecap="round" stroke-linejoin="round" stroke-miterlimit="10" points="
	103.791,511.315 119.677,562.3 163.767,520.595 "/>
<polygon opacity="0.1" fill="none" stroke="#C7A7F7" stroke-width="11" stroke-linecap="round" stroke-linejoin="round" stroke-miterlimit="10" points="
	1095.1,414.4 1104.811,466.912 1153.546,430.746 "/>
<g opacity="0.1">
	
		<rect x="140.657" y="97.734" transform="matrix(0.9843 0.1766 -0.1766 0.9843 23.9888 -27.0836)" fill="none" stroke="#C7A7F7" stroke-width="11" stroke-linecap="round" stroke-linejoin="round" stroke-miterlimit="10" width="47" height="47"/>
	
		<polygon fill="none" stroke="#C7A7F7" stroke-width="11" stroke-linecap="round" stroke-linejoin="round" stroke-miterlimit="10" points="
		203.618,147.618 185.787,133.751 188.833,116.771 210.417,109.723 	"/>
	<circle fill="#C7A7F7" cx="164.099" cy="121.563" r="9.667"/>
</g>
<g opacity="0.1">
	
		<rect x="1426.516" y="52.946" transform="matrix(0.9985 0.0554 -0.0554 0.9985 6.4609 -80.2049)" fill="none" stroke="#C7A7F7" stroke-width="11" stroke-linecap="round" stroke-linejoin="round" stroke-miterlimit="10" width="47" height="47"/>
	
		<polygon fill="none" stroke="#C7A7F7" stroke-width="11" stroke-linecap="round" stroke-linejoin="round" stroke-miterlimit="10" points="
		1492.396,97.827 1473.009,86.235 1473.964,69.012 1494.529,59.386 	"/>
	<circle fill="#C7A7F7" cx="1449.998" cy="76.78" r="9.667"/>
</g>
<g opacity="0.1">
	
		<rect x="669.488" y="460.835" transform="matrix(0.9012 -0.4335 0.4335 0.9012 -141.4551 348.256)" fill="none" stroke="#C7A7F7" stroke-width="11" stroke-linecap="round" stroke-linejoin="round" stroke-miterlimit="10" width="47" height="47"/>
	
		<polygon fill="none" stroke="#C7A7F7" stroke-width="11" stroke-linecap="round" stroke-linejoin="round" stroke-miterlimit="10" points="
		740.425,482.602 717.851,481.809 710.373,466.264 723.736,447.906 	"/>
	<circle fill="#C7A7F7" cx="693.134" cy="484.636" r="9.667"/>
</g>
<g opacity="0.1">
	<path fill="none" stroke="#C7A7F7" stroke-width="11" stroke-linecap="round" stroke-linejoin="round" stroke-miterlimit="10" d="
		M990.674,296.806c-1.953,13.195-22.604,43.605-30.69,42.409c-8.086-1.197-19.044-36.284-17.092-49.479
		c1.953-13.194,14.231-22.308,27.426-20.355C983.513,271.333,992.626,283.611,990.674,296.806z"/>
	<circle fill="#C7A7F7" cx="966.397" cy="293.34" r="5.202"/>
</g>
<g opacity="0.1">
	<path fill="none" stroke="#C7A7F7" stroke-width="11" stroke-linecap="round" stroke-linejoin="round" stroke-miterlimit="10" d="
		M1546.061,502.782c1.339,13.271-11.234,47.813-19.366,48.635c-8.134,0.819-27.353-30.515-28.691-43.785
		c-1.339-13.272,8.334-25.114,21.604-26.454C1532.879,479.84,1544.723,489.512,1546.061,502.782z"/>
	<path fill="#C7A7F7" d="M1526.852,504.846c0.287,2.859-1.796,5.41-4.654,5.699c-2.859,0.287-5.409-1.797-5.697-4.655
		c-0.289-2.856,1.794-5.407,4.652-5.696C1524.012,499.904,1526.562,501.988,1526.852,504.846z"/>
</g>
<g opacity="0.1">
	<path fill="none" stroke="#C7A7F7" stroke-width="11" stroke-linecap="round" stroke-linejoin="round" stroke-miterlimit="10" d="
		M256.452,318.994c4.942,12.39,2.37,49.059-5.222,52.088c-7.593,3.028-34.699-21.8-39.642-34.188
		c-4.942-12.39,1.094-26.438,13.481-31.381C237.461,300.57,251.51,306.605,256.452,318.994z"/>
	<circle fill="#C7A7F7" cx="233.722" cy="328.197" r="5.202"/>
</g>
</svg>
