<?xml version="1.0" encoding="utf-8"?>
<!-- Generator: Adobe Illustrator 16.0.0, SVG Export Plug-In . SVG Version: 6.00 Build 0)  -->
<!DOCTYPE svg PUBLIC "-//W3C//DTD SVG 1.1//EN" "http://www.w3.org/Graphics/SVG/1.1/DTD/svg11.dtd">
<svg version="1.1" id="Layer_1" xmlns="http://www.w3.org/2000/svg" xmlns:xlink="http://www.w3.org/1999/xlink" x="0px" y="0px"
	 width="1650px" height="630px" viewBox="0 0 1650 630" enable-background="new 0 0 1650 630" xml:space="preserve">
<path opacity="0.1" fill="none" stroke="#C7A7F7" stroke-width="11.0013" stroke-linecap="round" stroke-linejoin="round" stroke-miterlimit="10" d="
	M142.795,355.476c4.218-1.632,8.001-5.826,9.611-10.432c2.914-8.337-1.344-17.856-9.681-20.771
	c-8.338-2.914-17.39,1.283-20.304,9.621c-1.547,4.428-1.555,10.566,0.517,14.389c-11.037,0.459-21.609,8.674-25.568,20.002
	l26.128,9.133l26.129,9.133C153.256,376.166,150.658,362.756,142.795,355.476z"/>
<g opacity="0.1">
	
		<line fill="none" stroke="#C7A7F7" stroke-width="11" stroke-linecap="round" stroke-linejoin="round" stroke-miterlimit="10" x1="801.477" y1="136.597" x2="798.52" y2="174.481"/>
	
		<line fill="none" stroke="#C7A7F7" stroke-width="11" stroke-linecap="round" stroke-linejoin="round" stroke-miterlimit="10" x1="818.481" y1="156.48" x2="780.597" y2="153.522"/>
</g>
<path opacity="0.1" fill="none" stroke="#C7A7F7" stroke-width="11.0013" stroke-linecap="round" stroke-linejoin="round" stroke-miterlimit="10" d="
	M1015.212,450.939c0.921-4.428-0.546-9.883-3.538-13.736c-5.417-6.975-15.722-8.57-22.698-3.153
	c-6.976,5.418-8.367,15.297-2.95,22.272c2.876,3.705,8.027,7.045,12.361,7.383c-5.61,9.516-4.455,22.854,2.904,32.332l21.861-16.977
	l21.861-16.977C1038.266,453.396,1025.595,448.292,1015.212,450.939z"/>
<g opacity="0.1">
	
		<line fill="none" stroke="#C7A7F7" stroke-width="11" stroke-linecap="round" stroke-linejoin="round" stroke-miterlimit="10" x1="599.356" y1="415.615" x2="604.634" y2="453.246"/>
	
		<line fill="none" stroke="#C7A7F7" stroke-width="11" stroke-linecap="round" stroke-linejoin="round" stroke-miterlimit="10" x1="620.247" y1="431.366" x2="582.615" y2="436.644"/>
</g>
<g opacity="0.1">
	
		<line fill="none" stroke="#C7A7F7" stroke-width="11" stroke-linecap="round" stroke-linejoin="round" stroke-miterlimit="10" x1="1537.095" y1="98.836" x2="1530.893" y2="136.327"/>
	
		<line fill="none" stroke="#C7A7F7" stroke-width="11" stroke-linecap="round" stroke-linejoin="round" stroke-miterlimit="10" x1="1552.326" y1="120.108" x2="1514.836" y2="113.905"/>
</g>
<path opacity="0.1" fill="none" stroke="#C7A7F7" stroke-width="11.0013" stroke-linecap="round" stroke-linejoin="round" stroke-miterlimit="10" d="
	M1501.795,450.476c4.219-1.632,8.002-5.826,9.611-10.432c2.914-8.337-1.344-17.856-9.682-20.771s-17.389,1.283-20.303,9.621
	c-1.548,4.428-1.555,10.566,0.516,14.389c-11.036,0.459-21.608,8.674-25.568,20.002l26.129,9.133l26.129,9.133
	C1512.256,471.166,1509.658,457.756,1501.795,450.476z"/>
<path opacity="0.1" fill="none" stroke="#C7A7F7" stroke-width="11.0013" stroke-linecap="round" stroke-linejoin="round" stroke-miterlimit="10" d="
	M231.7,83.936c-0.895,0.177-1.755,0.429-2.581,0.74c-5.329-9.665-16.466-15.225-27.87-12.962
	c-11.372,2.256-19.528,11.601-20.799,22.528c-7.64,2.552-12.374,10.443-10.765,18.552c1.724,8.689,10.083,14.368,18.766,12.823
	l50.215-9.97c8.427-2.026,13.824-10.363,12.121-18.942C249.042,87.908,240.497,82.191,231.7,83.936z"/>
<path opacity="0.1" fill="none" stroke="#C7A7F7" stroke-width="11.0013" stroke-linecap="round" stroke-linejoin="round" stroke-miterlimit="10" d="
	M1215.7,146.936c-0.895,0.177-1.755,0.429-2.581,0.74c-5.329-9.665-16.466-15.225-27.869-12.962
	c-11.372,2.256-19.529,11.601-20.8,22.528c-7.64,2.552-12.374,10.443-10.765,18.552c1.724,8.689,10.084,14.368,18.766,12.823
	l50.215-9.97c8.427-2.026,13.824-10.363,12.121-18.942C1233.043,150.908,1224.496,145.191,1215.7,146.936z"/>
<path opacity="0.1" fill="none" stroke="#C7A7F7" stroke-width="11.0013" stroke-linecap="round" stroke-linejoin="round" stroke-miterlimit="10" d="
	M809.627,522.272c-0.872-0.265-1.75-0.448-2.625-0.562c-0.154-11.036-7.364-21.183-18.49-24.553
	c-11.096-3.361-22.69,1.045-28.954,10.089c-7.942-1.343-15.833,3.392-18.229,11.303c-2.567,8.478,2.137,17.423,10.523,20.146
	l48.999,14.835c8.389,2.178,17.074-2.638,19.609-11.01C823.061,533.938,818.21,524.872,809.627,522.272z"/>
</svg>
