<?xml version="1.0" encoding="utf-8"?>
<!-- Generator: Adobe Illustrator 22.0.0, SVG Export Plug-In . SVG Version: 6.00 Build 0)  -->
<svg version="1.1" id="Layer_1" xmlns="http://www.w3.org/2000/svg" xmlns:xlink="http://www.w3.org/1999/xlink" x="0px" y="0px"
	 viewBox="0 0 1600 610" style="enable-background:new 0 0 1600 610;" xml:space="preserve">
<style type="text/css">
	.st0{opacity:0.3145;fill:url(#BG_1_);enable-background:new    ;}
	.st1{opacity:0.3145;fill:url(#BG-Copy-2_1_);enable-background:new    ;}
	.st2{fill:url(#BG-Copy_1_);}
</style>
<title>Home banner@2x</title>
<desc>Created with Sketch.</desc>
<g id="Home-banner">
	
		<linearGradient id="BG_1_" gradientUnits="userSpaceOnUse" x1="502.6029" y1="811.0173" x2="501.8636" y2="811.8477" gradientTransform="matrix(1600.4532 0 0 -609 -802925.5 494411)">
		<stop  offset="0" style="stop-color:#FBC8D4"/>
		<stop  offset="1" style="stop-color:#9795F0"/>
	</linearGradient>
	<path id="BG" class="st0" d="M0,0h1600l0.5,433C1354.3,550.3,1094.5,609,821,609S274,550.3,0.5,433L0,0z"/>
	
		<linearGradient id="BG-Copy-2_1_" gradientUnits="userSpaceOnUse" x1="502.5518" y1="811.814" x2="501.7215" y2="811.0746" gradientTransform="matrix(1600.4532 0 0 -609 -802925.5 494411)">
		<stop  offset="0" style="stop-color:#FBC8D4"/>
		<stop  offset="1" style="stop-color:#9795F0"/>
	</linearGradient>
	<path id="BG-Copy-2" class="st1" d="M0,0h1600l0.5,393C1354.3,537,1094.5,609,821,609S274,537,0.5,393L0,0z"/>
	
		<linearGradient id="BG-Copy_1_" gradientUnits="userSpaceOnUse" x1="502.5468" y1="811.8197" x2="501.7164" y2="811.0804" gradientTransform="matrix(1600.4532 0 0 -609 -802925.5 494411)">
		<stop  offset="0" style="stop-color:#FBC8D4"/>
		<stop  offset="1" style="stop-color:#9795F0"/>
	</linearGradient>
	<path id="BG-Copy" class="st2" d="M0,0h1600l0.5,353C1354.3,523.7,1094.5,609,821,609S274,523.7,0.5,353L0,0z"/>
</g>
</svg>
