<?xml version="1.0" encoding="UTF-8"?>
<svg width="1310px" height="622px" viewBox="0 0 1310 622" version="1.1" xmlns="http://www.w3.org/2000/svg" xmlns:xlink="http://www.w3.org/1999/xlink">
    <!-- Generator: Sketch 49.3 (51167) - http://www.bohemiancoding.com/sketch -->
    <title>Group 6@2x</title>
    <desc>Created with Sketch.</desc>
    <defs></defs>
    <g id="Page-1" stroke="none" stroke-width="1" fill="none" fill-rule="evenodd" opacity="0.3">
        <g id="Instagram-Views-Copy" transform="translate(-65.000000, -62.000000)">
            <g id="Group-6" transform="translate(65.000000, 52.000000)">
                <path d="M734.481469,391.702272 C731.629354,391.702272 729.009943,392.845242 727.104135,394.921188 C725.169525,397.028599 724.104572,399.941517 724.104572,403.124013 C724.104572,406.482155 725.347036,409.48497 728.132829,412.861092 C730.825218,416.124726 734.830181,419.552597 739.467507,423.522043 L739.475998,423.529189 C741.097238,424.917187 742.935002,426.490283 744.847581,428.170103 C746.771749,426.487171 748.612152,424.911425 750.236605,423.521698 C754.873472,419.552136 758.877862,416.124726 761.570824,412.861092 C764.356043,409.48497 765.598622,406.482155 765.598622,403.124013 C765.598622,399.941517 764.533095,397.028599 762.599059,394.921188 C760.693595,392.845242 758.073381,391.702272 755.222184,391.702272 C753.133012,391.702272 751.21504,392.369014 749.521166,393.684518 C748.012033,394.857338 746.960505,396.339844 746.344207,397.377126 C746.02728,397.910173 745.469272,398.228849 744.851597,398.228849 C744.233463,398.228849 743.675914,397.910173 743.358528,397.377126 C742.742689,396.339844 741.691161,394.857338 740.181569,393.684518 C738.488154,392.369014 736.570182,391.702272 734.481469,391.702272 M744.851597,430.936533 C744.182401,430.936533 743.537416,430.693003 743.034487,430.25089 C741.135792,428.583402 739.305257,427.016185 737.690328,425.634064 L737.682181,425.626803 C732.947207,421.573567 728.85802,418.073663 726.013134,414.625508 C722.832962,410.771315 721.351597,407.11651 721.351597,403.124013 C721.351597,399.24504 722.675646,395.666302 725.079909,393.046935 C727.512858,390.396565 730.851265,388.936533 734.481469,388.936533 C737.194513,388.936533 739.679098,389.798284 741.865918,391.497352 C742.969426,392.354607 743.969892,393.404452 744.851597,394.62856 C745.733302,393.404452 746.733194,392.354607 747.837276,391.497352 C750.024555,389.798284 752.509025,388.936533 755.222184,388.936533 C758.85147,388.936533 762.190221,390.396565 764.623285,393.046935 C767.027548,395.666302 768.351597,399.24504 768.351597,403.124013 C768.351597,407.11651 766.870691,410.771315 763.69006,414.625508 C760.845174,418.073663 756.756905,421.573106 752.022275,425.625881 C750.404707,427.010307 748.570959,428.580175 746.668248,430.251351 C746.165778,430.693003 745.520334,430.936533 744.851597,430.936533" id="Fill-1" fill="#B9DFE3" transform="translate(744.851597, 409.936533) rotate(-30.000000) translate(-744.851597, -409.936533) "></path>
                <path d="M1280.48147,481.702272 C1277.62935,481.702272 1275.00994,482.845242 1273.10413,484.921188 C1271.16953,487.028599 1270.10457,489.941517 1270.10457,493.124013 C1270.10457,496.482155 1271.34704,499.48497 1274.13283,502.861092 C1276.82522,506.124726 1280.83018,509.552597 1285.46751,513.522043 L1285.476,513.529189 C1287.09724,514.917187 1288.935,516.490283 1290.84758,518.170103 C1292.77175,516.487171 1294.61215,514.911425 1296.2366,513.521698 C1300.87347,509.552136 1304.87786,506.124726 1307.57082,502.861092 C1310.35604,499.48497 1311.59862,496.482155 1311.59862,493.124013 C1311.59862,489.941517 1310.5331,487.028599 1308.59906,484.921188 C1306.69359,482.845242 1304.07338,481.702272 1301.22218,481.702272 C1299.13301,481.702272 1297.21504,482.369014 1295.52117,483.684518 C1294.01203,484.857338 1292.96051,486.339844 1292.34421,487.377126 C1292.02728,487.910173 1291.46927,488.228849 1290.8516,488.228849 C1290.23346,488.228849 1289.67591,487.910173 1289.35853,487.377126 C1288.74269,486.339844 1287.69116,484.857338 1286.18157,483.684518 C1284.48815,482.369014 1282.57018,481.702272 1280.48147,481.702272 M1290.8516,520.936533 C1290.1824,520.936533 1289.53742,520.693003 1289.03449,520.25089 C1287.13579,518.583402 1285.30526,517.016185 1283.69033,515.634064 L1283.68218,515.626803 C1278.94721,511.573567 1274.85802,508.073663 1272.01313,504.625508 C1268.83296,500.771315 1267.3516,497.11651 1267.3516,493.124013 C1267.3516,489.24504 1268.67565,485.666302 1271.07991,483.046935 C1273.51286,480.396565 1276.85126,478.936533 1280.48147,478.936533 C1283.19451,478.936533 1285.6791,479.798284 1287.86592,481.497352 C1288.96943,482.354607 1289.96989,483.404452 1290.8516,484.62856 C1291.7333,483.404452 1292.73319,482.354607 1293.83728,481.497352 C1296.02456,479.798284 1298.50903,478.936533 1301.22218,478.936533 C1304.85147,478.936533 1308.19022,480.396565 1310.62329,483.046935 C1313.02755,485.666302 1314.3516,489.24504 1314.3516,493.124013 C1314.3516,497.11651 1312.87069,500.771315 1309.69006,504.625508 C1306.84517,508.073663 1302.75691,511.573106 1298.02227,515.625881 C1296.40471,517.010307 1294.57096,518.580175 1292.66825,520.251351 C1292.16578,520.693003 1291.52033,520.936533 1290.8516,520.936533" id="Fill-1-Copy-4" fill="#EDC2C9" transform="translate(1290.851597, 499.936533) rotate(-30.000000) translate(-1290.851597, -499.936533) "></path>
                <path d="M79.4814694,421.702272 C76.6293544,421.702272 74.0099434,422.845242 72.1041348,424.921188 C70.1695251,427.028599 69.1045718,429.941517 69.1045718,433.124013 C69.1045718,436.482155 70.3470365,439.48497 73.1328285,442.861092 C75.8252177,446.124726 79.8301811,449.552597 84.4675071,453.522043 L84.4759982,453.529189 C86.0972379,454.917187 87.9350023,456.490283 89.8475809,458.170103 C91.7717487,456.487171 93.6121524,454.911425 95.2366049,453.521698 C99.8734719,449.552136 103.877862,446.124726 106.570824,442.861092 C109.356043,439.48497 110.598622,436.482155 110.598622,433.124013 C110.598622,429.941517 109.533095,427.028599 107.599059,424.921188 C105.693595,422.845242 103.073381,421.702272 100.222184,421.702272 C98.1330116,421.702272 96.21504,422.369014 94.5211665,423.684518 C93.0120332,424.857338 91.9605051,426.339844 91.3442069,427.377126 C91.0272797,427.910173 90.4692722,428.228849 89.851597,428.228849 C89.2334628,428.228849 88.6759143,427.910173 88.3585281,427.377126 C87.7426888,426.339844 86.6911608,424.857338 85.1815685,423.684518 C83.4881539,422.369014 81.5701823,421.702272 79.4814694,421.702272 M89.851597,460.936533 C89.182401,460.936533 88.5374164,460.693003 88.0344867,460.25089 C86.1357924,458.583402 84.3052569,457.016185 82.6903282,455.634064 L82.6821813,455.626803 C77.9472069,451.573567 73.8580203,448.073663 71.0131343,444.625508 C67.8329618,440.771315 66.351597,437.11651 66.351597,433.124013 C66.351597,429.24504 67.6756457,425.666302 70.0799089,423.046935 C72.5128584,420.396565 75.851265,418.936533 79.4814694,418.936533 C82.1945128,418.936533 84.6790978,419.798284 86.8659182,421.497352 C87.969426,422.354607 88.9698923,423.404452 89.851597,424.62856 C90.7333017,423.404452 91.7331942,422.354607 92.8372758,421.497352 C95.0245551,419.798284 97.5090254,418.936533 100.222184,418.936533 C103.85147,418.936533 107.190221,420.396565 109.623285,423.046935 C112.027548,425.666302 113.351597,429.24504 113.351597,433.124013 C113.351597,437.11651 111.870691,440.771315 108.69006,444.625508 C105.845174,448.073663 101.756905,451.573106 97.0222749,455.625881 C95.4047071,457.010307 93.5709587,458.580175 91.6682483,460.251351 C91.1657776,460.693003 90.520334,460.936533 89.851597,460.936533" id="Fill-1-Copy-3" fill="#C9BBE2" transform="translate(89.851597, 439.936533) rotate(-30.000000) translate(-89.851597, -439.936533) "></path>
                <path d="M1262.48147,65.7022724 C1259.62935,65.7022724 1257.00994,66.8452417 1255.10413,68.9211883 C1253.16953,71.0285991 1252.10457,73.9415168 1252.10457,77.1240126 C1252.10457,80.4821547 1253.34704,83.4849701 1256.13283,86.8610918 C1258.82522,90.124726 1262.83018,93.5525965 1267.46751,97.5220434 L1267.476,97.5291891 C1269.09724,98.9171874 1270.935,100.490283 1272.84758,102.170103 C1274.77175,100.487171 1276.61215,98.9114247 1278.2366,97.5216976 C1282.87347,93.5521355 1286.87786,90.124726 1289.57082,86.8610918 C1292.35604,83.4849701 1293.59862,80.4821547 1293.59862,77.1240126 C1293.59862,73.9415168 1292.5331,71.0285991 1290.59906,68.9211883 C1288.69359,66.8452417 1286.07338,65.7022724 1283.22218,65.7022724 C1281.13301,65.7022724 1279.21504,66.3690141 1277.52117,67.6845179 C1276.01203,68.8573378 1274.96051,70.339844 1274.34421,71.3771258 C1274.02728,71.9101734 1273.46927,72.2288494 1272.8516,72.2288494 C1272.23346,72.2288494 1271.67591,71.9101734 1271.35853,71.3771258 C1270.74269,70.339844 1269.69116,68.8573378 1268.18157,67.6845179 C1266.48815,66.3690141 1264.57018,65.7022724 1262.48147,65.7022724 M1272.8516,104.936533 C1272.1824,104.936533 1271.53742,104.693003 1271.03449,104.25089 C1269.13579,102.583402 1267.30526,101.016185 1265.69033,99.6340643 L1265.68218,99.6268033 C1260.94721,95.5735672 1256.85802,92.0736632 1254.01313,88.6255081 C1250.83296,84.7713148 1249.3516,81.1165101 1249.3516,77.1240126 C1249.3516,73.2450397 1250.67565,69.6663024 1253.07991,67.0469354 C1255.51286,64.3965652 1258.85126,62.9365335 1262.48147,62.9365335 C1265.19451,62.9365335 1267.6791,63.7982841 1269.86592,65.4973517 C1270.96943,66.3546074 1271.96989,67.4044518 1272.8516,68.6285596 C1273.7333,67.4044518 1274.73319,66.3546074 1275.83728,65.4973517 C1278.02456,63.7982841 1280.50903,62.9365335 1283.22218,62.9365335 C1286.85147,62.9365335 1290.19022,64.3965652 1292.62329,67.0469354 C1295.02755,69.6663024 1296.3516,73.2450397 1296.3516,77.1240126 C1296.3516,81.1165101 1294.87069,84.7713148 1291.69006,88.6255081 C1288.84517,92.0736632 1284.75691,95.5731062 1280.02227,99.6258813 C1278.40471,101.010307 1276.57096,102.580175 1274.66825,104.251351 C1274.16578,104.693003 1273.52033,104.936533 1272.8516,104.936533" id="Fill-1-Copy-2" fill="#B9DFE3" transform="translate(1272.851597, 83.936533) rotate(-30.000000) translate(-1272.851597, -83.936533) "></path>
                <path d="M193.481469,28.7022724 C190.629354,28.7022724 188.009943,29.8452417 186.104135,31.9211883 C184.169525,34.0285991 183.104572,36.9415168 183.104572,40.1240126 C183.104572,43.4821547 184.347036,46.4849701 187.132829,49.8610918 C189.825218,53.124726 193.830181,56.5525965 198.467507,60.5220434 L198.475998,60.5291891 C200.097238,61.9171874 201.935002,63.4902828 203.847581,65.170103 C205.771749,63.4871709 207.612152,61.9114247 209.236605,60.5216976 C213.873472,56.5521355 217.877862,53.124726 220.570824,49.8610918 C223.356043,46.4849701 224.598622,43.4821547 224.598622,40.1240126 C224.598622,36.9415168 223.533095,34.0285991 221.599059,31.9211883 C219.693595,29.8452417 217.073381,28.7022724 214.222184,28.7022724 C212.133012,28.7022724 210.21504,29.3690141 208.521166,30.6845179 C207.012033,31.8573378 205.960505,33.339844 205.344207,34.3771258 C205.02728,34.9101734 204.469272,35.2288494 203.851597,35.2288494 C203.233463,35.2288494 202.675914,34.9101734 202.358528,34.3771258 C201.742689,33.339844 200.691161,31.8573378 199.181569,30.6845179 C197.488154,29.3690141 195.570182,28.7022724 193.481469,28.7022724 M203.851597,67.9365335 C203.182401,67.9365335 202.537416,67.6930028 202.034487,67.2508902 C200.135792,65.5834022 198.305257,64.0161846 196.690328,62.6340643 L196.682181,62.6268033 C191.947207,58.5735672 187.85802,55.0736632 185.013134,51.6255081 C181.832962,47.7713148 180.351597,44.1165101 180.351597,40.1240126 C180.351597,36.2450397 181.675646,32.6663024 184.079909,30.0469354 C186.512858,27.3965652 189.851265,25.9365335 193.481469,25.9365335 C196.194513,25.9365335 198.679098,26.7982841 200.865918,28.4973517 C201.969426,29.3546074 202.969892,30.4044518 203.851597,31.6285596 C204.733302,30.4044518 205.733194,29.3546074 206.837276,28.4973517 C209.024555,26.7982841 211.509025,25.9365335 214.222184,25.9365335 C217.85147,25.9365335 221.190221,27.3965652 223.623285,30.0469354 C226.027548,32.6663024 227.351597,36.2450397 227.351597,40.1240126 C227.351597,44.1165101 225.870691,47.7713148 222.69006,51.6255081 C219.845174,55.0736632 215.756905,58.5731062 211.022275,62.6258813 C209.404707,64.0103067 207.570959,65.5801751 205.668248,67.2513512 C205.165778,67.6930028 204.520334,67.9365335 203.851597,67.9365335" id="Fill-1-Copy" fill="#EDC2C9" transform="translate(203.851597, 46.936533) rotate(-30.000000) translate(-203.851597, -46.936533) "></path>
                <path d="M621.481469,594.702272 C618.629354,594.702272 616.009943,595.845242 614.104135,597.921188 C612.169525,600.028599 611.104572,602.941517 611.104572,606.124013 C611.104572,609.482155 612.347036,612.48497 615.132829,615.861092 C617.825218,619.124726 621.830181,622.552597 626.467507,626.522043 L626.475998,626.529189 C628.097238,627.917187 629.935002,629.490283 631.847581,631.170103 C633.771749,629.487171 635.612152,627.911425 637.236605,626.521698 C641.873472,622.552136 645.877862,619.124726 648.570824,615.861092 C651.356043,612.48497 652.598622,609.482155 652.598622,606.124013 C652.598622,602.941517 651.533095,600.028599 649.599059,597.921188 C647.693595,595.845242 645.073381,594.702272 642.222184,594.702272 C640.133012,594.702272 638.21504,595.369014 636.521166,596.684518 C635.012033,597.857338 633.960505,599.339844 633.344207,600.377126 C633.02728,600.910173 632.469272,601.228849 631.851597,601.228849 C631.233463,601.228849 630.675914,600.910173 630.358528,600.377126 C629.742689,599.339844 628.691161,597.857338 627.181569,596.684518 C625.488154,595.369014 623.570182,594.702272 621.481469,594.702272 M631.851597,633.936533 C631.182401,633.936533 630.537416,633.693003 630.034487,633.25089 C628.135792,631.583402 626.305257,630.016185 624.690328,628.634064 L624.682181,628.626803 C619.947207,624.573567 615.85802,621.073663 613.013134,617.625508 C609.832962,613.771315 608.351597,610.11651 608.351597,606.124013 C608.351597,602.24504 609.675646,598.666302 612.079909,596.046935 C614.512858,593.396565 617.851265,591.936533 621.481469,591.936533 C624.194513,591.936533 626.679098,592.798284 628.865918,594.497352 C629.969426,595.354607 630.969892,596.404452 631.851597,597.62856 C632.733302,596.404452 633.733194,595.354607 634.837276,594.497352 C637.024555,592.798284 639.509025,591.936533 642.222184,591.936533 C645.85147,591.936533 649.190221,593.396565 651.623285,596.046935 C654.027548,598.666302 655.351597,602.24504 655.351597,606.124013 C655.351597,610.11651 653.870691,613.771315 650.69006,617.625508 C647.845174,621.073663 643.756905,624.573106 639.022275,628.625881 C637.404707,630.010307 635.570959,631.580175 633.668248,633.251351 C633.165778,633.693003 632.520334,633.936533 631.851597,633.936533" id="Fill-1-Copy-5" fill="#B4F2AF" transform="translate(631.851597, 612.936533) rotate(-30.000000) translate(-631.851597, -612.936533) "></path>
                <g id="Group" transform="translate(698.000000, 208.000000)" fill="#C9BBE2">
                    <path d="M44.2013105,34.2752932 C44.2013105,39.752337 39.734591,44.2080742 34.2443032,44.2080742 L12.7100495,44.2080742 C7.21930317,44.2080742 2.75258366,39.752337 2.75258366,34.2752932 L2.75258366,12.7934343 C2.75258366,7.31604745 7.21930317,2.86031022 12.7100495,2.86031022 L34.2443032,2.86031022 C39.734591,2.86031022 44.2013105,7.31604745 44.2013105,12.7934343 L44.2013105,34.2752932 Z M34.2443032,0.114298054 L12.7100495,0.114298054 C5.70166171,0.114298054 -1.14634147e-05,5.80232725 -1.14634147e-05,12.7934343 L-1.14634147e-05,34.2752932 C-1.14634147e-05,41.2667433 5.70166171,46.9544294 12.7100495,46.9544294 L34.2443032,46.9544294 C41.2525763,46.9544294 46.9543641,41.2667433 46.9543641,34.2752932 L46.9543641,12.7934343 C46.9543641,5.80232725 41.2525763,0.114298054 34.2443032,0.114298054 Z" id="Fill-3"></path>
                    <path d="M23.4771649,33.595863 C17.9160332,33.595863 13.3910795,29.0824908 13.3910795,23.5344324 C13.3910795,17.9868314 17.9160332,13.4730017 23.4771649,13.4730017 C29.0387551,13.4730017 33.5631356,17.9868314 33.5631356,23.5344324 C33.5631356,29.0824908 29.0387551,33.595863 23.4771649,33.595863 M23.4771649,10.7271039 C16.3975893,10.7271039 10.638599,16.472082 10.638599,23.5344324 C10.638599,30.5963253 16.3975893,36.3417608 23.4771649,36.3417608 C30.556282,36.3417608 36.3157307,30.5963253 36.3157307,23.5344324 C36.3157307,16.472082 30.556282,10.7271039 23.4771649,10.7271039" id="Fill-5"></path>
                    <path d="M36.6229273,11.0013277 C36.0488395,11.0013277 35.58182,10.5354445 35.58182,9.96275353 C35.58182,9.39017689 36.0488395,8.92417932 36.6229273,8.92417932 C37.1970151,8.92417932 37.6640346,9.39017689 37.6640346,9.96275353 C37.6640346,10.5354445 37.1970151,11.0013277 36.6229273,11.0013277 M36.6229273,6.17839586 C34.5308541,6.17839586 32.8292249,7.87622798 32.8292249,9.96275353 C32.8292249,12.0497365 34.5308541,13.747683 36.6229273,13.747683 C38.7150005,13.747683 40.4166298,12.0497365 40.4166298,9.96275353 C40.4166298,7.87577056 38.7150005,6.17839586 36.6229273,6.17839586" id="Fill-7"></path>
                </g>
                <g id="Group-Copy" transform="translate(300.153062, 560.153062) rotate(41.000000) translate(-300.153062, -560.153062) translate(276.653062, 536.653062)" fill="#C9BBE2">
                    <path d="M44.2013105,34.2752932 C44.2013105,39.752337 39.734591,44.2080742 34.2443032,44.2080742 L12.7100495,44.2080742 C7.21930317,44.2080742 2.75258366,39.752337 2.75258366,34.2752932 L2.75258366,12.7934343 C2.75258366,7.31604745 7.21930317,2.86031022 12.7100495,2.86031022 L34.2443032,2.86031022 C39.734591,2.86031022 44.2013105,7.31604745 44.2013105,12.7934343 L44.2013105,34.2752932 Z M34.2443032,0.114298054 L12.7100495,0.114298054 C5.70166171,0.114298054 -1.14634147e-05,5.80232725 -1.14634147e-05,12.7934343 L-1.14634147e-05,34.2752932 C-1.14634147e-05,41.2667433 5.70166171,46.9544294 12.7100495,46.9544294 L34.2443032,46.9544294 C41.2525763,46.9544294 46.9543641,41.2667433 46.9543641,34.2752932 L46.9543641,12.7934343 C46.9543641,5.80232725 41.2525763,0.114298054 34.2443032,0.114298054 Z" id="Fill-3"></path>
                    <path d="M23.4771649,33.595863 C17.9160332,33.595863 13.3910795,29.0824908 13.3910795,23.5344324 C13.3910795,17.9868314 17.9160332,13.4730017 23.4771649,13.4730017 C29.0387551,13.4730017 33.5631356,17.9868314 33.5631356,23.5344324 C33.5631356,29.0824908 29.0387551,33.595863 23.4771649,33.595863 M23.4771649,10.7271039 C16.3975893,10.7271039 10.638599,16.472082 10.638599,23.5344324 C10.638599,30.5963253 16.3975893,36.3417608 23.4771649,36.3417608 C30.556282,36.3417608 36.3157307,30.5963253 36.3157307,23.5344324 C36.3157307,16.472082 30.556282,10.7271039 23.4771649,10.7271039" id="Fill-5"></path>
                    <path d="M36.6229273,11.0013277 C36.0488395,11.0013277 35.58182,10.5354445 35.58182,9.96275353 C35.58182,9.39017689 36.0488395,8.92417932 36.6229273,8.92417932 C37.1970151,8.92417932 37.6640346,9.39017689 37.6640346,9.96275353 C37.6640346,10.5354445 37.1970151,11.0013277 36.6229273,11.0013277 M36.6229273,6.17839586 C34.5308541,6.17839586 32.8292249,7.87622798 32.8292249,9.96275353 C32.8292249,12.0497365 34.5308541,13.747683 36.6229273,13.747683 C38.7150005,13.747683 40.4166298,12.0497365 40.4166298,9.96275353 C40.4166298,7.87577056 38.7150005,6.17839586 36.6229273,6.17839586" id="Fill-7"></path>
                </g>
                <g id="Group-4" transform="translate(740.000000, 30.000000)" fill="#B4F2AF">
                    <path d="M37.9931607,36.756029 C34.0866583,40.4995217 28.9567802,42.5025241 23.5474241,42.3954559 L23.5326363,42.3949973 L23.5175046,42.3949973 C20.9795046,42.4008437 18.4816266,41.9593876 16.0966632,41.0849583 C15.5068705,40.8689876 14.8648046,40.9347876 14.3341632,41.2663095 L10.1657217,43.8701095 L10.1657217,38.6497851 C10.1657217,38.0672144 9.91226561,37.5128437 9.47080951,37.1290485 C5.26465341,33.4727924 2.83406561,28.1803632 2.80001927,22.6071949 C2.92806561,17.2060924 5.14646561,12.1733095 9.04803878,8.43428756 C12.9540827,4.69113878 18.0857949,2.68859488 23.4932022,2.7947461 L23.5205998,2.79520463 L23.5474241,2.7947461 C28.9554046,2.68997049 34.0866583,4.69113878 37.9931607,8.43428756 C41.8911802,12.1700998 44.1094656,17.1988705 44.2407217,22.5951583 C44.1094656,27.9919046 41.8911802,33.0201022 37.9931607,36.756029 Z M46.9945778,22.5637485 C46.8544949,16.4214217 44.3339193,10.6969363 39.8984949,6.44607293 C35.4689168,2.20139976 29.6516924,-0.0724831707 23.5205998,0.0412339024 C17.3867559,-0.0737441463 11.5717095,2.20139976 7.14270463,6.44607293 C2.70682171,10.6969363 0.186704634,16.4214217 0.0460485366,22.56329 L0.04559,22.5830071 L0.04559,22.6022656 C0.0779168293,28.8620924 2.75829244,34.813668 7.41175098,38.9846315 L7.41175098,44.6603973 C7.41175098,45.7620315 8.18117537,46.72129 9.24005098,46.9418461 C9.39732902,46.9746315 9.55495098,46.9911388 9.71257293,46.9911388 C10.1387827,46.9911388 10.5579998,46.8715754 10.9268924,46.64139 L15.4880705,43.7916998 C18.06069,44.6926095 20.7447339,45.1490827 23.4739437,45.1490827 L23.5081046,45.1490827 C23.6594217,45.1516046 23.8090193,45.1534388 23.9594193,45.1534388 C29.9302534,45.1529802 35.575068,42.8871217 39.8984949,38.7443583 C44.3339193,34.4930363 46.8544949,28.7687802 46.9945778,22.6264534 L46.9954949,22.5951583 L46.9945778,22.5637485 Z" id="Fill-10"></path>
                    <path d="M33.6084046,16.0188839 L13.4323363,16.0188839 C12.671968,16.0188839 12.055351,16.6350424 12.055351,17.3958693 C12.055351,18.1562376 12.671968,18.7728546 13.4323363,18.7728546 L33.6084046,18.7728546 C34.3692315,18.7728546 34.9858485,18.1562376 34.9858485,17.3958693 C34.9858485,16.6350424 34.3692315,16.0188839 33.6084046,16.0188839" id="Fill-13"></path>
                    <path d="M33.6084046,22.1097171 L13.4323363,22.1097171 C12.671968,22.1097171 12.055351,22.7263341 12.055351,23.4862439 C12.055351,24.2470707 12.671968,24.8632293 13.4323363,24.8632293 L33.6084046,24.8632293 C34.3692315,24.8632293 34.9858485,24.2470707 34.9858485,23.4862439 C34.9858485,22.7263341 34.3692315,22.1097171 33.6084046,22.1097171" id="Fill-15"></path>
                    <path d="M33.6084046,28.2001032 L23.6885388,28.2001032 C22.9282851,28.2001032 22.3115534,28.8167202 22.3115534,29.5775471 C22.3115534,30.3375715 22.9282851,30.9540739 23.6885388,30.9540739 L33.6084046,30.9540739 C34.3692315,30.9540739 34.9858485,30.3375715 34.9858485,29.5775471 C34.9858485,28.8167202 34.3692315,28.2001032 33.6084046,28.2001032" id="Fill-17"></path>
                </g>
                <g id="Group-4-Copy" transform="translate(446.000000, 440.000000)" fill="#D6D6D6">
                    <path d="M37.9931607,36.756029 C34.0866583,40.4995217 28.9567802,42.5025241 23.5474241,42.3954559 L23.5326363,42.3949973 L23.5175046,42.3949973 C20.9795046,42.4008437 18.4816266,41.9593876 16.0966632,41.0849583 C15.5068705,40.8689876 14.8648046,40.9347876 14.3341632,41.2663095 L10.1657217,43.8701095 L10.1657217,38.6497851 C10.1657217,38.0672144 9.91226561,37.5128437 9.47080951,37.1290485 C5.26465341,33.4727924 2.83406561,28.1803632 2.80001927,22.6071949 C2.92806561,17.2060924 5.14646561,12.1733095 9.04803878,8.43428756 C12.9540827,4.69113878 18.0857949,2.68859488 23.4932022,2.7947461 L23.5205998,2.79520463 L23.5474241,2.7947461 C28.9554046,2.68997049 34.0866583,4.69113878 37.9931607,8.43428756 C41.8911802,12.1700998 44.1094656,17.1988705 44.2407217,22.5951583 C44.1094656,27.9919046 41.8911802,33.0201022 37.9931607,36.756029 Z M46.9945778,22.5637485 C46.8544949,16.4214217 44.3339193,10.6969363 39.8984949,6.44607293 C35.4689168,2.20139976 29.6516924,-0.0724831707 23.5205998,0.0412339024 C17.3867559,-0.0737441463 11.5717095,2.20139976 7.14270463,6.44607293 C2.70682171,10.6969363 0.186704634,16.4214217 0.0460485366,22.56329 L0.04559,22.5830071 L0.04559,22.6022656 C0.0779168293,28.8620924 2.75829244,34.813668 7.41175098,38.9846315 L7.41175098,44.6603973 C7.41175098,45.7620315 8.18117537,46.72129 9.24005098,46.9418461 C9.39732902,46.9746315 9.55495098,46.9911388 9.71257293,46.9911388 C10.1387827,46.9911388 10.5579998,46.8715754 10.9268924,46.64139 L15.4880705,43.7916998 C18.06069,44.6926095 20.7447339,45.1490827 23.4739437,45.1490827 L23.5081046,45.1490827 C23.6594217,45.1516046 23.8090193,45.1534388 23.9594193,45.1534388 C29.9302534,45.1529802 35.575068,42.8871217 39.8984949,38.7443583 C44.3339193,34.4930363 46.8544949,28.7687802 46.9945778,22.6264534 L46.9954949,22.5951583 L46.9945778,22.5637485 Z" id="Fill-10"></path>
                    <path d="M33.6084046,16.0188839 L13.4323363,16.0188839 C12.671968,16.0188839 12.055351,16.6350424 12.055351,17.3958693 C12.055351,18.1562376 12.671968,18.7728546 13.4323363,18.7728546 L33.6084046,18.7728546 C34.3692315,18.7728546 34.9858485,18.1562376 34.9858485,17.3958693 C34.9858485,16.6350424 34.3692315,16.0188839 33.6084046,16.0188839" id="Fill-13"></path>
                    <path d="M33.6084046,22.1097171 L13.4323363,22.1097171 C12.671968,22.1097171 12.055351,22.7263341 12.055351,23.4862439 C12.055351,24.2470707 12.671968,24.8632293 13.4323363,24.8632293 L33.6084046,24.8632293 C34.3692315,24.8632293 34.9858485,24.2470707 34.9858485,23.4862439 C34.9858485,22.7263341 34.3692315,22.1097171 33.6084046,22.1097171" id="Fill-15"></path>
                    <path d="M33.6084046,28.2001032 L23.6885388,28.2001032 C22.9282851,28.2001032 22.3115534,28.8167202 22.3115534,29.5775471 C22.3115534,30.3375715 22.9282851,30.9540739 23.6885388,30.9540739 L33.6084046,30.9540739 C34.3692315,30.9540739 34.9858485,30.3375715 34.9858485,29.5775471 C34.9858485,28.8167202 34.3692315,28.2001032 33.6084046,28.2001032" id="Fill-17"></path>
                </g>
                <g id="Group-4-Copy-2" transform="translate(0.000000, 123.000000)" fill="#D6D6D6">
                    <path d="M37.9931607,36.756029 C34.0866583,40.4995217 28.9567802,42.5025241 23.5474241,42.3954559 L23.5326363,42.3949973 L23.5175046,42.3949973 C20.9795046,42.4008437 18.4816266,41.9593876 16.0966632,41.0849583 C15.5068705,40.8689876 14.8648046,40.9347876 14.3341632,41.2663095 L10.1657217,43.8701095 L10.1657217,38.6497851 C10.1657217,38.0672144 9.91226561,37.5128437 9.47080951,37.1290485 C5.26465341,33.4727924 2.83406561,28.1803632 2.80001927,22.6071949 C2.92806561,17.2060924 5.14646561,12.1733095 9.04803878,8.43428756 C12.9540827,4.69113878 18.0857949,2.68859488 23.4932022,2.7947461 L23.5205998,2.79520463 L23.5474241,2.7947461 C28.9554046,2.68997049 34.0866583,4.69113878 37.9931607,8.43428756 C41.8911802,12.1700998 44.1094656,17.1988705 44.2407217,22.5951583 C44.1094656,27.9919046 41.8911802,33.0201022 37.9931607,36.756029 Z M46.9945778,22.5637485 C46.8544949,16.4214217 44.3339193,10.6969363 39.8984949,6.44607293 C35.4689168,2.20139976 29.6516924,-0.0724831707 23.5205998,0.0412339024 C17.3867559,-0.0737441463 11.5717095,2.20139976 7.14270463,6.44607293 C2.70682171,10.6969363 0.186704634,16.4214217 0.0460485366,22.56329 L0.04559,22.5830071 L0.04559,22.6022656 C0.0779168293,28.8620924 2.75829244,34.813668 7.41175098,38.9846315 L7.41175098,44.6603973 C7.41175098,45.7620315 8.18117537,46.72129 9.24005098,46.9418461 C9.39732902,46.9746315 9.55495098,46.9911388 9.71257293,46.9911388 C10.1387827,46.9911388 10.5579998,46.8715754 10.9268924,46.64139 L15.4880705,43.7916998 C18.06069,44.6926095 20.7447339,45.1490827 23.4739437,45.1490827 L23.5081046,45.1490827 C23.6594217,45.1516046 23.8090193,45.1534388 23.9594193,45.1534388 C29.9302534,45.1529802 35.575068,42.8871217 39.8984949,38.7443583 C44.3339193,34.4930363 46.8544949,28.7687802 46.9945778,22.6264534 L46.9954949,22.5951583 L46.9945778,22.5637485 Z" id="Fill-10"></path>
                    <path d="M33.6084046,16.0188839 L13.4323363,16.0188839 C12.671968,16.0188839 12.055351,16.6350424 12.055351,17.3958693 C12.055351,18.1562376 12.671968,18.7728546 13.4323363,18.7728546 L33.6084046,18.7728546 C34.3692315,18.7728546 34.9858485,18.1562376 34.9858485,17.3958693 C34.9858485,16.6350424 34.3692315,16.0188839 33.6084046,16.0188839" id="Fill-13"></path>
                    <path d="M33.6084046,22.1097171 L13.4323363,22.1097171 C12.671968,22.1097171 12.055351,22.7263341 12.055351,23.4862439 C12.055351,24.2470707 12.671968,24.8632293 13.4323363,24.8632293 L33.6084046,24.8632293 C34.3692315,24.8632293 34.9858485,24.2470707 34.9858485,23.4862439 C34.9858485,22.7263341 34.3692315,22.1097171 33.6084046,22.1097171" id="Fill-15"></path>
                    <path d="M33.6084046,28.2001032 L23.6885388,28.2001032 C22.9282851,28.2001032 22.3115534,28.8167202 22.3115534,29.5775471 C22.3115534,30.3375715 22.9282851,30.9540739 23.6885388,30.9540739 L33.6084046,30.9540739 C34.3692315,30.9540739 34.9858485,30.3375715 34.9858485,29.5775471 C34.9858485,28.8167202 34.3692315,28.2001032 33.6084046,28.2001032" id="Fill-17"></path>
                </g>
                <g id="Group-4-Copy-3" transform="translate(333.000000, 114.000000)" fill="#C9BBE2">
                    <path d="M37.9931607,36.756029 C34.0866583,40.4995217 28.9567802,42.5025241 23.5474241,42.3954559 L23.5326363,42.3949973 L23.5175046,42.3949973 C20.9795046,42.4008437 18.4816266,41.9593876 16.0966632,41.0849583 C15.5068705,40.8689876 14.8648046,40.9347876 14.3341632,41.2663095 L10.1657217,43.8701095 L10.1657217,38.6497851 C10.1657217,38.0672144 9.91226561,37.5128437 9.47080951,37.1290485 C5.26465341,33.4727924 2.83406561,28.1803632 2.80001927,22.6071949 C2.92806561,17.2060924 5.14646561,12.1733095 9.04803878,8.43428756 C12.9540827,4.69113878 18.0857949,2.68859488 23.4932022,2.7947461 L23.5205998,2.79520463 L23.5474241,2.7947461 C28.9554046,2.68997049 34.0866583,4.69113878 37.9931607,8.43428756 C41.8911802,12.1700998 44.1094656,17.1988705 44.2407217,22.5951583 C44.1094656,27.9919046 41.8911802,33.0201022 37.9931607,36.756029 Z M46.9945778,22.5637485 C46.8544949,16.4214217 44.3339193,10.6969363 39.8984949,6.44607293 C35.4689168,2.20139976 29.6516924,-0.0724831707 23.5205998,0.0412339024 C17.3867559,-0.0737441463 11.5717095,2.20139976 7.14270463,6.44607293 C2.70682171,10.6969363 0.186704634,16.4214217 0.0460485366,22.56329 L0.04559,22.5830071 L0.04559,22.6022656 C0.0779168293,28.8620924 2.75829244,34.813668 7.41175098,38.9846315 L7.41175098,44.6603973 C7.41175098,45.7620315 8.18117537,46.72129 9.24005098,46.9418461 C9.39732902,46.9746315 9.55495098,46.9911388 9.71257293,46.9911388 C10.1387827,46.9911388 10.5579998,46.8715754 10.9268924,46.64139 L15.4880705,43.7916998 C18.06069,44.6926095 20.7447339,45.1490827 23.4739437,45.1490827 L23.5081046,45.1490827 C23.6594217,45.1516046 23.8090193,45.1534388 23.9594193,45.1534388 C29.9302534,45.1529802 35.575068,42.8871217 39.8984949,38.7443583 C44.3339193,34.4930363 46.8544949,28.7687802 46.9945778,22.6264534 L46.9954949,22.5951583 L46.9945778,22.5637485 Z" id="Fill-10"></path>
                    <path d="M33.6084046,16.0188839 L13.4323363,16.0188839 C12.671968,16.0188839 12.055351,16.6350424 12.055351,17.3958693 C12.055351,18.1562376 12.671968,18.7728546 13.4323363,18.7728546 L33.6084046,18.7728546 C34.3692315,18.7728546 34.9858485,18.1562376 34.9858485,17.3958693 C34.9858485,16.6350424 34.3692315,16.0188839 33.6084046,16.0188839" id="Fill-13"></path>
                    <path d="M33.6084046,22.1097171 L13.4323363,22.1097171 C12.671968,22.1097171 12.055351,22.7263341 12.055351,23.4862439 C12.055351,24.2470707 12.671968,24.8632293 13.4323363,24.8632293 L33.6084046,24.8632293 C34.3692315,24.8632293 34.9858485,24.2470707 34.9858485,23.4862439 C34.9858485,22.7263341 34.3692315,22.1097171 33.6084046,22.1097171" id="Fill-15"></path>
                    <path d="M33.6084046,28.2001032 L23.6885388,28.2001032 C22.9282851,28.2001032 22.3115534,28.8167202 22.3115534,29.5775471 C22.3115534,30.3375715 22.9282851,30.9540739 23.6885388,30.9540739 L33.6084046,30.9540739 C34.3692315,30.9540739 34.9858485,30.3375715 34.9858485,29.5775471 C34.9858485,28.8167202 34.3692315,28.2001032 33.6084046,28.2001032" id="Fill-17"></path>
                </g>
                <g id="Group-2" transform="translate(501.101597, 287.101597) rotate(-30.000000) translate(-501.101597, -287.101597) translate(477.601597, 263.601597)" fill="#EDC2C9">
                    <path d="M44.2013105,23.9222663 L36.0108154,15.2920346 C35.3256471,14.5698395 34.3638666,14.1926932 33.3688422,14.2575761 C32.375652,14.3225737 31.4696983,14.8213468 30.8840324,15.6269956 L20.2230568,30.2859517 C20.0877885,30.4717737 19.9028837,30.5160224 19.8048715,30.5257663 C19.7072032,30.535281 19.517369,30.5290907 19.3480544,30.3735322 L13.3069495,24.8276468 C12.037491,23.6620468 10.0511105,23.663881 8.78337146,24.8305127 L2.75258366,30.3821298 L2.75258366,12.7100151 C2.75258366,7.21926878 7.21930317,2.7526639 12.7100495,2.7526639 L34.2443032,2.7526639 C39.734591,2.7526639 44.2013105,7.21926878 44.2013105,12.7100151 L44.2013105,23.9222663 Z M44.2013105,34.2442688 C44.2013105,39.7345566 39.734591,44.2012761 34.2443032,44.2012761 L12.7100495,44.2012761 C7.21930317,44.2012761 2.75258366,39.7345566 2.75258366,34.2442688 L2.75258366,34.1233298 L10.647552,26.8558688 C10.8714324,26.6497566 11.2216398,26.6497566 11.4450617,26.8552956 L17.4861666,32.4012956 C18.1869251,33.0446224 19.1318544,33.3589493 20.0788471,33.2644907 C21.0254959,33.1701468 21.8892641,32.6743541 22.4494812,31.905159 L33.1104568,17.2457444 C33.2519154,17.0513249 33.4454178,17.0110883 33.5483593,17.0043249 C33.6514154,16.99802 33.8483568,17.0120054 34.0141178,17.1865932 L44.2013105,27.9211639 L44.2013105,34.2442688 Z M34.2443032,-4.58536585e-05 L12.7100495,-4.58536585e-05 C5.70166171,-4.58536585e-05 -1.14634147e-05,5.70162732 -1.14634147e-05,12.7100151 L-1.14634147e-05,34.2442688 C-1.14634147e-05,41.2526566 5.70166171,46.9543298 12.7100495,46.9543298 L34.2443032,46.9543298 C41.2525763,46.9543298 46.9543641,41.2526566 46.9543641,34.2442688 L46.9543641,12.7100151 C46.9543641,5.70162732 41.2525763,-4.58536585e-05 34.2443032,-4.58536585e-05 Z" id="Fill-19"></path>
                    <path d="M13.1059041,14.8760732 C11.9569261,14.8760732 11.0215115,13.9410024 11.0215115,12.7915659 C11.0215115,11.6421293 11.9569261,10.7067146 13.1059041,10.7067146 C14.2553407,10.7067146 15.1904115,11.6416707 15.1904115,12.7915659 C15.1904115,13.9410024 14.2553407,14.8760732 13.1059041,14.8760732 M13.1059041,7.95411951 C10.4388261,7.95411951 8.26891634,10.1246024 8.26891634,12.7915659 C8.26891634,15.4586439 10.4388261,17.6290122 13.1059041,17.6290122 C15.7734407,17.6290122 17.942892,15.4586439 17.942892,12.7915659 C17.9433505,10.1246024 15.7734407,7.95411951 13.1059041,7.95411951" id="Fill-22"></path>
                </g>
                <g id="Group-2-Copy-3" transform="translate(1197.101597, 287.101597) rotate(-30.000000) translate(-1197.101597, -287.101597) translate(1173.601597, 263.601597)" fill="#C9BBE2">
                    <path d="M44.2013105,23.9222663 L36.0108154,15.2920346 C35.3256471,14.5698395 34.3638666,14.1926932 33.3688422,14.2575761 C32.375652,14.3225737 31.4696983,14.8213468 30.8840324,15.6269956 L20.2230568,30.2859517 C20.0877885,30.4717737 19.9028837,30.5160224 19.8048715,30.5257663 C19.7072032,30.535281 19.517369,30.5290907 19.3480544,30.3735322 L13.3069495,24.8276468 C12.037491,23.6620468 10.0511105,23.663881 8.78337146,24.8305127 L2.75258366,30.3821298 L2.75258366,12.7100151 C2.75258366,7.21926878 7.21930317,2.7526639 12.7100495,2.7526639 L34.2443032,2.7526639 C39.734591,2.7526639 44.2013105,7.21926878 44.2013105,12.7100151 L44.2013105,23.9222663 Z M44.2013105,34.2442688 C44.2013105,39.7345566 39.734591,44.2012761 34.2443032,44.2012761 L12.7100495,44.2012761 C7.21930317,44.2012761 2.75258366,39.7345566 2.75258366,34.2442688 L2.75258366,34.1233298 L10.647552,26.8558688 C10.8714324,26.6497566 11.2216398,26.6497566 11.4450617,26.8552956 L17.4861666,32.4012956 C18.1869251,33.0446224 19.1318544,33.3589493 20.0788471,33.2644907 C21.0254959,33.1701468 21.8892641,32.6743541 22.4494812,31.905159 L33.1104568,17.2457444 C33.2519154,17.0513249 33.4454178,17.0110883 33.5483593,17.0043249 C33.6514154,16.99802 33.8483568,17.0120054 34.0141178,17.1865932 L44.2013105,27.9211639 L44.2013105,34.2442688 Z M34.2443032,-4.58536585e-05 L12.7100495,-4.58536585e-05 C5.70166171,-4.58536585e-05 -1.14634147e-05,5.70162732 -1.14634147e-05,12.7100151 L-1.14634147e-05,34.2442688 C-1.14634147e-05,41.2526566 5.70166171,46.9543298 12.7100495,46.9543298 L34.2443032,46.9543298 C41.2525763,46.9543298 46.9543641,41.2526566 46.9543641,34.2442688 L46.9543641,12.7100151 C46.9543641,5.70162732 41.2525763,-4.58536585e-05 34.2443032,-4.58536585e-05 Z" id="Fill-19"></path>
                    <path d="M13.1059041,14.8760732 C11.9569261,14.8760732 11.0215115,13.9410024 11.0215115,12.7915659 C11.0215115,11.6421293 11.9569261,10.7067146 13.1059041,10.7067146 C14.2553407,10.7067146 15.1904115,11.6416707 15.1904115,12.7915659 C15.1904115,13.9410024 14.2553407,14.8760732 13.1059041,14.8760732 M13.1059041,7.95411951 C10.4388261,7.95411951 8.26891634,10.1246024 8.26891634,12.7915659 C8.26891634,15.4586439 10.4388261,17.6290122 13.1059041,17.6290122 C15.7734407,17.6290122 17.942892,15.4586439 17.942892,12.7915659 C17.9433505,10.1246024 15.7734407,7.95411951 13.1059041,7.95411951" id="Fill-22"></path>
                </g>
                <g id="Group-2-Copy-2" transform="translate(896.101597, 532.101597) rotate(-30.000000) translate(-896.101597, -532.101597) translate(872.601597, 508.601597)" fill="#EDC2C9">
                    <path d="M44.2013105,23.9222663 L36.0108154,15.2920346 C35.3256471,14.5698395 34.3638666,14.1926932 33.3688422,14.2575761 C32.375652,14.3225737 31.4696983,14.8213468 30.8840324,15.6269956 L20.2230568,30.2859517 C20.0877885,30.4717737 19.9028837,30.5160224 19.8048715,30.5257663 C19.7072032,30.535281 19.517369,30.5290907 19.3480544,30.3735322 L13.3069495,24.8276468 C12.037491,23.6620468 10.0511105,23.663881 8.78337146,24.8305127 L2.75258366,30.3821298 L2.75258366,12.7100151 C2.75258366,7.21926878 7.21930317,2.7526639 12.7100495,2.7526639 L34.2443032,2.7526639 C39.734591,2.7526639 44.2013105,7.21926878 44.2013105,12.7100151 L44.2013105,23.9222663 Z M44.2013105,34.2442688 C44.2013105,39.7345566 39.734591,44.2012761 34.2443032,44.2012761 L12.7100495,44.2012761 C7.21930317,44.2012761 2.75258366,39.7345566 2.75258366,34.2442688 L2.75258366,34.1233298 L10.647552,26.8558688 C10.8714324,26.6497566 11.2216398,26.6497566 11.4450617,26.8552956 L17.4861666,32.4012956 C18.1869251,33.0446224 19.1318544,33.3589493 20.0788471,33.2644907 C21.0254959,33.1701468 21.8892641,32.6743541 22.4494812,31.905159 L33.1104568,17.2457444 C33.2519154,17.0513249 33.4454178,17.0110883 33.5483593,17.0043249 C33.6514154,16.99802 33.8483568,17.0120054 34.0141178,17.1865932 L44.2013105,27.9211639 L44.2013105,34.2442688 Z M34.2443032,-4.58536585e-05 L12.7100495,-4.58536585e-05 C5.70166171,-4.58536585e-05 -1.14634147e-05,5.70162732 -1.14634147e-05,12.7100151 L-1.14634147e-05,34.2442688 C-1.14634147e-05,41.2526566 5.70166171,46.9543298 12.7100495,46.9543298 L34.2443032,46.9543298 C41.2525763,46.9543298 46.9543641,41.2526566 46.9543641,34.2442688 L46.9543641,12.7100151 C46.9543641,5.70162732 41.2525763,-4.58536585e-05 34.2443032,-4.58536585e-05 Z" id="Fill-19"></path>
                    <path d="M13.1059041,14.8760732 C11.9569261,14.8760732 11.0215115,13.9410024 11.0215115,12.7915659 C11.0215115,11.6421293 11.9569261,10.7067146 13.1059041,10.7067146 C14.2553407,10.7067146 15.1904115,11.6416707 15.1904115,12.7915659 C15.1904115,13.9410024 14.2553407,14.8760732 13.1059041,14.8760732 M13.1059041,7.95411951 C10.4388261,7.95411951 8.26891634,10.1246024 8.26891634,12.7915659 C8.26891634,15.4586439 10.4388261,17.6290122 13.1059041,17.6290122 C15.7734407,17.6290122 17.942892,15.4586439 17.942892,12.7915659 C17.9433505,10.1246024 15.7734407,7.95411951 13.1059041,7.95411951" id="Fill-22"></path>
                </g>
                <g id="Group-2-Copy" transform="translate(1058.101597, 146.101597) rotate(-30.000000) translate(-1058.101597, -146.101597) translate(1034.601597, 122.601597)" fill="#B4F2AF">
                    <path d="M44.2013105,23.9222663 L36.0108154,15.2920346 C35.3256471,14.5698395 34.3638666,14.1926932 33.3688422,14.2575761 C32.375652,14.3225737 31.4696983,14.8213468 30.8840324,15.6269956 L20.2230568,30.2859517 C20.0877885,30.4717737 19.9028837,30.5160224 19.8048715,30.5257663 C19.7072032,30.535281 19.517369,30.5290907 19.3480544,30.3735322 L13.3069495,24.8276468 C12.037491,23.6620468 10.0511105,23.663881 8.78337146,24.8305127 L2.75258366,30.3821298 L2.75258366,12.7100151 C2.75258366,7.21926878 7.21930317,2.7526639 12.7100495,2.7526639 L34.2443032,2.7526639 C39.734591,2.7526639 44.2013105,7.21926878 44.2013105,12.7100151 L44.2013105,23.9222663 Z M44.2013105,34.2442688 C44.2013105,39.7345566 39.734591,44.2012761 34.2443032,44.2012761 L12.7100495,44.2012761 C7.21930317,44.2012761 2.75258366,39.7345566 2.75258366,34.2442688 L2.75258366,34.1233298 L10.647552,26.8558688 C10.8714324,26.6497566 11.2216398,26.6497566 11.4450617,26.8552956 L17.4861666,32.4012956 C18.1869251,33.0446224 19.1318544,33.3589493 20.0788471,33.2644907 C21.0254959,33.1701468 21.8892641,32.6743541 22.4494812,31.905159 L33.1104568,17.2457444 C33.2519154,17.0513249 33.4454178,17.0110883 33.5483593,17.0043249 C33.6514154,16.99802 33.8483568,17.0120054 34.0141178,17.1865932 L44.2013105,27.9211639 L44.2013105,34.2442688 Z M34.2443032,-4.58536585e-05 L12.7100495,-4.58536585e-05 C5.70166171,-4.58536585e-05 -1.14634147e-05,5.70162732 -1.14634147e-05,12.7100151 L-1.14634147e-05,34.2442688 C-1.14634147e-05,41.2526566 5.70166171,46.9543298 12.7100495,46.9543298 L34.2443032,46.9543298 C41.2525763,46.9543298 46.9543641,41.2526566 46.9543641,34.2442688 L46.9543641,12.7100151 C46.9543641,5.70162732 41.2525763,-4.58536585e-05 34.2443032,-4.58536585e-05 Z" id="Fill-19"></path>
                    <path d="M13.1059041,14.8760732 C11.9569261,14.8760732 11.0215115,13.9410024 11.0215115,12.7915659 C11.0215115,11.6421293 11.9569261,10.7067146 13.1059041,10.7067146 C14.2553407,10.7067146 15.1904115,11.6416707 15.1904115,12.7915659 C15.1904115,13.9410024 14.2553407,14.8760732 13.1059041,14.8760732 M13.1059041,7.95411951 C10.4388261,7.95411951 8.26891634,10.1246024 8.26891634,12.7915659 C8.26891634,15.4586439 10.4388261,17.6290122 13.1059041,17.6290122 C15.7734407,17.6290122 17.942892,15.4586439 17.942892,12.7915659 C17.9433505,10.1246024 15.7734407,7.95411951 13.1059041,7.95411951" id="Fill-22"></path>
                </g>
                <g id="Group-3" transform="translate(976.405592, 30.405592) rotate(-315.000000) translate(-976.405592, -30.405592) translate(956.905592, 6.905592)" fill="#D5E5E7">
                    <path d="M13.0997807,5.27123961 C14.7781491,3.58027384 16.7466228,2.75840587 19.1186667,2.75840587 C21.4902544,2.75840587 23.4590702,3.58027384 25.1376667,5.27123961 C26.8155789,6.96266504 27.631614,8.94677751 27.631614,11.3361932 C27.631614,13.7264132 26.8155789,15.710066 25.1376667,17.4014914 C23.4590702,19.0929169 21.4902544,19.9152445 19.1186667,19.9152445 C16.7470789,19.9152445 14.7786053,19.0929169 13.0997807,17.4014914 C11.4212982,15.7105257 10.6052632,13.7264132 10.6052632,11.3361932 C10.6052632,8.94677751 11.4212982,6.96266504 13.0997807,5.27123961 M19.1186667,22.6731907 C22.2095877,22.6731907 24.8858772,21.5563374 27.0730702,19.351934 C29.259693,17.148335 30.3689123,14.4514083 30.3689123,11.3361932 C30.3689123,8.22224205 29.2601491,5.5253154 27.072614,3.32091198 C24.8854211,1.11731296 22.2091316,0 19.1186667,0 C16.0271754,0 13.351,1.11731296 11.1642632,3.32091198 C8.97707018,5.52485575 7.86842105,8.2217824 7.86842105,11.3361932 C7.86842105,14.4514083 8.97707018,17.148335 11.1642632,19.3522787 C13.3517982,21.5558778 16.0280877,22.6731907 19.1186667,22.6731907" id="Fill-24"></path>
                    <path d="M34.7779649,42.7912592 C33.7807281,43.7478068 32.4564386,44.2128655 30.7292632,44.2128655 L8.23903509,44.2128655 C6.51197368,44.2128655 5.18779825,43.7478068 4.19078947,42.7912592 C3.21248246,41.8532127 2.73684211,40.5720318 2.73684211,38.8765844 C2.73684211,37.9946161 2.76569298,37.1236797 2.82373684,36.2877922 C2.87972807,35.4673032 2.99524561,34.566489 3.16572807,33.609022 C3.33415789,32.6635061 3.549,31.7761369 3.80409649,30.973 C4.04858772,30.2027286 4.38282456,29.4395819 4.79654386,28.7053936 C5.19224561,28.0049902 5.6465614,27.4039878 6.14854386,26.9200831 C6.61768421,26.4670905 7.20907018,26.0964914 7.9062807,25.8186284 C8.55080702,25.561335 9.2755,25.4209095 10.0617719,25.3996504 C10.1581316,25.4509022 10.3287281,25.5486944 10.6052632,25.730489 C11.1679123,26.0999389 11.8165439,26.5220196 12.5331404,26.983401 C13.3417632,27.5022396 14.3826754,27.9713203 15.6269123,28.3762787 C16.8985175,28.7905452 18.1956667,29.0010685 19.4834649,29.0010685 C20.770807,29.0010685 22.0685263,28.7905452 23.3396754,28.3766235 C24.5847105,27.9708606 25.6257368,27.5022396 26.4347018,26.9824817 C27.1688596,26.5097237 27.7992456,26.1005134 28.3616667,25.730489 C28.6383158,25.549154 28.8089123,25.4509022 28.9047018,25.3996504 C29.691886,25.4209095 30.4161228,25.561335 31.0611053,25.8186284 C31.7579737,26.0964914 32.3493596,26.4675501 32.8188421,26.9200831 C33.3205965,27.403643 33.7752544,28.0045306 34.1705,28.7053936 C34.5847895,29.4395819 34.9191404,30.2027286 35.1638596,30.9725403 C35.4189561,31.7769413 35.6342544,32.6639658 35.802114,33.609022 C35.9728246,34.5676381 36.088,35.4690269 36.1442193,36.2877922 L36.1442193,36.2887115 C36.2024912,37.1213814 36.2314561,37.9917433 36.2319123,38.8765844 C36.2314561,40.5723765 35.7561579,41.8532127 34.7779649,42.7912592 M38.8749035,36.0956553 C38.8115,35.1787531 38.6842368,34.1781932 38.496193,33.1217848 C38.3067807,32.0576773 38.0628596,31.0511418 37.7704737,30.1313667 C37.4681667,29.1810244 37.0577544,28.2420587 36.5499561,27.3425086 C36.0240263,26.4088289 35.4051579,25.5958093 34.7111404,24.9270073 C33.985193,24.2271785 33.0965175,23.6643276 32.0687193,23.2539682 C31.0443421,22.8454474 29.9093509,22.6386015 28.6953333,22.6386015 C28.2184386,22.6386015 27.7573947,22.8356797 26.8667807,23.4200196 C26.3188421,23.7801614 25.6773947,24.1967262 24.9621667,24.6576479 C24.3501404,25.0504254 23.5214474,25.4184963 22.4975263,25.7517482 C21.498807,26.0775306 20.4843509,26.2426626 19.4830088,26.2426626 C18.482693,26.2426626 17.4683509,26.0775306 16.4687193,25.7517482 C15.4460526,25.418956 14.6164474,25.0508851 14.0057895,24.6581076 C13.2970614,24.2015526 12.655614,23.7849878 12.0992368,23.4196748 C11.209193,22.8356797 10.7481491,22.6381418 10.2717105,22.6381418 C9.0567807,22.6381418 7.92235965,22.8454474 6.8987807,23.2539682 C5.8714386,23.6639829 4.98230702,24.2267188 4.25578947,24.9275819 C3.56177193,25.5967286 2.94313158,26.4091736 2.41697368,27.3425086 C1.91008772,28.2420587 1.49933333,29.1806797 1.19736842,30.1319413 C0.905096491,31.0517164 0.660947368,32.0576773 0.471763158,33.1217848 C0.283263158,34.1766993 0.15645614,35.1777188 0.0930526316,36.0970342 C0.0311315789,36.995665 0,37.9311834 0,38.8765844 C0,41.3332249 0.774982456,43.3227384 2.30350877,44.7897359 C3.81299123,46.2368533 5.81008772,46.9712714 8.23903509,46.9712714 L30.7297193,46.9712714 C33.1584386,46.9712714 35.1554211,46.2368533 36.6654737,44.7897359 C38.194114,43.3237726 38.9693246,41.3336846 38.9693246,38.8761247 C38.9687544,37.9277359 38.9372807,36.9921027 38.8749035,36.0956553" id="Fill-26"></path>
                </g>
                <g id="Group-3-Copy" transform="translate(995.405592, 380.405592) rotate(-315.000000) translate(-995.405592, -380.405592) translate(975.905592, 356.905592)" fill="#B4F2AF">
                    <path d="M13.0997807,5.27123961 C14.7781491,3.58027384 16.7466228,2.75840587 19.1186667,2.75840587 C21.4902544,2.75840587 23.4590702,3.58027384 25.1376667,5.27123961 C26.8155789,6.96266504 27.631614,8.94677751 27.631614,11.3361932 C27.631614,13.7264132 26.8155789,15.710066 25.1376667,17.4014914 C23.4590702,19.0929169 21.4902544,19.9152445 19.1186667,19.9152445 C16.7470789,19.9152445 14.7786053,19.0929169 13.0997807,17.4014914 C11.4212982,15.7105257 10.6052632,13.7264132 10.6052632,11.3361932 C10.6052632,8.94677751 11.4212982,6.96266504 13.0997807,5.27123961 M19.1186667,22.6731907 C22.2095877,22.6731907 24.8858772,21.5563374 27.0730702,19.351934 C29.259693,17.148335 30.3689123,14.4514083 30.3689123,11.3361932 C30.3689123,8.22224205 29.2601491,5.5253154 27.072614,3.32091198 C24.8854211,1.11731296 22.2091316,0 19.1186667,0 C16.0271754,0 13.351,1.11731296 11.1642632,3.32091198 C8.97707018,5.52485575 7.86842105,8.2217824 7.86842105,11.3361932 C7.86842105,14.4514083 8.97707018,17.148335 11.1642632,19.3522787 C13.3517982,21.5558778 16.0280877,22.6731907 19.1186667,22.6731907" id="Fill-24"></path>
                    <path d="M34.7779649,42.7912592 C33.7807281,43.7478068 32.4564386,44.2128655 30.7292632,44.2128655 L8.23903509,44.2128655 C6.51197368,44.2128655 5.18779825,43.7478068 4.19078947,42.7912592 C3.21248246,41.8532127 2.73684211,40.5720318 2.73684211,38.8765844 C2.73684211,37.9946161 2.76569298,37.1236797 2.82373684,36.2877922 C2.87972807,35.4673032 2.99524561,34.566489 3.16572807,33.609022 C3.33415789,32.6635061 3.549,31.7761369 3.80409649,30.973 C4.04858772,30.2027286 4.38282456,29.4395819 4.79654386,28.7053936 C5.19224561,28.0049902 5.6465614,27.4039878 6.14854386,26.9200831 C6.61768421,26.4670905 7.20907018,26.0964914 7.9062807,25.8186284 C8.55080702,25.561335 9.2755,25.4209095 10.0617719,25.3996504 C10.1581316,25.4509022 10.3287281,25.5486944 10.6052632,25.730489 C11.1679123,26.0999389 11.8165439,26.5220196 12.5331404,26.983401 C13.3417632,27.5022396 14.3826754,27.9713203 15.6269123,28.3762787 C16.8985175,28.7905452 18.1956667,29.0010685 19.4834649,29.0010685 C20.770807,29.0010685 22.0685263,28.7905452 23.3396754,28.3766235 C24.5847105,27.9708606 25.6257368,27.5022396 26.4347018,26.9824817 C27.1688596,26.5097237 27.7992456,26.1005134 28.3616667,25.730489 C28.6383158,25.549154 28.8089123,25.4509022 28.9047018,25.3996504 C29.691886,25.4209095 30.4161228,25.561335 31.0611053,25.8186284 C31.7579737,26.0964914 32.3493596,26.4675501 32.8188421,26.9200831 C33.3205965,27.403643 33.7752544,28.0045306 34.1705,28.7053936 C34.5847895,29.4395819 34.9191404,30.2027286 35.1638596,30.9725403 C35.4189561,31.7769413 35.6342544,32.6639658 35.802114,33.609022 C35.9728246,34.5676381 36.088,35.4690269 36.1442193,36.2877922 L36.1442193,36.2887115 C36.2024912,37.1213814 36.2314561,37.9917433 36.2319123,38.8765844 C36.2314561,40.5723765 35.7561579,41.8532127 34.7779649,42.7912592 M38.8749035,36.0956553 C38.8115,35.1787531 38.6842368,34.1781932 38.496193,33.1217848 C38.3067807,32.0576773 38.0628596,31.0511418 37.7704737,30.1313667 C37.4681667,29.1810244 37.0577544,28.2420587 36.5499561,27.3425086 C36.0240263,26.4088289 35.4051579,25.5958093 34.7111404,24.9270073 C33.985193,24.2271785 33.0965175,23.6643276 32.0687193,23.2539682 C31.0443421,22.8454474 29.9093509,22.6386015 28.6953333,22.6386015 C28.2184386,22.6386015 27.7573947,22.8356797 26.8667807,23.4200196 C26.3188421,23.7801614 25.6773947,24.1967262 24.9621667,24.6576479 C24.3501404,25.0504254 23.5214474,25.4184963 22.4975263,25.7517482 C21.498807,26.0775306 20.4843509,26.2426626 19.4830088,26.2426626 C18.482693,26.2426626 17.4683509,26.0775306 16.4687193,25.7517482 C15.4460526,25.418956 14.6164474,25.0508851 14.0057895,24.6581076 C13.2970614,24.2015526 12.655614,23.7849878 12.0992368,23.4196748 C11.209193,22.8356797 10.7481491,22.6381418 10.2717105,22.6381418 C9.0567807,22.6381418 7.92235965,22.8454474 6.8987807,23.2539682 C5.8714386,23.6639829 4.98230702,24.2267188 4.25578947,24.9275819 C3.56177193,25.5967286 2.94313158,26.4091736 2.41697368,27.3425086 C1.91008772,28.2420587 1.49933333,29.1806797 1.19736842,30.1319413 C0.905096491,31.0517164 0.660947368,32.0576773 0.471763158,33.1217848 C0.283263158,34.1766993 0.15645614,35.1777188 0.0930526316,36.0970342 C0.0311315789,36.995665 0,37.9311834 0,38.8765844 C0,41.3332249 0.774982456,43.3227384 2.30350877,44.7897359 C3.81299123,46.2368533 5.81008772,46.9712714 8.23903509,46.9712714 L30.7297193,46.9712714 C33.1584386,46.9712714 35.1554211,46.2368533 36.6654737,44.7897359 C38.194114,43.3237726 38.9693246,41.3336846 38.9693246,38.8761247 C38.9687544,37.9277359 38.9372807,36.9921027 38.8749035,36.0956553" id="Fill-26"></path>
                </g>
                <g id="Group-5" transform="translate(556.020024, 118.969771) rotate(-15.000000) translate(-556.020024, -118.969771) translate(539.520024, 95.469771)" fill="#B9DFE3">
                    <path d="M28.3128542,23.5519293 L16.7080833,42.9358756 L4.80035417,23.7382098 C3.45892708,21.5709366 2.73166667,19.070422 2.73166667,16.5073171 C2.73166667,8.92220488 8.91825,2.73287805 16.5,2.73287805 C24.08175,2.73287805 30.2589375,8.92220488 30.2589375,16.5073171 C30.2589375,18.9943049 29.5800313,21.430739 28.3128542,23.5519293 M16.5,0 C7.40173958,0 0,7.40513659 0,16.5073171 C0,19.582722 0.851239583,22.5838439 2.46308333,25.1877585 L15.5605313,46.3037122 C15.8115833,46.7084854 16.2537604,46.954261 16.7291667,46.954261 L16.7399375,46.954261 C17.2193542,46.9502488 17.6623333,46.6967927 17.9085729,46.2852561 L30.6724688,24.9646805 C32.1951667,22.4159049 33,19.4913585 33,16.5073171 C33,7.40513659 25.5982604,0 16.5,0" id="Fill-28"></path>
                    <path d="M16.5,22.4866341 C13.4513958,22.4866341 10.9816667,20.0076707 10.9816667,16.9658537 C10.9816667,13.9316024 13.4670937,11.4450732 16.5,11.4450732 C19.5324479,11.4450732 22.0089375,13.9316024 22.0089375,16.9658537 C22.0089375,19.9629634 19.5968437,22.4866341 16.5,22.4866341 M16.5,8.71219512 C11.9506979,8.71219512 8.25,12.4149927 8.25,16.9658537 C8.25,21.4875976 11.8906563,25.2195122 16.5,25.2195122 C21.1660625,25.2195122 24.75,21.437961 24.75,16.9658537 C24.75,12.4149927 21.0488438,8.71219512 16.5,8.71219512" id="Fill-30"></path>
                </g>
                <g id="Group-5-Copy-3" transform="translate(1090.020024, 565.969771) rotate(-15.000000) translate(-1090.020024, -565.969771) translate(1073.520024, 542.469771)" fill="#B4F2AF">
                    <path d="M28.3128542,23.5519293 L16.7080833,42.9358756 L4.80035417,23.7382098 C3.45892708,21.5709366 2.73166667,19.070422 2.73166667,16.5073171 C2.73166667,8.92220488 8.91825,2.73287805 16.5,2.73287805 C24.08175,2.73287805 30.2589375,8.92220488 30.2589375,16.5073171 C30.2589375,18.9943049 29.5800313,21.430739 28.3128542,23.5519293 M16.5,0 C7.40173958,0 0,7.40513659 0,16.5073171 C0,19.582722 0.851239583,22.5838439 2.46308333,25.1877585 L15.5605313,46.3037122 C15.8115833,46.7084854 16.2537604,46.954261 16.7291667,46.954261 L16.7399375,46.954261 C17.2193542,46.9502488 17.6623333,46.6967927 17.9085729,46.2852561 L30.6724688,24.9646805 C32.1951667,22.4159049 33,19.4913585 33,16.5073171 C33,7.40513659 25.5982604,0 16.5,0" id="Fill-28"></path>
                    <path d="M16.5,22.4866341 C13.4513958,22.4866341 10.9816667,20.0076707 10.9816667,16.9658537 C10.9816667,13.9316024 13.4670937,11.4450732 16.5,11.4450732 C19.5324479,11.4450732 22.0089375,13.9316024 22.0089375,16.9658537 C22.0089375,19.9629634 19.5968437,22.4866341 16.5,22.4866341 M16.5,8.71219512 C11.9506979,8.71219512 8.25,12.4149927 8.25,16.9658537 C8.25,21.4875976 11.8906563,25.2195122 16.5,25.2195122 C21.1660625,25.2195122 24.75,21.437961 24.75,16.9658537 C24.75,12.4149927 21.0488438,8.71219512 16.5,8.71219512" id="Fill-30"></path>
                </g>
                <g id="Group-5-Copy" transform="translate(906.020024, 207.969771) rotate(-15.000000) translate(-906.020024, -207.969771) translate(889.520024, 184.469771)" fill="#EDC2C9">
                    <path d="M28.3128542,23.5519293 L16.7080833,42.9358756 L4.80035417,23.7382098 C3.45892708,21.5709366 2.73166667,19.070422 2.73166667,16.5073171 C2.73166667,8.92220488 8.91825,2.73287805 16.5,2.73287805 C24.08175,2.73287805 30.2589375,8.92220488 30.2589375,16.5073171 C30.2589375,18.9943049 29.5800313,21.430739 28.3128542,23.5519293 M16.5,0 C7.40173958,0 0,7.40513659 0,16.5073171 C0,19.582722 0.851239583,22.5838439 2.46308333,25.1877585 L15.5605313,46.3037122 C15.8115833,46.7084854 16.2537604,46.954261 16.7291667,46.954261 L16.7399375,46.954261 C17.2193542,46.9502488 17.6623333,46.6967927 17.9085729,46.2852561 L30.6724688,24.9646805 C32.1951667,22.4159049 33,19.4913585 33,16.5073171 C33,7.40513659 25.5982604,0 16.5,0" id="Fill-28"></path>
                    <path d="M16.5,22.4866341 C13.4513958,22.4866341 10.9816667,20.0076707 10.9816667,16.9658537 C10.9816667,13.9316024 13.4670937,11.4450732 16.5,11.4450732 C19.5324479,11.4450732 22.0089375,13.9316024 22.0089375,16.9658537 C22.0089375,19.9629634 19.5968437,22.4866341 16.5,22.4866341 M16.5,8.71219512 C11.9506979,8.71219512 8.25,12.4149927 8.25,16.9658537 C8.25,21.4875976 11.8906563,25.2195122 16.5,25.2195122 C21.1660625,25.2195122 24.75,21.437961 24.75,16.9658537 C24.75,12.4149927 21.0488438,8.71219512 16.5,8.71219512" id="Fill-30"></path>
                </g>
                <g id="Group-5-Copy-2" transform="translate(247.020024, 291.969771) rotate(-15.000000) translate(-247.020024, -291.969771) translate(230.520024, 268.469771)" fill="#B9DFE3">
                    <path d="M28.3128542,23.5519293 L16.7080833,42.9358756 L4.80035417,23.7382098 C3.45892708,21.5709366 2.73166667,19.070422 2.73166667,16.5073171 C2.73166667,8.92220488 8.91825,2.73287805 16.5,2.73287805 C24.08175,2.73287805 30.2589375,8.92220488 30.2589375,16.5073171 C30.2589375,18.9943049 29.5800313,21.430739 28.3128542,23.5519293 M16.5,0 C7.40173958,0 0,7.40513659 0,16.5073171 C0,19.582722 0.851239583,22.5838439 2.46308333,25.1877585 L15.5605313,46.3037122 C15.8115833,46.7084854 16.2537604,46.954261 16.7291667,46.954261 L16.7399375,46.954261 C17.2193542,46.9502488 17.6623333,46.6967927 17.9085729,46.2852561 L30.6724688,24.9646805 C32.1951667,22.4159049 33,19.4913585 33,16.5073171 C33,7.40513659 25.5982604,0 16.5,0" id="Fill-28"></path>
                    <path d="M16.5,22.4866341 C13.4513958,22.4866341 10.9816667,20.0076707 10.9816667,16.9658537 C10.9816667,13.9316024 13.4670937,11.4450732 16.5,11.4450732 C19.5324479,11.4450732 22.0089375,13.9316024 22.0089375,16.9658537 C22.0089375,19.9629634 19.5968437,22.4866341 16.5,22.4866341 M16.5,8.71219512 C11.9506979,8.71219512 8.25,12.4149927 8.25,16.9658537 C8.25,21.4875976 11.8906563,25.2195122 16.5,25.2195122 C21.1660625,25.2195122 24.75,21.437961 24.75,16.9658537 C24.75,12.4149927 21.0488438,8.71219512 16.5,8.71219512" id="Fill-30"></path>
                </g>
            </g>
        </g>
    </g>
</svg>