<?xml version="1.0" encoding="UTF-8"?>
<svg width="308px" height="308px" viewBox="0 0 308 308" version="1.1" xmlns="http://www.w3.org/2000/svg" xmlns:xlink="http://www.w3.org/1999/xlink">
    <!-- Generator: Sketch 49.3 (51167) - http://www.bohemiancoding.com/sketch -->
    <title>Unmatched price@2x</title>
    <desc>Created with Sketch.</desc>
    <defs>
        <circle id="path-1" cx="154" cy="154" r="154"></circle>
    </defs>
    <g id="Page-1" stroke="none" stroke-width="1" fill="none" fill-rule="evenodd">
        <g id="BUY-INSTAGRAM-LIKES-Copy" transform="translate(-603.000000, -62.000000)">
            <g id="Group-2" transform="translate(564.000000, 62.000000)">
                <g id="Unmatched-price" transform="translate(39.000000, 0.000000)">
                    <mask id="mask-2" fill="white">
                        <use xlink:href="#path-1"></use>
                    </mask>
                    <use id="Oval-2" fill="#ABAFFF" opacity="0.33910779" xlink:href="#path-1"></use>
                    <g id="Group-Copy-3" mask="url(#mask-2)" fill="#FFFFFF">
                        <g transform="translate(59.000000, 76.000000)">
                            <circle id="Oval" fill-rule="nonzero" opacity="0.451539855" cx="23.667" cy="23.667" r="23.667"></circle>
                            <path d="M22.5791359,16.8638388 C19.8028124,12.100429 12,13.4923223 12,19.4591789 C12,23.5676899 16.9108088,27.7694913 22.5791359,33.3949048 C28.2455972,27.7694913 33.1545401,23.5676899 33.1545401,19.4591789 C33.1545401,13.4717985 25.3330697,12.1377452 22.5791359,16.8638388 Z" id="Shape" fill-rule="nonzero"></path>
                            <rect id="Rectangle-5" fill-rule="evenodd" opacity="0.451539855" x="62" y="7" width="151" height="12" rx="6"></rect>
                            <rect id="Rectangle-5-Copy" fill-rule="evenodd" opacity="0.451539855" x="62" y="27" width="80" height="10" rx="5"></rect>
                        </g>
                    </g>
                    <g id="Group-Copy-7" mask="url(#mask-2)" fill="#FFFFFF">
                        <g transform="translate(59.000000, 141.000000)">
                            <circle id="Oval" fill-rule="nonzero" opacity="0.451539855" cx="23.667" cy="23.667" r="23.667"></circle>
                            <path d="M22.5791359,16.8638388 C19.8028124,12.100429 12,13.4923223 12,19.4591789 C12,23.5676899 16.9108088,27.7694913 22.5791359,33.3949048 C28.2455972,27.7694913 33.1545401,23.5676899 33.1545401,19.4591789 C33.1545401,13.4717985 25.3330697,12.1377452 22.5791359,16.8638388 Z" id="Shape" fill-rule="nonzero"></path>
                            <rect id="Rectangle-5" fill-rule="evenodd" opacity="0.451539855" x="62" y="7" width="151" height="12" rx="6"></rect>
                            <rect id="Rectangle-5-Copy" fill-rule="evenodd" opacity="0.451539855" x="62" y="27" width="80" height="10" rx="5"></rect>
                        </g>
                    </g>
                    <g id="Group-Copy-8" mask="url(#mask-2)" fill="#FFFFFF">
                        <g transform="translate(59.000000, 206.000000)">
                            <circle id="Oval" fill-rule="nonzero" opacity="0.451539855" cx="23.667" cy="23.667" r="23.667"></circle>
                            <path d="M22.5791359,16.8638388 C19.8028124,12.100429 12,13.4923223 12,19.4591789 C12,23.5676899 16.9108088,27.7694913 22.5791359,33.3949048 C28.2455972,27.7694913 33.1545401,23.5676899 33.1545401,19.4591789 C33.1545401,13.4717985 25.3330697,12.1377452 22.5791359,16.8638388 Z" id="Shape" fill-rule="nonzero"></path>
                            <rect id="Rectangle-5" fill-rule="evenodd" opacity="0.451539855" x="62" y="7" width="151" height="12" rx="6"></rect>
                            <rect id="Rectangle-5-Copy" fill-rule="evenodd" opacity="0.451539855" x="62" y="27" width="80" height="10" rx="5"></rect>
                        </g>
                    </g>
                </g>
            </g>
        </g>
    </g>
</svg>