<?xml version="1.0" encoding="UTF-8"?>
<svg width="299px" height="173px" viewBox="0 0 299 173" version="1.1" xmlns="http://www.w3.org/2000/svg" xmlns:xlink="http://www.w3.org/1999/xlink">
    <!-- Generator: Sketch 49.3 (51167) - http://www.bohemiancoding.com/sketch -->
    <title>Low Price@2x</title>
    <desc>Created with Sketch.</desc>
    <defs>
        <linearGradient x1="97.2200046%" y1="2.68528005%" x2="8.47827327%" y2="95.8941684%" id="linearGradient-1">
            <stop stop-color="#55FFBB" offset="0%"></stop>
            <stop stop-color="#47E0AC" offset="100%"></stop>
        </linearGradient>
        <rect id="path-2" x="0" y="0" width="199" height="73" rx="10"></rect>
        <filter x="-47.7%" y="-75.3%" width="195.5%" height="360.3%" filterUnits="objectBoundingBox" id="filter-3">
            <feOffset dx="0" dy="40" in="SourceAlpha" result="shadowOffsetOuter1"></feOffset>
            <feGaussianBlur stdDeviation="25" in="shadowOffsetOuter1" result="shadowBlurOuter1"></feGaussianBlur>
            <feColorMatrix values="0 0 0 0 0   0 0 0 0 0   0 0 0 0 0  0 0 0 0.1 0" type="matrix" in="shadowBlurOuter1"></feColorMatrix>
        </filter>
    </defs>
    <g id="Page-1" stroke="none" stroke-width="1" fill="none" fill-rule="evenodd">
        <g id="Automatic-Likes-Copy_2" transform="translate(-76.000000, -520.000000)">
            <g id="Lowest-Price" transform="translate(126.000000, 487.000000)">
                <g id="Low-Price" transform="translate(0.000000, 43.000000)">
                    <g id="Rectangle-6">
                        <use fill="black" fill-opacity="1" filter="url(#filter-3)" xlink:href="#path-2"></use>
                        <use fill="url(#linearGradient-1)" fill-rule="evenodd" xlink:href="#path-2"></use>
                    </g>
                    <path d="M37.4785153,51.1354983 C34.8650197,50.9206905 32.743824,50.5179318 31.1148644,49.9272102 C29.4859048,49.3364886 28.2776288,48.844228 27.49,48.4504136 L29.7991729,42.2747186 C31.0522187,42.8833409 32.5469009,43.4382529 34.2832644,43.9394712 C36.0196279,44.4406895 37.8544175,44.6912949 39.7876881,44.6912949 C41.971568,44.6912949 43.4662502,44.3959385 44.2717797,43.8052169 C45.0773091,43.2144954 45.4800678,42.3821274 45.4800678,41.3080881 C45.4800678,40.6278633 45.3189643,40.0461007 44.9967525,39.5627831 C44.6745408,39.0794654 44.2091307,38.6409059 43.6005085,38.2470915 C42.9918862,37.8532771 42.2221696,37.4684188 41.2913356,37.0925051 C40.3605016,36.7165913 39.2864784,36.3138327 38.0692339,35.8842169 C36.8877907,35.4546012 35.7332158,34.980241 34.6054746,34.461122 C33.4777333,33.9420031 32.4574113,33.3065394 31.544478,32.5547119 C30.6315446,31.8028844 29.8976288,30.8810145 29.3427085,29.7890746 C28.7877882,28.6971347 28.5103322,27.3814563 28.5103322,25.842 C28.5103322,24.6605568 28.6803859,23.5238823 29.0204983,22.4319424 C29.3606107,21.3400024 29.8886721,20.346531 30.6046983,19.4514983 C31.3207245,18.5564656 32.2515446,17.7956992 33.3971864,17.1691763 C34.5428283,16.5426534 35.9032577,16.0861935 37.4785153,15.7997831 L37.4785153,10 L44.2449288,10 L44.2449288,15.5849763 C46.1065969,15.7639828 47.7086814,16.0324886 49.0512305,16.3905017 C50.3937796,16.7485148 51.4588526,17.1065225 52.2464814,17.4645356 L50.5817288,23.908739 C49.4002856,23.4075207 48.0309061,22.9779114 46.4735492,22.6198983 C44.9161922,22.2618852 43.2783069,22.0828814 41.5598441,22.0828814 C39.8413812,22.0828814 38.6062546,22.3692875 37.8544271,22.9421085 C37.1025996,23.5149294 36.7266915,24.2667456 36.7266915,25.1975797 C36.7266915,25.7704006 36.843044,26.2626612 37.0757525,26.6743763 C37.3084611,27.0860913 37.675419,27.4530492 38.1766373,27.775261 C38.6778556,28.0974728 39.2954189,28.4107296 40.0293458,28.7150407 C40.7632726,29.0193518 41.6493417,29.3505089 42.6875797,29.708522 C44.2628373,30.281343 45.7217187,30.9078565 47.0642678,31.5880814 C48.4068169,32.2683062 49.570342,33.046973 50.554878,33.9241051 C51.539414,34.8012372 52.3091306,35.8305093 52.8640508,37.0119525 C53.4189711,38.1933957 53.6964271,39.5717255 53.6964271,41.1469831 C53.6964271,42.2210223 53.5353236,43.2860953 53.2131119,44.3422339 C52.8909001,45.3983725 52.3538885,46.3739435 51.602061,47.2689763 C50.8502335,48.164009 49.8746625,48.9337256 48.6753186,49.5781492 C47.4759748,50.2225727 45.999193,50.6879827 44.2449288,50.9743932 L44.2449288,57.526 L37.4785153,57.526 L37.4785153,51.1354983 Z" id="$" fill="#FFFFFF" opacity="0.588201993"></path>
                    <text id="lowest-prices" opacity="0.859997736" font-family="Ubuntu-Bold, Ubuntu" font-size="14" font-weight="bold" fill="#FFFFFF">
                        <tspan x="69" y="43">lowest prices</tspan>
                    </text>
                </g>
            </g>
        </g>
    </g>
</svg>